<?xml version="1.0" encoding="UTF-8" standalone="no"?>
<!DOCTYPE svg PUBLIC "-//W3C//DTD SVG 1.1//EN" "http://www.w3.org/Graphics/SVG/1.1/DTD/svg11.dtd">
<svg width="100%" height="100%" viewBox="0 0 3005 488" version="1.1" xmlns="http://www.w3.org/2000/svg" xmlns:xlink="http://www.w3.org/1999/xlink" xml:space="preserve" xmlns:serif="http://www.serif.com/" style="fill-rule:evenodd;clip-rule:evenodd;">
    <path d="M66.033,365.871L2949.9,365.871" style="fill:none;fill-rule:nonzero;stroke:rgb(17,17,17);stroke-width:9.17px;"/>
    <path d="M66.033,466.888L66.033,264.858L84.492,365.871L66.033,466.887L66.033,466.888Z" style="fill-rule:nonzero;stroke:black;stroke-width:9.17px;"/>
    <g>
        <path d="M35.713,190.647C34.068,189.002 32.639,187.228 31.427,185.323C30.215,183.418 29.392,181.47 28.96,179.479C28.527,177.488 28.592,175.475 29.154,173.44C29.717,171.406 30.929,169.458 32.791,167.596C34.695,165.691 36.676,164.425 38.732,163.798C40.788,163.17 42.823,163.018 44.836,163.343C46.849,163.668 48.818,164.404 50.745,165.551C52.671,166.698 54.457,168.094 56.102,169.739C57.66,171.297 59.013,173.018 60.16,174.901C61.307,176.784 62.065,178.732 62.433,180.745C62.8,182.758 62.703,184.782 62.14,186.816C61.578,188.851 60.365,190.799 58.504,192.66C56.729,194.435 54.835,195.636 52.822,196.264C50.81,196.892 48.797,197.043 46.784,196.719C44.771,196.394 42.812,195.691 40.907,194.608C39.003,193.526 37.271,192.206 35.713,190.647ZM78.179,181.167L31.817,134.805L26.297,140.324L43.569,157.597L43.44,157.726C41.838,157.337 40.258,157.25 38.699,157.467C37.141,157.683 35.658,158.084 34.252,158.668C32.845,159.252 31.557,159.956 30.388,160.778C29.219,161.601 28.202,162.445 27.336,163.311C24.782,165.865 23.007,168.57 22.012,171.427C21.016,174.284 20.67,177.141 20.973,179.998C21.276,182.855 22.174,185.658 23.667,188.407C25.161,191.156 27.098,193.721 29.479,196.102C31.86,198.483 34.436,200.409 37.206,201.881C39.977,203.353 42.801,204.251 45.68,204.576C48.558,204.9 51.437,204.576 54.316,203.602C57.195,202.628 59.933,200.842 62.53,198.245C64.868,195.907 66.599,193.353 67.725,190.582C68.85,187.812 68.937,185.042 67.984,182.271L68.114,182.141L72.659,186.687L78.179,181.167Z" style="fill-rule:nonzero;"/>
        <path d="M89.997,129.351L70.711,148.636C69.499,147.251 68.558,145.746 67.887,144.123C67.216,142.5 66.859,140.844 66.816,139.156C66.772,137.467 67.075,135.801 67.725,134.156C68.374,132.511 69.413,130.974 70.841,129.545C72.227,128.16 73.742,127.143 75.387,126.494C77.032,125.844 78.698,125.52 80.387,125.52C82.075,125.52 83.752,125.855 85.419,126.526C87.085,127.197 88.611,128.139 89.997,129.351ZM104.671,133.376L99.217,138.831C100.949,141.515 101.609,144.145 101.198,146.72C100.786,149.296 99.412,151.753 97.074,154.09C95.256,155.908 93.373,157.185 91.425,157.921C89.477,158.657 87.562,158.949 85.679,158.798C83.795,158.646 81.999,158.105 80.289,157.174C78.579,156.244 77.01,155.021 75.581,153.506L100.711,128.377C98.763,126.255 96.436,124.297 93.73,122.5C91.025,120.704 88.124,119.448 85.029,118.734C81.934,118.02 78.785,118.031 75.581,118.767C72.378,119.502 69.283,121.364 66.296,124.351C64.002,126.645 62.324,129.188 61.264,131.98C60.203,134.773 59.749,137.651 59.9,140.617C60.052,143.582 60.798,146.515 62.14,149.415C63.482,152.315 65.43,155.042 67.984,157.597C70.625,160.064 73.363,162.044 76.198,163.538C79.034,165.031 81.902,165.886 84.802,166.103C87.702,166.319 90.57,165.875 93.406,164.772C96.241,163.668 99.001,161.774 101.685,159.09C105.494,155.281 107.702,151.168 108.308,146.753C108.914,142.337 107.702,137.879 104.671,133.376Z" style="fill-rule:nonzero;"/>
        <path d="M112.918,111.104L117.983,141.363L124.671,134.675L120.126,111.429L143.372,115.974L150.449,108.897L119.346,103.767L115.45,76.755L108.827,83.378L112.204,103.507L92.399,99.806L85.321,106.884L112.918,111.104Z" style="fill-rule:nonzero;"/>
        <path d="M135.839,70.651L121.1,55.911L133.437,43.574C134.779,42.232 136.121,41.042 137.463,40.003C138.805,38.964 140.19,38.25 141.618,37.86C143.047,37.47 144.497,37.492 145.969,37.925C147.441,38.358 148.999,39.397 150.644,41.042C153.112,43.509 154.194,46.128 153.891,48.899C153.588,51.669 151.683,54.807 148.177,58.314L135.839,70.651ZM109.736,56.885L156.098,103.248L178.5,80.846C180.795,78.551 182.44,76.149 183.435,73.638C184.431,71.127 184.907,68.66 184.864,66.236C184.82,63.812 184.301,61.496 183.305,59.288C182.31,57.08 180.968,55.132 179.28,53.444C176.422,50.587 173.241,48.92 169.734,48.444C166.228,47.968 162.743,48.855 159.28,51.106L159.15,50.976C160.492,47.903 160.86,44.873 160.254,41.886C159.648,38.899 158.111,36.172 155.644,33.704C153.306,31.367 150.806,29.927 148.144,29.386C145.482,28.845 142.939,28.878 140.515,29.484C139.389,29.743 138.231,30.252 137.041,31.01C135.85,31.767 134.638,32.655 133.404,33.672C132.171,34.689 130.969,35.76 129.801,36.886C128.632,38.011 127.55,39.072 126.554,40.068L109.736,56.885ZM157.072,91.884L141.034,75.846L155.124,61.755C156.423,60.457 157.798,59.32 159.248,58.346C160.698,57.372 162.181,56.712 163.696,56.366C165.211,56.02 166.747,56.063 168.306,56.496C169.864,56.929 171.401,57.903 172.916,59.418C175.513,62.015 176.78,64.818 176.715,67.827C176.65,70.835 175.254,73.703 172.527,76.43L157.072,91.884Z" style="fill-rule:nonzero;"/>
    </g>
    <path d="M106.254,466.888L106.254,264.858L130.225,365.871L106.254,466.887L106.254,466.888Z" style="fill:rgb(243,207,198);fill-rule:nonzero;stroke:black;stroke-width:9.17px;"/>
    <path d="M248.275,310.775L239.321,310.775L239.321,264.858L129.121,365.871L239.321,466.887L239.321,420.971L248.275,420.971L248.275,310.775Z" style="fill:rgb(243,207,198);fill-rule:nonzero;stroke:black;stroke-width:9.17px;"/>
    <g>
        <path d="M135.705,169.934L125.64,159.87L120.121,165.389L130.186,175.454L124.472,181.168L129.342,186.038L135.056,180.324L156.419,201.687C157.977,203.245 159.384,204.349 160.639,204.998C161.895,205.647 163.096,205.918 164.243,205.81C165.39,205.702 166.57,205.236 167.782,204.414C168.994,203.591 170.314,202.466 171.743,201.037L175.964,196.817L171.094,191.947L168.561,194.479C167.695,195.345 166.96,196.016 166.354,196.492C165.747,196.968 165.185,197.249 164.665,197.336C164.146,197.423 163.637,197.325 163.139,197.044C162.641,196.762 162.068,196.297 161.419,195.648L140.575,174.804L147.263,168.116L142.393,163.246L135.705,169.934Z" style="fill-rule:nonzero;"/>
        <path d="M148.497,157.142L182.067,190.713L187.587,185.194L168.626,166.233C167.111,164.718 165.921,163.116 165.055,161.428C164.189,159.74 163.691,158.008 163.561,156.233C163.432,154.459 163.724,152.695 164.438,150.941C165.152,149.188 166.354,147.467 168.042,145.779C170.163,143.658 172.436,142.597 174.86,142.597C177.284,142.597 179.535,143.636 181.613,145.714L204.339,168.441L209.859,162.922L187.781,140.844C185.963,139.026 184.124,137.554 182.262,136.429C180.401,135.303 178.474,134.654 176.483,134.481C174.492,134.308 172.457,134.654 170.379,135.52C168.301,136.386 166.159,137.922 163.951,140.13C158.973,145.108 157.371,150.779 159.146,157.142L159.016,157.272L153.692,151.948L148.497,157.142Z" style="fill-rule:nonzero;"/>
        <path d="M184.794,120.845L231.157,167.207L236.676,161.688L219.404,144.416L219.534,144.286C221.135,144.675 222.715,144.762 224.274,144.545C225.832,144.329 227.304,143.918 228.689,143.312C230.074,142.706 231.362,141.981 232.553,141.136C233.743,140.292 234.75,139.459 235.572,138.637C238.126,136.083 239.912,133.388 240.929,130.552C241.946,127.717 242.304,124.871 242.001,122.014C241.697,119.157 240.799,116.354 239.306,113.605C237.812,110.856 235.875,108.291 233.494,105.91C231.113,103.529 228.538,101.603 225.767,100.131C222.997,98.659 220.161,97.75 217.261,97.404C214.361,97.058 211.471,97.372 208.592,98.346C205.714,99.32 202.976,101.105 200.378,103.703C198.041,106.04 196.32,108.605 195.216,111.397C194.112,114.189 194.037,116.971 194.989,119.741L194.859,119.871L190.314,115.326L184.794,120.845ZM227.261,111.365C228.906,113.01 230.334,114.784 231.546,116.689C232.758,118.594 233.581,120.542 234.014,122.533C234.447,124.524 234.393,126.527 233.851,128.539C233.31,130.552 232.087,132.511 230.183,134.416C228.278,136.321 226.298,137.587 224.241,138.214C222.185,138.842 220.151,138.994 218.138,138.669C216.125,138.344 214.155,137.608 212.229,136.461C210.302,135.314 208.517,133.918 206.872,132.273C205.313,130.715 203.961,128.994 202.813,127.111C201.666,125.228 200.909,123.28 200.541,121.267C200.173,119.254 200.27,117.23 200.833,115.196C201.396,113.161 202.608,111.213 204.469,109.352C206.244,107.577 208.138,106.376 210.151,105.748C212.164,105.12 214.177,104.969 216.19,105.293C218.203,105.618 220.161,106.322 222.066,107.404C223.971,108.486 225.702,109.806 227.261,111.365Z" style="fill-rule:nonzero;"/>
    </g>
    <path d="M280.504,310.775L369.492,310.775L369.492,264.858L479.688,365.871L369.492,466.887L369.492,420.971L280.504,420.971L280.504,310.775Z" style="fill:rgb(0,0,255);fill-rule:nonzero;stroke:black;stroke-width:9.17px;"/>
    <g>
        <path d="M386.259,177.921L363.403,133.636L357.688,139.351L377.623,174.349L377.493,174.479L343.014,154.025L336.975,160.064L357.688,194.284L357.559,194.414L322.495,174.544L316.391,180.648L360.74,203.439L366.714,197.466L346.78,164.025L346.91,163.895L380.415,183.765L386.259,177.921Z" style="fill-rule:nonzero;"/>
        <path d="M395.285,160.454L399.505,164.674L427.816,136.364L422.946,131.494L401.518,152.922L397.103,107.468L393.337,103.702L367.234,129.805L372.104,134.675L391.064,115.715L395.285,160.454Z" style="fill-rule:nonzero;"/>
        <path d="M459.503,98.962L428.79,68.249L423.595,73.443L428.401,78.249L428.336,78.313C425.479,77.448 422.697,77.437 419.992,78.281C417.286,79.125 414.873,80.608 412.752,82.729C409.851,85.629 407.957,88.627 407.07,91.722C406.183,94.817 405.988,97.826 406.486,100.748C406.983,103.67 408.022,106.44 409.602,109.059C411.182,111.678 412.968,113.983 414.959,115.975C417.254,118.269 419.743,120.13 422.427,121.559C425.111,122.987 427.849,123.842 430.641,124.124C433.433,124.405 436.214,124.07 438.985,123.117C441.755,122.165 444.396,120.433 446.906,117.923C449.071,115.758 450.629,113.226 451.582,110.325C452.534,107.425 452.447,104.46 451.322,101.43L451.452,101.3L453.659,103.507C455.521,105.369 457.047,107.263 458.237,109.189C459.428,111.115 460.164,113.042 460.445,114.968C460.726,116.895 460.553,118.799 459.926,120.682C459.298,122.565 458.075,124.416 456.257,126.234C455.348,127.143 454.298,127.998 453.108,128.799C451.917,129.6 450.683,130.206 449.406,130.617C448.129,131.028 446.852,131.18 445.575,131.072C444.298,130.963 443.14,130.433 442.101,129.481L436.582,135C438.487,136.732 440.5,137.792 442.621,138.182C444.742,138.571 446.852,138.496 448.952,137.954C451.051,137.413 453.086,136.504 455.056,135.227C457.025,133.95 458.789,132.533 460.348,130.974C465.715,125.606 468.291,120.304 468.075,115.066C467.858,109.828 465.001,104.46 459.503,98.962ZM442.426,112.793C440.608,114.611 438.714,115.747 436.744,116.202C434.775,116.656 432.805,116.635 430.836,116.137C428.866,115.639 426.972,114.784 425.154,113.572C423.336,112.36 421.669,110.996 420.154,109.481C418.552,107.88 417.2,106.159 416.096,104.319C414.992,102.479 414.278,100.596 413.953,98.67C413.628,96.744 413.758,94.817 414.343,92.891C414.927,90.965 416.107,89.114 417.881,87.339C419.613,85.608 421.431,84.482 423.336,83.963C425.24,83.443 427.145,83.378 429.05,83.768C430.955,84.157 432.794,84.893 434.569,85.976C436.344,87.058 437.967,88.335 439.439,89.807C440.998,91.365 442.372,93.107 443.562,95.034C444.753,96.96 445.575,98.93 446.03,100.943C446.484,102.956 446.452,104.979 445.932,107.014C445.413,109.048 444.244,110.975 442.426,112.793Z" style="fill-rule:nonzero;"/>
    </g>
    <path d="M479.825,466.888L479.825,264.858L580.654,365.871L479.825,466.887L479.825,466.888Z" style="fill:rgb(0,0,255);fill-rule:nonzero;stroke:black;stroke-width:9.17px;"/>
    <g>
        <path d="M536.404,177.919L513.548,133.635L507.834,139.349L527.768,174.348L527.638,174.478L493.159,154.024L487.12,160.063L507.834,194.282L507.704,194.412L472.64,174.543L466.536,180.646L510.885,203.438L516.859,197.464L496.925,164.023L497.055,163.894L530.56,183.763L536.404,177.919Z" style="fill-rule:nonzero;"/>
        <path d="M545.43,160.452L549.651,164.673L577.961,136.362L573.091,131.492L551.663,152.92L547.248,107.467L543.482,103.701L517.379,129.804L522.249,134.674L541.209,115.713L545.43,160.452Z" style="fill-rule:nonzero;"/>
        <path d="M537.183,84.416L583.546,130.778L589.065,125.258L570.104,106.298C568.589,104.783 567.399,103.181 566.533,101.493C565.667,99.805 565.17,98.073 565.04,96.298C564.91,94.523 565.202,92.759 565.916,91.006C566.631,89.253 567.832,87.532 569.52,85.844C571.641,83.723 573.914,82.662 576.338,82.662C578.762,82.662 581.013,83.701 583.091,85.779L605.818,108.506L611.337,102.986L589.26,80.909C587.442,79.091 585.602,77.619 583.74,76.494C581.879,75.368 579.953,74.719 577.961,74.546C575.97,74.373 573.935,74.719 571.858,75.585C569.78,76.45 567.637,77.987 565.429,80.195C564.434,81.19 563.514,82.327 562.67,83.604C561.825,84.881 561.144,86.234 560.624,87.662C560.105,89.091 559.813,90.552 559.748,92.045C559.683,93.539 559.953,95.021 560.559,96.493L560.429,96.623L542.703,78.896L537.183,84.416Z" style="fill-rule:nonzero;"/>
    </g>
    <path d="M581.346,466.888L581.346,264.858L677.217,365.871L581.346,466.887L581.346,466.888Z" style="fill:rgb(0,0,255);fill-rule:nonzero;stroke:black;stroke-width:9.17px;"/>
    <g>
        <path d="M635.442,177.92L612.586,133.635L606.872,139.35L626.806,174.349L626.676,174.478L592.197,154.024L586.158,160.063L606.872,194.283L606.742,194.413L571.678,174.543L565.574,180.647L609.924,203.439L615.898,197.465L595.963,164.024L596.093,163.894L629.598,183.764L635.442,177.92Z" style="fill-rule:nonzero;"/>
        <path d="M644.468,160.453L648.689,164.673L677,136.363L672.13,131.493L650.702,152.921L646.286,107.467L642.52,103.701L616.417,129.804L621.287,134.674L640.247,115.714L644.468,160.453Z" style="fill-rule:nonzero;"/>
        <path d="M670.117,110.26C668.472,108.615 667.043,106.84 665.831,104.935C664.619,103.03 663.797,101.082 663.364,99.091C662.931,97.1 662.996,95.087 663.558,93.052C664.121,91.018 665.333,89.07 667.195,87.208C669.099,85.304 671.08,84.037 673.136,83.41C675.192,82.782 677.227,82.631 679.24,82.955C681.253,83.28 683.222,84.016 685.149,85.163C687.075,86.31 688.861,87.706 690.506,89.351C692.064,90.91 693.417,92.63 694.564,94.513C695.711,96.396 696.469,98.344 696.837,100.357C697.205,102.37 697.107,104.394 696.544,106.429C695.982,108.463 694.77,110.411 692.908,112.273C691.133,114.047 689.239,115.249 687.227,115.876C685.214,116.504 683.201,116.655 681.188,116.331C679.175,116.006 677.216,115.303 675.311,114.22C673.407,113.138 671.675,111.818 670.117,110.26ZM712.583,100.779L666.221,54.417L660.701,59.936L677.974,77.209L677.844,77.339C676.242,76.949 674.662,76.862 673.104,77.079C671.545,77.295 670.063,77.696 668.656,78.28C667.249,78.864 665.961,79.568 664.792,80.39C663.623,81.213 662.606,82.057 661.74,82.923C659.186,85.477 657.411,88.182 656.416,91.039C655.42,93.896 655.074,96.754 655.377,99.611C655.68,102.468 656.578,105.271 658.072,108.019C659.565,110.768 661.502,113.333 663.883,115.714C666.264,118.095 668.84,120.021 671.61,121.493C674.381,122.965 677.205,123.863 680.084,124.188C682.963,124.512 685.841,124.188 688.72,123.214C691.599,122.24 694.337,120.454 696.934,117.857C699.272,115.519 701.003,112.965 702.129,110.195C703.254,107.424 703.341,104.654 702.388,101.883L702.518,101.753L707.064,106.299L712.583,100.779Z" style="fill-rule:nonzero;"/>
    </g>
    <path d="M678.454,466.888L678.454,264.858L772.675,365.871L678.454,466.887L678.454,466.888Z" style="fill:rgb(0,0,255);fill-rule:nonzero;stroke:black;stroke-width:9.17px;"/>
    <g>
        <path d="M731.729,177.918L708.873,133.633L703.159,139.347L723.093,174.346L722.963,174.476L688.484,154.022L682.445,160.061L703.159,194.281L703.029,194.411L667.965,174.541L661.861,180.645L706.211,203.436L712.184,197.462L692.25,164.022L692.38,163.892L725.885,183.762L731.729,177.918Z" style="fill-rule:nonzero;"/>
        <path d="M740.755,160.451L744.976,164.671L773.286,136.36L768.416,131.49L746.988,152.918L742.573,107.465L738.807,103.699L712.704,129.802L717.574,134.672L736.534,115.712L740.755,160.451Z" style="fill-rule:nonzero;"/>
        <path d="M782.182,87.466L762.897,106.751C761.685,105.366 760.743,103.861 760.073,102.238C759.402,100.615 759.044,98.959 759.001,97.271C758.958,95.582 759.261,93.916 759.91,92.271C760.56,90.626 761.598,89.089 763.027,87.661C764.412,86.275 765.927,85.258 767.572,84.609C769.217,83.959 770.884,83.635 772.572,83.635C774.26,83.635 775.938,83.97 777.604,84.641C779.271,85.312 780.797,86.254 782.182,87.466ZM796.857,91.492L791.403,96.946C793.134,99.63 793.794,102.26 793.383,104.835C792.972,107.411 791.598,109.868 789.26,112.205C787.442,114.023 785.559,115.3 783.611,116.036C781.663,116.772 779.747,117.064 777.864,116.913C775.981,116.761 774.185,116.22 772.475,115.29C770.765,114.359 769.196,113.136 767.767,111.621L792.896,86.492C790.948,84.371 788.621,82.412 785.916,80.615C783.21,78.819 780.31,77.564 777.215,76.849C774.12,76.135 770.97,76.146 767.767,76.882C764.564,77.618 761.469,79.479 758.482,82.466C756.187,84.76 754.51,87.304 753.449,90.096C752.389,92.888 751.934,95.766 752.086,98.732C752.237,101.697 752.984,104.63 754.326,107.53C755.668,110.431 757.616,113.158 760.17,115.712C762.811,118.179 765.549,120.16 768.384,121.653C771.219,123.147 774.087,124.002 776.988,124.218C779.888,124.434 782.756,123.991 785.591,122.887C788.427,121.783 791.186,119.889 793.87,117.205C797.68,113.396 799.887,109.283 800.493,104.868C801.099,100.452 799.887,95.994 796.857,91.492Z" style="fill-rule:nonzero;"/>
    </g>
    <path d="M774.329,466.888L774.329,264.858L789.617,365.871L774.329,466.887L774.329,466.888Z" style="fill:rgb(196,164,132);fill-rule:nonzero;stroke:black;stroke-width:9.17px;"/>
    <path d="M819.508,466.888L819.508,264.858L907.117,365.871L819.508,466.887L819.508,466.888Z" style="fill:rgb(128,0,128);fill-rule:nonzero;stroke:black;stroke-width:9.17px;"/>
    <g>
        <path d="M869.475,177.921L846.619,133.636L840.905,139.35L860.839,174.349L860.709,174.479L826.23,154.025L820.191,160.064L840.905,194.284L840.775,194.414L805.711,174.544L799.607,180.648L843.957,203.439L849.93,197.466L829.996,164.025L830.126,163.895L863.631,183.765L869.475,177.921Z" style="fill-rule:nonzero;"/>
        <path d="M885.449,116.364L891.163,110.65C888.955,108.875 886.715,107.674 884.442,107.046C882.17,106.419 879.919,106.267 877.689,106.592C875.46,106.916 873.285,107.685 871.164,108.897C869.042,110.109 867.029,111.667 865.125,113.572C862.484,116.213 860.634,118.994 859.573,121.916C858.512,124.838 858.134,127.771 858.437,130.714C858.74,133.658 859.66,136.548 861.196,139.383C862.733,142.218 864.757,144.891 867.268,147.402C869.778,149.913 872.419,151.883 875.189,153.311C877.96,154.74 880.763,155.551 883.598,155.746C886.434,155.941 889.247,155.465 892.04,154.318C894.832,153.17 897.505,151.32 900.059,148.766C904.344,144.48 906.606,139.967 906.844,135.227C907.082,130.487 905.427,125.736 901.877,120.974L896.228,126.624C898.479,129.567 899.55,132.522 899.442,135.487C899.334,138.452 897.916,141.298 895.189,144.026C893.457,145.757 891.617,146.904 889.669,147.467C887.721,148.03 885.784,148.127 883.858,147.759C881.932,147.391 880.049,146.655 878.209,145.552C876.369,144.448 874.67,143.117 873.112,141.558C871.423,139.87 869.962,138.063 868.729,136.136C867.495,134.21 866.672,132.24 866.261,130.227C865.85,128.214 865.947,126.169 866.553,124.091C867.159,122.013 868.458,119.979 870.449,117.988C872.787,115.65 875.233,114.373 877.787,114.156C880.341,113.94 882.895,114.676 885.449,116.364Z" style="fill-rule:nonzero;"/>
        <path d="M886.553,81.625L879.8,74.872L874.28,80.391L881.033,87.144L886.553,81.625ZM887.072,93.183L920.643,126.753L926.162,121.234L892.591,87.664L887.072,93.183Z" style="fill-rule:nonzero;"/>
        <path d="M889.54,65.132L935.902,111.494L942.07,105.326L895.708,58.963L889.54,65.132Z" style="fill-rule:nonzero;"/>
    </g>
    <path d="M908.217,310.775L967.45,310.775L967.45,264.858L1077.65,365.871L967.45,466.887L967.45,420.971L908.217,420.971L908.217,310.775Z" style="fill:rgb(0,255,255);fill-rule:nonzero;stroke:black;stroke-width:9.17px;"/>
    <g>
        <path d="M999.096,177.919L976.24,133.635L970.526,139.349L990.46,174.348L990.33,174.478L955.851,154.024L949.812,160.062L970.526,194.282L970.396,194.412L935.332,174.543L929.228,180.646L973.577,203.438L979.551,197.464L959.617,164.023L959.747,163.894L993.252,183.763L999.096,177.919Z" style="fill-rule:nonzero;"/>
        <path d="M1015.07,116.363L1020.78,110.648C1018.58,108.874 1016.34,107.672 1014.06,107.045C1011.79,106.417 1009.54,106.265 1007.31,106.59C1005.08,106.915 1002.9,107.683 1000.78,108.895C998.663,110.107 996.65,111.666 994.746,113.57C992.105,116.211 990.254,118.992 989.194,121.914C988.133,124.836 987.754,127.769 988.057,130.713C988.36,133.656 989.28,136.546 990.817,139.381C992.354,142.217 994.378,144.89 996.888,147.401C999.399,149.911 1002.04,151.881 1004.81,153.309C1007.58,154.738 1010.38,155.55 1013.22,155.744C1016.05,155.939 1018.87,155.463 1021.66,154.316C1024.45,153.169 1027.13,151.318 1029.68,148.764C1033.96,144.479 1036.23,139.966 1036.46,135.226C1036.7,130.485 1035.05,125.735 1031.5,120.973L1025.85,126.622C1028.1,129.566 1029.17,132.52 1029.06,135.485C1028.95,138.451 1027.54,141.297 1024.81,144.024C1023.08,145.756 1021.24,146.903 1019.29,147.465C1017.34,148.028 1015.4,148.126 1013.48,147.758C1011.55,147.39 1009.67,146.654 1007.83,145.55C1005.99,144.446 1004.29,143.115 1002.73,141.557C1001.04,139.868 999.583,138.061 998.349,136.135C997.116,134.208 996.293,132.239 995.882,130.226C995.471,128.213 995.568,126.167 996.174,124.09C996.78,122.012 998.079,119.977 1000.07,117.986C1002.41,115.648 1004.85,114.371 1007.41,114.155C1009.96,113.938 1012.52,114.674 1015.07,116.363Z" style="fill-rule:nonzero;"/>
        <path d="M1016.17,81.623L1009.42,74.87L1003.9,80.39L1010.65,87.143L1016.17,81.623ZM1016.69,93.181L1050.26,126.752L1055.78,121.233L1022.21,87.662L1016.69,93.181Z" style="fill-rule:nonzero;"/>
        <path d="M1077.28,76.624L1042.48,41.819L1036.31,47.988L1070.2,81.883C1072.76,84.437 1074.26,87.002 1074.72,89.578C1075.17,92.153 1073.99,94.848 1071.18,97.662C1069.66,99.177 1068.19,100.194 1066.76,100.714C1065.33,101.233 1063.94,101.352 1062.57,101.071C1061.21,100.789 1059.86,100.194 1058.52,99.285C1057.17,98.376 1055.83,97.251 1054.49,95.909L1052.54,93.961L1046.37,100.129L1049.23,102.986C1053.64,107.402 1058.16,109.577 1062.77,109.512C1067.38,109.447 1071.85,107.25 1076.18,102.921C1078.77,100.324 1080.59,97.792 1081.63,95.324C1082.67,92.857 1083.12,90.498 1083,88.247C1082.87,85.996 1082.27,83.885 1081.21,81.916C1080.15,79.946 1078.84,78.182 1077.28,76.624Z" style="fill-rule:nonzero;"/>
    </g>
    <path d="M1078.2,310.775L1116.36,310.775L1116.36,264.858L1226.55,365.871L1116.36,466.887L1116.36,420.971L1078.2,420.971L1078.2,310.775Z" style="fill:rgb(0,255,255);fill-rule:nonzero;stroke:black;stroke-width:9.17px;"/>
    <g>
        <path d="M1158.54,177.918L1135.68,133.634L1129.97,139.348L1149.9,174.347L1149.77,174.477L1115.29,154.023L1109.26,160.062L1129.97,194.282L1129.84,194.411L1094.78,174.542L1088.67,180.646L1133.02,203.437L1139,197.463L1119.06,164.023L1119.19,163.893L1152.7,183.762L1158.54,177.918Z" style="fill-rule:nonzero;"/>
        <path d="M1174.51,116.362L1180.22,110.648C1178.02,108.873 1175.78,107.672 1173.5,107.044C1171.23,106.416 1168.98,106.265 1166.75,106.589C1164.52,106.914 1162.35,107.683 1160.23,108.895C1158.1,110.107 1156.09,111.665 1154.19,113.57C1151.55,116.21 1149.69,118.992 1148.63,121.914C1147.57,124.836 1147.19,127.768 1147.5,130.712C1147.8,133.656 1148.72,136.545 1150.26,139.381C1151.79,142.216 1153.82,144.889 1156.33,147.4C1158.84,149.911 1161.48,151.88 1164.25,153.309C1167.02,154.737 1169.82,155.549 1172.66,155.744C1175.5,155.939 1178.31,155.462 1181.1,154.315C1183.89,153.168 1186.57,151.318 1189.12,148.763C1193.41,144.478 1195.67,139.965 1195.91,135.225C1196.14,130.485 1194.49,125.734 1190.94,120.972L1185.29,126.621C1187.54,129.565 1188.61,132.519 1188.5,135.485C1188.39,138.45 1186.98,141.296 1184.25,144.023C1182.52,145.755 1180.68,146.902 1178.73,147.465C1176.78,148.028 1174.85,148.125 1172.92,147.757C1170.99,147.389 1169.11,146.653 1167.27,145.549C1165.43,144.445 1163.73,143.114 1162.17,141.556C1160.49,139.868 1159.02,138.06 1157.79,136.134C1156.56,134.208 1155.73,132.238 1155.32,130.225C1154.91,128.212 1155.01,126.167 1155.62,124.089C1156.22,122.011 1157.52,119.977 1159.51,117.985C1161.85,115.648 1164.29,114.371 1166.85,114.154C1169.4,113.938 1171.96,114.674 1174.51,116.362Z" style="fill-rule:nonzero;"/>
        <path d="M1175.62,81.623L1168.87,74.87L1163.35,80.389L1170.1,87.142L1175.62,81.623ZM1176.14,93.181L1209.71,126.751L1215.23,121.232L1181.66,87.661L1176.14,93.181Z" style="fill-rule:nonzero;"/>
        <path d="M1178.34,65.389L1224.7,111.752L1230.87,105.583L1214.64,89.35L1215.16,74.415L1255.35,81.103L1263.14,73.311L1215.16,65.974L1216,27.728L1208.02,35.715L1207.62,82.337L1184.51,59.221L1178.34,65.389Z" style="fill-rule:nonzero;"/>
    </g>
    <path d="M1225.45,310.775L1269.39,310.775L1269.39,264.858L1379.59,365.871L1269.39,466.887L1269.39,420.971L1225.45,420.971L1225.45,310.775Z" style="fill:rgb(0,255,255);fill-rule:nonzero;stroke:black;stroke-width:9.17px;"/>
    <g>
        <path d="M1308.68,177.919L1285.82,133.635L1280.11,139.349L1300.04,174.348L1299.91,174.477L1265.43,154.024L1259.4,160.062L1280.11,194.282L1279.98,194.412L1244.92,174.542L1238.81,180.646L1283.16,203.438L1289.13,197.464L1269.2,164.023L1269.33,163.893L1302.84,183.763L1308.68,177.919Z" style="fill-rule:nonzero;"/>
        <path d="M1324.65,116.362L1330.36,110.648C1328.16,108.873 1325.92,107.672 1323.64,107.044C1321.37,106.417 1319.12,106.265 1316.89,106.59C1314.66,106.915 1312.49,107.683 1310.36,108.895C1308.24,110.107 1306.23,111.666 1304.33,113.57C1301.68,116.211 1299.83,118.992 1298.77,121.914C1297.71,124.836 1297.33,127.769 1297.64,130.713C1297.94,133.656 1298.86,136.546 1300.4,139.381C1301.93,142.217 1303.96,144.89 1306.47,147.4C1308.98,149.911 1311.62,151.881 1314.39,153.309C1317.16,154.738 1319.96,155.549 1322.8,155.744C1325.63,155.939 1328.45,155.463 1331.24,154.316C1334.03,153.169 1336.7,151.318 1339.26,148.764C1343.55,144.478 1345.81,139.966 1346.05,135.225C1346.28,130.485 1344.63,125.734 1341.08,120.973L1335.43,126.622C1337.68,129.565 1338.75,132.52 1338.64,135.485C1338.53,138.45 1337.12,141.297 1334.39,144.024C1332.66,145.755 1330.82,146.903 1328.87,147.465C1326.92,148.028 1324.99,148.125 1323.06,147.757C1321.13,147.39 1319.25,146.654 1317.41,145.55C1315.57,144.446 1313.87,143.115 1312.31,141.556C1310.62,139.868 1309.16,138.061 1307.93,136.134C1306.7,134.208 1305.87,132.238 1305.46,130.226C1305.05,128.213 1305.15,126.167 1305.75,124.089C1306.36,122.012 1307.66,119.977 1309.65,117.986C1311.99,115.648 1314.43,114.371 1316.99,114.155C1319.54,113.938 1322.1,114.674 1324.65,116.362Z" style="fill-rule:nonzero;"/>
        <path d="M1325.76,81.623L1319.01,74.87L1313.49,80.389L1320.24,87.142L1325.76,81.623ZM1326.28,93.181L1359.85,126.752L1365.37,121.232L1331.8,87.662L1326.28,93.181Z" style="fill-rule:nonzero;"/>
        <path d="M1328.49,65.39L1374.85,111.752L1405.57,81.039L1400.37,75.844L1375.83,100.389L1334.66,59.221L1328.49,65.39Z" style="fill-rule:nonzero;"/>
    </g>
    <path d="M1379.59,310.775L1462.38,310.775L1462.38,264.858L1572.57,365.871L1462.38,466.887L1462.38,420.971L1379.59,420.971L1379.59,310.775Z" style="fill:rgb(255,0,255);fill-rule:nonzero;stroke:black;stroke-width:9.17px;"/>
    <g>
        <path d="M1482.24,177.921L1459.38,133.636L1453.67,139.351L1473.6,174.349L1473.47,174.479L1439,154.025L1432.96,160.064L1453.67,194.284L1453.54,194.414L1418.48,174.544L1412.37,180.648L1456.72,203.439L1462.69,197.466L1442.76,164.025L1442.89,163.895L1476.4,183.765L1482.24,177.921Z" style="fill-rule:nonzero;"/>
        <path d="M1491.27,160.454L1495.49,164.674L1523.8,136.364L1518.93,131.494L1497.5,152.922L1493.09,107.468L1489.32,103.702L1463.22,129.805L1468.09,134.675L1487.05,115.715L1491.27,160.454Z" style="fill-rule:nonzero;"/>
        <path d="M1547.05,122.078C1548.05,124.373 1548.79,126.396 1549.29,128.15C1549.79,129.903 1550.02,131.515 1549.97,132.987C1549.93,134.459 1549.61,135.823 1549,137.078C1548.39,138.333 1547.48,139.567 1546.27,140.779C1545.62,141.428 1544.93,142.034 1544.19,142.597C1543.46,143.16 1542.68,143.636 1541.86,144.026L1536.79,138.961C1537.48,138.701 1538.22,138.333 1539,137.857C1539.78,137.381 1540.38,136.926 1540.82,136.493C1541.94,135.368 1542.61,134.156 1542.83,132.857C1543.05,131.559 1542.85,130.217 1542.25,128.831L1538.87,120.91L1492.18,100.845L1498.42,94.612L1535.69,112.273L1535.82,112.144L1517.77,75.262L1523.61,69.418L1547.05,122.078Z" style="fill-rule:nonzero;"/>
    </g>
    <path d="M1572.43,310.775L1611.41,310.775L1611.41,264.858L1721.61,365.871L1611.41,466.887L1611.41,420.971L1572.43,420.971L1572.43,310.775Z" style="fill:rgb(150,100,8);fill-rule:nonzero;stroke:black;stroke-width:9.17px;"/>
    <g>
        <path d="M1653.19,177.919L1630.33,133.634L1624.62,139.349L1644.55,174.347L1644.42,174.477L1609.94,154.023L1603.9,160.062L1624.62,194.282L1624.49,194.412L1589.42,174.542L1583.32,180.646L1627.67,203.437L1633.64,197.464L1613.71,164.023L1613.84,163.893L1647.35,183.763L1653.19,177.919Z" style="fill-rule:nonzero;"/>
        <path d="M1669.16,116.362L1674.87,110.648C1672.67,108.873 1670.43,107.672 1668.15,107.044C1665.88,106.417 1663.63,106.265 1661.4,106.59C1659.17,106.914 1657,107.683 1654.88,108.895C1652.75,110.107 1650.74,111.665 1648.84,113.57C1646.19,116.211 1644.35,118.992 1643.28,121.914C1642.22,124.836 1641.85,127.769 1642.15,130.712C1642.45,133.656 1643.37,136.546 1644.91,139.381C1646.44,142.216 1648.47,144.89 1650.98,147.4C1653.49,149.911 1656.13,151.881 1658.9,153.309C1661.67,154.738 1664.47,155.549 1667.31,155.744C1670.14,155.939 1672.96,155.463 1675.75,154.316C1678.54,153.168 1681.22,151.318 1683.77,148.764C1688.06,144.478 1690.32,139.965 1690.56,135.225C1690.79,130.485 1689.14,125.734 1685.59,120.973L1679.94,126.622C1682.19,129.565 1683.26,132.52 1683.15,135.485C1683.05,138.45 1681.63,141.297 1678.9,144.024C1677.17,145.755 1675.33,146.902 1673.38,147.465C1671.43,148.028 1669.5,148.125 1667.57,147.757C1665.64,147.389 1663.76,146.654 1661.92,145.55C1660.08,144.446 1658.38,143.115 1656.82,141.556C1655.13,139.868 1653.67,138.061 1652.44,136.134C1651.21,134.208 1650.38,132.238 1649.97,130.225C1649.56,128.213 1649.66,126.167 1650.27,124.089C1650.87,122.011 1652.17,119.977 1654.16,117.986C1656.5,115.648 1658.94,114.371 1661.5,114.155C1664.05,113.938 1666.61,114.674 1669.16,116.362Z" style="fill-rule:nonzero;"/>
        <path d="M1670.27,81.623L1663.52,74.87L1658,80.389L1664.75,87.142L1670.27,81.623ZM1670.79,93.181L1704.36,126.752L1709.88,121.232L1676.31,87.662L1670.79,93.181Z" style="fill-rule:nonzero;"/>
        <path d="M1673.12,65.26L1719.48,111.622L1725.33,105.778L1686.76,67.208L1686.89,67.078L1739.94,91.168L1745.2,85.909L1721.11,32.858L1721.24,32.728L1759.81,71.299L1765.65,65.455L1719.29,19.093L1710.85,27.534L1735.13,81.169L1681.56,56.819L1673.12,65.26Z" style="fill-rule:nonzero;"/>
    </g>
    <path d="M1720.1,310.775L1780.99,310.775L1780.99,264.858L1891.18,365.871L1780.99,466.887L1780.99,420.971L1720.1,420.971L1720.1,310.775Z" style="fill:rgb(255,255,0);fill-rule:nonzero;stroke:black;stroke-width:9.17px;"/>
    <g>
        <path d="M1811.8,177.921L1788.94,133.637L1783.23,139.351L1803.16,174.35L1803.03,174.48L1768.55,154.026L1762.52,160.065L1783.23,194.284L1783.1,194.414L1748.04,174.545L1741.93,180.648L1786.28,203.44L1792.26,197.466L1772.32,164.025L1772.45,163.896L1805.96,183.765L1811.8,177.921Z" style="fill-rule:nonzero;"/>
        <path d="M1820.83,160.454L1825.05,164.675L1853.36,136.364L1848.49,131.494L1827.06,152.922L1822.65,107.469L1818.88,103.703L1792.78,129.806L1797.65,134.676L1816.61,115.715L1820.83,160.454Z" style="fill-rule:nonzero;"/>
        <path d="M1850.31,104.092L1855.38,134.351L1862.06,127.663L1857.52,104.417L1880.76,108.962L1887.84,101.885L1856.74,96.755L1852.84,69.743L1846.22,76.366L1849.6,96.495L1829.79,92.794L1822.71,99.872L1850.31,104.092Z" style="fill-rule:nonzero;"/>
    </g>
    <path d="M1891.73,310.775L1932.78,310.775L1932.78,264.858L2042.98,365.871L1932.78,466.887L1932.78,420.971L1891.73,420.971L1891.73,310.775Z" style="fill:rgb(191,71,18);fill-rule:nonzero;stroke:black;stroke-width:9.17px;"/>
    <g>
        <path d="M1906.7,177.595L1940.27,211.166L1945.79,205.647L1924.88,184.738C1924.23,184.089 1923.58,183.115 1922.93,181.816C1922.28,180.517 1921.86,179.056 1921.67,177.433C1921.47,175.81 1921.62,174.1 1922.12,172.303C1922.62,170.507 1923.67,168.808 1925.27,167.206C1926.53,165.951 1927.74,165.107 1928.91,164.674C1930.08,164.241 1931.23,164.122 1932.38,164.317C1933.53,164.511 1934.65,164.966 1935.76,165.68C1936.86,166.395 1937.95,167.293 1939.04,168.375L1961.05,190.387L1966.57,184.868L1945.66,163.96C1943.06,161.362 1941.76,158.505 1941.76,155.388C1941.76,152.272 1943.13,149.35 1945.86,146.622C1947.2,145.28 1948.48,144.382 1949.72,143.928C1950.95,143.473 1952.14,143.343 1953.29,143.538C1954.44,143.733 1955.55,144.198 1956.63,144.934C1957.72,145.67 1958.78,146.557 1959.82,147.596L1981.83,169.609L1987.35,164.089L1962.74,139.48C1961.01,137.748 1959.25,136.536 1957.48,135.844C1955.7,135.151 1953.94,134.902 1952.19,135.097C1950.43,135.292 1948.69,135.887 1946.96,136.882C1945.23,137.878 1943.52,139.22 1941.83,140.908C1939.62,143.116 1938.1,145.638 1937.25,148.473C1936.41,151.308 1936.33,154.198 1937.02,157.142C1934.25,155.756 1931.59,155.475 1929.04,156.297C1926.48,157.12 1924.17,158.57 1922.09,160.648C1917.37,165.366 1915.66,170.886 1916.96,177.206L1916.83,177.336L1911.89,172.401L1906.7,177.595Z" style="fill-rule:nonzero;"/>
        <path d="M1962.09,122.208L1995.66,155.778L2001.18,150.259L1982.22,131.298C1980.7,129.783 1979.51,128.181 1978.65,126.493C1977.78,124.805 1977.28,123.073 1977.15,121.299C1977.03,119.524 1977.32,117.76 1978.03,116.006C1978.75,114.253 1979.95,112.533 1981.63,110.844C1983.76,108.723 1986.03,107.663 1988.45,107.663C1990.88,107.663 1993.13,108.701 1995.21,110.779L2017.93,133.506L2023.45,127.987L2001.37,105.909C1999.56,104.091 1997.72,102.619 1995.86,101.494C1993.99,100.368 1992.07,99.719 1990.08,99.546C1988.09,99.373 1986.05,99.719 1983.97,100.585C1981.89,101.451 1979.75,102.987 1977.54,105.195C1972.57,110.173 1970.96,115.844 1972.74,122.208L1972.61,122.337L1967.29,117.013L1962.09,122.208Z" style="fill-rule:nonzero;"/>
        <path d="M2061.37,89.806C2060.98,91.321 2059.94,92.923 2058.25,94.611C2056.82,96.04 2055.29,96.775 2053.64,96.819C2052,96.862 2050.27,95.975 2048.45,94.156C2048.75,97.49 2048.3,100.563 2047.08,103.377C2045.87,106.191 2044.1,108.766 2041.76,111.104C2040.25,112.619 2038.63,113.885 2036.92,114.903C2035.21,115.92 2033.49,116.558 2031.76,116.818C2030.03,117.078 2028.28,116.905 2026.5,116.299C2024.73,115.693 2022.99,114.545 2021.31,112.857C2019.4,110.953 2018.17,109.069 2017.61,107.208C2017.04,105.347 2016.91,103.507 2017.22,101.689C2017.52,99.871 2018.16,98.085 2019.13,96.332C2020.11,94.579 2021.18,92.858 2022.35,91.17C2023.56,89.351 2024.77,87.685 2025.98,86.17C2027.19,84.655 2028.18,83.237 2028.93,81.917C2029.69,80.596 2030.1,79.363 2030.17,78.215C2030.23,77.068 2029.75,75.975 2028.71,74.936C2027.5,73.724 2026.3,72.977 2025.1,72.696C2023.91,72.415 2022.77,72.436 2021.66,72.761C2020.56,73.086 2019.5,73.627 2018.48,74.384C2017.46,75.142 2016.52,75.954 2015.66,76.819C2013.32,79.157 2011.82,81.549 2011.14,83.994C2010.47,86.44 2011.31,88.962 2013.64,91.559L2008.12,97.078C2006.13,94.914 2004.81,92.728 2004.16,90.52C2003.51,88.313 2003.39,86.116 2003.81,83.93C2004.22,81.743 2005.06,79.622 2006.34,77.566C2007.62,75.51 2009.21,73.529 2011.11,71.625C2012.63,70.11 2014.24,68.714 2015.95,67.437C2017.66,66.16 2019.46,65.25 2021.34,64.709C2023.22,64.168 2025.14,64.136 2027.09,64.612C2029.03,65.088 2030.98,66.3 2032.93,68.248L2050.2,85.52C2051.5,86.819 2052.53,87.696 2053.28,88.15C2054.04,88.605 2054.86,88.399 2055.72,87.533C2056.2,87.057 2056.65,86.386 2057.08,85.52L2061.37,89.806ZM2035.2,81.559C2035.03,82.772 2034.5,84.059 2033.61,85.423C2032.72,86.787 2031.74,88.161 2030.66,89.546C2029.57,90.931 2028.5,92.349 2027.44,93.799C2026.38,95.25 2025.57,96.689 2025.01,98.117C2024.44,99.546 2024.25,100.974 2024.42,102.403C2024.6,103.832 2025.38,105.238 2026.76,106.624C2027.67,107.533 2028.62,108.117 2029.62,108.377C2030.61,108.637 2031.6,108.669 2032.57,108.474C2033.55,108.279 2034.51,107.879 2035.46,107.273C2036.41,106.667 2037.32,105.931 2038.19,105.065C2040.01,103.247 2041.32,101.44 2042.12,99.643C2042.92,97.847 2043.35,96.159 2043.42,94.579C2043.48,92.999 2043.26,91.57 2042.77,90.293C2042.27,89.016 2041.63,87.988 2040.85,87.209L2035.2,81.559Z" style="fill-rule:nonzero;"/>
        <path d="M2056.37,56.755L2042.6,27.275L2042.73,27.146L2072.08,41.041L2056.37,56.755ZM2033.77,24.938L2062.08,89.351L2068.38,83.053L2059.62,63.898L2079.23,44.288L2098.25,53.184L2105.07,46.366L2040.59,18.12L2033.77,24.938Z" style="fill-rule:nonzero;"/>
    </g>
    <path d="M2043.39,310.775L2078.66,310.775L2078.66,264.858L2188.85,365.871L2078.66,466.887L2078.66,420.971L2043.39,420.971L2043.39,310.775Z" style="fill:rgb(158,81,22);fill-rule:nonzero;stroke:black;stroke-width:9.17px;"/>
    <g>
        <path d="M2062.61,180.19L2091.31,208.891L2096.83,203.372L2068.13,174.671L2074.62,168.178L2069.75,163.308L2063.26,169.801L2058.58,165.126C2057.11,163.654 2056.49,162.291 2056.7,161.035C2056.92,159.78 2057.7,158.481 2059.04,157.139C2059.51,156.663 2060.07,156.176 2060.7,155.678C2061.32,155.18 2061.96,154.78 2062.61,154.477L2057.8,149.672C2057.11,150.018 2056.39,150.484 2055.63,151.068C2054.87,151.652 2054.23,152.204 2053.71,152.724C2050.68,155.754 2049.08,158.763 2048.91,161.75C2048.74,164.736 2050.01,167.593 2052.74,170.321L2057.74,175.321L2052.09,180.97L2056.96,185.84L2062.61,180.19Z" style="fill-rule:nonzero;"/>
        <path d="M2074.69,158.373L2108.26,191.943L2113.78,186.424L2094.82,167.464C2093.3,165.949 2092.11,164.347 2091.25,162.659C2090.38,160.97 2089.88,159.239 2089.75,157.464C2089.62,155.689 2089.92,153.925 2090.63,152.172C2091.35,150.419 2092.55,148.698 2094.23,147.01C2096.36,144.889 2098.63,143.828 2101.05,143.828C2103.48,143.828 2105.73,144.867 2107.8,146.945L2130.53,169.671L2136.05,164.152L2113.97,142.075C2112.16,140.257 2110.32,138.785 2108.45,137.659C2106.59,136.534 2104.67,135.885 2102.68,135.711C2100.68,135.538 2098.65,135.885 2096.57,136.75C2094.49,137.616 2092.35,139.153 2090.14,141.361C2085.17,146.339 2083.56,152.01 2085.34,158.373L2085.21,158.503L2079.88,153.178L2074.69,158.373Z" style="fill-rule:nonzero;"/>
        <path d="M2098.32,109.154L2144.68,155.516L2150.2,149.997L2103.84,103.634L2098.32,109.154Z" style="fill-rule:nonzero;"/>
        <path d="M2148.52,113.374L2134.75,83.895L2134.88,83.765L2164.23,97.661L2148.52,113.374ZM2125.92,81.557L2154.23,145.971L2160.53,139.672L2151.77,120.517L2171.38,100.907L2190.4,109.803L2197.22,102.985L2132.74,74.739L2125.92,81.557Z" style="fill-rule:nonzero;"/>
    </g>
    <path d="M2202.49,310.775L2261.72,310.775L2261.72,264.858L2371.92,365.871L2261.72,466.887L2261.72,420.971L2202.49,420.971L2202.49,310.775Z" style="fill:rgb(158,81,22);fill-rule:nonzero;stroke:black;stroke-width:9.17px;"/>
    <g>
        <path d="M2233.69,180.194L2262.39,208.895L2267.91,203.375L2239.21,174.675L2245.7,168.182L2240.83,163.312L2234.34,169.805L2229.66,165.13C2228.19,163.658 2227.56,162.294 2227.78,161.039C2228,159.784 2228.78,158.485 2230.12,157.143C2230.6,156.667 2231.15,156.18 2231.77,155.682C2232.4,155.184 2233.04,154.784 2233.69,154.481L2228.89,149.676C2228.19,150.022 2227.47,150.487 2226.71,151.072C2225.95,151.656 2225.31,152.208 2224.79,152.728C2221.76,155.758 2220.16,158.766 2219.99,161.753C2219.82,164.74 2221.09,167.597 2223.82,170.324L2228.82,175.324L2223.17,180.973L2228.04,185.843L2233.69,180.194Z" style="fill-rule:nonzero;"/>
        <path d="M2245.77,158.377L2279.34,191.947L2284.86,186.428L2265.9,167.467C2264.38,165.952 2263.19,164.351 2262.33,162.662C2261.46,160.974 2260.97,159.242 2260.84,157.468C2260.7,155.693 2261,153.929 2261.71,152.176C2262.43,150.422 2263.63,148.702 2265.32,147.013C2267.44,144.892 2269.71,143.832 2272.13,143.832C2274.56,143.832 2276.81,144.871 2278.89,146.948L2301.61,169.675L2307.13,164.156L2285.05,142.079C2283.24,140.26 2281.4,138.789 2279.53,137.663C2277.67,136.538 2275.75,135.888 2273.76,135.715C2271.76,135.542 2269.73,135.888 2267.65,136.754C2265.58,137.62 2263.43,139.157 2261.22,141.364C2256.25,146.342 2254.64,152.013 2256.42,158.377L2256.29,158.507L2250.97,153.182L2245.77,158.377Z" style="fill-rule:nonzero;"/>
        <path d="M2269.4,109.157L2315.76,155.52L2321.28,150L2274.92,103.638L2269.4,109.157Z" style="fill-rule:nonzero;"/>
        <path d="M2310.51,107.924L2295.77,93.184L2308.11,80.847C2309.45,79.505 2310.79,78.314 2312.13,77.275C2313.47,76.236 2314.86,75.522 2316.29,75.133C2317.72,74.743 2319.17,74.765 2320.64,75.197C2322.11,75.63 2323.67,76.669 2325.31,78.314C2327.78,80.782 2328.86,83.401 2328.56,86.171C2328.26,88.942 2326.35,92.08 2322.85,95.586L2310.51,107.924ZM2284.41,94.158L2330.77,140.52L2353.17,118.118C2355.47,115.824 2357.11,113.421 2358.11,110.911C2359.1,108.4 2359.58,105.932 2359.53,103.508C2359.49,101.084 2358.97,98.768 2357.98,96.56C2356.98,94.353 2355.64,92.405 2353.95,90.716C2351.09,87.859 2347.91,86.193 2344.41,85.717C2340.9,85.24 2337.41,86.128 2333.95,88.379L2333.82,88.249C2335.16,85.176 2335.53,82.145 2334.92,79.158C2334.32,76.171 2332.78,73.444 2330.31,70.977C2327.98,68.639 2325.48,67.2 2322.81,66.659C2320.15,66.118 2317.61,66.15 2315.18,66.756C2314.06,67.016 2312.9,67.525 2311.71,68.282C2310.52,69.04 2309.31,69.927 2308.08,70.944C2306.84,71.962 2305.64,73.033 2304.47,74.159C2303.3,75.284 2302.22,76.345 2301.22,77.34L2284.41,94.158ZM2331.74,129.157L2315.7,113.118L2329.8,99.028C2331.09,97.729 2332.47,96.593 2333.92,95.619C2335.37,94.645 2336.85,93.985 2338.37,93.638C2339.88,93.292 2341.42,93.335 2342.98,93.768C2344.53,94.201 2346.07,95.175 2347.59,96.69C2350.18,99.288 2351.45,102.091 2351.39,105.099C2351.32,108.108 2349.92,110.976 2347.2,113.703L2331.74,129.157Z" style="fill-rule:nonzero;"/>
    </g>
    <path d="M2371.92,310.775L2424.95,310.775L2424.95,264.858L2535.15,365.871L2424.95,466.887L2424.95,420.971L2371.92,420.971L2371.92,310.775Z" style="fill:rgb(158,81,22);fill-rule:nonzero;stroke:black;stroke-width:9.17px;"/>
    <g>
        <path d="M2400.02,180.194L2428.72,208.895L2434.24,203.375L2405.54,174.675L2412.03,168.182L2407.16,163.312L2400.67,169.805L2395.99,165.13C2394.52,163.658 2393.89,162.294 2394.11,161.039C2394.33,159.784 2395.11,158.485 2396.45,157.143C2396.93,156.667 2397.48,156.18 2398.1,155.682C2398.73,155.184 2399.37,154.784 2400.02,154.481L2395.22,149.676C2394.52,150.022 2393.8,150.487 2393.04,151.072C2392.28,151.656 2391.64,152.208 2391.12,152.728C2388.09,155.758 2386.49,158.766 2386.32,161.753C2386.15,164.74 2387.42,167.597 2390.15,170.324L2395.15,175.324L2389.5,180.973L2394.37,185.843L2400.02,180.194Z" style="fill-rule:nonzero;"/>
        <path d="M2412.1,158.377L2445.67,191.947L2451.19,186.428L2432.23,167.467C2430.72,165.952 2429.52,164.351 2428.66,162.662C2427.79,160.974 2427.3,159.242 2427.16,157.468C2427.03,155.693 2427.33,153.929 2428.04,152.176C2428.76,150.422 2429.96,148.702 2431.64,147.013C2433.77,144.892 2436.04,143.832 2438.46,143.832C2440.89,143.832 2443.14,144.871 2445.22,146.948L2467.94,169.675L2473.46,164.156L2451.39,142.078C2449.57,140.26 2447.73,138.789 2445.87,137.663C2444,136.538 2442.08,135.888 2440.09,135.715C2438.1,135.542 2436.06,135.888 2433.98,136.754C2431.91,137.62 2429.76,139.157 2427.55,141.364C2422.58,146.342 2420.97,152.013 2422.75,158.377L2422.62,158.507L2417.3,153.182L2412.1,158.377Z" style="fill-rule:nonzero;"/>
        <path d="M2435.73,109.157L2482.09,155.52L2487.61,150L2441.25,103.638L2435.73,109.157Z" style="fill-rule:nonzero;"/>
        <path d="M2497.29,75.522L2503.46,69.353C2500.64,67.232 2497.73,65.793 2494.72,65.035C2491.72,64.278 2488.74,64.116 2485.8,64.548C2482.85,64.981 2479.97,65.955 2477.16,67.47C2474.35,68.986 2471.73,70.955 2469.3,73.379C2465.75,76.929 2463.24,80.717 2461.77,84.743C2460.3,88.768 2459.75,92.805 2460.12,96.853C2460.48,100.9 2461.67,104.883 2463.69,108.8C2465.7,112.718 2468.39,116.365 2471.77,119.742C2475.15,123.118 2478.75,125.834 2482.58,127.891C2486.41,129.947 2490.3,131.17 2494.24,131.559C2498.18,131.949 2502.11,131.419 2506.02,129.968C2509.94,128.518 2513.7,125.997 2517.29,122.404C2523.22,116.473 2526.27,110.175 2526.45,103.508C2526.62,96.842 2524.09,90.284 2518.85,83.834L2512.68,90.002C2514.45,92.037 2515.84,94.201 2516.83,96.495C2517.83,98.79 2518.35,101.106 2518.39,103.443C2518.44,105.781 2518,108.075 2517.09,110.326C2516.18,112.577 2514.71,114.72 2512.68,116.755C2509.91,119.525 2507.01,121.387 2503.98,122.339C2500.95,123.291 2497.92,123.529 2494.89,123.053C2491.86,122.577 2488.86,121.462 2485.89,119.709C2482.93,117.956 2480.13,115.759 2477.49,113.118C2475.06,110.694 2473.03,108.054 2471.38,105.197C2469.74,102.339 2468.68,99.396 2468.2,96.366C2467.72,93.335 2467.95,90.316 2468.88,87.307C2469.81,84.299 2471.66,81.409 2474.43,78.639C2477.68,75.392 2481.3,73.412 2485.31,72.698C2489.31,71.983 2493.31,72.925 2497.29,75.522Z" style="fill-rule:nonzero;"/>
    </g>
    <path d="M2574.27,466.888L2574.27,264.858L2561.87,365.871L2574.27,466.887L2574.27,466.888Z" style="fill:rgb(243,207,198);fill-rule:nonzero;stroke:black;stroke-width:9.17px;"/>
    <path d="M2733.09,310.775L2695.62,310.775L2695.62,264.858L2585.43,365.871L2695.62,466.887L2695.62,420.971L2733.09,420.971L2733.09,310.775Z" style="fill:rgb(243,207,198);fill-rule:nonzero;stroke:black;stroke-width:9.17px;"/>
    <g>
        <path d="M2606.26,169.932L2596.2,159.867L2590.68,165.387L2600.74,175.451L2595.03,181.165L2599.9,186.035L2605.61,180.321L2626.97,201.684C2628.53,203.243 2629.94,204.346 2631.19,204.996C2632.45,205.645 2633.65,205.916 2634.8,205.807C2635.95,205.699 2637.12,205.234 2638.34,204.411C2639.55,203.589 2640.87,202.463 2642.3,201.035L2646.52,196.814L2641.65,191.944L2639.12,194.477C2638.25,195.342 2637.51,196.013 2636.91,196.489C2636.3,196.966 2635.74,197.247 2635.22,197.334C2634.7,197.42 2634.19,197.323 2633.69,197.041C2633.2,196.76 2632.62,196.295 2631.97,195.645L2611.13,174.802L2617.82,168.114L2612.95,163.244L2606.26,169.932Z" style="fill-rule:nonzero;"/>
        <path d="M2619.05,157.14L2652.62,190.71L2658.14,185.191L2639.18,166.231C2637.66,164.716 2636.47,163.114 2635.61,161.426C2634.74,159.737 2634.24,158.006 2634.11,156.231C2633.99,154.456 2634.28,152.692 2634.99,150.939C2635.7,149.186 2636.91,147.465 2638.6,145.777C2640.72,143.656 2642.99,142.595 2645.41,142.595C2647.84,142.595 2650.09,143.634 2652.17,145.712L2674.89,168.438L2680.41,162.919L2658.33,140.842C2656.52,139.024 2654.68,137.552 2652.82,136.426C2650.95,135.301 2649.03,134.652 2647.04,134.478C2645.05,134.305 2643.01,134.652 2640.93,135.517C2638.86,136.383 2636.71,137.92 2634.5,140.128C2629.53,145.106 2627.92,150.777 2629.7,157.14L2629.57,157.27L2624.24,151.945L2619.05,157.14Z" style="fill-rule:nonzero;"/>
        <path d="M2655.35,120.842L2701.71,167.205L2707.23,161.685L2689.96,144.413L2690.09,144.283C2691.69,144.673 2693.27,144.759 2694.83,144.543C2696.39,144.327 2697.86,143.915 2699.24,143.309C2700.63,142.703 2701.92,141.978 2703.11,141.134C2704.3,140.29 2705.31,139.457 2706.13,138.634C2708.68,136.08 2710.47,133.385 2711.49,130.55C2712.5,127.715 2712.86,124.868 2712.56,122.011C2712.25,119.154 2711.36,116.351 2709.86,113.602C2708.37,110.854 2706.43,108.289 2704.05,105.908C2701.67,103.527 2699.09,101.601 2696.32,100.129C2693.55,98.657 2690.72,97.748 2687.82,97.402C2684.92,97.055 2682.03,97.369 2679.15,98.343C2676.27,99.317 2673.53,101.103 2670.93,103.7C2668.6,106.038 2666.88,108.603 2665.77,111.395C2664.67,114.187 2664.59,116.968 2665.55,119.739L2665.41,119.868L2660.87,115.323L2655.35,120.842ZM2697.82,111.362C2699.46,113.007 2700.89,114.782 2702.1,116.687C2703.31,118.591 2704.14,120.539 2704.57,122.531C2705,124.522 2704.95,126.524 2704.41,128.537C2703.87,130.55 2702.64,132.509 2700.74,134.413C2698.83,136.318 2696.85,137.584 2694.8,138.212C2692.74,138.84 2690.71,138.991 2688.69,138.667C2686.68,138.342 2684.71,137.606 2682.78,136.459C2680.86,135.312 2679.07,133.916 2677.43,132.271C2675.87,130.712 2674.52,128.992 2673.37,127.109C2672.22,125.225 2671.47,123.277 2671.1,121.265C2670.73,119.252 2670.83,117.228 2671.39,115.193C2671.95,113.159 2673.16,111.211 2675.03,109.349C2676.8,107.574 2678.69,106.373 2680.71,105.746C2682.72,105.118 2684.73,104.966 2686.75,105.291C2688.76,105.616 2690.72,106.319 2692.62,107.401C2694.53,108.484 2696.26,109.804 2697.82,111.362Z" style="fill-rule:nonzero;"/>
    </g>
    <path d="M2747.14,466.888L2747.14,264.858L2772.76,365.871L2747.14,466.887L2747.14,466.888Z" style="fill:rgb(243,207,198);fill-rule:nonzero;stroke:black;stroke-width:9.17px;"/>
    <path d="M2883.92,466.888L2883.92,264.858L2805.13,365.871L2883.92,466.887L2883.92,466.888Z" style="fill:rgb(243,207,198);fill-rule:nonzero;stroke:black;stroke-width:9.17px;"/>
    <path d="M2900.31,466.888L2900.31,264.858L2949.9,365.871L2900.31,466.887L2900.31,466.888Z" style="fill-rule:nonzero;stroke:black;stroke-width:9.17px;"/>
    <g>
        <path d="M2927.63,181.295C2927.24,182.81 2926.2,184.412 2924.51,186.1C2923.09,187.529 2921.55,188.265 2919.9,188.308C2918.26,188.351 2916.53,187.464 2914.71,185.646C2915.01,188.979 2914.56,192.053 2913.35,194.866C2912.13,197.68 2910.36,200.256 2908.02,202.593C2906.51,204.108 2904.89,205.375 2903.18,206.392C2901.47,207.409 2899.75,208.048 2898.02,208.307C2896.29,208.567 2894.54,208.394 2892.76,207.788C2890.99,207.182 2889.25,206.035 2887.57,204.347C2885.66,202.442 2884.43,200.559 2883.87,198.697C2883.3,196.836 2883.17,194.996 2883.47,193.178C2883.78,191.36 2884.42,189.574 2885.39,187.821C2886.37,186.068 2887.44,184.347 2888.61,182.659C2889.82,180.841 2891.03,179.174 2892.24,177.659C2893.45,176.144 2894.44,174.726 2895.2,173.406C2895.95,172.086 2896.37,170.852 2896.43,169.705C2896.49,168.558 2896.01,167.465 2894.97,166.426C2893.76,165.214 2892.55,164.467 2891.37,164.185C2890.17,163.904 2889.03,163.926 2887.92,164.25C2886.82,164.575 2885.76,165.116 2884.74,165.874C2883.72,166.631 2882.78,167.443 2881.92,168.309C2879.58,170.646 2878.08,173.038 2877.4,175.484C2876.73,177.93 2877.57,180.451 2879.9,183.048L2874.39,188.568C2872.39,186.403 2871.07,184.217 2870.42,182.01C2869.78,179.802 2869.66,177.605 2870.07,175.419C2870.48,173.233 2871.32,171.112 2872.6,169.055C2873.88,166.999 2875.47,165.019 2877.37,163.114C2878.89,161.599 2880.5,160.203 2882.21,158.926C2883.92,157.649 2885.72,156.74 2887.6,156.199C2889.48,155.658 2891.4,155.625 2893.35,156.101C2895.29,156.577 2897.24,157.79 2899.19,159.738L2916.46,177.01C2917.76,178.308 2918.79,179.185 2919.55,179.64C2920.3,180.094 2921.12,179.888 2921.98,179.023C2922.46,178.546 2922.91,177.875 2923.34,177.01L2927.63,181.295ZM2901.46,173.049C2901.29,174.261 2900.76,175.549 2899.87,176.912C2898.98,178.276 2898,179.65 2896.92,181.036C2895.83,182.421 2894.76,183.839 2893.7,185.289C2892.64,186.739 2891.83,188.178 2891.27,189.607C2890.7,191.035 2890.51,192.464 2890.68,193.892C2890.86,195.321 2891.64,196.728 2893.02,198.113C2893.93,199.022 2894.88,199.606 2895.88,199.866C2896.87,200.126 2897.86,200.158 2898.83,199.964C2899.81,199.769 2900.77,199.368 2901.72,198.762C2902.67,198.156 2903.58,197.42 2904.45,196.555C2906.27,194.736 2907.58,192.929 2908.38,191.133C2909.18,189.336 2909.61,187.648 2909.68,186.068C2909.74,184.488 2909.52,183.059 2909.03,181.782C2908.53,180.505 2907.89,179.477 2907.11,178.698L2901.46,173.049Z" style="fill-rule:nonzero;"/>
        <path d="M2886.86,129.609L2933.22,175.971L2938.74,170.451L2892.38,124.089L2886.86,129.609Z" style="fill-rule:nonzero;"/>
        <path d="M2913.54,116.427L2906.79,109.674L2901.27,115.193L2908.02,121.946L2913.54,116.427ZM2914.06,127.985L2947.63,161.556L2953.15,156.036L2919.58,122.466L2914.06,127.985Z" style="fill-rule:nonzero;"/>
        <path d="M2951.46,119.414L2937.69,89.934L2937.82,89.805L2967.17,103.7L2951.46,119.414ZM2928.86,87.597L2957.17,152.01L2963.47,145.712L2954.71,126.557L2974.32,106.947L2993.34,115.843L3000.16,109.025L2935.68,80.779L2928.86,87.597Z" style="fill-rule:nonzero;"/>
    </g>
</svg>
