<?xml version="1.0" encoding="UTF-8" standalone="no"?>
<!DOCTYPE svg PUBLIC "-//W3C//DTD SVG 1.1//EN" "http://www.w3.org/Graphics/SVG/1.1/DTD/svg11.dtd">
<svg width="100%" height="100%" viewBox="0 0 337 55" version="1.1" xmlns="http://www.w3.org/2000/svg" xmlns:xlink="http://www.w3.org/1999/xlink" xml:space="preserve" xmlns:serif="http://www.serif.com/" style="fill-rule:evenodd;clip-rule:evenodd;">
    <g id="g1132" transform="matrix(1,0,0,1,-81.832,-2.08842)">
        <g id="g888" transform="matrix(1,0,0,1,83.5995,32.2666)">
            <g id="g890">
                <g id="g8881" serif:id="g888">
                    <path id="path886" d="M-0.015,11L333.48,11" style="fill:none;fill-rule:nonzero;stroke:rgb(17,17,17);stroke-width:1px;"/>
                </g>
            </g>
        </g>
        <g id="g894" transform="matrix(1,0,0,1,83.5995,32.2666)">
            <g id="g896">
                <g id="g8941" serif:id="g894">
                    <path id="path892" d="M-0.015,5L12.15,5L12.15,0L24.15,11L12.15,22L12.15,17L-0.015,17L-0.015,5Z" style="fill-rule:nonzero;stroke:black;stroke-width:1px;"/>
                </g>
            </g>
        </g>
        <g id="g900" transform="matrix(0.707107,-0.707107,0.707107,0.707107,92.2654,26.8725)">
            <g id="g902">
                <g id="g9001" serif:id="g900">
                    <g id="text898">
                        <path id="path1321" d="M1.26,-2.54C1.26,-2.793 1.287,-3.04 1.34,-3.28C1.393,-3.52 1.48,-3.733 1.6,-3.92C1.72,-4.107 1.88,-4.257 2.08,-4.37C2.28,-4.483 2.523,-4.54 2.81,-4.54C3.103,-4.54 3.353,-4.483 3.56,-4.37C3.767,-4.263 3.933,-4.12 4.06,-3.94C4.193,-3.76 4.29,-3.55 4.35,-3.31C4.41,-3.077 4.44,-2.833 4.44,-2.58C4.44,-2.34 4.41,-2.103 4.35,-1.87C4.297,-1.637 4.207,-1.427 4.08,-1.24C3.953,-1.06 3.79,-0.913 3.59,-0.8C3.39,-0.687 3.147,-0.63 2.86,-0.63C2.587,-0.63 2.347,-0.683 2.14,-0.79C1.94,-0.897 1.773,-1.04 1.64,-1.22C1.513,-1.4 1.417,-1.603 1.35,-1.83C1.29,-2.063 1.26,-2.3 1.26,-2.54ZM5.26,0L5.26,-7.14L4.41,-7.14L4.41,-4.48L4.39,-4.48C4.297,-4.633 4.18,-4.76 4.04,-4.86C3.907,-4.967 3.763,-5.05 3.61,-5.11C3.457,-5.177 3.303,-5.223 3.15,-5.25C2.997,-5.277 2.853,-5.29 2.72,-5.29C2.327,-5.29 1.98,-5.217 1.68,-5.07C1.387,-4.93 1.14,-4.737 0.94,-4.49C0.747,-4.25 0.6,-3.967 0.5,-3.64C0.407,-3.313 0.36,-2.967 0.36,-2.6C0.36,-2.233 0.41,-1.887 0.51,-1.56C0.61,-1.233 0.757,-0.947 0.95,-0.7C1.15,-0.453 1.397,-0.257 1.69,-0.11C1.99,0.037 2.34,0.11 2.74,0.11C3.1,0.11 3.43,0.047 3.73,-0.08C4.03,-0.207 4.25,-0.413 4.39,-0.7L4.41,-0.7L4.41,0L5.26,0Z" style="fill-rule:nonzero;"/>
                        <path id="path1323" d="M10.16,-3.08L7.19,-3.08C7.203,-3.28 7.247,-3.467 7.32,-3.64C7.393,-3.82 7.493,-3.977 7.62,-4.11C7.747,-4.243 7.897,-4.347 8.07,-4.42C8.25,-4.5 8.45,-4.54 8.67,-4.54C8.883,-4.54 9.077,-4.5 9.25,-4.42C9.43,-4.347 9.583,-4.243 9.71,-4.11C9.843,-3.983 9.947,-3.83 10.02,-3.65C10.1,-3.47 10.147,-3.28 10.16,-3.08ZM10.98,-1.64L10.14,-1.64C10.067,-1.3 9.913,-1.047 9.68,-0.88C9.453,-0.713 9.16,-0.63 8.8,-0.63C8.52,-0.63 8.277,-0.677 8.07,-0.77C7.863,-0.863 7.693,-0.987 7.56,-1.14C7.427,-1.3 7.33,-1.48 7.27,-1.68C7.21,-1.887 7.183,-2.103 7.19,-2.33L11.06,-2.33C11.073,-2.643 11.043,-2.973 10.97,-3.32C10.903,-3.667 10.777,-3.987 10.59,-4.28C10.41,-4.573 10.167,-4.813 9.86,-5C9.56,-5.193 9.18,-5.29 8.72,-5.29C8.367,-5.29 8.04,-5.223 7.74,-5.09C7.447,-4.957 7.19,-4.77 6.97,-4.53C6.757,-4.29 6.59,-4.007 6.47,-3.68C6.35,-3.353 6.29,-2.993 6.29,-2.6C6.303,-2.207 6.36,-1.843 6.46,-1.51C6.567,-1.177 6.723,-0.89 6.93,-0.65C7.137,-0.41 7.39,-0.223 7.69,-0.09C7.997,0.043 8.357,0.11 8.77,0.11C9.357,0.11 9.843,-0.037 10.23,-0.33C10.617,-0.623 10.867,-1.06 10.98,-1.64Z" style="fill-rule:nonzero;"/>
                        <path id="path1325" d="M13.33,-2.72L11.39,0L12.42,0L13.86,-2.14L15.3,0L16.39,0L14.39,-2.79L16.17,-5.17L15.15,-5.17L13.86,-3.36L12.62,-5.17L11.53,-5.17L13.33,-2.72Z" style="fill-rule:nonzero;"/>
                        <path id="path1327" d="M18.21,-4.07L18.21,-6.34L20.11,-6.34C20.317,-6.34 20.51,-6.327 20.69,-6.3C20.877,-6.28 21.04,-6.23 21.18,-6.15C21.32,-6.07 21.43,-5.957 21.51,-5.81C21.59,-5.663 21.63,-5.463 21.63,-5.21C21.63,-4.83 21.51,-4.543 21.27,-4.35C21.037,-4.163 20.65,-4.07 20.11,-4.07L18.21,-4.07ZM17.26,-7.14L17.26,0L20.71,0C21.063,0 21.373,-0.057 21.64,-0.17C21.913,-0.29 22.14,-0.443 22.32,-0.63C22.507,-0.823 22.647,-1.043 22.74,-1.29C22.833,-1.537 22.88,-1.79 22.88,-2.05C22.88,-2.49 22.763,-2.863 22.53,-3.17C22.297,-3.477 21.96,-3.677 21.52,-3.77L21.52,-3.79C21.86,-3.923 22.12,-4.127 22.3,-4.4C22.487,-4.68 22.58,-5.01 22.58,-5.39C22.58,-5.75 22.497,-6.053 22.33,-6.3C22.17,-6.547 21.973,-6.74 21.74,-6.88C21.633,-6.947 21.503,-6.997 21.35,-7.03C21.203,-7.063 21.043,-7.087 20.87,-7.1C20.697,-7.12 20.52,-7.13 20.34,-7.13C20.167,-7.137 20.003,-7.14 19.85,-7.14L17.26,-7.14ZM18.21,-0.8L18.21,-3.27L20.38,-3.27C20.58,-3.27 20.773,-3.25 20.96,-3.21C21.147,-3.177 21.31,-3.113 21.45,-3.02C21.597,-2.933 21.713,-2.813 21.8,-2.66C21.887,-2.507 21.93,-2.313 21.93,-2.08C21.93,-1.68 21.81,-1.367 21.57,-1.14C21.337,-0.913 21.01,-0.8 20.59,-0.8L18.21,-0.8Z" style="fill-rule:nonzero;"/>
                    </g>
                </g>
            </g>
        </g>
        <g id="g906" transform="matrix(1,0,0,1,83.5995,32.2666)">
            <g id="g908">
                <g id="g9061" serif:id="g906">
                    <path id="path904" d="M47.28,5L43.485,5L43.485,0L31.485,11L43.485,22L43.485,17L47.28,17L47.28,5Z" style="fill:rgb(243,207,198);fill-rule:nonzero;stroke:black;stroke-width:1px;"/>
                </g>
            </g>
        </g>
        <g id="g912" transform="matrix(0.707107,-0.707107,0.707107,0.707107,119.58,26.8725)">
            <g id="g914">
                <g id="g9121" serif:id="g912">
                    <g id="text910">
                        <path id="path1330" d="M1.82,-5.17L1.82,-6.72L0.97,-6.72L0.97,-5.17L0.09,-5.17L0.09,-4.42L0.97,-4.42L0.97,-1.13C0.97,-0.89 0.993,-0.697 1.04,-0.55C1.087,-0.403 1.157,-0.29 1.25,-0.21C1.35,-0.13 1.477,-0.073 1.63,-0.04C1.79,-0.013 1.98,0 2.2,0L2.85,0L2.85,-0.75L2.46,-0.75C2.327,-0.75 2.217,-0.753 2.13,-0.76C2.05,-0.773 1.987,-0.797 1.94,-0.83C1.893,-0.863 1.86,-0.91 1.84,-0.97C1.827,-1.03 1.82,-1.11 1.82,-1.21L1.82,-4.42L2.85,-4.42L2.85,-5.17L1.82,-5.17Z" style="fill-rule:nonzero;"/>
                        <path id="path1332" d="M3.79,-5.17L3.79,0L4.64,0L4.64,-2.92C4.64,-3.153 4.67,-3.367 4.73,-3.56C4.797,-3.76 4.893,-3.933 5.02,-4.08C5.147,-4.227 5.303,-4.34 5.49,-4.42C5.683,-4.5 5.91,-4.54 6.17,-4.54C6.497,-4.54 6.753,-4.447 6.94,-4.26C7.127,-4.073 7.22,-3.82 7.22,-3.5L7.22,0L8.07,0L8.07,-3.4C8.07,-3.68 8.04,-3.933 7.98,-4.16C7.927,-4.393 7.83,-4.593 7.69,-4.76C7.55,-4.927 7.367,-5.057 7.14,-5.15C6.913,-5.243 6.63,-5.29 6.29,-5.29C5.523,-5.29 4.963,-4.977 4.61,-4.35L4.59,-4.35L4.59,-5.17L3.79,-5.17Z" style="fill-rule:nonzero;"/>
                        <path id="path1334" d="M9.38,-5.17L9.38,1.97L10.23,1.97L10.23,-0.69L10.25,-0.69C10.343,-0.537 10.457,-0.407 10.59,-0.3C10.73,-0.2 10.877,-0.12 11.03,-0.06C11.183,-0 11.337,0.043 11.49,0.07C11.65,0.097 11.793,0.11 11.92,0.11C12.313,0.11 12.657,0.04 12.95,-0.1C13.25,-0.24 13.497,-0.43 13.69,-0.67C13.89,-0.917 14.037,-1.203 14.13,-1.53C14.23,-1.857 14.28,-2.203 14.28,-2.57C14.28,-2.937 14.23,-3.283 14.13,-3.61C14.03,-3.937 13.88,-4.223 13.68,-4.47C13.487,-4.723 13.24,-4.923 12.94,-5.07C12.647,-5.217 12.3,-5.29 11.9,-5.29C11.54,-5.29 11.21,-5.223 10.91,-5.09C10.61,-4.963 10.39,-4.757 10.25,-4.47L10.23,-4.47L10.23,-5.17L9.38,-5.17ZM13.38,-2.63C13.38,-2.377 13.353,-2.13 13.3,-1.89C13.247,-1.65 13.16,-1.437 13.04,-1.25C12.92,-1.063 12.76,-0.913 12.56,-0.8C12.367,-0.687 12.123,-0.63 11.83,-0.63C11.537,-0.63 11.287,-0.683 11.08,-0.79C10.873,-0.903 10.703,-1.05 10.57,-1.23C10.443,-1.41 10.35,-1.617 10.29,-1.85C10.23,-2.09 10.2,-2.337 10.2,-2.59C10.2,-2.83 10.227,-3.067 10.28,-3.3C10.34,-3.533 10.433,-3.74 10.56,-3.92C10.687,-4.107 10.85,-4.257 11.05,-4.37C11.25,-4.483 11.493,-4.54 11.78,-4.54C12.053,-4.54 12.29,-4.487 12.49,-4.38C12.697,-4.273 12.863,-4.13 12.99,-3.95C13.123,-3.77 13.22,-3.563 13.28,-3.33C13.347,-3.103 13.38,-2.87 13.38,-2.63Z" style="fill-rule:nonzero;"/>
                    </g>
                </g>
            </g>
        </g>
        <g id="g918" transform="matrix(1,0,0,1,83.5995,32.2666)">
            <g id="g920">
                <g id="g9181" serif:id="g918">
                    <path id="path916" d="M49.92,5L59.61,5L59.61,0L71.61,11L59.61,22L59.61,17L49.92,17L49.92,5Z" style="fill:rgb(0,0,255);fill-rule:nonzero;stroke:black;stroke-width:1px;"/>
                </g>
            </g>
        </g>
        <g id="g924" transform="matrix(0.707107,-0.707107,0.707107,0.707107,140.963,26.8725)">
            <g id="g926">
                <g id="g9241" serif:id="g924">
                    <g id="text922">
                        <path id="path1337" d="M5.76,0L7.41,-5.17L6.53,-5.17L5.37,-0.94L5.35,-0.94L4.27,-5.17L3.34,-5.17L2.3,-0.94L2.28,-0.94L1.11,-5.17L0.17,-5.17L1.83,0L2.75,0L3.79,-4.11L3.81,-4.11L4.86,0L5.76,0Z" style="fill-rule:nonzero;"/>
                        <path id="path1339" d="M7.8,-0.65L7.8,0L12.16,0L12.16,-0.75L8.86,-0.75L12.02,-4.59L12.02,-5.17L8,-5.17L8,-4.42L10.92,-4.42L7.8,-0.65Z" style="fill-rule:nonzero;"/>
                        <path id="path1341" d="M17.48,-0.44L17.48,-5.17L16.68,-5.17L16.68,-4.43L16.67,-4.43C16.517,-4.717 16.303,-4.93 16.03,-5.07C15.757,-5.217 15.457,-5.29 15.13,-5.29C14.683,-5.29 14.307,-5.203 14,-5.03C13.693,-4.863 13.447,-4.647 13.26,-4.38C13.073,-4.12 12.94,-3.827 12.86,-3.5C12.78,-3.18 12.74,-2.867 12.74,-2.56C12.74,-2.207 12.787,-1.87 12.88,-1.55C12.98,-1.237 13.127,-0.96 13.32,-0.72C13.513,-0.487 13.753,-0.3 14.04,-0.16C14.327,-0.02 14.663,0.05 15.05,0.05C15.383,0.05 15.697,-0.023 15.99,-0.17C16.29,-0.323 16.513,-0.56 16.66,-0.88L16.68,-0.88L16.68,-0.54C16.68,-0.253 16.65,0.01 16.59,0.25C16.537,0.49 16.447,0.693 16.32,0.86C16.193,1.033 16.033,1.167 15.84,1.26C15.647,1.36 15.41,1.41 15.13,1.41C14.99,1.41 14.843,1.393 14.69,1.36C14.537,1.333 14.393,1.287 14.26,1.22C14.133,1.153 14.023,1.067 13.93,0.96C13.843,0.853 13.797,0.723 13.79,0.57L12.94,0.57C12.953,0.85 13.027,1.087 13.16,1.28C13.293,1.473 13.46,1.63 13.66,1.75C13.867,1.87 14.093,1.957 14.34,2.01C14.593,2.063 14.84,2.09 15.08,2.09C15.907,2.09 16.513,1.88 16.9,1.46C17.287,1.04 17.48,0.407 17.48,-0.44ZM15.1,-0.69C14.82,-0.69 14.587,-0.747 14.4,-0.86C14.213,-0.98 14.063,-1.133 13.95,-1.32C13.837,-1.513 13.757,-1.727 13.71,-1.96C13.663,-2.193 13.64,-2.427 13.64,-2.66C13.64,-2.907 13.667,-3.143 13.72,-3.37C13.78,-3.597 13.87,-3.797 13.99,-3.97C14.117,-4.143 14.277,-4.28 14.47,-4.38C14.663,-4.487 14.897,-4.54 15.17,-4.54C15.437,-4.54 15.663,-4.487 15.85,-4.38C16.037,-4.273 16.187,-4.13 16.3,-3.95C16.42,-3.777 16.507,-3.58 16.56,-3.36C16.613,-3.14 16.64,-2.917 16.64,-2.69C16.64,-2.45 16.61,-2.21 16.55,-1.97C16.497,-1.73 16.41,-1.513 16.29,-1.32C16.17,-1.133 16.01,-0.98 15.81,-0.86C15.617,-0.747 15.38,-0.69 15.1,-0.69Z" style="fill-rule:nonzero;"/>
                    </g>
                </g>
            </g>
        </g>
        <g id="g930" transform="matrix(1,0,0,1,83.5995,32.2666)">
            <g id="g932">
                <g id="g9301" serif:id="g930">
                    <path id="path928" d="M71.625,22L71.625,0L82.605,11L71.625,22Z" style="fill:rgb(0,0,255);fill-rule:nonzero;stroke:black;stroke-width:1px;"/>
                </g>
            </g>
        </g>
        <g id="g936" transform="matrix(0.707107,-0.707107,0.707107,0.707107,157.313,26.8725)">
            <g id="g938">
                <g id="g9361" serif:id="g936">
                    <g id="text934">
                        <path id="path1344" d="M5.76,0L7.41,-5.17L6.53,-5.17L5.37,-0.94L5.35,-0.94L4.27,-5.17L3.34,-5.17L2.3,-0.94L2.28,-0.94L1.11,-5.17L0.17,-5.17L1.83,0L2.75,0L3.79,-4.11L3.81,-4.11L4.86,0L5.76,0Z" style="fill-rule:nonzero;"/>
                        <path id="path1346" d="M7.8,-0.65L7.8,0L12.16,0L12.16,-0.75L8.86,-0.75L12.02,-4.59L12.02,-5.17L8,-5.17L8,-4.42L10.92,-4.42L7.8,-0.65Z" style="fill-rule:nonzero;"/>
                        <path id="path1348" d="M13.02,-7.14L13.02,0L13.87,0L13.87,-2.92C13.87,-3.153 13.9,-3.367 13.96,-3.56C14.027,-3.76 14.123,-3.933 14.25,-4.08C14.377,-4.227 14.533,-4.34 14.72,-4.42C14.913,-4.5 15.14,-4.54 15.4,-4.54C15.727,-4.54 15.983,-4.447 16.17,-4.26C16.357,-4.073 16.45,-3.82 16.45,-3.5L16.45,0L17.3,0L17.3,-3.4C17.3,-3.68 17.27,-3.933 17.21,-4.16C17.157,-4.393 17.06,-4.593 16.92,-4.76C16.78,-4.927 16.597,-5.057 16.37,-5.15C16.143,-5.243 15.86,-5.29 15.52,-5.29C15.367,-5.29 15.207,-5.273 15.04,-5.24C14.88,-5.207 14.723,-5.153 14.57,-5.08C14.423,-5.013 14.29,-4.923 14.17,-4.81C14.05,-4.703 13.957,-4.57 13.89,-4.41L13.87,-4.41L13.87,-7.14L13.02,-7.14Z" style="fill-rule:nonzero;"/>
                    </g>
                </g>
            </g>
        </g>
        <g id="g942" transform="matrix(1,0,0,1,83.5995,32.2666)">
            <g id="g944">
                <g id="g9421" serif:id="g942">
                    <path id="path940" d="M82.725,22L82.725,0L93.12,11L82.725,22Z" style="fill:rgb(0,0,255);fill-rule:nonzero;stroke:black;stroke-width:1px;"/>
                </g>
            </g>
        </g>
        <g id="g948" transform="matrix(0.707107,-0.707107,0.707107,0.707107,168.12,26.8725)">
            <g id="g950">
                <g id="g9481" serif:id="g948">
                    <g id="text946">
                        <path id="path1351" d="M5.76,0L7.41,-5.17L6.53,-5.17L5.37,-0.94L5.35,-0.94L4.27,-5.17L3.34,-5.17L2.3,-0.94L2.28,-0.94L1.11,-5.17L0.17,-5.17L1.83,0L2.75,0L3.79,-4.11L3.81,-4.11L4.86,0L5.76,0Z" style="fill-rule:nonzero;"/>
                        <path id="path1353" d="M7.8,-0.65L7.8,0L12.16,0L12.16,-0.75L8.86,-0.75L12.02,-4.59L12.02,-5.17L8,-5.17L8,-4.42L10.92,-4.42L7.8,-0.65Z" style="fill-rule:nonzero;"/>
                        <path id="path1355" d="M13.64,-2.54C13.64,-2.793 13.667,-3.04 13.72,-3.28C13.773,-3.52 13.86,-3.733 13.98,-3.92C14.1,-4.107 14.26,-4.257 14.46,-4.37C14.66,-4.483 14.903,-4.54 15.19,-4.54C15.483,-4.54 15.733,-4.483 15.94,-4.37C16.147,-4.263 16.313,-4.12 16.44,-3.94C16.573,-3.76 16.67,-3.55 16.73,-3.31C16.79,-3.077 16.82,-2.833 16.82,-2.58C16.82,-2.34 16.79,-2.103 16.73,-1.87C16.677,-1.637 16.587,-1.427 16.46,-1.24C16.333,-1.06 16.17,-0.913 15.97,-0.8C15.77,-0.687 15.527,-0.63 15.24,-0.63C14.967,-0.63 14.727,-0.683 14.52,-0.79C14.32,-0.897 14.153,-1.04 14.02,-1.22C13.893,-1.4 13.797,-1.603 13.73,-1.83C13.67,-2.063 13.64,-2.3 13.64,-2.54ZM17.64,0L17.64,-7.14L16.79,-7.14L16.79,-4.48L16.77,-4.48C16.677,-4.633 16.56,-4.76 16.42,-4.86C16.287,-4.967 16.143,-5.05 15.99,-5.11C15.837,-5.177 15.683,-5.223 15.53,-5.25C15.377,-5.277 15.233,-5.29 15.1,-5.29C14.707,-5.29 14.36,-5.217 14.06,-5.07C13.767,-4.93 13.52,-4.737 13.32,-4.49C13.127,-4.25 12.98,-3.967 12.88,-3.64C12.787,-3.313 12.74,-2.967 12.74,-2.6C12.74,-2.233 12.79,-1.887 12.89,-1.56C12.99,-1.233 13.137,-0.947 13.33,-0.7C13.53,-0.453 13.777,-0.257 14.07,-0.11C14.37,0.037 14.72,0.11 15.12,0.11C15.48,0.11 15.81,0.047 16.11,-0.08C16.41,-0.207 16.63,-0.413 16.77,-0.7L16.79,-0.7L16.79,0L17.64,0Z" style="fill-rule:nonzero;"/>
                    </g>
                </g>
            </g>
        </g>
        <g id="g954" transform="matrix(1,0,0,1,83.5995,32.2666)">
            <g id="g956">
                <g id="g9541" serif:id="g954">
                    <path id="path952" d="M93.255,22L93.255,0L103.515,11L93.255,22Z" style="fill:rgb(0,0,255);fill-rule:nonzero;stroke:black;stroke-width:1px;"/>
                </g>
            </g>
        </g>
        <g id="g960" transform="matrix(0.707107,-0.707107,0.707107,0.707107,178.583,26.8725)">
            <g id="g962">
                <g id="g9601" serif:id="g960">
                    <g id="text958">
                        <path id="path1358" d="M5.76,0L7.41,-5.17L6.53,-5.17L5.37,-0.94L5.35,-0.94L4.27,-5.17L3.34,-5.17L2.3,-0.94L2.28,-0.94L1.11,-5.17L0.17,-5.17L1.83,0L2.75,0L3.79,-4.11L3.81,-4.11L4.86,0L5.76,0Z" style="fill-rule:nonzero;"/>
                        <path id="path1360" d="M7.8,-0.65L7.8,0L12.16,0L12.16,-0.75L8.86,-0.75L12.02,-4.59L12.02,-5.17L8,-5.17L8,-4.42L10.92,-4.42L7.8,-0.65Z" style="fill-rule:nonzero;"/>
                        <path id="path1362" d="M16.61,-3.08L13.64,-3.08C13.653,-3.28 13.697,-3.467 13.77,-3.64C13.843,-3.82 13.943,-3.977 14.07,-4.11C14.197,-4.243 14.347,-4.347 14.52,-4.42C14.7,-4.5 14.9,-4.54 15.12,-4.54C15.333,-4.54 15.527,-4.5 15.7,-4.42C15.88,-4.347 16.033,-4.243 16.16,-4.11C16.293,-3.983 16.397,-3.83 16.47,-3.65C16.55,-3.47 16.597,-3.28 16.61,-3.08ZM17.43,-1.64L16.59,-1.64C16.517,-1.3 16.363,-1.047 16.13,-0.88C15.903,-0.713 15.61,-0.63 15.25,-0.63C14.97,-0.63 14.727,-0.677 14.52,-0.77C14.313,-0.863 14.143,-0.987 14.01,-1.14C13.877,-1.3 13.78,-1.48 13.72,-1.68C13.66,-1.887 13.633,-2.103 13.64,-2.33L17.51,-2.33C17.523,-2.643 17.493,-2.973 17.42,-3.32C17.353,-3.667 17.227,-3.987 17.04,-4.28C16.86,-4.573 16.617,-4.813 16.31,-5C16.01,-5.193 15.63,-5.29 15.17,-5.29C14.817,-5.29 14.49,-5.223 14.19,-5.09C13.897,-4.957 13.64,-4.77 13.42,-4.53C13.207,-4.29 13.04,-4.007 12.92,-3.68C12.8,-3.353 12.74,-2.993 12.74,-2.6C12.753,-2.207 12.81,-1.843 12.91,-1.51C13.017,-1.177 13.173,-0.89 13.38,-0.65C13.587,-0.41 13.84,-0.223 14.14,-0.09C14.447,0.043 14.807,0.11 15.22,0.11C15.807,0.11 16.293,-0.037 16.68,-0.33C17.067,-0.623 17.317,-1.06 17.43,-1.64Z" style="fill-rule:nonzero;"/>
                    </g>
                </g>
            </g>
        </g>
        <g id="g966" transform="matrix(1,0,0,1,83.5995,32.2666)">
            <g id="g968">
                <g id="g9661" serif:id="g966">
                    <path id="path964" d="M103.74,5L112.26,5L112.26,0L124.26,11L112.26,22L112.26,17L103.74,17L103.74,5Z" style="fill:rgb(128,0,128);fill-rule:nonzero;stroke:black;stroke-width:1px;"/>
                </g>
            </g>
        </g>
        <g id="g972" transform="matrix(0.707107,-0.707107,0.707107,0.707107,194.197,26.8725)">
            <g id="g974">
                <g id="g9721" serif:id="g972">
                    <g id="text970">
                        <path id="path1365" d="M5.76,0L7.41,-5.17L6.53,-5.17L5.37,-0.94L5.35,-0.94L4.27,-5.17L3.34,-5.17L2.3,-0.94L2.28,-0.94L1.11,-5.17L0.17,-5.17L1.83,0L2.75,0L3.79,-4.11L3.81,-4.11L4.86,0L5.76,0Z" style="fill-rule:nonzero;"/>
                        <path id="path1367" d="M11.73,-3.51L12.61,-3.51C12.577,-3.817 12.497,-4.08 12.37,-4.3C12.243,-4.527 12.08,-4.713 11.88,-4.86C11.687,-5.007 11.46,-5.113 11.2,-5.18C10.947,-5.253 10.673,-5.29 10.38,-5.29C9.973,-5.29 9.617,-5.217 9.31,-5.07C9.003,-4.93 8.747,-4.733 8.54,-4.48C8.34,-4.233 8.19,-3.94 8.09,-3.6C7.99,-3.267 7.94,-2.907 7.94,-2.52C7.94,-2.133 7.99,-1.777 8.09,-1.45C8.197,-1.13 8.35,-0.853 8.55,-0.62C8.757,-0.387 9.01,-0.207 9.31,-0.08C9.617,0.047 9.967,0.11 10.36,0.11C11.02,0.11 11.54,-0.063 11.92,-0.41C12.307,-0.757 12.547,-1.25 12.64,-1.89L11.77,-1.89C11.717,-1.49 11.57,-1.18 11.33,-0.96C11.097,-0.74 10.77,-0.63 10.35,-0.63C10.083,-0.63 9.853,-0.683 9.66,-0.79C9.467,-0.897 9.31,-1.037 9.19,-1.21C9.07,-1.39 8.98,-1.593 8.92,-1.82C8.867,-2.047 8.84,-2.28 8.84,-2.52C8.84,-2.78 8.867,-3.03 8.92,-3.27C8.973,-3.517 9.06,-3.733 9.18,-3.92C9.307,-4.107 9.473,-4.257 9.68,-4.37C9.887,-4.483 10.143,-4.54 10.45,-4.54C10.81,-4.54 11.097,-4.45 11.31,-4.27C11.523,-4.09 11.663,-3.837 11.73,-3.51Z" style="fill-rule:nonzero;"/>
                        <path id="path1369" d="M13.59,-7.14L13.59,0L14.44,0L14.44,-2.92C14.44,-3.153 14.47,-3.367 14.53,-3.56C14.597,-3.76 14.693,-3.933 14.82,-4.08C14.947,-4.227 15.103,-4.34 15.29,-4.42C15.483,-4.5 15.71,-4.54 15.97,-4.54C16.297,-4.54 16.553,-4.447 16.74,-4.26C16.927,-4.073 17.02,-3.82 17.02,-3.5L17.02,0L17.87,0L17.87,-3.4C17.87,-3.68 17.84,-3.933 17.78,-4.16C17.727,-4.393 17.63,-4.593 17.49,-4.76C17.35,-4.927 17.167,-5.057 16.94,-5.15C16.713,-5.243 16.43,-5.29 16.09,-5.29C15.937,-5.29 15.777,-5.273 15.61,-5.24C15.45,-5.207 15.293,-5.153 15.14,-5.08C14.993,-5.013 14.86,-4.923 14.74,-4.81C14.62,-4.703 14.527,-4.57 14.46,-4.41L14.44,-4.41L14.44,-7.14L13.59,-7.14Z" style="fill-rule:nonzero;"/>
                        <path id="path1371" d="M20.52,-2.95L21.73,-6.28L21.75,-6.28L22.94,-2.95L20.52,-2.95ZM21.23,-7.14L18.45,-0L19.42,-0L20.22,-2.15L23.24,-2.15L24.02,-0L25.07,-0L22.28,-7.14L21.23,-7.14Z" style="fill-rule:nonzero;"/>
                    </g>
                </g>
            </g>
        </g>
        <g id="g978" transform="matrix(1,0,0,1,83.5995,32.2666)">
            <g id="g980">
                <g id="g9781" serif:id="g978">
                    <path id="path976" d="M124.335,22L124.335,0L135.495,11L124.335,22Z" style="fill:rgb(0,255,255);fill-rule:nonzero;stroke:black;stroke-width:1px;"/>
                </g>
            </g>
        </g>
        <g id="g984" transform="matrix(0.707107,-0.707107,0.707107,0.707107,210.112,26.8725)">
            <g id="g986">
                <g id="g9841" serif:id="g984">
                    <g id="text982">
                        <path id="path1374" d="M5.76,0L7.41,-5.17L6.53,-5.17L5.37,-0.94L5.35,-0.94L4.27,-5.17L3.34,-5.17L2.3,-0.94L2.28,-0.94L1.11,-5.17L0.17,-5.17L1.83,0L2.75,0L3.79,-4.11L3.81,-4.11L4.86,0L5.76,0Z" style="fill-rule:nonzero;"/>
                        <path id="path1376" d="M11.73,-3.51L12.61,-3.51C12.577,-3.817 12.497,-4.08 12.37,-4.3C12.243,-4.527 12.08,-4.713 11.88,-4.86C11.687,-5.007 11.46,-5.113 11.2,-5.18C10.947,-5.253 10.673,-5.29 10.38,-5.29C9.973,-5.29 9.617,-5.217 9.31,-5.07C9.003,-4.93 8.747,-4.733 8.54,-4.48C8.34,-4.233 8.19,-3.94 8.09,-3.6C7.99,-3.267 7.94,-2.907 7.94,-2.52C7.94,-2.133 7.99,-1.777 8.09,-1.45C8.197,-1.13 8.35,-0.853 8.55,-0.62C8.757,-0.387 9.01,-0.207 9.31,-0.08C9.617,0.047 9.967,0.11 10.36,0.11C11.02,0.11 11.54,-0.063 11.92,-0.41C12.307,-0.757 12.547,-1.25 12.64,-1.89L11.77,-1.89C11.717,-1.49 11.57,-1.18 11.33,-0.96C11.097,-0.74 10.77,-0.63 10.35,-0.63C10.083,-0.63 9.853,-0.683 9.66,-0.79C9.467,-0.897 9.31,-1.037 9.19,-1.21C9.07,-1.39 8.98,-1.593 8.92,-1.82C8.867,-2.047 8.84,-2.28 8.84,-2.52C8.84,-2.78 8.867,-3.03 8.92,-3.27C8.973,-3.517 9.06,-3.733 9.18,-3.92C9.307,-4.107 9.473,-4.257 9.68,-4.37C9.887,-4.483 10.143,-4.54 10.45,-4.54C10.81,-4.54 11.097,-4.45 11.31,-4.27C11.523,-4.09 11.663,-3.837 11.73,-3.51Z" style="fill-rule:nonzero;"/>
                        <path id="path1378" d="M13.59,-7.14L13.59,0L14.44,0L14.44,-2.92C14.44,-3.153 14.47,-3.367 14.53,-3.56C14.597,-3.76 14.693,-3.933 14.82,-4.08C14.947,-4.227 15.103,-4.34 15.29,-4.42C15.483,-4.5 15.71,-4.54 15.97,-4.54C16.297,-4.54 16.553,-4.447 16.74,-4.26C16.927,-4.073 17.02,-3.82 17.02,-3.5L17.02,0L17.87,0L17.87,-3.4C17.87,-3.68 17.84,-3.933 17.78,-4.16C17.727,-4.393 17.63,-4.593 17.49,-4.76C17.35,-4.927 17.167,-5.057 16.94,-5.15C16.713,-5.243 16.43,-5.29 16.09,-5.29C15.937,-5.29 15.777,-5.273 15.61,-5.24C15.45,-5.207 15.293,-5.153 15.14,-5.08C14.993,-5.013 14.86,-4.923 14.74,-4.81C14.62,-4.703 14.527,-4.57 14.46,-4.41L14.44,-4.41L14.44,-7.14L13.59,-7.14Z" style="fill-rule:nonzero;"/>
                        <path id="path1380" d="M19.84,-3.57C19.84,-3.93 19.887,-4.283 19.98,-4.63C20.073,-4.983 20.22,-5.3 20.42,-5.58C20.62,-5.86 20.877,-6.083 21.19,-6.25C21.503,-6.423 21.877,-6.51 22.31,-6.51C22.743,-6.51 23.117,-6.423 23.43,-6.25C23.743,-6.083 24,-5.86 24.2,-5.58C24.4,-5.3 24.547,-4.983 24.64,-4.63C24.733,-4.283 24.78,-3.93 24.78,-3.57C24.78,-3.21 24.733,-2.853 24.64,-2.5C24.547,-2.153 24.4,-1.84 24.2,-1.56C24,-1.28 23.743,-1.053 23.43,-0.88C23.117,-0.713 22.743,-0.63 22.31,-0.63C21.877,-0.63 21.503,-0.713 21.19,-0.88C20.877,-1.053 20.62,-1.28 20.42,-1.56C20.22,-1.84 20.073,-2.153 19.98,-2.5C19.887,-2.853 19.84,-3.21 19.84,-3.57ZM18.89,-3.57C18.89,-3.083 18.96,-2.613 19.1,-2.16C19.247,-1.713 19.463,-1.317 19.75,-0.97C20.037,-0.623 20.393,-0.347 20.82,-0.14C21.247,0.06 21.743,0.16 22.31,0.16C22.877,0.16 23.373,0.06 23.8,-0.14C24.227,-0.347 24.583,-0.623 24.87,-0.97C25.157,-1.317 25.37,-1.713 25.51,-2.16C25.657,-2.613 25.73,-3.083 25.73,-3.57C25.73,-4.057 25.657,-4.523 25.51,-4.97C25.37,-5.423 25.157,-5.823 24.87,-6.17C24.583,-6.517 24.227,-6.793 23.8,-7C23.373,-7.207 22.877,-7.31 22.31,-7.31C21.743,-7.31 21.247,-7.207 20.82,-7C20.393,-6.793 20.037,-6.517 19.75,-6.17C19.463,-5.823 19.247,-5.423 19.1,-4.97C18.96,-4.523 18.89,-4.057 18.89,-3.57Z" style="fill-rule:nonzero;"/>
                    </g>
                </g>
            </g>
        </g>
        <g id="g990" transform="matrix(1,0,0,1,83.5995,32.2666)">
            <g id="g992">
                <g id="g9901" serif:id="g990">
                    <path id="path988" d="M135.105,5L139.395,5L139.395,0L151.395,11L139.395,22L139.395,17L135.105,17L135.105,5Z" style="fill:rgb(0,255,255);fill-rule:nonzero;stroke:black;stroke-width:1px;"/>
                </g>
            </g>
        </g>
        <g id="g996" transform="matrix(0.707107,-0.707107,0.707107,0.707107,223.447,26.8724)">
            <g id="g998">
                <g id="g9961" serif:id="g996">
                    <g id="text994">
                        <path id="path1383" d="M5.76,0L7.41,-5.17L6.53,-5.17L5.37,-0.94L5.35,-0.94L4.27,-5.17L3.34,-5.17L2.3,-0.94L2.28,-0.94L1.11,-5.17L0.17,-5.17L1.83,0L2.75,0L3.79,-4.11L3.81,-4.11L4.86,0L5.76,0Z" style="fill-rule:nonzero;"/>
                        <path id="path1385" d="M11.73,-3.51L12.61,-3.51C12.577,-3.817 12.497,-4.08 12.37,-4.3C12.243,-4.527 12.08,-4.713 11.88,-4.86C11.687,-5.007 11.46,-5.113 11.2,-5.18C10.947,-5.253 10.673,-5.29 10.38,-5.29C9.973,-5.29 9.617,-5.217 9.31,-5.07C9.003,-4.93 8.747,-4.733 8.54,-4.48C8.34,-4.233 8.19,-3.94 8.09,-3.6C7.99,-3.267 7.94,-2.907 7.94,-2.52C7.94,-2.133 7.99,-1.777 8.09,-1.45C8.197,-1.13 8.35,-0.853 8.55,-0.62C8.757,-0.387 9.01,-0.207 9.31,-0.08C9.617,0.047 9.967,0.11 10.36,0.11C11.02,0.11 11.54,-0.063 11.92,-0.41C12.307,-0.757 12.547,-1.25 12.64,-1.89L11.77,-1.89C11.717,-1.49 11.57,-1.18 11.33,-0.96C11.097,-0.74 10.77,-0.63 10.35,-0.63C10.083,-0.63 9.853,-0.683 9.66,-0.79C9.467,-0.897 9.31,-1.037 9.19,-1.21C9.07,-1.39 8.98,-1.593 8.92,-1.82C8.867,-2.047 8.84,-2.28 8.84,-2.52C8.84,-2.78 8.867,-3.03 8.92,-3.27C8.973,-3.517 9.06,-3.733 9.18,-3.92C9.307,-4.107 9.473,-4.257 9.68,-4.37C9.887,-4.483 10.143,-4.54 10.45,-4.54C10.81,-4.54 11.097,-4.45 11.31,-4.27C11.523,-4.09 11.663,-3.837 11.73,-3.51Z" style="fill-rule:nonzero;"/>
                        <path id="path1387" d="M14.49,-6.1L14.49,-7.14L13.64,-7.14L13.64,-6.1L14.49,-6.1ZM14.49,0.65L14.49,-5.17L13.64,-5.17L13.64,0.51C13.64,0.777 13.607,0.96 13.54,1.06C13.473,1.167 13.347,1.22 13.16,1.22L12.98,1.22C12.953,1.22 12.93,1.217 12.91,1.21C12.883,1.21 12.853,1.207 12.82,1.2L12.82,1.93C12.953,1.957 13.097,1.97 13.25,1.97C13.63,1.97 13.93,1.863 14.15,1.65C14.377,1.443 14.49,1.11 14.49,0.65Z" style="fill-rule:nonzero;"/>
                        <path id="path1389" d="M17.18,-2.95L18.39,-6.28L18.41,-6.28L19.6,-2.95L17.18,-2.95ZM17.89,-7.14L15.11,-0L16.08,-0L16.88,-2.15L19.9,-2.15L20.68,-0L21.73,-0L18.94,-7.14L17.89,-7.14Z" style="fill-rule:nonzero;"/>
                    </g>
                </g>
            </g>
        </g>
        <g id="g1002" transform="matrix(1,0,0,1,83.5995,32.2666)">
            <g id="g1004">
                <g id="g10021" serif:id="g1002">
                    <path id="path1000" d="M151.515,5L155.67,5L155.67,0L167.67,11L155.67,22L155.67,17L151.515,17L151.515,5Z" style="fill:rgb(191,71,18);fill-rule:nonzero;stroke:black;stroke-width:1px;"/>
                </g>
            </g>
        </g>
        <g id="g1008" transform="matrix(0.707107,-0.707107,0.707107,0.707107,239.79,26.8724)">
            <g id="g1010">
                <g id="g10081" serif:id="g1008">
                    <g id="text1006">
                        <path id="path1392" d="M0.64,-5.17L0.64,0L1.49,0L1.49,-3.22C1.49,-3.32 1.513,-3.443 1.56,-3.59C1.613,-3.743 1.693,-3.89 1.8,-4.03C1.913,-4.17 2.057,-4.29 2.23,-4.39C2.41,-4.49 2.623,-4.54 2.87,-4.54C3.063,-4.54 3.22,-4.51 3.34,-4.45C3.467,-4.397 3.567,-4.317 3.64,-4.21C3.713,-4.11 3.763,-3.99 3.79,-3.85C3.823,-3.71 3.84,-3.557 3.84,-3.39L3.84,0L4.69,0L4.69,-3.22C4.69,-3.62 4.81,-3.94 5.05,-4.18C5.29,-4.42 5.62,-4.54 6.04,-4.54C6.247,-4.54 6.413,-4.51 6.54,-4.45C6.673,-4.39 6.777,-4.307 6.85,-4.2C6.923,-4.1 6.973,-3.98 7,-3.84C7.027,-3.7 7.04,-3.55 7.04,-3.39L7.04,0L7.89,0L7.89,-3.79C7.89,-4.057 7.847,-4.283 7.76,-4.47C7.68,-4.663 7.563,-4.82 7.41,-4.94C7.263,-5.06 7.083,-5.147 6.87,-5.2C6.663,-5.26 6.43,-5.29 6.17,-5.29C5.83,-5.29 5.517,-5.213 5.23,-5.06C4.95,-4.907 4.723,-4.69 4.55,-4.41C4.443,-4.73 4.26,-4.957 4,-5.09C3.74,-5.223 3.45,-5.29 3.13,-5.29C2.403,-5.29 1.847,-4.997 1.46,-4.41L1.44,-4.41L1.44,-5.17L0.64,-5.17Z" style="fill-rule:nonzero;"/>
                        <path id="path1394" d="M9.17,-5.17L9.17,0L10.02,0L10.02,-2.92C10.02,-3.153 10.05,-3.367 10.11,-3.56C10.177,-3.76 10.273,-3.933 10.4,-4.08C10.527,-4.227 10.683,-4.34 10.87,-4.42C11.063,-4.5 11.29,-4.54 11.55,-4.54C11.877,-4.54 12.133,-4.447 12.32,-4.26C12.507,-4.073 12.6,-3.82 12.6,-3.5L12.6,0L13.45,0L13.45,-3.4C13.45,-3.68 13.42,-3.933 13.36,-4.16C13.307,-4.393 13.21,-4.593 13.07,-4.76C12.93,-4.927 12.747,-5.057 12.52,-5.15C12.293,-5.243 12.01,-5.29 11.67,-5.29C10.903,-5.29 10.343,-4.977 9.99,-4.35L9.97,-4.35L9.97,-5.17L9.17,-5.17Z" style="fill-rule:nonzero;"/>
                        <path id="path1396" d="M19.31,-0.02C19.163,0.067 18.96,0.11 18.7,0.11C18.48,0.11 18.303,0.05 18.17,-0.07C18.043,-0.197 17.98,-0.4 17.98,-0.68C17.747,-0.4 17.473,-0.197 17.16,-0.07C16.853,0.05 16.52,0.11 16.16,0.11C15.927,0.11 15.703,0.083 15.49,0.03C15.283,-0.023 15.103,-0.107 14.95,-0.22C14.797,-0.333 14.673,-0.48 14.58,-0.66C14.493,-0.847 14.45,-1.07 14.45,-1.33C14.45,-1.623 14.5,-1.863 14.6,-2.05C14.7,-2.237 14.83,-2.387 14.99,-2.5C15.157,-2.62 15.343,-2.71 15.55,-2.77C15.763,-2.83 15.98,-2.88 16.2,-2.92C16.433,-2.967 16.653,-3 16.86,-3.02C17.073,-3.047 17.26,-3.08 17.42,-3.12C17.58,-3.167 17.707,-3.23 17.8,-3.31C17.893,-3.397 17.94,-3.52 17.94,-3.68C17.94,-3.867 17.903,-4.017 17.83,-4.13C17.763,-4.243 17.673,-4.33 17.56,-4.39C17.453,-4.45 17.33,-4.49 17.19,-4.51C17.057,-4.53 16.923,-4.54 16.79,-4.54C16.43,-4.54 16.13,-4.47 15.89,-4.33C15.65,-4.197 15.52,-3.94 15.5,-3.56L14.65,-3.56C14.663,-3.88 14.73,-4.15 14.85,-4.37C14.97,-4.59 15.13,-4.767 15.33,-4.9C15.53,-5.04 15.757,-5.14 16.01,-5.2C16.27,-5.26 16.547,-5.29 16.84,-5.29C17.073,-5.29 17.303,-5.273 17.53,-5.24C17.763,-5.207 17.973,-5.137 18.16,-5.03C18.347,-4.93 18.497,-4.787 18.61,-4.6C18.723,-4.413 18.78,-4.17 18.78,-3.87L18.78,-1.21C18.78,-1.01 18.79,-0.863 18.81,-0.77C18.837,-0.677 18.917,-0.63 19.05,-0.63C19.123,-0.63 19.21,-0.647 19.31,-0.68L19.31,-0.02ZM17.93,-2.67C17.823,-2.59 17.683,-2.53 17.51,-2.49C17.337,-2.457 17.153,-2.427 16.96,-2.4C16.773,-2.38 16.583,-2.353 16.39,-2.32C16.197,-2.293 16.023,-2.247 15.87,-2.18C15.717,-2.113 15.59,-2.017 15.49,-1.89C15.397,-1.77 15.35,-1.603 15.35,-1.39C15.35,-1.25 15.377,-1.13 15.43,-1.03C15.49,-0.937 15.563,-0.86 15.65,-0.8C15.743,-0.74 15.85,-0.697 15.97,-0.67C16.09,-0.643 16.217,-0.63 16.35,-0.63C16.63,-0.63 16.87,-0.667 17.07,-0.74C17.27,-0.82 17.433,-0.917 17.56,-1.03C17.687,-1.15 17.78,-1.277 17.84,-1.41C17.9,-1.55 17.93,-1.68 17.93,-1.8L17.93,-2.67Z" style="fill-rule:nonzero;"/>
                        <path id="path1398" d="M21.47,-2.95L22.68,-6.28L22.7,-6.28L23.89,-2.95L21.47,-2.95ZM22.18,-7.14L19.4,-0L20.37,-0L21.17,-2.15L24.19,-2.15L24.97,-0L26.02,-0L23.23,-7.14L22.18,-7.14Z" style="fill-rule:nonzero;"/>
                    </g>
                </g>
            </g>
        </g>
        <g id="g1014" transform="matrix(1,0,0,1,83.5995,32.2666)">
            <g id="g1016">
                <g id="g10141" serif:id="g1014">
                    <path id="path1012" d="M168.285,5L173.385,5L173.385,0L185.385,11L173.385,22L173.385,17L168.285,17L168.285,5Z" style="fill:rgb(255,0,255);fill-rule:nonzero;stroke:black;stroke-width:1px;"/>
                </g>
            </g>
        </g>
        <g id="g1020" transform="matrix(0.707107,-0.707107,0.707107,0.707107,257.032,26.8724)">
            <g id="g1022">
                <g id="g10201" serif:id="g1020">
                    <g id="text1018">
                        <path id="path1401" d="M5.76,0L7.41,-5.17L6.53,-5.17L5.37,-0.94L5.35,-0.94L4.27,-5.17L3.34,-5.17L2.3,-0.94L2.28,-0.94L1.11,-5.17L0.17,-5.17L1.83,0L2.75,0L3.79,-4.11L3.81,-4.11L4.86,0L5.76,0Z" style="fill-rule:nonzero;"/>
                        <path id="path1403" d="M7.8,-0.65L7.8,0L12.16,0L12.16,-0.75L8.86,-0.75L12.02,-4.59L12.02,-5.17L8,-5.17L8,-4.42L10.92,-4.42L7.8,-0.65Z" style="fill-rule:nonzero;"/>
                        <path id="path1405" d="M15.05,0.69C14.95,0.943 14.85,1.157 14.75,1.33C14.657,1.503 14.55,1.643 14.43,1.75C14.317,1.863 14.187,1.943 14.04,1.99C13.9,2.043 13.737,2.07 13.55,2.07C13.45,2.07 13.35,2.063 13.25,2.05C13.15,2.037 13.053,2.013 12.96,1.98L12.96,1.2C13.033,1.233 13.117,1.26 13.21,1.28C13.31,1.307 13.393,1.32 13.46,1.32C13.633,1.32 13.777,1.277 13.89,1.19C14.01,1.11 14.1,0.993 14.16,0.84L14.51,-0.03L12.46,-5.17L13.42,-5.17L14.93,-0.94L14.95,-0.94L16.4,-5.17L17.3,-5.17L15.05,0.69Z" style="fill-rule:nonzero;"/>
                    </g>
                </g>
            </g>
        </g>
        <g id="g1026" transform="matrix(1,0,0,1,83.5995,32.2666)">
            <g id="g1028">
                <g id="g10261" serif:id="g1026">
                    <path id="path1024" d="M185.13,5L186.18,5L186.18,0L198.18,11L186.18,22L186.18,17L185.13,17L185.13,5Z" style="fill:white;fill-rule:nonzero;stroke:black;stroke-width:1px;"/>
                </g>
            </g>
        </g>
        <g id="g1032" transform="matrix(0.707107,-0.707107,0.707107,0.707107,271.852,26.8724)">
            <g id="g1034">
                <g id="g10321" serif:id="g1032">
                    <g id="text1030">
                        <path id="path1408" d="M5.76,0L7.41,-5.17L6.53,-5.17L5.37,-0.94L5.35,-0.94L4.27,-5.17L3.34,-5.17L2.3,-0.94L2.28,-0.94L1.11,-5.17L0.17,-5.17L1.83,0L2.75,0L3.79,-4.11L3.81,-4.11L4.86,0L5.76,0Z" style="fill-rule:nonzero;"/>
                        <path id="path1410" d="M11.73,-3.51L12.61,-3.51C12.577,-3.817 12.497,-4.08 12.37,-4.3C12.243,-4.527 12.08,-4.713 11.88,-4.86C11.687,-5.007 11.46,-5.113 11.2,-5.18C10.947,-5.253 10.673,-5.29 10.38,-5.29C9.973,-5.29 9.617,-5.217 9.31,-5.07C9.003,-4.93 8.747,-4.733 8.54,-4.48C8.34,-4.233 8.19,-3.94 8.09,-3.6C7.99,-3.267 7.94,-2.907 7.94,-2.52C7.94,-2.133 7.99,-1.777 8.09,-1.45C8.197,-1.13 8.35,-0.853 8.55,-0.62C8.757,-0.387 9.01,-0.207 9.31,-0.08C9.617,0.047 9.967,0.11 10.36,0.11C11.02,0.11 11.54,-0.063 11.92,-0.41C12.307,-0.757 12.547,-1.25 12.64,-1.89L11.77,-1.89C11.717,-1.49 11.57,-1.18 11.33,-0.96C11.097,-0.74 10.77,-0.63 10.35,-0.63C10.083,-0.63 9.853,-0.683 9.66,-0.79C9.467,-0.897 9.31,-1.037 9.19,-1.21C9.07,-1.39 8.98,-1.593 8.92,-1.82C8.867,-2.047 8.84,-2.28 8.84,-2.52C8.84,-2.78 8.867,-3.03 8.92,-3.27C8.973,-3.517 9.06,-3.733 9.18,-3.92C9.307,-4.107 9.473,-4.257 9.68,-4.37C9.887,-4.483 10.143,-4.54 10.45,-4.54C10.81,-4.54 11.097,-4.45 11.31,-4.27C11.523,-4.09 11.663,-3.837 11.73,-3.51Z" style="fill-rule:nonzero;"/>
                        <path id="path1412" d="M14.49,-6.1L14.49,-7.14L13.64,-7.14L13.64,-6.1L14.49,-6.1ZM14.49,0.65L14.49,-5.17L13.64,-5.17L13.64,0.51C13.64,0.777 13.607,0.96 13.54,1.06C13.473,1.167 13.347,1.22 13.16,1.22L12.98,1.22C12.953,1.22 12.93,1.217 12.91,1.21C12.883,1.21 12.853,1.207 12.82,1.2L12.82,1.93C12.953,1.957 13.097,1.97 13.25,1.97C13.63,1.97 13.93,1.863 14.15,1.65C14.377,1.443 14.49,1.11 14.49,0.65Z" style="fill-rule:nonzero;"/>
                        <path id="path1414" d="M16.9,-4.07L16.9,-6.34L18.8,-6.34C19.007,-6.34 19.2,-6.327 19.38,-6.3C19.567,-6.28 19.73,-6.23 19.87,-6.15C20.01,-6.07 20.12,-5.957 20.2,-5.81C20.28,-5.663 20.32,-5.463 20.32,-5.21C20.32,-4.83 20.2,-4.543 19.96,-4.35C19.727,-4.163 19.34,-4.07 18.8,-4.07L16.9,-4.07ZM15.95,-7.14L15.95,0L19.4,0C19.753,0 20.063,-0.057 20.33,-0.17C20.603,-0.29 20.83,-0.443 21.01,-0.63C21.197,-0.823 21.337,-1.043 21.43,-1.29C21.523,-1.537 21.57,-1.79 21.57,-2.05C21.57,-2.49 21.453,-2.863 21.22,-3.17C20.987,-3.477 20.65,-3.677 20.21,-3.77L20.21,-3.79C20.55,-3.923 20.81,-4.127 20.99,-4.4C21.177,-4.68 21.27,-5.01 21.27,-5.39C21.27,-5.75 21.187,-6.053 21.02,-6.3C20.86,-6.547 20.663,-6.74 20.43,-6.88C20.323,-6.947 20.193,-6.997 20.04,-7.03C19.893,-7.063 19.733,-7.087 19.56,-7.1C19.387,-7.12 19.21,-7.13 19.03,-7.13C18.857,-7.137 18.693,-7.14 18.54,-7.14L15.95,-7.14ZM16.9,-0.8L16.9,-3.27L19.07,-3.27C19.27,-3.27 19.463,-3.25 19.65,-3.21C19.837,-3.177 20,-3.113 20.14,-3.02C20.287,-2.933 20.403,-2.813 20.49,-2.66C20.577,-2.507 20.62,-2.313 20.62,-2.08C20.62,-1.68 20.5,-1.367 20.26,-1.14C20.027,-0.913 19.7,-0.8 19.28,-0.8L16.9,-0.8Z" style="fill-rule:nonzero;"/>
                    </g>
                </g>
            </g>
        </g>
        <g id="g1038" transform="matrix(1,0,0,1,83.5995,32.2666)">
            <g id="g1040">
                <g id="g10381" serif:id="g1038">
                    <path id="path1036" d="M198.165,5L207.54,5L207.54,0L219.54,11L207.54,22L207.54,17L198.165,17L198.165,5Z" style="fill:rgb(255,255,0);fill-rule:nonzero;stroke:black;stroke-width:1px;"/>
                </g>
            </g>
        </g>
        <g id="g1044" transform="matrix(0.707107,-0.707107,0.707107,0.707107,289.05,26.8724)">
            <g id="g1046">
                <g id="g10441" serif:id="g1044">
                    <g id="text1042">
                        <path id="path1417" d="M5.76,0L7.41,-5.17L6.53,-5.17L5.37,-0.94L5.35,-0.94L4.27,-5.17L3.34,-5.17L2.3,-0.94L2.28,-0.94L1.11,-5.17L0.17,-5.17L1.83,0L2.75,0L3.79,-4.11L3.81,-4.11L4.86,0L5.76,0Z" style="fill-rule:nonzero;"/>
                        <path id="path1419" d="M7.8,-0.65L7.8,0L12.16,0L12.16,-0.75L8.86,-0.75L12.02,-4.59L12.02,-5.17L8,-5.17L8,-4.42L10.92,-4.42L7.8,-0.65Z" style="fill-rule:nonzero;"/>
                        <path id="path1421" d="M14.41,-2.72L12.47,0L13.5,0L14.94,-2.14L16.38,0L17.47,0L15.47,-2.79L17.25,-5.17L16.23,-5.17L14.94,-3.36L13.7,-5.17L12.61,-5.17L14.41,-2.72Z" style="fill-rule:nonzero;"/>
                    </g>
                </g>
            </g>
        </g>
        <g id="g1050" transform="matrix(1,0,0,1,83.5995,32.2666)">
            <g id="g1052">
                <g id="g10501" serif:id="g1050">
                    <path id="path1048" d="M219.72,5L225.585,5L225.585,0L237.585,11L225.585,22L225.585,17L219.72,17L219.72,5Z" style="fill:rgb(0,255,255);fill-rule:nonzero;stroke:black;stroke-width:1px;"/>
                </g>
            </g>
        </g>
        <g id="g1056" transform="matrix(0.707107,-0.707107,0.707107,0.707107,308.85,26.8724)">
            <g id="g1058">
                <g id="g10561" serif:id="g1056">
                    <g id="text1054">
                        <path id="path1424" d="M5.76,0L7.41,-5.17L6.53,-5.17L5.37,-0.94L5.35,-0.94L4.27,-5.17L3.34,-5.17L2.3,-0.94L2.28,-0.94L1.11,-5.17L0.17,-5.17L1.83,0L2.75,0L3.79,-4.11L3.81,-4.11L4.86,0L5.76,0Z" style="fill-rule:nonzero;"/>
                        <path id="path1426" d="M11.73,-3.51L12.61,-3.51C12.577,-3.817 12.497,-4.08 12.37,-4.3C12.243,-4.527 12.08,-4.713 11.88,-4.86C11.687,-5.007 11.46,-5.113 11.2,-5.18C10.947,-5.253 10.673,-5.29 10.38,-5.29C9.973,-5.29 9.617,-5.217 9.31,-5.07C9.003,-4.93 8.747,-4.733 8.54,-4.48C8.34,-4.233 8.19,-3.94 8.09,-3.6C7.99,-3.267 7.94,-2.907 7.94,-2.52C7.94,-2.133 7.99,-1.777 8.09,-1.45C8.197,-1.13 8.35,-0.853 8.55,-0.62C8.757,-0.387 9.01,-0.207 9.31,-0.08C9.617,0.047 9.967,0.11 10.36,0.11C11.02,0.11 11.54,-0.063 11.92,-0.41C12.307,-0.757 12.547,-1.25 12.64,-1.89L11.77,-1.89C11.717,-1.49 11.57,-1.18 11.33,-0.96C11.097,-0.74 10.77,-0.63 10.35,-0.63C10.083,-0.63 9.853,-0.683 9.66,-0.79C9.467,-0.897 9.31,-1.037 9.19,-1.21C9.07,-1.39 8.98,-1.593 8.92,-1.82C8.867,-2.047 8.84,-2.28 8.84,-2.52C8.84,-2.78 8.867,-3.03 8.92,-3.27C8.973,-3.517 9.06,-3.733 9.18,-3.92C9.307,-4.107 9.473,-4.257 9.68,-4.37C9.887,-4.483 10.143,-4.54 10.45,-4.54C10.81,-4.54 11.097,-4.45 11.31,-4.27C11.523,-4.09 11.663,-3.837 11.73,-3.51Z" style="fill-rule:nonzero;"/>
                        <path id="path1428" d="M14.49,-6.1L14.49,-7.14L13.64,-7.14L13.64,-6.1L14.49,-6.1ZM14.49,0.65L14.49,-5.17L13.64,-5.17L13.64,0.51C13.64,0.777 13.607,0.96 13.54,1.06C13.473,1.167 13.347,1.22 13.16,1.22L12.98,1.22C12.953,1.22 12.93,1.217 12.91,1.21C12.883,1.21 12.853,1.207 12.82,1.2L12.82,1.93C12.953,1.957 13.097,1.97 13.25,1.97C13.63,1.97 13.93,1.863 14.15,1.65C14.377,1.443 14.49,1.11 14.49,0.65Z" style="fill-rule:nonzero;"/>
                        <path id="path1430" d="M20.97,-4.99L21.92,-4.99C21.867,-5.37 21.753,-5.703 21.58,-5.99C21.407,-6.283 21.19,-6.527 20.93,-6.72C20.67,-6.913 20.373,-7.06 20.04,-7.16C19.707,-7.26 19.353,-7.31 18.98,-7.31C18.433,-7.31 17.947,-7.21 17.52,-7.01C17.1,-6.817 16.747,-6.55 16.46,-6.21C16.18,-5.87 15.967,-5.47 15.82,-5.01C15.673,-4.557 15.6,-4.07 15.6,-3.55C15.6,-3.03 15.667,-2.543 15.8,-2.09C15.94,-1.637 16.147,-1.243 16.42,-0.91C16.693,-0.577 17.037,-0.313 17.45,-0.12C17.863,0.067 18.347,0.16 18.9,0.16C19.813,0.16 20.533,-0.09 21.06,-0.59C21.587,-1.09 21.897,-1.79 21.99,-2.69L21.04,-2.69C21.02,-2.397 20.96,-2.123 20.86,-1.87C20.76,-1.617 20.62,-1.397 20.44,-1.21C20.267,-1.03 20.057,-0.887 19.81,-0.78C19.57,-0.68 19.293,-0.63 18.98,-0.63C18.553,-0.63 18.187,-0.71 17.88,-0.87C17.573,-1.03 17.32,-1.243 17.12,-1.51C16.927,-1.783 16.783,-2.1 16.69,-2.46C16.597,-2.827 16.55,-3.213 16.55,-3.62C16.55,-3.993 16.597,-4.353 16.69,-4.7C16.783,-5.047 16.927,-5.353 17.12,-5.62C17.32,-5.893 17.57,-6.11 17.87,-6.27C18.177,-6.43 18.543,-6.51 18.97,-6.51C19.47,-6.51 19.9,-6.383 20.26,-6.13C20.627,-5.877 20.863,-5.497 20.97,-4.99Z" style="fill-rule:nonzero;"/>
                    </g>
                </g>
            </g>
        </g>
        <g id="g1062" transform="matrix(1,0,0,1,83.5995,32.2666)">
            <g id="g1064">
                <g id="g10621" serif:id="g1062">
                    <path id="path1060" d="M238.74,5L245.235,5L245.235,0L257.235,11L245.235,22L245.235,17L238.74,17L238.74,5Z" style="fill:rgb(209,115,115);fill-rule:nonzero;stroke:black;stroke-width:1px;"/>
                </g>
            </g>
        </g>
        <g id="g1068" transform="matrix(0.707107,-0.707107,0.707107,0.707107,328.185,26.8724)">
            <g id="g1070">
                <g id="g10681" serif:id="g1068">
                    <g id="text1066">
                        <path id="path1433" d="M4.92,0L4.92,-5.17L4.07,-5.17L4.07,-2.25C4.07,-2.017 4.037,-1.8 3.97,-1.6C3.91,-1.407 3.817,-1.237 3.69,-1.09C3.563,-0.943 3.403,-0.83 3.21,-0.75C3.023,-0.67 2.8,-0.63 2.54,-0.63C2.213,-0.63 1.957,-0.723 1.77,-0.91C1.583,-1.097 1.49,-1.35 1.49,-1.67L1.49,-5.17L0.64,-5.17L0.64,-1.77C0.64,-1.49 0.667,-1.233 0.72,-1C0.78,-0.773 0.88,-0.577 1.02,-0.41C1.16,-0.243 1.343,-0.113 1.57,-0.02C1.797,0.067 2.08,0.11 2.42,0.11C2.8,0.11 3.13,0.037 3.41,-0.11C3.69,-0.263 3.92,-0.5 4.1,-0.82L4.12,-0.82L4.12,0L4.92,0Z" style="fill-rule:nonzero;"/>
                        <path id="path1435" d="M10.66,-0.44L10.66,-5.17L9.86,-5.17L9.86,-4.43L9.85,-4.43C9.697,-4.717 9.483,-4.93 9.21,-5.07C8.937,-5.217 8.637,-5.29 8.31,-5.29C7.863,-5.29 7.487,-5.203 7.18,-5.03C6.873,-4.863 6.627,-4.647 6.44,-4.38C6.253,-4.12 6.12,-3.827 6.04,-3.5C5.96,-3.18 5.92,-2.867 5.92,-2.56C5.92,-2.207 5.967,-1.87 6.06,-1.55C6.16,-1.237 6.307,-0.96 6.5,-0.72C6.693,-0.487 6.933,-0.3 7.22,-0.16C7.507,-0.02 7.843,0.05 8.23,0.05C8.563,0.05 8.877,-0.023 9.17,-0.17C9.47,-0.323 9.693,-0.56 9.84,-0.88L9.86,-0.88L9.86,-0.54C9.86,-0.253 9.83,0.01 9.77,0.25C9.717,0.49 9.627,0.693 9.5,0.86C9.373,1.033 9.213,1.167 9.02,1.26C8.827,1.36 8.59,1.41 8.31,1.41C8.17,1.41 8.023,1.393 7.87,1.36C7.717,1.333 7.573,1.287 7.44,1.22C7.313,1.153 7.203,1.067 7.11,0.96C7.023,0.853 6.977,0.723 6.97,0.57L6.12,0.57C6.133,0.85 6.207,1.087 6.34,1.28C6.473,1.473 6.64,1.63 6.84,1.75C7.047,1.87 7.273,1.957 7.52,2.01C7.773,2.063 8.02,2.09 8.26,2.09C9.087,2.09 9.693,1.88 10.08,1.46C10.467,1.04 10.66,0.407 10.66,-0.44ZM8.28,-0.69C8,-0.69 7.767,-0.747 7.58,-0.86C7.393,-0.98 7.243,-1.133 7.13,-1.32C7.017,-1.513 6.937,-1.727 6.89,-1.96C6.843,-2.193 6.82,-2.427 6.82,-2.66C6.82,-2.907 6.847,-3.143 6.9,-3.37C6.96,-3.597 7.05,-3.797 7.17,-3.97C7.297,-4.143 7.457,-4.28 7.65,-4.38C7.843,-4.487 8.077,-4.54 8.35,-4.54C8.617,-4.54 8.843,-4.487 9.03,-4.38C9.217,-4.273 9.367,-4.13 9.48,-3.95C9.6,-3.777 9.687,-3.58 9.74,-3.36C9.793,-3.14 9.82,-2.917 9.82,-2.69C9.82,-2.45 9.79,-2.21 9.73,-1.97C9.677,-1.73 9.59,-1.513 9.47,-1.32C9.35,-1.133 9.19,-0.98 8.99,-0.86C8.797,-0.747 8.56,-0.69 8.28,-0.69Z" style="fill-rule:nonzero;"/>
                        <path id="path1437" d="M12.56,-2.54C12.56,-2.793 12.587,-3.04 12.64,-3.28C12.693,-3.52 12.78,-3.733 12.9,-3.92C13.02,-4.107 13.18,-4.257 13.38,-4.37C13.58,-4.483 13.823,-4.54 14.11,-4.54C14.403,-4.54 14.653,-4.483 14.86,-4.37C15.067,-4.263 15.233,-4.12 15.36,-3.94C15.493,-3.76 15.59,-3.55 15.65,-3.31C15.71,-3.077 15.74,-2.833 15.74,-2.58C15.74,-2.34 15.71,-2.103 15.65,-1.87C15.597,-1.637 15.507,-1.427 15.38,-1.24C15.253,-1.06 15.09,-0.913 14.89,-0.8C14.69,-0.687 14.447,-0.63 14.16,-0.63C13.887,-0.63 13.647,-0.683 13.44,-0.79C13.24,-0.897 13.073,-1.04 12.94,-1.22C12.813,-1.4 12.717,-1.603 12.65,-1.83C12.59,-2.063 12.56,-2.3 12.56,-2.54ZM16.56,0L16.56,-7.14L15.71,-7.14L15.71,-4.48L15.69,-4.48C15.597,-4.633 15.48,-4.76 15.34,-4.86C15.207,-4.967 15.063,-5.05 14.91,-5.11C14.757,-5.177 14.603,-5.223 14.45,-5.25C14.297,-5.277 14.153,-5.29 14.02,-5.29C13.627,-5.29 13.28,-5.217 12.98,-5.07C12.687,-4.93 12.44,-4.737 12.24,-4.49C12.047,-4.25 11.9,-3.967 11.8,-3.64C11.707,-3.313 11.66,-2.967 11.66,-2.6C11.66,-2.233 11.71,-1.887 11.81,-1.56C11.91,-1.233 12.057,-0.947 12.25,-0.7C12.45,-0.453 12.697,-0.257 12.99,-0.11C13.29,0.037 13.64,0.11 14.04,0.11C14.4,0.11 14.73,0.047 15.03,-0.08C15.33,-0.207 15.55,-0.413 15.69,-0.7L15.71,-0.7L15.71,0L16.56,0Z" style="fill-rule:nonzero;"/>
                    </g>
                </g>
            </g>
        </g>
        <g id="g1074" transform="matrix(1,0,0,1,83.5995,32.2666)">
            <g id="g1076">
                <g id="g10741" serif:id="g1074">
                    <path id="path1072" d="M260.505,22L260.505,0L266.265,11L260.505,22Z" style="fill:rgb(243,207,198);fill-rule:nonzero;stroke:black;stroke-width:1px;"/>
                </g>
            </g>
        </g>
        <g id="g1080" transform="matrix(0.707107,-0.707107,0.707107,0.707107,343.582,26.8724)">
            <g id="g1082">
                <g id="g10801" serif:id="g1080">
                    <g id="text1078">
                        <path id="path1440" d="M1.82,-5.17L1.82,-6.72L0.97,-6.72L0.97,-5.17L0.09,-5.17L0.09,-4.42L0.97,-4.42L0.97,-1.13C0.97,-0.89 0.993,-0.697 1.04,-0.55C1.087,-0.403 1.157,-0.29 1.25,-0.21C1.35,-0.13 1.477,-0.073 1.63,-0.04C1.79,-0.013 1.98,0 2.2,0L2.85,0L2.85,-0.75L2.46,-0.75C2.327,-0.75 2.217,-0.753 2.13,-0.76C2.05,-0.773 1.987,-0.797 1.94,-0.83C1.893,-0.863 1.86,-0.91 1.84,-0.97C1.827,-1.03 1.82,-1.11 1.82,-1.21L1.82,-4.42L2.85,-4.42L2.85,-5.17L1.82,-5.17Z" style="fill-rule:nonzero;"/>
                        <path id="path1442" d="M3.79,-5.17L3.79,0L4.64,0L4.64,-2.92C4.64,-3.153 4.67,-3.367 4.73,-3.56C4.797,-3.76 4.893,-3.933 5.02,-4.08C5.147,-4.227 5.303,-4.34 5.49,-4.42C5.683,-4.5 5.91,-4.54 6.17,-4.54C6.497,-4.54 6.753,-4.447 6.94,-4.26C7.127,-4.073 7.22,-3.82 7.22,-3.5L7.22,0L8.07,0L8.07,-3.4C8.07,-3.68 8.04,-3.933 7.98,-4.16C7.927,-4.393 7.83,-4.593 7.69,-4.76C7.55,-4.927 7.367,-5.057 7.14,-5.15C6.913,-5.243 6.63,-5.29 6.29,-5.29C5.523,-5.29 4.963,-4.977 4.61,-4.35L4.59,-4.35L4.59,-5.17L3.79,-5.17Z" style="fill-rule:nonzero;"/>
                        <path id="path1444" d="M9.38,-5.17L9.38,1.97L10.23,1.97L10.23,-0.69L10.25,-0.69C10.343,-0.537 10.457,-0.407 10.59,-0.3C10.73,-0.2 10.877,-0.12 11.03,-0.06C11.183,-0 11.337,0.043 11.49,0.07C11.65,0.097 11.793,0.11 11.92,0.11C12.313,0.11 12.657,0.04 12.95,-0.1C13.25,-0.24 13.497,-0.43 13.69,-0.67C13.89,-0.917 14.037,-1.203 14.13,-1.53C14.23,-1.857 14.28,-2.203 14.28,-2.57C14.28,-2.937 14.23,-3.283 14.13,-3.61C14.03,-3.937 13.88,-4.223 13.68,-4.47C13.487,-4.723 13.24,-4.923 12.94,-5.07C12.647,-5.217 12.3,-5.29 11.9,-5.29C11.54,-5.29 11.21,-5.223 10.91,-5.09C10.61,-4.963 10.39,-4.757 10.25,-4.47L10.23,-4.47L10.23,-5.17L9.38,-5.17ZM13.38,-2.63C13.38,-2.377 13.353,-2.13 13.3,-1.89C13.247,-1.65 13.16,-1.437 13.04,-1.25C12.92,-1.063 12.76,-0.913 12.56,-0.8C12.367,-0.687 12.123,-0.63 11.83,-0.63C11.537,-0.63 11.287,-0.683 11.08,-0.79C10.873,-0.903 10.703,-1.05 10.57,-1.23C10.443,-1.41 10.35,-1.617 10.29,-1.85C10.23,-2.09 10.2,-2.337 10.2,-2.59C10.2,-2.83 10.227,-3.067 10.28,-3.3C10.34,-3.533 10.433,-3.74 10.56,-3.92C10.687,-4.107 10.85,-4.257 11.05,-4.37C11.25,-4.483 11.493,-4.54 11.78,-4.54C12.053,-4.54 12.29,-4.487 12.49,-4.38C12.697,-4.273 12.863,-4.13 12.99,-3.95C13.123,-3.77 13.22,-3.563 13.28,-3.33C13.347,-3.103 13.38,-2.87 13.38,-2.63Z" style="fill-rule:nonzero;"/>
                    </g>
                </g>
            </g>
        </g>
        <g id="g1086" transform="matrix(1,0,0,1,83.5995,32.2666)">
            <g id="g1088">
                <g id="g10861" serif:id="g1086">
                    <path id="path1084" d="M266.76,22L266.76,0L272.61,11L266.76,22Z" style="fill:rgb(243,207,198);fill-rule:nonzero;stroke:black;stroke-width:1px;"/>
                </g>
            </g>
        </g>
        <g id="g1092" transform="matrix(1,0,0,1,83.5995,32.2666)">
            <g id="g1094">
                <g id="g10921" serif:id="g1092">
                    <path id="path1090" d="M274.71,22L274.71,0L278.31,11L274.71,22Z" style="fill:rgb(243,207,198);fill-rule:nonzero;stroke:black;stroke-width:1px;"/>
                </g>
            </g>
        </g>
        <g id="g1098" transform="matrix(1,0,0,1,83.5995,32.2666)">
            <g id="g1100">
                <g id="g10981" serif:id="g1098">
                    <path id="path1096" d="M278.01,22L278.01,0L282.87,11L278.01,22Z" style="fill:rgb(243,207,198);fill-rule:nonzero;stroke:black;stroke-width:1px;"/>
                </g>
            </g>
        </g>
        <g id="g1104" transform="matrix(0.707107,-0.707107,0.707107,0.707107,360.637,26.8724)">
            <g id="g1106">
                <g id="g11041" serif:id="g1104">
                    <g id="text1102">
                        <path id="path1447" d="M1.82,-5.17L1.82,-6.72L0.97,-6.72L0.97,-5.17L0.09,-5.17L0.09,-4.42L0.97,-4.42L0.97,-1.13C0.97,-0.89 0.993,-0.697 1.04,-0.55C1.087,-0.403 1.157,-0.29 1.25,-0.21C1.35,-0.13 1.477,-0.073 1.63,-0.04C1.79,-0.013 1.98,0 2.2,0L2.85,0L2.85,-0.75L2.46,-0.75C2.327,-0.75 2.217,-0.753 2.13,-0.76C2.05,-0.773 1.987,-0.797 1.94,-0.83C1.893,-0.863 1.86,-0.91 1.84,-0.97C1.827,-1.03 1.82,-1.11 1.82,-1.21L1.82,-4.42L2.85,-4.42L2.85,-5.17L1.82,-5.17Z" style="fill-rule:nonzero;"/>
                        <path id="path1449" d="M3.79,-5.17L3.79,0L4.64,0L4.64,-2.92C4.64,-3.153 4.67,-3.367 4.73,-3.56C4.797,-3.76 4.893,-3.933 5.02,-4.08C5.147,-4.227 5.303,-4.34 5.49,-4.42C5.683,-4.5 5.91,-4.54 6.17,-4.54C6.497,-4.54 6.753,-4.447 6.94,-4.26C7.127,-4.073 7.22,-3.82 7.22,-3.5L7.22,0L8.07,0L8.07,-3.4C8.07,-3.68 8.04,-3.933 7.98,-4.16C7.927,-4.393 7.83,-4.593 7.69,-4.76C7.55,-4.927 7.367,-5.057 7.14,-5.15C6.913,-5.243 6.63,-5.29 6.29,-5.29C5.523,-5.29 4.963,-4.977 4.61,-4.35L4.59,-4.35L4.59,-5.17L3.79,-5.17Z" style="fill-rule:nonzero;"/>
                        <path id="path1451" d="M9.38,-5.17L9.38,1.97L10.23,1.97L10.23,-0.69L10.25,-0.69C10.343,-0.537 10.457,-0.407 10.59,-0.3C10.73,-0.2 10.877,-0.12 11.03,-0.06C11.183,-0 11.337,0.043 11.49,0.07C11.65,0.097 11.793,0.11 11.92,0.11C12.313,0.11 12.657,0.04 12.95,-0.1C13.25,-0.24 13.497,-0.43 13.69,-0.67C13.89,-0.917 14.037,-1.203 14.13,-1.53C14.23,-1.857 14.28,-2.203 14.28,-2.57C14.28,-2.937 14.23,-3.283 14.13,-3.61C14.03,-3.937 13.88,-4.223 13.68,-4.47C13.487,-4.723 13.24,-4.923 12.94,-5.07C12.647,-5.217 12.3,-5.29 11.9,-5.29C11.54,-5.29 11.21,-5.223 10.91,-5.09C10.61,-4.963 10.39,-4.757 10.25,-4.47L10.23,-4.47L10.23,-5.17L9.38,-5.17ZM13.38,-2.63C13.38,-2.377 13.353,-2.13 13.3,-1.89C13.247,-1.65 13.16,-1.437 13.04,-1.25C12.92,-1.063 12.76,-0.913 12.56,-0.8C12.367,-0.687 12.123,-0.63 11.83,-0.63C11.537,-0.63 11.287,-0.683 11.08,-0.79C10.873,-0.903 10.703,-1.05 10.57,-1.23C10.443,-1.41 10.35,-1.617 10.29,-1.85C10.23,-2.09 10.2,-2.337 10.2,-2.59C10.2,-2.83 10.227,-3.067 10.28,-3.3C10.34,-3.533 10.433,-3.74 10.56,-3.92C10.687,-4.107 10.85,-4.257 11.05,-4.37C11.25,-4.483 11.493,-4.54 11.78,-4.54C12.053,-4.54 12.29,-4.487 12.49,-4.38C12.697,-4.273 12.863,-4.13 12.99,-3.95C13.123,-3.77 13.22,-3.563 13.28,-3.33C13.347,-3.103 13.38,-2.87 13.38,-2.63Z" style="fill-rule:nonzero;"/>
                    </g>
                </g>
            </g>
        </g>
        <g id="g1110" transform="matrix(1,0,0,1,83.5995,32.2666)">
            <g id="g1112">
                <g id="g11101" serif:id="g1110">
                    <path id="path1108" d="M288.45,22L288.45,0L292.32,11L288.45,22Z" style="fill:rgb(243,207,198);fill-rule:nonzero;stroke:black;stroke-width:1px;"/>
                </g>
            </g>
        </g>
        <g id="g1116" transform="matrix(0.707107,-0.707107,0.707107,0.707107,370.582,26.8724)">
            <g id="g1118">
                <g id="g11161" serif:id="g1116">
                    <g id="text1114">
                        <path id="path1454" d="M1.82,-5.17L1.82,-6.72L0.97,-6.72L0.97,-5.17L0.09,-5.17L0.09,-4.42L0.97,-4.42L0.97,-1.13C0.97,-0.89 0.993,-0.697 1.04,-0.55C1.087,-0.403 1.157,-0.29 1.25,-0.21C1.35,-0.13 1.477,-0.073 1.63,-0.04C1.79,-0.013 1.98,0 2.2,0L2.85,0L2.85,-0.75L2.46,-0.75C2.327,-0.75 2.217,-0.753 2.13,-0.76C2.05,-0.773 1.987,-0.797 1.94,-0.83C1.893,-0.863 1.86,-0.91 1.84,-0.97C1.827,-1.03 1.82,-1.11 1.82,-1.21L1.82,-4.42L2.85,-4.42L2.85,-5.17L1.82,-5.17Z" style="fill-rule:nonzero;"/>
                        <path id="path1456" d="M3.79,-5.17L3.79,0L4.64,0L4.64,-2.92C4.64,-3.153 4.67,-3.367 4.73,-3.56C4.797,-3.76 4.893,-3.933 5.02,-4.08C5.147,-4.227 5.303,-4.34 5.49,-4.42C5.683,-4.5 5.91,-4.54 6.17,-4.54C6.497,-4.54 6.753,-4.447 6.94,-4.26C7.127,-4.073 7.22,-3.82 7.22,-3.5L7.22,0L8.07,0L8.07,-3.4C8.07,-3.68 8.04,-3.933 7.98,-4.16C7.927,-4.393 7.83,-4.593 7.69,-4.76C7.55,-4.927 7.367,-5.057 7.14,-5.15C6.913,-5.243 6.63,-5.29 6.29,-5.29C5.523,-5.29 4.963,-4.977 4.61,-4.35L4.59,-4.35L4.59,-5.17L3.79,-5.17Z" style="fill-rule:nonzero;"/>
                        <path id="path1458" d="M9.38,-5.17L9.38,1.97L10.23,1.97L10.23,-0.69L10.25,-0.69C10.343,-0.537 10.457,-0.407 10.59,-0.3C10.73,-0.2 10.877,-0.12 11.03,-0.06C11.183,-0 11.337,0.043 11.49,0.07C11.65,0.097 11.793,0.11 11.92,0.11C12.313,0.11 12.657,0.04 12.95,-0.1C13.25,-0.24 13.497,-0.43 13.69,-0.67C13.89,-0.917 14.037,-1.203 14.13,-1.53C14.23,-1.857 14.28,-2.203 14.28,-2.57C14.28,-2.937 14.23,-3.283 14.13,-3.61C14.03,-3.937 13.88,-4.223 13.68,-4.47C13.487,-4.723 13.24,-4.923 12.94,-5.07C12.647,-5.217 12.3,-5.29 11.9,-5.29C11.54,-5.29 11.21,-5.223 10.91,-5.09C10.61,-4.963 10.39,-4.757 10.25,-4.47L10.23,-4.47L10.23,-5.17L9.38,-5.17ZM13.38,-2.63C13.38,-2.377 13.353,-2.13 13.3,-1.89C13.247,-1.65 13.16,-1.437 13.04,-1.25C12.92,-1.063 12.76,-0.913 12.56,-0.8C12.367,-0.687 12.123,-0.63 11.83,-0.63C11.537,-0.63 11.287,-0.683 11.08,-0.79C10.873,-0.903 10.703,-1.05 10.57,-1.23C10.443,-1.41 10.35,-1.617 10.29,-1.85C10.23,-2.09 10.2,-2.337 10.2,-2.59C10.2,-2.83 10.227,-3.067 10.28,-3.3C10.34,-3.533 10.433,-3.74 10.56,-3.92C10.687,-4.107 10.85,-4.257 11.05,-4.37C11.25,-4.483 11.493,-4.54 11.78,-4.54C12.053,-4.54 12.29,-4.487 12.49,-4.38C12.697,-4.273 12.863,-4.13 12.99,-3.95C13.123,-3.77 13.22,-3.563 13.28,-3.33C13.347,-3.103 13.38,-2.87 13.38,-2.63Z" style="fill-rule:nonzero;"/>
                    </g>
                </g>
            </g>
        </g>
        <g id="g1122" transform="matrix(1,0,0,1,83.5995,32.2666)">
            <g id="g1124">
                <g id="g11221" serif:id="g1122">
                    <path id="path1120" d="M303.735,5L321.48,5L321.48,0L333.48,11L321.48,22L321.48,17L303.735,17L303.735,5Z" style="fill-rule:nonzero;stroke:black;stroke-width:1px;"/>
                </g>
            </g>
        </g>
        <g id="g1128" transform="matrix(0.707107,-0.707107,0.707107,0.707107,398.805,26.8724)">
            <g id="g1130">
                <g id="g11281" serif:id="g1128">
                    <g id="text1126">
                        <path id="path1461" d="M5.22,-0.02C5.073,0.067 4.87,0.11 4.61,0.11C4.39,0.11 4.213,0.05 4.08,-0.07C3.953,-0.197 3.89,-0.4 3.89,-0.68C3.657,-0.4 3.383,-0.197 3.07,-0.07C2.763,0.05 2.43,0.11 2.07,0.11C1.837,0.11 1.613,0.083 1.4,0.03C1.193,-0.023 1.013,-0.107 0.86,-0.22C0.707,-0.333 0.583,-0.48 0.49,-0.66C0.403,-0.847 0.36,-1.07 0.36,-1.33C0.36,-1.623 0.41,-1.863 0.51,-2.05C0.61,-2.237 0.74,-2.387 0.9,-2.5C1.067,-2.62 1.253,-2.71 1.46,-2.77C1.673,-2.83 1.89,-2.88 2.11,-2.92C2.343,-2.967 2.563,-3 2.77,-3.02C2.983,-3.047 3.17,-3.08 3.33,-3.12C3.49,-3.167 3.617,-3.23 3.71,-3.31C3.803,-3.397 3.85,-3.52 3.85,-3.68C3.85,-3.867 3.813,-4.017 3.74,-4.13C3.673,-4.243 3.583,-4.33 3.47,-4.39C3.363,-4.45 3.24,-4.49 3.1,-4.51C2.967,-4.53 2.833,-4.54 2.7,-4.54C2.34,-4.54 2.04,-4.47 1.8,-4.33C1.56,-4.197 1.43,-3.94 1.41,-3.56L0.56,-3.56C0.573,-3.88 0.64,-4.15 0.76,-4.37C0.88,-4.59 1.04,-4.767 1.24,-4.9C1.44,-5.04 1.667,-5.14 1.92,-5.2C2.18,-5.26 2.457,-5.29 2.75,-5.29C2.983,-5.29 3.213,-5.273 3.44,-5.24C3.673,-5.207 3.883,-5.137 4.07,-5.03C4.257,-4.93 4.407,-4.787 4.52,-4.6C4.633,-4.413 4.69,-4.17 4.69,-3.87L4.69,-1.21C4.69,-1.01 4.7,-0.863 4.72,-0.77C4.747,-0.677 4.827,-0.63 4.96,-0.63C5.033,-0.63 5.12,-0.647 5.22,-0.68L5.22,-0.02ZM3.84,-2.67C3.733,-2.59 3.593,-2.53 3.42,-2.49C3.247,-2.457 3.063,-2.427 2.87,-2.4C2.683,-2.38 2.493,-2.353 2.3,-2.32C2.107,-2.293 1.933,-2.247 1.78,-2.18C1.627,-2.113 1.5,-2.017 1.4,-1.89C1.307,-1.77 1.26,-1.603 1.26,-1.39C1.26,-1.25 1.287,-1.13 1.34,-1.03C1.4,-0.937 1.473,-0.86 1.56,-0.8C1.653,-0.74 1.76,-0.697 1.88,-0.67C2,-0.643 2.127,-0.63 2.26,-0.63C2.54,-0.63 2.78,-0.667 2.98,-0.74C3.18,-0.82 3.343,-0.917 3.47,-1.03C3.597,-1.15 3.69,-1.277 3.75,-1.41C3.81,-1.55 3.84,-1.68 3.84,-1.8L3.84,-2.67Z" style="fill-rule:nonzero;"/>
                        <rect id="path1463" x="6.06" y="-7.14" width="0.85" height="7.14" style="fill-rule:nonzero;"/>
                        <path id="path1465" d="M9.13,-6.1L9.13,-7.14L8.28,-7.14L8.28,-6.1L9.13,-6.1ZM8.28,-5.17L8.28,0L9.13,0L9.13,-5.17L8.28,-5.17Z" style="fill-rule:nonzero;"/>
                        <path id="path1467" d="M11.82,-2.95L13.03,-6.28L13.05,-6.28L14.24,-2.95L11.82,-2.95ZM12.53,-7.14L9.75,0L10.72,0L11.52,-2.15L14.54,-2.15L15.32,0L16.37,0L13.58,-7.14L12.53,-7.14Z" style="fill-rule:nonzero;"/>
                    </g>
                </g>
            </g>
        </g>
    </g>
</svg>
