<?xml version="1.0" encoding="UTF-8" standalone="no"?>
<!DOCTYPE svg PUBLIC "-//W3C//DTD SVG 1.1//EN" "http://www.w3.org/Graphics/SVG/1.1/DTD/svg11.dtd">
<svg width="100%" height="100%" viewBox="0 0 2200 688" version="1.1" xmlns="http://www.w3.org/2000/svg" xmlns:xlink="http://www.w3.org/1999/xlink" xml:space="preserve" xmlns:serif="http://www.serif.com/" style="fill-rule:evenodd;clip-rule:evenodd;">
    <path d="M92.633,512.083L2150.18,512.083" style="fill:none;fill-rule:nonzero;stroke:rgb(17,17,17);stroke-width:13.25px;"/>
    <path d="M92.633,658.054L92.633,366.117L124.879,512.083L92.633,658.054Z" style="fill-rule:nonzero;stroke:black;stroke-width:13.25px;"/>
    <g>
        <path d="M51.606,258.882C49.229,256.505 47.165,253.94 45.413,251.188C43.662,248.435 42.473,245.62 41.848,242.743C41.222,239.865 41.316,236.956 42.129,234.016C42.943,231.076 44.694,228.261 47.384,225.571C50.136,222.819 52.998,220.989 55.97,220.082C58.941,219.175 61.881,218.956 64.79,219.425C67.699,219.894 70.545,220.958 73.329,222.616C76.113,224.273 78.693,226.291 81.07,228.668C83.322,230.92 85.277,233.406 86.935,236.128C88.592,238.849 89.687,241.664 90.219,244.573C90.75,247.481 90.61,250.406 89.797,253.346C88.983,256.286 87.232,259.101 84.542,261.791C81.977,264.356 79.24,266.092 76.331,266.999C73.423,267.906 70.514,268.125 67.605,267.655C64.696,267.186 61.866,266.17 59.113,264.606C56.361,263.042 53.858,261.134 51.606,258.882ZM112.973,245.182L45.976,178.186L38.001,186.161L62.96,211.121L62.773,211.309C60.458,210.746 58.175,210.621 55.923,210.933C53.671,211.246 51.528,211.825 49.495,212.669C47.462,213.514 45.601,214.53 43.912,215.719C42.223,216.907 40.753,218.127 39.502,219.378C35.811,223.069 33.246,226.979 31.808,231.107C30.369,235.236 29.868,239.365 30.306,243.493C30.744,247.622 32.042,251.673 34.2,255.645C36.359,259.617 39.158,263.324 42.598,266.764C46.039,270.205 49.761,272.988 53.765,275.115C57.768,277.242 61.85,278.54 66.01,279.009C70.17,279.478 74.33,279.009 78.49,277.602C82.65,276.194 86.606,273.614 90.36,269.861C93.737,266.483 96.24,262.792 97.866,258.788C99.493,254.785 99.618,250.781 98.241,246.778L98.429,246.59L104.997,253.158L112.973,245.182Z" style="fill-rule:nonzero;"/>
        <path d="M130.051,170.304L102.182,198.172C100.431,196.17 99.07,193.996 98.101,191.651C97.131,189.305 96.615,186.912 96.552,184.472C96.49,182.033 96.928,179.624 97.866,177.247C98.804,174.87 100.306,172.649 102.37,170.585C104.372,168.583 106.561,167.113 108.938,166.175C111.316,165.237 113.724,164.767 116.164,164.767C118.603,164.767 121.027,165.252 123.436,166.222C125.844,167.192 128.049,168.552 130.051,170.304ZM151.257,176.121L143.375,184.003C145.877,187.882 146.831,191.682 146.237,195.404C145.643,199.126 143.657,202.676 140.279,206.054C137.651,208.681 134.93,210.527 132.115,211.59C129.3,212.654 126.532,213.076 123.811,212.857C121.09,212.638 118.494,211.856 116.023,210.511C113.552,209.166 111.284,207.399 109.22,205.21L145.533,168.896C142.718,165.831 139.356,163 135.446,160.404C131.537,157.808 127.345,155.994 122.873,154.962C118.4,153.93 113.849,153.945 109.22,155.009C104.591,156.072 100.118,158.762 95.802,163.078C92.486,166.394 90.062,170.069 88.53,174.104C86.997,178.139 86.34,182.299 86.559,186.584C86.778,190.869 87.857,195.107 89.797,199.298C91.736,203.489 94.551,207.43 98.241,211.121C102.057,214.687 106.014,217.549 110.111,219.707C114.209,221.865 118.353,223.1 122.544,223.413C126.735,223.726 130.88,223.085 134.977,221.49C139.075,219.894 143.062,217.158 146.941,213.279C152.446,207.774 155.636,201.832 156.512,195.451C157.388,189.07 155.636,182.627 151.257,176.121Z" style="fill-rule:nonzero;"/>
        <path d="M163.174,143.937L170.493,187.663L180.158,177.998L173.589,144.406L207.182,150.974L217.41,140.746L172.463,133.333L166.833,94.299L157.263,103.87L162.142,132.958L133.523,127.61L123.295,137.837L163.174,143.937Z" style="fill-rule:nonzero;"/>
        <path d="M196.297,85.479L174.997,64.178L192.825,46.35C194.764,44.411 196.704,42.691 198.643,41.189C200.582,39.688 202.584,38.656 204.648,38.093C206.713,37.53 208.808,37.561 210.935,38.187C213.062,38.812 215.314,40.314 217.691,42.691C221.257,46.256 222.821,50.041 222.383,54.044C221.945,58.048 219.192,62.583 214.125,67.65L196.297,85.479ZM158.576,65.586L225.573,132.583L257.945,100.21C261.261,96.895 263.638,93.423 265.077,89.795C266.516,86.167 267.204,82.601 267.141,79.098C267.079,75.595 266.328,72.248 264.889,69.058C263.45,65.867 261.511,63.052 259.071,60.613C254.943,56.484 250.345,54.076 245.278,53.388C240.211,52.699 235.175,53.982 230.171,57.235L229.983,57.047C231.922,52.606 232.454,48.227 231.578,43.91C230.703,39.594 228.482,35.653 224.916,32.087C221.538,28.709 217.926,26.63 214.078,25.848C210.231,25.066 206.556,25.113 203.053,25.988C201.427,26.364 199.753,27.099 198.033,28.193C196.313,29.288 194.561,30.571 192.778,32.041C190.996,33.511 189.26,35.059 187.571,36.685C185.882,38.312 184.318,39.844 182.879,41.283L158.576,65.586ZM226.98,116.162L203.804,92.985L224.166,72.623C226.042,70.747 228.028,69.105 230.124,67.697C232.22,66.29 234.362,65.336 236.551,64.835C238.741,64.335 240.962,64.397 243.214,65.023C245.466,65.648 247.686,67.056 249.876,69.245C253.629,72.999 255.459,77.049 255.365,81.397C255.271,85.744 253.254,89.889 249.313,93.83L226.98,116.162Z" style="fill-rule:nonzero;"/>
    </g>
    <path d="M156.329,658.054L156.329,366.117L190.963,512.083L156.329,658.054Z" style="fill:rgb(243,207,198);fill-rule:nonzero;stroke:black;stroke-width:13.25px;"/>
    <path d="M358.563,432.467L348.608,432.467L348.608,366.117L189.371,512.083L348.608,658.054L348.608,591.704L358.563,591.704L358.563,432.467Z" style="fill:rgb(243,207,198);fill-rule:nonzero;stroke:black;stroke-width:13.25px;"/>
    <g>
        <path d="M197.391,228.95L182.847,214.406L174.871,222.381L189.415,236.926L181.158,245.183L188.196,252.22L196.453,243.963L227.324,274.834C229.576,277.086 231.609,278.681 233.423,279.62C235.237,280.558 236.973,280.949 238.631,280.793C240.289,280.636 241.993,279.964 243.745,278.775C245.496,277.587 247.404,275.96 249.469,273.896L255.568,267.797L248.53,260.759L244.871,264.419C243.62,265.67 242.556,266.639 241.681,267.328C240.805,268.016 239.992,268.422 239.241,268.547C238.49,268.672 237.755,268.532 237.036,268.125C236.316,267.718 235.488,267.046 234.549,266.108L204.429,235.987L214.094,226.322L207.056,219.285L197.391,228.95Z" style="fill-rule:nonzero;"/>
        <path d="M215.876,210.465L264.388,258.976L272.364,251.001L244.965,223.601C242.775,221.412 241.055,219.097 239.804,216.658C238.553,214.218 237.833,211.716 237.646,209.151C237.458,206.586 237.88,204.037 238.912,201.504C239.945,198.97 241.681,196.484 244.12,194.044C247.185,190.979 250.47,189.446 253.973,189.446C257.476,189.446 260.729,190.947 263.731,193.95L296.573,226.792L304.549,218.816L272.645,186.913C270.018,184.285 267.359,182.158 264.67,180.532C261.98,178.905 259.196,177.967 256.318,177.717C253.441,177.467 250.501,177.967 247.498,179.218C244.495,180.469 241.399,182.69 238.209,185.88C231.015,193.074 228.7,201.269 231.265,210.465L231.077,210.652L223.383,202.958L215.876,210.465Z" style="fill-rule:nonzero;"/>
        <path d="M268.329,158.012L335.326,225.009L343.302,217.033L318.342,192.073L318.53,191.886C320.844,192.449 323.128,192.574 325.38,192.261C327.632,191.948 329.759,191.354 331.76,190.478C333.762,189.602 335.623,188.555 337.343,187.335C339.064,186.115 340.518,184.911 341.707,183.722C345.397,180.031 347.978,176.137 349.448,172.04C350.918,167.943 351.434,163.83 350.996,159.701C350.558,155.572 349.26,151.522 347.102,147.55C344.944,143.577 342.144,139.871 338.704,136.43C335.263,132.99 331.541,130.206 327.538,128.079C323.534,125.952 319.437,124.639 315.246,124.138C311.054,123.638 306.879,124.091 302.719,125.499C298.559,126.906 294.602,129.487 290.849,133.24C287.471,136.618 284.984,140.324 283.389,144.359C281.794,148.394 281.685,152.413 283.061,156.417L282.873,156.604L276.305,150.036L268.329,158.012ZM329.696,144.312C332.073,146.689 334.137,149.254 335.889,152.007C337.64,154.759 338.829,157.574 339.455,160.452C340.08,163.329 340.002,166.222 339.22,169.131C338.438,172.04 336.671,174.871 333.918,177.623C331.166,180.375 328.304,182.205 325.333,183.112C322.361,184.019 319.421,184.238 316.512,183.769C313.604,183.3 310.757,182.237 307.974,180.579C305.19,178.921 302.609,176.904 300.232,174.527C297.98,172.275 296.026,169.788 294.368,167.067C292.71,164.346 291.615,161.531 291.084,158.622C290.552,155.713 290.693,152.789 291.506,149.848C292.319,146.908 294.071,144.093 296.761,141.403C299.325,138.839 302.062,137.103 304.971,136.196C307.88,135.289 310.789,135.07 313.697,135.539C316.606,136.008 319.437,137.025 322.189,138.588C324.942,140.152 327.444,142.06 329.696,144.312Z" style="fill-rule:nonzero;"/>
    </g>
    <path d="M395.783,432.467L480.379,432.467L480.379,366.117L639.617,512.083L480.379,658.054L480.379,591.704L395.783,591.704L395.783,432.467Z" style="fill:rgb(196,164,132);fill-rule:nonzero;stroke:black;stroke-width:13.25px;"/>
    <g>
        <path d="M526.607,240.489L493.577,176.495L485.32,184.752L514.127,235.328L513.939,235.516L464.114,205.958L455.387,214.685L485.32,264.135L485.132,264.323L434.463,235.61L425.642,244.43L489.73,277.365L498.363,268.733L469.556,220.409L469.744,220.221L518.162,248.934L526.607,240.489Z" style="fill-rule:nonzero;"/>
        <path d="M539.649,215.248L545.749,221.347L586.66,180.436L579.622,173.398L548.657,204.363L542.277,138.68L536.835,133.238L499.114,170.959L506.151,177.996L533.55,150.597L539.649,215.248Z" style="fill-rule:nonzero;"/>
        <path d="M632.45,126.388L588.067,82.005L580.561,89.512L587.504,96.455L587.411,96.549C583.282,95.298 579.263,95.282 575.353,96.502C571.443,97.722 567.956,99.864 564.891,102.93C560.699,107.121 557.963,111.453 556.68,115.926C555.398,120.398 555.116,124.746 555.836,128.968C556.555,133.191 558.056,137.194 560.34,140.979C562.623,144.764 565.203,148.095 568.081,150.972C571.396,154.288 574.993,156.978 578.872,159.042C582.75,161.106 586.707,162.342 590.742,162.748C594.776,163.155 598.796,162.67 602.799,161.294C606.803,159.918 610.619,157.415 614.247,153.787C617.375,150.659 619.627,147 621.003,142.809C622.379,138.618 622.254,134.333 620.627,129.954L620.815,129.766L624.005,132.956C626.695,135.646 628.9,138.383 630.621,141.167C632.341,143.95 633.404,146.734 633.811,149.518C634.218,152.302 633.967,155.054 633.06,157.775C632.153,160.496 630.386,163.171 627.759,165.798C626.445,167.112 624.928,168.347 623.208,169.504C621.488,170.662 619.705,171.537 617.859,172.132C616.014,172.726 614.169,172.945 612.323,172.788C610.478,172.632 608.804,171.866 607.303,170.49L599.327,178.465C602.08,180.968 604.989,182.5 608.054,183.063C611.119,183.626 614.169,183.517 617.203,182.735C620.236,181.953 623.177,180.639 626.023,178.794C628.869,176.948 631.418,174.9 633.67,172.648C641.427,164.891 645.149,157.228 644.836,149.659C644.524,142.089 640.395,134.333 632.45,126.388ZM607.772,146.374C605.145,149.002 602.408,150.644 599.562,151.301C596.716,151.957 593.869,151.926 591.023,151.207C588.177,150.487 585.44,149.252 582.813,147.5C580.185,145.749 577.777,143.778 575.588,141.589C573.273,139.274 571.318,136.788 569.723,134.129C568.128,131.471 567.096,128.749 566.627,125.966C566.157,123.182 566.345,120.398 567.19,117.615C568.034,114.831 569.739,112.157 572.303,109.592C574.806,107.09 577.433,105.463 580.185,104.713C582.938,103.962 585.69,103.868 588.443,104.431C591.195,104.994 593.854,106.057 596.419,107.621C598.983,109.185 601.329,111.031 603.456,113.158C605.708,115.41 607.694,117.927 609.414,120.711C611.135,123.495 612.323,126.341 612.98,129.25C613.637,132.159 613.59,135.083 612.839,138.023C612.089,140.963 610.4,143.747 607.772,146.374Z" style="fill-rule:nonzero;"/>
    </g>
    <path d="M639.813,658.054L639.813,366.117L785.317,512.083L639.813,658.054Z" style="fill:rgb(196,164,132);fill-rule:nonzero;stroke:black;stroke-width:13.25px;"/>
    <g>
        <path d="M721.477,240.49L688.447,176.496L680.19,184.753L708.997,235.33L708.809,235.517L658.984,205.96L650.257,214.686L680.19,264.136L680.002,264.324L629.332,235.611L620.512,244.431L684.6,277.367L693.233,268.734L664.426,220.41L664.614,220.222L713.032,248.935L721.477,240.49Z" style="fill-rule:nonzero;"/>
        <path d="M734.519,215.249L740.618,221.348L781.53,180.437L774.492,173.4L743.527,204.365L737.147,138.681L731.704,133.239L693.983,170.96L701.021,177.997L728.42,150.598L734.519,215.249Z" style="fill-rule:nonzero;"/>
        <path d="M722.603,105.371L789.599,172.367L797.575,164.392L770.176,136.992C767.986,134.803 766.266,132.488 765.015,130.049C763.764,127.609 763.045,125.107 762.857,122.542C762.669,119.977 763.091,117.428 764.124,114.895C765.156,112.361 766.892,109.875 769.331,107.435C772.397,104.37 775.681,102.837 779.184,102.837C782.687,102.837 785.94,104.339 788.943,107.341L821.784,140.183L829.76,132.207L797.857,100.304C795.229,97.676 792.571,95.549 789.881,93.923C787.191,92.297 784.407,91.358 781.53,91.108C778.652,90.858 775.712,91.358 772.709,92.609C769.707,93.86 766.61,96.081 763.42,99.272C761.981,100.71 760.652,102.352 759.432,104.198C758.212,106.043 757.227,107.998 756.476,110.062C755.726,112.127 755.303,114.238 755.21,116.396C755.116,118.554 755.507,120.697 756.382,122.824L756.195,123.011L730.578,97.395L722.603,105.371Z" style="fill-rule:nonzero;"/>
    </g>
    <path d="M786.908,658.054L786.908,366.117L924.85,512.083L786.908,658.054Z" style="fill:rgb(0,0,255);fill-rule:nonzero;stroke:black;stroke-width:13.25px;"/>
    <g>
        <path d="M864.79,240.491L831.76,176.496L823.503,184.754L852.31,235.33L852.122,235.517L802.297,205.96L793.57,214.686L823.503,264.136L823.315,264.324L772.645,235.611L763.825,244.432L827.913,277.367L836.546,268.734L807.739,220.41L807.927,220.223L856.345,248.936L864.79,240.491Z" style="fill-rule:nonzero;"/>
        <path d="M877.832,215.249L883.931,221.349L924.843,180.437L917.805,173.4L886.84,204.365L880.46,138.682L875.017,133.239L837.296,170.96L844.334,177.998L871.733,150.598L877.832,215.249Z" style="fill-rule:nonzero;"/>
        <path d="M914.896,142.716C912.519,140.339 910.455,137.775 908.703,135.022C906.952,132.27 905.763,129.455 905.138,126.577C904.512,123.7 904.606,120.791 905.419,117.851C906.232,114.911 907.984,112.096 910.674,109.406C913.426,106.653 916.288,104.824 919.26,103.916C922.231,103.009 925.171,102.79 928.08,103.26C930.989,103.729 933.835,104.792 936.619,106.45C939.402,108.108 941.983,110.125 944.36,112.502C946.612,114.754 948.567,117.241 950.225,119.962C951.882,122.683 952.977,125.498 953.509,128.407C954.04,131.316 953.9,134.24 953.086,137.18C952.273,140.12 950.522,142.935 947.832,145.625C945.267,148.19 942.53,149.926 939.621,150.833C936.713,151.74 933.804,151.959 930.895,151.49C927.986,151.021 925.155,150.004 922.403,148.44C919.651,146.876 917.148,144.968 914.896,142.716ZM976.263,129.017L909.266,62.02L901.291,69.996L926.25,94.955L926.063,95.143C923.748,94.58 921.465,94.455 919.213,94.768C916.961,95.081 914.818,95.659 912.785,96.504C910.752,97.348 908.891,98.365 907.202,99.553C905.513,100.742 904.043,101.962 902.792,103.213C899.101,106.904 896.536,110.813 895.098,114.942C893.659,119.071 893.158,123.199 893.596,127.328C894.034,131.456 895.332,135.507 897.49,139.479C899.648,143.451 902.448,147.158 905.888,150.598C909.329,154.039 913.051,156.823 917.055,158.95C921.058,161.076 925.14,162.375 929.3,162.844C933.46,163.313 937.62,162.844 941.78,161.436C945.939,160.029 949.896,157.448 953.649,153.695C957.027,150.317 959.53,146.626 961.156,142.623C962.783,138.619 962.908,134.616 961.531,130.612L961.719,130.424L968.287,136.993L976.263,129.017Z" style="fill-rule:nonzero;"/>
    </g>
    <path d="M926.642,658.054L926.642,366.117L1009.05,512.083L926.642,658.054Z" style="fill:rgb(196,164,132);fill-rule:nonzero;stroke:black;stroke-width:13.25px;"/>
    <g>
        <path d="M976.753,240.492L943.723,176.498L935.466,184.755L964.273,235.331L964.085,235.519L914.26,205.961L905.533,214.688L935.466,264.138L935.278,264.326L884.608,235.613L875.788,244.433L939.876,277.368L948.509,268.736L919.702,220.412L919.89,220.224L968.308,248.937L976.753,240.492Z" style="fill-rule:nonzero;"/>
        <path d="M989.795,215.251L995.895,221.35L1036.81,180.439L1029.77,173.401L998.803,204.366L992.423,138.683L986.98,133.241L949.259,170.962L956.297,177.999L983.696,150.6L989.795,215.251Z" style="fill-rule:nonzero;"/>
        <path d="M1049.66,109.782L1021.79,137.651C1020.04,135.649 1018.68,133.475 1017.71,131.129C1016.74,128.784 1016.22,126.391 1016.16,123.951C1016.1,121.512 1016.54,119.103 1017.48,116.726C1018.41,114.349 1019.92,112.128 1021.98,110.064C1023.98,108.062 1026.17,106.592 1028.55,105.654C1030.92,104.715 1033.33,104.246 1035.77,104.246C1038.21,104.246 1040.64,104.731 1043.05,105.701C1045.45,106.67 1047.66,108.031 1049.66,109.782ZM1070.87,115.6L1062.98,123.482C1065.49,127.36 1066.44,131.161 1065.85,134.883C1065.25,138.605 1063.27,142.155 1059.89,145.533C1057.26,148.16 1054.54,150.006 1051.72,151.069C1048.91,152.132 1046.14,152.555 1043.42,152.336C1040.7,152.117 1038.1,151.335 1035.63,149.99C1033.16,148.645 1030.89,146.878 1028.83,144.688L1065.14,108.375C1062.33,105.31 1058.96,102.479 1055.06,99.883C1051.15,97.287 1046.95,95.473 1042.48,94.441C1038.01,93.409 1033.46,93.424 1028.83,94.488C1024.2,95.551 1019.73,98.241 1015.41,102.557C1012.1,105.873 1009.67,109.548 1008.14,113.583C1006.61,117.617 1005.95,121.777 1006.17,126.062C1006.39,130.348 1007.47,134.586 1009.4,138.777C1011.35,142.968 1014.16,146.909 1017.85,150.6C1021.67,154.165 1025.62,157.027 1029.72,159.186C1033.82,161.344 1037.96,162.579 1042.15,162.892C1046.34,163.205 1050.49,162.564 1054.59,160.968C1058.68,159.373 1062.67,156.636 1066.55,152.758C1072.06,147.253 1075.25,141.31 1076.12,134.93C1077,128.549 1075.25,122.106 1070.87,115.6Z" style="fill-rule:nonzero;"/>
    </g>
    <path d="M1122.1,658.054L1122.1,366.117L1221.83,512.083L1122.1,658.054Z" style="fill:rgb(243,207,198);fill-rule:nonzero;stroke:black;stroke-width:13.25px;"/>
    <g>
        <path d="M1095.39,228.946L1080.85,214.401L1072.87,222.377L1087.41,236.921L1079.16,245.179L1086.19,252.216L1094.45,243.959L1125.32,274.83C1127.58,277.082 1129.61,278.677 1131.42,279.615C1133.24,280.554 1134.97,280.945 1136.63,280.788C1138.29,280.632 1139.99,279.959 1141.74,278.771C1143.5,277.582 1145.4,275.956 1147.47,273.892L1153.57,267.792L1146.53,260.755L1142.87,264.414C1141.62,265.666 1140.56,266.635 1139.68,267.323C1138.8,268.011 1137.99,268.418 1137.24,268.543C1136.49,268.668 1135.75,268.527 1135.04,268.121C1134.32,267.714 1133.49,267.042 1132.55,266.103L1102.43,235.983L1112.09,226.318L1105.06,219.281L1095.39,228.946Z" style="fill-rule:nonzero;"/>
        <path d="M1113.88,210.46L1162.39,258.972L1170.37,250.996L1142.97,223.597C1140.78,221.408 1139.06,219.093 1137.81,216.653C1136.56,214.214 1135.84,211.712 1135.65,209.147C1135.46,206.582 1135.88,204.033 1136.92,201.499C1137.95,198.966 1139.68,196.479 1142.12,194.04C1145.19,190.974 1148.47,189.442 1151.98,189.442C1155.48,189.442 1158.73,190.943 1161.74,193.946L1194.58,226.787L1202.55,218.812L1170.65,186.908C1168.02,184.281 1165.36,182.154 1162.67,180.528C1159.98,178.901 1157.2,177.963 1154.32,177.713C1151.44,177.462 1148.51,177.963 1145.5,179.214C1142.5,180.465 1139.4,182.686 1136.21,185.876C1129.02,193.07 1126.7,201.265 1129.27,210.46L1129.08,210.648L1121.39,202.954L1113.88,210.46Z" style="fill-rule:nonzero;"/>
        <path d="M1166.33,158.008L1233.33,225.005L1241.3,217.029L1216.34,192.069L1216.53,191.881C1218.85,192.444 1221.13,192.57 1223.38,192.257C1225.63,191.944 1227.76,191.35 1229.76,190.474C1231.76,189.598 1233.62,188.55 1235.34,187.331C1237.06,186.111 1238.52,184.907 1239.71,183.718C1243.4,180.027 1245.98,176.133 1247.45,172.036C1248.92,167.938 1249.43,163.825 1249,159.697C1248.56,155.568 1247.26,151.518 1245.1,147.545C1242.94,143.573 1240.14,139.867 1236.7,136.426C1233.26,132.986 1229.54,130.202 1225.54,128.075C1221.54,125.948 1217.44,124.634 1213.25,124.134C1209.06,123.634 1204.88,124.087 1200.72,125.495C1196.56,126.902 1192.6,129.482 1188.85,133.236C1185.47,136.614 1182.99,140.32 1181.39,144.355C1179.8,148.39 1179.68,152.409 1181.06,156.413L1180.87,156.6L1174.31,150.032L1166.33,158.008ZM1227.7,144.308C1230.07,146.685 1232.14,149.25 1233.89,152.002C1235.64,154.755 1236.83,157.57 1237.45,160.447C1238.08,163.325 1238,166.218 1237.22,169.127C1236.44,172.036 1234.67,174.866 1231.92,177.619C1229.17,180.371 1226.31,182.201 1223.33,183.108C1220.36,184.015 1217.42,184.234 1214.51,183.765C1211.6,183.296 1208.76,182.232 1205.97,180.575C1203.19,178.917 1200.61,176.899 1198.23,174.522C1195.98,172.27 1194.03,169.784 1192.37,167.063C1190.71,164.341 1189.62,161.526 1189.08,158.618C1188.55,155.709 1188.69,152.784 1189.51,149.844C1190.32,146.904 1192.07,144.089 1194.76,141.399C1197.33,138.835 1200.06,137.099 1202.97,136.192C1205.88,135.284 1208.79,135.066 1211.7,135.535C1214.61,136.004 1217.44,137.02 1220.19,138.584C1222.94,140.148 1225.44,142.056 1227.7,144.308Z" style="fill-rule:nonzero;"/>
    </g>
    <path d="M1237.35,432.467L1313.98,432.467L1313.98,366.117L1473.22,512.083L1313.98,658.054L1313.98,591.704L1237.35,591.704L1237.35,432.467Z" style="fill:rgb(208,115,114);fill-rule:nonzero;stroke:black;stroke-width:13.25px;"/>
    <g>
        <path d="M1356.32,248.371L1307.81,199.859L1299.83,207.835L1327.23,235.234C1329.42,237.424 1331.14,239.738 1332.39,242.178C1333.64,244.617 1334.36,247.12 1334.55,249.684C1334.74,252.249 1334.32,254.798 1333.28,257.332C1332.25,259.865 1330.52,262.352 1328.08,264.792C1325.01,267.857 1321.73,269.389 1318.22,269.389C1314.72,269.389 1311.47,267.888 1308.46,264.885L1275.62,232.044L1267.65,240.02L1299.55,271.923C1302.18,274.55 1304.84,276.677 1307.53,278.303C1310.22,279.93 1313,280.868 1315.88,281.118C1318.76,281.369 1321.68,280.853 1324.65,279.57C1327.62,278.288 1330.7,276.052 1333.89,272.861C1337.46,269.296 1339.85,265.495 1341.07,261.46C1342.29,257.426 1342.25,253.062 1340.93,248.371L1341.12,248.183L1348.81,255.877L1356.32,248.371Z" style="fill-rule:nonzero;"/>
        <path d="M1406.05,190.382L1361.67,145.999L1354.16,153.505L1361.1,160.449L1361.01,160.543C1356.88,159.292 1352.86,159.276 1348.95,160.496C1345.04,161.716 1341.56,163.858 1338.49,166.924C1334.3,171.115 1331.56,175.447 1330.28,179.919C1329,184.392 1328.72,188.74 1329.43,192.962C1330.15,197.185 1331.66,201.188 1333.94,204.973C1336.22,208.758 1338.8,212.089 1341.68,214.966C1345,218.282 1348.59,220.971 1352.47,223.036C1356.35,225.1 1360.31,226.336 1364.34,226.742C1368.38,227.149 1372.39,226.664 1376.4,225.288C1380.4,223.912 1384.22,221.409 1387.85,217.781C1390.97,214.653 1393.23,210.994 1394.6,206.803C1395.98,202.611 1395.85,198.326 1394.23,193.948L1394.41,193.76L1397.61,196.95C1400.3,199.64 1402.5,202.377 1404.22,205.161C1405.94,207.944 1407,210.728 1407.41,213.512C1407.82,216.295 1407.57,219.048 1406.66,221.769C1405.75,224.49 1403.99,227.164 1401.36,229.792C1400.04,231.105 1398.53,232.341 1396.81,233.498C1395.09,234.655 1393.3,235.531 1391.46,236.126C1389.61,236.72 1387.77,236.939 1385.92,236.782C1384.08,236.626 1382.4,235.86 1380.9,234.483L1372.93,242.459C1375.68,244.961 1378.59,246.494 1381.65,247.057C1384.72,247.62 1387.77,247.511 1390.8,246.729C1393.84,245.947 1396.78,244.633 1399.62,242.788C1402.47,240.942 1405.02,238.894 1407.27,236.642C1415.03,228.885 1418.75,221.222 1418.44,213.652C1418.12,206.083 1413.99,198.326 1406.05,190.382ZM1381.37,210.368C1378.74,212.996 1376.01,214.638 1373.16,215.295C1370.32,215.951 1367.47,215.92 1364.62,215.201C1361.78,214.481 1359.04,213.246 1356.41,211.494C1353.79,209.743 1351.38,207.772 1349.19,205.583C1346.87,203.268 1344.92,200.782 1343.32,198.123C1341.73,195.465 1340.69,192.743 1340.23,189.96C1339.76,187.176 1339.94,184.392 1340.79,181.608C1341.63,178.825 1343.34,176.151 1345.9,173.586C1348.4,171.084 1351.03,169.457 1353.79,168.706C1356.54,167.956 1359.29,167.862 1362.04,168.425C1364.79,168.988 1367.45,170.051 1370.02,171.615C1372.58,173.179 1374.93,175.025 1377.06,177.151C1379.31,179.403 1381.29,181.921 1383.01,184.705C1384.73,187.489 1385.92,190.335 1386.58,193.244C1387.24,196.153 1387.19,199.077 1386.44,202.017C1385.69,204.957 1384,207.741 1381.37,210.368Z" style="fill-rule:nonzero;"/>
        <path d="M1404.17,152.849C1401.79,150.472 1399.73,147.907 1397.98,145.154C1396.23,142.402 1395.04,139.587 1394.41,136.709C1393.79,133.832 1393.88,130.923 1394.69,127.983C1395.51,125.043 1397.26,122.228 1399.95,119.538C1402.7,116.785 1405.56,114.956 1408.53,114.049C1411.51,113.142 1414.44,112.923 1417.35,113.392C1420.26,113.861 1423.11,114.924 1425.89,116.582C1428.68,118.24 1431.26,120.257 1433.63,122.634C1435.89,124.886 1437.84,127.373 1439.5,130.094C1441.16,132.815 1442.25,135.63 1442.78,138.539C1443.31,141.448 1443.17,144.372 1442.36,147.312C1441.55,150.253 1439.8,153.068 1437.11,155.757C1434.54,158.322 1431.8,160.058 1428.89,160.965C1425.99,161.872 1423.08,162.091 1420.17,161.622C1417.26,161.153 1414.43,160.136 1411.68,158.572C1408.92,157.009 1406.42,155.101 1404.17,152.849ZM1465.54,139.149L1398.54,72.152L1390.56,80.128L1415.52,105.088L1415.34,105.275C1413.02,104.712 1410.74,104.587 1408.49,104.9C1406.23,105.213 1404.09,105.791 1402.06,106.636C1400.03,107.48 1398.16,108.497 1396.48,109.685C1394.79,110.874 1393.32,112.094 1392.07,113.345C1388.38,117.036 1385.81,120.945 1384.37,125.074C1382.93,129.203 1382.43,133.331 1382.87,137.46C1383.31,141.589 1384.61,145.639 1386.76,149.611C1388.92,153.584 1391.72,157.29 1395.16,160.731C1398.6,164.171 1402.33,166.955 1406.33,169.082C1410.33,171.209 1414.41,172.507 1418.57,172.976C1422.73,173.445 1426.89,172.976 1431.05,171.568C1435.21,170.161 1439.17,167.58 1442.92,163.827C1446.3,160.449 1448.8,156.758 1450.43,152.755C1452.06,148.751 1452.18,144.748 1450.81,140.744L1450.99,140.557L1457.56,147.125L1465.54,139.149Z" style="fill-rule:nonzero;"/>
    </g>
    <path d="M1476.21,432.467L1566.58,432.467L1566.58,366.117L1725.81,512.083L1566.58,658.054L1566.58,591.704L1476.21,591.704L1476.21,432.467Z" style="fill:rgb(0,255,255);fill-rule:nonzero;stroke:black;stroke-width:13.25px;"/>
    <g>
        <path d="M1609.92,240.489L1576.89,176.495L1568.63,184.752L1597.44,235.328L1597.25,235.516L1547.43,205.958L1538.7,214.685L1568.63,264.135L1568.45,264.323L1517.78,235.61L1508.95,244.43L1573.04,277.365L1581.68,268.733L1552.87,220.409L1553.06,220.221L1601.48,248.934L1609.92,240.489Z" style="fill-rule:nonzero;"/>
        <path d="M1633.01,151.535L1641.27,143.278C1638.08,140.713 1634.84,138.977 1631.56,138.07C1628.27,137.163 1625.02,136.944 1621.8,137.413C1618.58,137.883 1615.43,138.993 1612.37,140.744C1609.3,142.496 1606.39,144.748 1603.64,147.5C1599.82,151.316 1597.15,155.336 1595.62,159.558C1594.09,163.781 1593.54,168.019 1593.98,172.272C1594.41,176.526 1595.74,180.702 1597.96,184.799C1600.18,188.896 1603.11,192.759 1606.74,196.388C1610.37,200.016 1614.18,202.862 1618.18,204.926C1622.19,206.991 1626.24,208.164 1630.34,208.445C1634.43,208.727 1638.5,208.038 1642.53,206.381C1646.57,204.723 1650.43,202.049 1654.12,198.358C1660.32,192.165 1663.58,185.644 1663.93,178.794C1664.27,171.944 1661.88,165.079 1656.75,158.197L1648.59,166.361C1651.84,170.615 1653.39,174.884 1653.23,179.169C1653.07,183.454 1651.03,187.567 1647.09,191.508C1644.58,194.01 1641.92,195.668 1639.11,196.481C1636.29,197.295 1633.5,197.435 1630.71,196.904C1627.93,196.372 1625.21,195.308 1622.55,193.713C1619.89,192.118 1617.43,190.195 1615.18,187.943C1612.74,185.503 1610.63,182.891 1608.85,180.107C1607.07,177.324 1605.88,174.477 1605.28,171.569C1604.69,168.66 1604.83,165.704 1605.7,162.701C1606.58,159.699 1608.46,156.759 1611.33,153.881C1614.71,150.503 1618.25,148.658 1621.94,148.345C1625.63,148.032 1629.32,149.096 1633.01,151.535Z" style="fill-rule:nonzero;"/>
        <path d="M1616.4,100.021L1683.4,167.018L1691.37,159.042L1663.97,131.643C1661.78,129.453 1660.06,127.139 1658.81,124.699C1657.56,122.259 1656.84,119.757 1656.65,117.192C1656.47,114.628 1656.89,112.078 1657.92,109.545C1658.95,107.011 1660.69,104.525 1663.13,102.085C1666.19,99.02 1669.48,97.487 1672.98,97.487C1676.49,97.487 1679.74,98.989 1682.74,101.991L1715.58,134.833L1723.56,126.857L1691.65,94.954C1689.03,92.327 1686.37,90.2 1683.68,88.573C1680.99,86.947 1678.2,86.009 1675.33,85.758C1672.45,85.508 1669.51,86.009 1666.51,87.26C1663.51,88.511 1660.41,90.731 1657.22,93.922C1655.78,95.361 1654.45,97.003 1653.23,98.848C1652.01,100.693 1651.03,102.648 1650.27,104.713C1649.52,106.777 1649.1,108.888 1649.01,111.046C1648.91,113.204 1649.31,115.347 1650.18,117.474L1649.99,117.662L1624.38,92.045L1616.4,100.021Z" style="fill-rule:nonzero;"/>
        <path d="M1669.88,46.536L1736.88,113.533L1783.42,66.992L1775.91,59.485L1738.29,97.112L1715.11,73.935L1749.92,39.123L1742.41,31.617L1707.6,66.429L1686.3,45.129L1723.65,7.783L1716.14,0.276L1669.88,46.536Z" style="fill-rule:nonzero;"/>
    </g>
    <path d="M1784.93,432.467L1809.01,432.467L1809.01,366.117L1968.25,512.083L1809.01,658.054L1809.01,591.704L1784.93,591.704L1784.93,432.467Z" style="fill:rgb(0,255,255);fill-rule:nonzero;stroke:black;stroke-width:13.25px;"/>
    <g>
        <path d="M1875.18,242.556L1830.8,198.173L1823.29,205.68L1830.23,212.623L1830.14,212.717C1826.01,211.466 1821.99,211.45 1818.08,212.67C1814.17,213.89 1810.68,216.033 1807.62,219.098C1803.43,223.289 1800.69,227.621 1799.41,232.094C1798.13,236.566 1797.85,240.914 1798.57,245.137C1799.29,249.359 1800.79,253.363 1803.07,257.147C1805.35,260.932 1807.93,264.263 1810.81,267.14C1814.13,270.456 1817.72,273.146 1821.6,275.21C1825.48,277.274 1829.44,278.51 1833.47,278.916C1837.51,279.323 1841.53,278.838 1845.53,277.462C1849.53,276.086 1853.35,273.584 1856.98,269.955C1860.1,266.828 1862.36,263.168 1863.73,258.977C1865.11,254.786 1864.98,250.501 1863.36,246.122L1863.55,245.934L1866.74,249.124C1869.42,251.814 1871.63,254.551 1873.35,257.335C1875.07,260.119 1876.13,262.902 1876.54,265.686C1876.95,268.47 1876.7,271.222 1875.79,273.943C1874.88,276.664 1873.12,279.339 1870.49,281.966C1869.17,283.28 1867.66,284.515 1865.94,285.672C1864.22,286.83 1862.43,287.705 1860.59,288.3C1858.74,288.894 1856.9,289.113 1855.05,288.957C1853.21,288.8 1851.53,288.034 1850.03,286.658L1842.06,294.633C1844.81,297.136 1847.72,298.668 1850.78,299.231C1853.85,299.794 1856.9,299.685 1859.93,298.903C1862.97,298.121 1865.91,296.807 1868.75,294.962C1871.6,293.116 1874.15,291.068 1876.4,288.816C1884.16,281.059 1887.88,273.396 1887.57,265.827C1887.25,258.258 1883.12,250.501 1875.18,242.556ZM1850.5,262.543C1847.88,265.17 1845.14,266.812 1842.29,267.469C1839.44,268.126 1836.6,268.094 1833.75,267.375C1830.91,266.656 1828.17,265.42 1825.54,263.669C1822.91,261.917 1820.51,259.946 1818.32,257.757C1816,255.443 1814.05,252.956 1812.45,250.297C1810.86,247.639 1809.83,244.918 1809.36,242.134C1808.89,239.35 1809.08,236.566 1809.92,233.783C1810.76,230.999 1812.47,228.325 1815.03,225.76C1817.54,223.258 1820.16,221.631 1822.91,220.881C1825.67,220.13 1828.42,220.036 1831.17,220.599C1833.92,221.162 1836.58,222.226 1839.15,223.789C1841.71,225.353 1844.06,227.199 1846.19,229.326C1848.44,231.578 1850.42,234.095 1852.14,236.879C1853.86,239.663 1855.05,242.509 1855.71,245.418C1856.37,248.327 1856.32,251.251 1855.57,254.191C1854.82,257.132 1853.13,259.915 1850.5,262.543Z" style="fill-rule:nonzero;"/>
        <path d="M1934.11,191.511C1933.55,193.7 1932.05,196.015 1929.61,198.455C1927.54,200.519 1925.32,201.582 1922.94,201.645C1920.57,201.707 1918.07,200.425 1915.44,197.798C1915.88,202.614 1915.22,207.056 1913.47,211.122C1911.72,215.188 1909.15,218.91 1905.77,222.288C1903.58,224.478 1901.25,226.307 1898.78,227.777C1896.31,229.247 1893.83,230.17 1891.32,230.545C1888.82,230.921 1886.29,230.671 1883.72,229.795C1881.16,228.919 1878.65,227.261 1876.22,224.822C1873.46,222.069 1871.68,219.348 1870.87,216.658C1870.05,213.968 1869.87,211.31 1870.3,208.682C1870.74,206.055 1871.66,203.475 1873.07,200.941C1874.48,198.408 1876.03,195.921 1877.72,193.481C1879.47,190.854 1881.22,188.446 1882.97,186.256C1884.72,184.067 1886.15,182.018 1887.24,180.11C1888.34,178.202 1888.93,176.419 1889.02,174.762C1889.12,173.104 1888.41,171.524 1886.91,170.023C1885.16,168.272 1883.42,167.192 1881.7,166.786C1879.98,166.379 1878.33,166.411 1876.73,166.88C1875.14,167.349 1873.6,168.131 1872.13,169.226C1870.66,170.32 1869.3,171.493 1868.05,172.744C1864.67,176.122 1862.5,179.578 1861.53,183.113C1860.56,186.647 1861.77,190.291 1865.14,194.044L1857.17,202.02C1854.29,198.892 1852.38,195.733 1851.44,192.543C1850.51,189.353 1850.33,186.178 1850.93,183.019C1851.52,179.86 1852.74,176.795 1854.59,173.823C1856.43,170.852 1858.73,167.99 1861.48,165.238C1863.67,163.048 1866,161.031 1868.47,159.185C1870.94,157.34 1873.54,156.026 1876.26,155.244C1878.98,154.462 1881.75,154.416 1884.57,155.104C1887.38,155.792 1890.2,157.543 1893.01,160.358L1917.97,185.318C1919.85,187.195 1921.33,188.461 1922.43,189.118C1923.52,189.775 1924.7,189.478 1925.95,188.227C1926.63,187.539 1927.29,186.569 1927.92,185.318L1934.11,191.511ZM1896.3,179.594C1896.05,181.346 1895.28,183.207 1894,185.177C1892.71,187.148 1891.29,189.134 1889.73,191.136C1888.16,193.137 1886.62,195.186 1885.08,197.282C1883.55,199.377 1882.38,201.457 1881.56,203.522C1880.75,205.586 1880.47,207.65 1880.72,209.715C1880.97,211.779 1882.1,213.812 1884.1,215.814C1885.41,217.127 1886.79,217.972 1888.23,218.347C1889.66,218.722 1891.09,218.769 1892.5,218.488C1893.9,218.206 1895.3,217.628 1896.67,216.752C1898.05,215.876 1899.36,214.813 1900.61,213.562C1903.24,210.934 1905.13,208.323 1906.29,205.727C1907.45,203.131 1908.07,200.691 1908.16,198.408C1908.26,196.124 1907.95,194.06 1907.23,192.215C1906.51,190.369 1905.59,188.884 1904.46,187.758L1896.3,179.594Z" style="fill-rule:nonzero;"/>
        <path d="M1875.18,116.82L1942.18,183.817L1950.15,175.841L1883.16,108.844L1875.18,116.82Z" style="fill-rule:nonzero;"/>
        <path d="M1993.13,84.447L1950.34,41.659L1941.43,50.574L1984.22,93.361C1990.22,99.367 1993.29,105.403 1993.41,111.471C1993.54,117.539 1990.75,123.419 1985.06,129.112C1979.06,135.117 1972.91,138.167 1966.62,138.261C1960.34,138.354 1954.19,135.399 1948.18,129.393L1905.4,86.605L1896.48,95.52L1939.27,138.308C1948.22,147.253 1957.16,151.35 1966.11,150.6C1975.05,149.849 1983.84,145.157 1992.47,136.525C2000.92,128.08 2005.28,119.431 2005.56,110.58C2005.85,101.728 2001.7,93.017 1993.13,84.447Z" style="fill-rule:nonzero;"/>
    </g>
    <path d="M1967.46,432.467L1990.95,432.467L1990.95,366.117L2150.18,512.083L1990.95,658.054L1990.95,591.704L1967.46,591.704L1967.46,432.467Z" style="fill:rgb(0,255,255);fill-rule:nonzero;stroke:black;stroke-width:13.25px;"/>
    <g>
        <path d="M1971.46,239.74L2038.46,306.737L2046.43,298.761L2021.47,273.801L2021.66,273.613C2023.98,274.176 2026.26,274.302 2028.51,273.989C2030.76,273.676 2032.89,273.082 2034.89,272.206C2036.89,271.33 2038.75,270.282 2040.47,269.063C2042.19,267.843 2043.65,266.639 2044.84,265.45C2048.53,261.759 2051.11,257.865 2052.58,253.768C2054.05,249.67 2054.57,245.557 2054.13,241.429C2053.69,237.3 2052.39,233.25 2050.23,229.277C2048.07,225.305 2045.28,221.599 2041.84,218.158C2038.39,214.718 2034.67,211.934 2030.67,209.807C2026.66,207.68 2022.57,206.366 2018.38,205.866C2014.18,205.366 2010.01,205.819 2005.85,207.227C2001.69,208.634 1997.73,211.214 1993.98,214.968C1990.6,218.346 1988.12,222.052 1986.52,226.087C1984.92,230.122 1984.82,234.141 1986.19,238.145L1986,238.332L1979.44,231.764L1971.46,239.74ZM2032.83,226.04C2035.2,228.417 2037.27,230.982 2039.02,233.734C2040.77,236.487 2041.96,239.302 2042.59,242.179C2043.21,245.057 2043.13,247.95 2042.35,250.859C2041.57,253.768 2039.8,256.598 2037.05,259.351C2034.3,262.103 2031.43,263.933 2028.46,264.84C2025.49,265.747 2022.55,265.966 2019.64,265.497C2016.73,265.028 2013.89,263.964 2011.1,262.307C2008.32,260.649 2005.74,258.631 2003.36,256.254C2001.11,254.002 1999.16,251.516 1997.5,248.795C1995.84,246.073 1994.75,243.258 1994.21,240.35C1993.68,237.441 1993.82,234.516 1994.64,231.576C1995.45,228.636 1997.2,225.821 1999.89,223.131C2002.46,220.567 2005.19,218.831 2008.1,217.924C2011.01,217.017 2013.92,216.798 2016.83,217.267C2019.74,217.736 2022.57,218.752 2025.32,220.316C2028.07,221.88 2030.58,223.788 2032.83,226.04Z" style="fill-rule:nonzero;"/>
        <path d="M2113.05,186.912L2068.67,142.529L2061.16,150.035L2068.1,156.979L2068.01,157.073C2063.88,155.822 2059.86,155.806 2055.95,157.026C2052.04,158.246 2048.55,160.388 2045.49,163.453C2041.3,167.645 2038.56,171.977 2037.28,176.449C2036,180.922 2035.72,185.27 2036.43,189.492C2037.15,193.715 2038.66,197.718 2040.94,201.503C2043.22,205.287 2045.8,208.618 2048.68,211.496C2052,214.811 2055.59,217.501 2059.47,219.566C2063.35,221.63 2067.31,222.865 2071.34,223.272C2075.38,223.679 2079.39,223.194 2083.4,221.818C2087.4,220.441 2091.22,217.939 2094.85,214.311C2097.97,211.183 2100.23,207.524 2101.6,203.333C2102.98,199.141 2102.85,194.856 2101.23,190.477L2101.41,190.29L2104.61,193.48C2107.3,196.17 2109.5,198.907 2111.22,201.69C2112.94,204.474 2114,207.258 2114.41,210.042C2114.82,212.825 2114.57,215.578 2113.66,218.299C2112.75,221.02 2110.99,223.694 2108.36,226.322C2107.05,227.635 2105.53,228.871 2103.81,230.028C2102.09,231.185 2100.3,232.061 2098.46,232.655C2096.61,233.25 2094.77,233.469 2092.92,233.312C2091.08,233.156 2089.4,232.389 2087.9,231.013L2079.93,238.989C2082.68,241.491 2085.59,243.024 2088.65,243.587C2091.72,244.15 2094.77,244.04 2097.8,243.258C2100.84,242.477 2103.78,241.163 2106.62,239.318C2109.47,237.472 2112.02,235.423 2114.27,233.171C2122.03,225.415 2125.75,217.752 2125.44,210.182C2125.12,202.613 2120.99,194.856 2113.05,186.912ZM2088.37,206.898C2085.74,209.525 2083.01,211.168 2080.16,211.824C2077.32,212.481 2074.47,212.45 2071.62,211.731C2068.78,211.011 2066.04,209.776 2063.41,208.024C2060.78,206.273 2058.38,204.302 2056.19,202.113C2053.87,199.798 2051.92,197.312 2050.32,194.653C2048.73,191.994 2047.69,189.273 2047.23,186.489C2046.76,183.706 2046.94,180.922 2047.79,178.138C2048.63,175.355 2050.34,172.68 2052.9,170.116C2055.41,167.613 2058.03,165.987 2060.78,165.236C2063.54,164.486 2066.29,164.392 2069.04,164.955C2071.8,165.518 2074.45,166.581 2077.02,168.145C2079.58,169.709 2081.93,171.554 2084.06,173.681C2086.31,175.933 2088.29,178.451 2090.01,181.235C2091.73,184.019 2092.92,186.865 2093.58,189.774C2094.24,192.682 2094.19,195.607 2093.44,198.547C2092.69,201.487 2091,204.271 2088.37,206.898Z" style="fill-rule:nonzero;"/>
        <path d="M2080.68,130.518L2129.19,179.03L2137.17,171.054L2106.95,140.84C2106.01,139.901 2105.08,138.494 2104.14,136.617C2103.2,134.741 2102.59,132.629 2102.31,130.283C2102.03,127.938 2102.24,125.467 2102.97,122.871C2103.68,120.275 2105.2,117.819 2107.52,115.505C2109.33,113.691 2111.08,112.471 2112.77,111.845C2114.46,111.22 2116.13,111.048 2117.79,111.329C2119.45,111.611 2121.07,112.267 2122.67,113.3C2124.26,114.332 2125.85,115.63 2127.41,117.194L2159.22,149.003L2167.19,141.027L2136.98,110.813C2133.23,107.06 2131.35,102.931 2131.35,98.427C2131.35,93.923 2133.32,89.701 2137.26,85.76C2139.2,83.82 2141.06,82.522 2142.84,81.866C2144.63,81.209 2146.35,81.021 2148.01,81.303C2149.66,81.584 2151.27,82.257 2152.84,83.32C2154.4,84.383 2155.93,85.666 2157.43,87.167L2189.24,118.977L2197.22,111.001L2161.66,75.438C2159.16,72.936 2156.62,71.184 2154.06,70.183C2151.49,69.182 2148.94,68.823 2146.41,69.104C2143.88,69.386 2141.36,70.246 2138.86,71.685C2136.35,73.123 2133.88,75.063 2131.44,77.502C2128.25,80.693 2126.05,84.337 2124.83,88.434C2123.61,92.531 2123.5,96.707 2124.5,100.961C2120.5,98.959 2116.65,98.552 2112.96,99.741C2109.27,100.929 2105.92,103.025 2102.92,106.028C2096.1,112.846 2093.63,120.822 2095.51,129.955L2095.32,130.143L2088.19,123.011L2080.68,130.518Z" style="fill-rule:nonzero;"/>
    </g>
</svg>
