<?xml version="1.0" encoding="UTF-8" standalone="no"?>
<!DOCTYPE svg PUBLIC "-//W3C//DTD SVG 1.1//EN" "http://www.w3.org/Graphics/SVG/1.1/DTD/svg11.dtd">
<svg width="100%" height="100%" viewBox="0 0 6259 3730" version="1.1" xmlns="http://www.w3.org/2000/svg" xmlns:xlink="http://www.w3.org/1999/xlink" xml:space="preserve" xmlns:serif="http://www.serif.com/" style="fill-rule:evenodd;clip-rule:evenodd;">
    <g transform="matrix(4.16667,0,0,4.16667,0,0)">
        <g transform="matrix(1,0,0,1,-3507.3,-41.3749)">
            <g transform="matrix(17.4811,0,0,17.4811,3645.06,515.152)">
                <g>
                    <path d="M-0.015,11L75.945,11" style="fill:none;fill-rule:nonzero;stroke:rgb(17,17,17);stroke-width:1px;"/>
                </g>
            </g>
            <g transform="matrix(17.4811,0,0,17.4811,3645.06,515.152)">
                <g>
                    <path d="M-0.015,22L-0.015,0L0.645,11L-0.015,22Z" style="fill:rgb(187,187,187);fill-rule:nonzero;stroke:black;stroke-width:1px;"/>
                </g>
            </g>
            <g transform="matrix(12.361,-12.361,12.361,12.361,3591.11,420.857)">
                <g>
                    <g transform="matrix(10,0,0,10,0,0)">
                        <path d="M0.126,-0.254C0.126,-0.279 0.129,-0.304 0.134,-0.328C0.139,-0.352 0.148,-0.373 0.16,-0.392C0.172,-0.411 0.188,-0.426 0.208,-0.437C0.228,-0.448 0.252,-0.454 0.281,-0.454C0.31,-0.454 0.335,-0.448 0.356,-0.438C0.377,-0.427 0.394,-0.412 0.407,-0.394C0.42,-0.376 0.429,-0.355 0.435,-0.332C0.441,-0.308 0.444,-0.283 0.444,-0.258C0.444,-0.234 0.441,-0.21 0.436,-0.187C0.43,-0.164 0.421,-0.143 0.408,-0.125C0.395,-0.106 0.379,-0.091 0.359,-0.08C0.339,-0.069 0.315,-0.063 0.286,-0.063C0.259,-0.063 0.235,-0.068 0.215,-0.079C0.194,-0.09 0.178,-0.104 0.165,-0.122C0.152,-0.14 0.142,-0.161 0.136,-0.184C0.129,-0.206 0.126,-0.23 0.126,-0.254ZM0.526,-0L0.526,-0.714L0.441,-0.714L0.441,-0.448L0.439,-0.448C0.43,-0.463 0.418,-0.476 0.405,-0.487C0.391,-0.497 0.376,-0.505 0.361,-0.512C0.346,-0.518 0.33,-0.522 0.315,-0.525C0.3,-0.528 0.285,-0.529 0.272,-0.529C0.233,-0.529 0.198,-0.522 0.169,-0.508C0.139,-0.493 0.114,-0.474 0.095,-0.45C0.075,-0.425 0.06,-0.397 0.051,-0.364C0.041,-0.331 0.036,-0.297 0.036,-0.26C0.036,-0.223 0.041,-0.189 0.051,-0.156C0.061,-0.123 0.076,-0.095 0.096,-0.07C0.115,-0.045 0.14,-0.026 0.17,-0.011C0.199,0.004 0.234,0.011 0.274,0.011C0.31,0.011 0.343,0.005 0.373,-0.008C0.403,-0.021 0.425,-0.041 0.439,-0.07L0.441,-0.07L0.441,-0L0.526,-0Z" style="fill-rule:nonzero;"/>
                    </g>
                    <g transform="matrix(10,0,0,10,5.93,0)">
                        <path d="M0.423,-0.308L0.126,-0.308C0.127,-0.328 0.132,-0.347 0.139,-0.365C0.146,-0.382 0.156,-0.398 0.169,-0.411C0.182,-0.424 0.197,-0.435 0.215,-0.443C0.232,-0.45 0.252,-0.454 0.274,-0.454C0.295,-0.454 0.315,-0.45 0.333,-0.443C0.35,-0.435 0.366,-0.425 0.379,-0.412C0.392,-0.399 0.402,-0.383 0.41,-0.365C0.417,-0.347 0.422,-0.328 0.423,-0.308ZM0.505,-0.164L0.421,-0.164C0.414,-0.13 0.399,-0.105 0.376,-0.088C0.353,-0.071 0.323,-0.063 0.287,-0.063C0.259,-0.063 0.235,-0.068 0.214,-0.077C0.193,-0.086 0.176,-0.099 0.163,-0.115C0.15,-0.13 0.14,-0.148 0.134,-0.169C0.128,-0.189 0.125,-0.21 0.126,-0.233L0.513,-0.233C0.514,-0.264 0.511,-0.297 0.505,-0.332C0.498,-0.367 0.485,-0.399 0.467,-0.428C0.448,-0.457 0.424,-0.482 0.394,-0.501C0.363,-0.52 0.325,-0.529 0.279,-0.529C0.244,-0.529 0.211,-0.522 0.182,-0.509C0.152,-0.496 0.126,-0.477 0.105,-0.453C0.083,-0.429 0.066,-0.401 0.054,-0.368C0.042,-0.335 0.036,-0.299 0.036,-0.26C0.037,-0.221 0.043,-0.184 0.054,-0.151C0.064,-0.118 0.079,-0.089 0.1,-0.065C0.121,-0.041 0.146,-0.022 0.177,-0.009C0.207,0.004 0.243,0.011 0.284,0.011C0.343,0.011 0.391,-0.004 0.43,-0.033C0.469,-0.062 0.494,-0.106 0.505,-0.164Z" style="fill-rule:nonzero;"/>
                    </g>
                    <g transform="matrix(10,0,0,10,11.3,0)">
                        <path d="M0.203,-0.272L0.009,-0L0.112,-0L0.256,-0.214L0.4,-0L0.509,-0L0.309,-0.279L0.487,-0.517L0.385,-0.517L0.256,-0.336L0.132,-0.517L0.023,-0.517L0.203,-0.272Z" style="fill-rule:nonzero;"/>
                    </g>
                    <g transform="matrix(10,0,0,10,16.48,0)">
                        <path d="M0.173,-0.407L0.173,-0.634L0.363,-0.634C0.384,-0.634 0.403,-0.633 0.422,-0.631C0.44,-0.628 0.456,-0.623 0.47,-0.615C0.484,-0.607 0.495,-0.596 0.503,-0.581C0.511,-0.566 0.515,-0.546 0.515,-0.521C0.515,-0.483 0.503,-0.455 0.48,-0.436C0.456,-0.417 0.417,-0.407 0.363,-0.407L0.173,-0.407ZM0.078,-0.714L0.078,-0L0.423,-0C0.458,-0 0.49,-0.006 0.517,-0.018C0.544,-0.029 0.566,-0.045 0.585,-0.064C0.603,-0.083 0.617,-0.104 0.626,-0.129C0.635,-0.154 0.64,-0.179 0.64,-0.205C0.64,-0.249 0.628,-0.286 0.605,-0.317C0.582,-0.348 0.548,-0.368 0.504,-0.377L0.504,-0.379C0.538,-0.392 0.564,-0.413 0.583,-0.441C0.601,-0.468 0.61,-0.501 0.61,-0.539C0.61,-0.575 0.602,-0.605 0.586,-0.63C0.569,-0.655 0.549,-0.674 0.526,-0.688C0.515,-0.695 0.503,-0.7 0.488,-0.703C0.472,-0.706 0.456,-0.709 0.439,-0.711C0.422,-0.712 0.404,-0.713 0.387,-0.714C0.369,-0.714 0.352,-0.714 0.337,-0.714L0.078,-0.714ZM0.173,-0.08L0.173,-0.327L0.39,-0.327C0.41,-0.327 0.429,-0.325 0.448,-0.322C0.467,-0.318 0.483,-0.312 0.498,-0.303C0.512,-0.294 0.523,-0.281 0.532,-0.266C0.541,-0.251 0.545,-0.231 0.545,-0.208C0.545,-0.168 0.533,-0.137 0.51,-0.114C0.486,-0.091 0.453,-0.08 0.411,-0.08L0.173,-0.08Z" style="fill-rule:nonzero;"/>
                    </g>
                </g>
            </g>
            <g transform="matrix(17.4811,0,0,17.4811,3645.06,515.152)">
                <g>
                    <path d="M24.06,5L14.595,5L14.595,0L2.595,11L14.595,22L14.595,17L24.06,17L24.06,5Z" style="fill:rgb(243,207,198);fill-rule:nonzero;stroke:black;stroke-width:1px;"/>
                </g>
            </g>
            <g transform="matrix(12.361,-12.361,12.361,12.361,3818.58,420.857)">
                <g>
                    <g transform="matrix(10,0,0,10,0,0)">
                        <path d="M0.182,-0.517L0.182,-0.672L0.097,-0.672L0.097,-0.517L0.009,-0.517L0.009,-0.442L0.097,-0.442L0.097,-0.113C0.097,-0.089 0.099,-0.07 0.104,-0.055C0.109,-0.04 0.116,-0.029 0.126,-0.021C0.135,-0.013 0.148,-0.008 0.164,-0.005C0.179,-0.002 0.198,-0 0.22,-0L0.285,-0L0.285,-0.075L0.246,-0.075C0.233,-0.075 0.222,-0.076 0.214,-0.077C0.205,-0.078 0.199,-0.08 0.194,-0.083C0.189,-0.086 0.186,-0.091 0.185,-0.097C0.183,-0.103 0.182,-0.111 0.182,-0.121L0.182,-0.442L0.285,-0.442L0.285,-0.517L0.182,-0.517Z" style="fill-rule:nonzero;"/>
                    </g>
                    <g transform="matrix(10,0,0,10,3.15,0)">
                        <path d="M0.064,-0.517L0.064,-0L0.149,-0L0.149,-0.292C0.149,-0.315 0.152,-0.337 0.159,-0.357C0.165,-0.376 0.174,-0.393 0.187,-0.408C0.2,-0.423 0.216,-0.434 0.235,-0.442C0.254,-0.45 0.276,-0.454 0.302,-0.454C0.335,-0.454 0.36,-0.445 0.379,-0.426C0.398,-0.407 0.407,-0.382 0.407,-0.35L0.407,-0L0.492,-0L0.492,-0.34C0.492,-0.368 0.489,-0.393 0.484,-0.417C0.478,-0.44 0.468,-0.459 0.454,-0.476C0.44,-0.493 0.422,-0.506 0.399,-0.515C0.376,-0.524 0.348,-0.529 0.314,-0.529C0.237,-0.529 0.181,-0.498 0.146,-0.435L0.144,-0.435L0.144,-0.517L0.064,-0.517Z" style="fill-rule:nonzero;"/>
                    </g>
                    <g transform="matrix(10,0,0,10,8.71,0)">
                        <path d="M0.067,-0.517L0.067,0.197L0.152,0.197L0.152,-0.069L0.154,-0.069C0.163,-0.054 0.175,-0.041 0.189,-0.031C0.202,-0.02 0.217,-0.012 0.232,-0.006C0.247,0 0.263,0.004 0.279,0.007C0.294,0.01 0.308,0.011 0.321,0.011C0.36,0.011 0.395,0.004 0.425,-0.01C0.454,-0.024 0.479,-0.043 0.499,-0.068C0.518,-0.092 0.533,-0.12 0.543,-0.153C0.552,-0.186 0.557,-0.22 0.557,-0.257C0.557,-0.294 0.552,-0.328 0.542,-0.361C0.532,-0.394 0.517,-0.423 0.498,-0.448C0.478,-0.472 0.453,-0.492 0.424,-0.507C0.394,-0.522 0.359,-0.529 0.319,-0.529C0.283,-0.529 0.25,-0.523 0.22,-0.51C0.19,-0.497 0.168,-0.476 0.154,-0.447L0.152,-0.447L0.152,-0.517L0.067,-0.517ZM0.467,-0.263C0.467,-0.238 0.464,-0.213 0.459,-0.189C0.454,-0.165 0.445,-0.144 0.433,-0.125C0.421,-0.106 0.405,-0.091 0.386,-0.08C0.366,-0.069 0.341,-0.063 0.312,-0.063C0.283,-0.063 0.258,-0.069 0.237,-0.08C0.216,-0.091 0.2,-0.105 0.187,-0.123C0.173,-0.141 0.164,-0.162 0.158,-0.186C0.152,-0.209 0.149,-0.234 0.149,-0.259C0.149,-0.283 0.152,-0.307 0.158,-0.33C0.163,-0.353 0.172,-0.374 0.185,-0.393C0.198,-0.411 0.214,-0.426 0.234,-0.437C0.254,-0.448 0.278,-0.454 0.307,-0.454C0.334,-0.454 0.358,-0.449 0.379,-0.438C0.399,-0.427 0.416,-0.413 0.429,-0.395C0.442,-0.377 0.451,-0.357 0.458,-0.334C0.464,-0.311 0.467,-0.287 0.467,-0.263Z" style="fill-rule:nonzero;"/>
                    </g>
                </g>
            </g>
            <g transform="matrix(17.4811,0,0,17.4811,3645.06,515.152)">
                <g>
                    <path d="M26.79,5L39.495,5L39.495,0L51.495,11L39.495,22L39.495,17L26.79,17L26.79,5Z" style="fill:rgb(98,99,99);fill-rule:nonzero;stroke:black;stroke-width:1px;"/>
                </g>
            </g>
            <g transform="matrix(12.361,-12.361,12.361,12.361,4269.85,420.857)">
                <g>
                    <g transform="matrix(10,0,0,10,0,0)">
                        <path d="M0.067,-0.517L0.067,0.197L0.152,0.197L0.152,-0.069L0.154,-0.069C0.163,-0.054 0.175,-0.041 0.189,-0.031C0.202,-0.02 0.217,-0.012 0.232,-0.006C0.247,0 0.263,0.004 0.279,0.007C0.294,0.01 0.308,0.011 0.321,0.011C0.36,0.011 0.395,0.004 0.425,-0.01C0.454,-0.024 0.479,-0.043 0.499,-0.068C0.518,-0.092 0.533,-0.12 0.543,-0.153C0.552,-0.186 0.557,-0.22 0.557,-0.257C0.557,-0.294 0.552,-0.328 0.542,-0.361C0.532,-0.394 0.517,-0.423 0.498,-0.448C0.478,-0.472 0.453,-0.492 0.424,-0.507C0.394,-0.522 0.359,-0.529 0.319,-0.529C0.283,-0.529 0.25,-0.523 0.22,-0.51C0.19,-0.497 0.168,-0.476 0.154,-0.447L0.152,-0.447L0.152,-0.517L0.067,-0.517ZM0.467,-0.263C0.467,-0.238 0.464,-0.213 0.459,-0.189C0.454,-0.165 0.445,-0.144 0.433,-0.125C0.421,-0.106 0.405,-0.091 0.386,-0.08C0.366,-0.069 0.341,-0.063 0.312,-0.063C0.283,-0.063 0.258,-0.069 0.237,-0.08C0.216,-0.091 0.2,-0.105 0.187,-0.123C0.173,-0.141 0.164,-0.162 0.158,-0.186C0.152,-0.209 0.149,-0.234 0.149,-0.259C0.149,-0.283 0.152,-0.307 0.158,-0.33C0.163,-0.353 0.172,-0.374 0.185,-0.393C0.198,-0.411 0.214,-0.426 0.234,-0.437C0.254,-0.448 0.278,-0.454 0.307,-0.454C0.334,-0.454 0.358,-0.449 0.379,-0.438C0.399,-0.427 0.416,-0.413 0.429,-0.395C0.442,-0.377 0.451,-0.357 0.458,-0.334C0.464,-0.311 0.467,-0.287 0.467,-0.263Z" style="fill-rule:nonzero;"/>
                    </g>
                    <g transform="matrix(10,0,0,10,5.93,0)">
                        <path d="M0.116,-0.163L0.031,-0.163C0.032,-0.131 0.039,-0.104 0.051,-0.082C0.063,-0.059 0.079,-0.041 0.099,-0.028C0.119,-0.014 0.142,-0.004 0.168,0.002C0.194,0.008 0.221,0.011 0.25,0.011C0.276,0.011 0.302,0.008 0.329,0.004C0.355,-0.002 0.379,-0.01 0.4,-0.023C0.421,-0.036 0.438,-0.052 0.451,-0.073C0.464,-0.094 0.47,-0.12 0.47,-0.151C0.47,-0.176 0.465,-0.196 0.456,-0.213C0.446,-0.23 0.433,-0.244 0.418,-0.255C0.402,-0.266 0.384,-0.274 0.364,-0.281C0.343,-0.288 0.322,-0.293 0.301,-0.298C0.281,-0.303 0.261,-0.307 0.241,-0.312C0.221,-0.316 0.203,-0.321 0.187,-0.328C0.171,-0.334 0.158,-0.342 0.148,-0.352C0.137,-0.361 0.132,-0.373 0.132,-0.388C0.132,-0.401 0.135,-0.412 0.142,-0.421C0.149,-0.429 0.157,-0.436 0.168,-0.441C0.179,-0.446 0.191,-0.449 0.204,-0.451C0.217,-0.453 0.229,-0.454 0.242,-0.454C0.256,-0.454 0.27,-0.452 0.284,-0.45C0.297,-0.447 0.31,-0.442 0.321,-0.435C0.332,-0.428 0.342,-0.42 0.349,-0.409C0.356,-0.398 0.361,-0.384 0.362,-0.367L0.447,-0.367C0.445,-0.398 0.438,-0.425 0.427,-0.446C0.416,-0.467 0.401,-0.483 0.382,-0.496C0.363,-0.508 0.341,-0.517 0.316,-0.522C0.291,-0.527 0.264,-0.529 0.235,-0.529C0.212,-0.529 0.19,-0.526 0.167,-0.521C0.143,-0.515 0.123,-0.506 0.105,-0.495C0.086,-0.483 0.071,-0.468 0.06,-0.449C0.048,-0.43 0.042,-0.408 0.042,-0.382C0.042,-0.349 0.05,-0.323 0.067,-0.304C0.084,-0.285 0.105,-0.271 0.13,-0.261C0.155,-0.25 0.182,-0.242 0.211,-0.237C0.24,-0.231 0.268,-0.225 0.293,-0.218C0.318,-0.211 0.338,-0.201 0.355,-0.19C0.372,-0.179 0.38,-0.162 0.38,-0.14C0.38,-0.124 0.376,-0.111 0.368,-0.101C0.36,-0.09 0.35,-0.082 0.338,-0.077C0.325,-0.072 0.312,-0.068 0.297,-0.066C0.282,-0.064 0.268,-0.063 0.255,-0.063C0.238,-0.063 0.221,-0.065 0.205,-0.068C0.188,-0.071 0.173,-0.077 0.161,-0.085C0.148,-0.092 0.137,-0.102 0.129,-0.116C0.121,-0.129 0.117,-0.144 0.116,-0.163Z" style="fill-rule:nonzero;"/>
                    </g>
                    <g transform="matrix(10,0,0,10,10.93,0)">
                        <path d="M0.067,-0.517L0.067,0.197L0.152,0.197L0.152,-0.069L0.154,-0.069C0.163,-0.054 0.175,-0.041 0.189,-0.031C0.202,-0.02 0.217,-0.012 0.232,-0.006C0.247,0 0.263,0.004 0.279,0.007C0.294,0.01 0.308,0.011 0.321,0.011C0.36,0.011 0.395,0.004 0.425,-0.01C0.454,-0.024 0.479,-0.043 0.499,-0.068C0.518,-0.092 0.533,-0.12 0.543,-0.153C0.552,-0.186 0.557,-0.22 0.557,-0.257C0.557,-0.294 0.552,-0.328 0.542,-0.361C0.532,-0.394 0.517,-0.423 0.498,-0.448C0.478,-0.472 0.453,-0.492 0.424,-0.507C0.394,-0.522 0.359,-0.529 0.319,-0.529C0.283,-0.529 0.25,-0.523 0.22,-0.51C0.19,-0.497 0.168,-0.476 0.154,-0.447L0.152,-0.447L0.152,-0.517L0.067,-0.517ZM0.467,-0.263C0.467,-0.238 0.464,-0.213 0.459,-0.189C0.454,-0.165 0.445,-0.144 0.433,-0.125C0.421,-0.106 0.405,-0.091 0.386,-0.08C0.366,-0.069 0.341,-0.063 0.312,-0.063C0.283,-0.063 0.258,-0.069 0.237,-0.08C0.216,-0.091 0.2,-0.105 0.187,-0.123C0.173,-0.141 0.164,-0.162 0.158,-0.186C0.152,-0.209 0.149,-0.234 0.149,-0.259C0.149,-0.283 0.152,-0.307 0.158,-0.33C0.163,-0.353 0.172,-0.374 0.185,-0.393C0.198,-0.411 0.214,-0.426 0.234,-0.437C0.254,-0.448 0.278,-0.454 0.307,-0.454C0.334,-0.454 0.358,-0.449 0.379,-0.438C0.399,-0.427 0.416,-0.413 0.429,-0.395C0.442,-0.377 0.451,-0.357 0.458,-0.334C0.464,-0.311 0.467,-0.287 0.467,-0.263Z" style="fill-rule:nonzero;"/>
                    </g>
                    <g transform="matrix(10,0,0,10,16.86,0)">
                        <path d="M0.078,-0.714L0.078,-0L0.173,-0L0.173,-0.25L0.292,-0.361L0.55,-0L0.67,-0L0.357,-0.426L0.658,-0.714L0.535,-0.714L0.173,-0.358L0.173,-0.714L0.078,-0.714Z" style="fill-rule:nonzero;"/>
                    </g>
                </g>
            </g>
            <g transform="matrix(17.4811,0,0,17.4811,3645.06,515.152)">
                <g>
                    <path d="M55.635,5L63.945,5L63.945,0L75.945,11L63.945,22L63.945,17L55.635,17L55.635,5Z" style="fill-rule:nonzero;stroke:black;stroke-width:1px;"/>
                </g>
            </g>
            <g transform="matrix(12.361,-12.361,12.361,12.361,4735.68,420.857)">
                <g>
                    <g transform="matrix(10,0,0,10,0,0)">
                        <path d="M0.522,-0.002C0.507,0.007 0.487,0.011 0.461,0.011C0.439,0.011 0.422,0.005 0.409,-0.008C0.396,-0.02 0.389,-0.04 0.389,-0.068C0.366,-0.04 0.338,-0.02 0.308,-0.008C0.277,0.005 0.243,0.011 0.207,0.011C0.184,0.011 0.162,0.008 0.141,0.003C0.12,-0.002 0.101,-0.011 0.086,-0.022C0.071,-0.033 0.058,-0.048 0.05,-0.067C0.041,-0.085 0.036,-0.107 0.036,-0.133C0.036,-0.162 0.041,-0.186 0.051,-0.205C0.061,-0.224 0.074,-0.239 0.091,-0.251C0.107,-0.262 0.126,-0.271 0.147,-0.277C0.167,-0.283 0.189,-0.288 0.211,-0.292C0.234,-0.297 0.257,-0.3 0.278,-0.303C0.299,-0.305 0.317,-0.308 0.333,-0.313C0.349,-0.317 0.362,-0.323 0.371,-0.332C0.38,-0.34 0.385,-0.352 0.385,-0.368C0.385,-0.387 0.382,-0.402 0.375,-0.413C0.368,-0.424 0.359,-0.433 0.348,-0.439C0.337,-0.445 0.324,-0.449 0.311,-0.451C0.297,-0.453 0.283,-0.454 0.27,-0.454C0.234,-0.454 0.204,-0.447 0.18,-0.434C0.156,-0.42 0.143,-0.394 0.141,-0.356L0.056,-0.356C0.057,-0.388 0.064,-0.415 0.076,-0.437C0.088,-0.459 0.104,-0.477 0.124,-0.491C0.144,-0.504 0.167,-0.514 0.193,-0.52C0.218,-0.526 0.246,-0.529 0.275,-0.529C0.298,-0.529 0.322,-0.527 0.345,-0.524C0.368,-0.521 0.388,-0.514 0.407,-0.504C0.426,-0.493 0.441,-0.479 0.452,-0.46C0.463,-0.441 0.469,-0.417 0.469,-0.387L0.469,-0.121C0.469,-0.101 0.47,-0.086 0.473,-0.077C0.475,-0.068 0.483,-0.063 0.496,-0.063C0.503,-0.063 0.512,-0.065 0.522,-0.068L0.522,-0.002ZM0.384,-0.267C0.373,-0.259 0.359,-0.253 0.342,-0.25C0.325,-0.246 0.307,-0.243 0.288,-0.241C0.269,-0.238 0.249,-0.236 0.23,-0.233C0.211,-0.23 0.193,-0.225 0.178,-0.218C0.163,-0.211 0.15,-0.202 0.141,-0.19C0.131,-0.177 0.126,-0.16 0.126,-0.139C0.126,-0.125 0.129,-0.113 0.135,-0.104C0.14,-0.094 0.148,-0.086 0.157,-0.08C0.166,-0.074 0.176,-0.07 0.188,-0.067C0.2,-0.064 0.213,-0.063 0.226,-0.063C0.254,-0.063 0.278,-0.067 0.298,-0.075C0.318,-0.082 0.334,-0.092 0.347,-0.104C0.36,-0.115 0.369,-0.128 0.375,-0.142C0.381,-0.155 0.384,-0.168 0.384,-0.18L0.384,-0.267Z" style="fill-rule:nonzero;"/>
                    </g>
                    <g transform="matrix(10,0,0,10,5.37,0)">
                        <rect x="0.069" y="-0.714" width="0.085" height="0.714" style="fill-rule:nonzero;"/>
                    </g>
                    <g transform="matrix(10,0,0,10,7.59,0)">
                        <path d="M0.154,-0.61L0.154,-0.714L0.069,-0.714L0.069,-0.61L0.154,-0.61ZM0.069,-0.517L0.069,-0L0.154,-0L0.154,-0.517L0.069,-0.517Z" style="fill-rule:nonzero;"/>
                    </g>
                    <g transform="matrix(10,0,0,10,9.81,0)">
                        <path d="M0.201,-0.295L0.322,-0.628L0.324,-0.628L0.443,-0.295L0.201,-0.295ZM0.272,-0.714L-0.006,-0L0.091,-0L0.171,-0.215L0.473,-0.215L0.551,-0L0.656,-0L0.377,-0.714L0.272,-0.714Z" style="fill-rule:nonzero;"/>
                    </g>
                </g>
            </g>
        </g>
    </g>
</svg>
