<svg id="Micro" xmlns="http://www.w3.org/2000/svg" viewBox="0 0 374.25 85.86"><defs><style>.cls-1{isolation:isolate;}.cls-2{fill:#3d7484;}.cls-3{fill:#9bb7bf;}.cls-4{fill:#673b8e;}.cls-5{fill:#a489bb;}</style></defs><title>SAIRA LOGOS SEP 2018</title><g class="cls-1"><g class="cls-1"><path class="cls-2" d="M138.87,61.92V24.61h-.25l-14,37.31h-3.33L107.45,24.61h-.26V61.92h-3.58v-44h5.25l14.08,37.83h.32L137.4,17.89h5.19v44Z"/><path class="cls-2" d="M153.47,19.17v-4.8h4v4.8Zm.19,42.75V29.28h3.58V61.92Z"/><path class="cls-2" d="M182.11,62.21a39.86,39.86,0,0,1-4.13.23q-5.25,0-7.72-1.67a7.72,7.72,0,0,1-3.19-5,50.15,50.15,0,0,1-.74-10.08,45.46,45.46,0,0,1,.89-10.37,7.84,7.84,0,0,1,3.33-5q2.43-1.52,7.23-1.51a39,39,0,0,1,4.07.23,29.3,29.3,0,0,1,3.49.54v3.07a34.57,34.57,0,0,0-6.79-.7A11.13,11.13,0,0,0,172.92,33a5.64,5.64,0,0,0-2.4,3.84,44,44,0,0,0-.61,8.7,46,46,0,0,0,.61,8.93,5.48,5.48,0,0,0,2.4,3.81,12.17,12.17,0,0,0,5.76,1,31.83,31.83,0,0,0,3.62-.22,27,27,0,0,0,3.29-.55V61.6A20.62,20.62,0,0,1,182.11,62.21Z"/><path class="cls-2" d="M193.53,29.28h3.07l.26,6.47h.25q1-4,3.43-5.47A12.12,12.12,0,0,1,207,28.77v3.65a10.46,10.46,0,0,0-6.05,1.5,7.79,7.79,0,0,0-3,4.42,28.39,28.39,0,0,0-.84,7.65V61.92h-3.58Z"/><path class="cls-2" d="M216.06,61.12a6.3,6.3,0,0,1-3.27-4.6,58.39,58.39,0,0,1-.7-10.85,58.71,58.71,0,0,1,.7-10.91,6.39,6.39,0,0,1,3.27-4.64c1.7-.9,4.52-1.35,8.44-1.35s6.8.45,8.48,1.35a6.5,6.5,0,0,1,3.27,4.64A56.35,56.35,0,0,1,237,45.67a56.05,56.05,0,0,1-.73,10.85,6.4,6.4,0,0,1-3.27,4.6q-2.52,1.32-8.48,1.32C220.58,62.44,217.76,62,216.06,61.12Zm14.72-2.78a4.47,4.47,0,0,0,2.2-3.49,66,66,0,0,0,.42-9.18,67,67,0,0,0-.42-9.22,4.6,4.6,0,0,0-2.2-3.55q-1.8-1-6.28-1t-6.24,1a4.61,4.61,0,0,0-2.17,3.52,66.88,66.88,0,0,0-.42,9.25,66,66,0,0,0,.42,9.18,4.52,4.52,0,0,0,2.17,3.49q1.77,1,6.24,1T230.78,58.34Z"/><path class="cls-2" d="M245.3,29.28h5.64l.25,5.89h.45a8,8,0,0,1,3.36-5,12.09,12.09,0,0,1,6.18-1.38V35a11.42,11.42,0,0,0-5.89,1.28,6.78,6.78,0,0,0-2.95,3.94,25.37,25.37,0,0,0-.83,7.26V61.92H245.3Z"/><path class="cls-2" d="M290.55,47.65H271.74a28.73,28.73,0,0,0,.48,6.34,3.56,3.56,0,0,0,2.24,2.56,17.51,17.51,0,0,0,5.92.7,83.28,83.28,0,0,0,9.08-.64v4.87a32.53,32.53,0,0,1-4.73.7c-2,.17-3.86.26-5.7.26-4,0-7-.53-8.93-1.57a7.61,7.61,0,0,1-3.74-5,43.06,43.06,0,0,1-.9-10.24,45.79,45.79,0,0,1,.84-10.15,7.8,7.8,0,0,1,3.58-5.08q2.75-1.67,8.64-1.67c3.8,0,6.54.55,8.22,1.63a7.19,7.19,0,0,1,3.17,4.93,58.92,58.92,0,0,1,.64,10.27ZM274,34.66a3.67,3.67,0,0,0-1.76,2.56,30.65,30.65,0,0,0-.51,6.08h12.8V43A24.63,24.63,0,0,0,284,37a3.59,3.59,0,0,0-1.76-2.47,9.39,9.39,0,0,0-3.87-.6A9.87,9.87,0,0,0,274,34.66Z"/><path class="cls-2" d="M298.71,60.26q-2.2-2.17-2.21-7.42a16.46,16.46,0,0,1,.84-5.89,5.51,5.51,0,0,1,2.81-3.07,13.06,13.06,0,0,1,5.57-1c2.18,0,5.31.08,9.41.25V41.44a15.23,15.23,0,0,0-.58-5,3.09,3.09,0,0,0-2.17-1.92A22.33,22.33,0,0,0,307,34c-1.2,0-2.69.06-4.48.19s-3.18.28-4.16.45v-5a57.8,57.8,0,0,1,10.62-.9c3.55,0,6.19.41,7.94,1.22a6.38,6.38,0,0,1,3.52,3.87,25.3,25.3,0,0,1,.9,7.71V61.92H315.7l-.25-4.22h-.39a6.59,6.59,0,0,1-3.68,3.78,15.69,15.69,0,0,1-5.72,1Q300.92,62.44,298.71,60.26Zm13.22-3.52a4,4,0,0,0,2.17-1.92,13.75,13.75,0,0,0,1-6V47.27h-7.87a9.3,9.3,0,0,0-2.95.35A2.19,2.19,0,0,0,303,49a10.18,10.18,0,0,0-.39,3.29,8.78,8.78,0,0,0,.42,3.14,2.44,2.44,0,0,0,1.6,1.41,13.17,13.17,0,0,0,3.68.38A10.93,10.93,0,0,0,311.93,56.74Z"/><path class="cls-2" d="M345.43,62.18a38.71,38.71,0,0,1-4.32.26c-3.63,0-6.3-.58-8-1.73a7.86,7.86,0,0,1-3.33-5.12,50.73,50.73,0,0,1-.73-10,43.71,43.71,0,0,1,.86-10,8.32,8.32,0,0,1,3.42-5.18q2.56-1.7,7.68-1.7a37.92,37.92,0,0,1,4.29.26,26.72,26.72,0,0,1,3.71.64V34.6a35.76,35.76,0,0,0-6.46-.58,9.62,9.62,0,0,0-4.77.9,4.57,4.57,0,0,0-2,3.23,41,41,0,0,0-.48,7.45,39.8,39.8,0,0,0,.51,7.56,4.49,4.49,0,0,0,2,3.2,10.53,10.53,0,0,0,4.83.83,35.91,35.91,0,0,0,6.59-.58v4.93A29.07,29.07,0,0,1,345.43,62.18Z"/><path class="cls-2" d="M358.71,61.92V34.53h-5.57V29.28h5.57V19.81h6.21v9.47h6.59v5.25h-6.59V61.92Z"/></g></g><path class="cls-2" d="M60.29,0H60A11.09,11.09,0,0,0,49.2,11.34v0h0a22,22,0,0,1-2.71,11.09A22.35,22.35,0,0,1,44,26.13a22.1,22.1,0,0,1-12.08,7.35A22.31,22.31,0,0,1,27,34a21.78,21.78,0,0,1-3.85-.34,22.31,22.31,0,0,1-6.75-2.37h0A11,11,0,0,0,11.1,30a11.09,11.09,0,1,0,5.41,20.76l.36-.23h0l.38-.22a22.17,22.17,0,0,1,11.14-3,22.93,22.93,0,0,1,3.88.34,22,22,0,0,1,5.94,1.94h0c.56.27,1.12.58,1.66.9h0a21.95,21.95,0,0,1,7.43,7.42,21.78,21.78,0,0,1,1.93,4,22.07,22.07,0,0,1,1.29,6.46c0,.17,0,.34,0,.52a5.42,5.42,0,0,1,0,.57A11.09,11.09,0,1,0,67,58.94l-.1,0h0a22.16,22.16,0,0,1-8.73-30,22.72,22.72,0,0,1,2.47-3.63A21.88,21.88,0,0,1,66,20.6h0A11.09,11.09,0,0,0,60.29,0"/><path class="cls-3" d="M27.06.77a11.1,11.1,0,1,0,5.3,1.36A11.08,11.08,0,0,0,27.06.77"/><path class="cls-4" d="M77.62,28.4a11.09,11.09,0,1,0,5.31,1.36,11.1,11.1,0,0,0-5.31-1.36"/><path class="cls-5" d="M28.42,58.31a11.09,11.09,0,1,0,9.48,5.32,11.07,11.07,0,0,0-9.48-5.32"/><path class="cls-2" d="M11.13,30a11.09,11.09,0,1,0,9.48,5.32A11,11,0,0,0,11.13,30"/><path class="cls-2" d="M61.64,57.59a11.09,11.09,0,1,0,9.47,5.32,11,11,0,0,0-9.47-5.32"/><path class="cls-2" d="M60.31,0a11.09,11.09,0,0,0,0,22.18A11.09,11.09,0,0,0,60.31,0"/></svg>