<?xml version="1.0" encoding="UTF-8" standalone="no"?>
<!DOCTYPE svg PUBLIC "-//W3C//DTD SVG 1.1//EN" "http://www.w3.org/Graphics/SVG/1.1/DTD/svg11.dtd">
<svg width="100%" height="100%" viewBox="0 0 1714 739" version="1.1" xmlns="http://www.w3.org/2000/svg" xmlns:xlink="http://www.w3.org/1999/xlink" xml:space="preserve" xmlns:serif="http://www.serif.com/" style="fill-rule:evenodd;clip-rule:evenodd;">
    <g transform="matrix(1,0,0,1,-3234.97,-35.9076)">
        <g transform="matrix(14.569,0,0,14.569,3318.83,423.756)">
            <g transform="matrix(1,0,0,1,0.895,0)">
                <path d="M-0.015,11L103.485,11" style="fill:none;fill-rule:nonzero;stroke:rgb(17,17,17);stroke-width:1px;"/>
            </g>
        </g>
        <g transform="matrix(14.569,0,0,14.569,3318.83,423.756)">
            <g transform="matrix(1,0,0,1,0.895,0)">
                <path d="M0.015,22L0.015,0L3.075,11L0.015,22Z" style="fill-rule:nonzero;stroke:black;stroke-width:1px;"/>
            </g>
        </g>
        <g transform="matrix(14.569,0,0,14.569,3318.83,423.756)">
            <g transform="matrix(0.707107,-0.707107,0.707107,0.707107,-0.961612,-5.39411)">
                <text x="0px" y="0px" style="font-family:'HelveticaNeue', 'Helvetica Neue';font-size:10px;">dexB</text>
            </g>
        </g>
        <g transform="matrix(14.569,0,0,14.569,3318.83,423.756)">
            <g transform="matrix(1,0,0,1,0.895,0)">
                <path d="M7.2,5L24.72,5L24.72,0L36.72,11L24.72,22L24.72,17L7.2,17L7.2,5Z" style="fill:rgb(187,187,187);fill-rule:nonzero;stroke:black;stroke-width:1px;"/>
            </g>
        </g>
        <g transform="matrix(14.569,0,0,14.569,3318.83,423.756)">
            <g transform="matrix(0.707107,-0.707107,0.707107,0.707107,19.4534,-5.39411)">
                <g transform="matrix(10,0,0,10,17.03,0)">
                </g>
                <text x="0px" y="0px" style="font-family:'HelveticaNeue', 'Helvetica Neue';font-size:10px;">aliC</text>
            </g>
        </g>
        <g transform="matrix(14.569,0,0,14.569,3318.83,423.756)">
            <g transform="matrix(1,0,0,1,0.895,0)">
                <path d="M39.765,5L57.15,5L57.15,0L69.15,11L57.15,22L57.15,17L39.765,17L39.765,5Z" style="fill:rgb(187,187,187);fill-rule:nonzero;stroke:black;stroke-width:1px;"/>
            </g>
        </g>
        <g transform="matrix(14.569,0,0,14.569,3318.83,423.756)">
            <g transform="matrix(0.707107,-0.707107,0.707107,0.707107,51.9509,-5.39411)">
                <g transform="matrix(10,0,0,10,16.85,0)">
                </g>
                <text x="0px" y="0px" style="font-family:'HelveticaNeue', 'Helvetica Neue';font-size:10px;">aliD</text>
            </g>
        </g>
        <g transform="matrix(14.569,0,0,14.569,3318.83,423.756)">
            <g transform="matrix(1,0,0,1,0.895,0)">
                <path d="M73.98,5L75.75,5L75.75,0L87.75,11L75.75,22L75.75,17L73.98,17L73.98,5Z" style="fill:rgb(187,187,187);fill-rule:nonzero;stroke:black;stroke-width:1px;"/>
            </g>
        </g>
        <g transform="matrix(14.569,0,0,14.569,3318.83,423.756)">
            <g transform="matrix(0.707107,-0.707107,0.707107,0.707107,78.3584,-5.39411)">
                <text x="0px" y="0px" style="font-family:'HelveticaNeue', 'Helvetica Neue';font-size:10px;">glf</text>
            </g>
        </g>
        <g transform="matrix(14.569,0,0,14.569,3318.83,423.756)">
            <g transform="matrix(1,0,0,1,0.895,0)">
                <path d="M94.995,22L94.995,0L89.415,11L94.995,22Z" style="fill:rgb(187,187,187);fill-rule:nonzero;stroke:black;stroke-width:1px;"/>
            </g>
        </g>
        <g transform="matrix(14.569,0,0,14.569,3318.83,423.756)">
            <g transform="matrix(0.707107,-0.707107,0.707107,0.707107,89.6984,-5.39411)">
                <text x="0px" y="0px" style="font-family:'HelveticaNeue', 'Helvetica Neue';font-size:10px;">ntaB</text>
            </g>
        </g>
        <g transform="matrix(14.569,0,0,14.569,3318.83,423.756)">
            <g transform="matrix(1,0,0,1,0.895,0)">
                <path d="M98.895,22L98.895,0L94.935,11L98.895,22Z" style="fill:rgb(187,187,187);fill-rule:nonzero;stroke:black;stroke-width:1px;"/>
            </g>
        </g>
        <g transform="matrix(14.569,0,0,14.569,3318.83,423.756)">
            <g transform="matrix(1,0,0,1,0.895,0)">
                <path d="M102.075,22L102.075,0L103.485,11L102.075,22Z" style="fill-rule:nonzero;stroke:black;stroke-width:1px;"/>
            </g>
        </g>
        <g transform="matrix(14.569,0,0,14.569,3318.83,423.756)">
            <g transform="matrix(0.707107,-0.707107,0.707107,0.707107,100.273,-5.39411)">
                <text x="0px" y="0px" style="font-family:'HelveticaNeue', 'Helvetica Neue';font-size:10px;">aliA</text>
            </g>
        </g>
    </g>
</svg>
