<?xml version="1.0" encoding="UTF-8" standalone="no"?>
<!DOCTYPE svg PUBLIC "-//W3C//DTD SVG 1.1//EN" "http://www.w3.org/Graphics/SVG/1.1/DTD/svg11.dtd">
<svg width="100%" height="100%" viewBox="0 0 954 225" version="1.1" xmlns="http://www.w3.org/2000/svg" xmlns:xlink="http://www.w3.org/1999/xlink" xml:space="preserve" xmlns:serif="http://www.serif.com/" style="fill-rule:evenodd;clip-rule:evenodd;">
    <path d="M8.59,170.427L938.027,170.427" style="fill:none;fill-rule:nonzero;stroke:rgb(17,17,17);stroke-width:4.17px;"/>
    <path d="M8.59,145.427L48.965,145.427L48.965,124.593L98.965,170.427L48.965,216.26L48.965,195.427L8.59,195.427L8.59,145.427Z" style="fill:rgb(0,0,255);fill-rule:nonzero;stroke:black;stroke-width:4.17px;"/>
    <g transform="matrix(0.707107,-0.707107,0.707107,0.707107,39.604,102.118)">
        <g transform="matrix(41.667,0,0,41.667,0,0)">
            <path d="M0.576,-0L0.741,-0.517L0.653,-0.517L0.537,-0.094L0.535,-0.094L0.427,-0.517L0.334,-0.517L0.23,-0.094L0.228,-0.094L0.111,-0.517L0.017,-0.517L0.183,-0L0.275,-0L0.379,-0.411L0.381,-0.411L0.486,-0L0.576,-0Z" style="fill-rule:nonzero;"/>
        </g>
        <g transform="matrix(41.667,0,0,41.667,31.5836,0)">
            <path d="M0.022,-0.065L0.022,-0L0.458,-0L0.458,-0.075L0.128,-0.075L0.444,-0.459L0.444,-0.517L0.042,-0.517L0.042,-0.442L0.334,-0.442L0.022,-0.065Z" style="fill-rule:nonzero;"/>
        </g>
        <g transform="matrix(41.667,0,0,41.667,51.5837,0)">
            <path d="M0.51,-0.044L0.51,-0.517L0.43,-0.517L0.43,-0.443L0.429,-0.443C0.414,-0.472 0.392,-0.493 0.365,-0.508C0.338,-0.522 0.308,-0.529 0.275,-0.529C0.23,-0.529 0.193,-0.521 0.162,-0.504C0.131,-0.487 0.107,-0.465 0.088,-0.439C0.069,-0.412 0.056,-0.383 0.048,-0.351C0.04,-0.318 0.036,-0.287 0.036,-0.256C0.036,-0.221 0.041,-0.187 0.051,-0.156C0.06,-0.124 0.075,-0.096 0.094,-0.073C0.113,-0.049 0.137,-0.03 0.166,-0.016C0.195,-0.002 0.228,0.005 0.267,0.005C0.3,0.005 0.332,-0.003 0.362,-0.018C0.391,-0.033 0.413,-0.056 0.428,-0.088L0.43,-0.088L0.43,-0.054C0.43,-0.025 0.427,0.001 0.422,0.025C0.416,0.049 0.407,0.07 0.394,0.087C0.381,0.103 0.365,0.117 0.346,0.127C0.327,0.136 0.303,0.141 0.275,0.141C0.261,0.141 0.246,0.14 0.231,0.137C0.216,0.134 0.202,0.129 0.189,0.122C0.175,0.115 0.165,0.107 0.156,0.096C0.147,0.085 0.142,0.072 0.141,0.057L0.056,0.057C0.057,0.085 0.065,0.109 0.078,0.128C0.091,0.147 0.108,0.163 0.129,0.175C0.149,0.187 0.171,0.196 0.197,0.201C0.222,0.206 0.246,0.209 0.27,0.209C0.353,0.209 0.413,0.188 0.452,0.146C0.491,0.104 0.51,0.041 0.51,-0.044ZM0.272,-0.069C0.244,-0.069 0.221,-0.075 0.202,-0.087C0.183,-0.098 0.168,-0.114 0.157,-0.133C0.146,-0.152 0.138,-0.173 0.133,-0.196C0.128,-0.219 0.126,-0.243 0.126,-0.266C0.126,-0.291 0.129,-0.314 0.135,-0.337C0.14,-0.36 0.149,-0.38 0.162,-0.397C0.174,-0.414 0.19,-0.428 0.209,-0.439C0.228,-0.449 0.252,-0.454 0.279,-0.454C0.306,-0.454 0.328,-0.449 0.347,-0.438C0.366,-0.427 0.381,-0.413 0.393,-0.396C0.404,-0.378 0.413,-0.358 0.418,-0.336C0.423,-0.314 0.426,-0.292 0.426,-0.269C0.426,-0.245 0.423,-0.221 0.418,-0.197C0.412,-0.173 0.403,-0.152 0.391,-0.133C0.379,-0.114 0.363,-0.098 0.344,-0.087C0.324,-0.075 0.3,-0.069 0.272,-0.069Z" style="fill-rule:nonzero;"/>
        </g>
    </g>
    <path d="M99.027,216.26L99.027,124.593L144.777,170.427L99.027,216.26Z" style="fill:rgb(0,0,255);fill-rule:nonzero;stroke:black;stroke-width:4.17px;"/>
    <g transform="matrix(0.707107,-0.707107,0.707107,0.707107,107.729,102.118)">
        <g transform="matrix(41.667,0,0,41.667,0,0)">
            <path d="M0.576,-0L0.741,-0.517L0.653,-0.517L0.537,-0.094L0.535,-0.094L0.427,-0.517L0.334,-0.517L0.23,-0.094L0.228,-0.094L0.111,-0.517L0.017,-0.517L0.183,-0L0.275,-0L0.379,-0.411L0.381,-0.411L0.486,-0L0.576,-0Z" style="fill-rule:nonzero;"/>
        </g>
        <g transform="matrix(41.667,0,0,41.667,31.5836,0)">
            <path d="M0.022,-0.065L0.022,-0L0.458,-0L0.458,-0.075L0.128,-0.075L0.444,-0.459L0.444,-0.517L0.042,-0.517L0.042,-0.442L0.334,-0.442L0.022,-0.065Z" style="fill-rule:nonzero;"/>
        </g>
        <g transform="matrix(41.667,0,0,41.667,51.5837,0)">
            <path d="M0.064,-0.714L0.064,-0L0.149,-0L0.149,-0.292C0.149,-0.315 0.152,-0.337 0.159,-0.357C0.165,-0.376 0.174,-0.393 0.187,-0.408C0.2,-0.423 0.216,-0.434 0.235,-0.442C0.254,-0.45 0.276,-0.454 0.302,-0.454C0.335,-0.454 0.36,-0.445 0.379,-0.426C0.398,-0.407 0.407,-0.382 0.407,-0.35L0.407,-0L0.492,-0L0.492,-0.34C0.492,-0.368 0.489,-0.393 0.484,-0.417C0.478,-0.44 0.468,-0.459 0.454,-0.476C0.44,-0.493 0.422,-0.506 0.399,-0.515C0.376,-0.524 0.348,-0.529 0.314,-0.529C0.299,-0.529 0.283,-0.527 0.267,-0.524C0.25,-0.521 0.235,-0.516 0.22,-0.509C0.205,-0.502 0.191,-0.493 0.179,-0.482C0.167,-0.47 0.158,-0.457 0.151,-0.441L0.149,-0.441L0.149,-0.714L0.064,-0.714Z" style="fill-rule:nonzero;"/>
        </g>
    </g>
    <path d="M145.277,216.26L145.277,124.593L188.59,170.427L145.277,216.26Z" style="fill:rgb(0,0,255);fill-rule:nonzero;stroke:black;stroke-width:4.17px;"/>
    <g transform="matrix(0.707107,-0.707107,0.707107,0.707107,152.76,102.118)">
        <g transform="matrix(41.667,0,0,41.667,0,0)">
            <path d="M0.576,-0L0.741,-0.517L0.653,-0.517L0.537,-0.094L0.535,-0.094L0.427,-0.517L0.334,-0.517L0.23,-0.094L0.228,-0.094L0.111,-0.517L0.017,-0.517L0.183,-0L0.275,-0L0.379,-0.411L0.381,-0.411L0.486,-0L0.576,-0Z" style="fill-rule:nonzero;"/>
        </g>
        <g transform="matrix(41.667,0,0,41.667,31.5836,0)">
            <path d="M0.022,-0.065L0.022,-0L0.458,-0L0.458,-0.075L0.128,-0.075L0.444,-0.459L0.444,-0.517L0.042,-0.517L0.042,-0.442L0.334,-0.442L0.022,-0.065Z" style="fill-rule:nonzero;"/>
        </g>
        <g transform="matrix(41.667,0,0,41.667,51.5837,0)">
            <path d="M0.126,-0.254C0.126,-0.279 0.129,-0.304 0.134,-0.328C0.139,-0.352 0.148,-0.373 0.16,-0.392C0.172,-0.411 0.188,-0.426 0.208,-0.437C0.228,-0.448 0.252,-0.454 0.281,-0.454C0.31,-0.454 0.335,-0.448 0.356,-0.438C0.377,-0.427 0.394,-0.412 0.407,-0.394C0.42,-0.376 0.429,-0.355 0.435,-0.332C0.441,-0.308 0.444,-0.283 0.444,-0.258C0.444,-0.234 0.441,-0.21 0.436,-0.187C0.43,-0.164 0.421,-0.143 0.408,-0.125C0.395,-0.106 0.379,-0.091 0.359,-0.08C0.339,-0.069 0.315,-0.063 0.286,-0.063C0.259,-0.063 0.235,-0.068 0.215,-0.079C0.194,-0.09 0.178,-0.104 0.165,-0.122C0.152,-0.14 0.142,-0.161 0.136,-0.184C0.129,-0.206 0.126,-0.23 0.126,-0.254ZM0.526,-0L0.526,-0.714L0.441,-0.714L0.441,-0.448L0.439,-0.448C0.43,-0.463 0.418,-0.476 0.405,-0.487C0.391,-0.497 0.376,-0.505 0.361,-0.512C0.346,-0.518 0.33,-0.522 0.315,-0.525C0.3,-0.528 0.285,-0.529 0.272,-0.529C0.233,-0.529 0.198,-0.522 0.169,-0.508C0.139,-0.493 0.114,-0.474 0.095,-0.45C0.075,-0.425 0.06,-0.397 0.051,-0.364C0.041,-0.331 0.036,-0.297 0.036,-0.26C0.036,-0.223 0.041,-0.189 0.051,-0.156C0.061,-0.123 0.076,-0.095 0.096,-0.07C0.115,-0.045 0.14,-0.026 0.17,-0.011C0.199,0.004 0.234,0.011 0.274,0.011C0.31,0.011 0.343,0.005 0.373,-0.008C0.403,-0.021 0.425,-0.041 0.439,-0.07L0.441,-0.07L0.441,-0L0.526,-0Z" style="fill-rule:nonzero;"/>
        </g>
    </g>
    <path d="M189.152,216.26L189.152,124.593L231.715,170.427L189.152,216.26Z" style="fill:rgb(0,0,255);fill-rule:nonzero;stroke:black;stroke-width:4.17px;"/>
    <g transform="matrix(0.707107,-0.707107,0.707107,0.707107,196.26,102.119)">
        <g transform="matrix(41.667,0,0,41.667,0,0)">
            <path d="M0.576,-0L0.741,-0.517L0.653,-0.517L0.537,-0.094L0.535,-0.094L0.427,-0.517L0.334,-0.517L0.23,-0.094L0.228,-0.094L0.111,-0.517L0.017,-0.517L0.183,-0L0.275,-0L0.379,-0.411L0.381,-0.411L0.486,-0L0.576,-0Z" style="fill-rule:nonzero;"/>
        </g>
        <g transform="matrix(41.667,0,0,41.667,31.5836,0)">
            <path d="M0.022,-0.065L0.022,-0L0.458,-0L0.458,-0.075L0.128,-0.075L0.444,-0.459L0.444,-0.517L0.042,-0.517L0.042,-0.442L0.334,-0.442L0.022,-0.065Z" style="fill-rule:nonzero;"/>
        </g>
        <g transform="matrix(41.667,0,0,41.667,51.5837,0)">
            <path d="M0.423,-0.308L0.126,-0.308C0.127,-0.328 0.132,-0.347 0.139,-0.365C0.146,-0.382 0.156,-0.398 0.169,-0.411C0.182,-0.424 0.197,-0.435 0.215,-0.443C0.232,-0.45 0.252,-0.454 0.274,-0.454C0.295,-0.454 0.315,-0.45 0.333,-0.443C0.35,-0.435 0.366,-0.425 0.379,-0.412C0.392,-0.399 0.402,-0.383 0.41,-0.365C0.417,-0.347 0.422,-0.328 0.423,-0.308ZM0.505,-0.164L0.421,-0.164C0.414,-0.13 0.399,-0.105 0.376,-0.088C0.353,-0.071 0.323,-0.063 0.287,-0.063C0.259,-0.063 0.235,-0.068 0.214,-0.077C0.193,-0.086 0.176,-0.099 0.163,-0.115C0.15,-0.13 0.14,-0.148 0.134,-0.169C0.128,-0.189 0.125,-0.21 0.126,-0.233L0.513,-0.233C0.514,-0.264 0.511,-0.297 0.505,-0.332C0.498,-0.367 0.485,-0.399 0.467,-0.428C0.448,-0.457 0.424,-0.482 0.394,-0.501C0.363,-0.52 0.325,-0.529 0.279,-0.529C0.244,-0.529 0.211,-0.522 0.182,-0.509C0.152,-0.496 0.126,-0.477 0.105,-0.453C0.083,-0.429 0.066,-0.401 0.054,-0.368C0.042,-0.335 0.036,-0.299 0.036,-0.26C0.037,-0.221 0.043,-0.184 0.054,-0.151C0.064,-0.118 0.079,-0.089 0.1,-0.065C0.121,-0.041 0.146,-0.022 0.177,-0.009C0.207,0.004 0.243,0.011 0.284,0.011C0.343,0.011 0.391,-0.004 0.43,-0.033C0.469,-0.062 0.494,-0.106 0.505,-0.164Z" style="fill-rule:nonzero;"/>
        </g>
    </g>
    <path d="M232.59,145.427L268.09,145.427L268.09,124.593L318.09,170.427L268.09,216.26L268.09,195.427L232.59,195.427L232.59,145.427Z" style="fill:rgb(128,0,128);fill-rule:nonzero;stroke:black;stroke-width:4.17px;"/>
    <g transform="matrix(0.707107,-0.707107,0.707107,0.707107,261.166,102.118)">
        <g transform="matrix(41.667,0,0,41.667,0,0)">
            <path d="M0.576,-0L0.741,-0.517L0.653,-0.517L0.537,-0.094L0.535,-0.094L0.427,-0.517L0.334,-0.517L0.23,-0.094L0.228,-0.094L0.111,-0.517L0.017,-0.517L0.183,-0L0.275,-0L0.379,-0.411L0.381,-0.411L0.486,-0L0.576,-0Z" style="fill-rule:nonzero;"/>
        </g>
        <g transform="matrix(41.667,0,0,41.667,31.5836,0)">
            <path d="M0.415,-0.351L0.503,-0.351C0.5,-0.382 0.492,-0.408 0.479,-0.431C0.466,-0.453 0.45,-0.471 0.431,-0.486C0.411,-0.501 0.388,-0.511 0.363,-0.519C0.337,-0.526 0.309,-0.529 0.28,-0.529C0.239,-0.529 0.204,-0.522 0.173,-0.508C0.142,-0.493 0.117,-0.474 0.097,-0.449C0.076,-0.424 0.061,-0.394 0.051,-0.361C0.041,-0.327 0.036,-0.291 0.036,-0.252C0.036,-0.213 0.041,-0.178 0.052,-0.146C0.062,-0.113 0.077,-0.085 0.098,-0.062C0.118,-0.039 0.143,-0.021 0.174,-0.008C0.204,0.005 0.239,0.011 0.278,0.011C0.344,0.011 0.396,-0.006 0.435,-0.041C0.473,-0.076 0.497,-0.125 0.506,-0.189L0.419,-0.189C0.414,-0.149 0.399,-0.118 0.376,-0.096C0.352,-0.074 0.319,-0.063 0.277,-0.063C0.25,-0.063 0.227,-0.068 0.208,-0.079C0.189,-0.09 0.173,-0.104 0.161,-0.122C0.149,-0.139 0.14,-0.159 0.135,-0.182C0.129,-0.205 0.126,-0.228 0.126,-0.252C0.126,-0.278 0.129,-0.303 0.134,-0.328C0.139,-0.352 0.148,-0.373 0.161,-0.392C0.173,-0.411 0.189,-0.426 0.21,-0.437C0.231,-0.448 0.256,-0.454 0.287,-0.454C0.323,-0.454 0.352,-0.445 0.373,-0.427C0.394,-0.409 0.408,-0.384 0.415,-0.351Z" style="fill-rule:nonzero;"/>
        </g>
        <g transform="matrix(41.667,0,0,41.667,53.9588,0)">
            <path d="M0.064,-0.714L0.064,-0L0.149,-0L0.149,-0.292C0.149,-0.315 0.152,-0.337 0.159,-0.357C0.165,-0.376 0.174,-0.393 0.187,-0.408C0.2,-0.423 0.216,-0.434 0.235,-0.442C0.254,-0.45 0.276,-0.454 0.302,-0.454C0.335,-0.454 0.36,-0.445 0.379,-0.426C0.398,-0.407 0.407,-0.382 0.407,-0.35L0.407,-0L0.492,-0L0.492,-0.34C0.492,-0.368 0.489,-0.393 0.484,-0.417C0.478,-0.44 0.468,-0.459 0.454,-0.476C0.44,-0.493 0.422,-0.506 0.399,-0.515C0.376,-0.524 0.348,-0.529 0.314,-0.529C0.299,-0.529 0.283,-0.527 0.267,-0.524C0.25,-0.521 0.235,-0.516 0.22,-0.509C0.205,-0.502 0.191,-0.493 0.179,-0.482C0.167,-0.47 0.158,-0.457 0.151,-0.441L0.149,-0.441L0.149,-0.714L0.064,-0.714Z" style="fill-rule:nonzero;"/>
        </g>
        <g transform="matrix(41.667,0,0,41.667,77.1256,0)">
            <path d="M0.201,-0.295L0.322,-0.628L0.324,-0.628L0.443,-0.295L0.201,-0.295ZM0.272,-0.714L-0.006,-0L0.091,-0L0.171,-0.215L0.473,-0.215L0.551,-0L0.656,-0L0.377,-0.714L0.272,-0.714Z" style="fill-rule:nonzero;"/>
        </g>
    </g>
    <path d="M318.277,216.26L318.277,124.593L346.402,170.427L318.277,216.26Z" style="fill:rgb(0,255,255);fill-rule:nonzero;stroke:black;stroke-width:4.17px;"/>
    <g transform="matrix(0.707107,-0.707107,0.707107,0.707107,318.166,102.118)">
        <g transform="matrix(41.667,0,0,41.667,0,0)">
            <path d="M0.576,-0L0.741,-0.517L0.653,-0.517L0.537,-0.094L0.535,-0.094L0.427,-0.517L0.334,-0.517L0.23,-0.094L0.228,-0.094L0.111,-0.517L0.017,-0.517L0.183,-0L0.275,-0L0.379,-0.411L0.381,-0.411L0.486,-0L0.576,-0Z" style="fill-rule:nonzero;"/>
        </g>
        <g transform="matrix(41.667,0,0,41.667,31.5836,0)">
            <path d="M0.415,-0.351L0.503,-0.351C0.5,-0.382 0.492,-0.408 0.479,-0.431C0.466,-0.453 0.45,-0.471 0.431,-0.486C0.411,-0.501 0.388,-0.511 0.363,-0.519C0.337,-0.526 0.309,-0.529 0.28,-0.529C0.239,-0.529 0.204,-0.522 0.173,-0.508C0.142,-0.493 0.117,-0.474 0.097,-0.449C0.076,-0.424 0.061,-0.394 0.051,-0.361C0.041,-0.327 0.036,-0.291 0.036,-0.252C0.036,-0.213 0.041,-0.178 0.052,-0.146C0.062,-0.113 0.077,-0.085 0.098,-0.062C0.118,-0.039 0.143,-0.021 0.174,-0.008C0.204,0.005 0.239,0.011 0.278,0.011C0.344,0.011 0.396,-0.006 0.435,-0.041C0.473,-0.076 0.497,-0.125 0.506,-0.189L0.419,-0.189C0.414,-0.149 0.399,-0.118 0.376,-0.096C0.352,-0.074 0.319,-0.063 0.277,-0.063C0.25,-0.063 0.227,-0.068 0.208,-0.079C0.189,-0.09 0.173,-0.104 0.161,-0.122C0.149,-0.139 0.14,-0.159 0.135,-0.182C0.129,-0.205 0.126,-0.228 0.126,-0.252C0.126,-0.278 0.129,-0.303 0.134,-0.328C0.139,-0.352 0.148,-0.373 0.161,-0.392C0.173,-0.411 0.189,-0.426 0.21,-0.437C0.231,-0.448 0.256,-0.454 0.287,-0.454C0.323,-0.454 0.352,-0.445 0.373,-0.427C0.394,-0.409 0.408,-0.384 0.415,-0.351Z" style="fill-rule:nonzero;"/>
        </g>
        <g transform="matrix(41.667,0,0,41.667,53.9588,0)">
            <path d="M0.064,-0.714L0.064,-0L0.149,-0L0.149,-0.292C0.149,-0.315 0.152,-0.337 0.159,-0.357C0.165,-0.376 0.174,-0.393 0.187,-0.408C0.2,-0.423 0.216,-0.434 0.235,-0.442C0.254,-0.45 0.276,-0.454 0.302,-0.454C0.335,-0.454 0.36,-0.445 0.379,-0.426C0.398,-0.407 0.407,-0.382 0.407,-0.35L0.407,-0L0.492,-0L0.492,-0.34C0.492,-0.368 0.489,-0.393 0.484,-0.417C0.478,-0.44 0.468,-0.459 0.454,-0.476C0.44,-0.493 0.422,-0.506 0.399,-0.515C0.376,-0.524 0.348,-0.529 0.314,-0.529C0.299,-0.529 0.283,-0.527 0.267,-0.524C0.25,-0.521 0.235,-0.516 0.22,-0.509C0.205,-0.502 0.191,-0.493 0.179,-0.482C0.167,-0.47 0.158,-0.457 0.151,-0.441L0.149,-0.441L0.149,-0.714L0.064,-0.714Z" style="fill-rule:nonzero;"/>
        </g>
        <g transform="matrix(41.667,0,0,41.667,77.1256,0)">
            <path d="M0.441,-0.178L0.441,-0.714L0.346,-0.714L0.346,-0.192C0.346,-0.153 0.338,-0.121 0.322,-0.098C0.305,-0.075 0.275,-0.063 0.232,-0.063C0.209,-0.063 0.19,-0.067 0.175,-0.074C0.16,-0.081 0.148,-0.09 0.14,-0.103C0.131,-0.116 0.125,-0.131 0.122,-0.148C0.119,-0.165 0.117,-0.184 0.117,-0.205L0.117,-0.235L0.022,-0.235L0.022,-0.191C0.022,-0.123 0.04,-0.071 0.076,-0.037C0.112,-0.001 0.163,0.016 0.23,0.016C0.27,0.016 0.304,0.011 0.331,-0.001C0.358,-0.012 0.379,-0.026 0.396,-0.045C0.412,-0.063 0.424,-0.084 0.431,-0.107C0.438,-0.13 0.441,-0.154 0.441,-0.178Z" style="fill-rule:nonzero;"/>
        </g>
    </g>
    <path d="M346.34,216.26L346.34,124.593L376.34,170.427L346.34,216.26Z" style="fill:rgb(0,255,255);fill-rule:nonzero;stroke:black;stroke-width:4.17px;"/>
    <g transform="matrix(0.707107,-0.707107,0.707107,0.707107,347.166,102.118)">
        <g transform="matrix(41.667,0,0,41.667,0,0)">
            <path d="M0.576,-0L0.741,-0.517L0.653,-0.517L0.537,-0.094L0.535,-0.094L0.427,-0.517L0.334,-0.517L0.23,-0.094L0.228,-0.094L0.111,-0.517L0.017,-0.517L0.183,-0L0.275,-0L0.379,-0.411L0.381,-0.411L0.486,-0L0.576,-0Z" style="fill-rule:nonzero;"/>
        </g>
        <g transform="matrix(41.667,0,0,41.667,31.5836,0)">
            <path d="M0.415,-0.351L0.503,-0.351C0.5,-0.382 0.492,-0.408 0.479,-0.431C0.466,-0.453 0.45,-0.471 0.431,-0.486C0.411,-0.501 0.388,-0.511 0.363,-0.519C0.337,-0.526 0.309,-0.529 0.28,-0.529C0.239,-0.529 0.204,-0.522 0.173,-0.508C0.142,-0.493 0.117,-0.474 0.097,-0.449C0.076,-0.424 0.061,-0.394 0.051,-0.361C0.041,-0.327 0.036,-0.291 0.036,-0.252C0.036,-0.213 0.041,-0.178 0.052,-0.146C0.062,-0.113 0.077,-0.085 0.098,-0.062C0.118,-0.039 0.143,-0.021 0.174,-0.008C0.204,0.005 0.239,0.011 0.278,0.011C0.344,0.011 0.396,-0.006 0.435,-0.041C0.473,-0.076 0.497,-0.125 0.506,-0.189L0.419,-0.189C0.414,-0.149 0.399,-0.118 0.376,-0.096C0.352,-0.074 0.319,-0.063 0.277,-0.063C0.25,-0.063 0.227,-0.068 0.208,-0.079C0.189,-0.09 0.173,-0.104 0.161,-0.122C0.149,-0.139 0.14,-0.159 0.135,-0.182C0.129,-0.205 0.126,-0.228 0.126,-0.252C0.126,-0.278 0.129,-0.303 0.134,-0.328C0.139,-0.352 0.148,-0.373 0.161,-0.392C0.173,-0.411 0.189,-0.426 0.21,-0.437C0.231,-0.448 0.256,-0.454 0.287,-0.454C0.323,-0.454 0.352,-0.445 0.373,-0.427C0.394,-0.409 0.408,-0.384 0.415,-0.351Z" style="fill-rule:nonzero;"/>
        </g>
        <g transform="matrix(41.667,0,0,41.667,53.9588,0)">
            <path d="M0.064,-0.714L0.064,-0L0.149,-0L0.149,-0.292C0.149,-0.315 0.152,-0.337 0.159,-0.357C0.165,-0.376 0.174,-0.393 0.187,-0.408C0.2,-0.423 0.216,-0.434 0.235,-0.442C0.254,-0.45 0.276,-0.454 0.302,-0.454C0.335,-0.454 0.36,-0.445 0.379,-0.426C0.398,-0.407 0.407,-0.382 0.407,-0.35L0.407,-0L0.492,-0L0.492,-0.34C0.492,-0.368 0.489,-0.393 0.484,-0.417C0.478,-0.44 0.468,-0.459 0.454,-0.476C0.44,-0.493 0.422,-0.506 0.399,-0.515C0.376,-0.524 0.348,-0.529 0.314,-0.529C0.299,-0.529 0.283,-0.527 0.267,-0.524C0.25,-0.521 0.235,-0.516 0.22,-0.509C0.205,-0.502 0.191,-0.493 0.179,-0.482C0.167,-0.47 0.158,-0.457 0.151,-0.441L0.149,-0.441L0.149,-0.714L0.064,-0.714Z" style="fill-rule:nonzero;"/>
        </g>
        <g transform="matrix(41.667,0,0,41.667,77.1256,0)">
            <path d="M0.078,-0.714L0.078,-0L0.173,-0L0.173,-0.25L0.292,-0.361L0.55,-0L0.67,-0L0.357,-0.426L0.658,-0.714L0.535,-0.714L0.173,-0.358L0.173,-0.714L0.078,-0.714Z" style="fill-rule:nonzero;"/>
        </g>
    </g>
    <path d="M391.402,145.427L410.027,145.427L410.027,124.593L460.027,170.427L410.027,216.26L410.027,195.427L391.402,195.427L391.402,145.427Z" style="fill:rgb(0,255,255);fill-rule:nonzero;stroke:black;stroke-width:4.17px;"/>
    <g transform="matrix(0.707107,-0.707107,0.707107,0.707107,411.541,102.118)">
        <g transform="matrix(41.667,0,0,41.667,0,0)">
            <path d="M0.576,-0L0.741,-0.517L0.653,-0.517L0.537,-0.094L0.535,-0.094L0.427,-0.517L0.334,-0.517L0.23,-0.094L0.228,-0.094L0.111,-0.517L0.017,-0.517L0.183,-0L0.275,-0L0.379,-0.411L0.381,-0.411L0.486,-0L0.576,-0Z" style="fill-rule:nonzero;"/>
        </g>
        <g transform="matrix(41.667,0,0,41.667,31.5836,0)">
            <path d="M0.415,-0.351L0.503,-0.351C0.5,-0.382 0.492,-0.408 0.479,-0.431C0.466,-0.453 0.45,-0.471 0.431,-0.486C0.411,-0.501 0.388,-0.511 0.363,-0.519C0.337,-0.526 0.309,-0.529 0.28,-0.529C0.239,-0.529 0.204,-0.522 0.173,-0.508C0.142,-0.493 0.117,-0.474 0.097,-0.449C0.076,-0.424 0.061,-0.394 0.051,-0.361C0.041,-0.327 0.036,-0.291 0.036,-0.252C0.036,-0.213 0.041,-0.178 0.052,-0.146C0.062,-0.113 0.077,-0.085 0.098,-0.062C0.118,-0.039 0.143,-0.021 0.174,-0.008C0.204,0.005 0.239,0.011 0.278,0.011C0.344,0.011 0.396,-0.006 0.435,-0.041C0.473,-0.076 0.497,-0.125 0.506,-0.189L0.419,-0.189C0.414,-0.149 0.399,-0.118 0.376,-0.096C0.352,-0.074 0.319,-0.063 0.277,-0.063C0.25,-0.063 0.227,-0.068 0.208,-0.079C0.189,-0.09 0.173,-0.104 0.161,-0.122C0.149,-0.139 0.14,-0.159 0.135,-0.182C0.129,-0.205 0.126,-0.228 0.126,-0.252C0.126,-0.278 0.129,-0.303 0.134,-0.328C0.139,-0.352 0.148,-0.373 0.161,-0.392C0.173,-0.411 0.189,-0.426 0.21,-0.437C0.231,-0.448 0.256,-0.454 0.287,-0.454C0.323,-0.454 0.352,-0.445 0.373,-0.427C0.394,-0.409 0.408,-0.384 0.415,-0.351Z" style="fill-rule:nonzero;"/>
        </g>
        <g transform="matrix(41.667,0,0,41.667,53.9588,0)">
            <path d="M0.267,0.069C0.257,0.094 0.247,0.116 0.238,0.133C0.228,0.15 0.217,0.165 0.206,0.176C0.194,0.187 0.181,0.195 0.167,0.2C0.152,0.205 0.136,0.207 0.117,0.207C0.107,0.207 0.097,0.206 0.087,0.205C0.077,0.204 0.067,0.201 0.058,0.198L0.058,0.12C0.065,0.123 0.074,0.126 0.084,0.129C0.093,0.131 0.101,0.132 0.108,0.132C0.125,0.132 0.14,0.128 0.152,0.12C0.163,0.111 0.172,0.099 0.178,0.084L0.213,-0.003L0.008,-0.517L0.104,-0.517L0.255,-0.094L0.257,-0.094L0.402,-0.517L0.492,-0.517L0.267,0.069Z" style="fill-rule:nonzero;"/>
        </g>
        <g transform="matrix(41.667,0,0,41.667,74.7923,0)">
            <path d="M0.078,-0.714L0.078,-0L0.173,-0L0.173,-0.25L0.292,-0.361L0.55,-0L0.67,-0L0.357,-0.426L0.658,-0.714L0.535,-0.714L0.173,-0.358L0.173,-0.714L0.078,-0.714Z" style="fill-rule:nonzero;"/>
        </g>
    </g>
    <path d="M460.027,216.26L460.027,124.593L503.527,170.427L460.027,216.26Z" style="fill:white;fill-rule:nonzero;stroke:black;stroke-width:4.17px;"/>
    <g transform="matrix(0.707107,-0.707107,0.707107,0.707107,467.604,102.118)">
        <g transform="matrix(41.667,0,0,41.667,0,0)">
            <path d="M0.576,-0L0.741,-0.517L0.653,-0.517L0.537,-0.094L0.535,-0.094L0.427,-0.517L0.334,-0.517L0.23,-0.094L0.228,-0.094L0.111,-0.517L0.017,-0.517L0.183,-0L0.275,-0L0.379,-0.411L0.381,-0.411L0.486,-0L0.576,-0Z" style="fill-rule:nonzero;"/>
        </g>
        <g transform="matrix(41.667,0,0,41.667,31.5836,0)">
            <path d="M0.415,-0.351L0.503,-0.351C0.5,-0.382 0.492,-0.408 0.479,-0.431C0.466,-0.453 0.45,-0.471 0.431,-0.486C0.411,-0.501 0.388,-0.511 0.363,-0.519C0.337,-0.526 0.309,-0.529 0.28,-0.529C0.239,-0.529 0.204,-0.522 0.173,-0.508C0.142,-0.493 0.117,-0.474 0.097,-0.449C0.076,-0.424 0.061,-0.394 0.051,-0.361C0.041,-0.327 0.036,-0.291 0.036,-0.252C0.036,-0.213 0.041,-0.178 0.052,-0.146C0.062,-0.113 0.077,-0.085 0.098,-0.062C0.118,-0.039 0.143,-0.021 0.174,-0.008C0.204,0.005 0.239,0.011 0.278,0.011C0.344,0.011 0.396,-0.006 0.435,-0.041C0.473,-0.076 0.497,-0.125 0.506,-0.189L0.419,-0.189C0.414,-0.149 0.399,-0.118 0.376,-0.096C0.352,-0.074 0.319,-0.063 0.277,-0.063C0.25,-0.063 0.227,-0.068 0.208,-0.079C0.189,-0.09 0.173,-0.104 0.161,-0.122C0.149,-0.139 0.14,-0.159 0.135,-0.182C0.129,-0.205 0.126,-0.228 0.126,-0.252C0.126,-0.278 0.129,-0.303 0.134,-0.328C0.139,-0.352 0.148,-0.373 0.161,-0.392C0.173,-0.411 0.189,-0.426 0.21,-0.437C0.231,-0.448 0.256,-0.454 0.287,-0.454C0.323,-0.454 0.352,-0.445 0.373,-0.427C0.394,-0.409 0.408,-0.384 0.415,-0.351Z" style="fill-rule:nonzero;"/>
        </g>
        <g transform="matrix(41.667,0,0,41.667,53.9588,0)">
            <path d="M0.576,-0L0.741,-0.517L0.653,-0.517L0.537,-0.094L0.535,-0.094L0.427,-0.517L0.334,-0.517L0.23,-0.094L0.228,-0.094L0.111,-0.517L0.017,-0.517L0.183,-0L0.275,-0L0.379,-0.411L0.381,-0.411L0.486,-0L0.576,-0Z" style="fill-rule:nonzero;"/>
        </g>
        <g transform="matrix(41.667,0,0,41.667,85.5424,0)">
            <path d="M0.58,-0.499L0.675,-0.499C0.67,-0.537 0.658,-0.571 0.641,-0.6C0.624,-0.628 0.602,-0.653 0.576,-0.672C0.55,-0.691 0.52,-0.706 0.487,-0.716C0.454,-0.726 0.418,-0.731 0.381,-0.731C0.326,-0.731 0.278,-0.721 0.236,-0.702C0.193,-0.682 0.158,-0.655 0.13,-0.621C0.101,-0.587 0.08,-0.547 0.065,-0.502C0.05,-0.456 0.043,-0.407 0.043,-0.355C0.043,-0.303 0.05,-0.254 0.064,-0.209C0.077,-0.164 0.098,-0.124 0.125,-0.091C0.152,-0.058 0.187,-0.032 0.228,-0.013C0.269,0.007 0.318,0.016 0.373,0.016C0.464,0.016 0.536,-0.009 0.589,-0.059C0.642,-0.109 0.673,-0.179 0.682,-0.269L0.587,-0.269C0.585,-0.24 0.579,-0.212 0.569,-0.187C0.559,-0.162 0.545,-0.14 0.528,-0.122C0.51,-0.103 0.489,-0.089 0.465,-0.079C0.44,-0.068 0.412,-0.063 0.381,-0.063C0.338,-0.063 0.302,-0.071 0.271,-0.087C0.24,-0.103 0.215,-0.125 0.196,-0.152C0.176,-0.179 0.161,-0.21 0.152,-0.247C0.143,-0.283 0.138,-0.321 0.138,-0.362C0.138,-0.399 0.143,-0.435 0.152,-0.47C0.161,-0.505 0.176,-0.536 0.196,-0.563C0.215,-0.59 0.24,-0.611 0.271,-0.627C0.301,-0.643 0.337,-0.651 0.38,-0.651C0.43,-0.651 0.473,-0.638 0.51,-0.613C0.546,-0.588 0.569,-0.55 0.58,-0.499Z" style="fill-rule:nonzero;"/>
        </g>
    </g>
    <path d="M503.652,216.26L503.652,124.593L548.84,170.427L503.652,216.26Z" style="fill:rgb(0,255,255);fill-rule:nonzero;stroke:black;stroke-width:4.17px;"/>
    <g transform="matrix(0.707107,-0.707107,0.707107,0.707107,512.073,102.118)">
        <g transform="matrix(41.667,0,0,41.667,0,0)">
            <path d="M0.576,-0L0.741,-0.517L0.653,-0.517L0.537,-0.094L0.535,-0.094L0.427,-0.517L0.334,-0.517L0.23,-0.094L0.228,-0.094L0.111,-0.517L0.017,-0.517L0.183,-0L0.275,-0L0.379,-0.411L0.381,-0.411L0.486,-0L0.576,-0Z" style="fill-rule:nonzero;"/>
        </g>
        <g transform="matrix(41.667,0,0,41.667,31.5836,0)">
            <path d="M0.415,-0.351L0.503,-0.351C0.5,-0.382 0.492,-0.408 0.479,-0.431C0.466,-0.453 0.45,-0.471 0.431,-0.486C0.411,-0.501 0.388,-0.511 0.363,-0.519C0.337,-0.526 0.309,-0.529 0.28,-0.529C0.239,-0.529 0.204,-0.522 0.173,-0.508C0.142,-0.493 0.117,-0.474 0.097,-0.449C0.076,-0.424 0.061,-0.394 0.051,-0.361C0.041,-0.327 0.036,-0.291 0.036,-0.252C0.036,-0.213 0.041,-0.178 0.052,-0.146C0.062,-0.113 0.077,-0.085 0.098,-0.062C0.118,-0.039 0.143,-0.021 0.174,-0.008C0.204,0.005 0.239,0.011 0.278,0.011C0.344,0.011 0.396,-0.006 0.435,-0.041C0.473,-0.076 0.497,-0.125 0.506,-0.189L0.419,-0.189C0.414,-0.149 0.399,-0.118 0.376,-0.096C0.352,-0.074 0.319,-0.063 0.277,-0.063C0.25,-0.063 0.227,-0.068 0.208,-0.079C0.189,-0.09 0.173,-0.104 0.161,-0.122C0.149,-0.139 0.14,-0.159 0.135,-0.182C0.129,-0.205 0.126,-0.228 0.126,-0.252C0.126,-0.278 0.129,-0.303 0.134,-0.328C0.139,-0.352 0.148,-0.373 0.161,-0.392C0.173,-0.411 0.189,-0.426 0.21,-0.437C0.231,-0.448 0.256,-0.454 0.287,-0.454C0.323,-0.454 0.352,-0.445 0.373,-0.427C0.394,-0.409 0.408,-0.384 0.415,-0.351Z" style="fill-rule:nonzero;"/>
        </g>
        <g transform="matrix(41.667,0,0,41.667,53.9588,0)">
            <path d="M0.061,-0.517L0.061,-0L0.146,-0L0.146,-0.23C0.146,-0.263 0.149,-0.293 0.156,-0.319C0.163,-0.344 0.173,-0.366 0.188,-0.384C0.203,-0.402 0.222,-0.416 0.246,-0.425C0.27,-0.434 0.299,-0.439 0.333,-0.439L0.333,-0.529C0.287,-0.53 0.249,-0.521 0.219,-0.501C0.189,-0.481 0.164,-0.45 0.143,-0.408L0.141,-0.408L0.141,-0.517L0.061,-0.517Z" style="fill-rule:nonzero;"/>
        </g>
        <g transform="matrix(41.667,0,0,41.667,67.8339,0)">
            <path d="M0.078,-0.714L0.078,-0L0.551,-0L0.551,-0.08L0.173,-0.08L0.173,-0.714L0.078,-0.714Z" style="fill-rule:nonzero;"/>
        </g>
    </g>
    <path d="M548.59,145.427L571.902,145.427L571.902,124.593L621.902,170.427L571.902,216.26L571.902,195.427L548.59,195.427L548.59,145.427Z" style="fill:rgb(255,0,255);fill-rule:nonzero;stroke:black;stroke-width:4.17px;"/>
    <g transform="matrix(0.707107,-0.707107,0.707107,0.707107,571.073,102.118)">
        <g transform="matrix(41.667,0,0,41.667,0,0)">
            <path d="M0.576,-0L0.741,-0.517L0.653,-0.517L0.537,-0.094L0.535,-0.094L0.427,-0.517L0.334,-0.517L0.23,-0.094L0.228,-0.094L0.111,-0.517L0.017,-0.517L0.183,-0L0.275,-0L0.379,-0.411L0.381,-0.411L0.486,-0L0.576,-0Z" style="fill-rule:nonzero;"/>
        </g>
        <g transform="matrix(41.667,0,0,41.667,31.5836,0)">
            <path d="M0.022,-0.065L0.022,-0L0.458,-0L0.458,-0.075L0.128,-0.075L0.444,-0.459L0.444,-0.517L0.042,-0.517L0.042,-0.442L0.334,-0.442L0.022,-0.065Z" style="fill-rule:nonzero;"/>
        </g>
        <g transform="matrix(41.667,0,0,41.667,51.5837,0)">
            <path d="M0.267,0.069C0.257,0.094 0.247,0.116 0.238,0.133C0.228,0.15 0.217,0.165 0.206,0.176C0.194,0.187 0.181,0.195 0.167,0.2C0.152,0.205 0.136,0.207 0.117,0.207C0.107,0.207 0.097,0.206 0.087,0.205C0.077,0.204 0.067,0.201 0.058,0.198L0.058,0.12C0.065,0.123 0.074,0.126 0.084,0.129C0.093,0.131 0.101,0.132 0.108,0.132C0.125,0.132 0.14,0.128 0.152,0.12C0.163,0.111 0.172,0.099 0.178,0.084L0.213,-0.003L0.008,-0.517L0.104,-0.517L0.255,-0.094L0.257,-0.094L0.402,-0.517L0.492,-0.517L0.267,0.069Z" style="fill-rule:nonzero;"/>
        </g>
    </g>
    <path d="M621.215,216.26L621.215,124.593L652.527,170.427L621.215,216.26Z" style="fill:white;fill-rule:nonzero;stroke:black;stroke-width:4.17px;"/>
    <g transform="matrix(0.707107,-0.707107,0.707107,0.707107,622.698,102.117)">
        <g transform="matrix(41.667,0,0,41.667,0,0)">
            <path d="M0.576,-0L0.741,-0.517L0.653,-0.517L0.537,-0.094L0.535,-0.094L0.427,-0.517L0.334,-0.517L0.23,-0.094L0.228,-0.094L0.111,-0.517L0.017,-0.517L0.183,-0L0.275,-0L0.379,-0.411L0.381,-0.411L0.486,-0L0.576,-0Z" style="fill-rule:nonzero;"/>
        </g>
        <g transform="matrix(41.667,0,0,41.667,31.5836,0)">
            <path d="M0.415,-0.351L0.503,-0.351C0.5,-0.382 0.492,-0.408 0.479,-0.431C0.466,-0.453 0.45,-0.471 0.431,-0.486C0.411,-0.501 0.388,-0.511 0.363,-0.519C0.337,-0.526 0.309,-0.529 0.28,-0.529C0.239,-0.529 0.204,-0.522 0.173,-0.508C0.142,-0.493 0.117,-0.474 0.097,-0.449C0.076,-0.424 0.061,-0.394 0.051,-0.361C0.041,-0.327 0.036,-0.291 0.036,-0.252C0.036,-0.213 0.041,-0.178 0.052,-0.146C0.062,-0.113 0.077,-0.085 0.098,-0.062C0.118,-0.039 0.143,-0.021 0.174,-0.008C0.204,0.005 0.239,0.011 0.278,0.011C0.344,0.011 0.396,-0.006 0.435,-0.041C0.473,-0.076 0.497,-0.125 0.506,-0.189L0.419,-0.189C0.414,-0.149 0.399,-0.118 0.376,-0.096C0.352,-0.074 0.319,-0.063 0.277,-0.063C0.25,-0.063 0.227,-0.068 0.208,-0.079C0.189,-0.09 0.173,-0.104 0.161,-0.122C0.149,-0.139 0.14,-0.159 0.135,-0.182C0.129,-0.205 0.126,-0.228 0.126,-0.252C0.126,-0.278 0.129,-0.303 0.134,-0.328C0.139,-0.352 0.148,-0.373 0.161,-0.392C0.173,-0.411 0.189,-0.426 0.21,-0.437C0.231,-0.448 0.256,-0.454 0.287,-0.454C0.323,-0.454 0.352,-0.445 0.373,-0.427C0.394,-0.409 0.408,-0.384 0.415,-0.351Z" style="fill-rule:nonzero;"/>
        </g>
        <g transform="matrix(41.667,0,0,41.667,53.9588,0)">
            <path d="M0.576,-0L0.741,-0.517L0.653,-0.517L0.537,-0.094L0.535,-0.094L0.427,-0.517L0.334,-0.517L0.23,-0.094L0.228,-0.094L0.111,-0.517L0.017,-0.517L0.183,-0L0.275,-0L0.379,-0.411L0.381,-0.411L0.486,-0L0.576,-0Z" style="fill-rule:nonzero;"/>
        </g>
        <g transform="matrix(41.667,0,0,41.667,85.5424,0)">
            <path d="M0.24,-0.634L0.24,-0L0.335,-0L0.335,-0.634L0.573,-0.634L0.573,-0.714L0.002,-0.714L0.002,-0.634L0.24,-0.634Z" style="fill-rule:nonzero;"/>
        </g>
    </g>
    <path d="M653.09,145.427L677.34,145.427L677.34,124.593L727.34,170.427L677.34,216.26L677.34,195.427L653.09,195.427L653.09,145.427Z" style="fill:rgb(255,165,0);fill-rule:nonzero;stroke:black;stroke-width:4.17px;"/>
    <g transform="matrix(0.707107,-0.707107,0.707107,0.707107,676.042,102.118)">
        <g transform="matrix(41.667,0,0,41.667,0,0)">
            <path d="M0.576,-0L0.741,-0.517L0.653,-0.517L0.537,-0.094L0.535,-0.094L0.427,-0.517L0.334,-0.517L0.23,-0.094L0.228,-0.094L0.111,-0.517L0.017,-0.517L0.183,-0L0.275,-0L0.379,-0.411L0.381,-0.411L0.486,-0L0.576,-0Z" style="fill-rule:nonzero;"/>
        </g>
        <g transform="matrix(41.667,0,0,41.667,31.5836,0)">
            <path d="M0.415,-0.351L0.503,-0.351C0.5,-0.382 0.492,-0.408 0.479,-0.431C0.466,-0.453 0.45,-0.471 0.431,-0.486C0.411,-0.501 0.388,-0.511 0.363,-0.519C0.337,-0.526 0.309,-0.529 0.28,-0.529C0.239,-0.529 0.204,-0.522 0.173,-0.508C0.142,-0.493 0.117,-0.474 0.097,-0.449C0.076,-0.424 0.061,-0.394 0.051,-0.361C0.041,-0.327 0.036,-0.291 0.036,-0.252C0.036,-0.213 0.041,-0.178 0.052,-0.146C0.062,-0.113 0.077,-0.085 0.098,-0.062C0.118,-0.039 0.143,-0.021 0.174,-0.008C0.204,0.005 0.239,0.011 0.278,0.011C0.344,0.011 0.396,-0.006 0.435,-0.041C0.473,-0.076 0.497,-0.125 0.506,-0.189L0.419,-0.189C0.414,-0.149 0.399,-0.118 0.376,-0.096C0.352,-0.074 0.319,-0.063 0.277,-0.063C0.25,-0.063 0.227,-0.068 0.208,-0.079C0.189,-0.09 0.173,-0.104 0.161,-0.122C0.149,-0.139 0.14,-0.159 0.135,-0.182C0.129,-0.205 0.126,-0.228 0.126,-0.252C0.126,-0.278 0.129,-0.303 0.134,-0.328C0.139,-0.352 0.148,-0.373 0.161,-0.392C0.173,-0.411 0.189,-0.426 0.21,-0.437C0.231,-0.448 0.256,-0.454 0.287,-0.454C0.323,-0.454 0.352,-0.445 0.373,-0.427C0.394,-0.409 0.408,-0.384 0.415,-0.351Z" style="fill-rule:nonzero;"/>
        </g>
        <g transform="matrix(41.667,0,0,41.667,53.9588,0)">
            <path d="M0.576,-0L0.741,-0.517L0.653,-0.517L0.537,-0.094L0.535,-0.094L0.427,-0.517L0.334,-0.517L0.23,-0.094L0.228,-0.094L0.111,-0.517L0.017,-0.517L0.183,-0L0.275,-0L0.379,-0.411L0.381,-0.411L0.486,-0L0.576,-0Z" style="fill-rule:nonzero;"/>
        </g>
        <g transform="matrix(41.667,0,0,41.667,85.5424,0)">
            <path d="M0.648,-0.258L0.648,-0.714L0.553,-0.714L0.553,-0.258C0.553,-0.194 0.537,-0.146 0.506,-0.113C0.474,-0.08 0.428,-0.063 0.367,-0.063C0.303,-0.063 0.254,-0.08 0.22,-0.113C0.186,-0.146 0.169,-0.194 0.169,-0.258L0.169,-0.714L0.074,-0.714L0.074,-0.258C0.074,-0.163 0.1,-0.093 0.152,-0.05C0.203,-0.006 0.275,0.016 0.367,0.016C0.457,0.016 0.526,-0.007 0.575,-0.053C0.624,-0.098 0.648,-0.167 0.648,-0.258Z" style="fill-rule:nonzero;"/>
        </g>
    </g>
    <path d="M728.34,145.427L766.09,145.427L766.09,124.593L816.09,170.427L766.09,216.26L766.09,195.427L728.34,195.427L728.34,145.427Z" style="fill:rgb(255,255,0);fill-rule:nonzero;stroke:black;stroke-width:4.17px;"/>
    <g transform="matrix(0.707107,-0.707107,0.707107,0.707107,758.041,102.118)">
        <g transform="matrix(41.667,0,0,41.667,0,0)">
            <path d="M0.576,-0L0.741,-0.517L0.653,-0.517L0.537,-0.094L0.535,-0.094L0.427,-0.517L0.334,-0.517L0.23,-0.094L0.228,-0.094L0.111,-0.517L0.017,-0.517L0.183,-0L0.275,-0L0.379,-0.411L0.381,-0.411L0.486,-0L0.576,-0Z" style="fill-rule:nonzero;"/>
        </g>
        <g transform="matrix(41.667,0,0,41.667,31.5836,0)">
            <path d="M0.022,-0.065L0.022,-0L0.458,-0L0.458,-0.075L0.128,-0.075L0.444,-0.459L0.444,-0.517L0.042,-0.517L0.042,-0.442L0.334,-0.442L0.022,-0.065Z" style="fill-rule:nonzero;"/>
        </g>
        <g transform="matrix(41.667,0,0,41.667,51.5837,0)">
            <path d="M0.203,-0.272L0.009,-0L0.112,-0L0.256,-0.214L0.4,-0L0.509,-0L0.309,-0.279L0.487,-0.517L0.385,-0.517L0.256,-0.336L0.132,-0.517L0.023,-0.517L0.203,-0.272Z" style="fill-rule:nonzero;"/>
        </g>
    </g>
    <path d="M823.09,216.26L823.09,124.593L847.652,170.427L823.09,216.26Z" style="fill:rgb(128,0,0);fill-rule:nonzero;stroke:black;stroke-width:4.17px;"/>
    <g transform="matrix(0.707107,-0.707107,0.707107,0.707107,821.198,102.117)">
        <g transform="matrix(41.667,0,0,41.667,0,0)">
            <path d="M0.51,-0.044L0.51,-0.517L0.43,-0.517L0.43,-0.443L0.429,-0.443C0.414,-0.472 0.392,-0.493 0.365,-0.508C0.338,-0.522 0.308,-0.529 0.275,-0.529C0.23,-0.529 0.193,-0.521 0.162,-0.504C0.131,-0.487 0.107,-0.465 0.088,-0.439C0.069,-0.412 0.056,-0.383 0.048,-0.351C0.04,-0.318 0.036,-0.287 0.036,-0.256C0.036,-0.221 0.041,-0.187 0.051,-0.156C0.06,-0.124 0.075,-0.096 0.094,-0.073C0.113,-0.049 0.137,-0.03 0.166,-0.016C0.195,-0.002 0.228,0.005 0.267,0.005C0.3,0.005 0.332,-0.003 0.362,-0.018C0.391,-0.033 0.413,-0.056 0.428,-0.088L0.43,-0.088L0.43,-0.054C0.43,-0.025 0.427,0.001 0.422,0.025C0.416,0.049 0.407,0.07 0.394,0.087C0.381,0.103 0.365,0.117 0.346,0.127C0.327,0.136 0.303,0.141 0.275,0.141C0.261,0.141 0.246,0.14 0.231,0.137C0.216,0.134 0.202,0.129 0.189,0.122C0.175,0.115 0.165,0.107 0.156,0.096C0.147,0.085 0.142,0.072 0.141,0.057L0.056,0.057C0.057,0.085 0.065,0.109 0.078,0.128C0.091,0.147 0.108,0.163 0.129,0.175C0.149,0.187 0.171,0.196 0.197,0.201C0.222,0.206 0.246,0.209 0.27,0.209C0.353,0.209 0.413,0.188 0.452,0.146C0.491,0.104 0.51,0.041 0.51,-0.044ZM0.272,-0.069C0.244,-0.069 0.221,-0.075 0.202,-0.087C0.183,-0.098 0.168,-0.114 0.157,-0.133C0.146,-0.152 0.138,-0.173 0.133,-0.196C0.128,-0.219 0.126,-0.243 0.126,-0.266C0.126,-0.291 0.129,-0.314 0.135,-0.337C0.14,-0.36 0.149,-0.38 0.162,-0.397C0.174,-0.414 0.19,-0.428 0.209,-0.439C0.228,-0.449 0.252,-0.454 0.279,-0.454C0.306,-0.454 0.328,-0.449 0.347,-0.438C0.366,-0.427 0.381,-0.413 0.393,-0.396C0.404,-0.378 0.413,-0.358 0.418,-0.336C0.423,-0.314 0.426,-0.292 0.426,-0.269C0.426,-0.245 0.423,-0.221 0.418,-0.197C0.412,-0.173 0.403,-0.152 0.391,-0.133C0.379,-0.114 0.363,-0.098 0.344,-0.087C0.324,-0.075 0.3,-0.069 0.272,-0.069Z" style="fill-rule:nonzero;"/>
        </g>
        <g transform="matrix(41.667,0,0,41.667,23.9169,0)">
            <path d="M0.415,-0.351L0.503,-0.351C0.5,-0.382 0.492,-0.408 0.479,-0.431C0.466,-0.453 0.45,-0.471 0.431,-0.486C0.411,-0.501 0.388,-0.511 0.363,-0.519C0.337,-0.526 0.309,-0.529 0.28,-0.529C0.239,-0.529 0.204,-0.522 0.173,-0.508C0.142,-0.493 0.117,-0.474 0.097,-0.449C0.076,-0.424 0.061,-0.394 0.051,-0.361C0.041,-0.327 0.036,-0.291 0.036,-0.252C0.036,-0.213 0.041,-0.178 0.052,-0.146C0.062,-0.113 0.077,-0.085 0.098,-0.062C0.118,-0.039 0.143,-0.021 0.174,-0.008C0.204,0.005 0.239,0.011 0.278,0.011C0.344,0.011 0.396,-0.006 0.435,-0.041C0.473,-0.076 0.497,-0.125 0.506,-0.189L0.419,-0.189C0.414,-0.149 0.399,-0.118 0.376,-0.096C0.352,-0.074 0.319,-0.063 0.277,-0.063C0.25,-0.063 0.227,-0.068 0.208,-0.079C0.189,-0.09 0.173,-0.104 0.161,-0.122C0.149,-0.139 0.14,-0.159 0.135,-0.182C0.129,-0.205 0.126,-0.228 0.126,-0.252C0.126,-0.278 0.129,-0.303 0.134,-0.328C0.139,-0.352 0.148,-0.373 0.161,-0.392C0.173,-0.411 0.189,-0.426 0.21,-0.437C0.231,-0.448 0.256,-0.454 0.287,-0.454C0.323,-0.454 0.352,-0.445 0.373,-0.427C0.394,-0.409 0.408,-0.384 0.415,-0.351Z" style="fill-rule:nonzero;"/>
        </g>
        <g transform="matrix(41.667,0,0,41.667,46.292,0)">
            <path d="M0.182,-0.517L0.182,-0.672L0.097,-0.672L0.097,-0.517L0.009,-0.517L0.009,-0.442L0.097,-0.442L0.097,-0.113C0.097,-0.089 0.099,-0.07 0.104,-0.055C0.109,-0.04 0.116,-0.029 0.126,-0.021C0.135,-0.013 0.148,-0.008 0.164,-0.005C0.179,-0.002 0.198,-0 0.22,-0L0.285,-0L0.285,-0.075L0.246,-0.075C0.233,-0.075 0.222,-0.076 0.214,-0.077C0.205,-0.078 0.199,-0.08 0.194,-0.083C0.189,-0.086 0.186,-0.091 0.185,-0.097C0.183,-0.103 0.182,-0.111 0.182,-0.121L0.182,-0.442L0.285,-0.442L0.285,-0.517L0.182,-0.517Z" style="fill-rule:nonzero;"/>
        </g>
    </g>
    <path d="M873.715,145.427L888.027,145.427L888.027,124.593L938.027,170.427L888.027,216.26L888.027,195.427L873.715,195.427L873.715,145.427Z" style="fill:white;fill-rule:nonzero;stroke:black;stroke-width:4.17px;"/>
    <g transform="matrix(0.707107,-0.707107,0.707107,0.707107,891.698,102.117)">
        <g transform="matrix(41.667,0,0,41.667,0,0)">
            <path d="M0.576,-0L0.741,-0.517L0.653,-0.517L0.537,-0.094L0.535,-0.094L0.427,-0.517L0.334,-0.517L0.23,-0.094L0.228,-0.094L0.111,-0.517L0.017,-0.517L0.183,-0L0.275,-0L0.379,-0.411L0.381,-0.411L0.486,-0L0.576,-0Z" style="fill-rule:nonzero;"/>
        </g>
        <g transform="matrix(41.667,0,0,41.667,31.5836,0)">
            <path d="M0.415,-0.351L0.503,-0.351C0.5,-0.382 0.492,-0.408 0.479,-0.431C0.466,-0.453 0.45,-0.471 0.431,-0.486C0.411,-0.501 0.388,-0.511 0.363,-0.519C0.337,-0.526 0.309,-0.529 0.28,-0.529C0.239,-0.529 0.204,-0.522 0.173,-0.508C0.142,-0.493 0.117,-0.474 0.097,-0.449C0.076,-0.424 0.061,-0.394 0.051,-0.361C0.041,-0.327 0.036,-0.291 0.036,-0.252C0.036,-0.213 0.041,-0.178 0.052,-0.146C0.062,-0.113 0.077,-0.085 0.098,-0.062C0.118,-0.039 0.143,-0.021 0.174,-0.008C0.204,0.005 0.239,0.011 0.278,0.011C0.344,0.011 0.396,-0.006 0.435,-0.041C0.473,-0.076 0.497,-0.125 0.506,-0.189L0.419,-0.189C0.414,-0.149 0.399,-0.118 0.376,-0.096C0.352,-0.074 0.319,-0.063 0.277,-0.063C0.25,-0.063 0.227,-0.068 0.208,-0.079C0.189,-0.09 0.173,-0.104 0.161,-0.122C0.149,-0.139 0.14,-0.159 0.135,-0.182C0.129,-0.205 0.126,-0.228 0.126,-0.252C0.126,-0.278 0.129,-0.303 0.134,-0.328C0.139,-0.352 0.148,-0.373 0.161,-0.392C0.173,-0.411 0.189,-0.426 0.21,-0.437C0.231,-0.448 0.256,-0.454 0.287,-0.454C0.323,-0.454 0.352,-0.445 0.373,-0.427C0.394,-0.409 0.408,-0.384 0.415,-0.351Z" style="fill-rule:nonzero;"/>
        </g>
        <g transform="matrix(41.667,0,0,41.667,53.9588,0)">
            <path d="M0.154,-0.61L0.154,-0.714L0.069,-0.714L0.069,-0.61L0.154,-0.61ZM0.154,0.065L0.154,-0.517L0.069,-0.517L0.069,0.051C0.069,0.078 0.066,0.096 0.059,0.107C0.052,0.117 0.04,0.122 0.021,0.122L0.003,0.122C0,0.122 -0.002,0.122 -0.005,0.122C-0.007,0.121 -0.01,0.121 -0.013,0.12L-0.013,0.193C0,0.196 0.015,0.197 0.03,0.197C0.068,0.197 0.098,0.187 0.121,0.166C0.143,0.145 0.154,0.111 0.154,0.065Z" style="fill-rule:nonzero;"/>
        </g>
        <g transform="matrix(41.667,0,0,41.667,63.2088,0)">
            <path d="M0.078,-0.714L0.078,-0L0.574,-0L0.574,-0.08L0.173,-0.08L0.173,-0.327L0.544,-0.327L0.544,-0.407L0.173,-0.407L0.173,-0.634L0.571,-0.634L0.571,-0.714L0.078,-0.714Z" style="fill-rule:nonzero;"/>
        </g>
    </g>
</svg>
