<?xml version="1.0" encoding="UTF-8" standalone="no"?><!DOCTYPE svg PUBLIC "-//W3C//DTD SVG 1.1//EN" "http://www.w3.org/Graphics/SVG/1.1/DTD/svg11.dtd"><svg width="100%" height="100%" viewBox="0 0 2200 688" version="1.1" xmlns="http://www.w3.org/2000/svg" xmlns:xlink="http://www.w3.org/1999/xlink" xml:space="preserve" xmlns:serif="http://www.serif.com/" style="fill-rule:evenodd;clip-rule:evenodd;"><path d="M92.633,512.083l2057.55,0" style="fill:none;fill-rule:nonzero;stroke:#111;stroke-width:13.25px;"/><path d="M92.633,658.054l0,-291.937l32.246,145.966l-32.246,145.971Z" style="fill-rule:nonzero;stroke:#000;stroke-width:13.25px;"/><g><path d="M51.606,258.882c-2.377,-2.377 -4.441,-4.942 -6.193,-7.694c-1.751,-2.753 -2.94,-5.568 -3.565,-8.445c-0.626,-2.878 -0.532,-5.787 0.281,-8.727c0.814,-2.94 2.565,-5.755 5.255,-8.445c2.752,-2.752 5.614,-4.582 8.586,-5.489c2.971,-0.907 5.911,-1.126 8.82,-0.657c2.909,0.469 5.755,1.533 8.539,3.191c2.784,1.657 5.364,3.675 7.741,6.052c2.252,2.252 4.207,4.738 5.865,7.46c1.657,2.721 2.752,5.536 3.284,8.445c0.531,2.908 0.391,5.833 -0.422,8.773c-0.814,2.94 -2.565,5.755 -5.255,8.445c-2.565,2.565 -5.302,4.301 -8.211,5.208c-2.908,0.907 -5.817,1.126 -8.726,0.656c-2.909,-0.469 -5.739,-1.485 -8.492,-3.049c-2.752,-1.564 -5.255,-3.472 -7.507,-5.724Zm61.367,-13.7l-66.997,-66.996l-7.975,7.975l24.959,24.96l-0.187,0.188c-2.315,-0.563 -4.598,-0.688 -6.85,-0.376c-2.252,0.313 -4.395,0.892 -6.428,1.736c-2.033,0.845 -3.894,1.861 -5.583,3.05c-1.689,1.188 -3.159,2.408 -4.41,3.659c-3.691,3.691 -6.256,7.601 -7.694,11.729c-1.439,4.129 -1.94,8.258 -1.502,12.386c0.438,4.129 1.736,8.18 3.894,12.152c2.159,3.972 4.958,7.679 8.398,11.119c3.441,3.441 7.163,6.224 11.167,8.351c4.003,2.127 8.085,3.425 12.245,3.894c4.16,0.469 8.32,0 12.48,-1.407c4.16,-1.408 8.116,-3.988 11.87,-7.741c3.377,-3.378 5.88,-7.069 7.506,-11.073c1.627,-4.003 1.752,-8.007 0.375,-12.01l0.188,-0.188l6.568,6.568l7.976,-7.976Z" style="fill-rule:nonzero;"/><path d="M130.051,170.304l-27.869,27.868c-1.751,-2.002 -3.112,-4.176 -4.081,-6.521c-0.97,-2.346 -1.486,-4.739 -1.549,-7.179c-0.062,-2.439 0.376,-4.848 1.314,-7.225c0.938,-2.377 2.44,-4.598 4.504,-6.662c2.002,-2.002 4.191,-3.472 6.568,-4.41c2.378,-0.938 4.786,-1.408 7.226,-1.408c2.439,0 4.863,0.485 7.272,1.455c2.408,0.97 4.613,2.33 6.615,4.082Zm21.206,5.817l-7.882,7.882c2.502,3.879 3.456,7.679 2.862,11.401c-0.594,3.722 -2.58,7.272 -5.958,10.65c-2.628,2.627 -5.349,4.473 -8.164,5.536c-2.815,1.064 -5.583,1.486 -8.304,1.267c-2.721,-0.219 -5.317,-1.001 -7.788,-2.346c-2.471,-1.345 -4.739,-3.112 -6.803,-5.301l36.313,-36.314c-2.815,-3.065 -6.177,-5.896 -10.087,-8.492c-3.909,-2.596 -8.101,-4.41 -12.573,-5.442c-4.473,-1.032 -9.024,-1.017 -13.653,0.047c-4.629,1.063 -9.102,3.753 -13.418,8.069c-3.316,3.316 -5.74,6.991 -7.272,11.026c-1.533,4.035 -2.19,8.195 -1.971,12.48c0.219,4.285 1.298,8.523 3.238,12.714c1.939,4.191 4.754,8.132 8.444,11.823c3.816,3.566 7.773,6.428 11.87,8.586c4.098,2.158 8.242,3.393 12.433,3.706c4.191,0.313 8.336,-0.328 12.433,-1.923c4.098,-1.596 8.085,-4.332 11.964,-8.211c5.505,-5.505 8.695,-11.447 9.571,-17.828c0.876,-6.381 -0.876,-12.824 -5.255,-19.33Z" style="fill-rule:nonzero;"/><path d="M163.174,143.937l7.319,43.726l9.665,-9.665l-6.569,-33.592l33.593,6.568l10.228,-10.228l-44.947,-7.413l-5.63,-39.034l-9.57,9.571l4.879,29.088l-28.619,-5.348l-10.228,10.227l39.879,6.1Z" style="fill-rule:nonzero;"/><path d="M196.297,85.479l-21.3,-21.301l17.828,-17.828c1.939,-1.939 3.879,-3.659 5.818,-5.161c1.939,-1.501 3.941,-2.533 6.005,-3.096c2.065,-0.563 4.16,-0.532 6.287,0.094c2.127,0.625 4.379,2.127 6.756,4.504c3.566,3.565 5.13,7.35 4.692,11.353c-0.438,4.004 -3.191,8.539 -8.258,13.606l-17.828,17.829Zm-37.721,-19.893l66.997,66.997l32.372,-32.373c3.316,-3.315 5.693,-6.787 7.132,-10.415c1.439,-3.628 2.127,-7.194 2.064,-10.697c-0.062,-3.503 -0.813,-6.85 -2.252,-10.04c-1.439,-3.191 -3.378,-6.006 -5.818,-8.445c-4.128,-4.129 -8.726,-6.537 -13.793,-7.225c-5.067,-0.689 -10.103,0.594 -15.107,3.847l-0.188,-0.188c1.939,-4.441 2.471,-8.82 1.595,-13.137c-0.875,-4.316 -3.096,-8.257 -6.662,-11.823c-3.378,-3.378 -6.99,-5.457 -10.838,-6.239c-3.847,-0.782 -7.522,-0.735 -11.025,0.14c-1.626,0.376 -3.3,1.111 -5.02,2.205c-1.72,1.095 -3.472,2.378 -5.255,3.848c-1.782,1.47 -3.518,3.018 -5.207,4.644c-1.689,1.627 -3.253,3.159 -4.692,4.598l-24.303,24.303Zm68.404,50.576l-23.176,-23.177l20.362,-20.362c1.876,-1.876 3.862,-3.518 5.958,-4.926c2.096,-1.407 4.238,-2.361 6.427,-2.862c2.19,-0.5 4.411,-0.438 6.663,0.188c2.252,0.625 4.472,2.033 6.662,4.222c3.753,3.754 5.583,7.804 5.489,12.152c-0.094,4.347 -2.111,8.492 -6.052,12.433l-22.333,22.332Z" style="fill-rule:nonzero;"/></g><path d="M156.329,658.054l0,-291.937l34.634,145.966l-34.634,145.971Z" style="fill:#c4a484;fill-rule:nonzero;stroke:#000;stroke-width:13.25px;"/><path d="M358.563,432.467l-9.955,-0l0,-66.35l-159.237,145.966l159.237,145.971l0,-66.35l9.955,0l-0,-159.237Z" style="fill:#c4a484;fill-rule:nonzero;stroke:#000;stroke-width:13.25px;"/><g><path d="M197.391,228.95l-14.544,-14.544l-7.976,7.975l14.544,14.545l-8.257,8.257l7.038,7.037l8.257,-8.257l30.871,30.871c2.252,2.252 4.285,3.847 6.099,4.786c1.814,0.938 3.55,1.329 5.208,1.173c1.658,-0.157 3.362,-0.829 5.114,-2.018c1.751,-1.188 3.659,-2.815 5.724,-4.879l6.099,-6.099l-7.038,-7.038l-3.659,3.66c-1.251,1.251 -2.315,2.22 -3.19,2.909c-0.876,0.688 -1.689,1.094 -2.44,1.219c-0.751,0.125 -1.486,-0.015 -2.205,-0.422c-0.72,-0.407 -1.548,-1.079 -2.487,-2.017l-30.12,-30.121l9.665,-9.665l-7.038,-7.037l-9.665,9.665Z" style="fill-rule:nonzero;"/><path d="M215.876,210.465l48.512,48.511l7.976,-7.975l-27.399,-27.4c-2.19,-2.189 -3.91,-4.504 -5.161,-6.943c-1.251,-2.44 -1.971,-4.942 -2.158,-7.507c-0.188,-2.565 0.234,-5.114 1.266,-7.647c1.033,-2.534 2.769,-5.02 5.208,-7.46c3.065,-3.065 6.35,-4.598 9.853,-4.598c3.503,0 6.756,1.501 9.758,4.504l32.842,32.842l7.976,-7.976l-31.904,-31.903c-2.627,-2.628 -5.286,-4.755 -7.975,-6.381c-2.69,-1.627 -5.474,-2.565 -8.352,-2.815c-2.877,-0.25 -5.817,0.25 -8.82,1.501c-3.003,1.251 -6.099,3.472 -9.289,6.662c-7.194,7.194 -9.509,15.389 -6.944,24.585l-0.188,0.187l-7.694,-7.694l-7.507,7.507Z" style="fill-rule:nonzero;"/><path d="M268.329,158.012l66.997,66.997l7.976,-7.976l-24.96,-24.96l0.188,-0.187c2.314,0.563 4.598,0.688 6.85,0.375c2.252,-0.313 4.379,-0.907 6.38,-1.783c2.002,-0.876 3.863,-1.923 5.583,-3.143c1.721,-1.22 3.175,-2.424 4.364,-3.613c3.69,-3.691 6.271,-7.585 7.741,-11.682c1.47,-4.097 1.986,-8.21 1.548,-12.339c-0.438,-4.129 -1.736,-8.179 -3.894,-12.151c-2.158,-3.973 -4.958,-7.679 -8.398,-11.12c-3.441,-3.44 -7.163,-6.224 -11.166,-8.351c-4.004,-2.127 -8.101,-3.44 -12.292,-3.941c-4.192,-0.5 -8.367,-0.047 -12.527,1.361c-4.16,1.407 -8.117,3.988 -11.87,7.741c-3.378,3.378 -5.865,7.084 -7.46,11.119c-1.595,4.035 -1.704,8.054 -0.328,12.058l-0.188,0.187l-6.568,-6.568l-7.976,7.976Zm61.367,-13.7c2.377,2.377 4.441,4.942 6.193,7.695c1.751,2.752 2.94,5.567 3.566,8.445c0.625,2.877 0.547,5.77 -0.235,8.679c-0.782,2.909 -2.549,5.74 -5.302,8.492c-2.752,2.752 -5.614,4.582 -8.585,5.489c-2.972,0.907 -5.912,1.126 -8.821,0.657c-2.908,-0.469 -5.755,-1.532 -8.538,-3.19c-2.784,-1.658 -5.365,-3.675 -7.742,-6.052c-2.252,-2.252 -4.206,-4.739 -5.864,-7.46c-1.658,-2.721 -2.753,-5.536 -3.284,-8.445c-0.532,-2.909 -0.391,-5.833 0.422,-8.774c0.813,-2.94 2.565,-5.755 5.255,-8.445c2.564,-2.564 5.301,-4.3 8.21,-5.207c2.909,-0.907 5.818,-1.126 8.726,-0.657c2.909,0.469 5.74,1.486 8.492,3.049c2.753,1.564 5.255,3.472 7.507,5.724Z" style="fill-rule:nonzero;"/></g><path d="M395.783,432.467l84.596,-0l0,-66.35l159.238,145.966l-159.238,145.971l0,-66.35l-84.596,0l0,-159.237Z" style="fill:#00f;fill-rule:nonzero;stroke:#000;stroke-width:13.25px;"/><g><path d="M526.607,240.489l-33.03,-63.994l-8.257,8.257l28.807,50.576l-0.188,0.188l-49.825,-29.558l-8.727,8.727l29.933,49.45l-0.188,0.188l-50.669,-28.713l-8.821,8.82l64.088,32.935l8.633,-8.632l-28.807,-48.324l0.188,-0.188l48.418,28.713l8.445,-8.445Z" style="fill-rule:nonzero;"/><path d="M539.649,215.248l6.1,6.099l40.911,-40.911l-7.038,-7.038l-30.965,30.965l-6.38,-65.683l-5.442,-5.442l-37.721,37.721l7.037,7.037l27.399,-27.399l6.099,64.651Z" style="fill-rule:nonzero;"/><path d="M632.45,126.388l-44.383,-44.383l-7.506,7.507l6.943,6.943l-0.093,0.094c-4.129,-1.251 -8.148,-1.267 -12.058,-0.047c-3.91,1.22 -7.397,3.362 -10.462,6.428c-4.192,4.191 -6.928,8.523 -8.211,12.996c-1.282,4.472 -1.564,8.82 -0.844,13.042c0.719,4.223 2.22,8.226 4.504,12.011c2.283,3.785 4.863,7.116 7.741,9.993c3.315,3.316 6.912,6.006 10.791,8.07c3.878,2.064 7.835,3.3 11.87,3.706c4.034,0.407 8.054,-0.078 12.057,-1.454c4.004,-1.376 7.82,-3.879 11.448,-7.507c3.128,-3.128 5.38,-6.787 6.756,-10.978c1.376,-4.191 1.251,-8.476 -0.376,-12.855l0.188,-0.188l3.19,3.19c2.69,2.69 4.895,5.427 6.616,8.211c1.72,2.783 2.783,5.567 3.19,8.351c0.407,2.784 0.156,5.536 -0.751,8.257c-0.907,2.721 -2.674,5.396 -5.301,8.023c-1.314,1.314 -2.831,2.549 -4.551,3.706c-1.72,1.158 -3.503,2.033 -5.349,2.628c-1.845,0.594 -3.69,0.813 -5.536,0.656c-1.845,-0.156 -3.519,-0.922 -5.02,-2.298l-7.976,7.975c2.753,2.503 5.662,4.035 8.727,4.598c3.065,0.563 6.115,0.454 9.149,-0.328c3.033,-0.782 5.974,-2.096 8.82,-3.941c2.846,-1.846 5.395,-3.894 7.647,-6.146c7.757,-7.757 11.479,-15.42 11.166,-22.989c-0.312,-7.57 -4.441,-15.326 -12.386,-23.271Zm-24.678,19.986c-2.627,2.628 -5.364,4.27 -8.21,4.927c-2.846,0.656 -5.693,0.625 -8.539,-0.094c-2.846,-0.72 -5.583,-1.955 -8.21,-3.707c-2.628,-1.751 -5.036,-3.722 -7.225,-5.911c-2.315,-2.315 -4.27,-4.801 -5.865,-7.46c-1.595,-2.658 -2.627,-5.38 -3.096,-8.163c-0.47,-2.784 -0.282,-5.568 0.563,-8.351c0.844,-2.784 2.549,-5.458 5.113,-8.023c2.503,-2.502 5.13,-4.129 7.882,-4.879c2.753,-0.751 5.505,-0.845 8.258,-0.282c2.752,0.563 5.411,1.626 7.976,3.19c2.564,1.564 4.91,3.41 7.037,5.537c2.252,2.252 4.238,4.769 5.958,7.553c1.721,2.784 2.909,5.63 3.566,8.539c0.657,2.909 0.61,5.833 -0.141,8.773c-0.75,2.94 -2.439,5.724 -5.067,8.351Z" style="fill-rule:nonzero;"/></g><path d="M639.813,658.054l-0,-291.937l145.504,145.966l-145.504,145.971Z" style="fill:#00f;fill-rule:nonzero;stroke:#000;stroke-width:13.25px;"/><g><path d="M721.477,240.49l-33.03,-63.994l-8.257,8.257l28.807,50.577l-0.188,0.187l-49.825,-29.557l-8.727,8.726l29.933,49.45l-0.188,0.188l-50.67,-28.713l-8.82,8.82l64.088,32.936l8.633,-8.633l-28.807,-48.324l0.188,-0.188l48.418,28.713l8.445,-8.445Z" style="fill-rule:nonzero;"/><path d="M734.519,215.249l6.099,6.099l40.912,-40.911l-7.038,-7.037l-30.965,30.965l-6.38,-65.684l-5.443,-5.442l-37.721,37.721l7.038,7.037l27.399,-27.399l6.099,64.651Z" style="fill-rule:nonzero;"/><path d="M722.603,105.371l66.996,66.996l7.976,-7.975l-27.399,-27.4c-2.19,-2.189 -3.91,-4.504 -5.161,-6.943c-1.251,-2.44 -1.97,-4.942 -2.158,-7.507c-0.188,-2.565 0.234,-5.114 1.267,-7.647c1.032,-2.534 2.768,-5.02 5.207,-7.46c3.066,-3.065 6.35,-4.598 9.853,-4.598c3.503,0 6.756,1.502 9.759,4.504l32.841,32.842l7.976,-7.976l-31.903,-31.903c-2.628,-2.628 -5.286,-4.755 -7.976,-6.381c-2.69,-1.626 -5.474,-2.565 -8.351,-2.815c-2.878,-0.25 -5.818,0.25 -8.821,1.501c-3.002,1.251 -6.099,3.472 -9.289,6.663c-1.439,1.438 -2.768,3.08 -3.988,4.926c-1.22,1.845 -2.205,3.8 -2.956,5.864c-0.75,2.065 -1.173,4.176 -1.266,6.334c-0.094,2.158 0.297,4.301 1.172,6.428l-0.187,0.187l-25.617,-25.616l-7.975,7.976Z" style="fill-rule:nonzero;"/></g><path d="M786.908,658.054l0,-291.937l137.942,145.966l-137.942,145.971Z" style="fill:#00f;fill-rule:nonzero;stroke:#000;stroke-width:13.25px;"/><g><path d="M864.79,240.491l-33.03,-63.995l-8.257,8.258l28.807,50.576l-0.188,0.187l-49.825,-29.557l-8.727,8.726l29.933,49.45l-0.188,0.188l-50.67,-28.713l-8.82,8.821l64.088,32.935l8.633,-8.633l-28.807,-48.324l0.188,-0.187l48.418,28.713l8.445,-8.445Z" style="fill-rule:nonzero;"/><path d="M877.832,215.249l6.099,6.1l40.912,-40.912l-7.038,-7.037l-30.965,30.965l-6.38,-65.683l-5.443,-5.443l-37.721,37.721l7.038,7.038l27.399,-27.4l6.099,64.651Z" style="fill-rule:nonzero;"/><path d="M914.896,142.716c-2.377,-2.377 -4.441,-4.941 -6.193,-7.694c-1.751,-2.752 -2.94,-5.567 -3.565,-8.445c-0.626,-2.877 -0.532,-5.786 0.281,-8.726c0.813,-2.94 2.565,-5.755 5.255,-8.445c2.752,-2.753 5.614,-4.582 8.586,-5.49c2.971,-0.907 5.911,-1.126 8.82,-0.656c2.909,0.469 5.755,1.532 8.539,3.19c2.783,1.658 5.364,3.675 7.741,6.052c2.252,2.252 4.207,4.739 5.865,7.46c1.657,2.721 2.752,5.536 3.284,8.445c0.531,2.909 0.391,5.833 -0.423,8.773c-0.813,2.94 -2.564,5.755 -5.254,8.445c-2.565,2.565 -5.302,4.301 -8.211,5.208c-2.908,0.907 -5.817,1.126 -8.726,0.657c-2.909,-0.469 -5.74,-1.486 -8.492,-3.05c-2.752,-1.564 -5.255,-3.472 -7.507,-5.724Zm61.367,-13.699l-66.997,-66.997l-7.975,7.976l24.959,24.959l-0.187,0.188c-2.315,-0.563 -4.598,-0.688 -6.85,-0.375c-2.252,0.313 -4.395,0.891 -6.428,1.736c-2.033,0.844 -3.894,1.861 -5.583,3.049c-1.689,1.189 -3.159,2.409 -4.41,3.66c-3.691,3.691 -6.256,7.6 -7.694,11.729c-1.439,4.129 -1.94,8.257 -1.502,12.386c0.438,4.128 1.736,8.179 3.894,12.151c2.158,3.972 4.958,7.679 8.398,11.119c3.441,3.441 7.163,6.225 11.167,8.352c4.003,2.126 8.085,3.425 12.245,3.894c4.16,0.469 8.32,-0 12.48,-1.408c4.159,-1.407 8.116,-3.988 11.869,-7.741c3.378,-3.378 5.881,-7.069 7.507,-11.072c1.627,-4.004 1.752,-8.007 0.375,-12.011l0.188,-0.188l6.568,6.569l7.976,-7.976Z" style="fill-rule:nonzero;"/></g><path d="M926.642,658.054l-0,-291.937l82.404,145.966l-82.404,145.971Z" style="fill:#0ff;fill-rule:nonzero;stroke:#000;stroke-width:13.25px;"/><g><path d="M976.753,240.492l-33.03,-63.994l-8.257,8.257l28.807,50.576l-0.188,0.188l-49.825,-29.558l-8.727,8.727l29.933,49.45l-0.188,0.188l-50.67,-28.713l-8.82,8.82l64.088,32.935l8.633,-8.632l-28.807,-48.324l0.188,-0.188l48.418,28.713l8.445,-8.445Z" style="fill-rule:nonzero;"/><path d="M989.795,215.251l6.1,6.099l40.911,-40.911l-7.038,-7.038l-30.965,30.965l-6.38,-65.683l-5.443,-5.442l-37.721,37.721l7.038,7.037l27.399,-27.399l6.099,64.651Z" style="fill-rule:nonzero;"/><path d="M1049.66,109.782l-27.869,27.869c-1.751,-2.002 -3.112,-4.176 -4.081,-6.522c-0.97,-2.345 -1.486,-4.738 -1.549,-7.178c-0.062,-2.439 0.376,-4.848 1.314,-7.225c0.938,-2.377 2.44,-4.598 4.504,-6.662c2.002,-2.002 4.191,-3.472 6.568,-4.41c2.378,-0.939 4.786,-1.408 7.226,-1.408c2.439,0 4.863,0.485 7.272,1.455c2.408,0.969 4.613,2.33 6.615,4.081Zm21.206,5.818l-7.882,7.882c2.502,3.878 3.456,7.679 2.862,11.401c-0.594,3.722 -2.58,7.272 -5.958,10.65c-2.628,2.627 -5.349,4.473 -8.164,5.536c-2.815,1.063 -5.583,1.486 -8.304,1.267c-2.721,-0.219 -5.317,-1.001 -7.788,-2.346c-2.471,-1.345 -4.739,-3.112 -6.803,-5.302l36.313,-36.313c-2.815,-3.065 -6.177,-5.896 -10.087,-8.492c-3.909,-2.596 -8.101,-4.41 -12.573,-5.442c-4.473,-1.032 -9.024,-1.017 -13.653,0.047c-4.629,1.063 -9.102,3.753 -13.418,8.069c-3.316,3.316 -5.74,6.991 -7.272,11.026c-1.533,4.034 -2.19,8.194 -1.971,12.479c0.219,4.286 1.298,8.524 3.237,12.715c1.94,4.191 4.755,8.132 8.445,11.823c3.816,3.565 7.773,6.427 11.87,8.586c4.098,2.158 8.242,3.393 12.433,3.706c4.191,0.313 8.336,-0.328 12.433,-1.924c4.097,-1.595 8.085,-4.332 11.964,-8.21c5.505,-5.505 8.695,-11.448 9.571,-17.828c0.876,-6.381 -0.876,-12.824 -5.255,-19.33Z" style="fill-rule:nonzero;"/></g><path d="M1122.1,658.054l0,-291.937l99.725,145.966l-99.725,145.971Z" style="fill:#c4a484;fill-rule:nonzero;stroke:#000;stroke-width:13.25px;"/><g><path d="M1095.39,228.946l-14.544,-14.545l-7.976,7.976l14.544,14.544l-8.257,8.258l7.037,7.037l8.258,-8.257l30.871,30.871c2.252,2.252 4.285,3.847 6.099,4.785c1.814,0.939 3.55,1.33 5.208,1.173c1.657,-0.156 3.362,-0.829 5.114,-2.017c1.751,-1.189 3.659,-2.815 5.723,-4.879l6.1,-6.1l-7.038,-7.037l-3.659,3.659c-1.251,1.252 -2.315,2.221 -3.191,2.909c-0.875,0.688 -1.689,1.095 -2.439,1.22c-0.751,0.125 -1.486,-0.016 -2.205,-0.422c-0.72,-0.407 -1.549,-1.079 -2.487,-2.018l-30.12,-30.12l9.664,-9.665l-7.037,-7.037l-9.665,9.665Z" style="fill-rule:nonzero;"/><path d="M1113.88,210.46l48.512,48.512l7.976,-7.976l-27.4,-27.399c-2.189,-2.189 -3.909,-4.504 -5.16,-6.944c-1.251,-2.439 -1.971,-4.941 -2.159,-7.506c-0.187,-2.565 0.235,-5.114 1.267,-7.648c1.032,-2.533 2.768,-5.02 5.208,-7.459c3.065,-3.066 6.349,-4.598 9.852,-4.598c3.504,-0 6.756,1.501 9.759,4.504l32.842,32.841l7.975,-7.975l-31.903,-31.904c-2.627,-2.627 -5.286,-4.754 -7.976,-6.38c-2.689,-1.627 -5.473,-2.565 -8.351,-2.815c-2.877,-0.251 -5.817,0.25 -8.82,1.501c-3.003,1.251 -6.099,3.472 -9.29,6.662c-7.193,7.194 -9.508,15.389 -6.943,24.584l-0.188,0.188l-7.694,-7.694l-7.507,7.506Z" style="fill-rule:nonzero;"/><path d="M1166.33,158.008l66.997,66.997l7.976,-7.976l-24.96,-24.96l0.188,-0.188c2.314,0.563 4.597,0.689 6.849,0.376c2.252,-0.313 4.379,-0.907 6.381,-1.783c2.002,-0.876 3.863,-1.924 5.583,-3.143c1.72,-1.22 3.175,-2.424 4.363,-3.613c3.691,-3.691 6.272,-7.585 7.742,-11.682c1.47,-4.098 1.986,-8.211 1.548,-12.339c-0.438,-4.129 -1.736,-8.179 -3.894,-12.152c-2.158,-3.972 -4.958,-7.678 -8.398,-11.119c-3.441,-3.44 -7.163,-6.224 -11.166,-8.351c-4.004,-2.127 -8.101,-3.441 -12.293,-3.941c-4.191,-0.5 -8.366,-0.047 -12.526,1.361c-4.16,1.407 -8.117,3.987 -11.87,7.741c-3.378,3.378 -5.865,7.084 -7.46,11.119c-1.595,4.035 -1.705,8.054 -0.328,12.058l-0.188,0.187l-6.568,-6.568l-7.976,7.976Zm61.367,-13.7c2.377,2.377 4.441,4.942 6.193,7.694c1.751,2.753 2.94,5.568 3.565,8.445c0.626,2.878 0.548,5.771 -0.234,8.68c-0.782,2.909 -2.549,5.739 -5.302,8.492c-2.752,2.752 -5.614,4.582 -8.586,5.489c-2.971,0.907 -5.911,1.126 -8.82,0.657c-2.909,-0.469 -5.755,-1.533 -8.539,-3.19c-2.783,-1.658 -5.364,-3.676 -7.741,-6.053c-2.252,-2.252 -4.207,-4.738 -5.864,-7.459c-1.658,-2.722 -2.753,-5.537 -3.285,-8.445c-0.531,-2.909 -0.391,-5.834 0.423,-8.774c0.813,-2.94 2.564,-5.755 5.254,-8.445c2.565,-2.564 5.302,-4.3 8.211,-5.207c2.909,-0.908 5.817,-1.126 8.726,-0.657c2.909,0.469 5.74,1.485 8.492,3.049c2.753,1.564 5.255,3.472 7.507,5.724Z" style="fill-rule:nonzero;"/></g><path d="M1237.35,432.467l76.633,-0l0,-66.35l159.238,145.966l-159.238,145.971l0,-66.35l-76.633,0l0,-159.237Z" style="fill:#f3cfc6;fill-rule:nonzero;stroke:#000;stroke-width:13.25px;"/><g><path d="M1356.32,248.371l-48.511,-48.512l-7.976,7.976l27.399,27.399c2.189,2.19 3.91,4.504 5.161,6.944c1.251,2.439 1.97,4.942 2.158,7.506c0.188,2.565 -0.235,5.114 -1.267,7.648c-1.032,2.533 -2.768,5.02 -5.208,7.46c-3.065,3.065 -6.349,4.597 -9.852,4.597c-3.503,0 -6.756,-1.501 -9.759,-4.504l-32.841,-32.841l-7.976,7.976l31.903,31.903c2.628,2.627 5.286,4.754 7.976,6.38c2.69,1.627 5.474,2.565 8.351,2.815c2.878,0.251 5.802,-0.265 8.774,-1.548c2.971,-1.282 6.052,-3.518 9.242,-6.709c3.566,-3.565 5.959,-7.366 7.178,-11.401c1.22,-4.034 1.173,-8.398 -0.14,-13.089l0.187,-0.188l7.695,7.694l7.506,-7.506Z" style="fill-rule:nonzero;"/><path d="M1406.05,190.382l-44.383,-44.383l-7.507,7.506l6.944,6.944l-0.094,0.094c-4.129,-1.251 -8.148,-1.267 -12.058,-0.047c-3.909,1.22 -7.397,3.362 -10.462,6.428c-4.191,4.191 -6.928,8.523 -8.21,12.995c-1.283,4.473 -1.564,8.821 -0.845,13.043c0.719,4.223 2.221,8.226 4.504,12.011c2.283,3.785 4.864,7.116 7.741,9.993c3.316,3.316 6.913,6.005 10.791,8.07c3.879,2.064 7.835,3.3 11.87,3.706c4.035,0.407 8.054,-0.078 12.058,-1.454c4.003,-1.376 7.819,-3.879 11.447,-7.507c3.128,-3.128 5.38,-6.787 6.756,-10.978c1.376,-4.192 1.251,-8.477 -0.375,-12.855l0.187,-0.188l3.191,3.19c2.69,2.69 4.895,5.427 6.615,8.211c1.72,2.783 2.784,5.567 3.19,8.351c0.407,2.783 0.157,5.536 -0.75,8.257c-0.907,2.721 -2.675,5.395 -5.302,8.023c-1.314,1.313 -2.831,2.549 -4.551,3.706c-1.72,1.157 -3.503,2.033 -5.348,2.628c-1.846,0.594 -3.691,0.813 -5.536,0.656c-1.846,-0.156 -3.519,-0.922 -5.02,-2.299l-7.976,7.976c2.752,2.502 5.661,4.035 8.726,4.598c3.065,0.563 6.115,0.454 9.149,-0.328c3.034,-0.782 5.974,-2.096 8.82,-3.941c2.846,-1.846 5.396,-3.894 7.648,-6.146c7.756,-7.757 11.479,-15.42 11.166,-22.99c-0.313,-7.569 -4.442,-15.326 -12.386,-23.27Zm-24.678,19.986c-2.628,2.628 -5.364,4.27 -8.211,4.927c-2.846,0.656 -5.692,0.625 -8.539,-0.094c-2.846,-0.72 -5.583,-1.955 -8.21,-3.707c-2.627,-1.751 -5.036,-3.722 -7.225,-5.911c-2.315,-2.315 -4.269,-4.801 -5.865,-7.46c-1.595,-2.658 -2.627,-5.38 -3.096,-8.163c-0.469,-2.784 -0.282,-5.568 0.563,-8.352c0.844,-2.783 2.549,-5.457 5.114,-8.022c2.502,-2.502 5.129,-4.129 7.882,-4.88c2.752,-0.75 5.505,-0.844 8.257,-0.281c2.752,0.563 5.411,1.626 7.976,3.19c2.565,1.564 4.91,3.41 7.037,5.536c2.252,2.252 4.238,4.77 5.959,7.554c1.72,2.784 2.909,5.63 3.565,8.539c0.657,2.909 0.61,5.833 -0.14,8.773c-0.751,2.94 -2.44,5.724 -5.067,8.351Z" style="fill-rule:nonzero;"/><path d="M1404.17,152.849c-2.377,-2.377 -4.441,-4.942 -6.193,-7.695c-1.751,-2.752 -2.94,-5.567 -3.566,-8.445c-0.625,-2.877 -0.531,-5.786 0.282,-8.726c0.813,-2.94 2.565,-5.755 5.255,-8.445c2.752,-2.753 5.614,-4.582 8.585,-5.489c2.972,-0.907 5.912,-1.126 8.821,-0.657c2.908,0.469 5.755,1.532 8.538,3.19c2.784,1.658 5.365,3.675 7.742,6.052c2.252,2.252 4.207,4.739 5.864,7.46c1.658,2.721 2.753,5.536 3.284,8.445c0.532,2.909 0.391,5.833 -0.422,8.773c-0.813,2.941 -2.565,5.756 -5.254,8.445c-2.565,2.565 -5.302,4.301 -8.211,5.208c-2.909,0.907 -5.818,1.126 -8.726,0.657c-2.909,-0.469 -5.74,-1.486 -8.492,-3.05c-2.753,-1.563 -5.255,-3.471 -7.507,-5.723Zm61.367,-13.7l-66.997,-66.997l-7.976,7.976l24.96,24.96l-0.188,0.187c-2.314,-0.563 -4.598,-0.688 -6.85,-0.375c-2.252,0.313 -4.394,0.891 -6.427,1.736c-2.033,0.844 -3.894,1.861 -5.583,3.049c-1.689,1.189 -3.159,2.409 -4.41,3.66c-3.691,3.691 -6.256,7.6 -7.695,11.729c-1.438,4.129 -1.939,8.257 -1.501,12.386c0.438,4.129 1.736,8.179 3.894,12.151c2.158,3.973 4.958,7.679 8.398,11.12c3.441,3.44 7.163,6.224 11.166,8.351c4.004,2.127 8.086,3.425 12.245,3.894c4.16,0.469 8.32,-0 12.48,-1.408c4.16,-1.407 8.117,-3.988 11.87,-7.741c3.378,-3.378 5.88,-7.069 7.507,-11.072c1.626,-4.004 1.751,-8.007 0.375,-12.011l0.188,-0.187l6.568,6.568l7.976,-7.976Z" style="fill-rule:nonzero;"/></g><path d="M1476.21,432.467l90.366,-0l0,-66.35l159.238,145.966l-159.238,145.971l0,-66.35l-90.366,0l-0,-159.237Z" style="fill:#d17373;fill-rule:nonzero;stroke:#000;stroke-width:13.25px;"/><g><path d="M1609.92,240.489l-33.029,-63.994l-8.258,8.257l28.807,50.576l-0.188,0.188l-49.825,-29.558l-8.726,8.727l29.932,49.45l-0.187,0.188l-50.67,-28.713l-8.821,8.82l64.089,32.935l8.632,-8.632l-28.807,-48.324l0.188,-0.188l48.418,28.713l8.445,-8.445Z" style="fill-rule:nonzero;"/><path d="M1633.01,151.535l8.257,-8.257c-3.19,-2.565 -6.427,-4.301 -9.712,-5.208c-3.284,-0.907 -6.537,-1.126 -9.758,-0.657c-3.222,0.47 -6.365,1.58 -9.43,3.331c-3.066,1.752 -5.974,4.004 -8.727,6.756c-3.816,3.816 -6.49,7.836 -8.023,12.058c-1.532,4.223 -2.08,8.461 -1.642,12.714c0.438,4.254 1.767,8.43 3.988,12.527c2.221,4.097 5.145,7.96 8.774,11.589c3.628,3.628 7.444,6.474 11.447,8.538c4.004,2.065 8.054,3.238 12.152,3.519c4.097,0.282 8.163,-0.407 12.198,-2.064c4.035,-1.658 7.898,-4.332 11.588,-8.023c6.193,-6.193 9.462,-12.714 9.806,-19.564c0.344,-6.85 -2.049,-13.715 -7.178,-20.597l-8.164,8.164c3.253,4.254 4.801,8.523 4.645,12.808c-0.157,4.285 -2.205,8.398 -6.146,12.339c-2.502,2.502 -5.161,4.16 -7.976,4.973c-2.815,0.814 -5.614,0.954 -8.398,0.423c-2.784,-0.532 -5.505,-1.596 -8.164,-3.191c-2.658,-1.595 -5.113,-3.518 -7.365,-5.77c-2.44,-2.44 -4.551,-5.052 -6.334,-7.836c-1.783,-2.783 -2.972,-5.63 -3.566,-8.538c-0.594,-2.909 -0.453,-5.865 0.422,-8.868c0.876,-3.002 2.753,-5.942 5.63,-8.82c3.378,-3.378 6.913,-5.223 10.604,-5.536c3.69,-0.313 7.381,0.751 11.072,3.19Z" style="fill-rule:nonzero;"/><path d="M1616.4,100.021l66.997,66.997l7.976,-7.976l-27.399,-27.399c-2.19,-2.19 -3.91,-4.504 -5.161,-6.944c-1.251,-2.44 -1.971,-4.942 -2.158,-7.507c-0.188,-2.564 0.234,-5.114 1.267,-7.647c1.032,-2.534 2.768,-5.02 5.207,-7.46c3.065,-3.065 6.35,-4.598 9.853,-4.598c3.503,0 6.756,1.502 9.758,4.504l32.842,32.842l7.976,-7.976l-31.903,-31.903c-2.628,-2.627 -5.286,-4.754 -7.976,-6.381c-2.69,-1.626 -5.474,-2.564 -8.351,-2.815c-2.878,-0.25 -5.818,0.251 -8.821,1.502c-3.002,1.251 -6.099,3.471 -9.289,6.662c-1.439,1.439 -2.768,3.081 -3.988,4.926c-1.22,1.845 -2.205,3.8 -2.956,5.865c-0.751,2.064 -1.173,4.175 -1.267,6.333c-0.093,2.158 0.298,4.301 1.173,6.428l-0.187,0.188l-25.617,-25.617l-7.976,7.976Z" style="fill-rule:nonzero;"/><path d="M1669.88,46.536l66.997,66.997l46.541,-46.541l-7.506,-7.507l-37.627,37.627l-23.177,-23.177l34.812,-34.812l-7.507,-7.506l-34.812,34.812l-21.3,-21.3l37.346,-37.346l-7.507,-7.507l-46.26,46.26Z" style="fill-rule:nonzero;"/></g><path d="M1784.93,432.467l24.084,-0l-0,-66.35l159.237,145.966l-159.237,145.971l-0,-66.35l-24.084,0l0,-159.237Z" style="fill:#88e3e3;fill-rule:nonzero;stroke:#000;stroke-width:13.25px;"/><g><path d="M1875.18,242.556l-44.383,-44.383l-7.507,7.507l6.944,6.943l-0.094,0.094c-4.128,-1.251 -8.148,-1.267 -12.057,-0.047c-3.91,1.22 -7.398,3.363 -10.463,6.428c-4.191,4.191 -6.928,8.523 -8.21,12.996c-1.283,4.472 -1.564,8.82 -0.845,13.043c0.72,4.222 2.221,8.226 4.504,12.01c2.284,3.785 4.864,7.116 7.742,9.993c3.315,3.316 6.912,6.006 10.79,8.07c3.879,2.064 7.835,3.3 11.87,3.706c4.035,0.407 8.054,-0.078 12.058,-1.454c4.003,-1.376 7.819,-3.878 11.447,-7.507c3.128,-3.127 5.38,-6.787 6.756,-10.978c1.377,-4.191 1.252,-8.476 -0.375,-12.855l0.188,-0.188l3.19,3.19c2.69,2.69 4.895,5.427 6.615,8.211c1.721,2.784 2.784,5.567 3.191,8.351c0.406,2.784 0.156,5.536 -0.751,8.257c-0.907,2.721 -2.674,5.396 -5.302,8.023c-1.313,1.314 -2.83,2.549 -4.55,3.706c-1.721,1.158 -3.504,2.033 -5.349,2.628c-1.845,0.594 -3.691,0.813 -5.536,0.657c-1.846,-0.157 -3.519,-0.923 -5.02,-2.299l-7.976,7.975c2.752,2.503 5.661,4.035 8.726,4.598c3.066,0.563 6.115,0.454 9.149,-0.328c3.034,-0.782 5.974,-2.096 8.82,-3.941c2.847,-1.846 5.396,-3.894 7.648,-6.146c7.757,-7.757 11.479,-15.42 11.166,-22.989c-0.313,-7.569 -4.441,-15.326 -12.386,-23.271Zm-24.678,19.987c-2.627,2.627 -5.364,4.269 -8.21,4.926c-2.847,0.657 -5.693,0.625 -8.539,-0.094c-2.847,-0.719 -5.583,-1.955 -8.211,-3.706c-2.627,-1.752 -5.035,-3.723 -7.225,-5.912c-2.314,-2.314 -4.269,-4.801 -5.864,-7.46c-1.596,-2.658 -2.628,-5.379 -3.097,-8.163c-0.469,-2.784 -0.281,-5.568 0.563,-8.351c0.845,-2.784 2.549,-5.458 5.114,-8.023c2.502,-2.502 5.13,-4.129 7.882,-4.879c2.752,-0.751 5.505,-0.845 8.257,-0.282c2.753,0.563 5.411,1.627 7.976,3.19c2.565,1.564 4.911,3.41 7.038,5.537c2.252,2.252 4.238,4.769 5.958,7.553c1.72,2.784 2.909,5.63 3.566,8.539c0.657,2.909 0.61,5.833 -0.141,8.773c-0.751,2.941 -2.44,5.724 -5.067,8.352Z" style="fill-rule:nonzero;"/><path d="M1934.11,191.511c-0.563,2.189 -2.064,4.504 -4.504,6.944c-2.064,2.064 -4.285,3.127 -6.662,3.19c-2.377,0.062 -4.879,-1.22 -7.507,-3.847c0.438,4.816 -0.218,9.258 -1.97,13.324c-1.752,4.066 -4.316,7.788 -7.694,11.166c-2.19,2.19 -4.52,4.019 -6.991,5.489c-2.471,1.47 -4.957,2.393 -7.46,2.768c-2.502,0.376 -5.035,0.126 -7.6,-0.75c-2.565,-0.876 -5.067,-2.534 -7.507,-4.973c-2.752,-2.753 -4.535,-5.474 -5.348,-8.164c-0.813,-2.69 -1.001,-5.348 -0.563,-7.976c0.438,-2.627 1.36,-5.207 2.768,-7.741c1.407,-2.533 2.956,-5.02 4.645,-7.46c1.751,-2.627 3.503,-5.035 5.254,-7.225c1.752,-2.189 3.175,-4.238 4.27,-6.146c1.094,-1.908 1.689,-3.691 1.782,-5.348c0.094,-1.658 -0.609,-3.238 -2.111,-4.739c-1.751,-1.751 -3.487,-2.831 -5.208,-3.237c-1.72,-0.407 -3.378,-0.375 -4.973,0.094c-1.595,0.469 -3.127,1.251 -4.598,2.346c-1.47,1.094 -2.83,2.267 -4.081,3.518c-3.378,3.378 -5.552,6.834 -6.522,10.369c-0.969,3.534 0.235,7.178 3.613,10.931l-7.976,7.976c-2.877,-3.128 -4.785,-6.287 -5.724,-9.477c-0.938,-3.19 -1.11,-6.365 -0.516,-9.524c0.594,-3.159 1.814,-6.224 3.66,-9.196c1.845,-2.971 4.144,-5.833 6.896,-8.585c2.19,-2.19 4.52,-4.207 6.991,-6.053c2.471,-1.845 5.067,-3.159 7.788,-3.941c2.721,-0.782 5.489,-0.828 8.304,-0.14c2.815,0.688 5.63,2.439 8.445,5.254l24.96,24.96c1.877,1.877 3.362,3.143 4.457,3.8c1.095,0.657 2.268,0.36 3.519,-0.891c0.688,-0.688 1.345,-1.658 1.97,-2.909l6.193,6.193Zm-37.814,-11.917c-0.251,1.752 -1.017,3.613 -2.299,5.583c-1.283,1.971 -2.706,3.957 -4.27,5.959c-1.564,2.001 -3.112,4.05 -4.645,6.146c-1.532,2.095 -2.705,4.175 -3.518,6.24c-0.814,2.064 -1.095,4.128 -0.845,6.193c0.25,2.064 1.376,4.097 3.378,6.099c1.314,1.313 2.69,2.158 4.129,2.533c1.439,0.375 2.862,0.422 4.269,0.141c1.408,-0.282 2.8,-0.86 4.176,-1.736c1.376,-0.876 2.69,-1.939 3.941,-3.19c2.627,-2.628 4.519,-5.239 5.677,-7.835c1.157,-2.596 1.783,-5.036 1.876,-7.319c0.094,-2.284 -0.219,-4.348 -0.938,-6.193c-0.719,-1.846 -1.642,-3.331 -2.768,-4.457l-8.163,-8.164Z" style="fill-rule:nonzero;"/><path d="M1875.18,116.82l66.997,66.997l7.976,-7.976l-66.997,-66.997l-7.976,7.976Z" style="fill-rule:nonzero;"/><path d="M1993.13,84.447l-42.788,-42.788l-8.914,8.915l42.788,42.787c6.005,6.006 9.071,12.042 9.196,18.11c0.125,6.068 -2.659,11.948 -8.351,17.641c-6.006,6.005 -12.152,9.055 -18.439,9.149c-6.286,0.093 -12.432,-2.862 -18.438,-8.868l-42.788,-42.788l-8.914,8.915l42.788,42.788c8.945,8.945 17.891,13.042 26.836,12.292c8.946,-0.751 17.735,-5.443 26.367,-14.075c8.445,-8.445 12.809,-17.094 13.09,-25.945c0.282,-8.852 -3.863,-17.563 -12.433,-26.133Z" style="fill-rule:nonzero;"/></g><path d="M1967.46,432.467l23.488,-0l-0,-66.35l159.237,145.966l-159.237,145.971l-0,-66.35l-23.488,0l0,-159.237Z" style="fill:#ffa500;fill-rule:nonzero;stroke:#000;stroke-width:13.25px;"/><g><path d="M1971.46,239.74l66.997,66.997l7.975,-7.976l-24.959,-24.96l0.188,-0.188c2.314,0.563 4.597,0.689 6.849,0.376c2.252,-0.313 4.379,-0.907 6.381,-1.783c2.002,-0.876 3.863,-1.924 5.583,-3.143c1.72,-1.22 3.175,-2.424 4.363,-3.613c3.691,-3.691 6.271,-7.585 7.742,-11.682c1.47,-4.098 1.986,-8.211 1.548,-12.339c-0.438,-4.129 -1.736,-8.179 -3.894,-12.152c-2.158,-3.972 -4.958,-7.678 -8.398,-11.119c-3.441,-3.44 -7.163,-6.224 -11.167,-8.351c-4.003,-2.127 -8.1,-3.441 -12.292,-3.941c-4.191,-0.5 -8.366,-0.047 -12.526,1.361c-4.16,1.407 -8.117,3.987 -11.87,7.741c-3.378,3.378 -5.865,7.084 -7.46,11.119c-1.595,4.035 -1.705,8.054 -0.328,12.058l-0.188,0.187l-6.568,-6.568l-7.976,7.976Zm61.367,-13.7c2.377,2.377 4.441,4.942 6.193,7.694c1.751,2.753 2.94,5.568 3.565,8.445c0.626,2.878 0.548,5.771 -0.234,8.68c-0.782,2.909 -2.549,5.739 -5.302,8.492c-2.752,2.752 -5.614,4.582 -8.586,5.489c-2.971,0.907 -5.911,1.126 -8.82,0.657c-2.909,-0.469 -5.755,-1.533 -8.539,-3.19c-2.783,-1.658 -5.364,-3.676 -7.741,-6.053c-2.252,-2.252 -4.207,-4.738 -5.865,-7.459c-1.657,-2.722 -2.752,-5.537 -3.284,-8.445c-0.531,-2.909 -0.391,-5.834 0.423,-8.774c0.813,-2.94 2.564,-5.755 5.254,-8.445c2.565,-2.564 5.302,-4.3 8.211,-5.207c2.908,-0.907 5.817,-1.126 8.726,-0.657c2.909,0.469 5.74,1.485 8.492,3.049c2.752,1.564 5.255,3.472 7.507,5.724Z" style="fill-rule:nonzero;"/><path d="M2113.05,186.912l-44.383,-44.383l-7.507,7.506l6.944,6.944l-0.094,0.094c-4.129,-1.251 -8.148,-1.267 -12.057,-0.047c-3.91,1.22 -7.398,3.362 -10.463,6.427c-4.191,4.192 -6.928,8.524 -8.21,12.996c-1.283,4.473 -1.564,8.821 -0.845,13.043c0.72,4.223 2.221,8.226 4.504,12.011c2.283,3.784 4.864,7.115 7.741,9.993c3.316,3.315 6.913,6.005 10.791,8.07c3.879,2.064 7.835,3.299 11.87,3.706c4.035,0.407 8.054,-0.078 12.058,-1.454c4.003,-1.377 7.819,-3.879 11.447,-7.507c3.128,-3.128 5.38,-6.787 6.756,-10.978c1.377,-4.192 1.251,-8.477 -0.375,-12.856l0.188,-0.187l3.19,3.19c2.69,2.69 4.895,5.427 6.615,8.21c1.72,2.784 2.784,5.568 3.191,8.352c0.406,2.783 0.156,5.536 -0.751,8.257c-0.907,2.721 -2.674,5.395 -5.302,8.023c-1.313,1.313 -2.83,2.549 -4.551,3.706c-1.72,1.157 -3.503,2.033 -5.348,2.627c-1.845,0.595 -3.691,0.814 -5.536,0.657c-1.846,-0.156 -3.519,-0.923 -5.02,-2.299l-7.976,7.976c2.752,2.502 5.661,4.035 8.726,4.598c3.066,0.563 6.115,0.453 9.149,-0.329c3.034,-0.781 5.974,-2.095 8.82,-3.94c2.847,-1.846 5.396,-3.895 7.648,-6.147c7.757,-7.756 11.479,-15.419 11.166,-22.989c-0.313,-7.569 -4.442,-15.326 -12.386,-23.27Zm-24.678,19.986c-2.627,2.627 -5.364,4.27 -8.211,4.926c-2.846,0.657 -5.692,0.626 -8.538,-0.093c-2.847,-0.72 -5.583,-1.955 -8.211,-3.707c-2.627,-1.751 -5.035,-3.722 -7.225,-5.911c-2.314,-2.315 -4.269,-4.801 -5.864,-7.46c-1.596,-2.659 -2.628,-5.38 -3.097,-8.164c-0.469,-2.783 -0.281,-5.567 0.563,-8.351c0.845,-2.783 2.549,-5.458 5.114,-8.022c2.502,-2.503 5.129,-4.129 7.882,-4.88c2.752,-0.75 5.505,-0.844 8.257,-0.281c2.753,0.563 5.411,1.626 7.976,3.19c2.565,1.564 4.911,3.409 7.038,5.536c2.252,2.252 4.238,4.77 5.958,7.554c1.72,2.784 2.909,5.63 3.566,8.539c0.656,2.908 0.609,5.833 -0.141,8.773c-0.751,2.94 -2.44,5.724 -5.067,8.351Z" style="fill-rule:nonzero;"/><path d="M2080.68,130.518l48.511,48.512l7.976,-7.976l-30.214,-30.214c-0.939,-0.939 -1.877,-2.346 -2.815,-4.223c-0.939,-1.876 -1.548,-3.988 -1.83,-6.334c-0.281,-2.345 -0.063,-4.816 0.657,-7.412c0.719,-2.596 2.236,-5.052 4.551,-7.366c1.814,-1.814 3.565,-3.034 5.254,-3.66c1.689,-0.625 3.363,-0.797 5.021,-0.516c1.657,0.282 3.284,0.938 4.879,1.971c1.595,1.032 3.175,2.33 4.738,3.894l31.81,31.809l7.976,-7.976l-30.215,-30.214c-3.753,-3.753 -5.63,-7.882 -5.63,-12.386c0,-4.504 1.971,-8.726 5.912,-12.667c1.939,-1.94 3.8,-3.238 5.583,-3.894c1.783,-0.657 3.503,-0.845 5.161,-0.563c1.657,0.281 3.268,0.954 4.832,2.017c1.564,1.063 3.097,2.346 4.598,3.847l31.809,31.81l7.976,-7.976l-35.563,-35.563c-2.502,-2.502 -5.035,-4.254 -7.6,-5.255c-2.565,-1.001 -5.114,-1.36 -7.647,-1.079c-2.534,0.282 -5.052,1.142 -7.554,2.581c-2.502,1.438 -4.973,3.378 -7.413,5.817c-3.19,3.191 -5.395,6.835 -6.615,10.932c-1.22,4.097 -1.329,8.273 -0.328,12.527c-4.004,-2.002 -7.851,-2.409 -11.542,-1.22c-3.691,1.188 -7.037,3.284 -10.04,6.287c-6.819,6.818 -9.29,14.794 -7.413,23.927l-0.188,0.188l-7.131,-7.132l-7.506,7.507Z" style="fill-rule:nonzero;"/></g></svg>