<?xml version="1.0" encoding="UTF-8" standalone="no"?><!DOCTYPE svg PUBLIC "-//W3C//DTD SVG 1.1//EN" "http://www.w3.org/Graphics/SVG/1.1/DTD/svg11.dtd"><svg width="100%" height="100%" viewBox="0 0 3005 488" version="1.1" xmlns="http://www.w3.org/2000/svg" xmlns:xlink="http://www.w3.org/1999/xlink" xml:space="preserve" xmlns:serif="http://www.serif.com/" style="fill-rule:evenodd;clip-rule:evenodd;"><path d="M66.033,365.871l2883.87,-0" style="fill:none;fill-rule:nonzero;stroke:#111;stroke-width:9.17px;"/><path d="M66.033,466.888l0,-202.03l18.459,101.013l-18.459,101.016Z" style="fill-rule:nonzero;stroke:#000;stroke-width:9.17px;"/><g><path d="M35.713,190.647c-1.645,-1.645 -3.074,-3.419 -4.286,-5.324c-1.212,-1.905 -2.035,-3.853 -2.467,-5.844c-0.433,-1.991 -0.368,-4.004 0.194,-6.039c0.563,-2.034 1.775,-3.982 3.637,-5.844c1.904,-1.905 3.885,-3.171 5.941,-3.798c2.056,-0.628 4.091,-0.78 6.104,-0.455c2.013,0.325 3.982,1.061 5.909,2.208c1.926,1.147 3.712,2.543 5.357,4.188c1.558,1.558 2.911,3.279 4.058,5.162c1.147,1.883 1.905,3.831 2.273,5.844c0.367,2.013 0.27,4.037 -0.293,6.071c-0.562,2.035 -1.775,3.983 -3.636,5.844c-1.775,1.775 -3.669,2.976 -5.682,3.604c-2.012,0.628 -4.025,0.779 -6.038,0.455c-2.013,-0.325 -3.972,-1.028 -5.877,-2.111c-1.904,-1.082 -3.636,-2.402 -5.194,-3.961Zm42.466,-9.48l-46.362,-46.362l-5.52,5.519l17.272,17.273l-0.129,0.129c-1.602,-0.389 -3.182,-0.476 -4.741,-0.259c-1.558,0.216 -3.041,0.617 -4.447,1.201c-1.407,0.584 -2.695,1.288 -3.864,2.11c-1.169,0.823 -2.186,1.667 -3.052,2.533c-2.554,2.554 -4.329,5.259 -5.324,8.116c-0.996,2.857 -1.342,5.714 -1.039,8.571c0.303,2.857 1.201,5.66 2.694,8.409c1.494,2.749 3.431,5.314 5.812,7.695c2.381,2.381 4.957,4.307 7.727,5.779c2.771,1.472 5.595,2.37 8.474,2.695c2.878,0.324 5.757,-0 8.636,-0.974c2.879,-0.974 5.617,-2.76 8.214,-5.357c2.338,-2.338 4.069,-4.892 5.195,-7.663c1.125,-2.77 1.212,-5.54 0.259,-8.311l0.13,-0.13l4.545,4.546l5.52,-5.52Z" style="fill-rule:nonzero;"/><path d="M89.997,129.351l-19.286,19.285c-1.212,-1.385 -2.153,-2.89 -2.824,-4.513c-0.671,-1.623 -1.028,-3.279 -1.071,-4.967c-0.044,-1.689 0.259,-3.355 0.909,-5c0.649,-1.645 1.688,-3.182 3.116,-4.611c1.386,-1.385 2.901,-2.402 4.546,-3.051c1.645,-0.65 3.311,-0.974 5,-0.974c1.688,-0 3.365,0.335 5.032,1.006c1.666,0.671 3.192,1.613 4.578,2.825Zm14.674,4.025l-5.454,5.455c1.732,2.684 2.392,5.314 1.981,7.889c-0.412,2.576 -1.786,5.033 -4.124,7.37c-1.818,1.818 -3.701,3.095 -5.649,3.831c-1.948,0.736 -3.863,1.028 -5.746,0.877c-1.884,-0.152 -3.68,-0.693 -5.39,-1.624c-1.71,-0.93 -3.279,-2.153 -4.708,-3.668l25.13,-25.129c-1.948,-2.122 -4.275,-4.08 -6.981,-5.877c-2.705,-1.796 -5.606,-3.052 -8.701,-3.766c-3.095,-0.714 -6.244,-0.703 -9.448,0.033c-3.203,0.735 -6.298,2.597 -9.285,5.584c-2.294,2.294 -3.972,4.837 -5.032,7.629c-1.061,2.793 -1.515,5.671 -1.364,8.637c0.152,2.965 0.898,5.898 2.24,8.798c1.342,2.9 3.29,5.627 5.844,8.182c2.641,2.467 5.379,4.447 8.214,5.941c2.836,1.493 5.704,2.348 8.604,2.565c2.9,0.216 5.768,-0.228 8.604,-1.331c2.835,-1.104 5.595,-2.998 8.279,-5.682c3.809,-3.809 6.017,-7.922 6.623,-12.337c0.606,-4.416 -0.606,-8.874 -3.637,-13.377Z" style="fill-rule:nonzero;"/><path d="M112.918,111.104l5.065,30.259l6.688,-6.688l-4.545,-23.246l23.246,4.545l7.077,-7.077l-31.103,-5.13l-3.896,-27.012l-6.623,6.623l3.377,20.129l-19.805,-3.701l-7.078,7.078l27.597,4.22Z" style="fill-rule:nonzero;"/><path d="M135.839,70.651l-14.739,-14.74l12.337,-12.337c1.342,-1.342 2.684,-2.532 4.026,-3.571c1.342,-1.039 2.727,-1.753 4.155,-2.143c1.429,-0.39 2.879,-0.368 4.351,0.065c1.472,0.433 3.03,1.472 4.675,3.117c2.468,2.467 3.55,5.086 3.247,7.857c-0.303,2.77 -2.208,5.908 -5.714,9.415l-12.338,12.337Zm-26.103,-13.766l46.362,46.363l22.402,-22.402c2.295,-2.295 3.94,-4.697 4.935,-7.208c0.996,-2.511 1.472,-4.978 1.429,-7.402c-0.044,-2.424 -0.563,-4.74 -1.559,-6.948c-0.995,-2.208 -2.337,-4.156 -4.025,-5.844c-2.858,-2.857 -6.039,-4.524 -9.546,-5c-3.506,-0.476 -6.991,0.411 -10.454,2.662l-0.13,-0.13c1.342,-3.073 1.71,-6.103 1.104,-9.09c-0.606,-2.987 -2.143,-5.714 -4.61,-8.182c-2.338,-2.337 -4.838,-3.777 -7.5,-4.318c-2.662,-0.541 -5.205,-0.508 -7.629,0.098c-1.126,0.259 -2.284,0.768 -3.474,1.526c-1.191,0.757 -2.403,1.645 -3.637,2.662c-1.233,1.017 -2.435,2.088 -3.603,3.214c-1.169,1.125 -2.251,2.186 -3.247,3.182l-16.818,16.817Zm47.336,34.999l-16.038,-16.038l14.09,-14.091c1.299,-1.298 2.674,-2.435 4.124,-3.409c1.45,-0.974 2.933,-1.634 4.448,-1.98c1.515,-0.346 3.051,-0.303 4.61,0.13c1.558,0.433 3.095,1.407 4.61,2.922c2.597,2.597 3.864,5.4 3.799,8.409c-0.065,3.008 -1.461,5.876 -4.188,8.603l-15.455,15.454Z" style="fill-rule:nonzero;"/></g><path d="M106.254,466.888l0,-202.03l23.971,101.013l-23.971,101.016Z" style="fill:#c4a484;fill-rule:nonzero;stroke:#000;stroke-width:9.17px;"/><path d="M248.275,310.775l-8.954,0l-0,-45.917l-110.2,101.013l110.2,101.016l-0,-45.916l8.954,-0l0,-110.196Z" style="fill:#f3cfc6;fill-rule:nonzero;stroke:#000;stroke-width:9.17px;"/><g><path d="M135.705,169.934l-10.065,-10.064l-5.519,5.519l10.065,10.065l-5.714,5.714l4.87,4.87l5.714,-5.714l21.363,21.363c1.558,1.558 2.965,2.662 4.22,3.311c1.256,0.649 2.457,0.92 3.604,0.812c1.147,-0.108 2.327,-0.574 3.539,-1.396c1.212,-0.823 2.532,-1.948 3.961,-3.377l4.221,-4.22l-4.87,-4.87l-2.533,2.532c-0.866,0.866 -1.601,1.537 -2.207,2.013c-0.607,0.476 -1.169,0.757 -1.689,0.844c-0.519,0.087 -1.028,-0.011 -1.526,-0.292c-0.498,-0.282 -1.071,-0.747 -1.72,-1.396l-20.844,-20.844l6.688,-6.688l-4.87,-4.87l-6.688,6.688Z" style="fill-rule:nonzero;"/><path d="M148.497,157.142l33.57,33.571l5.52,-5.519l-18.961,-18.961c-1.515,-1.515 -2.705,-3.117 -3.571,-4.805c-0.866,-1.688 -1.364,-3.42 -1.494,-5.195c-0.129,-1.774 0.163,-3.538 0.877,-5.292c0.714,-1.753 1.916,-3.474 3.604,-5.162c2.121,-2.121 4.394,-3.182 6.818,-3.182c2.424,0 4.675,1.039 6.753,3.117l22.726,22.727l5.52,-5.519l-22.078,-22.078c-1.818,-1.818 -3.657,-3.29 -5.519,-4.415c-1.861,-1.126 -3.788,-1.775 -5.779,-1.948c-1.991,-0.173 -4.026,0.173 -6.104,1.039c-2.078,0.866 -4.22,2.402 -6.428,4.61c-4.978,4.978 -6.58,10.649 -4.805,17.012l-0.13,0.13l-5.324,-5.324l-5.195,5.194Z" style="fill-rule:nonzero;"/><path d="M184.794,120.845l46.363,46.362l5.519,-5.519l-17.272,-17.272l0.13,-0.13c1.601,0.389 3.181,0.476 4.74,0.259c1.558,-0.216 3.03,-0.627 4.415,-1.233c1.385,-0.606 2.673,-1.331 3.864,-2.176c1.19,-0.844 2.197,-1.677 3.019,-2.499c2.554,-2.554 4.34,-5.249 5.357,-8.085c1.017,-2.835 1.375,-5.681 1.072,-8.538c-0.304,-2.857 -1.202,-5.66 -2.695,-8.409c-1.494,-2.749 -3.431,-5.314 -5.812,-7.695c-2.381,-2.381 -4.956,-4.307 -7.727,-5.779c-2.77,-1.472 -5.606,-2.381 -8.506,-2.727c-2.9,-0.346 -5.79,-0.032 -8.669,0.942c-2.878,0.974 -5.616,2.759 -8.214,5.357c-2.337,2.337 -4.058,4.902 -5.162,7.694c-1.104,2.792 -1.179,5.574 -0.227,8.344l-0.13,0.13l-4.545,-4.545l-5.52,5.519Zm42.467,-9.48c1.645,1.645 3.073,3.419 4.285,5.324c1.212,1.905 2.035,3.853 2.468,5.844c0.433,1.991 0.379,3.994 -0.163,6.006c-0.541,2.013 -1.764,3.972 -3.668,5.877c-1.905,1.905 -3.885,3.171 -5.942,3.798c-2.056,0.628 -4.09,0.78 -6.103,0.455c-2.013,-0.325 -3.983,-1.061 -5.909,-2.208c-1.927,-1.147 -3.712,-2.543 -5.357,-4.188c-1.559,-1.558 -2.911,-3.279 -4.059,-5.162c-1.147,-1.883 -1.904,-3.831 -2.272,-5.844c-0.368,-2.013 -0.271,-4.037 0.292,-6.071c0.563,-2.035 1.775,-3.983 3.636,-5.844c1.775,-1.775 3.669,-2.976 5.682,-3.604c2.013,-0.628 4.026,-0.779 6.039,-0.455c2.013,0.325 3.971,1.029 5.876,2.111c1.905,1.082 3.636,2.402 5.195,3.961Z" style="fill-rule:nonzero;"/></g><path d="M280.504,310.775l88.988,0l-0,-45.917l110.196,101.013l-110.196,101.016l-0,-45.916l-88.988,-0l0,-110.196Z" style="fill:#00f;fill-rule:nonzero;stroke:#000;stroke-width:9.17px;"/><g><path d="M386.259,177.921l-22.856,-44.285l-5.715,5.715l19.935,34.998l-0.13,0.13l-34.479,-20.454l-6.039,6.039l20.713,34.22l-0.129,0.13l-35.064,-19.87l-6.104,6.104l44.349,22.791l5.974,-5.973l-19.934,-33.441l0.13,-0.13l33.505,19.87l5.844,-5.844Z" style="fill-rule:nonzero;"/><path d="M395.285,160.454l4.22,4.22l28.311,-28.31l-4.87,-4.87l-21.428,21.428l-4.415,-45.454l-3.766,-3.766l-26.103,26.103l4.87,4.87l18.96,-18.96l4.221,44.739Z" style="fill-rule:nonzero;"/><path d="M459.503,98.962l-30.713,-30.713l-5.195,5.194l4.806,4.806l-0.065,0.064c-2.857,-0.865 -5.639,-0.876 -8.344,-0.032c-2.706,0.844 -5.119,2.327 -7.24,4.448c-2.901,2.9 -4.795,5.898 -5.682,8.993c-0.887,3.095 -1.082,6.104 -0.584,9.026c0.497,2.922 1.536,5.692 3.116,8.311c1.58,2.619 3.366,4.924 5.357,6.916c2.295,2.294 4.784,4.155 7.468,5.584c2.684,1.428 5.422,2.283 8.214,2.565c2.792,0.281 5.573,-0.054 8.344,-1.007c2.77,-0.952 5.411,-2.684 7.921,-5.194c2.165,-2.165 3.723,-4.697 4.676,-7.598c0.952,-2.9 0.865,-5.865 -0.26,-8.895l0.13,-0.13l2.207,2.207c1.862,1.862 3.388,3.756 4.578,5.682c1.191,1.926 1.927,3.853 2.208,5.779c0.281,1.927 0.108,3.831 -0.519,5.714c-0.628,1.883 -1.851,3.734 -3.669,5.552c-0.909,0.909 -1.959,1.764 -3.149,2.565c-1.191,0.801 -2.425,1.407 -3.702,1.818c-1.277,0.411 -2.554,0.563 -3.831,0.455c-1.277,-0.109 -2.435,-0.639 -3.474,-1.591l-5.519,5.519c1.905,1.732 3.918,2.792 6.039,3.182c2.121,0.389 4.231,0.314 6.331,-0.228c2.099,-0.541 4.134,-1.45 6.104,-2.727c1.969,-1.277 3.733,-2.694 5.292,-4.253c5.367,-5.368 7.943,-10.67 7.727,-15.908c-0.217,-5.238 -3.074,-10.606 -8.572,-16.104Zm-17.077,13.831c-1.818,1.818 -3.712,2.954 -5.682,3.409c-1.969,0.454 -3.939,0.433 -5.908,-0.065c-1.97,-0.498 -3.864,-1.353 -5.682,-2.565c-1.818,-1.212 -3.485,-2.576 -5,-4.091c-1.602,-1.601 -2.954,-3.322 -4.058,-5.162c-1.104,-1.84 -1.818,-3.723 -2.143,-5.649c-0.325,-1.926 -0.195,-3.853 0.39,-5.779c0.584,-1.926 1.764,-3.777 3.538,-5.552c1.732,-1.731 3.55,-2.857 5.455,-3.376c1.904,-0.52 3.809,-0.585 5.714,-0.195c1.905,0.389 3.744,1.125 5.519,2.208c1.775,1.082 3.398,2.359 4.87,3.831c1.559,1.558 2.933,3.3 4.123,5.227c1.191,1.926 2.013,3.896 2.468,5.909c0.454,2.013 0.422,4.036 -0.098,6.071c-0.519,2.034 -1.688,3.961 -3.506,5.779Z" style="fill-rule:nonzero;"/></g><path d="M479.825,466.888l0,-202.03l100.829,101.013l-100.829,101.016Z" style="fill:#00f;fill-rule:nonzero;stroke:#000;stroke-width:9.17px;"/><g><path d="M536.404,177.919l-22.856,-44.284l-5.714,5.714l19.934,34.999l-0.13,0.13l-34.479,-20.454l-6.039,6.039l20.714,34.219l-0.13,0.13l-35.064,-19.869l-6.104,6.103l44.349,22.792l5.974,-5.974l-19.934,-33.441l0.13,-0.129l33.505,19.869l5.844,-5.844Z" style="fill-rule:nonzero;"/><path d="M545.43,160.452l4.221,4.221l28.31,-28.311l-4.87,-4.87l-21.428,21.428l-4.415,-45.453l-3.766,-3.766l-26.103,26.103l4.87,4.87l18.96,-18.961l4.221,44.739Z" style="fill-rule:nonzero;"/><path d="M537.183,84.416l46.363,46.362l5.519,-5.52l-18.961,-18.96c-1.515,-1.515 -2.705,-3.117 -3.571,-4.805c-0.866,-1.688 -1.363,-3.42 -1.493,-5.195c-0.13,-1.775 0.162,-3.539 0.876,-5.292c0.715,-1.753 1.916,-3.474 3.604,-5.162c2.121,-2.121 4.394,-3.182 6.818,-3.182c2.424,0 4.675,1.039 6.753,3.117l22.727,22.727l5.519,-5.52l-22.077,-22.077c-1.818,-1.818 -3.658,-3.29 -5.52,-4.415c-1.861,-1.126 -3.787,-1.775 -5.779,-1.948c-1.991,-0.173 -4.026,0.173 -6.103,1.039c-2.078,0.865 -4.221,2.402 -6.429,4.61c-0.995,0.995 -1.915,2.132 -2.759,3.409c-0.845,1.277 -1.526,2.63 -2.046,4.058c-0.519,1.429 -0.811,2.89 -0.876,4.383c-0.065,1.494 0.205,2.976 0.811,4.448l-0.13,0.13l-17.726,-17.727l-5.52,5.52Z" style="fill-rule:nonzero;"/></g><path d="M581.346,466.888l-0,-202.03l95.871,101.013l-95.871,101.016Z" style="fill:#00f;fill-rule:nonzero;stroke:#000;stroke-width:9.17px;"/><g><path d="M635.442,177.92l-22.856,-44.285l-5.714,5.715l19.934,34.999l-0.13,0.129l-34.479,-20.454l-6.039,6.039l20.714,34.22l-0.13,0.13l-35.064,-19.87l-6.104,6.104l44.35,22.792l5.974,-5.974l-19.935,-33.441l0.13,-0.13l33.505,19.87l5.844,-5.844Z" style="fill-rule:nonzero;"/><path d="M644.468,160.453l4.221,4.22l28.311,-28.31l-4.87,-4.87l-21.428,21.428l-4.416,-45.454l-3.766,-3.766l-26.103,26.103l4.87,4.87l18.96,-18.96l4.221,44.739Z" style="fill-rule:nonzero;"/><path d="M670.117,110.26c-1.645,-1.645 -3.074,-3.42 -4.286,-5.325c-1.212,-1.905 -2.034,-3.853 -2.467,-5.844c-0.433,-1.991 -0.368,-4.004 0.194,-6.039c0.563,-2.034 1.775,-3.982 3.637,-5.844c1.904,-1.904 3.885,-3.171 5.941,-3.798c2.056,-0.628 4.091,-0.779 6.104,-0.455c2.013,0.325 3.982,1.061 5.909,2.208c1.926,1.147 3.712,2.543 5.357,4.188c1.558,1.559 2.911,3.279 4.058,5.162c1.147,1.883 1.905,3.831 2.273,5.844c0.368,2.013 0.27,4.037 -0.293,6.072c-0.562,2.034 -1.774,3.982 -3.636,5.844c-1.775,1.774 -3.669,2.976 -5.681,3.603c-2.013,0.628 -4.026,0.779 -6.039,0.455c-2.013,-0.325 -3.972,-1.028 -5.877,-2.111c-1.904,-1.082 -3.636,-2.402 -5.194,-3.96Zm42.466,-9.481l-46.362,-46.362l-5.52,5.519l17.273,17.273l-0.13,0.13c-1.602,-0.39 -3.182,-0.477 -4.74,-0.26c-1.559,0.216 -3.041,0.617 -4.448,1.201c-1.407,0.584 -2.695,1.288 -3.864,2.11c-1.169,0.823 -2.186,1.667 -3.052,2.533c-2.554,2.554 -4.329,5.259 -5.324,8.116c-0.996,2.857 -1.342,5.715 -1.039,8.572c0.303,2.857 1.201,5.66 2.695,8.408c1.493,2.749 3.43,5.314 5.811,7.695c2.381,2.381 4.957,4.307 7.727,5.779c2.771,1.472 5.595,2.37 8.474,2.695c2.879,0.324 5.757,-0 8.636,-0.974c2.879,-0.974 5.617,-2.76 8.214,-5.357c2.338,-2.338 4.069,-4.892 5.195,-7.662c1.125,-2.771 1.212,-5.541 0.259,-8.312l0.13,-0.13l4.546,4.546l5.519,-5.52Z" style="fill-rule:nonzero;"/></g><path d="M678.454,466.888l0,-202.03l94.221,101.013l-94.221,101.016Z" style="fill:#00f;fill-rule:nonzero;stroke:#000;stroke-width:9.17px;"/><g><path d="M731.729,177.918l-22.856,-44.285l-5.714,5.714l19.934,34.999l-0.13,0.13l-34.479,-20.454l-6.039,6.039l20.714,34.22l-0.13,0.13l-35.064,-19.87l-6.104,6.104l44.35,22.791l5.973,-5.974l-19.934,-33.44l0.13,-0.13l33.505,19.87l5.844,-5.844Z" style="fill-rule:nonzero;"/><path d="M740.755,160.451l4.221,4.22l28.31,-28.311l-4.87,-4.87l-21.428,21.428l-4.415,-45.453l-3.766,-3.766l-26.103,26.103l4.87,4.87l18.96,-18.96l4.221,44.739Z" style="fill-rule:nonzero;"/><path d="M782.182,87.466l-19.285,19.285c-1.212,-1.385 -2.154,-2.89 -2.824,-4.513c-0.671,-1.623 -1.029,-3.279 -1.072,-4.967c-0.043,-1.689 0.26,-3.355 0.909,-5c0.65,-1.645 1.688,-3.182 3.117,-4.61c1.385,-1.386 2.9,-2.403 4.545,-3.052c1.645,-0.65 3.312,-0.974 5,-0.974c1.688,-0 3.366,0.335 5.032,1.006c1.667,0.671 3.193,1.613 4.578,2.825Zm14.675,4.026l-5.454,5.454c1.731,2.684 2.391,5.314 1.98,7.889c-0.411,2.576 -1.785,5.033 -4.123,7.37c-1.818,1.818 -3.701,3.095 -5.649,3.831c-1.948,0.736 -3.864,1.028 -5.747,0.877c-1.883,-0.152 -3.679,-0.693 -5.389,-1.623c-1.71,-0.931 -3.279,-2.154 -4.708,-3.669l25.129,-25.129c-1.948,-2.121 -4.275,-4.08 -6.98,-5.877c-2.706,-1.796 -5.606,-3.051 -8.701,-3.766c-3.095,-0.714 -6.245,-0.703 -9.448,0.033c-3.203,0.736 -6.298,2.597 -9.285,5.584c-2.295,2.294 -3.972,4.838 -5.033,7.63c-1.06,2.792 -1.515,5.67 -1.363,8.636c0.151,2.965 0.898,5.898 2.24,8.798c1.342,2.901 3.29,5.628 5.844,8.182c2.641,2.467 5.379,4.448 8.214,5.941c2.835,1.494 5.703,2.349 8.604,2.565c2.9,0.216 5.768,-0.227 8.603,-1.331c2.836,-1.104 5.595,-2.998 8.279,-5.682c3.81,-3.809 6.017,-7.922 6.623,-12.337c0.606,-4.416 -0.606,-8.874 -3.636,-13.376Z" style="fill-rule:nonzero;"/></g><path d="M774.329,466.888l0,-202.03l15.288,101.013l-15.288,101.016Z" style="fill:#c4a484;fill-rule:nonzero;stroke:#000;stroke-width:9.17px;"/><path d="M819.508,466.888l0,-202.03l87.609,101.013l-87.609,101.016Z" style="fill:#800080;fill-rule:nonzero;stroke:#000;stroke-width:9.17px;"/><g><path d="M869.475,177.921l-22.856,-44.285l-5.714,5.714l19.934,34.999l-0.13,0.13l-34.479,-20.454l-6.039,6.039l20.714,34.22l-0.13,0.13l-35.064,-19.87l-6.104,6.104l44.35,22.791l5.973,-5.973l-19.934,-33.441l0.13,-0.13l33.505,19.87l5.844,-5.844Z" style="fill-rule:nonzero;"/><path d="M885.449,116.364l5.714,-5.714c-2.208,-1.775 -4.448,-2.976 -6.721,-3.604c-2.272,-0.627 -4.523,-0.779 -6.753,-0.454c-2.229,0.324 -4.404,1.093 -6.525,2.305c-2.122,1.212 -4.135,2.77 -6.039,4.675c-2.641,2.641 -4.491,5.422 -5.552,8.344c-1.061,2.922 -1.439,5.855 -1.136,8.798c0.303,2.944 1.223,5.834 2.759,8.669c1.537,2.835 3.561,5.508 6.072,8.019c2.51,2.511 5.151,4.481 7.921,5.909c2.771,1.429 5.574,2.24 8.409,2.435c2.836,0.195 5.649,-0.281 8.442,-1.428c2.792,-1.148 5.465,-2.998 8.019,-5.552c4.285,-4.286 6.547,-8.799 6.785,-13.539c0.238,-4.74 -1.417,-9.491 -4.967,-14.253l-5.649,5.65c2.251,2.943 3.322,5.898 3.214,8.863c-0.108,2.965 -1.526,5.811 -4.253,8.539c-1.732,1.731 -3.572,2.878 -5.52,3.441c-1.948,0.563 -3.885,0.66 -5.811,0.292c-1.926,-0.368 -3.809,-1.104 -5.649,-2.207c-1.84,-1.104 -3.539,-2.435 -5.097,-3.994c-1.689,-1.688 -3.15,-3.495 -4.383,-5.422c-1.234,-1.926 -2.057,-3.896 -2.468,-5.909c-0.411,-2.013 -0.314,-4.058 0.292,-6.136c0.606,-2.078 1.905,-4.112 3.896,-6.103c2.338,-2.338 4.784,-3.615 7.338,-3.832c2.554,-0.216 5.108,0.52 7.662,2.208Z" style="fill-rule:nonzero;"/><path d="M886.553,81.625l-6.753,-6.753l-5.52,5.519l6.753,6.753l5.52,-5.519Zm0.519,11.558l33.571,33.57l5.519,-5.519l-33.571,-33.57l-5.519,5.519Z" style="fill-rule:nonzero;"/><path d="M889.54,65.132l46.362,46.362l6.168,-6.168l-46.362,-46.363l-6.168,6.169Z" style="fill-rule:nonzero;"/></g><path d="M908.217,310.775l59.233,0l0,-45.917l110.196,101.013l-110.196,101.016l0,-45.916l-59.233,-0l-0,-110.196Z" style="fill:#0ff;fill-rule:nonzero;stroke:#000;stroke-width:9.17px;"/><g><path d="M999.096,177.919l-22.856,-44.284l-5.714,5.714l19.934,34.999l-0.13,0.13l-34.479,-20.454l-6.039,6.038l20.714,34.22l-0.13,0.13l-35.064,-19.869l-6.104,6.103l44.349,22.792l5.974,-5.974l-19.934,-33.441l0.13,-0.129l33.505,19.869l5.844,-5.844Z" style="fill-rule:nonzero;"/><path d="M1015.07,116.363l5.714,-5.715c-2.208,-1.774 -4.448,-2.976 -6.721,-3.603c-2.273,-0.628 -4.524,-0.78 -6.753,-0.455c-2.229,0.325 -4.405,1.093 -6.526,2.305c-2.121,1.212 -4.134,2.771 -6.038,4.675c-2.641,2.641 -4.492,5.422 -5.552,8.344c-1.061,2.922 -1.44,5.855 -1.137,8.799c0.303,2.943 1.223,5.833 2.76,8.668c1.537,2.836 3.561,5.509 6.071,8.02c2.511,2.51 5.152,4.48 7.922,5.908c2.771,1.429 5.574,2.241 8.409,2.435c2.835,0.195 5.649,-0.281 8.441,-1.428c2.792,-1.147 5.466,-2.998 8.02,-5.552c4.285,-4.285 6.547,-8.798 6.785,-13.538c0.238,-4.741 -1.418,-9.491 -4.967,-14.253l-5.65,5.649c2.252,2.944 3.323,5.898 3.215,8.863c-0.109,2.966 -1.526,5.812 -4.253,8.539c-1.732,1.732 -3.572,2.879 -5.52,3.441c-1.948,0.563 -3.885,0.661 -5.811,0.293c-1.927,-0.368 -3.81,-1.104 -5.649,-2.208c-1.84,-1.104 -3.539,-2.435 -5.098,-3.993c-1.688,-1.689 -3.149,-3.496 -4.383,-5.422c-1.233,-1.927 -2.056,-3.896 -2.467,-5.909c-0.411,-2.013 -0.314,-4.059 0.292,-6.136c0.606,-2.078 1.905,-4.113 3.896,-6.104c2.338,-2.338 4.783,-3.615 7.338,-3.831c2.554,-0.217 5.108,0.519 7.662,2.208Z" style="fill-rule:nonzero;"/><path d="M1016.17,81.623l-6.753,-6.753l-5.519,5.52l6.753,6.753l5.519,-5.52Zm0.52,11.558l33.57,33.571l5.52,-5.519l-33.571,-33.571l-5.519,5.519Z" style="fill-rule:nonzero;"/><path d="M1077.28,76.624l-34.804,-34.805l-6.168,6.169l33.895,33.895c2.554,2.554 4.058,5.119 4.513,7.695c0.454,2.575 -0.725,5.27 -3.539,8.084c-1.515,1.515 -2.987,2.532 -4.416,3.052c-1.428,0.519 -2.824,0.638 -4.188,0.357c-1.363,-0.282 -2.716,-0.877 -4.058,-1.786c-1.342,-0.909 -2.684,-2.034 -4.026,-3.376l-1.948,-1.948l-6.169,6.168l2.857,2.857c4.416,4.416 8.929,6.591 13.539,6.526c4.61,-0.065 9.08,-2.262 13.409,-6.591c2.597,-2.597 4.415,-5.129 5.454,-7.597c1.039,-2.467 1.493,-4.826 1.364,-7.077c-0.13,-2.251 -0.726,-4.362 -1.786,-6.331c-1.061,-1.97 -2.37,-3.734 -3.929,-5.292Z" style="fill-rule:nonzero;"/></g><path d="M1078.2,310.775l38.158,0l0,-45.917l110.196,101.013l-110.196,101.016l0,-45.916l-38.158,-0l-0,-110.196Z" style="fill:#0ff;fill-rule:nonzero;stroke:#000;stroke-width:9.17px;"/><g><path d="M1158.54,177.918l-22.857,-44.284l-5.714,5.714l19.934,34.999l-0.129,0.13l-34.48,-20.454l-6.039,6.039l20.714,34.22l-0.13,0.129l-35.064,-19.869l-6.103,6.104l44.349,22.791l5.974,-5.974l-19.935,-33.44l0.13,-0.13l33.506,19.869l5.844,-5.844Z" style="fill-rule:nonzero;"/><path d="M1174.51,116.362l5.714,-5.714c-2.208,-1.775 -4.448,-2.976 -6.72,-3.604c-2.273,-0.628 -4.524,-0.779 -6.753,-0.455c-2.23,0.325 -4.405,1.094 -6.526,2.306c-2.121,1.212 -4.134,2.77 -6.039,4.675c-2.641,2.64 -4.491,5.422 -5.552,8.344c-1.06,2.922 -1.439,5.854 -1.136,8.798c0.303,2.944 1.223,5.833 2.76,8.669c1.536,2.835 3.56,5.508 6.071,8.019c2.511,2.511 5.151,4.48 7.922,5.909c2.77,1.428 5.573,2.24 8.408,2.435c2.836,0.195 5.65,-0.282 8.442,-1.429c2.792,-1.147 5.465,-2.997 8.019,-5.552c4.286,-4.285 6.547,-8.798 6.786,-13.538c0.238,-4.74 -1.418,-9.491 -4.968,-14.253l-5.649,5.649c2.251,2.944 3.322,5.898 3.214,8.864c-0.108,2.965 -1.526,5.811 -4.253,8.538c-1.732,1.732 -3.571,2.879 -5.519,3.442c-1.948,0.563 -3.885,0.66 -5.812,0.292c-1.926,-0.368 -3.809,-1.104 -5.649,-2.208c-1.84,-1.104 -3.539,-2.435 -5.097,-3.993c-1.688,-1.688 -3.149,-3.496 -4.383,-5.422c-1.234,-1.926 -2.056,-3.896 -2.468,-5.909c-0.411,-2.013 -0.313,-4.058 0.293,-6.136c0.606,-2.078 1.904,-4.112 3.896,-6.104c2.337,-2.337 4.783,-3.614 7.337,-3.831c2.554,-0.216 5.108,0.52 7.662,2.208Z" style="fill-rule:nonzero;"/><path d="M1175.62,81.623l-6.753,-6.753l-5.519,5.519l6.753,6.753l5.519,-5.519Zm0.519,11.558l33.571,33.57l5.519,-5.519l-33.57,-33.571l-5.52,5.52Z" style="fill-rule:nonzero;"/><path d="M1178.34,65.389l46.362,46.363l6.169,-6.169l-16.233,-16.233l0.519,-14.935l40.194,6.688l7.792,-7.792l-47.986,-7.337l0.844,-38.246l-7.986,7.987l-0.39,46.622l-23.116,-23.116l-6.169,6.168Z" style="fill-rule:nonzero;"/></g><path d="M1225.45,310.775l43.942,0l-0,-45.917l110.196,101.013l-110.196,101.016l-0,-45.916l-43.942,-0l0,-110.196Z" style="fill:#0ff;fill-rule:nonzero;stroke:#000;stroke-width:9.17px;"/><g><path d="M1308.68,177.919l-22.856,-44.284l-5.715,5.714l19.935,34.999l-0.13,0.129l-34.479,-20.453l-6.039,6.038l20.713,34.22l-0.129,0.13l-35.064,-19.87l-6.104,6.104l44.349,22.792l5.974,-5.974l-19.934,-33.441l0.13,-0.13l33.505,19.87l5.844,-5.844Z" style="fill-rule:nonzero;"/><path d="M1324.65,116.362l5.714,-5.714c-2.208,-1.775 -4.448,-2.976 -6.721,-3.604c-2.273,-0.627 -4.524,-0.779 -6.753,-0.454c-2.229,0.325 -4.405,1.093 -6.526,2.305c-2.121,1.212 -4.134,2.771 -6.038,4.675c-2.641,2.641 -4.492,5.422 -5.552,8.344c-1.061,2.922 -1.44,5.855 -1.137,8.799c0.303,2.943 1.223,5.833 2.76,8.668c1.537,2.836 3.561,5.509 6.071,8.019c2.511,2.511 5.152,4.481 7.922,5.909c2.771,1.429 5.574,2.24 8.409,2.435c2.835,0.195 5.649,-0.281 8.441,-1.428c2.792,-1.147 5.465,-2.998 8.019,-5.552c4.286,-4.286 6.548,-8.798 6.786,-13.539c0.238,-4.74 -1.418,-9.491 -4.967,-14.252l-5.65,5.649c2.251,2.943 3.323,5.898 3.215,8.863c-0.109,2.965 -1.526,5.812 -4.253,8.539c-1.732,1.731 -3.572,2.879 -5.52,3.441c-1.948,0.563 -3.885,0.66 -5.811,0.292c-1.927,-0.367 -3.81,-1.103 -5.649,-2.207c-1.84,-1.104 -3.539,-2.435 -5.098,-3.994c-1.688,-1.688 -3.149,-3.495 -4.383,-5.422c-1.233,-1.926 -2.056,-3.896 -2.467,-5.908c-0.411,-2.013 -0.314,-4.059 0.292,-6.137c0.606,-2.077 1.905,-4.112 3.896,-6.103c2.338,-2.338 4.783,-3.615 7.337,-3.831c2.554,-0.217 5.109,0.519 7.663,2.207Z" style="fill-rule:nonzero;"/><path d="M1325.76,81.623l-6.753,-6.753l-5.519,5.519l6.753,6.753l5.519,-5.519Zm0.52,11.558l33.57,33.571l5.52,-5.52l-33.571,-33.57l-5.519,5.519Z" style="fill-rule:nonzero;"/><path d="M1328.49,65.39l46.362,46.362l30.713,-30.713l-5.195,-5.195l-24.544,24.545l-41.168,-41.168l-6.168,6.169Z" style="fill-rule:nonzero;"/></g><path d="M1379.59,310.775l82.787,0l0,-45.917l110.196,101.013l-110.196,101.016l0,-45.916l-82.787,-0l-0,-110.196Z" style="fill:#f0f;fill-rule:nonzero;stroke:#000;stroke-width:9.17px;"/><g><path d="M1482.24,177.921l-22.856,-44.285l-5.714,5.715l19.934,34.998l-0.13,0.13l-34.479,-20.454l-6.039,6.039l20.714,34.22l-0.13,0.13l-35.064,-19.87l-6.104,6.104l44.35,22.791l5.973,-5.973l-19.934,-33.441l0.13,-0.13l33.505,19.87l5.844,-5.844Z" style="fill-rule:nonzero;"/><path d="M1491.27,160.454l4.221,4.22l28.31,-28.31l-4.87,-4.87l-21.427,21.428l-4.416,-45.454l-3.766,-3.766l-26.103,26.103l4.87,4.87l18.96,-18.96l4.221,44.739Z" style="fill-rule:nonzero;"/><path d="M1547.05,122.078c0.996,2.295 1.743,4.318 2.241,6.072c0.497,1.753 0.725,3.365 0.681,4.837c-0.043,1.472 -0.367,2.836 -0.974,4.091c-0.606,1.255 -1.515,2.489 -2.727,3.701c-0.649,0.649 -1.342,1.255 -2.078,1.818c-0.735,0.563 -1.515,1.039 -2.337,1.429l-5.065,-5.065c0.693,-0.26 1.429,-0.628 2.208,-1.104c0.779,-0.476 1.385,-0.931 1.818,-1.364c1.125,-1.125 1.796,-2.337 2.013,-3.636c0.216,-1.298 0.021,-2.64 -0.585,-4.026l-3.376,-7.921l-46.687,-20.065l6.234,-6.233l37.271,17.661l0.13,-0.129l-18.051,-36.882l5.844,-5.844l23.44,52.66Z" style="fill-rule:nonzero;"/></g><path d="M1572.43,310.775l38.984,0l-0,-45.917l110.196,101.013l-110.196,101.016l-0,-45.916l-38.984,-0l0,-110.196Z" style="fill:#966408;fill-rule:nonzero;stroke:#000;stroke-width:9.17px;"/><g><path d="M1653.19,177.919l-22.857,-44.285l-5.714,5.715l19.935,34.998l-0.13,0.13l-34.48,-20.454l-6.039,6.039l20.714,34.22l-0.13,0.13l-35.064,-19.87l-6.103,6.104l44.349,22.791l5.974,-5.973l-19.935,-33.441l0.13,-0.13l33.506,19.87l5.844,-5.844Z" style="fill-rule:nonzero;"/><path d="M1669.16,116.362l5.714,-5.714c-2.207,-1.775 -4.448,-2.976 -6.72,-3.604c-2.273,-0.627 -4.524,-0.779 -6.753,-0.454c-2.23,0.324 -4.405,1.093 -6.526,2.305c-2.121,1.212 -4.134,2.77 -6.039,4.675c-2.641,2.641 -4.491,5.422 -5.552,8.344c-1.06,2.922 -1.439,5.855 -1.136,8.798c0.303,2.944 1.223,5.834 2.76,8.669c1.536,2.835 3.56,5.509 6.071,8.019c2.511,2.511 5.151,4.481 7.922,5.909c2.77,1.429 5.573,2.24 8.409,2.435c2.835,0.195 5.649,-0.281 8.441,-1.428c2.792,-1.148 5.465,-2.998 8.019,-5.552c4.286,-4.286 6.548,-8.799 6.786,-13.539c0.238,-4.74 -1.418,-9.491 -4.968,-14.252l-5.649,5.649c2.251,2.943 3.322,5.898 3.214,8.863c-0.108,2.965 -1.526,5.812 -4.253,8.539c-1.731,1.731 -3.571,2.878 -5.519,3.441c-1.948,0.563 -3.885,0.66 -5.812,0.292c-1.926,-0.368 -3.809,-1.103 -5.649,-2.207c-1.84,-1.104 -3.539,-2.435 -5.097,-3.994c-1.688,-1.688 -3.149,-3.495 -4.383,-5.422c-1.234,-1.926 -2.056,-3.896 -2.468,-5.909c-0.411,-2.012 -0.313,-4.058 0.293,-6.136c0.606,-2.078 1.904,-4.112 3.896,-6.103c2.337,-2.338 4.783,-3.615 7.337,-3.831c2.554,-0.217 5.108,0.519 7.662,2.207Z" style="fill-rule:nonzero;"/><path d="M1670.27,81.623l-6.753,-6.753l-5.519,5.519l6.753,6.753l5.519,-5.519Zm0.519,11.558l33.571,33.571l5.519,-5.52l-33.57,-33.57l-5.52,5.519Z" style="fill-rule:nonzero;"/><path d="M1673.12,65.26l46.362,46.362l5.844,-5.844l-38.57,-38.57l0.13,-0.13l53.05,24.09l5.26,-5.259l-24.09,-53.051l0.129,-0.13l38.571,38.571l5.844,-5.844l-46.363,-46.362l-8.441,8.441l24.285,53.635l-53.57,-24.35l-8.441,8.441Z" style="fill-rule:nonzero;"/></g><path d="M1720.1,310.775l60.887,0l0,-45.917l110.196,101.013l-110.196,101.016l0,-45.916l-60.887,-0l-0,-110.196Z" style="fill:#ff0;fill-rule:nonzero;stroke:#000;stroke-width:9.17px;"/><g><path d="M1811.8,177.921l-22.857,-44.284l-5.714,5.714l19.935,34.999l-0.13,0.13l-34.48,-20.454l-6.038,6.039l20.713,34.219l-0.13,0.13l-35.064,-19.869l-6.103,6.103l44.349,22.792l5.974,-5.974l-19.935,-33.441l0.13,-0.129l33.506,19.869l5.844,-5.844Z" style="fill-rule:nonzero;"/><path d="M1820.83,160.454l4.221,4.221l28.311,-28.311l-4.87,-4.87l-21.428,21.428l-4.415,-45.453l-3.767,-3.766l-26.103,26.103l4.87,4.87l18.961,-18.961l4.22,44.739Z" style="fill-rule:nonzero;"/><path d="M1850.31,104.092l5.065,30.259l6.688,-6.688l-4.545,-23.246l23.246,4.545l7.077,-7.077l-31.103,-5.13l-3.896,-27.012l-6.623,6.623l3.377,20.129l-19.805,-3.701l-7.078,7.078l27.597,4.22Z" style="fill-rule:nonzero;"/></g><path d="M1891.73,310.775l41.05,0l0,-45.917l110.196,101.013l-110.196,101.016l0,-45.916l-41.05,-0l0,-110.196Z" style="fill:#bf4712;fill-rule:nonzero;stroke:#000;stroke-width:9.17px;"/><g><path d="M1906.7,177.595l33.57,33.571l5.52,-5.519l-20.909,-20.909c-0.649,-0.649 -1.298,-1.623 -1.948,-2.922c-0.649,-1.299 -1.071,-2.76 -1.266,-4.383c-0.195,-1.623 -0.043,-3.333 0.455,-5.13c0.497,-1.796 1.547,-3.495 3.149,-5.097c1.255,-1.255 2.467,-2.099 3.636,-2.532c1.169,-0.433 2.327,-0.552 3.474,-0.357c1.147,0.194 2.273,0.649 3.377,1.363c1.103,0.715 2.196,1.613 3.279,2.695l22.012,22.012l5.519,-5.519l-20.908,-20.908c-2.597,-2.598 -3.896,-5.455 -3.896,-8.572c-0,-3.116 1.363,-6.038 4.091,-8.766c1.342,-1.342 2.629,-2.24 3.863,-2.694c1.234,-0.455 2.424,-0.585 3.571,-0.39c1.148,0.195 2.262,0.66 3.345,1.396c1.082,0.736 2.142,1.623 3.181,2.662l22.013,22.013l5.519,-5.52l-24.61,-24.609c-1.731,-1.732 -3.485,-2.944 -5.259,-3.636c-1.775,-0.693 -3.539,-0.942 -5.292,-0.747c-1.754,0.195 -3.496,0.79 -5.227,1.785c-1.732,0.996 -3.442,2.338 -5.13,4.026c-2.208,2.208 -3.734,4.73 -4.578,7.565c-0.844,2.835 -0.92,5.725 -0.227,8.669c-2.771,-1.386 -5.433,-1.667 -7.987,-0.845c-2.554,0.823 -4.87,2.273 -6.948,4.351c-4.718,4.718 -6.428,10.238 -5.13,16.558l-0.129,0.13l-4.935,-4.935l-5.195,5.194Z" style="fill-rule:nonzero;"/><path d="M1962.09,122.208l33.57,33.57l5.52,-5.519l-18.961,-18.961c-1.515,-1.515 -2.705,-3.117 -3.571,-4.805c-0.866,-1.688 -1.364,-3.42 -1.494,-5.194c-0.129,-1.775 0.163,-3.539 0.877,-5.293c0.714,-1.753 1.915,-3.473 3.604,-5.162c2.121,-2.121 4.394,-3.181 6.818,-3.181c2.424,-0 4.675,1.038 6.753,3.116l22.726,22.727l5.52,-5.519l-22.078,-22.078c-1.818,-1.818 -3.658,-3.29 -5.519,-4.415c-1.861,-1.126 -3.788,-1.775 -5.779,-1.948c-1.991,-0.173 -4.026,0.173 -6.104,1.039c-2.078,0.866 -4.22,2.402 -6.428,4.61c-4.978,4.978 -6.58,10.649 -4.805,17.013l-0.13,0.129l-5.324,-5.324l-5.195,5.195Z" style="fill-rule:nonzero;"/><path d="M2061.37,89.806c-0.39,1.515 -1.429,3.117 -3.117,4.805c-1.429,1.429 -2.966,2.164 -4.611,2.208c-1.644,0.043 -3.376,-0.844 -5.194,-2.663c0.303,3.334 -0.152,6.407 -1.364,9.221c-1.212,2.814 -2.987,5.389 -5.324,7.727c-1.515,1.515 -3.128,2.781 -4.838,3.799c-1.71,1.017 -3.43,1.655 -5.162,1.915c-1.731,0.26 -3.485,0.087 -5.26,-0.519c-1.774,-0.606 -3.506,-1.754 -5.194,-3.442c-1.905,-1.904 -3.139,-3.788 -3.701,-5.649c-0.563,-1.861 -0.693,-3.701 -0.39,-5.519c0.303,-1.818 0.942,-3.604 1.916,-5.357c0.974,-1.753 2.045,-3.474 3.214,-5.162c1.212,-1.819 2.424,-3.485 3.636,-5c1.212,-1.515 2.197,-2.933 2.954,-4.253c0.758,-1.321 1.169,-2.554 1.234,-3.702c0.065,-1.147 -0.422,-2.24 -1.461,-3.279c-1.212,-1.212 -2.413,-1.959 -3.604,-2.24c-1.19,-0.281 -2.337,-0.26 -3.441,0.065c-1.104,0.325 -2.164,0.866 -3.182,1.623c-1.017,0.758 -1.959,1.57 -2.824,2.435c-2.338,2.338 -3.842,4.73 -4.513,7.175c-0.671,2.446 0.162,4.968 2.5,7.565l-5.52,5.519c-1.991,-2.164 -3.311,-4.35 -3.96,-6.558c-0.65,-2.207 -0.769,-4.404 -0.358,-6.59c0.412,-2.187 1.256,-4.308 2.533,-6.364c1.277,-2.056 2.868,-4.037 4.772,-5.941c1.515,-1.515 3.128,-2.911 4.838,-4.188c1.71,-1.277 3.506,-2.187 5.389,-2.728c1.883,-0.541 3.799,-0.573 5.747,-0.097c1.948,0.476 3.896,1.688 5.844,3.636l17.272,17.272c1.299,1.299 2.327,2.176 3.084,2.63c0.758,0.455 1.57,0.249 2.435,-0.617c0.477,-0.476 0.931,-1.147 1.364,-2.013l4.286,4.286Zm-26.168,-8.247c-0.174,1.213 -0.704,2.5 -1.591,3.864c-0.888,1.364 -1.873,2.738 -2.955,4.123c-1.082,1.385 -2.153,2.803 -3.214,4.253c-1.061,1.451 -1.872,2.89 -2.435,4.318c-0.563,1.429 -0.758,2.857 -0.584,4.286c0.173,1.429 0.952,2.835 2.337,4.221c0.909,0.909 1.862,1.493 2.857,1.753c0.996,0.26 1.981,0.292 2.955,0.097c0.974,-0.195 1.937,-0.595 2.889,-1.201c0.953,-0.606 1.862,-1.342 2.727,-2.208c1.819,-1.818 3.128,-3.625 3.929,-5.422c0.801,-1.796 1.234,-3.484 1.299,-5.064c0.064,-1.58 -0.152,-3.009 -0.65,-4.286c-0.498,-1.277 -1.136,-2.305 -1.915,-3.084l-5.649,-5.65Z" style="fill-rule:nonzero;"/><path d="M2056.37,56.755l-13.766,-29.48l0.13,-0.129l29.349,13.895l-15.713,15.714Zm-22.597,-31.817l28.311,64.413l6.298,-6.298l-8.766,-19.155l19.61,-19.61l19.026,8.896l6.817,-6.818l-64.478,-28.246l-6.818,6.818Z" style="fill-rule:nonzero;"/></g><path d="M2043.39,310.775l35.266,0l0,-45.917l110.196,101.013l-110.196,101.016l0,-45.916l-35.266,-0l-0,-110.196Z" style="fill:#9e5116;fill-rule:nonzero;stroke:#000;stroke-width:9.17px;"/><g><path d="M2062.61,180.19l28.701,28.701l5.519,-5.519l-28.701,-28.701l6.494,-6.493l-4.87,-4.87l-6.494,6.493l-4.675,-4.675c-1.472,-1.472 -2.099,-2.835 -1.883,-4.091c0.217,-1.255 0.996,-2.554 2.338,-3.896c0.476,-0.476 1.028,-0.963 1.656,-1.461c0.627,-0.498 1.266,-0.898 1.915,-1.201l-4.805,-4.805c-0.693,0.346 -1.418,0.812 -2.175,1.396c-0.758,0.584 -1.396,1.136 -1.916,1.656c-3.03,3.03 -4.632,6.039 -4.805,9.026c-0.173,2.986 1.104,5.843 3.831,8.571l5,5l-5.649,5.649l4.87,4.87l5.649,-5.65Z" style="fill-rule:nonzero;"/><path d="M2074.69,158.373l33.57,33.57l5.519,-5.519l-18.96,-18.96c-1.515,-1.515 -2.706,-3.117 -3.571,-4.805c-0.866,-1.689 -1.364,-3.42 -1.494,-5.195c-0.13,-1.775 0.162,-3.539 0.877,-5.292c0.714,-1.753 1.915,-3.474 3.603,-5.162c2.122,-2.121 4.394,-3.182 6.818,-3.182c2.425,-0 4.676,1.039 6.753,3.117l22.727,22.726l5.519,-5.519l-22.077,-22.077c-1.818,-1.818 -3.658,-3.29 -5.519,-4.416c-1.862,-1.125 -3.788,-1.774 -5.779,-1.948c-1.991,-0.173 -4.026,0.174 -6.104,1.039c-2.078,0.866 -4.221,2.403 -6.428,4.611c-4.978,4.978 -6.58,10.649 -4.805,17.012l-0.13,0.13l-5.325,-5.325l-5.194,5.195Z" style="fill-rule:nonzero;"/><path d="M2098.32,109.154l46.362,46.362l5.52,-5.519l-46.362,-46.363l-5.52,5.52Z" style="fill-rule:nonzero;"/><path d="M2148.52,113.374l-13.766,-29.479l0.13,-0.13l29.349,13.896l-15.713,15.713Zm-22.597,-31.817l28.311,64.414l6.298,-6.299l-8.766,-19.155l19.61,-19.61l19.025,8.896l6.818,-6.818l-64.478,-28.246l-6.818,6.818Z" style="fill-rule:nonzero;"/></g><path d="M2202.49,310.775l59.229,0l-0,-45.917l110.2,101.013l-110.2,101.016l-0,-45.916l-59.229,-0l-0,-110.196Z" style="fill:#9e5116;fill-rule:nonzero;stroke:#000;stroke-width:9.17px;"/><g><path d="M2233.69,180.194l28.7,28.701l5.519,-5.52l-28.7,-28.7l6.493,-6.493l-4.87,-4.87l-6.493,6.493l-4.675,-4.675c-1.472,-1.472 -2.1,-2.836 -1.883,-4.091c0.216,-1.255 0.995,-2.554 2.337,-3.896c0.477,-0.476 1.028,-0.963 1.656,-1.461c0.628,-0.498 1.266,-0.898 1.916,-1.201l-4.805,-4.805c-0.693,0.346 -1.418,0.811 -2.176,1.396c-0.757,0.584 -1.396,1.136 -1.915,1.656c-3.03,3.03 -4.632,6.038 -4.805,9.025c-0.173,2.987 1.104,5.844 3.831,8.571l5,5l-5.649,5.649l4.87,4.87l5.649,-5.649Z" style="fill-rule:nonzero;"/><path d="M2245.77,158.377l33.571,33.57l5.519,-5.519l-18.96,-18.961c-1.516,-1.515 -2.706,-3.116 -3.572,-4.805c-0.866,-1.688 -1.363,-3.42 -1.493,-5.194c-0.13,-1.775 0.162,-3.539 0.876,-5.292c0.715,-1.754 1.916,-3.474 3.604,-5.163c2.121,-2.121 4.394,-3.181 6.818,-3.181c2.424,-0 4.675,1.039 6.753,3.116l22.727,22.727l5.519,-5.519l-22.077,-22.077c-1.818,-1.819 -3.658,-3.29 -5.52,-4.416c-1.861,-1.125 -3.787,-1.775 -5.779,-1.948c-1.991,-0.173 -4.025,0.173 -6.103,1.039c-2.078,0.866 -4.221,2.403 -6.429,4.61c-4.978,4.978 -6.58,10.649 -4.805,17.013l-0.13,0.13l-5.324,-5.325l-5.195,5.195Z" style="fill-rule:nonzero;"/><path d="M2269.4,109.157l46.362,46.363l5.519,-5.52l-46.362,-46.362l-5.519,5.519Z" style="fill-rule:nonzero;"/><path d="M2310.51,107.924l-14.74,-14.74l12.337,-12.337c1.342,-1.342 2.684,-2.533 4.026,-3.572c1.342,-1.039 2.727,-1.753 4.156,-2.142c1.428,-0.39 2.878,-0.368 4.35,0.064c1.472,0.433 3.03,1.472 4.675,3.117c2.468,2.468 3.55,5.087 3.247,7.857c-0.303,2.771 -2.208,5.909 -5.714,9.415l-12.337,12.338Zm-26.104,-13.766l46.363,46.362l22.402,-22.402c2.294,-2.294 3.939,-4.697 4.934,-7.207c0.996,-2.511 1.472,-4.979 1.429,-7.403c-0.043,-2.424 -0.563,-4.74 -1.558,-6.948c-0.996,-2.207 -2.338,-4.155 -4.026,-5.844c-2.857,-2.857 -6.039,-4.523 -9.545,-4.999c-3.507,-0.477 -6.992,0.411 -10.455,2.662l-0.13,-0.13c1.342,-3.073 1.71,-6.104 1.104,-9.091c-0.606,-2.987 -2.142,-5.714 -4.61,-8.181c-2.338,-2.338 -4.837,-3.777 -7.5,-4.318c-2.662,-0.541 -5.205,-0.509 -7.629,0.097c-1.126,0.26 -2.284,0.769 -3.474,1.526c-1.191,0.758 -2.403,1.645 -3.636,2.662c-1.234,1.018 -2.435,2.089 -3.604,3.215c-1.169,1.125 -2.251,2.186 -3.247,3.181l-16.818,16.818Zm47.337,34.999l-16.039,-16.039l14.091,-14.09c1.298,-1.299 2.673,-2.435 4.123,-3.409c1.45,-0.974 2.933,-1.634 4.448,-1.981c1.515,-0.346 3.052,-0.303 4.61,0.13c1.558,0.433 3.095,1.407 4.61,2.922c2.598,2.598 3.864,5.401 3.799,8.409c-0.065,3.009 -1.461,5.877 -4.188,8.604l-15.454,15.454Z" style="fill-rule:nonzero;"/></g><path d="M2371.92,310.775l53.033,0l0,-45.917l110.196,101.013l-110.196,101.016l0,-45.916l-53.033,-0l-0,-110.196Z" style="fill:#9e5116;fill-rule:nonzero;stroke:#000;stroke-width:9.17px;"/><g><path d="M2400.02,180.194l28.7,28.701l5.52,-5.52l-28.701,-28.7l6.494,-6.493l-4.87,-4.87l-6.494,6.493l-4.675,-4.675c-1.472,-1.472 -2.099,-2.836 -1.883,-4.091c0.216,-1.255 0.996,-2.554 2.338,-3.896c0.476,-0.476 1.028,-0.963 1.655,-1.461c0.628,-0.498 1.267,-0.898 1.916,-1.201l-4.805,-4.805c-0.693,0.346 -1.418,0.811 -2.175,1.396c-0.758,0.584 -1.396,1.136 -1.916,1.656c-3.03,3.03 -4.632,6.038 -4.805,9.025c-0.173,2.987 1.104,5.844 3.831,8.571l5,5l-5.649,5.649l4.87,4.87l5.649,-5.649Z" style="fill-rule:nonzero;"/><path d="M2412.1,158.377l33.571,33.57l5.519,-5.519l-18.96,-18.961c-1.515,-1.515 -2.706,-3.116 -3.572,-4.805c-0.865,-1.688 -1.363,-3.42 -1.493,-5.194c-0.13,-1.775 0.162,-3.539 0.877,-5.292c0.714,-1.754 1.915,-3.474 3.603,-5.163c2.121,-2.121 4.394,-3.181 6.818,-3.181c2.424,-0 4.675,1.039 6.753,3.116l22.727,22.727l5.519,-5.519l-22.077,-22.078c-1.818,-1.818 -3.658,-3.289 -5.519,-4.415c-1.862,-1.125 -3.788,-1.775 -5.779,-1.948c-1.992,-0.173 -4.026,0.173 -6.104,1.039c-2.078,0.866 -4.221,2.403 -6.428,4.61c-4.979,4.978 -6.58,10.649 -4.806,17.013l-0.129,0.13l-5.325,-5.325l-5.195,5.195Z" style="fill-rule:nonzero;"/><path d="M2435.73,109.157l46.362,46.363l5.52,-5.52l-46.363,-46.362l-5.519,5.519Z" style="fill-rule:nonzero;"/><path d="M2497.29,75.522l6.168,-6.169c-2.814,-2.121 -5.725,-3.56 -8.733,-4.318c-3.009,-0.757 -5.985,-0.919 -8.929,-0.487c-2.943,0.433 -5.822,1.407 -8.636,2.922c-2.813,1.516 -5.432,3.485 -7.857,5.909c-3.549,3.55 -6.06,7.338 -7.532,11.364c-1.472,4.025 -2.024,8.062 -1.656,12.11c0.368,4.047 1.559,8.03 3.572,11.947c2.013,3.918 4.707,7.565 8.084,10.942c3.376,3.376 6.98,6.092 10.811,8.149c3.831,2.056 7.716,3.279 11.656,3.668c3.939,0.39 7.867,-0.14 11.785,-1.591c3.918,-1.45 7.673,-3.971 11.266,-7.564c5.931,-5.931 8.982,-12.229 9.156,-18.896c0.173,-6.666 -2.36,-13.224 -7.598,-19.674l-6.168,6.168c1.775,2.035 3.16,4.199 4.155,6.493c0.996,2.295 1.516,4.611 1.559,6.948c0.043,2.338 -0.39,4.632 -1.299,6.883c-0.909,2.251 -2.381,4.394 -4.415,6.429c-2.771,2.77 -5.671,4.632 -8.701,5.584c-3.031,0.952 -6.061,1.19 -9.091,0.714c-3.03,-0.476 -6.028,-1.591 -8.993,-3.344c-2.965,-1.753 -5.768,-3.95 -8.409,-6.591c-2.424,-2.424 -4.459,-5.064 -6.104,-7.921c-1.645,-2.858 -2.705,-5.801 -3.181,-8.831c-0.477,-3.031 -0.249,-6.05 0.681,-9.059c0.931,-3.008 2.782,-5.898 5.552,-8.668c3.247,-3.247 6.872,-5.227 10.876,-5.941c4.005,-0.715 7.998,0.227 11.981,2.824Z" style="fill-rule:nonzero;"/></g><path d="M2574.27,466.888l-0,-202.03l-12.4,101.013l12.4,101.016Z" style="fill:#c4a484;fill-rule:nonzero;stroke:#000;stroke-width:9.17px;"/><path d="M2733.09,310.775l-37.467,0l-0,-45.917l-110.196,101.013l110.196,101.016l-0,-45.916l37.467,-0l-0,-110.196Z" style="fill:#c4a484;fill-rule:nonzero;stroke:#000;stroke-width:9.17px;"/><g><path d="M2606.26,169.932l-10.065,-10.065l-5.519,5.52l10.065,10.064l-5.714,5.714l4.87,4.87l5.714,-5.714l21.363,21.363c1.558,1.559 2.965,2.662 4.22,3.312c1.256,0.649 2.457,0.92 3.604,0.811c1.147,-0.108 2.327,-0.573 3.539,-1.396c1.212,-0.822 2.532,-1.948 3.961,-3.376l4.221,-4.221l-4.87,-4.87l-2.533,2.533c-0.866,0.865 -1.601,1.536 -2.207,2.012c-0.607,0.477 -1.169,0.758 -1.689,0.845c-0.519,0.086 -1.028,-0.011 -1.526,-0.293c-0.497,-0.281 -1.071,-0.746 -1.72,-1.396l-20.844,-20.843l6.688,-6.688l-4.87,-4.87l-6.688,6.688Z" style="fill-rule:nonzero;"/><path d="M2619.05,157.14l33.57,33.57l5.52,-5.519l-18.961,-18.96c-1.515,-1.515 -2.705,-3.117 -3.571,-4.805c-0.866,-1.689 -1.364,-3.42 -1.494,-5.195c-0.129,-1.775 0.163,-3.539 0.877,-5.292c0.714,-1.753 1.916,-3.474 3.604,-5.162c2.121,-2.121 4.394,-3.182 6.818,-3.182c2.424,0 4.675,1.039 6.753,3.117l22.726,22.726l5.52,-5.519l-22.078,-22.077c-1.818,-1.818 -3.657,-3.29 -5.519,-4.416c-1.861,-1.125 -3.788,-1.774 -5.779,-1.948c-1.991,-0.173 -4.026,0.174 -6.104,1.039c-2.077,0.866 -4.22,2.403 -6.428,4.611c-4.978,4.978 -6.58,10.649 -4.805,17.012l-0.13,0.13l-5.324,-5.325l-5.195,5.195Z" style="fill-rule:nonzero;"/><path d="M2655.35,120.842l46.363,46.363l5.519,-5.52l-17.272,-17.272l0.13,-0.13c1.601,0.39 3.181,0.476 4.74,0.26c1.558,-0.216 3.03,-0.628 4.415,-1.234c1.385,-0.606 2.673,-1.331 3.864,-2.175c1.19,-0.844 2.197,-1.677 3.019,-2.5c2.554,-2.554 4.34,-5.249 5.357,-8.084c1.017,-2.835 1.375,-5.682 1.072,-8.539c-0.304,-2.857 -1.202,-5.66 -2.695,-8.409c-1.494,-2.748 -3.431,-5.313 -5.812,-7.694c-2.381,-2.381 -4.956,-4.307 -7.727,-5.779c-2.77,-1.472 -5.606,-2.381 -8.506,-2.727c-2.9,-0.347 -5.79,-0.033 -8.669,0.941c-2.878,0.974 -5.616,2.76 -8.214,5.357c-2.337,2.338 -4.058,4.903 -5.162,7.695c-1.104,2.792 -1.179,5.573 -0.227,8.344l-0.13,0.129l-4.545,-4.545l-5.52,5.519Zm42.467,-9.48c1.645,1.645 3.073,3.42 4.285,5.325c1.212,1.904 2.035,3.852 2.468,5.844c0.433,1.991 0.379,3.993 -0.163,6.006c-0.541,2.013 -1.764,3.972 -3.668,5.876c-1.905,1.905 -3.885,3.171 -5.942,3.799c-2.056,0.628 -4.09,0.779 -6.103,0.455c-2.013,-0.325 -3.983,-1.061 -5.909,-2.208c-1.927,-1.147 -3.712,-2.543 -5.357,-4.188c-1.559,-1.559 -2.911,-3.279 -4.059,-5.162c-1.147,-1.884 -1.904,-3.832 -2.272,-5.844c-0.368,-2.013 -0.271,-4.037 0.292,-6.072c0.563,-2.034 1.775,-3.982 3.636,-5.844c1.775,-1.775 3.669,-2.976 5.682,-3.603c2.013,-0.628 4.026,-0.78 6.039,-0.455c2.013,0.325 3.971,1.028 5.876,2.11c1.905,1.083 3.636,2.403 5.195,3.961Z" style="fill-rule:nonzero;"/></g><path d="M2747.14,466.888l-0,-202.03l25.62,101.013l-25.62,101.016Z" style="fill:#c4a484;fill-rule:nonzero;stroke:#000;stroke-width:9.17px;"/><path d="M2883.92,466.888l-0,-202.03l-78.792,101.013l78.792,101.016Z" style="fill:#c4a484;fill-rule:nonzero;stroke:#000;stroke-width:9.17px;"/><path d="M2900.31,466.888l-0,-202.03l49.587,101.013l-49.587,101.016Z" style="fill-rule:nonzero;stroke:#000;stroke-width:9.17px;"/><g><path d="M2927.63,181.295c-0.39,1.515 -1.429,3.117 -3.117,4.805c-1.428,1.429 -2.965,2.165 -4.61,2.208c-1.645,0.043 -3.377,-0.844 -5.195,-2.662c0.303,3.333 -0.151,6.407 -1.363,9.22c-1.212,2.814 -2.987,5.39 -5.325,7.727c-1.515,1.515 -3.128,2.782 -4.837,3.799c-1.71,1.017 -3.431,1.656 -5.163,1.915c-1.731,0.26 -3.484,0.087 -5.259,-0.519c-1.775,-0.606 -3.507,-1.753 -5.195,-3.441c-1.905,-1.905 -3.138,-3.788 -3.701,-5.65c-0.563,-1.861 -0.693,-3.701 -0.39,-5.519c0.303,-1.818 0.942,-3.604 1.916,-5.357c0.974,-1.753 2.045,-3.474 3.214,-5.162c1.212,-1.818 2.424,-3.485 3.636,-5c1.212,-1.515 2.197,-2.933 2.955,-4.253c0.757,-1.32 1.169,-2.554 1.234,-3.701c0.064,-1.147 -0.423,-2.24 -1.461,-3.279c-1.213,-1.212 -2.414,-1.959 -3.604,-2.241c-1.191,-0.281 -2.338,-0.259 -3.442,0.065c-1.104,0.325 -2.164,0.866 -3.181,1.624c-1.018,0.757 -1.959,1.569 -2.825,2.435c-2.338,2.337 -3.842,4.729 -4.513,7.175c-0.671,2.446 0.162,4.967 2.5,7.564l-5.519,5.52c-1.992,-2.165 -3.312,-4.351 -3.961,-6.558c-0.649,-2.208 -0.769,-4.405 -0.357,-6.591c0.411,-2.186 1.255,-4.307 2.532,-6.364c1.277,-2.056 2.868,-4.036 4.773,-5.941c1.515,-1.515 3.127,-2.911 4.837,-4.188c1.71,-1.277 3.507,-2.186 5.39,-2.727c1.883,-0.541 3.798,-0.574 5.746,-0.098c1.948,0.476 3.896,1.689 5.844,3.637l17.272,17.272c1.299,1.298 2.327,2.175 3.085,2.63c0.757,0.454 1.569,0.248 2.435,-0.617c0.476,-0.477 0.93,-1.148 1.363,-2.013l4.286,4.285Zm-26.168,-8.246c-0.173,1.212 -0.704,2.5 -1.591,3.863c-0.887,1.364 -1.872,2.738 -2.954,4.124c-1.083,1.385 -2.154,2.803 -3.215,4.253c-1.06,1.45 -1.872,2.889 -2.435,4.318c-0.562,1.428 -0.757,2.857 -0.584,4.285c0.173,1.429 0.952,2.836 2.338,4.221c0.909,0.909 1.861,1.493 2.857,1.753c0.995,0.26 1.98,0.292 2.954,0.098c0.974,-0.195 1.937,-0.596 2.89,-1.202c0.952,-0.606 1.861,-1.342 2.727,-2.207c1.818,-1.819 3.127,-3.626 3.928,-5.422c0.801,-1.797 1.234,-3.485 1.299,-5.065c0.065,-1.58 -0.152,-3.009 -0.649,-4.286c-0.498,-1.277 -1.137,-2.305 -1.916,-3.084l-5.649,-5.649Z" style="fill-rule:nonzero;"/><path d="M2886.86,129.609l46.362,46.362l5.519,-5.52l-46.362,-46.362l-5.519,5.52Z" style="fill-rule:nonzero;"/><path d="M2913.54,116.427l-6.753,-6.753l-5.519,5.519l6.753,6.753l5.519,-5.519Zm0.52,11.558l33.57,33.571l5.52,-5.52l-33.571,-33.57l-5.519,5.519Z" style="fill-rule:nonzero;"/><path d="M2951.46,119.414l-13.766,-29.48l0.13,-0.129l29.35,13.895l-15.714,15.714Zm-22.596,-31.817l28.31,64.413l6.299,-6.298l-8.766,-19.155l19.61,-19.61l19.025,8.896l6.818,-6.818l-64.478,-28.246l-6.818,6.818Z" style="fill-rule:nonzero;"/></g></svg>