<?xml version="1.0" encoding="UTF-8" standalone="no"?>
<!DOCTYPE svg PUBLIC "-//W3C//DTD SVG 1.1//EN" "http://www.w3.org/Graphics/SVG/1.1/DTD/svg11.dtd">
<svg width="100%" height="100%" viewBox="0 0 1175 222" version="1.1" xmlns="http://www.w3.org/2000/svg" xmlns:xlink="http://www.w3.org/1999/xlink" xml:space="preserve" xmlns:serif="http://www.serif.com/" style="fill-rule:evenodd;clip-rule:evenodd;">
    <path d="M8.59,167.186L1165.9,167.186" style="fill:none;fill-rule:nonzero;stroke:rgb(17,17,17);stroke-width:4.17px;"/>
    <path d="M26.902,213.019L26.902,121.353L37.777,167.186L26.902,213.019Z" style="fill:rgb(243,207,198);fill-rule:nonzero;stroke:black;stroke-width:4.17px;"/>
    <path d="M58.402,213.019L58.402,121.353L35.715,167.186L58.402,213.019Z" style="fill:rgb(243,207,198);fill-rule:nonzero;stroke:black;stroke-width:4.17px;"/>
    <path d="M83.652,142.186L124.027,142.186L124.027,121.353L174.027,167.186L124.027,213.019L124.027,192.186L83.652,192.186L83.652,142.186Z" style="fill:rgb(0,0,255);fill-rule:nonzero;stroke:black;stroke-width:4.17px;"/>
    <g transform="matrix(0.707107,-0.707107,0.707107,0.707107,114.666,98.8775)">
        <g transform="matrix(41.667,0,0,41.667,0,0)">
            <path d="M0.576,-0L0.741,-0.517L0.653,-0.517L0.537,-0.094L0.535,-0.094L0.427,-0.517L0.334,-0.517L0.23,-0.094L0.228,-0.094L0.111,-0.517L0.017,-0.517L0.183,-0L0.275,-0L0.379,-0.411L0.381,-0.411L0.486,-0L0.576,-0Z" style="fill-rule:nonzero;"/>
        </g>
        <g transform="matrix(41.667,0,0,41.667,31.5836,0)">
            <path d="M0.022,-0.065L0.022,-0L0.458,-0L0.458,-0.075L0.128,-0.075L0.444,-0.459L0.444,-0.517L0.042,-0.517L0.042,-0.442L0.334,-0.442L0.022,-0.065Z" style="fill-rule:nonzero;"/>
        </g>
        <g transform="matrix(41.667,0,0,41.667,51.5837,0)">
            <path d="M0.51,-0.044L0.51,-0.517L0.43,-0.517L0.43,-0.443L0.429,-0.443C0.414,-0.472 0.392,-0.493 0.365,-0.508C0.338,-0.522 0.308,-0.529 0.275,-0.529C0.23,-0.529 0.193,-0.521 0.162,-0.504C0.131,-0.487 0.107,-0.465 0.088,-0.439C0.069,-0.412 0.056,-0.383 0.048,-0.351C0.04,-0.318 0.036,-0.287 0.036,-0.256C0.036,-0.221 0.041,-0.187 0.051,-0.156C0.06,-0.124 0.075,-0.096 0.094,-0.073C0.113,-0.049 0.137,-0.03 0.166,-0.016C0.195,-0.002 0.228,0.005 0.267,0.005C0.3,0.005 0.332,-0.003 0.362,-0.018C0.391,-0.033 0.413,-0.056 0.428,-0.088L0.43,-0.088L0.43,-0.054C0.43,-0.025 0.427,0.001 0.422,0.025C0.416,0.049 0.407,0.07 0.394,0.087C0.381,0.103 0.365,0.117 0.346,0.127C0.327,0.136 0.303,0.141 0.275,0.141C0.261,0.141 0.246,0.14 0.231,0.137C0.216,0.134 0.202,0.129 0.189,0.122C0.175,0.115 0.165,0.107 0.156,0.096C0.147,0.085 0.142,0.072 0.141,0.057L0.056,0.057C0.057,0.085 0.065,0.109 0.078,0.128C0.091,0.147 0.108,0.163 0.129,0.175C0.149,0.187 0.171,0.196 0.197,0.201C0.222,0.206 0.246,0.209 0.27,0.209C0.353,0.209 0.413,0.188 0.452,0.146C0.491,0.104 0.51,0.041 0.51,-0.044ZM0.272,-0.069C0.244,-0.069 0.221,-0.075 0.202,-0.087C0.183,-0.098 0.168,-0.114 0.157,-0.133C0.146,-0.152 0.138,-0.173 0.133,-0.196C0.128,-0.219 0.126,-0.243 0.126,-0.266C0.126,-0.291 0.129,-0.314 0.135,-0.337C0.14,-0.36 0.149,-0.38 0.162,-0.397C0.174,-0.414 0.19,-0.428 0.209,-0.439C0.228,-0.449 0.252,-0.454 0.279,-0.454C0.306,-0.454 0.328,-0.449 0.347,-0.438C0.366,-0.427 0.381,-0.413 0.393,-0.396C0.404,-0.378 0.413,-0.358 0.418,-0.336C0.423,-0.314 0.426,-0.292 0.426,-0.269C0.426,-0.245 0.423,-0.221 0.418,-0.197C0.412,-0.173 0.403,-0.152 0.391,-0.133C0.379,-0.114 0.363,-0.098 0.344,-0.087C0.324,-0.075 0.3,-0.069 0.272,-0.069Z" style="fill-rule:nonzero;"/>
        </g>
    </g>
    <path d="M174.09,213.019L174.09,121.353L219.84,167.186L174.09,213.019Z" style="fill:rgb(0,0,255);fill-rule:nonzero;stroke:black;stroke-width:4.17px;"/>
    <g transform="matrix(0.707107,-0.707107,0.707107,0.707107,182.791,98.8768)">
        <g transform="matrix(41.667,0,0,41.667,0,0)">
            <path d="M0.576,-0L0.741,-0.517L0.653,-0.517L0.537,-0.094L0.535,-0.094L0.427,-0.517L0.334,-0.517L0.23,-0.094L0.228,-0.094L0.111,-0.517L0.017,-0.517L0.183,-0L0.275,-0L0.379,-0.411L0.381,-0.411L0.486,-0L0.576,-0Z" style="fill-rule:nonzero;"/>
        </g>
        <g transform="matrix(41.667,0,0,41.667,31.5836,0)">
            <path d="M0.022,-0.065L0.022,-0L0.458,-0L0.458,-0.075L0.128,-0.075L0.444,-0.459L0.444,-0.517L0.042,-0.517L0.042,-0.442L0.334,-0.442L0.022,-0.065Z" style="fill-rule:nonzero;"/>
        </g>
        <g transform="matrix(41.667,0,0,41.667,51.5837,0)">
            <path d="M0.064,-0.714L0.064,-0L0.149,-0L0.149,-0.292C0.149,-0.315 0.152,-0.337 0.159,-0.357C0.165,-0.376 0.174,-0.393 0.187,-0.408C0.2,-0.423 0.216,-0.434 0.235,-0.442C0.254,-0.45 0.276,-0.454 0.302,-0.454C0.335,-0.454 0.36,-0.445 0.379,-0.426C0.398,-0.407 0.407,-0.382 0.407,-0.35L0.407,-0L0.492,-0L0.492,-0.34C0.492,-0.368 0.489,-0.393 0.484,-0.417C0.478,-0.44 0.468,-0.459 0.454,-0.476C0.44,-0.493 0.422,-0.506 0.399,-0.515C0.376,-0.524 0.348,-0.529 0.314,-0.529C0.299,-0.529 0.283,-0.527 0.267,-0.524C0.25,-0.521 0.235,-0.516 0.22,-0.509C0.205,-0.502 0.191,-0.493 0.179,-0.482C0.167,-0.47 0.158,-0.457 0.151,-0.441L0.149,-0.441L0.149,-0.714L0.064,-0.714Z" style="fill-rule:nonzero;"/>
        </g>
    </g>
    <path d="M220.34,213.019L220.34,121.353L263.652,167.186L220.34,213.019Z" style="fill:rgb(0,0,255);fill-rule:nonzero;stroke:black;stroke-width:4.17px;"/>
    <g transform="matrix(0.707107,-0.707107,0.707107,0.707107,227.823,98.8764)">
        <g transform="matrix(41.667,0,0,41.667,0,0)">
            <path d="M0.576,-0L0.741,-0.517L0.653,-0.517L0.537,-0.094L0.535,-0.094L0.427,-0.517L0.334,-0.517L0.23,-0.094L0.228,-0.094L0.111,-0.517L0.017,-0.517L0.183,-0L0.275,-0L0.379,-0.411L0.381,-0.411L0.486,-0L0.576,-0Z" style="fill-rule:nonzero;"/>
        </g>
        <g transform="matrix(41.667,0,0,41.667,31.5836,0)">
            <path d="M0.022,-0.065L0.022,-0L0.458,-0L0.458,-0.075L0.128,-0.075L0.444,-0.459L0.444,-0.517L0.042,-0.517L0.042,-0.442L0.334,-0.442L0.022,-0.065Z" style="fill-rule:nonzero;"/>
        </g>
        <g transform="matrix(41.667,0,0,41.667,51.5837,0)">
            <path d="M0.126,-0.254C0.126,-0.279 0.129,-0.304 0.134,-0.328C0.139,-0.352 0.148,-0.373 0.16,-0.392C0.172,-0.411 0.188,-0.426 0.208,-0.437C0.228,-0.448 0.252,-0.454 0.281,-0.454C0.31,-0.454 0.335,-0.448 0.356,-0.438C0.377,-0.427 0.394,-0.412 0.407,-0.394C0.42,-0.376 0.429,-0.355 0.435,-0.332C0.441,-0.308 0.444,-0.283 0.444,-0.258C0.444,-0.234 0.441,-0.21 0.436,-0.187C0.43,-0.164 0.421,-0.143 0.408,-0.125C0.395,-0.106 0.379,-0.091 0.359,-0.08C0.339,-0.069 0.315,-0.063 0.286,-0.063C0.259,-0.063 0.235,-0.068 0.215,-0.079C0.194,-0.09 0.178,-0.104 0.165,-0.122C0.152,-0.14 0.142,-0.161 0.136,-0.184C0.129,-0.206 0.126,-0.23 0.126,-0.254ZM0.526,-0L0.526,-0.714L0.441,-0.714L0.441,-0.448L0.439,-0.448C0.43,-0.463 0.418,-0.476 0.405,-0.487C0.391,-0.497 0.376,-0.505 0.361,-0.512C0.346,-0.518 0.33,-0.522 0.315,-0.525C0.3,-0.528 0.285,-0.529 0.272,-0.529C0.233,-0.529 0.198,-0.522 0.169,-0.508C0.139,-0.493 0.114,-0.474 0.095,-0.45C0.075,-0.425 0.06,-0.397 0.051,-0.364C0.041,-0.331 0.036,-0.297 0.036,-0.26C0.036,-0.223 0.041,-0.189 0.051,-0.156C0.061,-0.123 0.076,-0.095 0.096,-0.07C0.115,-0.045 0.14,-0.026 0.17,-0.011C0.199,0.004 0.234,0.011 0.274,0.011C0.31,0.011 0.343,0.005 0.373,-0.008C0.403,-0.021 0.425,-0.041 0.439,-0.07L0.441,-0.07L0.441,-0L0.526,-0Z" style="fill-rule:nonzero;"/>
        </g>
    </g>
    <path d="M264.215,213.019L264.215,121.353L307.34,167.186L264.215,213.019Z" style="fill:rgb(0,0,255);fill-rule:nonzero;stroke:black;stroke-width:4.17px;"/>
    <g transform="matrix(0.707107,-0.707107,0.707107,0.707107,271.604,98.8765)">
        <g transform="matrix(41.667,0,0,41.667,0,0)">
            <path d="M0.576,-0L0.741,-0.517L0.653,-0.517L0.537,-0.094L0.535,-0.094L0.427,-0.517L0.334,-0.517L0.23,-0.094L0.228,-0.094L0.111,-0.517L0.017,-0.517L0.183,-0L0.275,-0L0.379,-0.411L0.381,-0.411L0.486,-0L0.576,-0Z" style="fill-rule:nonzero;"/>
        </g>
        <g transform="matrix(41.667,0,0,41.667,31.5836,0)">
            <path d="M0.022,-0.065L0.022,-0L0.458,-0L0.458,-0.075L0.128,-0.075L0.444,-0.459L0.444,-0.517L0.042,-0.517L0.042,-0.442L0.334,-0.442L0.022,-0.065Z" style="fill-rule:nonzero;"/>
        </g>
        <g transform="matrix(41.667,0,0,41.667,51.5837,0)">
            <path d="M0.423,-0.308L0.126,-0.308C0.127,-0.328 0.132,-0.347 0.139,-0.365C0.146,-0.382 0.156,-0.398 0.169,-0.411C0.182,-0.424 0.197,-0.435 0.215,-0.443C0.232,-0.45 0.252,-0.454 0.274,-0.454C0.295,-0.454 0.315,-0.45 0.333,-0.443C0.35,-0.435 0.366,-0.425 0.379,-0.412C0.392,-0.399 0.402,-0.383 0.41,-0.365C0.417,-0.347 0.422,-0.328 0.423,-0.308ZM0.505,-0.164L0.421,-0.164C0.414,-0.13 0.399,-0.105 0.376,-0.088C0.353,-0.071 0.323,-0.063 0.287,-0.063C0.259,-0.063 0.235,-0.068 0.214,-0.077C0.193,-0.086 0.176,-0.099 0.163,-0.115C0.15,-0.13 0.14,-0.148 0.134,-0.169C0.128,-0.189 0.125,-0.21 0.126,-0.233L0.513,-0.233C0.514,-0.264 0.511,-0.297 0.505,-0.332C0.498,-0.367 0.485,-0.399 0.467,-0.428C0.448,-0.457 0.424,-0.482 0.394,-0.501C0.363,-0.52 0.325,-0.529 0.279,-0.529C0.244,-0.529 0.211,-0.522 0.182,-0.509C0.152,-0.496 0.126,-0.477 0.105,-0.453C0.083,-0.429 0.066,-0.401 0.054,-0.368C0.042,-0.335 0.036,-0.299 0.036,-0.26C0.037,-0.221 0.043,-0.184 0.054,-0.151C0.064,-0.118 0.079,-0.089 0.1,-0.065C0.121,-0.041 0.146,-0.022 0.177,-0.009C0.207,0.004 0.243,0.011 0.284,0.011C0.343,0.011 0.391,-0.004 0.43,-0.033C0.469,-0.062 0.494,-0.106 0.505,-0.164Z" style="fill-rule:nonzero;"/>
        </g>
    </g>
    <path d="M308.215,142.186L343.715,142.186L343.715,121.353L393.715,167.186L343.715,213.019L343.715,192.186L308.215,192.186L308.215,142.186Z" style="fill:rgb(128,0,128);fill-rule:nonzero;stroke:black;stroke-width:4.17px;"/>
    <g transform="matrix(0.707107,-0.707107,0.707107,0.707107,336.791,98.8773)">
        <g transform="matrix(41.667,0,0,41.667,0,0)">
            <path d="M0.576,-0L0.741,-0.517L0.653,-0.517L0.537,-0.094L0.535,-0.094L0.427,-0.517L0.334,-0.517L0.23,-0.094L0.228,-0.094L0.111,-0.517L0.017,-0.517L0.183,-0L0.275,-0L0.379,-0.411L0.381,-0.411L0.486,-0L0.576,-0Z" style="fill-rule:nonzero;"/>
        </g>
        <g transform="matrix(41.667,0,0,41.667,31.5836,0)">
            <path d="M0.415,-0.351L0.503,-0.351C0.5,-0.382 0.492,-0.408 0.479,-0.431C0.466,-0.453 0.45,-0.471 0.431,-0.486C0.411,-0.501 0.388,-0.511 0.363,-0.519C0.337,-0.526 0.309,-0.529 0.28,-0.529C0.239,-0.529 0.204,-0.522 0.173,-0.508C0.142,-0.493 0.117,-0.474 0.097,-0.449C0.076,-0.424 0.061,-0.394 0.051,-0.361C0.041,-0.327 0.036,-0.291 0.036,-0.252C0.036,-0.213 0.041,-0.178 0.052,-0.146C0.062,-0.113 0.077,-0.085 0.098,-0.062C0.118,-0.039 0.143,-0.021 0.174,-0.008C0.204,0.005 0.239,0.011 0.278,0.011C0.344,0.011 0.396,-0.006 0.435,-0.041C0.473,-0.076 0.497,-0.125 0.506,-0.189L0.419,-0.189C0.414,-0.149 0.399,-0.118 0.376,-0.096C0.352,-0.074 0.319,-0.063 0.277,-0.063C0.25,-0.063 0.227,-0.068 0.208,-0.079C0.189,-0.09 0.173,-0.104 0.161,-0.122C0.149,-0.139 0.14,-0.159 0.135,-0.182C0.129,-0.205 0.126,-0.228 0.126,-0.252C0.126,-0.278 0.129,-0.303 0.134,-0.328C0.139,-0.352 0.148,-0.373 0.161,-0.392C0.173,-0.411 0.189,-0.426 0.21,-0.437C0.231,-0.448 0.256,-0.454 0.287,-0.454C0.323,-0.454 0.352,-0.445 0.373,-0.427C0.394,-0.409 0.408,-0.384 0.415,-0.351Z" style="fill-rule:nonzero;"/>
        </g>
        <g transform="matrix(41.667,0,0,41.667,53.9588,0)">
            <path d="M0.064,-0.714L0.064,-0L0.149,-0L0.149,-0.292C0.149,-0.315 0.152,-0.337 0.159,-0.357C0.165,-0.376 0.174,-0.393 0.187,-0.408C0.2,-0.423 0.216,-0.434 0.235,-0.442C0.254,-0.45 0.276,-0.454 0.302,-0.454C0.335,-0.454 0.36,-0.445 0.379,-0.426C0.398,-0.407 0.407,-0.382 0.407,-0.35L0.407,-0L0.492,-0L0.492,-0.34C0.492,-0.368 0.489,-0.393 0.484,-0.417C0.478,-0.44 0.468,-0.459 0.454,-0.476C0.44,-0.493 0.422,-0.506 0.399,-0.515C0.376,-0.524 0.348,-0.529 0.314,-0.529C0.299,-0.529 0.283,-0.527 0.267,-0.524C0.25,-0.521 0.235,-0.516 0.22,-0.509C0.205,-0.502 0.191,-0.493 0.179,-0.482C0.167,-0.47 0.158,-0.457 0.151,-0.441L0.149,-0.441L0.149,-0.714L0.064,-0.714Z" style="fill-rule:nonzero;"/>
        </g>
        <g transform="matrix(41.667,0,0,41.667,77.1256,0)">
            <path d="M0.201,-0.295L0.322,-0.628L0.324,-0.628L0.443,-0.295L0.201,-0.295ZM0.272,-0.714L-0.006,-0L0.091,-0L0.171,-0.215L0.473,-0.215L0.551,-0L0.656,-0L0.377,-0.714L0.272,-0.714Z" style="fill-rule:nonzero;"/>
        </g>
    </g>
    <path d="M393.902,213.019L393.902,121.353L422.027,167.186L393.902,213.019Z" style="fill:rgb(0,255,255);fill-rule:nonzero;stroke:black;stroke-width:4.17px;"/>
    <g transform="matrix(0.707107,-0.707107,0.707107,0.707107,393.791,98.8772)">
        <g transform="matrix(41.667,0,0,41.667,0,0)">
            <path d="M0.576,-0L0.741,-0.517L0.653,-0.517L0.537,-0.094L0.535,-0.094L0.427,-0.517L0.334,-0.517L0.23,-0.094L0.228,-0.094L0.111,-0.517L0.017,-0.517L0.183,-0L0.275,-0L0.379,-0.411L0.381,-0.411L0.486,-0L0.576,-0Z" style="fill-rule:nonzero;"/>
        </g>
        <g transform="matrix(41.667,0,0,41.667,31.5836,0)">
            <path d="M0.415,-0.351L0.503,-0.351C0.5,-0.382 0.492,-0.408 0.479,-0.431C0.466,-0.453 0.45,-0.471 0.431,-0.486C0.411,-0.501 0.388,-0.511 0.363,-0.519C0.337,-0.526 0.309,-0.529 0.28,-0.529C0.239,-0.529 0.204,-0.522 0.173,-0.508C0.142,-0.493 0.117,-0.474 0.097,-0.449C0.076,-0.424 0.061,-0.394 0.051,-0.361C0.041,-0.327 0.036,-0.291 0.036,-0.252C0.036,-0.213 0.041,-0.178 0.052,-0.146C0.062,-0.113 0.077,-0.085 0.098,-0.062C0.118,-0.039 0.143,-0.021 0.174,-0.008C0.204,0.005 0.239,0.011 0.278,0.011C0.344,0.011 0.396,-0.006 0.435,-0.041C0.473,-0.076 0.497,-0.125 0.506,-0.189L0.419,-0.189C0.414,-0.149 0.399,-0.118 0.376,-0.096C0.352,-0.074 0.319,-0.063 0.277,-0.063C0.25,-0.063 0.227,-0.068 0.208,-0.079C0.189,-0.09 0.173,-0.104 0.161,-0.122C0.149,-0.139 0.14,-0.159 0.135,-0.182C0.129,-0.205 0.126,-0.228 0.126,-0.252C0.126,-0.278 0.129,-0.303 0.134,-0.328C0.139,-0.352 0.148,-0.373 0.161,-0.392C0.173,-0.411 0.189,-0.426 0.21,-0.437C0.231,-0.448 0.256,-0.454 0.287,-0.454C0.323,-0.454 0.352,-0.445 0.373,-0.427C0.394,-0.409 0.408,-0.384 0.415,-0.351Z" style="fill-rule:nonzero;"/>
        </g>
        <g transform="matrix(41.667,0,0,41.667,53.9588,0)">
            <path d="M0.064,-0.714L0.064,-0L0.149,-0L0.149,-0.292C0.149,-0.315 0.152,-0.337 0.159,-0.357C0.165,-0.376 0.174,-0.393 0.187,-0.408C0.2,-0.423 0.216,-0.434 0.235,-0.442C0.254,-0.45 0.276,-0.454 0.302,-0.454C0.335,-0.454 0.36,-0.445 0.379,-0.426C0.398,-0.407 0.407,-0.382 0.407,-0.35L0.407,-0L0.492,-0L0.492,-0.34C0.492,-0.368 0.489,-0.393 0.484,-0.417C0.478,-0.44 0.468,-0.459 0.454,-0.476C0.44,-0.493 0.422,-0.506 0.399,-0.515C0.376,-0.524 0.348,-0.529 0.314,-0.529C0.299,-0.529 0.283,-0.527 0.267,-0.524C0.25,-0.521 0.235,-0.516 0.22,-0.509C0.205,-0.502 0.191,-0.493 0.179,-0.482C0.167,-0.47 0.158,-0.457 0.151,-0.441L0.149,-0.441L0.149,-0.714L0.064,-0.714Z" style="fill-rule:nonzero;"/>
        </g>
        <g transform="matrix(41.667,0,0,41.667,77.1256,0)">
            <path d="M0.441,-0.178L0.441,-0.714L0.346,-0.714L0.346,-0.192C0.346,-0.153 0.338,-0.121 0.322,-0.098C0.305,-0.075 0.275,-0.063 0.232,-0.063C0.209,-0.063 0.19,-0.067 0.175,-0.074C0.16,-0.081 0.148,-0.09 0.14,-0.103C0.131,-0.116 0.125,-0.131 0.122,-0.148C0.119,-0.165 0.117,-0.184 0.117,-0.205L0.117,-0.235L0.022,-0.235L0.022,-0.191C0.022,-0.123 0.04,-0.071 0.076,-0.037C0.112,-0.001 0.163,0.016 0.23,0.016C0.27,0.016 0.304,0.011 0.331,-0.001C0.358,-0.012 0.379,-0.026 0.396,-0.045C0.412,-0.063 0.424,-0.084 0.431,-0.107C0.438,-0.13 0.441,-0.154 0.441,-0.178Z" style="fill-rule:nonzero;"/>
        </g>
    </g>
    <path d="M421.965,213.019L421.965,121.353L453.652,167.186L421.965,213.019Z" style="fill:rgb(0,255,255);fill-rule:nonzero;stroke:black;stroke-width:4.17px;"/>
    <g transform="matrix(0.707107,-0.707107,0.707107,0.707107,423.635,98.8773)">
        <g transform="matrix(41.667,0,0,41.667,0,0)">
            <path d="M0.576,-0L0.741,-0.517L0.653,-0.517L0.537,-0.094L0.535,-0.094L0.427,-0.517L0.334,-0.517L0.23,-0.094L0.228,-0.094L0.111,-0.517L0.017,-0.517L0.183,-0L0.275,-0L0.379,-0.411L0.381,-0.411L0.486,-0L0.576,-0Z" style="fill-rule:nonzero;"/>
        </g>
        <g transform="matrix(41.667,0,0,41.667,31.5836,0)">
            <path d="M0.415,-0.351L0.503,-0.351C0.5,-0.382 0.492,-0.408 0.479,-0.431C0.466,-0.453 0.45,-0.471 0.431,-0.486C0.411,-0.501 0.388,-0.511 0.363,-0.519C0.337,-0.526 0.309,-0.529 0.28,-0.529C0.239,-0.529 0.204,-0.522 0.173,-0.508C0.142,-0.493 0.117,-0.474 0.097,-0.449C0.076,-0.424 0.061,-0.394 0.051,-0.361C0.041,-0.327 0.036,-0.291 0.036,-0.252C0.036,-0.213 0.041,-0.178 0.052,-0.146C0.062,-0.113 0.077,-0.085 0.098,-0.062C0.118,-0.039 0.143,-0.021 0.174,-0.008C0.204,0.005 0.239,0.011 0.278,0.011C0.344,0.011 0.396,-0.006 0.435,-0.041C0.473,-0.076 0.497,-0.125 0.506,-0.189L0.419,-0.189C0.414,-0.149 0.399,-0.118 0.376,-0.096C0.352,-0.074 0.319,-0.063 0.277,-0.063C0.25,-0.063 0.227,-0.068 0.208,-0.079C0.189,-0.09 0.173,-0.104 0.161,-0.122C0.149,-0.139 0.14,-0.159 0.135,-0.182C0.129,-0.205 0.126,-0.228 0.126,-0.252C0.126,-0.278 0.129,-0.303 0.134,-0.328C0.139,-0.352 0.148,-0.373 0.161,-0.392C0.173,-0.411 0.189,-0.426 0.21,-0.437C0.231,-0.448 0.256,-0.454 0.287,-0.454C0.323,-0.454 0.352,-0.445 0.373,-0.427C0.394,-0.409 0.408,-0.384 0.415,-0.351Z" style="fill-rule:nonzero;"/>
        </g>
        <g transform="matrix(41.667,0,0,41.667,53.9588,0)">
            <path d="M0.064,-0.714L0.064,-0L0.149,-0L0.149,-0.292C0.149,-0.315 0.152,-0.337 0.159,-0.357C0.165,-0.376 0.174,-0.393 0.187,-0.408C0.2,-0.423 0.216,-0.434 0.235,-0.442C0.254,-0.45 0.276,-0.454 0.302,-0.454C0.335,-0.454 0.36,-0.445 0.379,-0.426C0.398,-0.407 0.407,-0.382 0.407,-0.35L0.407,-0L0.492,-0L0.492,-0.34C0.492,-0.368 0.489,-0.393 0.484,-0.417C0.478,-0.44 0.468,-0.459 0.454,-0.476C0.44,-0.493 0.422,-0.506 0.399,-0.515C0.376,-0.524 0.348,-0.529 0.314,-0.529C0.299,-0.529 0.283,-0.527 0.267,-0.524C0.25,-0.521 0.235,-0.516 0.22,-0.509C0.205,-0.502 0.191,-0.493 0.179,-0.482C0.167,-0.47 0.158,-0.457 0.151,-0.441L0.149,-0.441L0.149,-0.714L0.064,-0.714Z" style="fill-rule:nonzero;"/>
        </g>
        <g transform="matrix(41.667,0,0,41.667,77.1256,0)">
            <path d="M0.078,-0.714L0.078,-0L0.173,-0L0.173,-0.25L0.292,-0.361L0.55,-0L0.67,-0L0.357,-0.426L0.658,-0.714L0.535,-0.714L0.173,-0.358L0.173,-0.714L0.078,-0.714Z" style="fill-rule:nonzero;"/>
        </g>
    </g>
    <path d="M453.152,142.186L478.152,142.186L478.152,121.353L528.152,167.186L478.152,213.019L478.152,192.186L453.152,192.186L453.152,142.186Z" style="fill:rgb(218,15,245);fill-rule:nonzero;stroke:black;stroke-width:4.17px;"/>
    <g transform="matrix(0.707107,-0.707107,0.707107,0.707107,476.479,98.877)">
        <g transform="matrix(41.667,0,0,41.667,0,0)">
            <path d="M0.576,-0L0.741,-0.517L0.653,-0.517L0.537,-0.094L0.535,-0.094L0.427,-0.517L0.334,-0.517L0.23,-0.094L0.228,-0.094L0.111,-0.517L0.017,-0.517L0.183,-0L0.275,-0L0.379,-0.411L0.381,-0.411L0.486,-0L0.576,-0Z" style="fill-rule:nonzero;"/>
        </g>
        <g transform="matrix(41.667,0,0,41.667,31.5836,0)">
            <path d="M0.022,-0.065L0.022,-0L0.458,-0L0.458,-0.075L0.128,-0.075L0.444,-0.459L0.444,-0.517L0.042,-0.517L0.042,-0.442L0.334,-0.442L0.022,-0.065Z" style="fill-rule:nonzero;"/>
        </g>
        <g transform="matrix(41.667,0,0,41.667,51.5837,0)">
            <path d="M0.267,0.069C0.257,0.094 0.247,0.116 0.238,0.133C0.228,0.15 0.217,0.165 0.206,0.176C0.194,0.187 0.181,0.195 0.167,0.2C0.152,0.205 0.136,0.207 0.117,0.207C0.107,0.207 0.097,0.206 0.087,0.205C0.077,0.204 0.067,0.201 0.058,0.198L0.058,0.12C0.065,0.123 0.074,0.126 0.084,0.129C0.093,0.131 0.101,0.132 0.108,0.132C0.125,0.132 0.14,0.128 0.152,0.12C0.163,0.111 0.172,0.099 0.178,0.084L0.213,-0.003L0.008,-0.517L0.104,-0.517L0.255,-0.094L0.257,-0.094L0.402,-0.517L0.492,-0.517L0.267,0.069Z" style="fill-rule:nonzero;"/>
        </g>
    </g>
    <path d="M528.215,142.186L542.527,142.186L542.527,121.353L592.527,167.186L542.527,213.019L542.527,192.186L528.215,192.186L528.215,142.186Z" style="fill:rgb(0,255,255);fill-rule:nonzero;stroke:black;stroke-width:4.17px;"/>
    <g transform="matrix(0.707107,-0.707107,0.707107,0.707107,546.198,98.8772)">
        <g transform="matrix(41.667,0,0,41.667,0,0)">
            <path d="M0.576,-0L0.741,-0.517L0.653,-0.517L0.537,-0.094L0.535,-0.094L0.427,-0.517L0.334,-0.517L0.23,-0.094L0.228,-0.094L0.111,-0.517L0.017,-0.517L0.183,-0L0.275,-0L0.379,-0.411L0.381,-0.411L0.486,-0L0.576,-0Z" style="fill-rule:nonzero;"/>
        </g>
        <g transform="matrix(41.667,0,0,41.667,31.5836,0)">
            <path d="M0.415,-0.351L0.503,-0.351C0.5,-0.382 0.492,-0.408 0.479,-0.431C0.466,-0.453 0.45,-0.471 0.431,-0.486C0.411,-0.501 0.388,-0.511 0.363,-0.519C0.337,-0.526 0.309,-0.529 0.28,-0.529C0.239,-0.529 0.204,-0.522 0.173,-0.508C0.142,-0.493 0.117,-0.474 0.097,-0.449C0.076,-0.424 0.061,-0.394 0.051,-0.361C0.041,-0.327 0.036,-0.291 0.036,-0.252C0.036,-0.213 0.041,-0.178 0.052,-0.146C0.062,-0.113 0.077,-0.085 0.098,-0.062C0.118,-0.039 0.143,-0.021 0.174,-0.008C0.204,0.005 0.239,0.011 0.278,0.011C0.344,0.011 0.396,-0.006 0.435,-0.041C0.473,-0.076 0.497,-0.125 0.506,-0.189L0.419,-0.189C0.414,-0.149 0.399,-0.118 0.376,-0.096C0.352,-0.074 0.319,-0.063 0.277,-0.063C0.25,-0.063 0.227,-0.068 0.208,-0.079C0.189,-0.09 0.173,-0.104 0.161,-0.122C0.149,-0.139 0.14,-0.159 0.135,-0.182C0.129,-0.205 0.126,-0.228 0.126,-0.252C0.126,-0.278 0.129,-0.303 0.134,-0.328C0.139,-0.352 0.148,-0.373 0.161,-0.392C0.173,-0.411 0.189,-0.426 0.21,-0.437C0.231,-0.448 0.256,-0.454 0.287,-0.454C0.323,-0.454 0.352,-0.445 0.373,-0.427C0.394,-0.409 0.408,-0.384 0.415,-0.351Z" style="fill-rule:nonzero;"/>
        </g>
        <g transform="matrix(41.667,0,0,41.667,53.9588,0)">
            <path d="M0.064,-0.714L0.064,-0L0.149,-0L0.149,-0.292C0.149,-0.315 0.152,-0.337 0.159,-0.357C0.165,-0.376 0.174,-0.393 0.187,-0.408C0.2,-0.423 0.216,-0.434 0.235,-0.442C0.254,-0.45 0.276,-0.454 0.302,-0.454C0.335,-0.454 0.36,-0.445 0.379,-0.426C0.398,-0.407 0.407,-0.382 0.407,-0.35L0.407,-0L0.492,-0L0.492,-0.34C0.492,-0.368 0.489,-0.393 0.484,-0.417C0.478,-0.44 0.468,-0.459 0.454,-0.476C0.44,-0.493 0.422,-0.506 0.399,-0.515C0.376,-0.524 0.348,-0.529 0.314,-0.529C0.299,-0.529 0.283,-0.527 0.267,-0.524C0.25,-0.521 0.235,-0.516 0.22,-0.509C0.205,-0.502 0.191,-0.493 0.179,-0.482C0.167,-0.47 0.158,-0.457 0.151,-0.441L0.149,-0.441L0.149,-0.714L0.064,-0.714Z" style="fill-rule:nonzero;"/>
        </g>
        <g transform="matrix(41.667,0,0,41.667,77.1256,0)">
            <path d="M0.078,-0.714L0.078,-0L0.551,-0L0.551,-0.08L0.173,-0.08L0.173,-0.714L0.078,-0.714Z" style="fill-rule:nonzero;"/>
        </g>
    </g>
    <path d="M592.965,142.186L602.777,142.186L602.777,121.353L652.777,167.186L602.777,213.019L602.777,192.186L592.965,192.186L592.965,142.186Z" style="fill:rgb(0,255,255);fill-rule:nonzero;stroke:black;stroke-width:4.17px;"/>
    <g transform="matrix(0.707107,-0.707107,0.707107,0.707107,608.698,98.877)">
        <g transform="matrix(41.667,0,0,41.667,0,0)">
            <path d="M0.576,-0L0.741,-0.517L0.653,-0.517L0.537,-0.094L0.535,-0.094L0.427,-0.517L0.334,-0.517L0.23,-0.094L0.228,-0.094L0.111,-0.517L0.017,-0.517L0.183,-0L0.275,-0L0.379,-0.411L0.381,-0.411L0.486,-0L0.576,-0Z" style="fill-rule:nonzero;"/>
        </g>
        <g transform="matrix(41.667,0,0,41.667,31.5836,0)">
            <path d="M0.415,-0.351L0.503,-0.351C0.5,-0.382 0.492,-0.408 0.479,-0.431C0.466,-0.453 0.45,-0.471 0.431,-0.486C0.411,-0.501 0.388,-0.511 0.363,-0.519C0.337,-0.526 0.309,-0.529 0.28,-0.529C0.239,-0.529 0.204,-0.522 0.173,-0.508C0.142,-0.493 0.117,-0.474 0.097,-0.449C0.076,-0.424 0.061,-0.394 0.051,-0.361C0.041,-0.327 0.036,-0.291 0.036,-0.252C0.036,-0.213 0.041,-0.178 0.052,-0.146C0.062,-0.113 0.077,-0.085 0.098,-0.062C0.118,-0.039 0.143,-0.021 0.174,-0.008C0.204,0.005 0.239,0.011 0.278,0.011C0.344,0.011 0.396,-0.006 0.435,-0.041C0.473,-0.076 0.497,-0.125 0.506,-0.189L0.419,-0.189C0.414,-0.149 0.399,-0.118 0.376,-0.096C0.352,-0.074 0.319,-0.063 0.277,-0.063C0.25,-0.063 0.227,-0.068 0.208,-0.079C0.189,-0.09 0.173,-0.104 0.161,-0.122C0.149,-0.139 0.14,-0.159 0.135,-0.182C0.129,-0.205 0.126,-0.228 0.126,-0.252C0.126,-0.278 0.129,-0.303 0.134,-0.328C0.139,-0.352 0.148,-0.373 0.161,-0.392C0.173,-0.411 0.189,-0.426 0.21,-0.437C0.231,-0.448 0.256,-0.454 0.287,-0.454C0.323,-0.454 0.352,-0.445 0.373,-0.427C0.394,-0.409 0.408,-0.384 0.415,-0.351Z" style="fill-rule:nonzero;"/>
        </g>
        <g transform="matrix(41.667,0,0,41.667,53.9588,0)">
            <path d="M0.064,-0.714L0.064,-0L0.149,-0L0.149,-0.292C0.149,-0.315 0.152,-0.337 0.159,-0.357C0.165,-0.376 0.174,-0.393 0.187,-0.408C0.2,-0.423 0.216,-0.434 0.235,-0.442C0.254,-0.45 0.276,-0.454 0.302,-0.454C0.335,-0.454 0.36,-0.445 0.379,-0.426C0.398,-0.407 0.407,-0.382 0.407,-0.35L0.407,-0L0.492,-0L0.492,-0.34C0.492,-0.368 0.489,-0.393 0.484,-0.417C0.478,-0.44 0.468,-0.459 0.454,-0.476C0.44,-0.493 0.422,-0.506 0.399,-0.515C0.376,-0.524 0.348,-0.529 0.314,-0.529C0.299,-0.529 0.283,-0.527 0.267,-0.524C0.25,-0.521 0.235,-0.516 0.22,-0.509C0.205,-0.502 0.191,-0.493 0.179,-0.482C0.167,-0.47 0.158,-0.457 0.151,-0.441L0.149,-0.441L0.149,-0.714L0.064,-0.714Z" style="fill-rule:nonzero;"/>
        </g>
        <g transform="matrix(41.667,0,0,41.667,77.1256,0)">
            <path d="M0.08,-0.714L0.08,-0L0.17,-0L0.17,-0.594L0.172,-0.594L0.395,-0L0.476,-0L0.699,-0.594L0.701,-0.594L0.701,-0L0.791,-0L0.791,-0.714L0.661,-0.714L0.435,-0.114L0.21,-0.714L0.08,-0.714Z" style="fill-rule:nonzero;"/>
        </g>
    </g>
    <path d="M653.715,142.186L660.527,142.186L660.527,121.353L710.527,167.186L660.527,213.019L660.527,192.186L653.715,192.186L653.715,142.186Z" style="fill:rgb(0,255,255);fill-rule:nonzero;stroke:black;stroke-width:4.17px;"/>
    <g transform="matrix(0.707107,-0.707107,0.707107,0.707107,667.948,98.8769)">
        <g transform="matrix(41.667,0,0,41.667,0,0)">
            <path d="M0.576,-0L0.741,-0.517L0.653,-0.517L0.537,-0.094L0.535,-0.094L0.427,-0.517L0.334,-0.517L0.23,-0.094L0.228,-0.094L0.111,-0.517L0.017,-0.517L0.183,-0L0.275,-0L0.379,-0.411L0.381,-0.411L0.486,-0L0.576,-0Z" style="fill-rule:nonzero;"/>
        </g>
        <g transform="matrix(41.667,0,0,41.667,31.5836,0)">
            <path d="M0.415,-0.351L0.503,-0.351C0.5,-0.382 0.492,-0.408 0.479,-0.431C0.466,-0.453 0.45,-0.471 0.431,-0.486C0.411,-0.501 0.388,-0.511 0.363,-0.519C0.337,-0.526 0.309,-0.529 0.28,-0.529C0.239,-0.529 0.204,-0.522 0.173,-0.508C0.142,-0.493 0.117,-0.474 0.097,-0.449C0.076,-0.424 0.061,-0.394 0.051,-0.361C0.041,-0.327 0.036,-0.291 0.036,-0.252C0.036,-0.213 0.041,-0.178 0.052,-0.146C0.062,-0.113 0.077,-0.085 0.098,-0.062C0.118,-0.039 0.143,-0.021 0.174,-0.008C0.204,0.005 0.239,0.011 0.278,0.011C0.344,0.011 0.396,-0.006 0.435,-0.041C0.473,-0.076 0.497,-0.125 0.506,-0.189L0.419,-0.189C0.414,-0.149 0.399,-0.118 0.376,-0.096C0.352,-0.074 0.319,-0.063 0.277,-0.063C0.25,-0.063 0.227,-0.068 0.208,-0.079C0.189,-0.09 0.173,-0.104 0.161,-0.122C0.149,-0.139 0.14,-0.159 0.135,-0.182C0.129,-0.205 0.126,-0.228 0.126,-0.252C0.126,-0.278 0.129,-0.303 0.134,-0.328C0.139,-0.352 0.148,-0.373 0.161,-0.392C0.173,-0.411 0.189,-0.426 0.21,-0.437C0.231,-0.448 0.256,-0.454 0.287,-0.454C0.323,-0.454 0.352,-0.445 0.373,-0.427C0.394,-0.409 0.408,-0.384 0.415,-0.351Z" style="fill-rule:nonzero;"/>
        </g>
        <g transform="matrix(41.667,0,0,41.667,53.9588,0)">
            <path d="M0.064,-0.714L0.064,-0L0.149,-0L0.149,-0.292C0.149,-0.315 0.152,-0.337 0.159,-0.357C0.165,-0.376 0.174,-0.393 0.187,-0.408C0.2,-0.423 0.216,-0.434 0.235,-0.442C0.254,-0.45 0.276,-0.454 0.302,-0.454C0.335,-0.454 0.36,-0.445 0.379,-0.426C0.398,-0.407 0.407,-0.382 0.407,-0.35L0.407,-0L0.492,-0L0.492,-0.34C0.492,-0.368 0.489,-0.393 0.484,-0.417C0.478,-0.44 0.468,-0.459 0.454,-0.476C0.44,-0.493 0.422,-0.506 0.399,-0.515C0.376,-0.524 0.348,-0.529 0.314,-0.529C0.299,-0.529 0.283,-0.527 0.267,-0.524C0.25,-0.521 0.235,-0.516 0.22,-0.509C0.205,-0.502 0.191,-0.493 0.179,-0.482C0.167,-0.47 0.158,-0.457 0.151,-0.441L0.149,-0.441L0.149,-0.714L0.064,-0.714Z" style="fill-rule:nonzero;"/>
        </g>
        <g transform="matrix(41.667,0,0,41.667,77.1256,0)">
            <path d="M0.077,-0.714L0.077,-0L0.167,-0L0.167,-0.573L0.169,-0.573L0.542,-0L0.646,-0L0.646,-0.714L0.556,-0.714L0.556,-0.135L0.554,-0.135L0.178,-0.714L0.077,-0.714Z" style="fill-rule:nonzero;"/>
        </g>
    </g>
    <path d="M710.777,142.186L752.277,142.186L752.277,121.353L802.277,167.186L752.277,213.019L752.277,192.186L710.777,192.186L710.777,142.186Z" style="fill:rgb(243,235,22);fill-rule:nonzero;stroke:black;stroke-width:4.17px;"/>
    <g transform="matrix(0.707107,-0.707107,0.707107,0.707107,742.354,98.8769)">
        <g transform="matrix(41.667,0,0,41.667,0,0)">
            <path d="M0.576,-0L0.741,-0.517L0.653,-0.517L0.537,-0.094L0.535,-0.094L0.427,-0.517L0.334,-0.517L0.23,-0.094L0.228,-0.094L0.111,-0.517L0.017,-0.517L0.183,-0L0.275,-0L0.379,-0.411L0.381,-0.411L0.486,-0L0.576,-0Z" style="fill-rule:nonzero;"/>
        </g>
        <g transform="matrix(41.667,0,0,41.667,31.5836,0)">
            <path d="M0.022,-0.065L0.022,-0L0.458,-0L0.458,-0.075L0.128,-0.075L0.444,-0.459L0.444,-0.517L0.042,-0.517L0.042,-0.442L0.334,-0.442L0.022,-0.065Z" style="fill-rule:nonzero;"/>
        </g>
        <g transform="matrix(41.667,0,0,41.667,51.5837,0)">
            <path d="M0.203,-0.272L0.009,-0L0.112,-0L0.256,-0.214L0.4,-0L0.509,-0L0.309,-0.279L0.487,-0.517L0.385,-0.517L0.256,-0.336L0.132,-0.517L0.023,-0.517L0.203,-0.272Z" style="fill-rule:nonzero;"/>
        </g>
    </g>
    <path d="M824.59,213.019L824.59,121.353L839.965,167.186L824.59,213.019Z" style="fill:rgb(196,164,132);fill-rule:nonzero;stroke:black;stroke-width:4.17px;"/>
    <path d="M845.465,213.019L845.465,121.353L876.777,167.186L845.465,213.019Z" style="fill:rgb(196,164,132);fill-rule:nonzero;stroke:black;stroke-width:4.17px;"/>
    <g transform="matrix(0.707107,-0.707107,0.707107,0.707107,846.948,98.8768)">
        <g transform="matrix(41.667,0,0,41.667,0,0)">
            <path d="M0.576,-0L0.741,-0.517L0.653,-0.517L0.537,-0.094L0.535,-0.094L0.427,-0.517L0.334,-0.517L0.23,-0.094L0.228,-0.094L0.111,-0.517L0.017,-0.517L0.183,-0L0.275,-0L0.379,-0.411L0.381,-0.411L0.486,-0L0.576,-0Z" style="fill-rule:nonzero;"/>
        </g>
        <g transform="matrix(41.667,0,0,41.667,31.5836,0)">
            <path d="M0.415,-0.351L0.503,-0.351C0.5,-0.382 0.492,-0.408 0.479,-0.431C0.466,-0.453 0.45,-0.471 0.431,-0.486C0.411,-0.501 0.388,-0.511 0.363,-0.519C0.337,-0.526 0.309,-0.529 0.28,-0.529C0.239,-0.529 0.204,-0.522 0.173,-0.508C0.142,-0.493 0.117,-0.474 0.097,-0.449C0.076,-0.424 0.061,-0.394 0.051,-0.361C0.041,-0.327 0.036,-0.291 0.036,-0.252C0.036,-0.213 0.041,-0.178 0.052,-0.146C0.062,-0.113 0.077,-0.085 0.098,-0.062C0.118,-0.039 0.143,-0.021 0.174,-0.008C0.204,0.005 0.239,0.011 0.278,0.011C0.344,0.011 0.396,-0.006 0.435,-0.041C0.473,-0.076 0.497,-0.125 0.506,-0.189L0.419,-0.189C0.414,-0.149 0.399,-0.118 0.376,-0.096C0.352,-0.074 0.319,-0.063 0.277,-0.063C0.25,-0.063 0.227,-0.068 0.208,-0.079C0.189,-0.09 0.173,-0.104 0.161,-0.122C0.149,-0.139 0.14,-0.159 0.135,-0.182C0.129,-0.205 0.126,-0.228 0.126,-0.252C0.126,-0.278 0.129,-0.303 0.134,-0.328C0.139,-0.352 0.148,-0.373 0.161,-0.392C0.173,-0.411 0.189,-0.426 0.21,-0.437C0.231,-0.448 0.256,-0.454 0.287,-0.454C0.323,-0.454 0.352,-0.445 0.373,-0.427C0.394,-0.409 0.408,-0.384 0.415,-0.351Z" style="fill-rule:nonzero;"/>
        </g>
        <g transform="matrix(41.667,0,0,41.667,53.9588,0)">
            <path d="M0.154,-0.61L0.154,-0.714L0.069,-0.714L0.069,-0.61L0.154,-0.61ZM0.069,-0.517L0.069,-0L0.154,-0L0.154,-0.517L0.069,-0.517Z" style="fill-rule:nonzero;"/>
        </g>
        <g transform="matrix(41.667,0,0,41.667,63.2088,0)">
            <path d="M0.022,-0.08L0.022,-0L0.59,-0L0.59,-0.08L0.135,-0.08L0.578,-0.634L0.578,-0.714L0.056,-0.714L0.056,-0.634L0.466,-0.634L0.022,-0.08Z" style="fill-rule:nonzero;"/>
        </g>
    </g>
    <path d="M876.84,142.186L898.652,142.186L898.652,121.353L948.652,167.186L898.652,213.019L898.652,192.186L876.84,192.186L876.84,142.186Z" style="fill:rgb(0,255,255);fill-rule:nonzero;stroke:black;stroke-width:4.17px;"/>
    <g transform="matrix(0.707107,-0.707107,0.707107,0.707107,898.573,98.8764)">
        <g transform="matrix(41.667,0,0,41.667,0,0)">
            <path d="M0.576,-0L0.741,-0.517L0.653,-0.517L0.537,-0.094L0.535,-0.094L0.427,-0.517L0.334,-0.517L0.23,-0.094L0.228,-0.094L0.111,-0.517L0.017,-0.517L0.183,-0L0.275,-0L0.379,-0.411L0.381,-0.411L0.486,-0L0.576,-0Z" style="fill-rule:nonzero;"/>
        </g>
        <g transform="matrix(41.667,0,0,41.667,31.5836,0)">
            <path d="M0.415,-0.351L0.503,-0.351C0.5,-0.382 0.492,-0.408 0.479,-0.431C0.466,-0.453 0.45,-0.471 0.431,-0.486C0.411,-0.501 0.388,-0.511 0.363,-0.519C0.337,-0.526 0.309,-0.529 0.28,-0.529C0.239,-0.529 0.204,-0.522 0.173,-0.508C0.142,-0.493 0.117,-0.474 0.097,-0.449C0.076,-0.424 0.061,-0.394 0.051,-0.361C0.041,-0.327 0.036,-0.291 0.036,-0.252C0.036,-0.213 0.041,-0.178 0.052,-0.146C0.062,-0.113 0.077,-0.085 0.098,-0.062C0.118,-0.039 0.143,-0.021 0.174,-0.008C0.204,0.005 0.239,0.011 0.278,0.011C0.344,0.011 0.396,-0.006 0.435,-0.041C0.473,-0.076 0.497,-0.125 0.506,-0.189L0.419,-0.189C0.414,-0.149 0.399,-0.118 0.376,-0.096C0.352,-0.074 0.319,-0.063 0.277,-0.063C0.25,-0.063 0.227,-0.068 0.208,-0.079C0.189,-0.09 0.173,-0.104 0.161,-0.122C0.149,-0.139 0.14,-0.159 0.135,-0.182C0.129,-0.205 0.126,-0.228 0.126,-0.252C0.126,-0.278 0.129,-0.303 0.134,-0.328C0.139,-0.352 0.148,-0.373 0.161,-0.392C0.173,-0.411 0.189,-0.426 0.21,-0.437C0.231,-0.448 0.256,-0.454 0.287,-0.454C0.323,-0.454 0.352,-0.445 0.373,-0.427C0.394,-0.409 0.408,-0.384 0.415,-0.351Z" style="fill-rule:nonzero;"/>
        </g>
        <g transform="matrix(41.667,0,0,41.667,53.9588,0)">
            <path d="M0.064,-0.714L0.064,-0L0.149,-0L0.149,-0.292C0.149,-0.315 0.152,-0.337 0.159,-0.357C0.165,-0.376 0.174,-0.393 0.187,-0.408C0.2,-0.423 0.216,-0.434 0.235,-0.442C0.254,-0.45 0.276,-0.454 0.302,-0.454C0.335,-0.454 0.36,-0.445 0.379,-0.426C0.398,-0.407 0.407,-0.382 0.407,-0.35L0.407,-0L0.492,-0L0.492,-0.34C0.492,-0.368 0.489,-0.393 0.484,-0.417C0.478,-0.44 0.468,-0.459 0.454,-0.476C0.44,-0.493 0.422,-0.506 0.399,-0.515C0.376,-0.524 0.348,-0.529 0.314,-0.529C0.299,-0.529 0.283,-0.527 0.267,-0.524C0.25,-0.521 0.235,-0.516 0.22,-0.509C0.205,-0.502 0.191,-0.493 0.179,-0.482C0.167,-0.47 0.158,-0.457 0.151,-0.441L0.149,-0.441L0.149,-0.714L0.064,-0.714Z" style="fill-rule:nonzero;"/>
        </g>
        <g transform="matrix(41.667,0,0,41.667,77.1256,0)">
            <path d="M0.248,-0.367L0,-0L0.106,-0L0.304,-0.295L0.496,-0L0.612,-0L0.361,-0.367L0.597,-0.714L0.491,-0.714L0.305,-0.435L0.127,-0.714L0.013,-0.714L0.248,-0.367Z" style="fill-rule:nonzero;"/>
        </g>
    </g>
    <path d="M950.84,142.186L965.152,142.186L965.152,121.353L1015.15,167.186L965.152,213.019L965.152,192.186L950.84,192.186L950.84,142.186Z" style="fill:rgb(234,173,46);fill-rule:nonzero;stroke:black;stroke-width:4.17px;"/>
    <g transform="matrix(0.707107,-0.707107,0.707107,0.707107,968.823,98.8771)">
        <g transform="matrix(41.667,0,0,41.667,0,0)">
            <path d="M0.51,-0.044L0.51,-0.517L0.43,-0.517L0.43,-0.443L0.429,-0.443C0.414,-0.472 0.392,-0.493 0.365,-0.508C0.338,-0.522 0.308,-0.529 0.275,-0.529C0.23,-0.529 0.193,-0.521 0.162,-0.504C0.131,-0.487 0.107,-0.465 0.088,-0.439C0.069,-0.412 0.056,-0.383 0.048,-0.351C0.04,-0.318 0.036,-0.287 0.036,-0.256C0.036,-0.221 0.041,-0.187 0.051,-0.156C0.06,-0.124 0.075,-0.096 0.094,-0.073C0.113,-0.049 0.137,-0.03 0.166,-0.016C0.195,-0.002 0.228,0.005 0.267,0.005C0.3,0.005 0.332,-0.003 0.362,-0.018C0.391,-0.033 0.413,-0.056 0.428,-0.088L0.43,-0.088L0.43,-0.054C0.43,-0.025 0.427,0.001 0.422,0.025C0.416,0.049 0.407,0.07 0.394,0.087C0.381,0.103 0.365,0.117 0.346,0.127C0.327,0.136 0.303,0.141 0.275,0.141C0.261,0.141 0.246,0.14 0.231,0.137C0.216,0.134 0.202,0.129 0.189,0.122C0.175,0.115 0.165,0.107 0.156,0.096C0.147,0.085 0.142,0.072 0.141,0.057L0.056,0.057C0.057,0.085 0.065,0.109 0.078,0.128C0.091,0.147 0.108,0.163 0.129,0.175C0.149,0.187 0.171,0.196 0.197,0.201C0.222,0.206 0.246,0.209 0.27,0.209C0.353,0.209 0.413,0.188 0.452,0.146C0.491,0.104 0.51,0.041 0.51,-0.044ZM0.272,-0.069C0.244,-0.069 0.221,-0.075 0.202,-0.087C0.183,-0.098 0.168,-0.114 0.157,-0.133C0.146,-0.152 0.138,-0.173 0.133,-0.196C0.128,-0.219 0.126,-0.243 0.126,-0.266C0.126,-0.291 0.129,-0.314 0.135,-0.337C0.14,-0.36 0.149,-0.38 0.162,-0.397C0.174,-0.414 0.19,-0.428 0.209,-0.439C0.228,-0.449 0.252,-0.454 0.279,-0.454C0.306,-0.454 0.328,-0.449 0.347,-0.438C0.366,-0.427 0.381,-0.413 0.393,-0.396C0.404,-0.378 0.413,-0.358 0.418,-0.336C0.423,-0.314 0.426,-0.292 0.426,-0.269C0.426,-0.245 0.423,-0.221 0.418,-0.197C0.412,-0.173 0.403,-0.152 0.391,-0.133C0.379,-0.114 0.363,-0.098 0.344,-0.087C0.324,-0.075 0.3,-0.069 0.272,-0.069Z" style="fill-rule:nonzero;"/>
        </g>
        <g transform="matrix(41.667,0,0,41.667,23.9169,0)">
            <path d="M0.182,-0.517L0.182,-0.672L0.097,-0.672L0.097,-0.517L0.009,-0.517L0.009,-0.442L0.097,-0.442L0.097,-0.113C0.097,-0.089 0.099,-0.07 0.104,-0.055C0.109,-0.04 0.116,-0.029 0.126,-0.021C0.135,-0.013 0.148,-0.008 0.164,-0.005C0.179,-0.002 0.198,-0 0.22,-0L0.285,-0L0.285,-0.075L0.246,-0.075C0.233,-0.075 0.222,-0.076 0.214,-0.077C0.205,-0.078 0.199,-0.08 0.194,-0.083C0.189,-0.086 0.186,-0.091 0.185,-0.097C0.183,-0.103 0.182,-0.111 0.182,-0.121L0.182,-0.442L0.285,-0.442L0.285,-0.517L0.182,-0.517Z" style="fill-rule:nonzero;"/>
        </g>
        <g transform="matrix(41.667,0,0,41.667,37.042,0)">
            <path d="M0.067,-0.517L0.067,0.197L0.152,0.197L0.152,-0.069L0.154,-0.069C0.163,-0.054 0.175,-0.041 0.189,-0.031C0.202,-0.02 0.217,-0.012 0.232,-0.006C0.247,0 0.263,0.004 0.279,0.007C0.294,0.01 0.308,0.011 0.321,0.011C0.36,0.011 0.395,0.004 0.425,-0.01C0.454,-0.024 0.479,-0.043 0.499,-0.068C0.518,-0.092 0.533,-0.12 0.543,-0.153C0.552,-0.186 0.557,-0.22 0.557,-0.257C0.557,-0.294 0.552,-0.328 0.542,-0.361C0.532,-0.394 0.517,-0.423 0.498,-0.448C0.478,-0.472 0.453,-0.492 0.424,-0.507C0.394,-0.522 0.359,-0.529 0.319,-0.529C0.283,-0.529 0.25,-0.523 0.22,-0.51C0.19,-0.497 0.168,-0.476 0.154,-0.447L0.152,-0.447L0.152,-0.517L0.067,-0.517ZM0.467,-0.263C0.467,-0.238 0.464,-0.213 0.459,-0.189C0.454,-0.165 0.445,-0.144 0.433,-0.125C0.421,-0.106 0.405,-0.091 0.386,-0.08C0.366,-0.069 0.341,-0.063 0.312,-0.063C0.283,-0.063 0.258,-0.069 0.237,-0.08C0.216,-0.091 0.2,-0.105 0.187,-0.123C0.173,-0.141 0.164,-0.162 0.158,-0.186C0.152,-0.209 0.149,-0.234 0.149,-0.259C0.149,-0.283 0.152,-0.307 0.158,-0.33C0.163,-0.353 0.172,-0.374 0.185,-0.393C0.198,-0.411 0.214,-0.426 0.234,-0.437C0.254,-0.448 0.278,-0.454 0.307,-0.454C0.334,-0.454 0.358,-0.449 0.379,-0.438C0.399,-0.427 0.416,-0.413 0.429,-0.395C0.442,-0.377 0.451,-0.357 0.458,-0.334C0.464,-0.311 0.467,-0.287 0.467,-0.263Z" style="fill-rule:nonzero;"/>
        </g>
        <g transform="matrix(41.667,0,0,41.667,61.7505,0)">
            <path d="M0.356,-0L0.356,-0.709L0.291,-0.709C0.286,-0.682 0.278,-0.66 0.265,-0.643C0.252,-0.626 0.237,-0.612 0.219,-0.602C0.2,-0.592 0.18,-0.585 0.157,-0.582C0.134,-0.578 0.111,-0.576 0.087,-0.576L0.087,-0.508L0.271,-0.508L0.271,-0L0.356,-0Z" style="fill-rule:nonzero;"/>
        </g>
    </g>
    <path d="M1016.09,213.019L1016.09,121.353L1060.15,167.186L1016.09,213.019Z" style="fill:rgb(234,173,46);fill-rule:nonzero;stroke:black;stroke-width:4.17px;"/>
    <g transform="matrix(0.707107,-0.707107,0.707107,0.707107,1023.95,98.8754)">
        <g transform="matrix(41.667,0,0,41.667,0,0)">
            <path d="M0.51,-0.044L0.51,-0.517L0.43,-0.517L0.43,-0.443L0.429,-0.443C0.414,-0.472 0.392,-0.493 0.365,-0.508C0.338,-0.522 0.308,-0.529 0.275,-0.529C0.23,-0.529 0.193,-0.521 0.162,-0.504C0.131,-0.487 0.107,-0.465 0.088,-0.439C0.069,-0.412 0.056,-0.383 0.048,-0.351C0.04,-0.318 0.036,-0.287 0.036,-0.256C0.036,-0.221 0.041,-0.187 0.051,-0.156C0.06,-0.124 0.075,-0.096 0.094,-0.073C0.113,-0.049 0.137,-0.03 0.166,-0.016C0.195,-0.002 0.228,0.005 0.267,0.005C0.3,0.005 0.332,-0.003 0.362,-0.018C0.391,-0.033 0.413,-0.056 0.428,-0.088L0.43,-0.088L0.43,-0.054C0.43,-0.025 0.427,0.001 0.422,0.025C0.416,0.049 0.407,0.07 0.394,0.087C0.381,0.103 0.365,0.117 0.346,0.127C0.327,0.136 0.303,0.141 0.275,0.141C0.261,0.141 0.246,0.14 0.231,0.137C0.216,0.134 0.202,0.129 0.189,0.122C0.175,0.115 0.165,0.107 0.156,0.096C0.147,0.085 0.142,0.072 0.141,0.057L0.056,0.057C0.057,0.085 0.065,0.109 0.078,0.128C0.091,0.147 0.108,0.163 0.129,0.175C0.149,0.187 0.171,0.196 0.197,0.201C0.222,0.206 0.246,0.209 0.27,0.209C0.353,0.209 0.413,0.188 0.452,0.146C0.491,0.104 0.51,0.041 0.51,-0.044ZM0.272,-0.069C0.244,-0.069 0.221,-0.075 0.202,-0.087C0.183,-0.098 0.168,-0.114 0.157,-0.133C0.146,-0.152 0.138,-0.173 0.133,-0.196C0.128,-0.219 0.126,-0.243 0.126,-0.266C0.126,-0.291 0.129,-0.314 0.135,-0.337C0.14,-0.36 0.149,-0.38 0.162,-0.397C0.174,-0.414 0.19,-0.428 0.209,-0.439C0.228,-0.449 0.252,-0.454 0.279,-0.454C0.306,-0.454 0.328,-0.449 0.347,-0.438C0.366,-0.427 0.381,-0.413 0.393,-0.396C0.404,-0.378 0.413,-0.358 0.418,-0.336C0.423,-0.314 0.426,-0.292 0.426,-0.269C0.426,-0.245 0.423,-0.221 0.418,-0.197C0.412,-0.173 0.403,-0.152 0.391,-0.133C0.379,-0.114 0.363,-0.098 0.344,-0.087C0.324,-0.075 0.3,-0.069 0.272,-0.069Z" style="fill-rule:nonzero;"/>
        </g>
        <g transform="matrix(41.667,0,0,41.667,23.9169,0)">
            <path d="M0.182,-0.517L0.182,-0.672L0.097,-0.672L0.097,-0.517L0.009,-0.517L0.009,-0.442L0.097,-0.442L0.097,-0.113C0.097,-0.089 0.099,-0.07 0.104,-0.055C0.109,-0.04 0.116,-0.029 0.126,-0.021C0.135,-0.013 0.148,-0.008 0.164,-0.005C0.179,-0.002 0.198,-0 0.22,-0L0.285,-0L0.285,-0.075L0.246,-0.075C0.233,-0.075 0.222,-0.076 0.214,-0.077C0.205,-0.078 0.199,-0.08 0.194,-0.083C0.189,-0.086 0.186,-0.091 0.185,-0.097C0.183,-0.103 0.182,-0.111 0.182,-0.121L0.182,-0.442L0.285,-0.442L0.285,-0.517L0.182,-0.517Z" style="fill-rule:nonzero;"/>
        </g>
        <g transform="matrix(41.667,0,0,41.667,37.042,0)">
            <path d="M0.067,-0.517L0.067,0.197L0.152,0.197L0.152,-0.069L0.154,-0.069C0.163,-0.054 0.175,-0.041 0.189,-0.031C0.202,-0.02 0.217,-0.012 0.232,-0.006C0.247,0 0.263,0.004 0.279,0.007C0.294,0.01 0.308,0.011 0.321,0.011C0.36,0.011 0.395,0.004 0.425,-0.01C0.454,-0.024 0.479,-0.043 0.499,-0.068C0.518,-0.092 0.533,-0.12 0.543,-0.153C0.552,-0.186 0.557,-0.22 0.557,-0.257C0.557,-0.294 0.552,-0.328 0.542,-0.361C0.532,-0.394 0.517,-0.423 0.498,-0.448C0.478,-0.472 0.453,-0.492 0.424,-0.507C0.394,-0.522 0.359,-0.529 0.319,-0.529C0.283,-0.529 0.25,-0.523 0.22,-0.51C0.19,-0.497 0.168,-0.476 0.154,-0.447L0.152,-0.447L0.152,-0.517L0.067,-0.517ZM0.467,-0.263C0.467,-0.238 0.464,-0.213 0.459,-0.189C0.454,-0.165 0.445,-0.144 0.433,-0.125C0.421,-0.106 0.405,-0.091 0.386,-0.08C0.366,-0.069 0.341,-0.063 0.312,-0.063C0.283,-0.063 0.258,-0.069 0.237,-0.08C0.216,-0.091 0.2,-0.105 0.187,-0.123C0.173,-0.141 0.164,-0.162 0.158,-0.186C0.152,-0.209 0.149,-0.234 0.149,-0.259C0.149,-0.283 0.152,-0.307 0.158,-0.33C0.163,-0.353 0.172,-0.374 0.185,-0.393C0.198,-0.411 0.214,-0.426 0.234,-0.437C0.254,-0.448 0.278,-0.454 0.307,-0.454C0.334,-0.454 0.358,-0.449 0.379,-0.438C0.399,-0.427 0.416,-0.413 0.429,-0.395C0.442,-0.377 0.451,-0.357 0.458,-0.334C0.464,-0.311 0.467,-0.287 0.467,-0.263Z" style="fill-rule:nonzero;"/>
        </g>
        <g transform="matrix(41.667,0,0,41.667,61.7505,0)">
            <path d="M0.044,-0.458L0.129,-0.458C0.128,-0.479 0.131,-0.501 0.136,-0.522C0.141,-0.543 0.149,-0.561 0.16,-0.578C0.171,-0.595 0.186,-0.608 0.204,-0.619C0.221,-0.629 0.242,-0.634 0.267,-0.634C0.286,-0.634 0.303,-0.631 0.32,-0.625C0.337,-0.619 0.351,-0.61 0.364,-0.599C0.376,-0.588 0.386,-0.574 0.393,-0.559C0.4,-0.543 0.404,-0.525 0.404,-0.506C0.404,-0.481 0.4,-0.46 0.393,-0.441C0.385,-0.422 0.374,-0.405 0.359,-0.389C0.343,-0.373 0.325,-0.357 0.302,-0.342C0.279,-0.326 0.253,-0.309 0.223,-0.29C0.198,-0.275 0.175,-0.26 0.152,-0.243C0.129,-0.226 0.109,-0.207 0.091,-0.185C0.073,-0.163 0.058,-0.137 0.047,-0.108C0.035,-0.078 0.027,-0.042 0.024,-0L0.487,-0L0.487,-0.075L0.123,-0.075C0.127,-0.097 0.135,-0.117 0.149,-0.134C0.162,-0.151 0.177,-0.166 0.196,-0.181C0.214,-0.196 0.234,-0.21 0.256,-0.223C0.278,-0.236 0.3,-0.249 0.322,-0.262C0.344,-0.276 0.365,-0.291 0.386,-0.306C0.407,-0.321 0.425,-0.339 0.441,-0.358C0.457,-0.377 0.47,-0.398 0.48,-0.422C0.489,-0.446 0.494,-0.474 0.494,-0.505C0.494,-0.538 0.488,-0.568 0.477,-0.593C0.465,-0.618 0.449,-0.64 0.429,-0.657C0.409,-0.674 0.386,-0.687 0.359,-0.696C0.331,-0.705 0.303,-0.709 0.272,-0.709C0.235,-0.709 0.201,-0.703 0.172,-0.69C0.143,-0.677 0.118,-0.66 0.099,-0.638C0.079,-0.615 0.064,-0.589 0.055,-0.558C0.046,-0.527 0.042,-0.494 0.044,-0.458Z" style="fill-rule:nonzero;"/>
        </g>
    </g>
    <path d="M1061.4,142.186L1063.15,142.186L1063.15,121.353L1113.15,167.186L1063.15,213.019L1063.15,192.186L1061.4,192.186L1061.4,142.186Z" style="fill:rgb(234,173,46);fill-rule:nonzero;stroke:black;stroke-width:4.17px;"/>
    <g transform="matrix(0.707107,-0.707107,0.707107,0.707107,1073.1,98.8791)">
        <g transform="matrix(41.667,0,0,41.667,0,0)">
            <path d="M0.51,-0.044L0.51,-0.517L0.43,-0.517L0.43,-0.443L0.429,-0.443C0.414,-0.472 0.392,-0.493 0.365,-0.508C0.338,-0.522 0.308,-0.529 0.275,-0.529C0.23,-0.529 0.193,-0.521 0.162,-0.504C0.131,-0.487 0.107,-0.465 0.088,-0.439C0.069,-0.412 0.056,-0.383 0.048,-0.351C0.04,-0.318 0.036,-0.287 0.036,-0.256C0.036,-0.221 0.041,-0.187 0.051,-0.156C0.06,-0.124 0.075,-0.096 0.094,-0.073C0.113,-0.049 0.137,-0.03 0.166,-0.016C0.195,-0.002 0.228,0.005 0.267,0.005C0.3,0.005 0.332,-0.003 0.362,-0.018C0.391,-0.033 0.413,-0.056 0.428,-0.088L0.43,-0.088L0.43,-0.054C0.43,-0.025 0.427,0.001 0.422,0.025C0.416,0.049 0.407,0.07 0.394,0.087C0.381,0.103 0.365,0.117 0.346,0.127C0.327,0.136 0.303,0.141 0.275,0.141C0.261,0.141 0.246,0.14 0.231,0.137C0.216,0.134 0.202,0.129 0.189,0.122C0.175,0.115 0.165,0.107 0.156,0.096C0.147,0.085 0.142,0.072 0.141,0.057L0.056,0.057C0.057,0.085 0.065,0.109 0.078,0.128C0.091,0.147 0.108,0.163 0.129,0.175C0.149,0.187 0.171,0.196 0.197,0.201C0.222,0.206 0.246,0.209 0.27,0.209C0.353,0.209 0.413,0.188 0.452,0.146C0.491,0.104 0.51,0.041 0.51,-0.044ZM0.272,-0.069C0.244,-0.069 0.221,-0.075 0.202,-0.087C0.183,-0.098 0.168,-0.114 0.157,-0.133C0.146,-0.152 0.138,-0.173 0.133,-0.196C0.128,-0.219 0.126,-0.243 0.126,-0.266C0.126,-0.291 0.129,-0.314 0.135,-0.337C0.14,-0.36 0.149,-0.38 0.162,-0.397C0.174,-0.414 0.19,-0.428 0.209,-0.439C0.228,-0.449 0.252,-0.454 0.279,-0.454C0.306,-0.454 0.328,-0.449 0.347,-0.438C0.366,-0.427 0.381,-0.413 0.393,-0.396C0.404,-0.378 0.413,-0.358 0.418,-0.336C0.423,-0.314 0.426,-0.292 0.426,-0.269C0.426,-0.245 0.423,-0.221 0.418,-0.197C0.412,-0.173 0.403,-0.152 0.391,-0.133C0.379,-0.114 0.363,-0.098 0.344,-0.087C0.324,-0.075 0.3,-0.069 0.272,-0.069Z" style="fill-rule:nonzero;"/>
        </g>
        <g transform="matrix(41.667,0,0,41.667,23.9169,0)">
            <path d="M0.182,-0.517L0.182,-0.672L0.097,-0.672L0.097,-0.517L0.009,-0.517L0.009,-0.442L0.097,-0.442L0.097,-0.113C0.097,-0.089 0.099,-0.07 0.104,-0.055C0.109,-0.04 0.116,-0.029 0.126,-0.021C0.135,-0.013 0.148,-0.008 0.164,-0.005C0.179,-0.002 0.198,-0 0.22,-0L0.285,-0L0.285,-0.075L0.246,-0.075C0.233,-0.075 0.222,-0.076 0.214,-0.077C0.205,-0.078 0.199,-0.08 0.194,-0.083C0.189,-0.086 0.186,-0.091 0.185,-0.097C0.183,-0.103 0.182,-0.111 0.182,-0.121L0.182,-0.442L0.285,-0.442L0.285,-0.517L0.182,-0.517Z" style="fill-rule:nonzero;"/>
        </g>
        <g transform="matrix(41.667,0,0,41.667,37.042,0)">
            <path d="M0.067,-0.517L0.067,0.197L0.152,0.197L0.152,-0.069L0.154,-0.069C0.163,-0.054 0.175,-0.041 0.189,-0.031C0.202,-0.02 0.217,-0.012 0.232,-0.006C0.247,0 0.263,0.004 0.279,0.007C0.294,0.01 0.308,0.011 0.321,0.011C0.36,0.011 0.395,0.004 0.425,-0.01C0.454,-0.024 0.479,-0.043 0.499,-0.068C0.518,-0.092 0.533,-0.12 0.543,-0.153C0.552,-0.186 0.557,-0.22 0.557,-0.257C0.557,-0.294 0.552,-0.328 0.542,-0.361C0.532,-0.394 0.517,-0.423 0.498,-0.448C0.478,-0.472 0.453,-0.492 0.424,-0.507C0.394,-0.522 0.359,-0.529 0.319,-0.529C0.283,-0.529 0.25,-0.523 0.22,-0.51C0.19,-0.497 0.168,-0.476 0.154,-0.447L0.152,-0.447L0.152,-0.517L0.067,-0.517ZM0.467,-0.263C0.467,-0.238 0.464,-0.213 0.459,-0.189C0.454,-0.165 0.445,-0.144 0.433,-0.125C0.421,-0.106 0.405,-0.091 0.386,-0.08C0.366,-0.069 0.341,-0.063 0.312,-0.063C0.283,-0.063 0.258,-0.069 0.237,-0.08C0.216,-0.091 0.2,-0.105 0.187,-0.123C0.173,-0.141 0.164,-0.162 0.158,-0.186C0.152,-0.209 0.149,-0.234 0.149,-0.259C0.149,-0.283 0.152,-0.307 0.158,-0.33C0.163,-0.353 0.172,-0.374 0.185,-0.393C0.198,-0.411 0.214,-0.426 0.234,-0.437C0.254,-0.448 0.278,-0.454 0.307,-0.454C0.334,-0.454 0.358,-0.449 0.379,-0.438C0.399,-0.427 0.416,-0.413 0.429,-0.395C0.442,-0.377 0.451,-0.357 0.458,-0.334C0.464,-0.311 0.467,-0.287 0.467,-0.263Z" style="fill-rule:nonzero;"/>
        </g>
        <g transform="matrix(41.667,0,0,41.667,61.7505,0)">
            <path d="M0.218,-0.405L0.218,-0.333C0.234,-0.335 0.251,-0.336 0.269,-0.336C0.29,-0.336 0.31,-0.333 0.329,-0.328C0.347,-0.322 0.363,-0.313 0.376,-0.302C0.389,-0.29 0.4,-0.276 0.408,-0.259C0.416,-0.242 0.42,-0.222 0.42,-0.2C0.42,-0.179 0.416,-0.16 0.408,-0.143C0.399,-0.126 0.388,-0.111 0.374,-0.1C0.36,-0.088 0.344,-0.079 0.325,-0.073C0.306,-0.066 0.287,-0.063 0.266,-0.063C0.217,-0.063 0.18,-0.078 0.155,-0.107C0.13,-0.135 0.116,-0.173 0.115,-0.219L0.03,-0.219C0.029,-0.182 0.035,-0.15 0.046,-0.121C0.056,-0.092 0.072,-0.068 0.093,-0.049C0.114,-0.029 0.139,-0.014 0.168,-0.004C0.197,0.006 0.23,0.011 0.266,0.011C0.299,0.011 0.331,0.007 0.361,-0.003C0.39,-0.012 0.416,-0.025 0.438,-0.043C0.46,-0.061 0.478,-0.084 0.491,-0.111C0.503,-0.137 0.51,-0.169 0.51,-0.204C0.51,-0.247 0.5,-0.284 0.479,-0.315C0.458,-0.346 0.425,-0.367 0.382,-0.376L0.382,-0.378C0.41,-0.391 0.433,-0.409 0.452,-0.434C0.471,-0.459 0.48,-0.487 0.48,-0.519C0.48,-0.552 0.474,-0.58 0.464,-0.604C0.452,-0.628 0.437,-0.648 0.418,-0.663C0.399,-0.678 0.376,-0.69 0.35,-0.698C0.323,-0.705 0.295,-0.709 0.264,-0.709C0.229,-0.709 0.198,-0.703 0.171,-0.692C0.143,-0.681 0.121,-0.665 0.103,-0.645C0.085,-0.625 0.071,-0.601 0.062,-0.573C0.052,-0.545 0.046,-0.514 0.045,-0.48L0.13,-0.48C0.13,-0.501 0.133,-0.52 0.138,-0.539C0.143,-0.558 0.152,-0.574 0.163,-0.588C0.173,-0.602 0.188,-0.613 0.205,-0.622C0.222,-0.63 0.241,-0.634 0.264,-0.634C0.3,-0.634 0.33,-0.624 0.354,-0.606C0.378,-0.587 0.39,-0.558 0.39,-0.52C0.39,-0.501 0.386,-0.485 0.379,-0.47C0.372,-0.455 0.362,-0.443 0.35,-0.434C0.337,-0.424 0.323,-0.417 0.307,-0.412C0.29,-0.407 0.273,-0.404 0.255,-0.404L0.227,-0.404C0.224,-0.404 0.221,-0.404 0.218,-0.405Z" style="fill-rule:nonzero;"/>
        </g>
    </g>
    <path d="M1143.03,213.019L1143.03,121.353L1118.65,167.186L1143.03,213.019Z" style="fill:rgb(243,207,198);fill-rule:nonzero;stroke:black;stroke-width:4.17px;"/>
    <g transform="matrix(0.707107,-0.707107,0.707107,0.707107,1116.67,98.8744)">
        <g transform="matrix(41.667,0,0,41.667,0,0)">
            <path d="M0.182,-0.517L0.182,-0.672L0.097,-0.672L0.097,-0.517L0.009,-0.517L0.009,-0.442L0.097,-0.442L0.097,-0.113C0.097,-0.089 0.099,-0.07 0.104,-0.055C0.109,-0.04 0.116,-0.029 0.126,-0.021C0.135,-0.013 0.148,-0.008 0.164,-0.005C0.179,-0.002 0.198,-0 0.22,-0L0.285,-0L0.285,-0.075L0.246,-0.075C0.233,-0.075 0.222,-0.076 0.214,-0.077C0.205,-0.078 0.199,-0.08 0.194,-0.083C0.189,-0.086 0.186,-0.091 0.185,-0.097C0.183,-0.103 0.182,-0.111 0.182,-0.121L0.182,-0.442L0.285,-0.442L0.285,-0.517L0.182,-0.517Z" style="fill-rule:nonzero;"/>
        </g>
        <g transform="matrix(41.667,0,0,41.667,13.1251,0)">
            <path d="M0.064,-0.517L0.064,-0L0.149,-0L0.149,-0.292C0.149,-0.315 0.152,-0.337 0.159,-0.357C0.165,-0.376 0.174,-0.393 0.187,-0.408C0.2,-0.423 0.216,-0.434 0.235,-0.442C0.254,-0.45 0.276,-0.454 0.302,-0.454C0.335,-0.454 0.36,-0.445 0.379,-0.426C0.398,-0.407 0.407,-0.382 0.407,-0.35L0.407,-0L0.492,-0L0.492,-0.34C0.492,-0.368 0.489,-0.393 0.484,-0.417C0.478,-0.44 0.468,-0.459 0.454,-0.476C0.44,-0.493 0.422,-0.506 0.399,-0.515C0.376,-0.524 0.348,-0.529 0.314,-0.529C0.237,-0.529 0.181,-0.498 0.146,-0.435L0.144,-0.435L0.144,-0.517L0.064,-0.517Z" style="fill-rule:nonzero;"/>
        </g>
        <g transform="matrix(41.667,0,0,41.667,36.292,0)">
            <path d="M0.067,-0.517L0.067,0.197L0.152,0.197L0.152,-0.069L0.154,-0.069C0.163,-0.054 0.175,-0.041 0.189,-0.031C0.202,-0.02 0.217,-0.012 0.232,-0.006C0.247,0 0.263,0.004 0.279,0.007C0.294,0.01 0.308,0.011 0.321,0.011C0.36,0.011 0.395,0.004 0.425,-0.01C0.454,-0.024 0.479,-0.043 0.499,-0.068C0.518,-0.092 0.533,-0.12 0.543,-0.153C0.552,-0.186 0.557,-0.22 0.557,-0.257C0.557,-0.294 0.552,-0.328 0.542,-0.361C0.532,-0.394 0.517,-0.423 0.498,-0.448C0.478,-0.472 0.453,-0.492 0.424,-0.507C0.394,-0.522 0.359,-0.529 0.319,-0.529C0.283,-0.529 0.25,-0.523 0.22,-0.51C0.19,-0.497 0.168,-0.476 0.154,-0.447L0.152,-0.447L0.152,-0.517L0.067,-0.517ZM0.467,-0.263C0.467,-0.238 0.464,-0.213 0.459,-0.189C0.454,-0.165 0.445,-0.144 0.433,-0.125C0.421,-0.106 0.405,-0.091 0.386,-0.08C0.366,-0.069 0.341,-0.063 0.312,-0.063C0.283,-0.063 0.258,-0.069 0.237,-0.08C0.216,-0.091 0.2,-0.105 0.187,-0.123C0.173,-0.141 0.164,-0.162 0.158,-0.186C0.152,-0.209 0.149,-0.234 0.149,-0.259C0.149,-0.283 0.152,-0.307 0.158,-0.33C0.163,-0.353 0.172,-0.374 0.185,-0.393C0.198,-0.411 0.214,-0.426 0.234,-0.437C0.254,-0.448 0.278,-0.454 0.307,-0.454C0.334,-0.454 0.358,-0.449 0.379,-0.438C0.399,-0.427 0.416,-0.413 0.429,-0.395C0.442,-0.377 0.451,-0.357 0.458,-0.334C0.464,-0.311 0.467,-0.287 0.467,-0.263Z" style="fill-rule:nonzero;"/>
        </g>
    </g>
</svg>
