<?xml version="1.0" encoding="UTF-8" standalone="no"?>
<!DOCTYPE svg PUBLIC "-//W3C//DTD SVG 1.1//EN" "http://www.w3.org/Graphics/SVG/1.1/DTD/svg11.dtd">
<svg width="100%" height="100%" viewBox="0 0 3063 467" version="1.1" xmlns="http://www.w3.org/2000/svg" xmlns:xlink="http://www.w3.org/1999/xlink" xml:space="preserve" xmlns:serif="http://www.serif.com/" style="fill-rule:evenodd;clip-rule:evenodd;">
    <path d="M61.788,349.771L3010.03,349.771" style="fill:none;fill-rule:nonzero;stroke:rgb(17,17,17);stroke-width:8.88px;"/>
    <path d="M61.788,447.238L61.788,252.3L83.454,349.771L61.787,447.238L61.788,447.238Z" style="fill-rule:nonzero;stroke:black;stroke-width:8.88px;"/>
    <g>
        <path d="M34.458,180.696C32.871,179.109 31.493,177.396 30.323,175.558C29.153,173.72 28.36,171.841 27.942,169.919C27.524,167.998 27.587,166.056 28.13,164.092C28.673,162.129 29.843,160.25 31.639,158.453C33.477,156.616 35.388,155.394 37.372,154.788C39.356,154.182 41.319,154.036 43.261,154.349C45.204,154.663 47.104,155.373 48.963,156.48C50.822,157.587 52.545,158.934 54.132,160.521C55.636,162.025 56.941,163.685 58.048,165.502C59.155,167.319 59.886,169.199 60.241,171.141C60.596,173.083 60.502,175.036 59.959,176.999C59.416,178.963 58.247,180.842 56.45,182.638C54.738,184.351 52.91,185.51 50.968,186.116C49.026,186.722 47.083,186.868 45.141,186.554C43.199,186.241 41.309,185.562 39.471,184.518C37.633,183.474 35.962,182.2 34.458,180.696ZM75.435,171.548L30.699,126.812L25.373,132.138L42.04,148.804L41.914,148.93C40.369,148.554 38.844,148.47 37.34,148.679C35.837,148.888 34.406,149.274 33.049,149.838C31.691,150.402 30.448,151.081 29.321,151.875C28.193,152.668 27.211,153.483 26.376,154.318C23.911,156.783 22.199,159.393 21.238,162.15C20.277,164.907 19.943,167.664 20.235,170.421C20.528,173.177 21.395,175.882 22.836,178.535C24.277,181.187 26.146,183.662 28.443,185.959C30.741,188.257 33.226,190.115 35.899,191.536C38.573,192.956 41.298,193.822 44.076,194.136C46.854,194.449 49.631,194.136 52.409,193.196C55.187,192.256 57.829,190.533 60.335,188.027C62.591,185.771 64.261,183.307 65.348,180.633C66.434,177.96 66.517,175.287 65.598,172.614L65.723,172.488L70.109,176.874L75.435,171.548Z" style="fill-rule:nonzero;"/>
        <path d="M86.838,121.549L68.23,140.158C67.06,138.821 66.152,137.37 65.504,135.803C64.857,134.237 64.512,132.639 64.47,131.01C64.429,129.381 64.721,127.773 65.348,126.186C65.974,124.599 66.977,123.116 68.355,121.737C69.692,120.401 71.154,119.419 72.741,118.792C74.328,118.166 75.936,117.853 77.565,117.853C79.194,117.853 80.813,118.176 82.421,118.824C84.029,119.471 85.502,120.38 86.838,121.549ZM100.999,125.434L95.735,130.697C97.406,133.287 98.043,135.824 97.646,138.31C97.25,140.795 95.923,143.165 93.668,145.421C91.913,147.175 90.096,148.408 88.217,149.118C86.337,149.828 84.489,150.11 82.672,149.964C80.855,149.817 79.121,149.295 77.471,148.397C75.821,147.499 74.307,146.319 72.929,144.857L97.177,120.609C95.297,118.563 93.052,116.673 90.441,114.939C87.83,113.206 85.032,111.994 82.045,111.305C79.059,110.616 76.02,110.626 72.929,111.336C69.838,112.047 66.851,113.843 63.969,116.725C61.755,118.939 60.137,121.393 59.113,124.087C58.09,126.781 57.651,129.559 57.798,132.42C57.944,135.281 58.664,138.111 59.959,140.91C61.254,143.708 63.134,146.34 65.598,148.804C68.146,151.185 70.788,153.096 73.524,154.537C76.26,155.979 79.027,156.803 81.826,157.012C84.625,157.221 87.392,156.793 90.128,155.728C92.864,154.663 95.527,152.835 98.116,150.246C101.792,146.57 103.922,142.602 104.507,138.341C105.092,134.08 103.922,129.778 100.999,125.434Z" style="fill-rule:nonzero;"/>
        <path d="M108.956,103.943L113.843,133.141L120.296,126.687L115.911,104.256L138.341,108.642L145.171,101.813L115.159,96.863L111.399,70.798L105.008,77.189L108.267,96.612L89.157,93.041L82.327,99.87L108.956,103.943Z" style="fill-rule:nonzero;"/>
        <path d="M131.073,64.909L116.85,50.686L128.755,38.781C130.05,37.486 131.345,36.338 132.64,35.335C133.934,34.333 135.271,33.644 136.65,33.268C138.028,32.892 139.427,32.913 140.847,33.33C142.268,33.748 143.771,34.75 145.359,36.338C147.74,38.719 148.784,41.246 148.491,43.919C148.199,46.592 146.361,49.621 142.978,53.004L131.073,64.909ZM105.886,51.626L150.622,96.362L172.238,74.746C174.452,72.532 176.039,70.213 177,67.791C177.96,65.368 178.42,62.987 178.378,60.648C178.336,58.309 177.835,56.074 176.874,53.944C175.914,51.814 174.619,49.934 172.99,48.305C170.233,45.548 167.163,43.94 163.779,43.48C160.396,43.021 157.033,43.877 153.692,46.049L153.567,45.924C154.861,42.958 155.216,40.034 154.632,37.152C154.047,34.27 152.564,31.639 150.183,29.258C147.928,27.002 145.515,25.613 142.946,25.091C140.378,24.569 137.924,24.6 135.584,25.185C134.498,25.436 133.381,25.926 132.232,26.657C131.084,27.388 129.914,28.245 128.724,29.226C127.533,30.208 126.374,31.242 125.246,32.328C124.118,33.414 123.074,34.437 122.113,35.398L105.886,51.626ZM151.562,85.397L136.086,69.921L149.682,56.325C150.935,55.072 152.261,53.975 153.661,53.035C155.06,52.096 156.49,51.459 157.952,51.124C159.414,50.79 160.897,50.832 162.401,51.25C163.905,51.667 165.388,52.607 166.85,54.069C169.356,56.575 170.578,59.28 170.515,62.183C170.452,65.086 169.105,67.853 166.474,70.485L151.562,85.397Z" style="fill-rule:nonzero;"/>
    </g>
    <path d="M104.321,447.238L104.321,252.3L127.446,349.771L104.321,447.238Z" style="fill:rgb(243,207,198);fill-rule:nonzero;stroke:black;stroke-width:8.88px;"/>
    <path d="M437.396,296.604L233.112,296.604L233.112,252.3L126.783,349.771L233.113,447.238L233.113,402.933L437.396,402.933L437.396,296.604Z" style="fill:rgb(243,207,198);fill-rule:nonzero;stroke:black;stroke-width:8.88px;"/>
    <g>
        <path d="M230.959,160.707L221.247,150.996L215.921,156.322L225.633,166.033L220.119,171.547L224.818,176.246L230.332,170.732L250.946,191.346C252.449,192.85 253.807,193.915 255.018,194.541C256.23,195.168 257.389,195.429 258.496,195.325C259.603,195.22 260.741,194.771 261.91,193.977C263.08,193.184 264.354,192.098 265.732,190.719L269.805,186.647L265.106,181.948L262.662,184.391C261.827,185.227 261.117,185.874 260.532,186.334C259.947,186.793 259.404,187.065 258.903,187.148C258.402,187.232 257.911,187.138 257.431,186.866C256.95,186.595 256.397,186.146 255.77,185.519L235.658,165.407L242.111,158.953L237.412,154.254L230.959,160.707Z" style="fill-rule:nonzero;"/>
        <path d="M243.302,148.364L275.695,180.757L281.02,175.431L262.725,157.136C261.263,155.674 260.114,154.129 259.279,152.5C258.443,150.87 257.963,149.2 257.838,147.487C257.712,145.774 257.994,144.072 258.684,142.381C259.373,140.689 260.532,139.029 262.161,137.4C264.208,135.353 266.401,134.329 268.74,134.329C271.079,134.329 273.251,135.332 275.256,137.337L297.186,159.266L302.511,153.941L281.208,132.638C279.454,130.883 277.679,129.463 275.883,128.377C274.086,127.291 272.228,126.665 270.306,126.497C268.385,126.33 266.422,126.665 264.417,127.5C262.412,128.335 260.344,129.818 258.214,131.948C253.41,136.752 251.865,142.224 253.577,148.364L253.452,148.49L248.314,143.352L243.302,148.364Z" style="fill-rule:nonzero;"/>
        <path d="M278.326,113.34L323.062,158.076L328.388,152.75L311.722,136.084L311.847,135.958C313.392,136.334 314.917,136.418 316.421,136.209C317.925,136 319.345,135.603 320.681,135.019C322.018,134.434 323.261,133.734 324.409,132.92C325.558,132.105 326.529,131.301 327.323,130.507C329.787,128.043 331.51,125.443 332.492,122.707C333.474,119.971 333.818,117.224 333.526,114.468C333.233,111.711 332.367,109.006 330.926,106.354C329.484,103.701 327.615,101.226 325.318,98.929C323.02,96.632 320.535,94.773 317.862,93.353C315.189,91.932 312.453,91.055 309.654,90.721C306.855,90.387 304.067,90.69 301.289,91.63C298.512,92.569 295.87,94.292 293.364,96.799C291.108,99.054 289.448,101.529 288.382,104.223C287.317,106.918 287.244,109.601 288.163,112.275L288.038,112.4L283.652,108.014L278.326,113.34ZM319.303,104.192C320.89,105.779 322.269,107.492 323.438,109.33C324.608,111.168 325.401,113.047 325.819,114.969C326.237,116.89 326.185,118.822 325.662,120.764C325.14,122.707 323.96,124.597 322.122,126.435C320.285,128.273 318.374,129.494 316.389,130.1C314.405,130.706 312.442,130.852 310.5,130.539C308.557,130.225 306.657,129.515 304.798,128.408C302.939,127.302 301.216,125.954 299.629,124.367C298.125,122.863 296.82,121.203 295.713,119.386C294.606,117.569 293.875,115.689 293.52,113.747C293.165,111.805 293.259,109.852 293.802,107.889C294.345,105.926 295.515,104.046 297.311,102.25C299.023,100.537 300.851,99.378 302.793,98.772C304.736,98.167 306.678,98.02 308.62,98.334C310.562,98.647 312.453,99.326 314.29,100.37C316.128,101.414 317.799,102.688 319.303,104.192Z" style="fill-rule:nonzero;"/>
    </g>
    <path d="M437.396,296.604L233.112,296.604L233.112,252.3L126.783,349.771L233.113,447.238L233.113,402.933L437.396,402.933L437.396,296.604Z" style="fill:rgb(243,207,198);fill-rule:nonzero;stroke:black;stroke-width:8.88px;"/>
    <g>
        <path d="M230.959,160.707L221.247,150.996L215.921,156.322L225.633,166.033L220.119,171.547L224.818,176.246L230.332,170.732L250.946,191.346C252.449,192.85 253.807,193.915 255.018,194.541C256.23,195.168 257.389,195.429 258.496,195.325C259.603,195.22 260.741,194.771 261.91,193.977C263.08,193.184 264.354,192.098 265.732,190.719L269.805,186.647L265.106,181.948L262.662,184.391C261.827,185.227 261.117,185.874 260.532,186.334C259.947,186.793 259.404,187.065 258.903,187.148C258.402,187.232 257.911,187.138 257.431,186.866C256.95,186.595 256.397,186.146 255.77,185.519L235.658,165.407L242.111,158.953L237.412,154.254L230.959,160.707Z" style="fill-rule:nonzero;"/>
        <path d="M243.302,148.364L275.695,180.757L281.02,175.431L262.725,157.136C261.263,155.674 260.114,154.129 259.279,152.5C258.443,150.87 257.963,149.2 257.838,147.487C257.712,145.774 257.994,144.072 258.684,142.381C259.373,140.689 260.532,139.029 262.161,137.4C264.208,135.353 266.401,134.329 268.74,134.329C271.079,134.329 273.251,135.332 275.256,137.337L297.186,159.266L302.511,153.941L281.208,132.638C279.454,130.883 277.679,129.463 275.883,128.377C274.086,127.291 272.228,126.665 270.306,126.497C268.385,126.33 266.422,126.665 264.417,127.5C262.412,128.335 260.344,129.818 258.214,131.948C253.41,136.752 251.865,142.224 253.577,148.364L253.452,148.49L248.314,143.352L243.302,148.364Z" style="fill-rule:nonzero;"/>
        <path d="M278.326,113.34L323.062,158.076L328.388,152.75L311.722,136.084L311.847,135.958C313.392,136.334 314.917,136.418 316.421,136.209C317.925,136 319.345,135.603 320.681,135.019C322.018,134.434 323.261,133.734 324.409,132.92C325.558,132.105 326.529,131.301 327.323,130.507C329.787,128.043 331.51,125.443 332.492,122.707C333.474,119.971 333.818,117.224 333.526,114.468C333.233,111.711 332.367,109.006 330.926,106.354C329.484,103.701 327.615,101.226 325.318,98.929C323.02,96.632 320.535,94.773 317.862,93.353C315.189,91.932 312.453,91.055 309.654,90.721C306.855,90.387 304.067,90.69 301.289,91.63C298.512,92.569 295.87,94.292 293.364,96.799C291.108,99.054 289.448,101.529 288.382,104.223C287.317,106.918 287.244,109.601 288.163,112.275L288.038,112.4L283.652,108.014L278.326,113.34ZM319.303,104.192C320.89,105.779 322.269,107.492 323.438,109.33C324.608,111.168 325.401,113.047 325.819,114.969C326.237,116.89 326.185,118.822 325.662,120.764C325.14,122.707 323.96,124.597 322.122,126.435C320.285,128.273 318.374,129.494 316.389,130.1C314.405,130.706 312.442,130.852 310.5,130.539C308.557,130.225 306.657,129.515 304.798,128.408C302.939,127.302 301.216,125.954 299.629,124.367C298.125,122.863 296.82,121.203 295.713,119.386C294.606,117.569 293.875,115.689 293.52,113.747C293.165,111.805 293.259,109.852 293.802,107.889C294.345,105.926 295.515,104.046 297.311,102.25C299.023,100.537 300.851,99.378 302.793,98.772C304.736,98.167 306.678,98.02 308.62,98.334C310.562,98.647 312.453,99.326 314.29,100.37C316.128,101.414 317.799,102.688 319.303,104.192Z" style="fill-rule:nonzero;"/>
    </g>
    <path d="M468.496,296.604L554.358,296.604L554.358,252.3L660.687,349.771L554.358,447.238L554.358,402.933L468.496,402.933L468.496,296.604Z" style="fill:rgb(0,0,255);fill-rule:nonzero;stroke:black;stroke-width:8.88px;"/>
    <g>
        <path d="M570.539,168.416L548.484,125.685L542.97,131.198L562.206,164.97L562.08,165.095L528.81,145.359L522.983,151.186L542.97,184.205L542.845,184.33L509.011,165.158L503.122,171.047L545.915,193.04L551.68,187.275L532.444,155.008L532.57,154.882L564.9,174.055L570.539,168.416Z" style="fill-rule:nonzero;"/>
        <path d="M579.248,151.562L583.321,155.634L610.639,128.316L605.939,123.617L585.263,144.293L581.002,100.435L577.368,96.801L552.181,121.988L556.88,126.687L575.175,108.392L579.248,151.562Z" style="fill-rule:nonzero;"/>
        <path d="M641.214,92.227L611.578,62.591L606.566,67.603L611.202,72.24L611.14,72.302C608.383,71.467 605.699,71.456 603.089,72.271C600.478,73.085 598.149,74.516 596.102,76.563C593.304,79.361 591.476,82.254 590.62,85.241C589.764,88.227 589.576,91.13 590.056,93.95C590.537,96.769 591.539,99.443 593.064,101.97C594.588,104.497 596.311,106.721 598.233,108.642C600.447,110.856 602.848,112.652 605.438,114.031C608.028,115.409 610.67,116.234 613.364,116.506C616.058,116.777 618.742,116.454 621.415,115.535C624.089,114.616 626.637,112.945 629.059,110.522C631.148,108.434 632.651,105.99 633.57,103.191C634.489,100.393 634.406,97.532 633.32,94.608L633.445,94.482L635.575,96.613C637.372,98.409 638.844,100.236 639.993,102.095C641.141,103.954 641.851,105.813 642.123,107.671C642.394,109.53 642.227,111.368 641.622,113.185C641.016,115.002 639.836,116.788 638.082,118.542C637.204,119.419 636.192,120.244 635.043,121.017C633.894,121.79 632.704,122.374 631.471,122.771C630.239,123.168 629.007,123.314 627.775,123.21C626.543,123.105 625.425,122.594 624.423,121.675L619.097,127.001C620.935,128.671 622.877,129.695 624.924,130.071C626.971,130.447 629.007,130.374 631.033,129.851C633.059,129.329 635.022,128.452 636.923,127.22C638.823,125.988 640.525,124.62 642.029,123.116C647.208,117.936 649.694,112.82 649.485,107.765C649.276,102.711 646.519,97.532 641.214,92.227ZM624.736,105.572C622.982,107.327 621.154,108.423 619.254,108.862C617.353,109.3 615.453,109.279 613.552,108.799C611.651,108.319 609.824,107.494 608.07,106.324C606.315,105.155 604.707,103.839 603.245,102.377C601.7,100.831 600.394,99.171 599.329,97.396C598.264,95.621 597.575,93.804 597.262,91.945C596.948,90.086 597.074,88.227 597.637,86.368C598.201,84.51 599.34,82.724 601.052,81.011C602.723,79.341 604.477,78.255 606.315,77.753C608.153,77.252 609.991,77.189 611.829,77.565C613.667,77.941 615.442,78.651 617.155,79.696C618.867,80.74 620.434,81.972 621.854,83.392C623.358,84.896 624.684,86.577 625.832,88.436C626.981,90.295 627.775,92.195 628.213,94.138C628.652,96.08 628.621,98.033 628.119,99.996C627.618,101.959 626.49,103.818 624.736,105.572Z" style="fill-rule:nonzero;"/>
    </g>
    <path d="M660.821,447.238L660.821,252.3L758.113,349.771L660.821,447.238Z" style="fill:rgb(0,0,255);fill-rule:nonzero;stroke:black;stroke-width:8.88px;"/>
    <g>
        <path d="M715.413,168.415L693.359,125.684L687.845,131.198L707.08,164.969L706.955,165.095L673.685,145.358L667.858,151.185L687.845,184.205L687.72,184.33L653.886,165.157L647.996,171.047L690.79,193.039L696.554,187.275L677.319,155.007L677.444,154.882L709.774,174.054L715.413,168.415Z" style="fill-rule:nonzero;"/>
        <path d="M724.123,151.561L728.195,155.634L755.513,128.316L750.814,123.617L730.138,144.293L725.877,100.434L722.243,96.8L697.055,121.988L701.755,126.687L720.05,108.391L724.123,151.561Z" style="fill-rule:nonzero;"/>
        <path d="M716.165,78.191L760.901,122.927L766.227,117.602L747.932,99.306C746.47,97.844 745.321,96.299 744.486,94.67C743.65,93.041 743.17,91.37 743.045,89.657C742.919,87.945 743.201,86.243 743.89,84.551C744.58,82.859 745.739,81.199 747.368,79.57C749.415,77.523 751.608,76.5 753.947,76.5C756.286,76.5 758.458,77.502 760.463,79.507L782.392,101.437L787.718,96.111L766.415,74.808C764.661,73.054 762.886,71.633 761.089,70.547C759.293,69.461 757.434,68.835 755.513,68.668C753.592,68.501 751.628,68.835 749.623,69.67C747.618,70.506 745.551,71.988 743.421,74.119C742.46,75.08 741.572,76.176 740.758,77.408C739.943,78.64 739.285,79.946 738.784,81.324C738.283,82.703 738.001,84.112 737.938,85.553C737.876,86.995 738.137,88.425 738.721,89.845L738.596,89.971L721.491,72.866L716.165,78.191Z" style="fill-rule:nonzero;"/>
    </g>
    <path d="M759.175,447.238L759.175,252.3L851.283,349.771L759.175,447.238Z" style="fill:rgb(0,0,255);fill-rule:nonzero;stroke:black;stroke-width:8.88px;"/>
    <g>
        <path d="M811.176,168.414L789.121,125.682L783.608,131.196L802.843,164.968L802.718,165.093L769.448,145.356L763.621,151.183L783.608,184.203L783.482,184.328L749.648,165.155L743.759,171.045L786.553,193.037L792.317,187.273L773.082,155.005L773.207,154.88L805.537,174.053L811.176,168.414Z" style="fill-rule:nonzero;"/>
        <path d="M819.885,151.559L823.958,155.632L851.276,128.314L846.577,123.615L825.9,144.291L821.64,100.432L818.006,96.798L792.818,121.986L797.517,126.685L815.813,108.39L819.885,151.559Z" style="fill-rule:nonzero;"/>
        <path d="M844.634,103.126C843.047,101.539 841.669,99.827 840.499,97.989C839.329,96.151 838.536,94.271 838.118,92.35C837.7,90.428 837.763,88.486 838.306,86.523C838.849,84.56 840.019,82.68 841.815,80.884C843.653,79.046 845.564,77.824 847.548,77.218C849.532,76.613 851.495,76.467 853.437,76.78C855.38,77.093 857.28,77.803 859.139,78.91C860.998,80.017 862.721,81.364 864.308,82.951C865.812,84.455 867.117,86.115 868.224,87.933C869.331,89.75 870.062,91.629 870.417,93.572C870.772,95.514 870.678,97.467 870.135,99.43C869.592,101.393 868.422,103.273 866.626,105.069C864.914,106.781 863.086,107.941 861.144,108.546C859.202,109.152 857.259,109.298 855.317,108.985C853.375,108.671 851.485,107.993 849.647,106.948C847.809,105.904 846.138,104.63 844.634,103.126ZM885.611,93.979L840.875,49.243L835.549,54.568L852.216,71.235L852.09,71.36C850.545,70.984 849.02,70.901 847.516,71.109C846.013,71.318 844.582,71.705 843.224,72.269C841.867,72.833 840.624,73.511 839.496,74.305C838.369,75.099 837.387,75.913 836.552,76.748C834.087,79.213 832.375,81.824 831.414,84.58C830.453,87.337 830.119,90.094 830.411,92.851C830.704,95.608 831.571,98.312 833.012,100.965C834.453,103.617 836.322,106.092 838.619,108.39C840.917,110.687 843.402,112.546 846.075,113.966C848.749,115.386 851.474,116.253 854.252,116.566C857.03,116.879 859.807,116.566 862.585,115.626C865.363,114.686 868.005,112.963 870.511,110.457C872.767,108.202 874.437,105.737 875.523,103.064C876.609,100.391 876.693,97.717 875.774,95.044L875.899,94.919L880.285,99.304L885.611,93.979Z" style="fill-rule:nonzero;"/>
    </g>
    <path d="M852.479,447.238L852.479,252.3L940.996,349.771L852.479,447.238Z" style="fill:rgb(0,0,255);fill-rule:nonzero;stroke:black;stroke-width:8.88px;"/>
    <g>
        <path d="M902.685,168.416L880.63,125.685L875.116,131.198L894.352,164.97L894.226,165.095L860.956,145.358L855.129,151.185L875.116,184.205L874.991,184.33L841.157,165.158L835.267,171.047L878.061,193.039L883.826,187.275L864.59,155.007L864.716,154.882L897.046,174.055L902.685,168.416Z" style="fill-rule:nonzero;"/>
        <path d="M911.394,151.561L915.467,155.634L942.784,128.316L938.085,123.617L917.409,144.293L913.148,100.434L909.514,96.8L884.327,121.988L889.026,126.687L907.321,108.392L911.394,151.561Z" style="fill-rule:nonzero;"/>
        <path d="M951.368,81.137L932.76,99.745C931.59,98.409 930.681,96.957 930.034,95.391C929.387,93.824 929.042,92.227 929,90.598C928.958,88.968 929.251,87.36 929.877,85.773C930.504,84.186 931.506,82.703 932.885,81.324C934.221,79.988 935.683,79.006 937.271,78.38C938.858,77.753 940.466,77.44 942.095,77.44C943.724,77.44 945.343,77.764 946.951,78.411C948.559,79.058 950.032,79.967 951.368,81.137ZM965.528,85.021L960.265,90.284C961.936,92.874 962.573,95.412 962.176,97.897C961.779,100.382 960.453,102.753 958.198,105.008C956.443,106.763 954.626,107.995 952.747,108.705C950.867,109.415 949.019,109.697 947.202,109.551C945.385,109.405 943.651,108.883 942.001,107.984C940.351,107.086 938.837,105.906 937.459,104.444L961.706,80.197C959.827,78.15 957.582,76.26 954.971,74.526C952.36,72.793 949.562,71.582 946.575,70.892C943.588,70.203 940.55,70.214 937.459,70.924C934.368,71.634 931.381,73.43 928.499,76.312C926.285,78.526 924.666,80.98 923.643,83.674C922.62,86.368 922.181,89.146 922.327,92.007C922.474,94.869 923.194,97.698 924.489,100.497C925.784,103.296 927.664,105.927 930.128,108.392C932.676,110.773 935.318,112.684 938.054,114.125C940.79,115.566 943.557,116.391 946.356,116.6C949.154,116.808 951.922,116.38 954.658,115.315C957.394,114.25 960.056,112.423 962.646,109.833C966.322,106.157 968.452,102.189 969.037,97.928C969.622,93.668 968.452,89.365 965.528,85.021Z" style="fill-rule:nonzero;"/>
    </g>
    <path d="M959.604,296.604L1004.4,296.604L1004.4,252.3L1110.73,349.771L1004.4,447.238L1004.4,402.933L959.604,402.933L959.604,296.604Z" style="fill:rgb(128,0,128);fill-rule:nonzero;stroke:black;stroke-width:8.88px;"/>
    <g>
        <path d="M1041.11,168.415L1019.06,125.684L1013.54,131.197L1032.78,164.969L1032.65,165.094L999.382,145.358L993.555,151.185L1013.54,184.204L1013.42,184.329L979.582,165.157L973.693,171.046L1016.49,193.038L1022.25,187.274L1003.02,155.007L1003.14,154.881L1035.47,174.054L1041.11,168.415Z" style="fill-rule:nonzero;"/>
        <path d="M1056.53,109.017L1062.04,103.504C1059.91,101.791 1057.75,100.632 1055.56,100.026C1053.37,99.421 1051.19,99.274 1049.04,99.588C1046.89,99.901 1044.79,100.642 1042.75,101.812C1040.7,102.982 1038.76,104.485 1036.92,106.323C1034.37,108.871 1032.59,111.555 1031.56,114.374C1030.54,117.194 1030.17,120.024 1030.46,122.864C1030.76,125.705 1031.64,128.493 1033.13,131.229C1034.61,133.965 1036.56,136.544 1038.99,138.967C1041.41,141.389 1043.96,143.29 1046.63,144.668C1049.3,146.047 1052.01,146.83 1054.74,147.018C1057.48,147.206 1060.19,146.746 1062.89,145.64C1065.58,144.533 1068.16,142.747 1070.63,140.282C1074.76,136.147 1076.94,131.793 1077.17,127.219C1077.4,122.645 1075.81,118.061 1072.38,113.466L1066.93,118.917C1069.1,121.757 1070.14,124.608 1070.03,127.469C1069.93,130.331 1068.56,133.077 1065.93,135.709C1064.26,137.379 1062.48,138.486 1060.6,139.029C1058.72,139.572 1056.85,139.666 1054.99,139.311C1053.14,138.956 1051.32,138.246 1049.54,137.181C1047.77,136.116 1046.13,134.831 1044.62,133.328C1043,131.699 1041.59,129.955 1040.4,128.096C1039.2,126.237 1038.41,124.337 1038.02,122.394C1037.62,120.452 1037.71,118.478 1038.3,116.473C1038.88,114.468 1040.13,112.505 1042.06,110.584C1044.31,108.328 1046.67,107.096 1049.14,106.887C1051.6,106.678 1054.07,107.388 1056.53,109.017Z" style="fill-rule:nonzero;"/>
        <path d="M1045.44,74.619L1090.18,119.356L1095.5,114.03L1077.21,95.734C1075.75,94.272 1074.6,92.727 1073.76,91.098C1072.92,89.469 1072.44,87.798 1072.32,86.085C1072.19,84.373 1072.48,82.671 1073.17,80.979C1073.86,79.287 1075.01,77.627 1076.64,75.998C1078.69,73.951 1080.88,72.928 1083.22,72.928C1085.56,72.928 1087.73,73.93 1089.74,75.935L1111.67,97.865L1116.99,92.539L1095.69,71.236C1093.94,69.482 1092.16,68.061 1090.37,66.975C1088.57,65.889 1086.71,65.263 1084.79,65.096C1082.87,64.929 1080.9,65.263 1078.9,66.098C1076.89,66.934 1074.83,68.417 1072.7,70.547C1071.74,71.508 1070.85,72.604 1070.03,73.836C1069.22,75.068 1068.56,76.374 1068.06,77.752C1067.56,79.131 1067.28,80.54 1067.21,81.981C1067.15,83.423 1067.41,84.853 1068,86.273L1067.87,86.399L1050.77,69.294L1045.44,74.619Z" style="fill-rule:nonzero;"/>
        <path d="M1106.34,52.189L1092.12,37.966L1104.02,26.061C1105.32,24.766 1106.61,23.618 1107.91,22.615C1109.2,21.613 1110.54,20.924 1111.92,20.548C1113.29,20.172 1114.69,20.193 1116.11,20.61C1117.53,21.028 1119.04,22.031 1120.62,23.618C1123.01,25.999 1124.05,28.526 1123.76,31.199C1123.47,33.872 1121.63,36.901 1118.24,40.284L1106.34,52.189ZM1081.15,38.906L1125.89,83.642L1147.5,62.026C1149.72,59.812 1151.31,57.494 1152.27,55.071C1153.23,52.648 1153.69,50.267 1153.64,47.928C1153.6,45.589 1153.1,43.354 1152.14,41.224C1151.18,39.094 1149.88,37.214 1148.26,35.585C1145.5,32.828 1142.43,31.22 1139.05,30.761C1135.66,30.301 1132.3,31.157 1128.96,33.329L1128.83,33.204C1130.13,30.238 1130.48,27.314 1129.9,24.432C1129.31,21.55 1127.83,18.919 1125.45,16.538C1123.19,14.282 1120.78,12.893 1118.21,12.371C1115.64,11.849 1113.19,11.88 1110.85,12.465C1109.77,12.716 1108.65,13.207 1107.5,13.938C1106.35,14.669 1105.18,15.525 1103.99,16.506C1102.8,17.488 1101.64,18.522 1100.51,19.608C1099.38,20.694 1098.34,21.717 1097.38,22.678L1081.15,38.906ZM1126.83,72.677L1111.35,57.201L1124.95,43.605C1126.2,42.352 1127.53,41.255 1128.93,40.316C1130.33,39.376 1131.76,38.739 1133.22,38.405C1134.68,38.07 1136.16,38.112 1137.67,38.53C1139.17,38.948 1140.65,39.887 1142.12,41.349C1144.62,43.856 1145.84,46.56 1145.78,49.463C1145.72,52.366 1144.37,55.134 1141.74,57.765L1126.83,72.677Z" style="fill-rule:nonzero;"/>
    </g>
    <path d="M1109.66,447.238L1109.66,252.3L1183.03,349.771L1109.66,447.238Z" style="fill:white;fill-rule:nonzero;stroke:black;stroke-width:8.88px;"/>
    <g>
        <path d="M1152.29,168.416L1130.24,125.685L1124.72,131.199L1143.96,164.97L1143.83,165.095L1110.56,145.359L1104.73,151.186L1124.72,184.205L1124.6,184.33L1090.76,165.158L1084.87,171.047L1127.67,193.04L1133.43,187.275L1114.19,155.008L1114.32,154.882L1146.65,174.055L1152.29,168.416Z" style="fill-rule:nonzero;"/>
        <path d="M1167.71,109.018L1173.22,103.505C1171.09,101.792 1168.93,100.633 1166.74,100.027C1164.55,99.422 1162.37,99.276 1160.22,99.589C1158.07,99.902 1155.97,100.643 1153.93,101.813C1151.88,102.983 1149.94,104.486 1148.1,106.324C1145.55,108.872 1143.77,111.556 1142.74,114.376C1141.72,117.195 1141.35,120.025 1141.65,122.865C1141.94,125.706 1142.83,128.494 1144.31,131.23C1145.79,133.966 1147.74,136.545 1150.17,138.968C1152.59,141.391 1155.14,143.291 1157.81,144.669C1160.48,146.048 1163.19,146.831 1165.92,147.019C1168.66,147.207 1171.38,146.748 1174.07,145.641C1176.76,144.534 1179.34,142.748 1181.81,140.284C1185.94,136.148 1188.13,131.794 1188.36,127.22C1188.59,122.646 1186.99,118.062 1183.56,113.467L1178.11,118.918C1180.28,121.758 1181.32,124.609 1181.21,127.471C1181.11,130.332 1179.74,133.078 1177.11,135.71C1175.44,137.381 1173.66,138.487 1171.78,139.03C1169.9,139.573 1168.03,139.667 1166.17,139.312C1164.32,138.957 1162.5,138.247 1160.72,137.182C1158.95,136.117 1157.31,134.833 1155.81,133.329C1154.18,131.7 1152.77,129.956 1151.58,128.097C1150.39,126.238 1149.59,124.338 1149.2,122.395C1148.8,120.453 1148.89,118.479 1149.48,116.474C1150.06,114.469 1151.32,112.506 1153.24,110.585C1155.49,108.329 1157.85,107.097 1160.32,106.888C1162.78,106.679 1165.25,107.389 1167.71,109.018Z" style="fill-rule:nonzero;"/>
        <path d="M1156.62,74.621L1201.36,119.357L1206.68,114.031L1188.39,95.735C1186.92,94.274 1185.78,92.728 1184.94,91.099C1184.11,89.47 1183.62,87.799 1183.5,86.087C1183.37,84.374 1183.66,82.672 1184.35,80.98C1185.04,79.288 1186.19,77.628 1187.82,75.999C1189.87,73.952 1192.06,72.929 1194.4,72.929C1196.74,72.929 1198.91,73.931 1200.92,75.936L1222.85,97.866L1228.17,92.54L1206.87,71.237C1205.12,69.483 1203.34,68.063 1201.54,66.977C1199.75,65.891 1197.89,65.264 1195.97,65.097C1194.05,64.93 1192.08,65.264 1190.08,66.099C1188.07,66.935 1186.01,68.418 1183.88,70.548C1182.91,71.509 1182.03,72.605 1181.21,73.837C1180.4,75.07 1179.74,76.375 1179.24,77.753C1178.74,79.132 1178.46,80.541 1178.39,81.983C1178.33,83.424 1178.59,84.854 1179.18,86.274L1179.05,86.4L1161.95,69.295L1156.62,74.621Z" style="fill-rule:nonzero;"/>
        <path d="M1237.25,20.925L1243.2,14.972C1240.49,12.926 1237.68,11.537 1234.78,10.806C1231.87,10.075 1229,9.918 1226.16,10.336C1223.32,10.754 1220.54,11.693 1217.83,13.155C1215.11,14.617 1212.59,16.518 1210.25,18.857C1206.82,22.282 1204.4,25.937 1202.98,29.822C1201.56,33.706 1201.03,37.602 1201.38,41.507C1201.74,45.413 1202.88,49.255 1204.83,53.036C1206.77,56.816 1209.37,60.335 1212.63,63.593C1215.88,66.851 1219.36,69.472 1223.06,71.456C1226.76,73.441 1230.5,74.621 1234.31,74.996C1238.11,75.372 1241.9,74.861 1245.68,73.461C1249.46,72.062 1253.08,69.629 1256.55,66.162C1262.27,60.44 1265.21,54.362 1265.38,47.929C1265.55,41.497 1263.11,35.168 1258.05,28.945L1252.1,34.897C1253.81,36.86 1255.15,38.949 1256.11,41.162C1257.07,43.376 1257.57,45.611 1257.61,47.867C1257.65,50.122 1257.24,52.336 1256.36,54.508C1255.48,56.68 1254.06,58.748 1252.1,60.711C1249.43,63.384 1246.63,65.18 1243.7,66.099C1240.78,67.018 1237.86,67.248 1234.93,66.789C1232.01,66.329 1229.12,65.254 1226.25,63.562C1223.39,61.87 1220.69,59.75 1218.14,57.202C1215.8,54.863 1213.84,52.315 1212.25,49.558C1210.66,46.801 1209.64,43.961 1209.18,41.037C1208.72,38.113 1208.94,35.2 1209.84,32.297C1210.74,29.394 1212.52,26.605 1215.19,23.932C1218.33,20.799 1221.83,18.888 1225.69,18.199C1229.55,17.51 1233.41,18.418 1237.25,20.925Z" style="fill-rule:nonzero;"/>
    </g>
    <path d="M1182.5,296.604L1229.68,296.604L1229.68,252.3L1336.01,349.771L1229.68,447.238L1229.68,402.933L1182.5,402.933L1182.5,296.604Z" style="fill:rgb(0,255,255);fill-rule:nonzero;stroke:black;stroke-width:8.88px;"/>
    <g>
        <path d="M1265.2,168.415L1243.14,125.684L1237.63,131.198L1256.87,164.969L1256.74,165.094L1223.47,145.358L1217.64,151.185L1237.63,184.204L1237.51,184.33L1203.67,165.157L1197.78,171.047L1240.58,193.039L1246.34,187.274L1227.11,155.007L1227.23,154.882L1259.56,174.054L1265.2,168.415Z" style="fill-rule:nonzero;"/>
        <path d="M1280.62,109.018L1286.13,103.504C1284,101.791 1281.84,100.632 1279.65,100.027C1277.45,99.421 1275.28,99.275 1273.13,99.588C1270.98,99.901 1268.88,100.643 1266.84,101.812C1264.79,102.982 1262.85,104.486 1261.01,106.323C1258.46,108.871 1256.67,111.555 1255.65,114.375C1254.63,117.194 1254.26,120.024 1254.56,122.865C1254.85,125.705 1255.74,128.493 1257.22,131.229C1258.7,133.965 1260.65,136.544 1263.08,138.967C1265.5,141.39 1268.05,143.29 1270.72,144.669C1273.39,146.047 1276.1,146.83 1278.83,147.018C1281.57,147.206 1284.29,146.747 1286.98,145.64C1289.67,144.533 1292.25,142.747 1294.72,140.283C1298.85,136.148 1301.04,131.793 1301.27,127.219C1301.49,122.645 1299.9,118.061 1296.47,113.466L1291.02,118.917C1293.19,121.758 1294.23,124.608 1294.12,127.47C1294.02,130.331 1292.65,133.077 1290.02,135.709C1288.35,137.38 1286.57,138.487 1284.69,139.03C1282.81,139.573 1280.94,139.667 1279.08,139.312C1277.23,138.957 1275.41,138.247 1273.63,137.181C1271.86,136.116 1270.22,134.832 1268.71,133.328C1267.09,131.699 1265.68,129.955 1264.49,128.096C1263.3,126.238 1262.5,124.337 1262.11,122.395C1261.71,120.452 1261.8,118.479 1262.39,116.474C1262.97,114.469 1264.23,112.506 1266.15,110.584C1268.4,108.328 1270.76,107.096 1273.23,106.887C1275.69,106.679 1278.15,107.389 1280.62,109.018Z" style="fill-rule:nonzero;"/>
        <path d="M1269.52,74.62L1314.26,119.356L1319.58,114.03L1301.29,95.735C1299.83,94.273 1298.68,92.727 1297.84,91.098C1297.01,89.469 1296.53,87.798 1296.4,86.086C1296.27,84.373 1296.56,82.671 1297.25,80.979C1297.93,79.288 1299.09,77.627 1300.72,75.998C1302.77,73.951 1304.96,72.928 1307.3,72.928C1309.64,72.928 1311.81,73.931 1313.82,75.936L1335.75,97.865L1341.07,92.539L1319.77,71.236C1318.02,69.482 1316.24,68.062 1314.44,66.976C1312.65,65.89 1310.79,65.263 1308.87,65.096C1306.95,64.929 1304.98,65.263 1302.98,66.099C1300.97,66.934 1298.91,68.417 1296.78,70.547C1295.82,71.508 1294.93,72.604 1294.11,73.837C1293.3,75.069 1292.64,76.374 1292.14,77.753C1291.64,79.131 1291.36,80.541 1291.29,81.982C1291.23,83.423 1291.49,84.854 1292.08,86.274L1291.95,86.399L1274.85,69.294L1269.52,74.62Z" style="fill-rule:nonzero;"/>
        <path d="M1350.91,72.677L1316.2,37.966L1326.22,27.941C1328.98,25.185 1331.68,23.253 1334.34,22.146C1336.99,21.039 1339.65,20.632 1342.33,20.924C1345,21.216 1347.65,22.156 1350.28,23.743C1352.91,25.331 1355.57,27.461 1358.24,30.134C1361,32.891 1363.07,35.523 1364.44,38.029C1365.82,40.535 1366.72,42.874 1367.14,45.046C1367.56,47.218 1367.59,49.234 1367.23,51.093C1366.88,52.951 1366.33,54.643 1365.6,56.168C1364.87,57.692 1364.06,59.008 1363.16,60.115C1362.26,61.222 1361.48,62.11 1360.81,62.778L1350.91,72.677ZM1305.23,38.906L1349.97,83.642L1365.32,68.292C1369.04,64.574 1371.73,60.836 1373.4,57.076C1375.07,53.317 1375.8,49.568 1375.57,45.83C1375.34,42.091 1374.19,38.353 1372.12,34.614C1370.05,30.876 1367.14,27.127 1363.38,23.368C1356.19,16.183 1348.99,12.695 1341.76,12.904C1334.54,13.113 1327.48,16.663 1320.59,23.555L1305.23,38.906Z" style="fill-rule:nonzero;"/>
    </g>
    <path d="M1351.43,296.604L1418.55,296.604L1418.55,252.3L1524.88,349.771L1418.55,447.238L1418.55,402.933L1351.43,402.933L1351.43,296.604Z" style="fill:rgb(255,0,255);fill-rule:nonzero;stroke:black;stroke-width:8.88px;"/>
    <g>
        <path d="M1444.1,168.414L1422.05,125.683L1416.53,131.196L1435.77,164.968L1435.64,165.093L1402.37,145.356L1396.54,151.183L1416.53,184.203L1416.41,184.328L1382.57,165.156L1376.68,171.045L1419.48,193.037L1425.24,187.273L1406.01,155.005L1406.13,154.88L1438.46,174.053L1444.1,168.414Z" style="fill-rule:nonzero;"/>
        <path d="M1452.81,151.559L1456.88,155.632L1484.2,128.314L1479.5,123.615L1458.83,144.291L1454.56,100.432L1450.93,96.798L1425.74,121.986L1430.44,126.685L1448.74,108.39L1452.81,151.559Z" style="fill-rule:nonzero;"/>
        <path d="M1506.63,114.53C1507.59,116.744 1508.31,118.697 1508.79,120.388C1509.27,122.08 1509.49,123.636 1509.45,125.056C1509.41,126.476 1509.1,127.792 1508.51,129.003C1507.92,130.215 1507.05,131.405 1505.88,132.575C1505.25,133.201 1504.58,133.786 1503.87,134.329C1503.16,134.872 1502.41,135.332 1501.62,135.708L1496.73,130.82C1497.4,130.57 1498.11,130.215 1498.86,129.755C1499.61,129.296 1500.2,128.857 1500.62,128.439C1501.7,127.353 1502.35,126.184 1502.56,124.931C1502.77,123.678 1502.58,122.383 1501.99,121.046L1498.74,113.402L1453.69,94.042L1459.7,88.027L1495.67,105.069L1495.79,104.944L1478.37,69.355L1484.01,63.716L1506.63,114.53Z" style="fill-rule:nonzero;"/>
    </g>
    <path d="M1566.61,296.604L1598.64,296.604L1598.64,252.3L1704.97,349.771L1598.64,447.238L1598.64,402.933L1566.61,402.933L1566.61,296.604Z" style="fill:rgb(255,255,0);fill-rule:nonzero;stroke:black;stroke-width:8.88px;"/>
    <g>
        <path d="M1641.74,168.417L1619.68,125.686L1614.17,131.2L1633.41,164.971L1633.28,165.096L1600.01,145.36L1594.18,151.187L1614.17,184.206L1614.05,184.332L1580.21,165.159L1574.32,171.049L1617.12,193.041L1622.88,187.276L1603.64,155.009L1603.77,154.883L1636.1,174.056L1641.74,168.417Z" style="fill-rule:nonzero;"/>
        <path d="M1650.45,151.563L1654.52,155.635L1681.84,128.317L1677.14,123.618L1656.47,144.295L1652.2,100.436L1648.57,96.802L1623.38,121.989L1628.08,126.688L1646.38,108.393L1650.45,151.563Z" style="fill-rule:nonzero;"/>
        <path d="M1678.89,97.178L1683.78,126.375L1690.23,119.922L1685.84,97.491L1708.28,101.877L1715.11,95.047L1685.09,90.098L1681.33,64.033L1674.94,70.424L1678.2,89.847L1659.09,86.276L1652.26,93.105L1678.89,97.178Z" style="fill-rule:nonzero;"/>
    </g>
    <path d="M1713.88,296.604L1749.9,296.604L1749.9,252.3L1856.23,349.771L1749.9,447.238L1749.9,402.933L1713.88,402.933L1713.88,296.604Z" style="fill:rgb(216,63,164);fill-rule:nonzero;stroke:black;stroke-width:8.88px;"/>
    <g>
        <path d="M1784.11,169.796L1754.47,140.159L1749.46,145.172L1754.1,149.808L1754.04,149.871C1751.28,149.036 1748.59,149.025 1745.98,149.84C1743.37,150.654 1741.04,152.085 1739,154.132C1736.2,156.93 1734.37,159.823 1733.52,162.809C1732.66,165.796 1732.47,168.699 1732.95,171.519C1733.43,174.338 1734.43,177.011 1735.96,179.538C1737.48,182.066 1739.21,184.29 1741.13,186.211C1743.34,188.425 1745.74,190.221 1748.33,191.6C1750.92,192.978 1753.57,193.803 1756.26,194.075C1758.95,194.346 1761.64,194.022 1764.31,193.103C1766.98,192.184 1769.53,190.514 1771.95,188.091C1774.04,186.002 1775.55,183.559 1776.47,180.76C1777.38,177.962 1777.3,175.1 1776.22,172.176L1776.34,172.051L1778.47,174.181C1780.27,175.978 1781.74,177.805 1782.89,179.664C1784.04,181.523 1784.75,183.381 1785.02,185.24C1785.29,187.099 1785.12,188.937 1784.52,190.754C1783.91,192.571 1782.73,194.356 1780.98,196.111C1780.1,196.988 1779.09,197.813 1777.94,198.586C1776.79,199.358 1775.6,199.943 1774.37,200.34C1773.13,200.737 1771.9,200.883 1770.67,200.779C1769.44,200.674 1768.32,200.163 1767.32,199.244L1761.99,204.569C1763.83,206.24 1765.77,207.264 1767.82,207.639C1769.87,208.015 1771.9,207.942 1773.93,207.42C1775.95,206.898 1777.92,206.021 1779.82,204.789C1781.72,203.556 1783.42,202.188 1784.92,200.685C1790.1,195.505 1792.59,190.388 1792.38,185.334C1792.17,180.28 1789.41,175.1 1784.11,169.796ZM1767.63,183.141C1765.88,184.895 1764.05,185.992 1762.15,186.431C1760.25,186.869 1758.35,186.848 1756.45,186.368C1754.55,185.888 1752.72,185.063 1750.97,183.893C1749.21,182.723 1747.6,181.408 1746.14,179.946C1744.6,178.4 1743.29,176.74 1742.22,174.965C1741.16,173.189 1740.47,171.372 1740.16,169.514C1739.84,167.655 1739.97,165.796 1740.53,163.937C1741.1,162.078 1742.24,160.293 1743.95,158.58C1745.62,156.909 1747.37,155.823 1749.21,155.322C1751.05,154.821 1752.89,154.758 1754.72,155.134C1756.56,155.51 1758.34,156.22 1760.05,157.264C1761.76,158.309 1763.33,159.541 1764.75,160.961C1766.25,162.465 1767.58,164.146 1768.73,166.005C1769.88,167.864 1770.67,169.764 1771.11,171.707C1771.55,173.649 1771.52,175.602 1771.02,177.565C1770.51,179.528 1769.38,181.387 1767.63,183.141Z" style="fill-rule:nonzero;"/>
        <path d="M1750.46,119.483L1795.2,164.219L1800.52,158.893L1755.79,114.157L1750.46,119.483Z" style="fill-rule:nonzero;"/>
        <path d="M1837.36,121.801C1836.98,123.263 1835.98,124.809 1834.35,126.438C1832.97,127.816 1831.49,128.526 1829.9,128.568C1828.32,128.61 1826.65,127.754 1824.89,125.999C1825.18,129.216 1824.75,132.181 1823.58,134.896C1822.41,137.611 1820.69,140.097 1818.44,142.352C1816.98,143.814 1815.42,145.036 1813.77,146.018C1812.12,146.999 1810.46,147.615 1808.79,147.866C1807.12,148.117 1805.43,147.95 1803.71,147.365C1802,146.78 1800.33,145.673 1798.7,144.044C1796.86,142.206 1795.67,140.389 1795.13,138.593C1794.59,136.797 1794.46,135.022 1794.75,133.267C1795.05,131.513 1795.66,129.79 1796.6,128.098C1797.54,126.407 1798.58,124.746 1799.7,123.117C1800.87,121.363 1802.04,119.755 1803.21,118.293C1804.38,116.831 1805.33,115.463 1806.06,114.189C1806.79,112.915 1807.19,111.724 1807.25,110.617C1807.32,109.51 1806.85,108.456 1805.84,107.453C1804.67,106.284 1803.52,105.563 1802.37,105.292C1801.22,105.02 1800.11,105.041 1799.05,105.354C1797.98,105.668 1796.96,106.19 1795.98,106.921C1794.99,107.652 1794.09,108.435 1793.25,109.27C1791,111.526 1789.54,113.834 1788.9,116.194C1788.25,118.554 1789.05,120.987 1791.31,123.493L1785.98,128.819C1784.06,126.73 1782.79,124.621 1782.16,122.491C1781.53,120.36 1781.42,118.24 1781.82,116.131C1782.21,114.022 1783.03,111.975 1784.26,109.991C1785.49,108.007 1787.03,106.096 1788.86,104.258C1790.33,102.796 1791.88,101.449 1793.53,100.216C1795.18,98.984 1796.92,98.107 1798.73,97.585C1800.55,97.063 1802.4,97.032 1804.28,97.491C1806.16,97.95 1808.04,99.12 1809.92,101L1826.58,117.666C1827.84,118.919 1828.83,119.765 1829.56,120.204C1830.29,120.642 1831.07,120.444 1831.91,119.608C1832.37,119.149 1832.81,118.501 1833.23,117.666L1837.36,121.801ZM1812.11,113.844C1811.94,115.014 1811.43,116.256 1810.58,117.572C1809.72,118.888 1808.77,120.214 1807.72,121.551C1806.68,122.887 1805.65,124.255 1804.62,125.655C1803.6,127.054 1802.82,128.443 1802.27,129.821C1801.73,131.2 1801.54,132.578 1801.71,133.957C1801.88,135.335 1802.63,136.692 1803.96,138.029C1804.84,138.906 1805.76,139.47 1806.72,139.721C1807.68,139.971 1808.63,140.003 1809.57,139.815C1810.51,139.627 1811.44,139.24 1812.36,138.656C1813.28,138.071 1814.16,137.361 1814.99,136.525C1816.75,134.771 1818.01,133.027 1818.78,131.294C1819.56,129.56 1819.97,127.931 1820.04,126.407C1820.1,124.882 1819.89,123.503 1819.41,122.271C1818.93,121.039 1818.31,120.047 1817.56,119.295L1812.11,113.844Z" style="fill-rule:nonzero;"/>
    </g>
    <path d="M1859.95,296.604L1917.5,296.604L1917.5,252.3L2023.83,349.771L1917.5,447.238L1917.5,402.933L1859.95,402.933L1859.95,296.604Z" style="fill:rgb(209,115,115);fill-rule:nonzero;stroke:black;stroke-width:8.88px;"/>
    <g>
        <path d="M1942.57,173.679L1910.18,141.286L1904.85,146.612L1923.15,164.907C1924.61,166.369 1925.76,167.915 1926.59,169.544C1927.43,171.173 1927.91,172.844 1928.03,174.556C1928.16,176.269 1927.88,177.971 1927.19,179.663C1926.5,181.355 1925.34,183.015 1923.71,184.644C1921.66,186.691 1919.47,187.714 1917.13,187.714C1914.79,187.714 1912.62,186.712 1910.62,184.707L1888.69,162.777L1883.36,168.103L1904.66,189.406C1906.42,191.16 1908.19,192.58 1909.99,193.666C1911.79,194.752 1913.64,195.379 1915.57,195.546C1917.49,195.713 1919.44,195.369 1921.42,194.512C1923.41,193.656 1925.47,192.163 1927.6,190.032C1929.98,187.651 1931.57,185.114 1932.39,182.42C1933.2,179.726 1933.17,176.812 1932.3,173.679L1932.42,173.554L1937.56,178.692L1942.57,173.679Z" style="fill-rule:nonzero;"/>
        <path d="M1975.78,134.958L1946.14,105.322L1941.13,110.334L1945.77,114.971L1945.7,115.034C1942.95,114.198 1940.27,114.188 1937.65,115.002C1935.04,115.817 1932.72,117.247 1930.67,119.294C1927.87,122.093 1926.04,124.985 1925.18,127.972C1924.33,130.959 1924.14,133.862 1924.62,136.681C1925.1,139.501 1926.1,142.174 1927.63,144.701C1929.15,147.228 1930.88,149.452 1932.8,151.374C1935.01,153.588 1937.41,155.384 1940,156.762C1942.59,158.141 1945.24,158.966 1947.93,159.237C1950.62,159.509 1953.31,159.185 1955.98,158.266C1958.65,157.347 1961.2,155.676 1963.62,153.254C1965.71,151.165 1967.22,148.721 1968.14,145.923C1969.06,143.124 1968.97,140.263 1967.88,137.339L1968.01,137.214L1970.14,139.344C1971.94,141.14 1973.41,142.968 1974.56,144.826C1975.71,146.685 1976.42,148.544 1976.69,150.403C1976.96,152.261 1976.79,154.099 1976.19,155.916C1975.58,157.733 1974.4,159.519 1972.65,161.273C1971.77,162.151 1970.76,162.976 1969.61,163.748C1968.46,164.521 1967.27,165.106 1966.04,165.503C1964.81,165.9 1963.57,166.046 1962.34,165.941C1961.11,165.837 1959.99,165.325 1958.99,164.406L1953.66,169.732C1955.5,171.403 1957.44,172.426 1959.49,172.802C1961.54,173.178 1963.57,173.105 1965.6,172.583C1967.62,172.061 1969.59,171.183 1971.49,169.951C1973.39,168.719 1975.09,167.351 1976.59,165.847C1981.77,160.668 1984.26,155.551 1984.05,150.497C1983.84,145.442 1981.09,140.263 1975.78,134.958ZM1959.3,148.304C1957.55,150.058 1955.72,151.155 1953.82,151.593C1951.92,152.032 1950.02,152.011 1948.12,151.531C1946.22,151.05 1944.39,150.225 1942.63,149.056C1940.88,147.886 1939.27,146.57 1937.81,145.108C1936.27,143.563 1934.96,141.902 1933.89,140.127C1932.83,138.352 1932.14,136.535 1931.83,134.676C1931.51,132.817 1931.64,130.959 1932.2,129.1C1932.77,127.241 1933.9,125.455 1935.62,123.743C1937.29,122.072 1939.04,120.986 1940.88,120.485C1942.72,119.983 1944.56,119.921 1946.39,120.297C1948.23,120.673 1950.01,121.383 1951.72,122.427C1953.43,123.471 1955,124.703 1956.42,126.124C1957.92,127.627 1959.25,129.309 1960.4,131.167C1961.55,133.026 1962.34,134.927 1962.78,136.869C1963.22,138.811 1963.19,140.764 1962.68,142.727C1962.18,144.691 1961.06,146.549 1959.3,148.304Z" style="fill-rule:nonzero;"/>
        <path d="M1974.53,109.896C1972.94,108.309 1971.56,106.596 1970.39,104.758C1969.23,102.92 1968.43,101.041 1968.01,99.119C1967.6,97.198 1967.66,95.255 1968.2,93.292C1968.74,91.329 1969.91,89.449 1971.71,87.653C1973.55,85.815 1975.46,84.593 1977.44,83.988C1979.43,83.382 1981.39,83.236 1983.33,83.549C1985.28,83.862 1987.18,84.573 1989.03,85.68C1990.89,86.786 1992.62,88.134 1994.2,89.721C1995.71,91.225 1997.01,92.885 1998.12,94.702C1999.23,96.519 1999.96,98.399 2000.31,100.341C2000.67,102.283 2000.57,104.236 2000.03,106.199C1999.49,108.162 1998.32,110.042 1996.52,111.838C1994.81,113.551 1992.98,114.71 1991.04,115.316C1989.1,115.921 1987.15,116.067 1985.21,115.754C1983.27,115.441 1981.38,114.762 1979.54,113.718C1977.7,112.674 1976.03,111.4 1974.53,109.896ZM2015.51,100.748L1970.77,56.012L1965.44,61.338L1982.11,78.004L1981.99,78.13C1980.44,77.754 1978.92,77.67 1977.41,77.879C1975.91,78.088 1974.48,78.474 1973.12,79.038C1971.76,79.602 1970.52,80.281 1969.39,81.074C1968.26,81.868 1967.28,82.682 1966.45,83.518C1963.98,85.982 1962.27,88.593 1961.31,91.35C1960.35,94.107 1960.01,96.864 1960.31,99.62C1960.6,102.377 1961.47,105.082 1962.91,107.734C1964.35,110.387 1966.22,112.862 1968.52,115.159C1970.81,117.456 1973.3,119.315 1975.97,120.735C1978.64,122.155 1981.37,123.022 1984.15,123.336C1986.92,123.649 1989.7,123.336 1992.48,122.396C1995.26,121.456 1997.9,119.733 2000.41,117.227C2002.66,114.971 2004.33,112.507 2005.42,109.833C2006.51,107.16 2006.59,104.487 2005.67,101.813L2005.8,101.688L2010.18,106.074L2015.51,100.748Z" style="fill-rule:nonzero;"/>
    </g>
    <path d="M2288.59,296.604L2221.2,296.604L2221.2,252.3L2114.87,349.771L2221.2,447.238L2221.2,402.933L2288.59,402.933L2288.59,296.604L2288.59,296.604Z" style="fill:rgb(243,207,198);fill-rule:nonzero;stroke:black;stroke-width:8.88px;"/>
    <g>
        <path d="M2150.6,160.707L2140.89,150.995L2135.56,156.321L2145.27,166.033L2139.76,171.546L2144.46,176.246L2149.97,170.732L2170.59,191.346C2172.09,192.849 2173.45,193.914 2174.66,194.541C2175.87,195.168 2177.03,195.429 2178.14,195.324C2179.24,195.22 2180.38,194.771 2181.55,193.977C2182.72,193.183 2183.99,192.097 2185.37,190.719L2189.45,186.646L2184.75,181.947L2182.3,184.391C2181.47,185.226 2180.76,185.874 2180.17,186.333C2179.59,186.793 2179.05,187.064 2178.54,187.148C2178.04,187.231 2177.55,187.137 2177.07,186.866C2176.59,186.594 2176.04,186.145 2175.41,185.519L2155.3,165.406L2161.75,158.953L2157.05,154.254L2150.6,160.707Z" style="fill-rule:nonzero;"/>
        <path d="M2162.94,148.364L2195.33,180.757L2200.66,175.431L2182.36,157.136C2180.9,155.674 2179.75,154.128 2178.92,152.499C2178.08,150.87 2177.6,149.199 2177.48,147.487C2177.35,145.774 2177.63,144.072 2178.32,142.38C2179.01,140.689 2180.17,139.028 2181.8,137.399C2183.85,135.352 2186.04,134.329 2188.38,134.329C2190.72,134.329 2192.89,135.332 2194.89,137.336L2216.82,159.266L2222.15,153.94L2200.85,132.637C2199.09,130.883 2197.32,129.463 2195.52,128.377C2193.72,127.291 2191.87,126.664 2189.95,126.497C2188.02,126.33 2186.06,126.664 2184.05,127.5C2182.05,128.335 2179.98,129.818 2177.85,131.948C2173.05,136.752 2171.5,142.224 2173.22,148.364L2173.09,148.489L2167.95,143.351L2162.94,148.364Z" style="fill-rule:nonzero;"/>
        <path d="M2197.97,113.339L2242.71,158.075L2248.03,152.75L2231.37,136.083L2231.49,135.958C2233.04,136.334 2234.56,136.418 2236.06,136.209C2237.57,136 2238.99,135.603 2240.33,135.018C2241.66,134.433 2242.9,133.734 2244.05,132.919C2245.2,132.105 2246.17,131.301 2246.97,130.507C2249.43,128.043 2251.15,125.442 2252.14,122.706C2253.12,119.97 2253.46,117.224 2253.17,114.467C2252.88,111.71 2252.01,109.006 2250.57,106.353C2249.13,103.701 2247.26,101.226 2244.96,98.929C2242.66,96.631 2240.18,94.772 2237.51,93.352C2234.83,91.932 2232.1,91.055 2229.3,90.721C2226.5,90.387 2223.71,90.689 2220.93,91.629C2218.16,92.569 2215.51,94.292 2213.01,96.798C2210.75,99.054 2209.09,101.529 2208.03,104.223C2206.96,106.917 2206.89,109.601 2207.81,112.274L2207.68,112.4L2203.3,108.014L2197.97,113.339ZM2238.95,104.192C2240.53,105.779 2241.91,107.492 2243.08,109.329C2244.25,111.167 2245.05,113.047 2245.46,114.968C2245.88,116.89 2245.83,118.822 2245.31,120.764C2244.78,122.706 2243.6,124.597 2241.77,126.434C2239.93,128.272 2238.02,129.494 2236.03,130.1C2234.05,130.705 2232.09,130.852 2230.14,130.538C2228.2,130.225 2226.3,129.515 2224.44,128.408C2222.58,127.301 2220.86,125.954 2219.27,124.367C2217.77,122.863 2216.46,121.203 2215.36,119.386C2214.25,117.569 2213.52,115.689 2213.16,113.747C2212.81,111.804 2212.9,109.852 2213.45,107.888C2213.99,105.925 2215.16,104.046 2216.95,102.249C2218.67,100.537 2220.49,99.378 2222.44,98.772C2224.38,98.166 2226.32,98.02 2228.26,98.333C2230.21,98.647 2232.1,99.325 2233.93,100.37C2235.77,101.414 2237.44,102.688 2238.95,104.192Z" style="fill-rule:nonzero;"/>
    </g>
    <path d="M2316.9,296.604L2324.61,296.604L2324.61,252.3L2430.94,349.771L2324.61,447.238L2324.61,402.933L2316.9,402.933L2316.9,296.604Z" style="fill:rgb(159,226,191);fill-rule:nonzero;stroke:black;stroke-width:8.88px;"/>
    <g>
        <path d="M2315.2,168.288L2347.59,200.68L2352.92,195.355L2338.51,180.944C2336.42,178.855 2334.78,176.798 2333.59,174.772C2332.4,172.747 2331.7,170.71 2331.49,168.663C2331.28,166.617 2331.64,164.549 2332.55,162.461C2333.47,160.372 2335,158.263 2337.13,156.132L2331.49,150.493C2328.53,153.292 2326.73,156.258 2326.1,159.39C2325.47,162.523 2325.83,166.053 2327.17,169.979L2327.04,170.105L2320.21,163.275L2315.2,168.288Z" style="fill-rule:nonzero;"/>
        <path d="M2336.25,147.235L2368.64,179.628L2373.97,174.302L2353.79,154.127C2353.17,153.501 2352.54,152.561 2351.91,151.308C2351.29,150.055 2350.88,148.645 2350.69,147.079C2350.5,145.512 2350.65,143.862 2351.13,142.129C2351.61,140.395 2352.62,138.756 2354.17,137.21C2355.38,135.999 2356.55,135.185 2357.68,134.767C2358.81,134.349 2359.92,134.234 2361.03,134.422C2362.14,134.61 2363.22,135.049 2364.29,135.738C2365.35,136.427 2366.41,137.294 2367.45,138.338L2388.69,159.578L2394.02,154.253L2373.84,134.078C2371.34,131.571 2370.08,128.815 2370.08,125.807C2370.08,122.8 2371.4,119.98 2374.03,117.349C2375.33,116.054 2376.57,115.187 2377.76,114.748C2378.95,114.31 2380.1,114.184 2381.2,114.372C2382.31,114.56 2383.39,115.009 2384.43,115.72C2385.48,116.43 2386.5,117.286 2387.5,118.288L2408.74,139.529L2414.07,134.203L2390.32,110.456C2388.65,108.786 2386.96,107.616 2385.25,106.948C2383.53,106.279 2381.83,106.039 2380.14,106.227C2378.45,106.415 2376.77,106.989 2375.1,107.95C2373.43,108.911 2371.78,110.206 2370.15,111.835C2368.02,113.965 2366.54,116.398 2365.73,119.134C2364.91,121.87 2364.84,124.658 2365.51,127.499C2362.84,126.162 2360.27,125.891 2357.8,126.684C2355.34,127.478 2353.1,128.877 2351.1,130.882C2346.55,135.435 2344.9,140.761 2346.15,146.859L2346.02,146.985L2341.26,142.223L2336.25,147.235Z" style="fill-rule:nonzero;"/>
        <path d="M2377.67,81.134L2422.41,125.87L2427.73,120.544L2383,75.808L2377.67,81.134Z" style="fill-rule:nonzero;"/>
        <path d="M2426.1,85.206L2412.82,56.761L2412.94,56.635L2441.26,70.044L2426.1,85.206ZM2404.3,54.505L2431.61,116.659L2437.69,110.582L2429.23,92.098L2448.16,73.176L2466.51,81.76L2473.09,75.181L2410.88,47.926L2404.3,54.505Z" style="fill-rule:nonzero;"/>
    </g>
    <path d="M2430.93,447.238L2430.93,252.3L2510.28,349.771L2430.93,447.238Z" style="fill:rgb(159,226,191);fill-rule:nonzero;stroke:black;stroke-width:8.88px;"/>
    <g>
        <path d="M2411.89,168.291L2444.28,200.684L2449.61,195.358L2435.2,180.948C2433.11,178.859 2431.47,176.802 2430.28,174.776C2429.09,172.75 2428.39,170.714 2428.18,168.667C2427.97,166.62 2428.33,164.553 2429.25,162.464C2430.16,160.376 2431.69,158.266 2433.82,156.136L2428.18,150.497C2425.22,153.296 2423.42,156.261 2422.79,159.394C2422.16,162.527 2422.52,166.056 2423.86,169.983L2423.73,170.108L2416.9,163.279L2411.89,168.291Z" style="fill-rule:nonzero;"/>
        <path d="M2432.95,147.239L2465.34,179.632L2470.67,174.306L2450.49,154.131C2449.87,153.504 2449.24,152.565 2448.61,151.312C2447.99,150.058 2447.58,148.649 2447.39,147.082C2447.2,145.516 2447.35,143.866 2447.83,142.132C2448.31,140.399 2449.32,138.76 2450.87,137.214C2452.08,136.003 2453.25,135.188 2454.38,134.77C2455.51,134.353 2456.62,134.238 2457.73,134.426C2458.84,134.614 2459.92,135.052 2460.99,135.742C2462.05,136.431 2463.11,137.298 2464.15,138.342L2485.39,159.582L2490.72,154.256L2470.54,134.081C2468.04,131.575 2466.78,128.818 2466.78,125.811C2466.78,122.803 2468.1,119.984 2470.73,117.352C2472.03,116.057 2473.27,115.191 2474.46,114.752C2475.65,114.313 2476.8,114.188 2477.91,114.376C2479.01,114.564 2480.09,115.013 2481.13,115.723C2482.18,116.433 2483.2,117.29 2484.2,118.292L2505.44,139.532L2510.77,134.207L2487.02,110.46C2485.35,108.789 2483.66,107.62 2481.95,106.951C2480.23,106.283 2478.53,106.043 2476.84,106.231C2475.15,106.419 2473.47,106.993 2471.8,107.954C2470.13,108.915 2468.48,110.209 2466.85,111.839C2464.72,113.969 2463.24,116.402 2462.43,119.138C2461.62,121.874 2461.54,124.662 2462.21,127.502C2459.54,126.166 2456.97,125.894 2454.5,126.688C2452.04,127.482 2449.8,128.881 2447.8,130.886C2443.25,135.439 2441.6,140.764 2442.85,146.863L2442.72,146.988L2437.96,142.226L2432.95,147.239Z" style="fill-rule:nonzero;"/>
        <path d="M2474.36,81.137L2519.1,125.873L2524.42,120.548L2479.68,75.812L2474.36,81.137Z" style="fill-rule:nonzero;"/>
        <path d="M2533.76,48.682L2539.71,42.729C2537,40.683 2534.19,39.294 2531.28,38.563C2528.38,37.832 2525.51,37.675 2522.67,38.093C2519.83,38.511 2517.05,39.45 2514.34,40.912C2511.62,42.374 2509.1,44.275 2506.76,46.614C2503.33,50.039 2500.91,53.694 2499.49,57.579C2498.07,61.463 2497.53,65.359 2497.89,69.264C2498.24,73.17 2499.39,77.012 2501.34,80.793C2503.28,84.573 2505.88,88.092 2509.14,91.35C2512.39,94.608 2515.87,97.229 2519.57,99.213C2523.26,101.198 2527.01,102.378 2530.82,102.753C2534.62,103.129 2538.41,102.618 2542.19,101.218C2545.97,99.819 2549.59,97.386 2553.06,93.919C2558.78,88.196 2561.72,82.119 2561.89,75.686C2562.06,69.254 2559.62,62.925 2554.56,56.702L2548.61,62.654C2550.32,64.617 2551.66,66.706 2552.62,68.919C2553.58,71.133 2554.08,73.368 2554.12,75.624C2554.16,77.879 2553.75,80.093 2552.87,82.265C2551.99,84.437 2550.57,86.505 2548.61,88.468C2545.94,91.141 2543.14,92.937 2540.21,93.856C2537.29,94.775 2534.37,95.005 2531.44,94.546C2528.52,94.086 2525.62,93.011 2522.76,91.319C2519.9,89.627 2517.2,87.507 2514.65,84.959C2512.31,82.62 2510.35,80.072 2508.76,77.315C2507.17,74.558 2506.15,71.718 2505.69,68.794C2505.23,65.87 2505.45,62.957 2506.35,60.054C2507.25,57.151 2509.03,54.362 2511.7,51.689C2514.84,48.556 2518.34,46.645 2522.2,45.956C2526.06,45.267 2529.92,46.175 2533.76,48.682Z" style="fill-rule:nonzero;"/>
    </g>
    <path d="M2511.48,296.604L2544.7,296.604L2544.7,252.3L2651.03,349.771L2544.7,447.238L2544.7,402.933L2511.48,402.933L2511.48,296.604Z" style="fill:rgb(159,226,191);fill-rule:nonzero;stroke:black;stroke-width:8.88px;"/>
    <g>
        <path d="M2522.54,168.287L2554.93,200.68L2560.26,195.354L2545.85,180.944C2543.76,178.855 2542.12,176.798 2540.93,174.772C2539.74,172.746 2539.04,170.71 2538.83,168.663C2538.62,166.616 2538.98,164.549 2539.89,162.46C2540.81,160.372 2542.34,158.262 2544.47,156.132L2538.83,150.493C2535.86,153.292 2534.07,156.257 2533.44,159.39C2532.82,162.523 2533.17,166.053 2534.51,169.979L2534.38,170.104L2527.55,163.275L2522.54,168.287Z" style="fill-rule:nonzero;"/>
        <path d="M2543.6,147.235L2575.99,179.628L2581.32,174.302L2561.14,154.127C2560.52,153.501 2559.89,152.561 2559.26,151.308C2558.64,150.055 2558.23,148.645 2558.04,147.078C2557.85,145.512 2558,143.862 2558.48,142.129C2558.96,140.395 2559.97,138.756 2561.52,137.21C2562.73,135.999 2563.9,135.184 2565.03,134.767C2566.16,134.349 2567.27,134.234 2568.38,134.422C2569.49,134.61 2570.57,135.049 2571.64,135.738C2572.7,136.427 2573.76,137.294 2574.8,138.338L2596.04,159.578L2601.37,154.252L2581.19,134.077C2578.69,131.571 2577.43,128.814 2577.43,125.807C2577.43,122.799 2578.75,119.98 2581.38,117.348C2582.68,116.053 2583.92,115.187 2585.11,114.748C2586.3,114.31 2587.45,114.184 2588.55,114.372C2589.66,114.56 2590.74,115.009 2591.78,115.719C2592.83,116.429 2593.85,117.286 2594.85,118.288L2616.09,139.528L2621.42,134.203L2597.67,110.456C2596,108.785 2594.31,107.616 2592.6,106.947C2590.88,106.279 2589.18,106.039 2587.49,106.227C2585.8,106.415 2584.12,106.989 2582.45,107.95C2580.78,108.911 2579.13,110.206 2577.5,111.835C2575.37,113.965 2573.89,116.398 2573.08,119.134C2572.26,121.87 2572.19,124.658 2572.86,127.499C2570.19,126.162 2567.62,125.89 2565.15,126.684C2562.69,127.478 2560.45,128.877 2558.45,130.882C2553.9,135.435 2552.25,140.761 2553.5,146.859L2553.37,146.984L2548.61,142.223L2543.6,147.235Z" style="fill-rule:nonzero;"/>
        <path d="M2585.01,81.133L2629.75,125.869L2635.07,120.544L2590.34,75.808L2585.01,81.133Z" style="fill-rule:nonzero;"/>
        <path d="M2624.67,79.943L2610.45,65.72L2622.35,53.816C2623.65,52.521 2624.94,51.372 2626.24,50.369C2627.53,49.367 2628.87,48.678 2630.25,48.302C2631.62,47.926 2633.02,47.947 2634.45,48.365C2635.87,48.782 2637.37,49.785 2638.96,51.372C2641.34,53.753 2642.38,56.28 2642.09,58.953C2641.8,61.627 2639.96,64.655 2636.58,68.038L2624.67,79.943ZM2599.48,66.66L2644.22,111.396L2665.84,89.78C2668.05,87.566 2669.64,85.248 2670.6,82.825C2671.56,80.402 2672.02,78.021 2671.97,75.682C2671.93,73.343 2671.43,71.108 2670.47,68.978C2669.51,66.848 2668.22,64.968 2666.59,63.339C2663.83,60.582 2660.76,58.974 2657.38,58.515C2653.99,58.055 2650.63,58.912 2647.29,61.084L2647.16,60.958C2648.46,57.993 2648.81,55.069 2648.23,52.187C2647.64,49.304 2646.16,46.673 2643.78,44.292C2641.53,42.036 2639.11,40.647 2636.54,40.125C2633.97,39.603 2631.52,39.635 2629.18,40.219C2628.1,40.47 2626.98,40.961 2625.83,41.692C2624.68,42.423 2623.51,43.279 2622.32,44.261C2621.13,45.242 2619.97,46.276 2618.84,47.362C2617.72,48.448 2616.67,49.471 2615.71,50.432L2599.48,66.66ZM2645.16,100.431L2629.68,84.955L2643.28,71.359C2644.53,70.106 2645.86,69.01 2647.26,68.07C2648.66,67.13 2650.09,66.493 2651.55,66.159C2653.01,65.825 2654.49,65.866 2656,66.284C2657.5,66.702 2658.99,67.642 2660.45,69.104C2662.95,71.61 2664.18,74.314 2664.11,77.217C2664.05,80.12 2662.7,82.888 2660.07,85.519L2645.16,100.431Z" style="fill-rule:nonzero;"/>
    </g>
    <path d="M2659.68,296.604L2666.59,296.604L2666.59,252.3L2772.92,349.771L2666.59,447.238L2666.59,402.933L2659.68,402.933L2659.68,296.604Z" style="fill:rgb(159,226,191);fill-rule:nonzero;stroke:black;stroke-width:8.88px;"/>
    <g>
        <path d="M2657.58,168.289L2689.97,200.682L2695.3,195.356L2680.89,180.945C2678.8,178.857 2677.16,176.8 2675.97,174.774C2674.78,172.748 2674.08,170.712 2673.87,168.665C2673.66,166.618 2674.02,164.55 2674.93,162.462C2675.85,160.373 2677.38,158.264 2679.51,156.134L2673.87,150.495C2670.91,153.293 2669.11,156.259 2668.48,159.392C2667.86,162.525 2668.21,166.054 2669.55,169.981L2669.42,170.106L2662.59,163.276L2657.58,168.289Z" style="fill-rule:nonzero;"/>
        <path d="M2678.64,147.237L2711.03,179.629L2716.36,174.304L2696.18,154.129C2695.56,153.502 2694.93,152.562 2694.3,151.309C2693.68,150.056 2693.27,148.646 2693.08,147.08C2692.89,145.514 2693.04,143.864 2693.52,142.13C2694,140.397 2695.01,138.757 2696.56,137.212C2697.77,136 2698.94,135.186 2700.07,134.768C2701.2,134.35 2702.31,134.236 2703.42,134.423C2704.53,134.611 2705.61,135.05 2706.68,135.739C2707.74,136.428 2708.8,137.295 2709.84,138.339L2731.08,159.58L2736.41,154.254L2716.23,134.079C2713.73,131.573 2712.47,128.816 2712.47,125.808C2712.47,122.801 2713.79,119.981 2716.42,117.35C2717.72,116.055 2718.96,115.188 2720.15,114.75C2721.34,114.311 2722.49,114.186 2723.6,114.374C2724.7,114.562 2725.78,115.011 2726.82,115.721C2727.87,116.431 2728.89,117.287 2729.89,118.29L2751.13,139.53L2756.46,134.204L2732.71,110.458C2731.04,108.787 2729.35,107.617 2727.64,106.949C2725.92,106.281 2724.22,106.041 2722.53,106.228C2720.84,106.416 2719.16,106.991 2717.49,107.952C2715.82,108.912 2714.17,110.207 2712.54,111.836C2710.41,113.966 2708.93,116.4 2708.12,119.136C2707.3,121.871 2707.23,124.66 2707.9,127.5C2705.23,126.163 2702.66,125.892 2700.19,126.686C2697.73,127.479 2695.49,128.878 2693.49,130.883C2688.94,135.436 2687.29,140.762 2688.54,146.861L2688.41,146.986L2683.65,142.224L2678.64,147.237Z" style="fill-rule:nonzero;"/>
        <path d="M2720.05,81.135L2764.79,125.871L2770.11,120.545L2725.38,75.809L2720.05,81.135Z" style="fill-rule:nonzero;"/>
        <path d="M2780.2,100.433L2745.49,65.722L2755.51,55.697C2758.27,52.94 2760.97,51.008 2763.63,49.901C2766.28,48.794 2768.94,48.387 2771.62,48.679C2774.29,48.972 2776.94,49.912 2779.57,51.499C2782.2,53.086 2784.86,55.216 2787.53,57.89C2790.29,60.647 2792.36,63.278 2793.73,65.784C2795.11,68.291 2796.01,70.63 2796.43,72.802C2796.85,74.974 2796.88,76.989 2796.52,78.848C2796.17,80.707 2795.62,82.398 2794.89,83.923C2794.16,85.448 2793.35,86.763 2792.45,87.87C2791.55,88.977 2790.77,89.865 2790.1,90.533L2780.2,100.433ZM2734.52,66.661L2779.26,111.398L2794.61,96.047C2798.33,92.329 2801.02,88.591 2802.69,84.832C2804.36,81.072 2805.08,77.323 2804.86,73.585C2804.62,69.846 2803.48,66.108 2801.41,62.37C2799.34,58.631 2796.43,54.882 2792.67,51.123C2785.48,43.938 2778.28,40.451 2771.05,40.659C2763.83,40.868 2756.77,44.419 2749.87,51.311L2734.52,66.661Z" style="fill-rule:nonzero;"/>
    </g>
    <path d="M2789.26,296.604L2829.53,296.604L2829.53,252.3L2935.86,349.771L2829.53,447.238L2829.53,402.933L2789.26,402.933L2789.26,296.604Z" style="fill:rgb(243,207,198);fill-rule:nonzero;stroke:black;stroke-width:8.88px;"/>
    <g>
        <path d="M2811.43,160.71L2801.72,150.999L2796.39,156.325L2806.1,166.036L2800.59,171.55L2805.29,176.249L2810.8,170.735L2831.42,191.349C2832.92,192.853 2834.28,193.918 2835.49,194.544C2836.7,195.171 2837.86,195.432 2838.97,195.328C2840.07,195.223 2841.21,194.774 2842.38,193.981C2843.55,193.187 2844.83,192.101 2846.2,190.723L2850.28,186.65L2845.58,181.951L2843.13,184.394C2842.3,185.23 2841.59,185.877 2841,186.337C2840.42,186.796 2839.88,187.068 2839.37,187.151C2838.87,187.235 2838.38,187.141 2837.9,186.869C2837.42,186.598 2836.87,186.149 2836.24,185.522L2816.13,165.41L2822.58,158.956L2817.88,154.257L2811.43,160.71Z" style="fill-rule:nonzero;"/>
        <path d="M2823.78,148.367L2856.17,180.76L2861.5,175.435L2843.2,157.139C2841.74,155.677 2840.59,154.132 2839.76,152.503C2838.92,150.874 2838.44,149.203 2838.32,147.49C2838.19,145.778 2838.47,144.075 2839.16,142.384C2839.85,140.692 2841.01,139.032 2842.64,137.403C2844.69,135.356 2846.88,134.332 2849.22,134.332C2851.56,134.332 2853.73,135.335 2855.73,137.34L2877.66,159.269L2882.99,153.944L2861.69,132.641C2859.93,130.886 2858.16,129.466 2856.36,128.38C2854.57,127.294 2852.71,126.668 2850.78,126.501C2848.86,126.333 2846.9,126.668 2844.89,127.503C2842.89,128.338 2840.82,129.821 2838.69,131.952C2833.89,136.755 2832.34,142.227 2834.06,148.367L2833.93,148.493L2828.79,143.355L2823.78,148.367Z" style="fill-rule:nonzero;"/>
        <path d="M2858.8,113.343L2903.54,158.079L2908.86,152.753L2892.2,136.087L2892.32,135.962C2893.87,136.337 2895.39,136.421 2896.89,136.212C2898.4,136.003 2899.82,135.606 2901.16,135.022C2902.49,134.437 2903.73,133.737 2904.88,132.923C2906.03,132.108 2907,131.304 2907.8,130.51C2910.26,128.046 2911.98,125.446 2912.97,122.71C2913.95,119.974 2914.29,117.228 2914,114.471C2913.71,111.714 2912.84,109.009 2911.4,106.357C2909.96,103.704 2908.09,101.229 2905.79,98.932C2903.49,96.635 2901.01,94.776 2898.34,93.356C2895.66,91.936 2892.93,91.058 2890.13,90.724C2887.33,90.39 2884.54,90.693 2881.76,91.633C2878.99,92.573 2876.34,94.296 2873.84,96.802C2871.58,99.057 2869.92,101.532 2868.86,104.226C2867.79,106.921 2867.72,109.604 2868.64,112.278L2868.51,112.403L2864.12,108.017L2858.8,113.343ZM2899.78,104.195C2901.36,105.782 2902.74,107.495 2903.91,109.333C2905.08,111.171 2905.88,113.05 2906.29,114.972C2906.71,116.893 2906.66,118.825 2906.14,120.768C2905.61,122.71 2904.43,124.6 2902.6,126.438C2900.76,128.276 2898.85,129.498 2896.86,130.103C2894.88,130.709 2892.92,130.855 2890.97,130.542C2889.03,130.229 2887.13,129.518 2885.27,128.412C2883.41,127.305 2881.69,125.958 2880.1,124.37C2878.6,122.867 2877.29,121.206 2876.19,119.389C2875.08,117.572 2874.35,115.692 2873.99,113.75C2873.64,111.808 2873.73,109.855 2874.28,107.892C2874.82,105.929 2875.99,104.049 2877.78,102.253C2879.5,100.54 2881.32,99.381 2883.27,98.775C2885.21,98.17 2887.15,98.024 2889.09,98.337C2891.04,98.65 2892.93,99.329 2894.76,100.373C2896.6,101.417 2898.27,102.691 2899.78,104.195Z" style="fill-rule:nonzero;"/>
    </g>
    <path d="M2962.58,447.238L2962.58,252.3L3010.03,349.771L2962.58,447.238Z" style="fill-rule:nonzero;stroke:black;stroke-width:8.88px;"/>
    <g>
        <path d="M2988.74,171.672C2988.36,173.134 2987.36,174.68 2985.73,176.309C2984.35,177.687 2982.87,178.397 2981.28,178.439C2979.7,178.481 2978.03,177.625 2976.27,175.87C2976.56,179.087 2976.12,182.052 2974.96,184.767C2973.79,187.483 2972.07,189.968 2969.82,192.223C2968.36,193.685 2966.8,194.907 2965.15,195.889C2963.5,196.87 2961.84,197.487 2960.17,197.737C2958.5,197.988 2956.81,197.821 2955.09,197.236C2953.38,196.651 2951.71,195.544 2950.08,193.915C2948.24,192.077 2947.05,190.26 2946.51,188.464C2945.97,186.668 2945.84,184.893 2946.13,183.138C2946.43,181.384 2947.04,179.661 2947.98,177.969C2948.92,176.278 2949.96,174.617 2951.08,172.988C2952.25,171.234 2953.42,169.626 2954.59,168.164C2955.76,166.702 2956.71,165.334 2957.44,164.06C2958.17,162.786 2958.57,161.595 2958.63,160.488C2958.7,159.382 2958.23,158.327 2957.22,157.324C2956.05,156.155 2954.89,155.434 2953.75,155.163C2952.6,154.891 2951.49,154.912 2950.43,155.225C2949.36,155.539 2948.34,156.061 2947.36,156.792C2946.37,157.523 2945.47,158.306 2944.63,159.141C2942.38,161.397 2940.92,163.705 2940.28,166.065C2939.63,168.425 2940.43,170.858 2942.69,173.364L2937.36,178.69C2935.44,176.601 2934.17,174.492 2933.54,172.362C2932.91,170.231 2932.8,168.112 2933.2,166.002C2933.59,163.893 2934.41,161.846 2935.64,159.862C2936.87,157.878 2938.41,155.967 2940.24,154.129C2941.71,152.667 2943.26,151.32 2944.91,150.088C2946.56,148.855 2948.3,147.978 2950.11,147.456C2951.93,146.934 2953.78,146.903 2955.66,147.362C2957.54,147.822 2959.42,148.991 2961.3,150.871L2977.96,167.537C2979.22,168.79 2980.21,169.636 2980.94,170.075C2981.67,170.513 2982.45,170.315 2983.29,169.479C2983.75,169.02 2984.19,168.373 2984.6,167.537L2988.74,171.672ZM2963.49,163.715C2963.32,164.885 2962.81,166.127 2961.95,167.443C2961.1,168.759 2960.15,170.085 2959.1,171.422C2958.06,172.758 2957.03,174.126 2956,175.526C2954.98,176.925 2954.2,178.314 2953.65,179.692C2953.11,181.071 2952.92,182.449 2953.09,183.828C2953.26,185.206 2954.01,186.564 2955.34,187.9C2956.22,188.777 2957.14,189.341 2958.1,189.592C2959.06,189.843 2960.01,189.874 2960.95,189.686C2961.89,189.498 2962.82,189.112 2963.74,188.527C2964.66,187.942 2965.54,187.232 2966.37,186.397C2968.13,184.642 2969.39,182.898 2970.16,181.165C2970.93,179.431 2971.35,177.802 2971.41,176.278C2971.48,174.753 2971.27,173.375 2970.79,172.142C2970.31,170.91 2969.69,169.918 2968.94,169.166L2963.49,163.715Z" style="fill-rule:nonzero;"/>
        <path d="M2949.4,121.799L2994.14,166.535L2999.46,161.209L2954.73,116.473L2949.4,121.799Z" style="fill-rule:nonzero;"/>
        <path d="M2975.15,109.08L2968.63,102.563L2963.31,107.889L2969.83,114.405L2975.15,109.08ZM2975.65,120.232L3008.05,152.625L3013.37,147.299L2980.98,114.906L2975.65,120.232Z" style="fill-rule:nonzero;"/>
        <path d="M3011.74,111.962L2998.46,83.516L2998.58,83.391L3026.9,96.799L3011.74,111.962ZM2989.94,81.26L3017.25,143.415L3023.33,137.337L3014.87,118.854L3033.8,99.932L3052.15,108.516L3058.73,101.937L2996.51,74.682L2989.94,81.26Z" style="fill-rule:nonzero;"/>
    </g>
</svg>
