<?xml version="1.0" encoding="UTF-8" standalone="no"?>
<!DOCTYPE svg PUBLIC "-//W3C//DTD SVG 1.1//EN" "http://www.w3.org/Graphics/SVG/1.1/DTD/svg11.dtd">
<svg width="100%" height="100%" viewBox="0 0 450 41" version="1.1" xmlns="http://www.w3.org/2000/svg" xmlns:xlink="http://www.w3.org/1999/xlink" xml:space="preserve" xmlns:serif="http://www.serif.com/" style="fill-rule:evenodd;clip-rule:evenodd;stroke-linejoin:round;stroke-miterlimit:10;">
    <g transform="matrix(1,0,0,1,-697.5,-827.153)">
        <g id="Artboard47" transform="matrix(0.949893,0,0,0.342673,56.6359,549.588)">
            <rect x="674.67" y="810" width="473.738" height="119.222" style="fill:none;"/>
            <g transform="matrix(1.05275,0,0,2.91824,702.564,759.622)">
                <g transform="matrix(1,-0.000379826,-0.000379826,-1,113.234,39.5989)">
                    <path d="M-0,0.031L160.6,0.031" style="fill:none;fill-rule:nonzero;stroke:black;stroke-width:0.75px;"/>
                </g>
                <g transform="matrix(1,0,0,1,272.836,36.5078)">
                    <path d="M0,6L5.999,2.997L-0.003,0L0,6Z"/>
                </g>
                <g transform="matrix(0,-1,-1,0,113.234,36.5684)">
                    <path d="M-3,-3C-1.343,-3 0,-1.657 0,0C0,1.657 -1.343,3 -3,3C-4.657,3 -6,1.657 -6,0C-6,-1.657 -4.657,-3 -3,-3"/>
                </g>
                <g transform="matrix(0,1,1,0,245.696,30.886)">
                    <path d="M9,-9C4.029,-9 0,-4.971 0,0C0,4.971 4.029,9 9,9C13.971,9 18,4.971 18,0C18,-4.971 13.971,-9 9,-9" style="fill:rgb(91,155,213);"/>
                </g>
                <g transform="matrix(0,1,1,0,245.696,30.886)">
                    <circle cx="9" cy="0" r="9" style="fill:none;stroke:black;stroke-width:0.75px;"/>
                </g>
                <g transform="matrix(14.04,0,0,14.04,139.327,36.0443)">
                    <path d="M0.547,-0.038C0.547,-0.028 0.547,-0.02 0.546,-0.015C0.545,-0.01 0.543,-0.007 0.541,-0.005C0.539,-0.003 0.536,-0.001 0.532,0C0.528,0.002 0.523,0.003 0.517,0.005C0.511,0.006 0.505,0.007 0.5,0.008C0.494,0.008 0.487,0.009 0.481,0.009C0.469,0.009 0.457,0.007 0.446,0.004C0.434,0.001 0.424,-0.004 0.415,-0.011C0.406,-0.018 0.399,-0.028 0.393,-0.04C0.386,-0.052 0.382,-0.068 0.38,-0.087C0.374,-0.073 0.366,-0.06 0.356,-0.048C0.347,-0.037 0.335,-0.026 0.323,-0.018C0.31,-0.009 0.295,-0.003 0.28,0.002C0.264,0.007 0.247,0.009 0.229,0.009C0.197,0.009 0.169,0.003 0.146,-0.009C0.123,-0.021 0.104,-0.037 0.09,-0.059C0.075,-0.08 0.064,-0.105 0.058,-0.134C0.051,-0.163 0.047,-0.194 0.047,-0.227C0.047,-0.265 0.052,-0.299 0.06,-0.329C0.069,-0.359 0.081,-0.385 0.098,-0.407C0.115,-0.428 0.135,-0.445 0.16,-0.456C0.184,-0.468 0.212,-0.474 0.245,-0.474C0.265,-0.474 0.285,-0.47 0.303,-0.464C0.321,-0.457 0.338,-0.447 0.352,-0.434C0.366,-0.421 0.377,-0.405 0.386,-0.385C0.395,-0.366 0.401,-0.344 0.404,-0.318C0.41,-0.341 0.414,-0.362 0.417,-0.379C0.42,-0.396 0.423,-0.411 0.424,-0.422C0.426,-0.434 0.427,-0.443 0.427,-0.449C0.428,-0.455 0.429,-0.459 0.431,-0.46C0.432,-0.461 0.433,-0.462 0.435,-0.463C0.436,-0.463 0.438,-0.464 0.441,-0.465C0.444,-0.465 0.447,-0.466 0.451,-0.466C0.455,-0.467 0.46,-0.467 0.466,-0.467C0.474,-0.467 0.48,-0.467 0.485,-0.466C0.49,-0.466 0.494,-0.465 0.497,-0.463C0.5,-0.462 0.502,-0.46 0.503,-0.458C0.505,-0.457 0.505,-0.454 0.505,-0.452C0.505,-0.447 0.505,-0.439 0.503,-0.428C0.501,-0.417 0.499,-0.404 0.496,-0.389C0.493,-0.375 0.49,-0.358 0.485,-0.341C0.481,-0.324 0.477,-0.306 0.472,-0.288C0.467,-0.27 0.462,-0.252 0.457,-0.235C0.451,-0.218 0.445,-0.202 0.439,-0.188C0.44,-0.16 0.441,-0.138 0.444,-0.121C0.447,-0.105 0.451,-0.092 0.456,-0.082C0.461,-0.073 0.467,-0.067 0.473,-0.064C0.479,-0.061 0.486,-0.059 0.493,-0.059C0.499,-0.059 0.504,-0.06 0.509,-0.061C0.514,-0.062 0.518,-0.063 0.522,-0.064C0.525,-0.065 0.529,-0.066 0.531,-0.067C0.534,-0.068 0.537,-0.069 0.539,-0.069C0.54,-0.069 0.542,-0.068 0.542,-0.068C0.543,-0.067 0.544,-0.065 0.545,-0.063C0.546,-0.061 0.547,-0.058 0.547,-0.053C0.547,-0.049 0.547,-0.044 0.547,-0.038ZM0.358,-0.235C0.358,-0.265 0.355,-0.292 0.349,-0.313C0.343,-0.335 0.334,-0.353 0.324,-0.367C0.313,-0.381 0.301,-0.391 0.288,-0.397C0.274,-0.404 0.26,-0.407 0.246,-0.407C0.225,-0.407 0.208,-0.402 0.193,-0.392C0.179,-0.382 0.167,-0.369 0.157,-0.353C0.148,-0.337 0.141,-0.319 0.137,-0.298C0.133,-0.278 0.131,-0.257 0.131,-0.235C0.131,-0.212 0.132,-0.19 0.136,-0.169C0.139,-0.147 0.145,-0.128 0.153,-0.112C0.162,-0.096 0.173,-0.082 0.187,-0.073C0.201,-0.063 0.218,-0.058 0.24,-0.058C0.259,-0.058 0.276,-0.062 0.291,-0.071C0.306,-0.08 0.318,-0.092 0.328,-0.108C0.338,-0.123 0.345,-0.142 0.351,-0.163C0.356,-0.185 0.358,-0.208 0.358,-0.233L0.358,-0.235Z" style="fill-rule:nonzero;"/>
                </g>
                <g transform="matrix(14.04,0,0,14.04,147.244,36.0443)">
                    <path d="M0.242,-0.673C0.211,-0.607 0.188,-0.54 0.173,-0.471C0.157,-0.403 0.15,-0.333 0.15,-0.264C0.15,-0.194 0.158,-0.124 0.173,-0.056C0.189,0.013 0.211,0.08 0.241,0.146C0.242,0.15 0.243,0.154 0.243,0.156C0.244,0.159 0.243,0.162 0.24,0.163C0.238,0.165 0.234,0.166 0.23,0.167C0.225,0.168 0.219,0.168 0.21,0.168C0.205,0.168 0.2,0.168 0.195,0.168C0.191,0.168 0.187,0.167 0.184,0.166C0.181,0.165 0.179,0.164 0.177,0.163C0.175,0.161 0.173,0.16 0.172,0.158C0.155,0.125 0.139,0.091 0.126,0.057C0.113,0.023 0.101,-0.011 0.092,-0.046C0.083,-0.082 0.076,-0.117 0.072,-0.153C0.067,-0.189 0.065,-0.225 0.065,-0.262C0.065,-0.299 0.067,-0.335 0.073,-0.371C0.078,-0.407 0.085,-0.442 0.094,-0.478C0.103,-0.513 0.115,-0.548 0.128,-0.582C0.141,-0.616 0.156,-0.65 0.173,-0.684C0.173,-0.685 0.174,-0.686 0.176,-0.687C0.177,-0.688 0.179,-0.689 0.182,-0.69C0.184,-0.691 0.188,-0.692 0.192,-0.692C0.197,-0.693 0.203,-0.693 0.21,-0.693C0.217,-0.693 0.223,-0.692 0.228,-0.691C0.233,-0.69 0.236,-0.689 0.239,-0.688C0.241,-0.686 0.243,-0.684 0.243,-0.681C0.243,-0.679 0.243,-0.676 0.242,-0.673Z" style="fill-rule:nonzero;"/>
                </g>
                <g transform="matrix(14.04,0,0,14.04,151.452,36.0443)">
                    <path d="M0.453,-0.033C0.453,-0.027 0.452,-0.022 0.451,-0.018C0.45,-0.013 0.449,-0.01 0.447,-0.007C0.446,-0.005 0.444,-0.003 0.442,-0.002C0.44,-0.001 0.437,-0 0.435,-0L0.105,-0C0.103,-0 0.101,-0.001 0.099,-0.002C0.097,-0.003 0.095,-0.005 0.093,-0.007C0.091,-0.01 0.09,-0.013 0.089,-0.018C0.088,-0.022 0.087,-0.027 0.087,-0.033C0.087,-0.039 0.088,-0.044 0.089,-0.048C0.09,-0.053 0.091,-0.056 0.093,-0.059C0.094,-0.062 0.096,-0.064 0.098,-0.065C0.1,-0.067 0.102,-0.067 0.105,-0.067L0.237,-0.067L0.237,-0.548L0.115,-0.475C0.109,-0.472 0.104,-0.47 0.1,-0.469C0.096,-0.469 0.093,-0.469 0.091,-0.471C0.089,-0.474 0.087,-0.477 0.086,-0.482C0.085,-0.487 0.085,-0.493 0.085,-0.5C0.085,-0.506 0.085,-0.511 0.086,-0.515C0.086,-0.519 0.087,-0.522 0.088,-0.524C0.089,-0.527 0.09,-0.529 0.092,-0.531C0.094,-0.533 0.096,-0.535 0.099,-0.537L0.245,-0.63C0.246,-0.631 0.248,-0.632 0.25,-0.633C0.251,-0.633 0.254,-0.634 0.257,-0.635C0.26,-0.635 0.263,-0.636 0.267,-0.636C0.271,-0.636 0.276,-0.636 0.282,-0.636C0.29,-0.636 0.296,-0.636 0.301,-0.635C0.306,-0.635 0.311,-0.634 0.313,-0.633C0.316,-0.631 0.318,-0.63 0.319,-0.628C0.32,-0.626 0.321,-0.625 0.321,-0.623L0.321,-0.067L0.435,-0.067C0.438,-0.067 0.44,-0.067 0.442,-0.065C0.445,-0.064 0.447,-0.062 0.448,-0.059C0.449,-0.056 0.451,-0.053 0.451,-0.048C0.452,-0.044 0.453,-0.039 0.453,-0.033Z" style="fill-rule:nonzero;"/>
                </g>
                <g transform="matrix(14.04,0,0,14.04,158.519,36.0443)">
                    <path d="M0.272,-0.247C0.272,-0.234 0.271,-0.225 0.268,-0.22C0.265,-0.215 0.261,-0.213 0.255,-0.213L0.051,-0.213C0.045,-0.213 0.041,-0.215 0.038,-0.22C0.035,-0.226 0.034,-0.234 0.034,-0.247C0.034,-0.259 0.035,-0.268 0.038,-0.272C0.041,-0.277 0.045,-0.28 0.051,-0.28L0.255,-0.28C0.258,-0.28 0.26,-0.279 0.262,-0.278C0.265,-0.277 0.266,-0.275 0.268,-0.273C0.269,-0.27 0.27,-0.266 0.271,-0.262C0.272,-0.258 0.272,-0.253 0.272,-0.247Z" style="fill-rule:nonzero;"/>
                </g>
                <g transform="matrix(14.04,0,0,14.04,162.844,36.0443)">
                    <path d="M0.472,-0.447C0.472,-0.415 0.467,-0.387 0.457,-0.361C0.446,-0.336 0.431,-0.314 0.412,-0.296C0.392,-0.278 0.369,-0.265 0.341,-0.255C0.312,-0.245 0.279,-0.24 0.24,-0.24L0.168,-0.24L0.168,-0.013C0.168,-0.01 0.167,-0.008 0.166,-0.006C0.164,-0.004 0.162,-0.002 0.159,-0.001C0.156,-0 0.152,0.001 0.146,0.002C0.141,0.003 0.134,0.003 0.126,0.003C0.118,0.003 0.111,0.003 0.106,0.002C0.1,0.001 0.096,-0 0.093,-0.001C0.09,-0.002 0.087,-0.004 0.086,-0.006C0.085,-0.008 0.084,-0.01 0.084,-0.013L0.084,-0.596C0.084,-0.609 0.087,-0.618 0.094,-0.624C0.101,-0.629 0.109,-0.632 0.117,-0.632L0.252,-0.632C0.266,-0.632 0.279,-0.631 0.292,-0.63C0.304,-0.629 0.319,-0.627 0.336,-0.623C0.353,-0.619 0.371,-0.612 0.388,-0.602C0.406,-0.592 0.421,-0.579 0.434,-0.564C0.446,-0.549 0.455,-0.532 0.462,-0.512C0.469,-0.492 0.472,-0.471 0.472,-0.447ZM0.384,-0.44C0.384,-0.466 0.379,-0.487 0.369,-0.504C0.36,-0.522 0.348,-0.535 0.334,-0.543C0.32,-0.551 0.305,-0.557 0.29,-0.559C0.275,-0.561 0.26,-0.563 0.246,-0.563L0.168,-0.563L0.168,-0.309L0.244,-0.309C0.269,-0.309 0.29,-0.312 0.307,-0.319C0.324,-0.325 0.338,-0.334 0.349,-0.346C0.361,-0.358 0.369,-0.371 0.375,-0.387C0.381,-0.404 0.384,-0.421 0.384,-0.44Z" style="fill-rule:nonzero;"/>
                </g>
                <g transform="matrix(14.04,0,0,14.04,170.046,36.0443)">
                    <path d="M0.272,-0.247C0.272,-0.234 0.271,-0.225 0.268,-0.22C0.265,-0.215 0.261,-0.213 0.255,-0.213L0.051,-0.213C0.045,-0.213 0.041,-0.215 0.038,-0.22C0.035,-0.226 0.034,-0.234 0.034,-0.247C0.034,-0.259 0.035,-0.268 0.038,-0.272C0.041,-0.277 0.045,-0.28 0.051,-0.28L0.255,-0.28C0.258,-0.28 0.26,-0.279 0.262,-0.278C0.265,-0.277 0.266,-0.275 0.268,-0.273C0.269,-0.27 0.27,-0.266 0.271,-0.262C0.272,-0.258 0.272,-0.253 0.272,-0.247Z" style="fill-rule:nonzero;"/>
                </g>
                <g transform="matrix(14.04,0,0,14.04,174.337,36.0443)">
                    <path d="M0.478,-0.18C0.478,-0.169 0.476,-0.16 0.473,-0.154C0.47,-0.148 0.465,-0.145 0.459,-0.145L0.388,-0.145L0.388,-0.012C0.388,-0.01 0.388,-0.007 0.386,-0.006C0.385,-0.004 0.383,-0.002 0.379,-0.001C0.376,0 0.372,0.001 0.367,0.002C0.361,0.003 0.355,0.003 0.347,0.003C0.339,0.003 0.332,0.003 0.327,0.002C0.322,0.001 0.318,0 0.315,-0.001C0.312,-0.002 0.309,-0.004 0.308,-0.006C0.307,-0.007 0.307,-0.01 0.307,-0.012L0.307,-0.145L0.046,-0.145C0.042,-0.145 0.039,-0.146 0.036,-0.146C0.034,-0.147 0.031,-0.149 0.029,-0.152C0.027,-0.154 0.025,-0.158 0.025,-0.163C0.024,-0.168 0.023,-0.174 0.023,-0.182C0.023,-0.188 0.024,-0.194 0.024,-0.199C0.024,-0.204 0.025,-0.208 0.026,-0.212C0.027,-0.216 0.028,-0.22 0.03,-0.224C0.031,-0.228 0.033,-0.232 0.036,-0.236L0.263,-0.62C0.265,-0.622 0.267,-0.625 0.27,-0.626C0.273,-0.628 0.277,-0.63 0.282,-0.631C0.287,-0.633 0.293,-0.634 0.3,-0.634C0.307,-0.635 0.316,-0.635 0.326,-0.635C0.336,-0.635 0.346,-0.634 0.354,-0.634C0.362,-0.633 0.368,-0.632 0.373,-0.63C0.378,-0.629 0.382,-0.627 0.384,-0.625C0.387,-0.623 0.388,-0.621 0.388,-0.618L0.388,-0.214L0.459,-0.214C0.465,-0.214 0.469,-0.212 0.473,-0.206C0.476,-0.2 0.478,-0.191 0.478,-0.18ZM0.307,-0.561L0.306,-0.561L0.1,-0.214L0.307,-0.214L0.307,-0.561Z" style="fill-rule:nonzero;"/>
                </g>
                <g transform="matrix(14.04,0,0,14.04,181.447,36.0443)">
                    <path d="M0.238,-0.262C0.238,-0.225 0.236,-0.189 0.231,-0.153C0.226,-0.117 0.22,-0.082 0.21,-0.046C0.201,-0.011 0.19,0.023 0.177,0.057C0.164,0.091 0.148,0.125 0.131,0.158C0.13,0.16 0.128,0.161 0.126,0.163C0.125,0.164 0.122,0.165 0.119,0.166C0.116,0.167 0.112,0.168 0.108,0.168C0.104,0.168 0.099,0.168 0.093,0.168C0.084,0.168 0.078,0.168 0.073,0.167C0.068,0.166 0.065,0.165 0.063,0.163C0.061,0.162 0.06,0.159 0.06,0.156C0.06,0.154 0.061,0.15 0.063,0.146C0.092,0.081 0.115,0.013 0.13,-0.055C0.146,-0.124 0.153,-0.194 0.153,-0.264C0.153,-0.333 0.146,-0.403 0.13,-0.471C0.115,-0.54 0.092,-0.607 0.062,-0.673C0.06,-0.676 0.06,-0.679 0.06,-0.681C0.06,-0.684 0.062,-0.686 0.064,-0.688C0.067,-0.689 0.071,-0.69 0.075,-0.691C0.08,-0.692 0.086,-0.693 0.093,-0.693C0.1,-0.693 0.106,-0.693 0.11,-0.692C0.115,-0.692 0.119,-0.691 0.121,-0.69C0.124,-0.689 0.126,-0.688 0.127,-0.687C0.129,-0.686 0.13,-0.685 0.13,-0.684C0.164,-0.617 0.19,-0.548 0.209,-0.478C0.228,-0.407 0.238,-0.335 0.238,-0.262Z" style="fill-rule:nonzero;"/>
                </g>
                <g transform="matrix(14.04,0,0,14.04,208.334,36.0443)">
                    <path d="M0.483,-0.199C0.483,-0.171 0.479,-0.144 0.471,-0.118C0.463,-0.093 0.451,-0.071 0.434,-0.052C0.417,-0.033 0.395,-0.018 0.369,-0.008C0.343,0.003 0.311,0.009 0.275,0.009C0.262,0.009 0.25,0.008 0.238,0.006C0.227,0.004 0.216,0.002 0.205,-0.001C0.195,-0.005 0.186,-0.009 0.177,-0.013C0.168,-0.018 0.16,-0.023 0.152,-0.029C0.153,-0.02 0.154,-0.009 0.155,0.002C0.155,0.013 0.155,0.023 0.155,0.034L0.155,0.162C0.155,0.165 0.155,0.167 0.153,0.169C0.152,0.171 0.15,0.173 0.147,0.174C0.144,0.175 0.14,0.176 0.135,0.177C0.13,0.177 0.123,0.178 0.115,0.178C0.107,0.178 0.1,0.177 0.095,0.177C0.09,0.176 0.086,0.175 0.083,0.174C0.08,0.173 0.078,0.171 0.076,0.169C0.075,0.167 0.075,0.165 0.075,0.162L0.075,-0.475C0.075,-0.508 0.079,-0.538 0.088,-0.564C0.097,-0.59 0.11,-0.611 0.127,-0.629C0.144,-0.647 0.164,-0.66 0.187,-0.67C0.21,-0.679 0.236,-0.684 0.265,-0.684C0.295,-0.684 0.321,-0.68 0.343,-0.671C0.365,-0.662 0.383,-0.65 0.397,-0.634C0.411,-0.619 0.421,-0.602 0.428,-0.582C0.435,-0.563 0.438,-0.542 0.438,-0.521C0.438,-0.486 0.43,-0.456 0.415,-0.43C0.399,-0.405 0.376,-0.386 0.346,-0.374C0.369,-0.371 0.388,-0.364 0.406,-0.354C0.423,-0.344 0.437,-0.331 0.448,-0.315C0.46,-0.299 0.469,-0.281 0.475,-0.261C0.48,-0.241 0.483,-0.221 0.483,-0.199ZM0.397,-0.193C0.397,-0.212 0.395,-0.23 0.39,-0.246C0.386,-0.262 0.378,-0.276 0.368,-0.288C0.358,-0.299 0.345,-0.308 0.328,-0.315C0.312,-0.321 0.292,-0.325 0.269,-0.325L0.227,-0.325C0.221,-0.325 0.217,-0.327 0.214,-0.333C0.211,-0.338 0.21,-0.346 0.21,-0.358C0.21,-0.364 0.21,-0.369 0.211,-0.373C0.212,-0.377 0.213,-0.381 0.214,-0.383C0.216,-0.386 0.217,-0.388 0.219,-0.389C0.221,-0.39 0.223,-0.391 0.226,-0.391L0.236,-0.391C0.257,-0.391 0.276,-0.394 0.291,-0.401C0.306,-0.408 0.318,-0.417 0.328,-0.428C0.337,-0.439 0.344,-0.452 0.348,-0.467C0.352,-0.481 0.354,-0.497 0.354,-0.513C0.354,-0.527 0.353,-0.54 0.35,-0.553C0.346,-0.565 0.341,-0.576 0.334,-0.586C0.326,-0.595 0.317,-0.603 0.305,-0.608C0.293,-0.614 0.278,-0.617 0.261,-0.617C0.243,-0.617 0.228,-0.613 0.214,-0.607C0.201,-0.6 0.19,-0.591 0.181,-0.579C0.173,-0.567 0.166,-0.552 0.162,-0.534C0.157,-0.517 0.155,-0.497 0.155,-0.476L0.155,-0.104C0.173,-0.089 0.192,-0.078 0.212,-0.071C0.232,-0.064 0.251,-0.061 0.271,-0.061C0.293,-0.061 0.312,-0.064 0.328,-0.07C0.344,-0.076 0.358,-0.085 0.368,-0.097C0.378,-0.108 0.385,-0.122 0.39,-0.138C0.395,-0.155 0.397,-0.173 0.397,-0.193Z" style="fill-rule:nonzero;"/>
                </g>
                <g transform="matrix(14.04,0,0,14.04,215.759,36.0443)">
                    <path d="M0.453,-0.033C0.453,-0.027 0.452,-0.022 0.451,-0.018C0.45,-0.013 0.449,-0.01 0.447,-0.007C0.446,-0.005 0.444,-0.003 0.442,-0.002C0.44,-0.001 0.437,-0 0.435,-0L0.105,-0C0.103,-0 0.101,-0.001 0.099,-0.002C0.097,-0.003 0.095,-0.005 0.093,-0.007C0.091,-0.01 0.09,-0.013 0.089,-0.018C0.088,-0.022 0.087,-0.027 0.087,-0.033C0.087,-0.039 0.088,-0.044 0.089,-0.048C0.09,-0.053 0.091,-0.056 0.093,-0.059C0.094,-0.062 0.096,-0.064 0.098,-0.065C0.1,-0.067 0.102,-0.067 0.105,-0.067L0.237,-0.067L0.237,-0.548L0.115,-0.475C0.109,-0.472 0.104,-0.47 0.1,-0.469C0.096,-0.469 0.093,-0.469 0.091,-0.471C0.089,-0.474 0.087,-0.477 0.086,-0.482C0.085,-0.487 0.085,-0.493 0.085,-0.5C0.085,-0.506 0.085,-0.511 0.086,-0.515C0.086,-0.519 0.087,-0.522 0.088,-0.524C0.089,-0.527 0.09,-0.529 0.092,-0.531C0.094,-0.533 0.096,-0.535 0.099,-0.537L0.245,-0.63C0.246,-0.631 0.248,-0.632 0.25,-0.633C0.251,-0.633 0.254,-0.634 0.257,-0.635C0.26,-0.635 0.263,-0.636 0.267,-0.636C0.271,-0.636 0.276,-0.636 0.282,-0.636C0.29,-0.636 0.296,-0.636 0.301,-0.635C0.306,-0.635 0.311,-0.634 0.313,-0.633C0.316,-0.631 0.318,-0.63 0.319,-0.628C0.32,-0.626 0.321,-0.625 0.321,-0.623L0.321,-0.067L0.435,-0.067C0.438,-0.067 0.44,-0.067 0.442,-0.065C0.445,-0.064 0.447,-0.062 0.448,-0.059C0.449,-0.056 0.451,-0.053 0.451,-0.048C0.452,-0.044 0.453,-0.039 0.453,-0.033Z" style="fill-rule:nonzero;"/>
                </g>
                <g transform="matrix(14.04,0,0,14.04,222.84,36.0443)">
                    <path d="M0.272,-0.247C0.272,-0.234 0.271,-0.225 0.268,-0.22C0.265,-0.215 0.261,-0.213 0.255,-0.213L0.051,-0.213C0.045,-0.213 0.041,-0.215 0.038,-0.22C0.035,-0.226 0.034,-0.234 0.034,-0.247C0.034,-0.259 0.035,-0.268 0.038,-0.272C0.041,-0.277 0.045,-0.28 0.051,-0.28L0.255,-0.28C0.258,-0.28 0.26,-0.279 0.262,-0.278C0.265,-0.277 0.266,-0.275 0.268,-0.273C0.269,-0.27 0.27,-0.266 0.271,-0.262C0.272,-0.258 0.272,-0.253 0.272,-0.247Z" style="fill-rule:nonzero;"/>
                </g>
                <g transform="matrix(14.04,0,0,14.04,227.165,36.0443)">
                    <path d="M0.478,-0.18C0.478,-0.169 0.476,-0.16 0.473,-0.154C0.47,-0.148 0.465,-0.145 0.459,-0.145L0.388,-0.145L0.388,-0.012C0.388,-0.01 0.388,-0.007 0.386,-0.006C0.385,-0.004 0.383,-0.002 0.379,-0.001C0.376,0 0.372,0.001 0.367,0.002C0.361,0.003 0.355,0.003 0.347,0.003C0.339,0.003 0.332,0.003 0.327,0.002C0.322,0.001 0.318,0 0.315,-0.001C0.312,-0.002 0.309,-0.004 0.308,-0.006C0.307,-0.007 0.307,-0.01 0.307,-0.012L0.307,-0.145L0.046,-0.145C0.042,-0.145 0.039,-0.146 0.036,-0.146C0.034,-0.147 0.031,-0.149 0.029,-0.152C0.027,-0.154 0.025,-0.158 0.025,-0.163C0.024,-0.168 0.023,-0.174 0.023,-0.182C0.023,-0.188 0.024,-0.194 0.024,-0.199C0.024,-0.204 0.025,-0.208 0.026,-0.212C0.027,-0.216 0.028,-0.22 0.03,-0.224C0.031,-0.228 0.033,-0.232 0.036,-0.236L0.263,-0.62C0.265,-0.622 0.267,-0.625 0.27,-0.626C0.273,-0.628 0.277,-0.63 0.282,-0.631C0.287,-0.633 0.293,-0.634 0.3,-0.634C0.307,-0.635 0.316,-0.635 0.326,-0.635C0.336,-0.635 0.346,-0.634 0.354,-0.634C0.362,-0.633 0.368,-0.632 0.373,-0.63C0.378,-0.629 0.382,-0.627 0.384,-0.625C0.387,-0.623 0.388,-0.621 0.388,-0.618L0.388,-0.214L0.459,-0.214C0.465,-0.214 0.469,-0.212 0.473,-0.206C0.476,-0.2 0.478,-0.191 0.478,-0.18ZM0.307,-0.561L0.306,-0.561L0.1,-0.214L0.307,-0.214L0.307,-0.561Z" style="fill-rule:nonzero;"/>
                </g>
                <g transform="matrix(14.04,0,0,14.04,119.792,36.0443)">
                    <path d="M0.451,-0.036C0.451,-0.03 0.451,-0.025 0.45,-0.021C0.449,-0.016 0.448,-0.012 0.447,-0.009C0.445,-0.006 0.443,-0.004 0.441,-0.002C0.438,-0.001 0.436,-0 0.433,-0L0.083,-0C0.079,-0 0.075,-0.001 0.072,-0.002C0.068,-0.003 0.065,-0.005 0.063,-0.007C0.06,-0.01 0.059,-0.014 0.057,-0.019C0.056,-0.023 0.056,-0.029 0.056,-0.037C0.056,-0.043 0.056,-0.049 0.056,-0.054C0.057,-0.059 0.058,-0.063 0.06,-0.067C0.061,-0.07 0.063,-0.074 0.066,-0.078C0.068,-0.082 0.071,-0.086 0.075,-0.09L0.198,-0.22C0.226,-0.25 0.249,-0.277 0.266,-0.3C0.283,-0.324 0.296,-0.346 0.305,-0.365C0.315,-0.385 0.321,-0.403 0.324,-0.418C0.327,-0.434 0.328,-0.449 0.328,-0.463C0.328,-0.477 0.326,-0.491 0.321,-0.503C0.317,-0.516 0.31,-0.527 0.302,-0.536C0.293,-0.546 0.282,-0.553 0.269,-0.559C0.256,-0.564 0.241,-0.567 0.224,-0.567C0.204,-0.567 0.186,-0.564 0.171,-0.559C0.155,-0.553 0.141,-0.547 0.129,-0.541C0.117,-0.534 0.107,-0.528 0.099,-0.522C0.091,-0.517 0.085,-0.514 0.082,-0.514C0.079,-0.514 0.077,-0.515 0.075,-0.516C0.074,-0.517 0.072,-0.52 0.071,-0.522C0.07,-0.525 0.069,-0.529 0.068,-0.534C0.068,-0.539 0.067,-0.545 0.067,-0.552C0.067,-0.557 0.068,-0.561 0.068,-0.564C0.068,-0.568 0.069,-0.571 0.07,-0.574C0.07,-0.576 0.071,-0.579 0.073,-0.581C0.074,-0.583 0.077,-0.586 0.081,-0.59C0.084,-0.593 0.091,-0.598 0.101,-0.604C0.11,-0.609 0.122,-0.615 0.137,-0.621C0.151,-0.627 0.167,-0.631 0.185,-0.635C0.202,-0.639 0.221,-0.641 0.24,-0.641C0.27,-0.641 0.297,-0.637 0.32,-0.628C0.343,-0.62 0.362,-0.608 0.377,-0.593C0.392,-0.578 0.404,-0.56 0.411,-0.541C0.419,-0.521 0.422,-0.5 0.422,-0.477C0.422,-0.457 0.421,-0.437 0.417,-0.417C0.413,-0.397 0.406,-0.375 0.394,-0.352C0.383,-0.329 0.366,-0.303 0.344,-0.274C0.322,-0.246 0.293,-0.213 0.257,-0.176L0.157,-0.071L0.432,-0.071C0.435,-0.071 0.437,-0.071 0.44,-0.069C0.442,-0.068 0.444,-0.065 0.446,-0.063C0.448,-0.06 0.449,-0.056 0.45,-0.052C0.451,-0.047 0.451,-0.042 0.451,-0.036Z" style="fill-rule:nonzero;"/>
                </g>
                <g transform="matrix(14.04,0,0,14.04,257.023,36.0443)">
                    <path d="M0.547,-0.038C0.547,-0.028 0.547,-0.02 0.546,-0.015C0.545,-0.01 0.543,-0.007 0.541,-0.005C0.539,-0.003 0.536,-0.001 0.532,0C0.528,0.002 0.523,0.003 0.517,0.005C0.511,0.006 0.505,0.007 0.5,0.008C0.494,0.008 0.487,0.009 0.481,0.009C0.469,0.009 0.457,0.007 0.446,0.004C0.434,0.001 0.424,-0.004 0.415,-0.011C0.406,-0.018 0.399,-0.028 0.393,-0.04C0.386,-0.052 0.382,-0.068 0.38,-0.087C0.374,-0.073 0.366,-0.06 0.356,-0.048C0.347,-0.037 0.335,-0.026 0.323,-0.018C0.31,-0.009 0.295,-0.003 0.28,0.002C0.264,0.007 0.247,0.009 0.229,0.009C0.197,0.009 0.169,0.003 0.146,-0.009C0.123,-0.021 0.104,-0.037 0.09,-0.059C0.075,-0.08 0.064,-0.105 0.058,-0.134C0.051,-0.163 0.047,-0.194 0.047,-0.227C0.047,-0.265 0.052,-0.299 0.06,-0.329C0.069,-0.359 0.081,-0.385 0.098,-0.407C0.115,-0.428 0.135,-0.445 0.16,-0.456C0.184,-0.468 0.212,-0.474 0.245,-0.474C0.265,-0.474 0.285,-0.47 0.303,-0.464C0.321,-0.457 0.338,-0.447 0.352,-0.434C0.366,-0.421 0.377,-0.405 0.386,-0.385C0.395,-0.366 0.401,-0.344 0.404,-0.318C0.41,-0.341 0.414,-0.362 0.417,-0.379C0.42,-0.396 0.423,-0.411 0.424,-0.422C0.426,-0.434 0.427,-0.443 0.427,-0.449C0.428,-0.455 0.429,-0.459 0.431,-0.46C0.432,-0.461 0.433,-0.462 0.435,-0.463C0.436,-0.463 0.438,-0.464 0.441,-0.465C0.444,-0.465 0.447,-0.466 0.451,-0.466C0.455,-0.467 0.46,-0.467 0.466,-0.467C0.474,-0.467 0.48,-0.467 0.485,-0.466C0.49,-0.466 0.494,-0.465 0.497,-0.463C0.5,-0.462 0.502,-0.46 0.503,-0.458C0.505,-0.457 0.505,-0.454 0.505,-0.452C0.505,-0.447 0.505,-0.439 0.503,-0.428C0.501,-0.417 0.499,-0.404 0.496,-0.389C0.493,-0.375 0.49,-0.358 0.485,-0.341C0.481,-0.324 0.477,-0.306 0.472,-0.288C0.467,-0.27 0.462,-0.252 0.457,-0.235C0.451,-0.218 0.445,-0.202 0.439,-0.188C0.44,-0.16 0.441,-0.138 0.444,-0.121C0.447,-0.105 0.451,-0.092 0.456,-0.082C0.461,-0.073 0.467,-0.067 0.473,-0.064C0.479,-0.061 0.486,-0.059 0.493,-0.059C0.499,-0.059 0.504,-0.06 0.509,-0.061C0.514,-0.062 0.518,-0.063 0.522,-0.064C0.525,-0.065 0.529,-0.066 0.531,-0.067C0.534,-0.068 0.537,-0.069 0.539,-0.069C0.54,-0.069 0.542,-0.068 0.542,-0.068C0.543,-0.067 0.544,-0.065 0.545,-0.063C0.546,-0.061 0.547,-0.058 0.547,-0.053C0.547,-0.049 0.547,-0.044 0.547,-0.038ZM0.358,-0.235C0.358,-0.265 0.355,-0.292 0.349,-0.313C0.343,-0.335 0.334,-0.353 0.324,-0.367C0.313,-0.381 0.301,-0.391 0.288,-0.397C0.274,-0.404 0.26,-0.407 0.246,-0.407C0.225,-0.407 0.208,-0.402 0.193,-0.392C0.179,-0.382 0.167,-0.369 0.157,-0.353C0.148,-0.337 0.141,-0.319 0.137,-0.298C0.133,-0.278 0.131,-0.257 0.131,-0.235C0.131,-0.212 0.132,-0.19 0.136,-0.169C0.139,-0.147 0.145,-0.128 0.153,-0.112C0.162,-0.096 0.173,-0.082 0.187,-0.073C0.201,-0.063 0.218,-0.058 0.24,-0.058C0.259,-0.058 0.276,-0.062 0.291,-0.071C0.306,-0.08 0.318,-0.092 0.328,-0.108C0.338,-0.123 0.345,-0.142 0.351,-0.163C0.356,-0.185 0.358,-0.208 0.358,-0.233L0.358,-0.235Z" style="fill-rule:nonzero;"/>
                </g>
                <g transform="matrix(14.04,0,0,14.04,264.945,36.0443)">
                    <path d="M0.453,-0.033C0.453,-0.027 0.452,-0.022 0.451,-0.018C0.45,-0.013 0.449,-0.01 0.447,-0.007C0.446,-0.005 0.444,-0.003 0.442,-0.002C0.44,-0.001 0.437,-0 0.435,-0L0.105,-0C0.103,-0 0.101,-0.001 0.099,-0.002C0.097,-0.003 0.095,-0.005 0.093,-0.007C0.091,-0.01 0.09,-0.013 0.089,-0.018C0.088,-0.022 0.087,-0.027 0.087,-0.033C0.087,-0.039 0.088,-0.044 0.089,-0.048C0.09,-0.053 0.091,-0.056 0.093,-0.059C0.094,-0.062 0.096,-0.064 0.098,-0.065C0.1,-0.067 0.102,-0.067 0.105,-0.067L0.237,-0.067L0.237,-0.548L0.115,-0.475C0.109,-0.472 0.104,-0.47 0.1,-0.469C0.096,-0.469 0.093,-0.469 0.091,-0.471C0.089,-0.474 0.087,-0.477 0.086,-0.482C0.085,-0.487 0.085,-0.493 0.085,-0.5C0.085,-0.506 0.085,-0.511 0.086,-0.515C0.086,-0.519 0.087,-0.522 0.088,-0.524C0.089,-0.527 0.09,-0.529 0.092,-0.531C0.094,-0.533 0.096,-0.535 0.099,-0.537L0.245,-0.63C0.246,-0.631 0.248,-0.632 0.25,-0.633C0.251,-0.633 0.254,-0.634 0.257,-0.635C0.26,-0.635 0.263,-0.636 0.267,-0.636C0.271,-0.636 0.276,-0.636 0.282,-0.636C0.29,-0.636 0.296,-0.636 0.301,-0.635C0.306,-0.635 0.311,-0.634 0.313,-0.633C0.316,-0.631 0.318,-0.63 0.319,-0.628C0.32,-0.626 0.321,-0.625 0.321,-0.623L0.321,-0.067L0.435,-0.067C0.438,-0.067 0.44,-0.067 0.442,-0.065C0.445,-0.064 0.447,-0.062 0.448,-0.059C0.449,-0.056 0.451,-0.053 0.451,-0.048C0.452,-0.044 0.453,-0.039 0.453,-0.033Z" style="fill-rule:nonzero;"/>
                </g>
                <g transform="matrix(14.04,0,0,14.04,272.018,36.0443)">
                    <path d="M0.272,-0.247C0.272,-0.234 0.271,-0.225 0.268,-0.22C0.265,-0.215 0.261,-0.213 0.255,-0.213L0.051,-0.213C0.045,-0.213 0.041,-0.215 0.038,-0.22C0.035,-0.226 0.034,-0.234 0.034,-0.247C0.034,-0.259 0.035,-0.268 0.038,-0.272C0.041,-0.277 0.045,-0.28 0.051,-0.28L0.255,-0.28C0.258,-0.28 0.26,-0.279 0.262,-0.278C0.265,-0.277 0.266,-0.275 0.268,-0.273C0.269,-0.27 0.27,-0.266 0.271,-0.262C0.272,-0.258 0.272,-0.253 0.272,-0.247Z" style="fill-rule:nonzero;"/>
                </g>
                <g transform="matrix(1,0,0,1,126.741,30.886)">
                    <path d="M0,18L9,0L18,18L0,18Z" style="fill:rgb(0,176,80);stroke:black;stroke-width:1px;stroke-linejoin:miter;stroke-miterlimit:8;"/>
                </g>
                <g transform="matrix(1,0,0,1,0,-640.228)">
                    <rect x="186.125" y="671.114" width="18" height="18" style="fill:rgb(0,176,80);stroke:black;stroke-width:0.75px;"/>
                </g>
            </g>
        </g>
    </g>
</svg>
