<?xml version="1.0" encoding="UTF-8" standalone="no"?>
<!DOCTYPE svg PUBLIC "-//W3C//DTD SVG 1.1//EN" "http://www.w3.org/Graphics/SVG/1.1/DTD/svg11.dtd">
<svg width="100%" height="100%" viewBox="0 0 1502 895" version="1.1" xmlns="http://www.w3.org/2000/svg" xmlns:xlink="http://www.w3.org/1999/xlink" xml:space="preserve" xmlns:serif="http://www.serif.com/" style="fill-rule:evenodd;clip-rule:evenodd;">
    <g transform="matrix(1,0,0,1,-3507.3,-41.3749)">
        <g transform="matrix(17.4811,0,0,17.4811,3629.68,515.152)">
            <g transform="matrix(1,0,0,1,0.88,0)">
                <path d="M-0.015,11L75.945,11" style="fill:none;fill-rule:nonzero;stroke:rgb(17,17,17);stroke-width:1px;"/>
            </g>
        </g>
        <g transform="matrix(17.4811,0,0,17.4811,3629.68,515.152)">
            <g transform="matrix(1,0,0,1,0.88,0)">
                <path d="M-0.015,22L-0.015,0L0.645,11L-0.015,22Z" style="fill:rgb(187,187,187);fill-rule:nonzero;stroke:black;stroke-width:1px;"/>
            </g>
        </g>
        <g transform="matrix(17.4811,0,0,17.4811,3629.68,515.152)">
            <g transform="matrix(0.707107,-0.707107,0.707107,0.707107,-2.20661,-5.39411)">
                <text x="0px" y="0px" style="font-family:'HelveticaNeue', 'Helvetica Neue';font-size:10px;">dexB</text>
            </g>
        </g>
        <g transform="matrix(17.4811,0,0,17.4811,3629.68,515.152)">
            <g transform="matrix(1,0,0,1,0.88,0)">
                <path d="M24.06,5L14.595,5L14.595,0L2.595,11L14.595,22L14.595,17L24.06,17L24.06,5Z" style="fill:rgb(187,187,187);fill-rule:nonzero;stroke:black;stroke-width:1px;"/>
            </g>
        </g>
        <g transform="matrix(17.4811,0,0,17.4811,3629.68,515.152)">
            <g transform="matrix(0.707107,-0.707107,0.707107,0.707107,10.8059,-5.39411)">
                <text x="0px" y="0px" style="font-family:'HelveticaNeue', 'Helvetica Neue';font-size:10px;">tnp</text>
            </g>
        </g>
        <g transform="matrix(17.4811,0,0,17.4811,3629.68,515.152)">
            <g transform="matrix(1,0,0,1,0.88,0)">
                <path d="M26.79,5L39.495,5L39.495,0L51.495,11L39.495,22L39.495,17L26.79,17L26.79,5Z" style="fill:rgb(187,187,187);fill-rule:nonzero;stroke:black;stroke-width:1px;"/>
            </g>
        </g>
        <g transform="matrix(17.4811,0,0,17.4811,3629.68,515.152)">
            <g transform="matrix(0.707107,-0.707107,0.707107,0.707107,36.6209,-5.39411)">
                <text x="0px" y="0px" style="font-family:'HelveticaNeue', 'Helvetica Neue';font-size:10px;">pspK</text>
            </g>
        </g>
        <g transform="matrix(17.4811,0,0,17.4811,3629.68,515.152)">
            <g transform="matrix(1,0,0,1,0.88,0)">
                <path d="M55.635,5L63.945,5L63.945,0L75.945,11L63.945,22L63.945,17L55.635,17L55.635,5Z" style="fill-rule:nonzero;stroke:black;stroke-width:1px;"/>
            </g>
        </g>
        <g transform="matrix(17.4811,0,0,17.4811,3629.68,515.152)">
            <g transform="matrix(0.707107,-0.707107,0.707107,0.707107,63.2684,-5.39411)">
                <text x="0px" y="0px" style="font-family:'HelveticaNeue', 'Helvetica Neue';font-size:10px;">aliA</text>
            </g>
        </g>
    </g>
</svg>
