<?xml version="1.0" encoding="UTF-8" standalone="no"?>
<!DOCTYPE svg PUBLIC "-//W3C//DTD SVG 1.1//EN" "http://www.w3.org/Graphics/SVG/1.1/DTD/svg11.dtd">
<svg width="100%" height="100%" viewBox="0 0 1777 236" version="1.1" xmlns="http://www.w3.org/2000/svg" xmlns:xlink="http://www.w3.org/1999/xlink" xml:space="preserve" xmlns:serif="http://www.serif.com/" style="fill-rule:evenodd;clip-rule:evenodd;">
    <path d="M29.055,180.621L1753.5,180.621" style="fill:none;fill-rule:nonzero;stroke:rgb(17,17,17);stroke-width:4.17px;"/>
    <path d="M29.055,226.454L29.055,134.788L39.243,180.621L29.055,226.454Z" style="fill-rule:nonzero;stroke:black;stroke-width:4.17px;"/>
    <g transform="matrix(0.707107,-0.707107,0.707107,0.707107,19.9759,112.312)">
        <g transform="matrix(41.667,0,0,41.667,0,0)">
            <path d="M0.126,-0.254C0.126,-0.279 0.129,-0.304 0.134,-0.328C0.139,-0.352 0.148,-0.373 0.16,-0.392C0.172,-0.411 0.188,-0.426 0.208,-0.437C0.228,-0.448 0.252,-0.454 0.281,-0.454C0.31,-0.454 0.335,-0.448 0.356,-0.438C0.377,-0.427 0.394,-0.412 0.407,-0.394C0.42,-0.376 0.429,-0.355 0.435,-0.332C0.441,-0.308 0.444,-0.283 0.444,-0.258C0.444,-0.234 0.441,-0.21 0.436,-0.187C0.43,-0.164 0.421,-0.143 0.408,-0.125C0.395,-0.106 0.379,-0.091 0.359,-0.08C0.339,-0.069 0.315,-0.063 0.286,-0.063C0.259,-0.063 0.235,-0.068 0.215,-0.079C0.194,-0.09 0.178,-0.104 0.165,-0.122C0.152,-0.14 0.142,-0.161 0.136,-0.184C0.129,-0.206 0.126,-0.23 0.126,-0.254ZM0.526,-0L0.526,-0.714L0.441,-0.714L0.441,-0.448L0.439,-0.448C0.43,-0.463 0.418,-0.476 0.405,-0.487C0.391,-0.497 0.376,-0.505 0.361,-0.512C0.346,-0.518 0.33,-0.522 0.315,-0.525C0.3,-0.528 0.285,-0.529 0.272,-0.529C0.233,-0.529 0.198,-0.522 0.169,-0.508C0.139,-0.493 0.114,-0.474 0.095,-0.45C0.075,-0.425 0.06,-0.397 0.051,-0.364C0.041,-0.331 0.036,-0.297 0.036,-0.26C0.036,-0.223 0.041,-0.189 0.051,-0.156C0.061,-0.123 0.076,-0.095 0.096,-0.07C0.115,-0.045 0.14,-0.026 0.17,-0.011C0.199,0.004 0.234,0.011 0.274,0.011C0.31,0.011 0.343,0.005 0.373,-0.008C0.403,-0.021 0.425,-0.041 0.439,-0.07L0.441,-0.07L0.441,-0L0.526,-0Z" style="fill-rule:nonzero;"/>
        </g>
        <g transform="matrix(41.667,0,0,41.667,24.7085,0)">
            <path d="M0.423,-0.308L0.126,-0.308C0.127,-0.328 0.132,-0.347 0.139,-0.365C0.146,-0.382 0.156,-0.398 0.169,-0.411C0.182,-0.424 0.197,-0.435 0.215,-0.443C0.232,-0.45 0.252,-0.454 0.274,-0.454C0.295,-0.454 0.315,-0.45 0.333,-0.443C0.35,-0.435 0.366,-0.425 0.379,-0.412C0.392,-0.399 0.402,-0.383 0.41,-0.365C0.417,-0.347 0.422,-0.328 0.423,-0.308ZM0.505,-0.164L0.421,-0.164C0.414,-0.13 0.399,-0.105 0.376,-0.088C0.353,-0.071 0.323,-0.063 0.287,-0.063C0.259,-0.063 0.235,-0.068 0.214,-0.077C0.193,-0.086 0.176,-0.099 0.163,-0.115C0.15,-0.13 0.14,-0.148 0.134,-0.169C0.128,-0.189 0.125,-0.21 0.126,-0.233L0.513,-0.233C0.514,-0.264 0.511,-0.297 0.505,-0.332C0.498,-0.367 0.485,-0.399 0.467,-0.428C0.448,-0.457 0.424,-0.482 0.394,-0.501C0.363,-0.52 0.325,-0.529 0.279,-0.529C0.244,-0.529 0.211,-0.522 0.182,-0.509C0.152,-0.496 0.126,-0.477 0.105,-0.453C0.083,-0.429 0.066,-0.401 0.054,-0.368C0.042,-0.335 0.036,-0.299 0.036,-0.26C0.037,-0.221 0.043,-0.184 0.054,-0.151C0.064,-0.118 0.079,-0.089 0.1,-0.065C0.121,-0.041 0.146,-0.022 0.177,-0.009C0.207,0.004 0.243,0.011 0.284,0.011C0.343,0.011 0.391,-0.004 0.43,-0.033C0.469,-0.062 0.494,-0.106 0.505,-0.164Z" style="fill-rule:nonzero;"/>
        </g>
        <g transform="matrix(41.667,0,0,41.667,47.0837,0)">
            <path d="M0.203,-0.272L0.009,-0L0.112,-0L0.256,-0.214L0.4,-0L0.509,-0L0.309,-0.279L0.487,-0.517L0.385,-0.517L0.256,-0.336L0.132,-0.517L0.023,-0.517L0.203,-0.272Z" style="fill-rule:nonzero;"/>
        </g>
        <g transform="matrix(41.667,0,0,41.667,68.6672,0)">
            <path d="M0.173,-0.407L0.173,-0.634L0.363,-0.634C0.384,-0.634 0.403,-0.633 0.422,-0.631C0.44,-0.628 0.456,-0.623 0.47,-0.615C0.484,-0.607 0.495,-0.596 0.503,-0.581C0.511,-0.566 0.515,-0.546 0.515,-0.521C0.515,-0.483 0.503,-0.455 0.48,-0.436C0.456,-0.417 0.417,-0.407 0.363,-0.407L0.173,-0.407ZM0.078,-0.714L0.078,-0L0.423,-0C0.458,-0 0.49,-0.006 0.517,-0.018C0.544,-0.029 0.566,-0.045 0.585,-0.064C0.603,-0.083 0.617,-0.104 0.626,-0.129C0.635,-0.154 0.64,-0.179 0.64,-0.205C0.64,-0.249 0.628,-0.286 0.605,-0.317C0.582,-0.348 0.548,-0.368 0.504,-0.377L0.504,-0.379C0.538,-0.392 0.564,-0.413 0.583,-0.441C0.601,-0.468 0.61,-0.501 0.61,-0.539C0.61,-0.575 0.602,-0.605 0.586,-0.63C0.569,-0.655 0.549,-0.674 0.526,-0.688C0.515,-0.695 0.503,-0.7 0.488,-0.703C0.472,-0.706 0.456,-0.709 0.439,-0.711C0.422,-0.712 0.404,-0.713 0.387,-0.714C0.369,-0.714 0.352,-0.714 0.337,-0.714L0.078,-0.714ZM0.173,-0.08L0.173,-0.327L0.39,-0.327C0.41,-0.327 0.429,-0.325 0.448,-0.322C0.467,-0.318 0.483,-0.312 0.498,-0.303C0.512,-0.294 0.523,-0.281 0.532,-0.266C0.541,-0.251 0.545,-0.231 0.545,-0.208C0.545,-0.168 0.533,-0.137 0.51,-0.114C0.486,-0.091 0.453,-0.08 0.411,-0.08L0.173,-0.08Z" style="fill-rule:nonzero;"/>
        </g>
    </g>
    <path d="M49.118,226.454L49.118,134.788L59.68,180.621L49.118,226.454Z" style="fill:rgb(243,207,198);fill-rule:nonzero;stroke:black;stroke-width:4.17px;"/>
    <path d="M113.743,155.621L109.493,155.621L109.493,134.788L59.493,180.621L109.493,226.454L109.493,205.621L113.743,205.621L113.743,155.621Z" style="fill:rgb(243,207,198);fill-rule:nonzero;stroke:black;stroke-width:4.17px;"/>
    <g transform="matrix(0.707107,-0.707107,0.707107,0.707107,72.4448,112.312)">
        <g transform="matrix(41.667,0,0,41.667,0,0)">
            <path d="M0.182,-0.517L0.182,-0.672L0.097,-0.672L0.097,-0.517L0.009,-0.517L0.009,-0.442L0.097,-0.442L0.097,-0.113C0.097,-0.089 0.099,-0.07 0.104,-0.055C0.109,-0.04 0.116,-0.029 0.126,-0.021C0.135,-0.013 0.148,-0.008 0.164,-0.005C0.179,-0.002 0.198,-0 0.22,-0L0.285,-0L0.285,-0.075L0.246,-0.075C0.233,-0.075 0.222,-0.076 0.214,-0.077C0.205,-0.078 0.199,-0.08 0.194,-0.083C0.189,-0.086 0.186,-0.091 0.185,-0.097C0.183,-0.103 0.182,-0.111 0.182,-0.121L0.182,-0.442L0.285,-0.442L0.285,-0.517L0.182,-0.517Z" style="fill-rule:nonzero;"/>
        </g>
        <g transform="matrix(41.667,0,0,41.667,13.1251,0)">
            <path d="M0.064,-0.517L0.064,-0L0.149,-0L0.149,-0.292C0.149,-0.315 0.152,-0.337 0.159,-0.357C0.165,-0.376 0.174,-0.393 0.187,-0.408C0.2,-0.423 0.216,-0.434 0.235,-0.442C0.254,-0.45 0.276,-0.454 0.302,-0.454C0.335,-0.454 0.36,-0.445 0.379,-0.426C0.398,-0.407 0.407,-0.382 0.407,-0.35L0.407,-0L0.492,-0L0.492,-0.34C0.492,-0.368 0.489,-0.393 0.484,-0.417C0.478,-0.44 0.468,-0.459 0.454,-0.476C0.44,-0.493 0.422,-0.506 0.399,-0.515C0.376,-0.524 0.348,-0.529 0.314,-0.529C0.237,-0.529 0.181,-0.498 0.146,-0.435L0.144,-0.435L0.144,-0.517L0.064,-0.517Z" style="fill-rule:nonzero;"/>
        </g>
        <g transform="matrix(41.667,0,0,41.667,36.292,0)">
            <path d="M0.067,-0.517L0.067,0.197L0.152,0.197L0.152,-0.069L0.154,-0.069C0.163,-0.054 0.175,-0.041 0.189,-0.031C0.202,-0.02 0.217,-0.012 0.232,-0.006C0.247,0 0.263,0.004 0.279,0.007C0.294,0.01 0.308,0.011 0.321,0.011C0.36,0.011 0.395,0.004 0.425,-0.01C0.454,-0.024 0.479,-0.043 0.499,-0.068C0.518,-0.092 0.533,-0.12 0.543,-0.153C0.552,-0.186 0.557,-0.22 0.557,-0.257C0.557,-0.294 0.552,-0.328 0.542,-0.361C0.532,-0.394 0.517,-0.423 0.498,-0.448C0.478,-0.472 0.453,-0.492 0.424,-0.507C0.394,-0.522 0.359,-0.529 0.319,-0.529C0.283,-0.529 0.25,-0.523 0.22,-0.51C0.19,-0.497 0.168,-0.476 0.154,-0.447L0.152,-0.447L0.152,-0.517L0.067,-0.517ZM0.467,-0.263C0.467,-0.238 0.464,-0.213 0.459,-0.189C0.454,-0.165 0.445,-0.144 0.433,-0.125C0.421,-0.106 0.405,-0.091 0.386,-0.08C0.366,-0.069 0.341,-0.063 0.312,-0.063C0.283,-0.063 0.258,-0.069 0.237,-0.08C0.216,-0.091 0.2,-0.105 0.187,-0.123C0.173,-0.141 0.164,-0.162 0.158,-0.186C0.152,-0.209 0.149,-0.234 0.149,-0.259C0.149,-0.283 0.152,-0.307 0.158,-0.33C0.163,-0.353 0.172,-0.374 0.185,-0.393C0.198,-0.411 0.214,-0.426 0.234,-0.437C0.254,-0.448 0.278,-0.454 0.307,-0.454C0.334,-0.454 0.358,-0.449 0.379,-0.438C0.399,-0.427 0.416,-0.413 0.429,-0.395C0.442,-0.377 0.451,-0.357 0.458,-0.334C0.464,-0.311 0.467,-0.287 0.467,-0.263Z" style="fill-rule:nonzero;"/>
        </g>
    </g>
    <path d="M127.805,155.621L168.743,155.621L168.743,134.788L218.743,180.621L168.743,226.454L168.743,205.621L127.805,205.621L127.805,155.621Z" style="fill:rgb(0,0,255);fill-rule:nonzero;stroke:black;stroke-width:4.17px;"/>
    <g transform="matrix(0.707107,-0.707107,0.707107,0.707107,159.101,112.312)">
        <g transform="matrix(41.667,0,0,41.667,0,0)">
            <path d="M0.576,-0L0.741,-0.517L0.653,-0.517L0.537,-0.094L0.535,-0.094L0.427,-0.517L0.334,-0.517L0.23,-0.094L0.228,-0.094L0.111,-0.517L0.017,-0.517L0.183,-0L0.275,-0L0.379,-0.411L0.381,-0.411L0.486,-0L0.576,-0Z" style="fill-rule:nonzero;"/>
        </g>
        <g transform="matrix(41.667,0,0,41.667,31.5836,0)">
            <path d="M0.022,-0.065L0.022,-0L0.458,-0L0.458,-0.075L0.128,-0.075L0.444,-0.459L0.444,-0.517L0.042,-0.517L0.042,-0.442L0.334,-0.442L0.022,-0.065Z" style="fill-rule:nonzero;"/>
        </g>
        <g transform="matrix(41.667,0,0,41.667,51.5837,0)">
            <path d="M0.51,-0.044L0.51,-0.517L0.43,-0.517L0.43,-0.443L0.429,-0.443C0.414,-0.472 0.392,-0.493 0.365,-0.508C0.338,-0.522 0.308,-0.529 0.275,-0.529C0.23,-0.529 0.193,-0.521 0.162,-0.504C0.131,-0.487 0.107,-0.465 0.088,-0.439C0.069,-0.412 0.056,-0.383 0.048,-0.351C0.04,-0.318 0.036,-0.287 0.036,-0.256C0.036,-0.221 0.041,-0.187 0.051,-0.156C0.06,-0.124 0.075,-0.096 0.094,-0.073C0.113,-0.049 0.137,-0.03 0.166,-0.016C0.195,-0.002 0.228,0.005 0.267,0.005C0.3,0.005 0.332,-0.003 0.362,-0.018C0.391,-0.033 0.413,-0.056 0.428,-0.088L0.43,-0.088L0.43,-0.054C0.43,-0.025 0.427,0.001 0.422,0.025C0.416,0.049 0.407,0.07 0.394,0.087C0.381,0.103 0.365,0.117 0.346,0.127C0.327,0.136 0.303,0.141 0.275,0.141C0.261,0.141 0.246,0.14 0.231,0.137C0.216,0.134 0.202,0.129 0.189,0.122C0.175,0.115 0.165,0.107 0.156,0.096C0.147,0.085 0.142,0.072 0.141,0.057L0.056,0.057C0.057,0.085 0.065,0.109 0.078,0.128C0.091,0.147 0.108,0.163 0.129,0.175C0.149,0.187 0.171,0.196 0.197,0.201C0.222,0.206 0.246,0.209 0.27,0.209C0.353,0.209 0.413,0.188 0.452,0.146C0.491,0.104 0.51,0.041 0.51,-0.044ZM0.272,-0.069C0.244,-0.069 0.221,-0.075 0.202,-0.087C0.183,-0.098 0.168,-0.114 0.157,-0.133C0.146,-0.152 0.138,-0.173 0.133,-0.196C0.128,-0.219 0.126,-0.243 0.126,-0.266C0.126,-0.291 0.129,-0.314 0.135,-0.337C0.14,-0.36 0.149,-0.38 0.162,-0.397C0.174,-0.414 0.19,-0.428 0.209,-0.439C0.228,-0.449 0.252,-0.454 0.279,-0.454C0.306,-0.454 0.328,-0.449 0.347,-0.438C0.366,-0.427 0.381,-0.413 0.393,-0.396C0.404,-0.378 0.413,-0.358 0.418,-0.336C0.423,-0.314 0.426,-0.292 0.426,-0.269C0.426,-0.245 0.423,-0.221 0.418,-0.197C0.412,-0.173 0.403,-0.152 0.391,-0.133C0.379,-0.114 0.363,-0.098 0.344,-0.087C0.324,-0.075 0.3,-0.069 0.272,-0.069Z" style="fill-rule:nonzero;"/>
        </g>
    </g>
    <path d="M218.805,226.454L218.805,134.788L264.555,180.621L218.805,226.454Z" style="fill:rgb(0,0,255);fill-rule:nonzero;stroke:black;stroke-width:4.17px;"/>
    <g transform="matrix(0.707107,-0.707107,0.707107,0.707107,227.507,112.312)">
        <g transform="matrix(41.667,0,0,41.667,0,0)">
            <path d="M0.576,-0L0.741,-0.517L0.653,-0.517L0.537,-0.094L0.535,-0.094L0.427,-0.517L0.334,-0.517L0.23,-0.094L0.228,-0.094L0.111,-0.517L0.017,-0.517L0.183,-0L0.275,-0L0.379,-0.411L0.381,-0.411L0.486,-0L0.576,-0Z" style="fill-rule:nonzero;"/>
        </g>
        <g transform="matrix(41.667,0,0,41.667,31.5836,0)">
            <path d="M0.022,-0.065L0.022,-0L0.458,-0L0.458,-0.075L0.128,-0.075L0.444,-0.459L0.444,-0.517L0.042,-0.517L0.042,-0.442L0.334,-0.442L0.022,-0.065Z" style="fill-rule:nonzero;"/>
        </g>
        <g transform="matrix(41.667,0,0,41.667,51.5837,0)">
            <path d="M0.064,-0.714L0.064,-0L0.149,-0L0.149,-0.292C0.149,-0.315 0.152,-0.337 0.159,-0.357C0.165,-0.376 0.174,-0.393 0.187,-0.408C0.2,-0.423 0.216,-0.434 0.235,-0.442C0.254,-0.45 0.276,-0.454 0.302,-0.454C0.335,-0.454 0.36,-0.445 0.379,-0.426C0.398,-0.407 0.407,-0.382 0.407,-0.35L0.407,-0L0.492,-0L0.492,-0.34C0.492,-0.368 0.489,-0.393 0.484,-0.417C0.478,-0.44 0.468,-0.459 0.454,-0.476C0.44,-0.493 0.422,-0.506 0.399,-0.515C0.376,-0.524 0.348,-0.529 0.314,-0.529C0.299,-0.529 0.283,-0.527 0.267,-0.524C0.25,-0.521 0.235,-0.516 0.22,-0.509C0.205,-0.502 0.191,-0.493 0.179,-0.482C0.167,-0.47 0.158,-0.457 0.151,-0.441L0.149,-0.441L0.149,-0.714L0.064,-0.714Z" style="fill-rule:nonzero;"/>
        </g>
    </g>
    <path d="M264.868,226.454L264.868,134.788L308.368,180.621L264.868,226.454Z" style="fill:rgb(0,0,255);fill-rule:nonzero;stroke:black;stroke-width:4.17px;"/>
    <g transform="matrix(0.707107,-0.707107,0.707107,0.707107,272.445,112.312)">
        <g transform="matrix(41.667,0,0,41.667,0,0)">
            <path d="M0.576,-0L0.741,-0.517L0.653,-0.517L0.537,-0.094L0.535,-0.094L0.427,-0.517L0.334,-0.517L0.23,-0.094L0.228,-0.094L0.111,-0.517L0.017,-0.517L0.183,-0L0.275,-0L0.379,-0.411L0.381,-0.411L0.486,-0L0.576,-0Z" style="fill-rule:nonzero;"/>
        </g>
        <g transform="matrix(41.667,0,0,41.667,31.5836,0)">
            <path d="M0.022,-0.065L0.022,-0L0.458,-0L0.458,-0.075L0.128,-0.075L0.444,-0.459L0.444,-0.517L0.042,-0.517L0.042,-0.442L0.334,-0.442L0.022,-0.065Z" style="fill-rule:nonzero;"/>
        </g>
        <g transform="matrix(41.667,0,0,41.667,51.5837,0)">
            <path d="M0.126,-0.254C0.126,-0.279 0.129,-0.304 0.134,-0.328C0.139,-0.352 0.148,-0.373 0.16,-0.392C0.172,-0.411 0.188,-0.426 0.208,-0.437C0.228,-0.448 0.252,-0.454 0.281,-0.454C0.31,-0.454 0.335,-0.448 0.356,-0.438C0.377,-0.427 0.394,-0.412 0.407,-0.394C0.42,-0.376 0.429,-0.355 0.435,-0.332C0.441,-0.308 0.444,-0.283 0.444,-0.258C0.444,-0.234 0.441,-0.21 0.436,-0.187C0.43,-0.164 0.421,-0.143 0.408,-0.125C0.395,-0.106 0.379,-0.091 0.359,-0.08C0.339,-0.069 0.315,-0.063 0.286,-0.063C0.259,-0.063 0.235,-0.068 0.215,-0.079C0.194,-0.09 0.178,-0.104 0.165,-0.122C0.152,-0.14 0.142,-0.161 0.136,-0.184C0.129,-0.206 0.126,-0.23 0.126,-0.254ZM0.526,-0L0.526,-0.714L0.441,-0.714L0.441,-0.448L0.439,-0.448C0.43,-0.463 0.418,-0.476 0.405,-0.487C0.391,-0.497 0.376,-0.505 0.361,-0.512C0.346,-0.518 0.33,-0.522 0.315,-0.525C0.3,-0.528 0.285,-0.529 0.272,-0.529C0.233,-0.529 0.198,-0.522 0.169,-0.508C0.139,-0.493 0.114,-0.474 0.095,-0.45C0.075,-0.425 0.06,-0.397 0.051,-0.364C0.041,-0.331 0.036,-0.297 0.036,-0.26C0.036,-0.223 0.041,-0.189 0.051,-0.156C0.061,-0.123 0.076,-0.095 0.096,-0.07C0.115,-0.045 0.14,-0.026 0.17,-0.011C0.199,0.004 0.234,0.011 0.274,0.011C0.31,0.011 0.343,0.005 0.373,-0.008C0.403,-0.021 0.425,-0.041 0.439,-0.07L0.441,-0.07L0.441,-0L0.526,-0Z" style="fill-rule:nonzero;"/>
        </g>
    </g>
    <path d="M308.93,226.454L308.93,134.788L351.68,180.621L308.93,226.454Z" style="fill:rgb(0,0,255);fill-rule:nonzero;stroke:black;stroke-width:4.17px;"/>
    <g transform="matrix(0.707107,-0.707107,0.707107,0.707107,316.132,112.312)">
        <g transform="matrix(41.667,0,0,41.667,0,0)">
            <path d="M0.576,-0L0.741,-0.517L0.653,-0.517L0.537,-0.094L0.535,-0.094L0.427,-0.517L0.334,-0.517L0.23,-0.094L0.228,-0.094L0.111,-0.517L0.017,-0.517L0.183,-0L0.275,-0L0.379,-0.411L0.381,-0.411L0.486,-0L0.576,-0Z" style="fill-rule:nonzero;"/>
        </g>
        <g transform="matrix(41.667,0,0,41.667,31.5836,0)">
            <path d="M0.022,-0.065L0.022,-0L0.458,-0L0.458,-0.075L0.128,-0.075L0.444,-0.459L0.444,-0.517L0.042,-0.517L0.042,-0.442L0.334,-0.442L0.022,-0.065Z" style="fill-rule:nonzero;"/>
        </g>
        <g transform="matrix(41.667,0,0,41.667,51.5837,0)">
            <path d="M0.423,-0.308L0.126,-0.308C0.127,-0.328 0.132,-0.347 0.139,-0.365C0.146,-0.382 0.156,-0.398 0.169,-0.411C0.182,-0.424 0.197,-0.435 0.215,-0.443C0.232,-0.45 0.252,-0.454 0.274,-0.454C0.295,-0.454 0.315,-0.45 0.333,-0.443C0.35,-0.435 0.366,-0.425 0.379,-0.412C0.392,-0.399 0.402,-0.383 0.41,-0.365C0.417,-0.347 0.422,-0.328 0.423,-0.308ZM0.505,-0.164L0.421,-0.164C0.414,-0.13 0.399,-0.105 0.376,-0.088C0.353,-0.071 0.323,-0.063 0.287,-0.063C0.259,-0.063 0.235,-0.068 0.214,-0.077C0.193,-0.086 0.176,-0.099 0.163,-0.115C0.15,-0.13 0.14,-0.148 0.134,-0.169C0.128,-0.189 0.125,-0.21 0.126,-0.233L0.513,-0.233C0.514,-0.264 0.511,-0.297 0.505,-0.332C0.498,-0.367 0.485,-0.399 0.467,-0.428C0.448,-0.457 0.424,-0.482 0.394,-0.501C0.363,-0.52 0.325,-0.529 0.279,-0.529C0.244,-0.529 0.211,-0.522 0.182,-0.509C0.152,-0.496 0.126,-0.477 0.105,-0.453C0.083,-0.429 0.066,-0.401 0.054,-0.368C0.042,-0.335 0.036,-0.299 0.036,-0.26C0.037,-0.221 0.043,-0.184 0.054,-0.151C0.064,-0.118 0.079,-0.089 0.1,-0.065C0.121,-0.041 0.146,-0.022 0.177,-0.009C0.207,0.004 0.243,0.011 0.284,0.011C0.343,0.011 0.391,-0.004 0.43,-0.033C0.469,-0.062 0.494,-0.106 0.505,-0.164Z" style="fill-rule:nonzero;"/>
        </g>
    </g>
    <path d="M371.805,226.454L371.805,134.788L412.68,180.621L371.805,226.454Z" style="fill:rgb(128,0,128);fill-rule:nonzero;stroke:black;stroke-width:4.17px;"/>
    <g transform="matrix(0.707107,-0.707107,0.707107,0.707107,378.07,112.312)">
        <g transform="matrix(41.667,0,0,41.667,0,0)">
            <path d="M0.576,-0L0.741,-0.517L0.653,-0.517L0.537,-0.094L0.535,-0.094L0.427,-0.517L0.334,-0.517L0.23,-0.094L0.228,-0.094L0.111,-0.517L0.017,-0.517L0.183,-0L0.275,-0L0.379,-0.411L0.381,-0.411L0.486,-0L0.576,-0Z" style="fill-rule:nonzero;"/>
        </g>
        <g transform="matrix(41.667,0,0,41.667,31.5836,0)">
            <path d="M0.415,-0.351L0.503,-0.351C0.5,-0.382 0.492,-0.408 0.479,-0.431C0.466,-0.453 0.45,-0.471 0.431,-0.486C0.411,-0.501 0.388,-0.511 0.363,-0.519C0.337,-0.526 0.309,-0.529 0.28,-0.529C0.239,-0.529 0.204,-0.522 0.173,-0.508C0.142,-0.493 0.117,-0.474 0.097,-0.449C0.076,-0.424 0.061,-0.394 0.051,-0.361C0.041,-0.327 0.036,-0.291 0.036,-0.252C0.036,-0.213 0.041,-0.178 0.052,-0.146C0.062,-0.113 0.077,-0.085 0.098,-0.062C0.118,-0.039 0.143,-0.021 0.174,-0.008C0.204,0.005 0.239,0.011 0.278,0.011C0.344,0.011 0.396,-0.006 0.435,-0.041C0.473,-0.076 0.497,-0.125 0.506,-0.189L0.419,-0.189C0.414,-0.149 0.399,-0.118 0.376,-0.096C0.352,-0.074 0.319,-0.063 0.277,-0.063C0.25,-0.063 0.227,-0.068 0.208,-0.079C0.189,-0.09 0.173,-0.104 0.161,-0.122C0.149,-0.139 0.14,-0.159 0.135,-0.182C0.129,-0.205 0.126,-0.228 0.126,-0.252C0.126,-0.278 0.129,-0.303 0.134,-0.328C0.139,-0.352 0.148,-0.373 0.161,-0.392C0.173,-0.411 0.189,-0.426 0.21,-0.437C0.231,-0.448 0.256,-0.454 0.287,-0.454C0.323,-0.454 0.352,-0.445 0.373,-0.427C0.394,-0.409 0.408,-0.384 0.415,-0.351Z" style="fill-rule:nonzero;"/>
        </g>
        <g transform="matrix(41.667,0,0,41.667,53.9588,0)">
            <path d="M0.154,-0.61L0.154,-0.714L0.069,-0.714L0.069,-0.61L0.154,-0.61ZM0.069,-0.517L0.069,-0L0.154,-0L0.154,-0.517L0.069,-0.517Z" style="fill-rule:nonzero;"/>
        </g>
        <g transform="matrix(41.667,0,0,41.667,63.2088,0)">
            <rect x="0.082" y="-0.714" width="0.095" height="0.714" style="fill-rule:nonzero;"/>
        </g>
    </g>
    <path d="M413.18,155.621L439.868,155.621L439.868,134.788L489.868,180.621L439.868,226.454L439.868,205.621L413.18,205.621L413.18,155.621Z" style="fill:rgb(0,255,255);fill-rule:nonzero;stroke:black;stroke-width:4.17px;"/>
    <g transform="matrix(0.707107,-0.707107,0.707107,0.707107,437.351,112.312)">
        <g transform="matrix(41.667,0,0,41.667,0,0)">
            <path d="M0.576,-0L0.741,-0.517L0.653,-0.517L0.537,-0.094L0.535,-0.094L0.427,-0.517L0.334,-0.517L0.23,-0.094L0.228,-0.094L0.111,-0.517L0.017,-0.517L0.183,-0L0.275,-0L0.379,-0.411L0.381,-0.411L0.486,-0L0.576,-0Z" style="fill-rule:nonzero;"/>
        </g>
        <g transform="matrix(41.667,0,0,41.667,31.5836,0)">
            <path d="M0.415,-0.351L0.503,-0.351C0.5,-0.382 0.492,-0.408 0.479,-0.431C0.466,-0.453 0.45,-0.471 0.431,-0.486C0.411,-0.501 0.388,-0.511 0.363,-0.519C0.337,-0.526 0.309,-0.529 0.28,-0.529C0.239,-0.529 0.204,-0.522 0.173,-0.508C0.142,-0.493 0.117,-0.474 0.097,-0.449C0.076,-0.424 0.061,-0.394 0.051,-0.361C0.041,-0.327 0.036,-0.291 0.036,-0.252C0.036,-0.213 0.041,-0.178 0.052,-0.146C0.062,-0.113 0.077,-0.085 0.098,-0.062C0.118,-0.039 0.143,-0.021 0.174,-0.008C0.204,0.005 0.239,0.011 0.278,0.011C0.344,0.011 0.396,-0.006 0.435,-0.041C0.473,-0.076 0.497,-0.125 0.506,-0.189L0.419,-0.189C0.414,-0.149 0.399,-0.118 0.376,-0.096C0.352,-0.074 0.319,-0.063 0.277,-0.063C0.25,-0.063 0.227,-0.068 0.208,-0.079C0.189,-0.09 0.173,-0.104 0.161,-0.122C0.149,-0.139 0.14,-0.159 0.135,-0.182C0.129,-0.205 0.126,-0.228 0.126,-0.252C0.126,-0.278 0.129,-0.303 0.134,-0.328C0.139,-0.352 0.148,-0.373 0.161,-0.392C0.173,-0.411 0.189,-0.426 0.21,-0.437C0.231,-0.448 0.256,-0.454 0.287,-0.454C0.323,-0.454 0.352,-0.445 0.373,-0.427C0.394,-0.409 0.408,-0.384 0.415,-0.351Z" style="fill-rule:nonzero;"/>
        </g>
        <g transform="matrix(41.667,0,0,41.667,53.9588,0)">
            <path d="M0.154,-0.61L0.154,-0.714L0.069,-0.714L0.069,-0.61L0.154,-0.61ZM0.069,-0.517L0.069,-0L0.154,-0L0.154,-0.517L0.069,-0.517Z" style="fill-rule:nonzero;"/>
        </g>
        <g transform="matrix(41.667,0,0,41.667,63.2088,0)">
            <path d="M0.441,-0.178L0.441,-0.714L0.346,-0.714L0.346,-0.192C0.346,-0.153 0.338,-0.121 0.322,-0.098C0.305,-0.075 0.275,-0.063 0.232,-0.063C0.209,-0.063 0.19,-0.067 0.175,-0.074C0.16,-0.081 0.148,-0.09 0.14,-0.103C0.131,-0.116 0.125,-0.131 0.122,-0.148C0.119,-0.165 0.117,-0.184 0.117,-0.205L0.117,-0.235L0.022,-0.235L0.022,-0.191C0.022,-0.123 0.04,-0.071 0.076,-0.037C0.112,-0.001 0.163,0.016 0.23,0.016C0.27,0.016 0.304,0.011 0.331,-0.001C0.358,-0.012 0.379,-0.026 0.396,-0.045C0.412,-0.063 0.424,-0.084 0.431,-0.107C0.438,-0.13 0.441,-0.154 0.441,-0.178Z" style="fill-rule:nonzero;"/>
        </g>
    </g>
    <path d="M489.618,155.621L512.743,155.621L512.743,134.788L562.743,180.621L512.743,226.454L512.743,205.621L489.618,205.621L489.618,155.621Z" style="fill:rgb(0,255,255);fill-rule:nonzero;stroke:black;stroke-width:4.17px;"/>
    <g transform="matrix(0.707107,-0.707107,0.707107,0.707107,512.007,112.312)">
        <g transform="matrix(41.667,0,0,41.667,0,0)">
            <path d="M0.576,-0L0.741,-0.517L0.653,-0.517L0.537,-0.094L0.535,-0.094L0.427,-0.517L0.334,-0.517L0.23,-0.094L0.228,-0.094L0.111,-0.517L0.017,-0.517L0.183,-0L0.275,-0L0.379,-0.411L0.381,-0.411L0.486,-0L0.576,-0Z" style="fill-rule:nonzero;"/>
        </g>
        <g transform="matrix(41.667,0,0,41.667,31.5836,0)">
            <path d="M0.415,-0.351L0.503,-0.351C0.5,-0.382 0.492,-0.408 0.479,-0.431C0.466,-0.453 0.45,-0.471 0.431,-0.486C0.411,-0.501 0.388,-0.511 0.363,-0.519C0.337,-0.526 0.309,-0.529 0.28,-0.529C0.239,-0.529 0.204,-0.522 0.173,-0.508C0.142,-0.493 0.117,-0.474 0.097,-0.449C0.076,-0.424 0.061,-0.394 0.051,-0.361C0.041,-0.327 0.036,-0.291 0.036,-0.252C0.036,-0.213 0.041,-0.178 0.052,-0.146C0.062,-0.113 0.077,-0.085 0.098,-0.062C0.118,-0.039 0.143,-0.021 0.174,-0.008C0.204,0.005 0.239,0.011 0.278,0.011C0.344,0.011 0.396,-0.006 0.435,-0.041C0.473,-0.076 0.497,-0.125 0.506,-0.189L0.419,-0.189C0.414,-0.149 0.399,-0.118 0.376,-0.096C0.352,-0.074 0.319,-0.063 0.277,-0.063C0.25,-0.063 0.227,-0.068 0.208,-0.079C0.189,-0.09 0.173,-0.104 0.161,-0.122C0.149,-0.139 0.14,-0.159 0.135,-0.182C0.129,-0.205 0.126,-0.228 0.126,-0.252C0.126,-0.278 0.129,-0.303 0.134,-0.328C0.139,-0.352 0.148,-0.373 0.161,-0.392C0.173,-0.411 0.189,-0.426 0.21,-0.437C0.231,-0.448 0.256,-0.454 0.287,-0.454C0.323,-0.454 0.352,-0.445 0.373,-0.427C0.394,-0.409 0.408,-0.384 0.415,-0.351Z" style="fill-rule:nonzero;"/>
        </g>
        <g transform="matrix(41.667,0,0,41.667,53.9588,0)">
            <path d="M0.203,-0.272L0.009,-0L0.112,-0L0.256,-0.214L0.4,-0L0.509,-0L0.309,-0.279L0.487,-0.517L0.385,-0.517L0.256,-0.336L0.132,-0.517L0.023,-0.517L0.203,-0.272Z" style="fill-rule:nonzero;"/>
        </g>
        <g transform="matrix(41.667,0,0,41.667,75.5423,0)">
            <path d="M0.173,-0.407L0.173,-0.634L0.363,-0.634C0.384,-0.634 0.403,-0.633 0.422,-0.631C0.44,-0.628 0.456,-0.623 0.47,-0.615C0.484,-0.607 0.495,-0.596 0.503,-0.581C0.511,-0.566 0.515,-0.546 0.515,-0.521C0.515,-0.483 0.503,-0.455 0.48,-0.436C0.456,-0.417 0.417,-0.407 0.363,-0.407L0.173,-0.407ZM0.078,-0.714L0.078,-0L0.423,-0C0.458,-0 0.49,-0.006 0.517,-0.018C0.544,-0.029 0.566,-0.045 0.585,-0.064C0.603,-0.083 0.617,-0.104 0.626,-0.129C0.635,-0.154 0.64,-0.179 0.64,-0.205C0.64,-0.249 0.628,-0.286 0.605,-0.317C0.582,-0.348 0.548,-0.368 0.504,-0.377L0.504,-0.379C0.538,-0.392 0.564,-0.413 0.583,-0.441C0.601,-0.468 0.61,-0.501 0.61,-0.539C0.61,-0.575 0.602,-0.605 0.586,-0.63C0.569,-0.655 0.549,-0.674 0.526,-0.688C0.515,-0.695 0.503,-0.7 0.488,-0.703C0.472,-0.706 0.456,-0.709 0.439,-0.711C0.422,-0.712 0.404,-0.713 0.387,-0.714C0.369,-0.714 0.352,-0.714 0.337,-0.714L0.078,-0.714ZM0.173,-0.08L0.173,-0.327L0.39,-0.327C0.41,-0.327 0.429,-0.325 0.448,-0.322C0.467,-0.318 0.483,-0.312 0.498,-0.303C0.512,-0.294 0.523,-0.281 0.532,-0.266C0.541,-0.251 0.545,-0.231 0.545,-0.208C0.545,-0.168 0.533,-0.137 0.51,-0.114C0.486,-0.091 0.453,-0.08 0.411,-0.08L0.173,-0.08Z" style="fill-rule:nonzero;"/>
        </g>
    </g>
    <path d="M560.93,155.621L582.18,155.621L582.18,134.788L632.18,180.621L582.18,226.454L582.18,205.621L560.93,205.621L560.93,155.621Z" style="fill:rgb(0,255,255);fill-rule:nonzero;stroke:black;stroke-width:4.17px;"/>
    <g transform="matrix(0.707107,-0.707107,0.707107,0.707107,582.382,112.312)">
        <g transform="matrix(41.667,0,0,41.667,0,0)">
            <path d="M0.576,-0L0.741,-0.517L0.653,-0.517L0.537,-0.094L0.535,-0.094L0.427,-0.517L0.334,-0.517L0.23,-0.094L0.228,-0.094L0.111,-0.517L0.017,-0.517L0.183,-0L0.275,-0L0.379,-0.411L0.381,-0.411L0.486,-0L0.576,-0Z" style="fill-rule:nonzero;"/>
        </g>
        <g transform="matrix(41.667,0,0,41.667,31.5836,0)">
            <path d="M0.415,-0.351L0.503,-0.351C0.5,-0.382 0.492,-0.408 0.479,-0.431C0.466,-0.453 0.45,-0.471 0.431,-0.486C0.411,-0.501 0.388,-0.511 0.363,-0.519C0.337,-0.526 0.309,-0.529 0.28,-0.529C0.239,-0.529 0.204,-0.522 0.173,-0.508C0.142,-0.493 0.117,-0.474 0.097,-0.449C0.076,-0.424 0.061,-0.394 0.051,-0.361C0.041,-0.327 0.036,-0.291 0.036,-0.252C0.036,-0.213 0.041,-0.178 0.052,-0.146C0.062,-0.113 0.077,-0.085 0.098,-0.062C0.118,-0.039 0.143,-0.021 0.174,-0.008C0.204,0.005 0.239,0.011 0.278,0.011C0.344,0.011 0.396,-0.006 0.435,-0.041C0.473,-0.076 0.497,-0.125 0.506,-0.189L0.419,-0.189C0.414,-0.149 0.399,-0.118 0.376,-0.096C0.352,-0.074 0.319,-0.063 0.277,-0.063C0.25,-0.063 0.227,-0.068 0.208,-0.079C0.189,-0.09 0.173,-0.104 0.161,-0.122C0.149,-0.139 0.14,-0.159 0.135,-0.182C0.129,-0.205 0.126,-0.228 0.126,-0.252C0.126,-0.278 0.129,-0.303 0.134,-0.328C0.139,-0.352 0.148,-0.373 0.161,-0.392C0.173,-0.411 0.189,-0.426 0.21,-0.437C0.231,-0.448 0.256,-0.454 0.287,-0.454C0.323,-0.454 0.352,-0.445 0.373,-0.427C0.394,-0.409 0.408,-0.384 0.415,-0.351Z" style="fill-rule:nonzero;"/>
        </g>
        <g transform="matrix(41.667,0,0,41.667,53.9588,0)">
            <path d="M0.154,-0.61L0.154,-0.714L0.069,-0.714L0.069,-0.61L0.154,-0.61ZM0.069,-0.517L0.069,-0L0.154,-0L0.154,-0.517L0.069,-0.517Z" style="fill-rule:nonzero;"/>
        </g>
        <g transform="matrix(41.667,0,0,41.667,63.2088,0)">
            <path d="M0.078,-0.714L0.078,-0L0.551,-0L0.551,-0.08L0.173,-0.08L0.173,-0.714L0.078,-0.714Z" style="fill-rule:nonzero;"/>
        </g>
    </g>
    <path d="M631.93,155.621L651.305,155.621L651.305,134.788L701.305,180.621L651.305,226.454L651.305,205.621L631.93,205.621L631.93,155.621Z" style="fill:rgb(0,255,255);fill-rule:nonzero;stroke:black;stroke-width:4.17px;"/>
    <g transform="matrix(0.707107,-0.707107,0.707107,0.707107,652.444,112.312)">
        <g transform="matrix(41.667,0,0,41.667,0,0)">
            <path d="M0.576,-0L0.741,-0.517L0.653,-0.517L0.537,-0.094L0.535,-0.094L0.427,-0.517L0.334,-0.517L0.23,-0.094L0.228,-0.094L0.111,-0.517L0.017,-0.517L0.183,-0L0.275,-0L0.379,-0.411L0.381,-0.411L0.486,-0L0.576,-0Z" style="fill-rule:nonzero;"/>
        </g>
        <g transform="matrix(41.667,0,0,41.667,31.5836,0)">
            <path d="M0.415,-0.351L0.503,-0.351C0.5,-0.382 0.492,-0.408 0.479,-0.431C0.466,-0.453 0.45,-0.471 0.431,-0.486C0.411,-0.501 0.388,-0.511 0.363,-0.519C0.337,-0.526 0.309,-0.529 0.28,-0.529C0.239,-0.529 0.204,-0.522 0.173,-0.508C0.142,-0.493 0.117,-0.474 0.097,-0.449C0.076,-0.424 0.061,-0.394 0.051,-0.361C0.041,-0.327 0.036,-0.291 0.036,-0.252C0.036,-0.213 0.041,-0.178 0.052,-0.146C0.062,-0.113 0.077,-0.085 0.098,-0.062C0.118,-0.039 0.143,-0.021 0.174,-0.008C0.204,0.005 0.239,0.011 0.278,0.011C0.344,0.011 0.396,-0.006 0.435,-0.041C0.473,-0.076 0.497,-0.125 0.506,-0.189L0.419,-0.189C0.414,-0.149 0.399,-0.118 0.376,-0.096C0.352,-0.074 0.319,-0.063 0.277,-0.063C0.25,-0.063 0.227,-0.068 0.208,-0.079C0.189,-0.09 0.173,-0.104 0.161,-0.122C0.149,-0.139 0.14,-0.159 0.135,-0.182C0.129,-0.205 0.126,-0.228 0.126,-0.252C0.126,-0.278 0.129,-0.303 0.134,-0.328C0.139,-0.352 0.148,-0.373 0.161,-0.392C0.173,-0.411 0.189,-0.426 0.21,-0.437C0.231,-0.448 0.256,-0.454 0.287,-0.454C0.323,-0.454 0.352,-0.445 0.373,-0.427C0.394,-0.409 0.408,-0.384 0.415,-0.351Z" style="fill-rule:nonzero;"/>
        </g>
        <g transform="matrix(41.667,0,0,41.667,53.9588,0)">
            <path d="M0.267,0.069C0.257,0.094 0.247,0.116 0.238,0.133C0.228,0.15 0.217,0.165 0.206,0.176C0.194,0.187 0.181,0.195 0.167,0.2C0.152,0.205 0.136,0.207 0.117,0.207C0.107,0.207 0.097,0.206 0.087,0.205C0.077,0.204 0.067,0.201 0.058,0.198L0.058,0.12C0.065,0.123 0.074,0.126 0.084,0.129C0.093,0.131 0.101,0.132 0.108,0.132C0.125,0.132 0.14,0.128 0.152,0.12C0.163,0.111 0.172,0.099 0.178,0.084L0.213,-0.003L0.008,-0.517L0.104,-0.517L0.255,-0.094L0.257,-0.094L0.402,-0.517L0.492,-0.517L0.267,0.069Z" style="fill-rule:nonzero;"/>
        </g>
        <g transform="matrix(41.667,0,0,41.667,74.7923,0)">
            <path d="M0.45,-0.204L0.4,-0.146L0.479,-0.083C0.447,-0.07 0.414,-0.063 0.38,-0.063C0.337,-0.063 0.299,-0.071 0.268,-0.089C0.237,-0.106 0.211,-0.128 0.191,-0.156C0.171,-0.184 0.156,-0.216 0.147,-0.251C0.138,-0.286 0.133,-0.321 0.133,-0.357C0.133,-0.393 0.138,-0.429 0.147,-0.464C0.156,-0.499 0.171,-0.53 0.191,-0.558C0.211,-0.586 0.237,-0.608 0.268,-0.626C0.299,-0.643 0.337,-0.651 0.38,-0.651C0.423,-0.651 0.461,-0.643 0.492,-0.626C0.523,-0.608 0.549,-0.586 0.569,-0.558C0.589,-0.53 0.604,-0.499 0.613,-0.464C0.622,-0.429 0.627,-0.393 0.627,-0.357C0.627,-0.313 0.62,-0.271 0.607,-0.231C0.594,-0.19 0.573,-0.156 0.545,-0.128L0.45,-0.204ZM0.66,0.061L0.708,0.001L0.614,-0.073C0.65,-0.109 0.677,-0.152 0.695,-0.201C0.713,-0.25 0.722,-0.302 0.722,-0.357C0.722,-0.406 0.715,-0.452 0.701,-0.498C0.686,-0.543 0.665,-0.582 0.636,-0.617C0.607,-0.652 0.572,-0.679 0.529,-0.7C0.486,-0.721 0.437,-0.731 0.38,-0.731C0.323,-0.731 0.274,-0.721 0.231,-0.7C0.188,-0.679 0.153,-0.652 0.124,-0.617C0.095,-0.582 0.074,-0.543 0.06,-0.498C0.045,-0.452 0.038,-0.406 0.038,-0.357C0.038,-0.308 0.045,-0.262 0.06,-0.217C0.074,-0.171 0.095,-0.132 0.124,-0.097C0.153,-0.062 0.188,-0.035 0.231,-0.015C0.274,0.006 0.323,0.016 0.38,0.016C0.446,0.016 0.503,0.002 0.551,-0.026L0.66,0.061Z" style="fill-rule:nonzero;"/>
        </g>
    </g>
    <path d="M701.055,155.621L708.618,155.621L708.618,134.788L758.618,180.621L708.618,226.454L708.618,205.621L701.055,205.621L701.055,155.621Z" style="fill:rgb(0,255,255);fill-rule:nonzero;stroke:black;stroke-width:4.17px;"/>
    <g transform="matrix(0.707107,-0.707107,0.707107,0.707107,715.663,112.312)">
        <g transform="matrix(41.667,0,0,41.667,0,0)">
            <path d="M0.576,-0L0.741,-0.517L0.653,-0.517L0.537,-0.094L0.535,-0.094L0.427,-0.517L0.334,-0.517L0.23,-0.094L0.228,-0.094L0.111,-0.517L0.017,-0.517L0.183,-0L0.275,-0L0.379,-0.411L0.381,-0.411L0.486,-0L0.576,-0Z" style="fill-rule:nonzero;"/>
        </g>
        <g transform="matrix(41.667,0,0,41.667,31.5836,0)">
            <path d="M0.415,-0.351L0.503,-0.351C0.5,-0.382 0.492,-0.408 0.479,-0.431C0.466,-0.453 0.45,-0.471 0.431,-0.486C0.411,-0.501 0.388,-0.511 0.363,-0.519C0.337,-0.526 0.309,-0.529 0.28,-0.529C0.239,-0.529 0.204,-0.522 0.173,-0.508C0.142,-0.493 0.117,-0.474 0.097,-0.449C0.076,-0.424 0.061,-0.394 0.051,-0.361C0.041,-0.327 0.036,-0.291 0.036,-0.252C0.036,-0.213 0.041,-0.178 0.052,-0.146C0.062,-0.113 0.077,-0.085 0.098,-0.062C0.118,-0.039 0.143,-0.021 0.174,-0.008C0.204,0.005 0.239,0.011 0.278,0.011C0.344,0.011 0.396,-0.006 0.435,-0.041C0.473,-0.076 0.497,-0.125 0.506,-0.189L0.419,-0.189C0.414,-0.149 0.399,-0.118 0.376,-0.096C0.352,-0.074 0.319,-0.063 0.277,-0.063C0.25,-0.063 0.227,-0.068 0.208,-0.079C0.189,-0.09 0.173,-0.104 0.161,-0.122C0.149,-0.139 0.14,-0.159 0.135,-0.182C0.129,-0.205 0.126,-0.228 0.126,-0.252C0.126,-0.278 0.129,-0.303 0.134,-0.328C0.139,-0.352 0.148,-0.373 0.161,-0.392C0.173,-0.411 0.189,-0.426 0.21,-0.437C0.231,-0.448 0.256,-0.454 0.287,-0.454C0.323,-0.454 0.352,-0.445 0.373,-0.427C0.394,-0.409 0.408,-0.384 0.415,-0.351Z" style="fill-rule:nonzero;"/>
        </g>
        <g transform="matrix(41.667,0,0,41.667,53.9588,0)">
            <path d="M0.203,-0.272L0.009,-0L0.112,-0L0.256,-0.214L0.4,-0L0.509,-0L0.309,-0.279L0.487,-0.517L0.385,-0.517L0.256,-0.336L0.132,-0.517L0.023,-0.517L0.203,-0.272Z" style="fill-rule:nonzero;"/>
        </g>
        <g transform="matrix(41.667,0,0,41.667,75.5423,0)">
            <path d="M0.491,-0.505L0.581,-0.505C0.58,-0.544 0.572,-0.578 0.559,-0.607C0.545,-0.635 0.526,-0.658 0.503,-0.677C0.479,-0.696 0.451,-0.709 0.42,-0.718C0.389,-0.727 0.355,-0.731 0.318,-0.731C0.285,-0.731 0.254,-0.727 0.223,-0.719C0.192,-0.71 0.164,-0.697 0.14,-0.681C0.115,-0.664 0.096,-0.642 0.081,-0.616C0.066,-0.589 0.059,-0.558 0.059,-0.522C0.059,-0.489 0.066,-0.462 0.079,-0.441C0.092,-0.419 0.109,-0.401 0.131,-0.388C0.152,-0.374 0.177,-0.363 0.204,-0.355C0.231,-0.346 0.259,-0.339 0.288,-0.333C0.316,-0.326 0.344,-0.32 0.371,-0.314C0.398,-0.308 0.423,-0.3 0.445,-0.291C0.466,-0.281 0.484,-0.268 0.497,-0.253C0.509,-0.238 0.516,-0.218 0.516,-0.193C0.516,-0.167 0.511,-0.146 0.5,-0.129C0.489,-0.112 0.475,-0.099 0.458,-0.09C0.441,-0.08 0.421,-0.073 0.4,-0.069C0.378,-0.065 0.356,-0.063 0.335,-0.063C0.308,-0.063 0.282,-0.066 0.257,-0.073C0.232,-0.08 0.21,-0.09 0.191,-0.104C0.171,-0.118 0.156,-0.136 0.145,-0.158C0.133,-0.179 0.127,-0.205 0.127,-0.235L0.037,-0.235C0.037,-0.192 0.045,-0.154 0.061,-0.123C0.076,-0.091 0.097,-0.065 0.125,-0.045C0.152,-0.024 0.183,-0.009 0.219,0.001C0.254,0.011 0.292,0.016 0.332,0.016C0.365,0.016 0.397,0.012 0.431,0.005C0.463,-0.003 0.493,-0.016 0.52,-0.033C0.547,-0.05 0.569,-0.072 0.586,-0.099C0.603,-0.126 0.611,-0.158 0.611,-0.196C0.611,-0.231 0.604,-0.261 0.592,-0.284C0.579,-0.307 0.561,-0.327 0.54,-0.342C0.518,-0.357 0.493,-0.37 0.466,-0.379C0.439,-0.388 0.411,-0.395 0.383,-0.402C0.354,-0.409 0.326,-0.415 0.299,-0.421C0.272,-0.426 0.247,-0.433 0.226,-0.442C0.204,-0.451 0.187,-0.462 0.174,-0.476C0.161,-0.489 0.154,-0.507 0.154,-0.529C0.154,-0.552 0.159,-0.572 0.168,-0.588C0.177,-0.603 0.189,-0.616 0.204,-0.625C0.219,-0.634 0.236,-0.641 0.255,-0.645C0.274,-0.649 0.294,-0.651 0.314,-0.651C0.363,-0.651 0.404,-0.64 0.436,-0.617C0.467,-0.594 0.486,-0.556 0.491,-0.505Z" style="fill-rule:nonzero;"/>
        </g>
    </g>
    <path d="M759.555,155.621L799.555,155.621L799.555,134.788L849.555,180.621L799.555,226.454L799.555,205.621L759.555,205.621L759.555,155.621Z" style="fill:rgb(255,255,0);fill-rule:nonzero;stroke:black;stroke-width:4.17px;"/>
    <g transform="matrix(0.707107,-0.707107,0.707107,0.707107,790.382,112.312)">
        <g transform="matrix(41.667,0,0,41.667,0,0)">
            <path d="M0.576,-0L0.741,-0.517L0.653,-0.517L0.537,-0.094L0.535,-0.094L0.427,-0.517L0.334,-0.517L0.23,-0.094L0.228,-0.094L0.111,-0.517L0.017,-0.517L0.183,-0L0.275,-0L0.379,-0.411L0.381,-0.411L0.486,-0L0.576,-0Z" style="fill-rule:nonzero;"/>
        </g>
        <g transform="matrix(41.667,0,0,41.667,31.5836,0)">
            <path d="M0.022,-0.065L0.022,-0L0.458,-0L0.458,-0.075L0.128,-0.075L0.444,-0.459L0.444,-0.517L0.042,-0.517L0.042,-0.442L0.334,-0.442L0.022,-0.065Z" style="fill-rule:nonzero;"/>
        </g>
        <g transform="matrix(41.667,0,0,41.667,51.5837,0)">
            <path d="M0.203,-0.272L0.009,-0L0.112,-0L0.256,-0.214L0.4,-0L0.509,-0L0.309,-0.279L0.487,-0.517L0.385,-0.517L0.256,-0.336L0.132,-0.517L0.023,-0.517L0.203,-0.272Z" style="fill-rule:nonzero;"/>
        </g>
    </g>
    <path d="M849.305,155.621L867.368,155.621L867.368,134.788L917.368,180.621L867.368,226.454L867.368,205.621L849.305,205.621L849.305,155.621Z" style="fill:rgb(255,0,255);fill-rule:nonzero;stroke:black;stroke-width:4.17px;"/>
    <g transform="matrix(0.707107,-0.707107,0.707107,0.707107,869.163,112.312)">
        <g transform="matrix(41.667,0,0,41.667,0,0)">
            <path d="M0.576,-0L0.741,-0.517L0.653,-0.517L0.537,-0.094L0.535,-0.094L0.427,-0.517L0.334,-0.517L0.23,-0.094L0.228,-0.094L0.111,-0.517L0.017,-0.517L0.183,-0L0.275,-0L0.379,-0.411L0.381,-0.411L0.486,-0L0.576,-0Z" style="fill-rule:nonzero;"/>
        </g>
        <g transform="matrix(41.667,0,0,41.667,31.5836,0)">
            <path d="M0.022,-0.065L0.022,-0L0.458,-0L0.458,-0.075L0.128,-0.075L0.444,-0.459L0.444,-0.517L0.042,-0.517L0.042,-0.442L0.334,-0.442L0.022,-0.065Z" style="fill-rule:nonzero;"/>
        </g>
        <g transform="matrix(41.667,0,0,41.667,51.5837,0)">
            <path d="M0.267,0.069C0.257,0.094 0.247,0.116 0.238,0.133C0.228,0.15 0.217,0.165 0.206,0.176C0.194,0.187 0.181,0.195 0.167,0.2C0.152,0.205 0.136,0.207 0.117,0.207C0.107,0.207 0.097,0.206 0.087,0.205C0.077,0.204 0.067,0.201 0.058,0.198L0.058,0.12C0.065,0.123 0.074,0.126 0.084,0.129C0.093,0.131 0.101,0.132 0.108,0.132C0.125,0.132 0.14,0.128 0.152,0.12C0.163,0.111 0.172,0.099 0.178,0.084L0.213,-0.003L0.008,-0.517L0.104,-0.517L0.255,-0.094L0.257,-0.094L0.402,-0.517L0.492,-0.517L0.267,0.069Z" style="fill-rule:nonzero;"/>
        </g>
    </g>
    <path d="M924.055,155.621L927.493,155.621L927.493,134.788L977.493,180.621L927.493,226.454L927.493,205.621L924.055,205.621L924.055,155.621Z" style="fill:rgb(255,165,0);fill-rule:nonzero;stroke:black;stroke-width:4.17px;"/>
    <g transform="matrix(0.707107,-0.707107,0.707107,0.707107,936.601,112.311)">
        <g transform="matrix(41.667,0,0,41.667,0,0)">
            <path d="M0.576,-0L0.741,-0.517L0.653,-0.517L0.537,-0.094L0.535,-0.094L0.427,-0.517L0.334,-0.517L0.23,-0.094L0.228,-0.094L0.111,-0.517L0.017,-0.517L0.183,-0L0.275,-0L0.379,-0.411L0.381,-0.411L0.486,-0L0.576,-0Z" style="fill-rule:nonzero;"/>
        </g>
        <g transform="matrix(41.667,0,0,41.667,31.5836,0)">
            <path d="M0.415,-0.351L0.503,-0.351C0.5,-0.382 0.492,-0.408 0.479,-0.431C0.466,-0.453 0.45,-0.471 0.431,-0.486C0.411,-0.501 0.388,-0.511 0.363,-0.519C0.337,-0.526 0.309,-0.529 0.28,-0.529C0.239,-0.529 0.204,-0.522 0.173,-0.508C0.142,-0.493 0.117,-0.474 0.097,-0.449C0.076,-0.424 0.061,-0.394 0.051,-0.361C0.041,-0.327 0.036,-0.291 0.036,-0.252C0.036,-0.213 0.041,-0.178 0.052,-0.146C0.062,-0.113 0.077,-0.085 0.098,-0.062C0.118,-0.039 0.143,-0.021 0.174,-0.008C0.204,0.005 0.239,0.011 0.278,0.011C0.344,0.011 0.396,-0.006 0.435,-0.041C0.473,-0.076 0.497,-0.125 0.506,-0.189L0.419,-0.189C0.414,-0.149 0.399,-0.118 0.376,-0.096C0.352,-0.074 0.319,-0.063 0.277,-0.063C0.25,-0.063 0.227,-0.068 0.208,-0.079C0.189,-0.09 0.173,-0.104 0.161,-0.122C0.149,-0.139 0.14,-0.159 0.135,-0.182C0.129,-0.205 0.126,-0.228 0.126,-0.252C0.126,-0.278 0.129,-0.303 0.134,-0.328C0.139,-0.352 0.148,-0.373 0.161,-0.392C0.173,-0.411 0.189,-0.426 0.21,-0.437C0.231,-0.448 0.256,-0.454 0.287,-0.454C0.323,-0.454 0.352,-0.445 0.373,-0.427C0.394,-0.409 0.408,-0.384 0.415,-0.351Z" style="fill-rule:nonzero;"/>
        </g>
        <g transform="matrix(41.667,0,0,41.667,53.9588,0)">
            <path d="M0.267,0.069C0.257,0.094 0.247,0.116 0.238,0.133C0.228,0.15 0.217,0.165 0.206,0.176C0.194,0.187 0.181,0.195 0.167,0.2C0.152,0.205 0.136,0.207 0.117,0.207C0.107,0.207 0.097,0.206 0.087,0.205C0.077,0.204 0.067,0.201 0.058,0.198L0.058,0.12C0.065,0.123 0.074,0.126 0.084,0.129C0.093,0.131 0.101,0.132 0.108,0.132C0.125,0.132 0.14,0.128 0.152,0.12C0.163,0.111 0.172,0.099 0.178,0.084L0.213,-0.003L0.008,-0.517L0.104,-0.517L0.255,-0.094L0.257,-0.094L0.402,-0.517L0.492,-0.517L0.267,0.069Z" style="fill-rule:nonzero;"/>
        </g>
        <g transform="matrix(41.667,0,0,41.667,74.7923,0)">
            <path d="M0.078,-0.714L0.078,-0L0.173,-0L0.173,-0.305L0.405,-0.305C0.428,-0.305 0.447,-0.302 0.461,-0.295C0.475,-0.288 0.486,-0.278 0.495,-0.267C0.504,-0.255 0.51,-0.241 0.514,-0.226C0.518,-0.21 0.521,-0.193 0.524,-0.176C0.527,-0.159 0.529,-0.141 0.53,-0.123C0.531,-0.105 0.531,-0.088 0.532,-0.073C0.533,-0.057 0.534,-0.043 0.537,-0.03C0.539,-0.017 0.543,-0.007 0.55,-0L0.656,-0C0.646,-0.012 0.639,-0.026 0.634,-0.042C0.628,-0.057 0.625,-0.074 0.622,-0.091C0.619,-0.108 0.618,-0.126 0.617,-0.144C0.616,-0.162 0.615,-0.18 0.614,-0.197C0.612,-0.214 0.609,-0.231 0.606,-0.247C0.602,-0.263 0.596,-0.278 0.589,-0.291C0.581,-0.304 0.571,-0.315 0.558,-0.324C0.545,-0.333 0.528,-0.34 0.507,-0.344L0.507,-0.346C0.55,-0.358 0.582,-0.38 0.602,-0.413C0.621,-0.446 0.631,-0.484 0.631,-0.527C0.631,-0.585 0.612,-0.631 0.574,-0.664C0.535,-0.697 0.482,-0.714 0.414,-0.714L0.078,-0.714ZM0.371,-0.385L0.173,-0.385L0.173,-0.634L0.409,-0.634C0.454,-0.634 0.486,-0.623 0.506,-0.6C0.526,-0.577 0.536,-0.548 0.536,-0.512C0.536,-0.486 0.532,-0.465 0.523,-0.449C0.514,-0.432 0.501,-0.419 0.487,-0.41C0.472,-0.4 0.454,-0.393 0.434,-0.39C0.414,-0.387 0.393,-0.385 0.371,-0.385Z" style="fill-rule:nonzero;"/>
        </g>
    </g>
    <path d="M977.243,226.454L977.243,134.788L1002.56,180.621L977.243,226.454Z" style="fill:rgb(169,50,38);fill-rule:nonzero;stroke:black;stroke-width:4.17px;"/>
    <g transform="matrix(0.707107,-0.707107,0.707107,0.707107,975.726,112.312)">
        <g transform="matrix(41.667,0,0,41.667,0,0)">
            <path d="M0.51,-0.044L0.51,-0.517L0.43,-0.517L0.43,-0.443L0.429,-0.443C0.414,-0.472 0.392,-0.493 0.365,-0.508C0.338,-0.522 0.308,-0.529 0.275,-0.529C0.23,-0.529 0.193,-0.521 0.162,-0.504C0.131,-0.487 0.107,-0.465 0.088,-0.439C0.069,-0.412 0.056,-0.383 0.048,-0.351C0.04,-0.318 0.036,-0.287 0.036,-0.256C0.036,-0.221 0.041,-0.187 0.051,-0.156C0.06,-0.124 0.075,-0.096 0.094,-0.073C0.113,-0.049 0.137,-0.03 0.166,-0.016C0.195,-0.002 0.228,0.005 0.267,0.005C0.3,0.005 0.332,-0.003 0.362,-0.018C0.391,-0.033 0.413,-0.056 0.428,-0.088L0.43,-0.088L0.43,-0.054C0.43,-0.025 0.427,0.001 0.422,0.025C0.416,0.049 0.407,0.07 0.394,0.087C0.381,0.103 0.365,0.117 0.346,0.127C0.327,0.136 0.303,0.141 0.275,0.141C0.261,0.141 0.246,0.14 0.231,0.137C0.216,0.134 0.202,0.129 0.189,0.122C0.175,0.115 0.165,0.107 0.156,0.096C0.147,0.085 0.142,0.072 0.141,0.057L0.056,0.057C0.057,0.085 0.065,0.109 0.078,0.128C0.091,0.147 0.108,0.163 0.129,0.175C0.149,0.187 0.171,0.196 0.197,0.201C0.222,0.206 0.246,0.209 0.27,0.209C0.353,0.209 0.413,0.188 0.452,0.146C0.491,0.104 0.51,0.041 0.51,-0.044ZM0.272,-0.069C0.244,-0.069 0.221,-0.075 0.202,-0.087C0.183,-0.098 0.168,-0.114 0.157,-0.133C0.146,-0.152 0.138,-0.173 0.133,-0.196C0.128,-0.219 0.126,-0.243 0.126,-0.266C0.126,-0.291 0.129,-0.314 0.135,-0.337C0.14,-0.36 0.149,-0.38 0.162,-0.397C0.174,-0.414 0.19,-0.428 0.209,-0.439C0.228,-0.449 0.252,-0.454 0.279,-0.454C0.306,-0.454 0.328,-0.449 0.347,-0.438C0.366,-0.427 0.381,-0.413 0.393,-0.396C0.404,-0.378 0.413,-0.358 0.418,-0.336C0.423,-0.314 0.426,-0.292 0.426,-0.269C0.426,-0.245 0.423,-0.221 0.418,-0.197C0.412,-0.173 0.403,-0.152 0.391,-0.133C0.379,-0.114 0.363,-0.098 0.344,-0.087C0.324,-0.075 0.3,-0.069 0.272,-0.069Z" style="fill-rule:nonzero;"/>
        </g>
        <g transform="matrix(41.667,0,0,41.667,23.9169,0)">
            <path d="M0.415,-0.351L0.503,-0.351C0.5,-0.382 0.492,-0.408 0.479,-0.431C0.466,-0.453 0.45,-0.471 0.431,-0.486C0.411,-0.501 0.388,-0.511 0.363,-0.519C0.337,-0.526 0.309,-0.529 0.28,-0.529C0.239,-0.529 0.204,-0.522 0.173,-0.508C0.142,-0.493 0.117,-0.474 0.097,-0.449C0.076,-0.424 0.061,-0.394 0.051,-0.361C0.041,-0.327 0.036,-0.291 0.036,-0.252C0.036,-0.213 0.041,-0.178 0.052,-0.146C0.062,-0.113 0.077,-0.085 0.098,-0.062C0.118,-0.039 0.143,-0.021 0.174,-0.008C0.204,0.005 0.239,0.011 0.278,0.011C0.344,0.011 0.396,-0.006 0.435,-0.041C0.473,-0.076 0.497,-0.125 0.506,-0.189L0.419,-0.189C0.414,-0.149 0.399,-0.118 0.376,-0.096C0.352,-0.074 0.319,-0.063 0.277,-0.063C0.25,-0.063 0.227,-0.068 0.208,-0.079C0.189,-0.09 0.173,-0.104 0.161,-0.122C0.149,-0.139 0.14,-0.159 0.135,-0.182C0.129,-0.205 0.126,-0.228 0.126,-0.252C0.126,-0.278 0.129,-0.303 0.134,-0.328C0.139,-0.352 0.148,-0.373 0.161,-0.392C0.173,-0.411 0.189,-0.426 0.21,-0.437C0.231,-0.448 0.256,-0.454 0.287,-0.454C0.323,-0.454 0.352,-0.445 0.373,-0.427C0.394,-0.409 0.408,-0.384 0.415,-0.351Z" style="fill-rule:nonzero;"/>
        </g>
        <g transform="matrix(41.667,0,0,41.667,46.292,0)">
            <path d="M0.182,-0.517L0.182,-0.672L0.097,-0.672L0.097,-0.517L0.009,-0.517L0.009,-0.442L0.097,-0.442L0.097,-0.113C0.097,-0.089 0.099,-0.07 0.104,-0.055C0.109,-0.04 0.116,-0.029 0.126,-0.021C0.135,-0.013 0.148,-0.008 0.164,-0.005C0.179,-0.002 0.198,-0 0.22,-0L0.285,-0L0.285,-0.075L0.246,-0.075C0.233,-0.075 0.222,-0.076 0.214,-0.077C0.205,-0.078 0.199,-0.08 0.194,-0.083C0.189,-0.086 0.186,-0.091 0.185,-0.097C0.183,-0.103 0.182,-0.111 0.182,-0.121L0.182,-0.442L0.285,-0.442L0.285,-0.517L0.182,-0.517Z" style="fill-rule:nonzero;"/>
        </g>
    </g>
    <path d="M1001.87,155.621L1018.62,155.621L1018.62,134.788L1068.62,180.621L1018.62,226.454L1018.62,205.621L1001.87,205.621L1001.87,155.621Z" style="fill:rgb(158,81,22);fill-rule:nonzero;stroke:black;stroke-width:4.17px;"/>
    <g transform="matrix(0.707107,-0.707107,0.707107,0.707107,1021.07,112.312)">
        <g transform="matrix(41.667,0,0,41.667,0,0)">
            <path d="M0.099,-0.442L0.099,-0L0.184,-0L0.184,-0.442L0.284,-0.442L0.284,-0.517L0.184,-0.517L0.184,-0.589C0.184,-0.612 0.19,-0.627 0.201,-0.635C0.212,-0.643 0.228,-0.647 0.249,-0.647C0.256,-0.647 0.264,-0.647 0.273,-0.646C0.282,-0.645 0.29,-0.643 0.297,-0.64L0.297,-0.714C0.289,-0.717 0.28,-0.719 0.27,-0.72C0.259,-0.721 0.25,-0.722 0.242,-0.722C0.195,-0.722 0.16,-0.711 0.136,-0.69C0.111,-0.668 0.099,-0.636 0.099,-0.594L0.099,-0.517L0.012,-0.517L0.012,-0.442L0.099,-0.442Z" style="fill-rule:nonzero;"/>
        </g>
        <g transform="matrix(41.667,0,0,41.667,12.3334,0)">
            <path d="M0.064,-0.517L0.064,-0L0.149,-0L0.149,-0.292C0.149,-0.315 0.152,-0.337 0.159,-0.357C0.165,-0.376 0.174,-0.393 0.187,-0.408C0.2,-0.423 0.216,-0.434 0.235,-0.442C0.254,-0.45 0.276,-0.454 0.302,-0.454C0.335,-0.454 0.36,-0.445 0.379,-0.426C0.398,-0.407 0.407,-0.382 0.407,-0.35L0.407,-0L0.492,-0L0.492,-0.34C0.492,-0.368 0.489,-0.393 0.484,-0.417C0.478,-0.44 0.468,-0.459 0.454,-0.476C0.44,-0.493 0.422,-0.506 0.399,-0.515C0.376,-0.524 0.348,-0.529 0.314,-0.529C0.237,-0.529 0.181,-0.498 0.146,-0.435L0.144,-0.435L0.144,-0.517L0.064,-0.517Z" style="fill-rule:nonzero;"/>
        </g>
        <g transform="matrix(41.667,0,0,41.667,35.5003,0)">
            <rect x="0.069" y="-0.714" width="0.085" height="0.714" style="fill-rule:nonzero;"/>
        </g>
        <g transform="matrix(41.667,0,0,41.667,44.7504,0)">
            <path d="M0.201,-0.295L0.322,-0.628L0.324,-0.628L0.443,-0.295L0.201,-0.295ZM0.272,-0.714L-0.006,-0L0.091,-0L0.171,-0.215L0.473,-0.215L0.551,-0L0.656,-0L0.377,-0.714L0.272,-0.714Z" style="fill-rule:nonzero;"/>
        </g>
    </g>
    <path d="M1074.81,155.621L1101.68,155.621L1101.68,134.788L1151.68,180.621L1101.68,226.454L1101.68,205.621L1074.81,205.621L1074.81,155.621Z" style="fill:rgb(158,81,22);fill-rule:nonzero;stroke:black;stroke-width:4.17px;"/>
    <g transform="matrix(0.707107,-0.707107,0.707107,0.707107,1099.07,112.312)">
        <g transform="matrix(41.667,0,0,41.667,0,0)">
            <path d="M0.099,-0.442L0.099,-0L0.184,-0L0.184,-0.442L0.284,-0.442L0.284,-0.517L0.184,-0.517L0.184,-0.589C0.184,-0.612 0.19,-0.627 0.201,-0.635C0.212,-0.643 0.228,-0.647 0.249,-0.647C0.256,-0.647 0.264,-0.647 0.273,-0.646C0.282,-0.645 0.29,-0.643 0.297,-0.64L0.297,-0.714C0.289,-0.717 0.28,-0.719 0.27,-0.72C0.259,-0.721 0.25,-0.722 0.242,-0.722C0.195,-0.722 0.16,-0.711 0.136,-0.69C0.111,-0.668 0.099,-0.636 0.099,-0.594L0.099,-0.517L0.012,-0.517L0.012,-0.442L0.099,-0.442Z" style="fill-rule:nonzero;"/>
        </g>
        <g transform="matrix(41.667,0,0,41.667,12.3334,0)">
            <path d="M0.064,-0.517L0.064,-0L0.149,-0L0.149,-0.292C0.149,-0.315 0.152,-0.337 0.159,-0.357C0.165,-0.376 0.174,-0.393 0.187,-0.408C0.2,-0.423 0.216,-0.434 0.235,-0.442C0.254,-0.45 0.276,-0.454 0.302,-0.454C0.335,-0.454 0.36,-0.445 0.379,-0.426C0.398,-0.407 0.407,-0.382 0.407,-0.35L0.407,-0L0.492,-0L0.492,-0.34C0.492,-0.368 0.489,-0.393 0.484,-0.417C0.478,-0.44 0.468,-0.459 0.454,-0.476C0.44,-0.493 0.422,-0.506 0.399,-0.515C0.376,-0.524 0.348,-0.529 0.314,-0.529C0.237,-0.529 0.181,-0.498 0.146,-0.435L0.144,-0.435L0.144,-0.517L0.064,-0.517Z" style="fill-rule:nonzero;"/>
        </g>
        <g transform="matrix(41.667,0,0,41.667,35.5003,0)">
            <rect x="0.069" y="-0.714" width="0.085" height="0.714" style="fill-rule:nonzero;"/>
        </g>
        <g transform="matrix(41.667,0,0,41.667,44.7504,0)">
            <path d="M0.173,-0.407L0.173,-0.634L0.363,-0.634C0.384,-0.634 0.403,-0.633 0.422,-0.631C0.44,-0.628 0.456,-0.623 0.47,-0.615C0.484,-0.607 0.495,-0.596 0.503,-0.581C0.511,-0.566 0.515,-0.546 0.515,-0.521C0.515,-0.483 0.503,-0.455 0.48,-0.436C0.456,-0.417 0.417,-0.407 0.363,-0.407L0.173,-0.407ZM0.078,-0.714L0.078,-0L0.423,-0C0.458,-0 0.49,-0.006 0.517,-0.018C0.544,-0.029 0.566,-0.045 0.585,-0.064C0.603,-0.083 0.617,-0.104 0.626,-0.129C0.635,-0.154 0.64,-0.179 0.64,-0.205C0.64,-0.249 0.628,-0.286 0.605,-0.317C0.582,-0.348 0.548,-0.368 0.504,-0.377L0.504,-0.379C0.538,-0.392 0.564,-0.413 0.583,-0.441C0.601,-0.468 0.61,-0.501 0.61,-0.539C0.61,-0.575 0.602,-0.605 0.586,-0.63C0.569,-0.655 0.549,-0.674 0.526,-0.688C0.515,-0.695 0.503,-0.7 0.488,-0.703C0.472,-0.706 0.456,-0.709 0.439,-0.711C0.422,-0.712 0.404,-0.713 0.387,-0.714C0.369,-0.714 0.352,-0.714 0.337,-0.714L0.078,-0.714ZM0.173,-0.08L0.173,-0.327L0.39,-0.327C0.41,-0.327 0.429,-0.325 0.448,-0.322C0.467,-0.318 0.483,-0.312 0.498,-0.303C0.512,-0.294 0.523,-0.281 0.532,-0.266C0.541,-0.251 0.545,-0.231 0.545,-0.208C0.545,-0.168 0.533,-0.137 0.51,-0.114C0.486,-0.091 0.453,-0.08 0.411,-0.08L0.173,-0.08Z" style="fill-rule:nonzero;"/>
        </g>
    </g>
    <path d="M1151.68,155.621L1175.74,155.621L1175.74,134.788L1225.74,180.621L1175.74,226.454L1175.74,205.621L1151.68,205.621L1151.68,155.621Z" style="fill:rgb(158,81,22);fill-rule:nonzero;stroke:black;stroke-width:4.17px;"/>
    <g transform="matrix(0.707107,-0.707107,0.707107,0.707107,1174.54,112.31)">
        <g transform="matrix(41.667,0,0,41.667,0,0)">
            <path d="M0.099,-0.442L0.099,-0L0.184,-0L0.184,-0.442L0.284,-0.442L0.284,-0.517L0.184,-0.517L0.184,-0.589C0.184,-0.612 0.19,-0.627 0.201,-0.635C0.212,-0.643 0.228,-0.647 0.249,-0.647C0.256,-0.647 0.264,-0.647 0.273,-0.646C0.282,-0.645 0.29,-0.643 0.297,-0.64L0.297,-0.714C0.289,-0.717 0.28,-0.719 0.27,-0.72C0.259,-0.721 0.25,-0.722 0.242,-0.722C0.195,-0.722 0.16,-0.711 0.136,-0.69C0.111,-0.668 0.099,-0.636 0.099,-0.594L0.099,-0.517L0.012,-0.517L0.012,-0.442L0.099,-0.442Z" style="fill-rule:nonzero;"/>
        </g>
        <g transform="matrix(41.667,0,0,41.667,12.3334,0)">
            <path d="M0.064,-0.517L0.064,-0L0.149,-0L0.149,-0.292C0.149,-0.315 0.152,-0.337 0.159,-0.357C0.165,-0.376 0.174,-0.393 0.187,-0.408C0.2,-0.423 0.216,-0.434 0.235,-0.442C0.254,-0.45 0.276,-0.454 0.302,-0.454C0.335,-0.454 0.36,-0.445 0.379,-0.426C0.398,-0.407 0.407,-0.382 0.407,-0.35L0.407,-0L0.492,-0L0.492,-0.34C0.492,-0.368 0.489,-0.393 0.484,-0.417C0.478,-0.44 0.468,-0.459 0.454,-0.476C0.44,-0.493 0.422,-0.506 0.399,-0.515C0.376,-0.524 0.348,-0.529 0.314,-0.529C0.237,-0.529 0.181,-0.498 0.146,-0.435L0.144,-0.435L0.144,-0.517L0.064,-0.517Z" style="fill-rule:nonzero;"/>
        </g>
        <g transform="matrix(41.667,0,0,41.667,35.5003,0)">
            <rect x="0.069" y="-0.714" width="0.085" height="0.714" style="fill-rule:nonzero;"/>
        </g>
        <g transform="matrix(41.667,0,0,41.667,44.7504,0)">
            <path d="M0.58,-0.499L0.675,-0.499C0.67,-0.537 0.658,-0.571 0.641,-0.6C0.624,-0.628 0.602,-0.653 0.576,-0.672C0.55,-0.691 0.52,-0.706 0.487,-0.716C0.454,-0.726 0.418,-0.731 0.381,-0.731C0.326,-0.731 0.278,-0.721 0.236,-0.702C0.193,-0.682 0.158,-0.655 0.13,-0.621C0.101,-0.587 0.08,-0.547 0.065,-0.502C0.05,-0.456 0.043,-0.407 0.043,-0.355C0.043,-0.303 0.05,-0.254 0.064,-0.209C0.077,-0.164 0.098,-0.124 0.125,-0.091C0.152,-0.058 0.187,-0.032 0.228,-0.013C0.269,0.007 0.318,0.016 0.373,0.016C0.464,0.016 0.536,-0.009 0.589,-0.059C0.642,-0.109 0.673,-0.179 0.682,-0.269L0.587,-0.269C0.585,-0.24 0.579,-0.212 0.569,-0.187C0.559,-0.162 0.545,-0.14 0.528,-0.122C0.51,-0.103 0.489,-0.089 0.465,-0.079C0.44,-0.068 0.412,-0.063 0.381,-0.063C0.338,-0.063 0.302,-0.071 0.271,-0.087C0.24,-0.103 0.215,-0.125 0.196,-0.152C0.176,-0.179 0.161,-0.21 0.152,-0.247C0.143,-0.283 0.138,-0.321 0.138,-0.362C0.138,-0.399 0.143,-0.435 0.152,-0.47C0.161,-0.505 0.176,-0.536 0.196,-0.563C0.215,-0.59 0.24,-0.611 0.271,-0.627C0.301,-0.643 0.337,-0.651 0.38,-0.651C0.43,-0.651 0.473,-0.638 0.51,-0.613C0.546,-0.588 0.569,-0.55 0.58,-0.499Z" style="fill-rule:nonzero;"/>
        </g>
    </g>
    <path d="M1318.87,155.621L1309.81,155.621L1309.81,134.788L1259.81,180.621L1309.81,226.454L1309.81,205.621L1318.87,205.621L1318.87,155.621Z" style="fill:rgb(243,207,198);fill-rule:nonzero;stroke:black;stroke-width:4.17px;"/>
    <g transform="matrix(0.707107,-0.707107,0.707107,0.707107,1275.16,112.314)">
        <g transform="matrix(41.667,0,0,41.667,0,0)">
            <path d="M0.182,-0.517L0.182,-0.672L0.097,-0.672L0.097,-0.517L0.009,-0.517L0.009,-0.442L0.097,-0.442L0.097,-0.113C0.097,-0.089 0.099,-0.07 0.104,-0.055C0.109,-0.04 0.116,-0.029 0.126,-0.021C0.135,-0.013 0.148,-0.008 0.164,-0.005C0.179,-0.002 0.198,-0 0.22,-0L0.285,-0L0.285,-0.075L0.246,-0.075C0.233,-0.075 0.222,-0.076 0.214,-0.077C0.205,-0.078 0.199,-0.08 0.194,-0.083C0.189,-0.086 0.186,-0.091 0.185,-0.097C0.183,-0.103 0.182,-0.111 0.182,-0.121L0.182,-0.442L0.285,-0.442L0.285,-0.517L0.182,-0.517Z" style="fill-rule:nonzero;"/>
        </g>
        <g transform="matrix(41.667,0,0,41.667,13.1251,0)">
            <path d="M0.064,-0.517L0.064,-0L0.149,-0L0.149,-0.292C0.149,-0.315 0.152,-0.337 0.159,-0.357C0.165,-0.376 0.174,-0.393 0.187,-0.408C0.2,-0.423 0.216,-0.434 0.235,-0.442C0.254,-0.45 0.276,-0.454 0.302,-0.454C0.335,-0.454 0.36,-0.445 0.379,-0.426C0.398,-0.407 0.407,-0.382 0.407,-0.35L0.407,-0L0.492,-0L0.492,-0.34C0.492,-0.368 0.489,-0.393 0.484,-0.417C0.478,-0.44 0.468,-0.459 0.454,-0.476C0.44,-0.493 0.422,-0.506 0.399,-0.515C0.376,-0.524 0.348,-0.529 0.314,-0.529C0.237,-0.529 0.181,-0.498 0.146,-0.435L0.144,-0.435L0.144,-0.517L0.064,-0.517Z" style="fill-rule:nonzero;"/>
        </g>
        <g transform="matrix(41.667,0,0,41.667,36.292,0)">
            <path d="M0.067,-0.517L0.067,0.197L0.152,0.197L0.152,-0.069L0.154,-0.069C0.163,-0.054 0.175,-0.041 0.189,-0.031C0.202,-0.02 0.217,-0.012 0.232,-0.006C0.247,0 0.263,0.004 0.279,0.007C0.294,0.01 0.308,0.011 0.321,0.011C0.36,0.011 0.395,0.004 0.425,-0.01C0.454,-0.024 0.479,-0.043 0.499,-0.068C0.518,-0.092 0.533,-0.12 0.543,-0.153C0.552,-0.186 0.557,-0.22 0.557,-0.257C0.557,-0.294 0.552,-0.328 0.542,-0.361C0.532,-0.394 0.517,-0.423 0.498,-0.448C0.478,-0.472 0.453,-0.492 0.424,-0.507C0.394,-0.522 0.359,-0.529 0.319,-0.529C0.283,-0.529 0.25,-0.523 0.22,-0.51C0.19,-0.497 0.168,-0.476 0.154,-0.447L0.152,-0.447L0.152,-0.517L0.067,-0.517ZM0.467,-0.263C0.467,-0.238 0.464,-0.213 0.459,-0.189C0.454,-0.165 0.445,-0.144 0.433,-0.125C0.421,-0.106 0.405,-0.091 0.386,-0.08C0.366,-0.069 0.341,-0.063 0.312,-0.063C0.283,-0.063 0.258,-0.069 0.237,-0.08C0.216,-0.091 0.2,-0.105 0.187,-0.123C0.173,-0.141 0.164,-0.162 0.158,-0.186C0.152,-0.209 0.149,-0.234 0.149,-0.259C0.149,-0.283 0.152,-0.307 0.158,-0.33C0.163,-0.353 0.172,-0.374 0.185,-0.393C0.198,-0.411 0.214,-0.426 0.234,-0.437C0.254,-0.448 0.278,-0.454 0.307,-0.454C0.334,-0.454 0.358,-0.449 0.379,-0.438C0.399,-0.427 0.416,-0.413 0.429,-0.395C0.442,-0.377 0.451,-0.357 0.458,-0.334C0.464,-0.311 0.467,-0.287 0.467,-0.263Z" style="fill-rule:nonzero;"/>
        </g>
    </g>
    <path d="M1332.99,226.454L1332.99,134.788L1348.93,180.621L1332.99,226.454Z" style="fill:rgb(196,164,132);fill-rule:nonzero;stroke:black;stroke-width:4.17px;"/>
    <g transform="matrix(0.707107,-0.707107,0.707107,0.707107,1326.79,112.31)">
        <g transform="matrix(41.667,0,0,41.667,0,0)">
            <path d="M0.078,-0.714L0.078,-0L0.173,-0L0.173,-0.327L0.549,-0.327L0.549,-0L0.644,-0L0.644,-0.714L0.549,-0.714L0.549,-0.407L0.173,-0.407L0.173,-0.714L0.078,-0.714Z" style="fill-rule:nonzero;"/>
        </g>
        <g transform="matrix(41.667,0,0,41.667,30.0836,0)">
            <path d="M0.612,-0.089L0.637,-0L0.697,-0L0.697,-0.376L0.384,-0.376L0.384,-0.296L0.612,-0.296C0.613,-0.263 0.609,-0.233 0.599,-0.205C0.589,-0.176 0.574,-0.152 0.555,-0.131C0.535,-0.11 0.511,-0.093 0.482,-0.081C0.453,-0.069 0.42,-0.063 0.383,-0.063C0.343,-0.063 0.308,-0.071 0.278,-0.087C0.247,-0.102 0.222,-0.123 0.201,-0.15C0.18,-0.176 0.165,-0.206 0.154,-0.241C0.143,-0.275 0.138,-0.311 0.138,-0.348C0.138,-0.386 0.143,-0.423 0.152,-0.46C0.161,-0.496 0.176,-0.528 0.196,-0.557C0.215,-0.585 0.241,-0.608 0.272,-0.625C0.303,-0.642 0.34,-0.651 0.383,-0.651C0.41,-0.651 0.435,-0.648 0.459,-0.642C0.482,-0.635 0.503,-0.626 0.522,-0.613C0.541,-0.6 0.556,-0.584 0.569,-0.565C0.582,-0.545 0.59,-0.521 0.595,-0.494L0.69,-0.494C0.683,-0.536 0.671,-0.572 0.653,-0.602C0.634,-0.631 0.612,-0.656 0.585,-0.675C0.558,-0.694 0.527,-0.708 0.493,-0.718C0.458,-0.727 0.422,-0.731 0.383,-0.731C0.326,-0.731 0.277,-0.721 0.235,-0.7C0.192,-0.679 0.157,-0.65 0.129,-0.615C0.1,-0.58 0.079,-0.539 0.065,-0.492C0.05,-0.444 0.043,-0.395 0.043,-0.343C0.043,-0.296 0.051,-0.251 0.066,-0.208C0.081,-0.165 0.104,-0.126 0.133,-0.093C0.162,-0.06 0.198,-0.033 0.24,-0.014C0.282,0.006 0.33,0.016 0.383,0.016C0.425,0.016 0.467,0.008 0.508,-0.009C0.549,-0.025 0.584,-0.052 0.612,-0.089Z" style="fill-rule:nonzero;"/>
        </g>
        <g transform="matrix(41.667,0,0,41.667,61.7088,0)">
            <path d="M0.044,-0.458L0.129,-0.458C0.128,-0.479 0.131,-0.501 0.136,-0.522C0.141,-0.543 0.149,-0.561 0.16,-0.578C0.171,-0.595 0.186,-0.608 0.204,-0.619C0.221,-0.629 0.242,-0.634 0.267,-0.634C0.286,-0.634 0.303,-0.631 0.32,-0.625C0.337,-0.619 0.351,-0.61 0.364,-0.599C0.376,-0.588 0.386,-0.574 0.393,-0.559C0.4,-0.543 0.404,-0.525 0.404,-0.506C0.404,-0.481 0.4,-0.46 0.393,-0.441C0.385,-0.422 0.374,-0.405 0.359,-0.389C0.343,-0.373 0.325,-0.357 0.302,-0.342C0.279,-0.326 0.253,-0.309 0.223,-0.29C0.198,-0.275 0.175,-0.26 0.152,-0.243C0.129,-0.226 0.109,-0.207 0.091,-0.185C0.073,-0.163 0.058,-0.137 0.047,-0.108C0.035,-0.078 0.027,-0.042 0.024,-0L0.487,-0L0.487,-0.075L0.123,-0.075C0.127,-0.097 0.135,-0.117 0.149,-0.134C0.162,-0.151 0.177,-0.166 0.196,-0.181C0.214,-0.196 0.234,-0.21 0.256,-0.223C0.278,-0.236 0.3,-0.249 0.322,-0.262C0.344,-0.276 0.365,-0.291 0.386,-0.306C0.407,-0.321 0.425,-0.339 0.441,-0.358C0.457,-0.377 0.47,-0.398 0.48,-0.422C0.489,-0.446 0.494,-0.474 0.494,-0.505C0.494,-0.538 0.488,-0.568 0.477,-0.593C0.465,-0.618 0.449,-0.64 0.429,-0.657C0.409,-0.674 0.386,-0.687 0.359,-0.696C0.331,-0.705 0.303,-0.709 0.272,-0.709C0.235,-0.709 0.201,-0.703 0.172,-0.69C0.143,-0.677 0.118,-0.66 0.099,-0.638C0.079,-0.615 0.064,-0.589 0.055,-0.558C0.046,-0.527 0.042,-0.494 0.044,-0.458Z" style="fill-rule:nonzero;"/>
        </g>
        <g transform="matrix(41.667,0,0,41.667,84.8757,0)">
            <path d="M0.509,-0.624L0.509,-0.697L0.05,-0.697L0.05,-0.617L0.422,-0.617C0.385,-0.578 0.35,-0.535 0.318,-0.488C0.285,-0.441 0.257,-0.392 0.232,-0.34C0.207,-0.287 0.187,-0.233 0.172,-0.176C0.156,-0.119 0.146,-0.06 0.142,-0L0.237,-0C0.24,-0.055 0.25,-0.112 0.265,-0.171C0.28,-0.23 0.3,-0.287 0.325,-0.342C0.349,-0.397 0.377,-0.449 0.408,-0.498C0.439,-0.547 0.473,-0.589 0.509,-0.624Z" style="fill-rule:nonzero;"/>
        </g>
        <g transform="matrix(41.667,0,0,41.667,108.043,0)">
            <path d="M0.218,-0.405L0.218,-0.333C0.234,-0.335 0.251,-0.336 0.269,-0.336C0.29,-0.336 0.31,-0.333 0.329,-0.328C0.347,-0.322 0.363,-0.313 0.376,-0.302C0.389,-0.29 0.4,-0.276 0.408,-0.259C0.416,-0.242 0.42,-0.222 0.42,-0.2C0.42,-0.179 0.416,-0.16 0.408,-0.143C0.399,-0.126 0.388,-0.111 0.374,-0.1C0.36,-0.088 0.344,-0.079 0.325,-0.073C0.306,-0.066 0.287,-0.063 0.266,-0.063C0.217,-0.063 0.18,-0.078 0.155,-0.107C0.13,-0.135 0.116,-0.173 0.115,-0.219L0.03,-0.219C0.029,-0.182 0.035,-0.15 0.046,-0.121C0.056,-0.092 0.072,-0.068 0.093,-0.049C0.114,-0.029 0.139,-0.014 0.168,-0.004C0.197,0.006 0.23,0.011 0.266,0.011C0.299,0.011 0.331,0.007 0.361,-0.003C0.39,-0.012 0.416,-0.025 0.438,-0.043C0.46,-0.061 0.478,-0.084 0.491,-0.111C0.503,-0.137 0.51,-0.169 0.51,-0.204C0.51,-0.247 0.5,-0.284 0.479,-0.315C0.458,-0.346 0.425,-0.367 0.382,-0.376L0.382,-0.378C0.41,-0.391 0.433,-0.409 0.452,-0.434C0.471,-0.459 0.48,-0.487 0.48,-0.519C0.48,-0.552 0.474,-0.58 0.464,-0.604C0.452,-0.628 0.437,-0.648 0.418,-0.663C0.399,-0.678 0.376,-0.69 0.35,-0.698C0.323,-0.705 0.295,-0.709 0.264,-0.709C0.229,-0.709 0.198,-0.703 0.171,-0.692C0.143,-0.681 0.121,-0.665 0.103,-0.645C0.085,-0.625 0.071,-0.601 0.062,-0.573C0.052,-0.545 0.046,-0.514 0.045,-0.48L0.13,-0.48C0.13,-0.501 0.133,-0.52 0.138,-0.539C0.143,-0.558 0.152,-0.574 0.163,-0.588C0.173,-0.602 0.188,-0.613 0.205,-0.622C0.222,-0.63 0.241,-0.634 0.264,-0.634C0.3,-0.634 0.33,-0.624 0.354,-0.606C0.378,-0.587 0.39,-0.558 0.39,-0.52C0.39,-0.501 0.386,-0.485 0.379,-0.47C0.372,-0.455 0.362,-0.443 0.35,-0.434C0.337,-0.424 0.323,-0.417 0.307,-0.412C0.29,-0.407 0.273,-0.404 0.255,-0.404L0.227,-0.404C0.224,-0.404 0.221,-0.404 0.218,-0.405Z" style="fill-rule:nonzero;"/>
        </g>
    </g>
    <path d="M1354.62,226.454L1354.62,134.788L1399.87,180.621L1354.62,226.454Z" style="fill:rgb(243,207,198);fill-rule:nonzero;stroke:black;stroke-width:4.17px;"/>
    <g transform="matrix(0.707107,-0.707107,0.707107,0.707107,1363.07,112.311)">
        <g transform="matrix(41.667,0,0,41.667,0,0)">
            <path d="M0.182,-0.517L0.182,-0.672L0.097,-0.672L0.097,-0.517L0.009,-0.517L0.009,-0.442L0.097,-0.442L0.097,-0.113C0.097,-0.089 0.099,-0.07 0.104,-0.055C0.109,-0.04 0.116,-0.029 0.126,-0.021C0.135,-0.013 0.148,-0.008 0.164,-0.005C0.179,-0.002 0.198,-0 0.22,-0L0.285,-0L0.285,-0.075L0.246,-0.075C0.233,-0.075 0.222,-0.076 0.214,-0.077C0.205,-0.078 0.199,-0.08 0.194,-0.083C0.189,-0.086 0.186,-0.091 0.185,-0.097C0.183,-0.103 0.182,-0.111 0.182,-0.121L0.182,-0.442L0.285,-0.442L0.285,-0.517L0.182,-0.517Z" style="fill-rule:nonzero;"/>
        </g>
        <g transform="matrix(41.667,0,0,41.667,13.1251,0)">
            <path d="M0.064,-0.517L0.064,-0L0.149,-0L0.149,-0.292C0.149,-0.315 0.152,-0.337 0.159,-0.357C0.165,-0.376 0.174,-0.393 0.187,-0.408C0.2,-0.423 0.216,-0.434 0.235,-0.442C0.254,-0.45 0.276,-0.454 0.302,-0.454C0.335,-0.454 0.36,-0.445 0.379,-0.426C0.398,-0.407 0.407,-0.382 0.407,-0.35L0.407,-0L0.492,-0L0.492,-0.34C0.492,-0.368 0.489,-0.393 0.484,-0.417C0.478,-0.44 0.468,-0.459 0.454,-0.476C0.44,-0.493 0.422,-0.506 0.399,-0.515C0.376,-0.524 0.348,-0.529 0.314,-0.529C0.237,-0.529 0.181,-0.498 0.146,-0.435L0.144,-0.435L0.144,-0.517L0.064,-0.517Z" style="fill-rule:nonzero;"/>
        </g>
        <g transform="matrix(41.667,0,0,41.667,36.292,0)">
            <path d="M0.067,-0.517L0.067,0.197L0.152,0.197L0.152,-0.069L0.154,-0.069C0.163,-0.054 0.175,-0.041 0.189,-0.031C0.202,-0.02 0.217,-0.012 0.232,-0.006C0.247,0 0.263,0.004 0.279,0.007C0.294,0.01 0.308,0.011 0.321,0.011C0.36,0.011 0.395,0.004 0.425,-0.01C0.454,-0.024 0.479,-0.043 0.499,-0.068C0.518,-0.092 0.533,-0.12 0.543,-0.153C0.552,-0.186 0.557,-0.22 0.557,-0.257C0.557,-0.294 0.552,-0.328 0.542,-0.361C0.532,-0.394 0.517,-0.423 0.498,-0.448C0.478,-0.472 0.453,-0.492 0.424,-0.507C0.394,-0.522 0.359,-0.529 0.319,-0.529C0.283,-0.529 0.25,-0.523 0.22,-0.51C0.19,-0.497 0.168,-0.476 0.154,-0.447L0.152,-0.447L0.152,-0.517L0.067,-0.517ZM0.467,-0.263C0.467,-0.238 0.464,-0.213 0.459,-0.189C0.454,-0.165 0.445,-0.144 0.433,-0.125C0.421,-0.106 0.405,-0.091 0.386,-0.08C0.366,-0.069 0.341,-0.063 0.312,-0.063C0.283,-0.063 0.258,-0.069 0.237,-0.08C0.216,-0.091 0.2,-0.105 0.187,-0.123C0.173,-0.141 0.164,-0.162 0.158,-0.186C0.152,-0.209 0.149,-0.234 0.149,-0.259C0.149,-0.283 0.152,-0.307 0.158,-0.33C0.163,-0.353 0.172,-0.374 0.185,-0.393C0.198,-0.411 0.214,-0.426 0.234,-0.437C0.254,-0.448 0.278,-0.454 0.307,-0.454C0.334,-0.454 0.358,-0.449 0.379,-0.438C0.399,-0.427 0.416,-0.413 0.429,-0.395C0.442,-0.377 0.451,-0.357 0.458,-0.334C0.464,-0.311 0.467,-0.287 0.467,-0.263Z" style="fill-rule:nonzero;"/>
        </g>
    </g>
    <path d="M1418.12,155.621L1422.5,155.621L1422.5,134.788L1472.5,180.621L1422.5,226.454L1422.5,205.621L1418.12,205.621L1418.12,155.621Z" style="fill:rgb(159,226,191);fill-rule:nonzero;stroke:black;stroke-width:4.17px;"/>
    <g transform="matrix(0.707107,-0.707107,0.707107,0.707107,1431.13,112.315)">
        <g transform="matrix(41.667,0,0,41.667,0,0)">
            <path d="M0.061,-0.517L0.061,-0L0.146,-0L0.146,-0.23C0.146,-0.263 0.149,-0.293 0.156,-0.319C0.163,-0.344 0.173,-0.366 0.188,-0.384C0.203,-0.402 0.222,-0.416 0.246,-0.425C0.27,-0.434 0.299,-0.439 0.333,-0.439L0.333,-0.529C0.287,-0.53 0.249,-0.521 0.219,-0.501C0.189,-0.481 0.164,-0.45 0.143,-0.408L0.141,-0.408L0.141,-0.517L0.061,-0.517Z" style="fill-rule:nonzero;"/>
        </g>
        <g transform="matrix(41.667,0,0,41.667,13.8751,0)">
            <path d="M0.064,-0.517L0.064,-0L0.149,-0L0.149,-0.322C0.149,-0.332 0.152,-0.345 0.157,-0.36C0.162,-0.375 0.169,-0.389 0.181,-0.403C0.192,-0.417 0.206,-0.429 0.224,-0.439C0.241,-0.449 0.262,-0.454 0.287,-0.454C0.306,-0.454 0.322,-0.451 0.335,-0.446C0.347,-0.44 0.357,-0.432 0.364,-0.422C0.371,-0.411 0.377,-0.399 0.38,-0.385C0.383,-0.371 0.384,-0.356 0.384,-0.339L0.384,-0L0.469,-0L0.469,-0.322C0.469,-0.362 0.481,-0.394 0.505,-0.418C0.529,-0.442 0.562,-0.454 0.604,-0.454C0.625,-0.454 0.642,-0.451 0.655,-0.445C0.668,-0.439 0.678,-0.431 0.685,-0.421C0.692,-0.41 0.697,-0.398 0.7,-0.384C0.703,-0.37 0.704,-0.355 0.704,-0.339L0.704,-0L0.789,-0L0.789,-0.379C0.789,-0.406 0.785,-0.428 0.777,-0.448C0.768,-0.467 0.756,-0.482 0.742,-0.494C0.727,-0.506 0.708,-0.515 0.688,-0.521C0.667,-0.526 0.643,-0.529 0.617,-0.529C0.583,-0.529 0.552,-0.521 0.524,-0.506C0.495,-0.491 0.472,-0.469 0.455,-0.441C0.444,-0.473 0.426,-0.496 0.4,-0.509C0.374,-0.522 0.345,-0.529 0.313,-0.529C0.24,-0.529 0.185,-0.5 0.146,-0.441L0.144,-0.441L0.144,-0.517L0.064,-0.517Z" style="fill-rule:nonzero;"/>
        </g>
        <g transform="matrix(41.667,0,0,41.667,49.4171,0)">
            <rect x="0.069" y="-0.714" width="0.085" height="0.714" style="fill-rule:nonzero;"/>
        </g>
        <g transform="matrix(41.667,0,0,41.667,58.6671,0)">
            <path d="M0.201,-0.295L0.322,-0.628L0.324,-0.628L0.443,-0.295L0.201,-0.295ZM0.272,-0.714L-0.006,-0L0.091,-0L0.171,-0.215L0.473,-0.215L0.551,-0L0.656,-0L0.377,-0.714L0.272,-0.714Z" style="fill-rule:nonzero;"/>
        </g>
    </g>
    <path d="M1472.49,226.454L1472.49,134.788L1509.62,180.621L1472.49,226.454Z" style="fill:rgb(159,226,191);fill-rule:nonzero;stroke:black;stroke-width:4.17px;"/>
    <g transform="matrix(0.707107,-0.707107,0.707107,0.707107,1476.88,112.314)">
        <g transform="matrix(41.667,0,0,41.667,0,0)">
            <path d="M0.061,-0.517L0.061,-0L0.146,-0L0.146,-0.23C0.146,-0.263 0.149,-0.293 0.156,-0.319C0.163,-0.344 0.173,-0.366 0.188,-0.384C0.203,-0.402 0.222,-0.416 0.246,-0.425C0.27,-0.434 0.299,-0.439 0.333,-0.439L0.333,-0.529C0.287,-0.53 0.249,-0.521 0.219,-0.501C0.189,-0.481 0.164,-0.45 0.143,-0.408L0.141,-0.408L0.141,-0.517L0.061,-0.517Z" style="fill-rule:nonzero;"/>
        </g>
        <g transform="matrix(41.667,0,0,41.667,13.8751,0)">
            <path d="M0.064,-0.517L0.064,-0L0.149,-0L0.149,-0.322C0.149,-0.332 0.152,-0.345 0.157,-0.36C0.162,-0.375 0.169,-0.389 0.181,-0.403C0.192,-0.417 0.206,-0.429 0.224,-0.439C0.241,-0.449 0.262,-0.454 0.287,-0.454C0.306,-0.454 0.322,-0.451 0.335,-0.446C0.347,-0.44 0.357,-0.432 0.364,-0.422C0.371,-0.411 0.377,-0.399 0.38,-0.385C0.383,-0.371 0.384,-0.356 0.384,-0.339L0.384,-0L0.469,-0L0.469,-0.322C0.469,-0.362 0.481,-0.394 0.505,-0.418C0.529,-0.442 0.562,-0.454 0.604,-0.454C0.625,-0.454 0.642,-0.451 0.655,-0.445C0.668,-0.439 0.678,-0.431 0.685,-0.421C0.692,-0.41 0.697,-0.398 0.7,-0.384C0.703,-0.37 0.704,-0.355 0.704,-0.339L0.704,-0L0.789,-0L0.789,-0.379C0.789,-0.406 0.785,-0.428 0.777,-0.448C0.768,-0.467 0.756,-0.482 0.742,-0.494C0.727,-0.506 0.708,-0.515 0.688,-0.521C0.667,-0.526 0.643,-0.529 0.617,-0.529C0.583,-0.529 0.552,-0.521 0.524,-0.506C0.495,-0.491 0.472,-0.469 0.455,-0.441C0.444,-0.473 0.426,-0.496 0.4,-0.509C0.374,-0.522 0.345,-0.529 0.313,-0.529C0.24,-0.529 0.185,-0.5 0.146,-0.441L0.144,-0.441L0.144,-0.517L0.064,-0.517Z" style="fill-rule:nonzero;"/>
        </g>
        <g transform="matrix(41.667,0,0,41.667,49.4171,0)">
            <rect x="0.069" y="-0.714" width="0.085" height="0.714" style="fill-rule:nonzero;"/>
        </g>
        <g transform="matrix(41.667,0,0,41.667,58.6671,0)">
            <path d="M0.58,-0.499L0.675,-0.499C0.67,-0.537 0.658,-0.571 0.641,-0.6C0.624,-0.628 0.602,-0.653 0.576,-0.672C0.55,-0.691 0.52,-0.706 0.487,-0.716C0.454,-0.726 0.418,-0.731 0.381,-0.731C0.326,-0.731 0.278,-0.721 0.236,-0.702C0.193,-0.682 0.158,-0.655 0.13,-0.621C0.101,-0.587 0.08,-0.547 0.065,-0.502C0.05,-0.456 0.043,-0.407 0.043,-0.355C0.043,-0.303 0.05,-0.254 0.064,-0.209C0.077,-0.164 0.098,-0.124 0.125,-0.091C0.152,-0.058 0.187,-0.032 0.228,-0.013C0.269,0.007 0.318,0.016 0.373,0.016C0.464,0.016 0.536,-0.009 0.589,-0.059C0.642,-0.109 0.673,-0.179 0.682,-0.269L0.587,-0.269C0.585,-0.24 0.579,-0.212 0.569,-0.187C0.559,-0.162 0.545,-0.14 0.528,-0.122C0.51,-0.103 0.489,-0.089 0.465,-0.079C0.44,-0.068 0.412,-0.063 0.381,-0.063C0.338,-0.063 0.302,-0.071 0.271,-0.087C0.24,-0.103 0.215,-0.125 0.196,-0.152C0.176,-0.179 0.161,-0.21 0.152,-0.247C0.143,-0.283 0.138,-0.321 0.138,-0.362C0.138,-0.399 0.143,-0.435 0.152,-0.47C0.161,-0.505 0.176,-0.536 0.196,-0.563C0.215,-0.59 0.24,-0.611 0.271,-0.627C0.301,-0.643 0.337,-0.651 0.38,-0.651C0.43,-0.651 0.473,-0.638 0.51,-0.613C0.546,-0.588 0.569,-0.55 0.58,-0.499Z" style="fill-rule:nonzero;"/>
        </g>
    </g>
    <path d="M1510.37,155.621L1526,155.621L1526,134.788L1576,180.621L1526,226.454L1526,205.621L1510.37,205.621L1510.37,155.621Z" style="fill:rgb(159,226,191);fill-rule:nonzero;stroke:black;stroke-width:4.17px;"/>
    <g transform="matrix(0.707107,-0.707107,0.707107,0.707107,1529.01,112.313)">
        <g transform="matrix(41.667,0,0,41.667,0,0)">
            <path d="M0.061,-0.517L0.061,-0L0.146,-0L0.146,-0.23C0.146,-0.263 0.149,-0.293 0.156,-0.319C0.163,-0.344 0.173,-0.366 0.188,-0.384C0.203,-0.402 0.222,-0.416 0.246,-0.425C0.27,-0.434 0.299,-0.439 0.333,-0.439L0.333,-0.529C0.287,-0.53 0.249,-0.521 0.219,-0.501C0.189,-0.481 0.164,-0.45 0.143,-0.408L0.141,-0.408L0.141,-0.517L0.061,-0.517Z" style="fill-rule:nonzero;"/>
        </g>
        <g transform="matrix(41.667,0,0,41.667,13.8751,0)">
            <path d="M0.064,-0.517L0.064,-0L0.149,-0L0.149,-0.322C0.149,-0.332 0.152,-0.345 0.157,-0.36C0.162,-0.375 0.169,-0.389 0.181,-0.403C0.192,-0.417 0.206,-0.429 0.224,-0.439C0.241,-0.449 0.262,-0.454 0.287,-0.454C0.306,-0.454 0.322,-0.451 0.335,-0.446C0.347,-0.44 0.357,-0.432 0.364,-0.422C0.371,-0.411 0.377,-0.399 0.38,-0.385C0.383,-0.371 0.384,-0.356 0.384,-0.339L0.384,-0L0.469,-0L0.469,-0.322C0.469,-0.362 0.481,-0.394 0.505,-0.418C0.529,-0.442 0.562,-0.454 0.604,-0.454C0.625,-0.454 0.642,-0.451 0.655,-0.445C0.668,-0.439 0.678,-0.431 0.685,-0.421C0.692,-0.41 0.697,-0.398 0.7,-0.384C0.703,-0.37 0.704,-0.355 0.704,-0.339L0.704,-0L0.789,-0L0.789,-0.379C0.789,-0.406 0.785,-0.428 0.777,-0.448C0.768,-0.467 0.756,-0.482 0.742,-0.494C0.727,-0.506 0.708,-0.515 0.688,-0.521C0.667,-0.526 0.643,-0.529 0.617,-0.529C0.583,-0.529 0.552,-0.521 0.524,-0.506C0.495,-0.491 0.472,-0.469 0.455,-0.441C0.444,-0.473 0.426,-0.496 0.4,-0.509C0.374,-0.522 0.345,-0.529 0.313,-0.529C0.24,-0.529 0.185,-0.5 0.146,-0.441L0.144,-0.441L0.144,-0.517L0.064,-0.517Z" style="fill-rule:nonzero;"/>
        </g>
        <g transform="matrix(41.667,0,0,41.667,49.4171,0)">
            <rect x="0.069" y="-0.714" width="0.085" height="0.714" style="fill-rule:nonzero;"/>
        </g>
        <g transform="matrix(41.667,0,0,41.667,58.6671,0)">
            <path d="M0.173,-0.407L0.173,-0.634L0.363,-0.634C0.384,-0.634 0.403,-0.633 0.422,-0.631C0.44,-0.628 0.456,-0.623 0.47,-0.615C0.484,-0.607 0.495,-0.596 0.503,-0.581C0.511,-0.566 0.515,-0.546 0.515,-0.521C0.515,-0.483 0.503,-0.455 0.48,-0.436C0.456,-0.417 0.417,-0.407 0.363,-0.407L0.173,-0.407ZM0.078,-0.714L0.078,-0L0.423,-0C0.458,-0 0.49,-0.006 0.517,-0.018C0.544,-0.029 0.566,-0.045 0.585,-0.064C0.603,-0.083 0.617,-0.104 0.626,-0.129C0.635,-0.154 0.64,-0.179 0.64,-0.205C0.64,-0.249 0.628,-0.286 0.605,-0.317C0.582,-0.348 0.548,-0.368 0.504,-0.377L0.504,-0.379C0.538,-0.392 0.564,-0.413 0.583,-0.441C0.601,-0.468 0.61,-0.501 0.61,-0.539C0.61,-0.575 0.602,-0.605 0.586,-0.63C0.569,-0.655 0.549,-0.674 0.526,-0.688C0.515,-0.695 0.503,-0.7 0.488,-0.703C0.472,-0.706 0.456,-0.709 0.439,-0.711C0.422,-0.712 0.404,-0.713 0.387,-0.714C0.369,-0.714 0.352,-0.714 0.337,-0.714L0.078,-0.714ZM0.173,-0.08L0.173,-0.327L0.39,-0.327C0.41,-0.327 0.429,-0.325 0.448,-0.322C0.467,-0.318 0.483,-0.312 0.498,-0.303C0.512,-0.294 0.523,-0.281 0.532,-0.266C0.541,-0.251 0.545,-0.231 0.545,-0.208C0.545,-0.168 0.533,-0.137 0.51,-0.114C0.486,-0.091 0.453,-0.08 0.411,-0.08L0.173,-0.08Z" style="fill-rule:nonzero;"/>
        </g>
    </g>
    <path d="M1580.06,155.621L1583.31,155.621L1583.31,134.788L1633.31,180.621L1583.31,226.454L1583.31,205.621L1580.06,205.621L1580.06,155.621Z" style="fill:rgb(159,226,191);fill-rule:nonzero;stroke:black;stroke-width:4.17px;"/>
    <g transform="matrix(0.707107,-0.707107,0.707107,0.707107,1592.51,112.312)">
        <g transform="matrix(41.667,0,0,41.667,0,0)">
            <path d="M0.061,-0.517L0.061,-0L0.146,-0L0.146,-0.23C0.146,-0.263 0.149,-0.293 0.156,-0.319C0.163,-0.344 0.173,-0.366 0.188,-0.384C0.203,-0.402 0.222,-0.416 0.246,-0.425C0.27,-0.434 0.299,-0.439 0.333,-0.439L0.333,-0.529C0.287,-0.53 0.249,-0.521 0.219,-0.501C0.189,-0.481 0.164,-0.45 0.143,-0.408L0.141,-0.408L0.141,-0.517L0.061,-0.517Z" style="fill-rule:nonzero;"/>
        </g>
        <g transform="matrix(41.667,0,0,41.667,13.8751,0)">
            <path d="M0.064,-0.517L0.064,-0L0.149,-0L0.149,-0.322C0.149,-0.332 0.152,-0.345 0.157,-0.36C0.162,-0.375 0.169,-0.389 0.181,-0.403C0.192,-0.417 0.206,-0.429 0.224,-0.439C0.241,-0.449 0.262,-0.454 0.287,-0.454C0.306,-0.454 0.322,-0.451 0.335,-0.446C0.347,-0.44 0.357,-0.432 0.364,-0.422C0.371,-0.411 0.377,-0.399 0.38,-0.385C0.383,-0.371 0.384,-0.356 0.384,-0.339L0.384,-0L0.469,-0L0.469,-0.322C0.469,-0.362 0.481,-0.394 0.505,-0.418C0.529,-0.442 0.562,-0.454 0.604,-0.454C0.625,-0.454 0.642,-0.451 0.655,-0.445C0.668,-0.439 0.678,-0.431 0.685,-0.421C0.692,-0.41 0.697,-0.398 0.7,-0.384C0.703,-0.37 0.704,-0.355 0.704,-0.339L0.704,-0L0.789,-0L0.789,-0.379C0.789,-0.406 0.785,-0.428 0.777,-0.448C0.768,-0.467 0.756,-0.482 0.742,-0.494C0.727,-0.506 0.708,-0.515 0.688,-0.521C0.667,-0.526 0.643,-0.529 0.617,-0.529C0.583,-0.529 0.552,-0.521 0.524,-0.506C0.495,-0.491 0.472,-0.469 0.455,-0.441C0.444,-0.473 0.426,-0.496 0.4,-0.509C0.374,-0.522 0.345,-0.529 0.313,-0.529C0.24,-0.529 0.185,-0.5 0.146,-0.441L0.144,-0.441L0.144,-0.517L0.064,-0.517Z" style="fill-rule:nonzero;"/>
        </g>
        <g transform="matrix(41.667,0,0,41.667,49.4171,0)">
            <rect x="0.069" y="-0.714" width="0.085" height="0.714" style="fill-rule:nonzero;"/>
        </g>
        <g transform="matrix(41.667,0,0,41.667,58.6671,0)">
            <path d="M0.173,-0.08L0.173,-0.634L0.333,-0.634C0.377,-0.634 0.414,-0.628 0.444,-0.616C0.474,-0.603 0.498,-0.585 0.518,-0.562C0.537,-0.538 0.55,-0.509 0.559,-0.476C0.567,-0.442 0.571,-0.404 0.571,-0.361C0.571,-0.317 0.567,-0.28 0.558,-0.249C0.549,-0.218 0.537,-0.192 0.523,-0.171C0.509,-0.15 0.493,-0.134 0.476,-0.122C0.458,-0.11 0.44,-0.101 0.422,-0.095C0.404,-0.088 0.387,-0.084 0.371,-0.083C0.355,-0.081 0.342,-0.08 0.331,-0.08L0.173,-0.08ZM0.078,-0.714L0.078,-0L0.323,-0C0.382,-0 0.434,-0.008 0.477,-0.025C0.52,-0.042 0.556,-0.066 0.584,-0.098C0.612,-0.129 0.633,-0.168 0.646,-0.215C0.659,-0.261 0.666,-0.314 0.666,-0.374C0.666,-0.489 0.636,-0.574 0.577,-0.63C0.518,-0.686 0.433,-0.714 0.323,-0.714L0.078,-0.714Z" style="fill-rule:nonzero;"/>
        </g>
    </g>
    <path d="M1637.99,155.621L1661.99,155.621L1661.99,134.788L1711.99,180.621L1661.99,226.454L1661.99,205.621L1637.99,205.621L1637.99,155.621Z" style="fill:rgb(243,207,198);fill-rule:nonzero;stroke:black;stroke-width:4.17px;"/>
    <g transform="matrix(0.707107,-0.707107,0.707107,0.707107,1660.82,112.309)">
        <g transform="matrix(41.667,0,0,41.667,0,0)">
            <path d="M0.182,-0.517L0.182,-0.672L0.097,-0.672L0.097,-0.517L0.009,-0.517L0.009,-0.442L0.097,-0.442L0.097,-0.113C0.097,-0.089 0.099,-0.07 0.104,-0.055C0.109,-0.04 0.116,-0.029 0.126,-0.021C0.135,-0.013 0.148,-0.008 0.164,-0.005C0.179,-0.002 0.198,-0 0.22,-0L0.285,-0L0.285,-0.075L0.246,-0.075C0.233,-0.075 0.222,-0.076 0.214,-0.077C0.205,-0.078 0.199,-0.08 0.194,-0.083C0.189,-0.086 0.186,-0.091 0.185,-0.097C0.183,-0.103 0.182,-0.111 0.182,-0.121L0.182,-0.442L0.285,-0.442L0.285,-0.517L0.182,-0.517Z" style="fill-rule:nonzero;"/>
        </g>
        <g transform="matrix(41.667,0,0,41.667,13.1251,0)">
            <path d="M0.064,-0.517L0.064,-0L0.149,-0L0.149,-0.292C0.149,-0.315 0.152,-0.337 0.159,-0.357C0.165,-0.376 0.174,-0.393 0.187,-0.408C0.2,-0.423 0.216,-0.434 0.235,-0.442C0.254,-0.45 0.276,-0.454 0.302,-0.454C0.335,-0.454 0.36,-0.445 0.379,-0.426C0.398,-0.407 0.407,-0.382 0.407,-0.35L0.407,-0L0.492,-0L0.492,-0.34C0.492,-0.368 0.489,-0.393 0.484,-0.417C0.478,-0.44 0.468,-0.459 0.454,-0.476C0.44,-0.493 0.422,-0.506 0.399,-0.515C0.376,-0.524 0.348,-0.529 0.314,-0.529C0.237,-0.529 0.181,-0.498 0.146,-0.435L0.144,-0.435L0.144,-0.517L0.064,-0.517Z" style="fill-rule:nonzero;"/>
        </g>
        <g transform="matrix(41.667,0,0,41.667,36.292,0)">
            <path d="M0.067,-0.517L0.067,0.197L0.152,0.197L0.152,-0.069L0.154,-0.069C0.163,-0.054 0.175,-0.041 0.189,-0.031C0.202,-0.02 0.217,-0.012 0.232,-0.006C0.247,0 0.263,0.004 0.279,0.007C0.294,0.01 0.308,0.011 0.321,0.011C0.36,0.011 0.395,0.004 0.425,-0.01C0.454,-0.024 0.479,-0.043 0.499,-0.068C0.518,-0.092 0.533,-0.12 0.543,-0.153C0.552,-0.186 0.557,-0.22 0.557,-0.257C0.557,-0.294 0.552,-0.328 0.542,-0.361C0.532,-0.394 0.517,-0.423 0.498,-0.448C0.478,-0.472 0.453,-0.492 0.424,-0.507C0.394,-0.522 0.359,-0.529 0.319,-0.529C0.283,-0.529 0.25,-0.523 0.22,-0.51C0.19,-0.497 0.168,-0.476 0.154,-0.447L0.152,-0.447L0.152,-0.517L0.067,-0.517ZM0.467,-0.263C0.467,-0.238 0.464,-0.213 0.459,-0.189C0.454,-0.165 0.445,-0.144 0.433,-0.125C0.421,-0.106 0.405,-0.091 0.386,-0.08C0.366,-0.069 0.341,-0.063 0.312,-0.063C0.283,-0.063 0.258,-0.069 0.237,-0.08C0.216,-0.091 0.2,-0.105 0.187,-0.123C0.173,-0.141 0.164,-0.162 0.158,-0.186C0.152,-0.209 0.149,-0.234 0.149,-0.259C0.149,-0.283 0.152,-0.307 0.158,-0.33C0.163,-0.353 0.172,-0.374 0.185,-0.393C0.198,-0.411 0.214,-0.426 0.234,-0.437C0.254,-0.448 0.278,-0.454 0.307,-0.454C0.334,-0.454 0.358,-0.449 0.379,-0.438C0.399,-0.427 0.416,-0.413 0.429,-0.395C0.442,-0.377 0.451,-0.357 0.458,-0.334C0.464,-0.311 0.467,-0.287 0.467,-0.263Z" style="fill-rule:nonzero;"/>
        </g>
    </g>
    <path d="M1730.62,226.454L1730.62,134.788L1753.5,180.621L1730.62,226.454Z" style="fill-rule:nonzero;stroke:black;stroke-width:4.17px;"/>
    <g transform="matrix(0.707107,-0.707107,0.707107,0.707107,1727.88,112.311)">
        <g transform="matrix(41.667,0,0,41.667,0,0)">
            <path d="M0.522,-0.002C0.507,0.007 0.487,0.011 0.461,0.011C0.439,0.011 0.422,0.005 0.409,-0.008C0.396,-0.02 0.389,-0.04 0.389,-0.068C0.366,-0.04 0.338,-0.02 0.308,-0.008C0.277,0.005 0.243,0.011 0.207,0.011C0.184,0.011 0.162,0.008 0.141,0.003C0.12,-0.002 0.101,-0.011 0.086,-0.022C0.071,-0.033 0.058,-0.048 0.05,-0.067C0.041,-0.085 0.036,-0.107 0.036,-0.133C0.036,-0.162 0.041,-0.186 0.051,-0.205C0.061,-0.224 0.074,-0.239 0.091,-0.251C0.107,-0.262 0.126,-0.271 0.147,-0.277C0.167,-0.283 0.189,-0.288 0.211,-0.292C0.234,-0.297 0.257,-0.3 0.278,-0.303C0.299,-0.305 0.317,-0.308 0.333,-0.313C0.349,-0.317 0.362,-0.323 0.371,-0.332C0.38,-0.34 0.385,-0.352 0.385,-0.368C0.385,-0.387 0.382,-0.402 0.375,-0.413C0.368,-0.424 0.359,-0.433 0.348,-0.439C0.337,-0.445 0.324,-0.449 0.311,-0.451C0.297,-0.453 0.283,-0.454 0.27,-0.454C0.234,-0.454 0.204,-0.447 0.18,-0.434C0.156,-0.42 0.143,-0.394 0.141,-0.356L0.056,-0.356C0.057,-0.388 0.064,-0.415 0.076,-0.437C0.088,-0.459 0.104,-0.477 0.124,-0.491C0.144,-0.504 0.167,-0.514 0.193,-0.52C0.218,-0.526 0.246,-0.529 0.275,-0.529C0.298,-0.529 0.322,-0.527 0.345,-0.524C0.368,-0.521 0.388,-0.514 0.407,-0.504C0.426,-0.493 0.441,-0.479 0.452,-0.46C0.463,-0.441 0.469,-0.417 0.469,-0.387L0.469,-0.121C0.469,-0.101 0.47,-0.086 0.473,-0.077C0.475,-0.068 0.483,-0.063 0.496,-0.063C0.503,-0.063 0.512,-0.065 0.522,-0.068L0.522,-0.002ZM0.384,-0.267C0.373,-0.259 0.359,-0.253 0.342,-0.25C0.325,-0.246 0.307,-0.243 0.288,-0.241C0.269,-0.238 0.249,-0.236 0.23,-0.233C0.211,-0.23 0.193,-0.225 0.178,-0.218C0.163,-0.211 0.15,-0.202 0.141,-0.19C0.131,-0.177 0.126,-0.16 0.126,-0.139C0.126,-0.125 0.129,-0.113 0.135,-0.104C0.14,-0.094 0.148,-0.086 0.157,-0.08C0.166,-0.074 0.176,-0.07 0.188,-0.067C0.2,-0.064 0.213,-0.063 0.226,-0.063C0.254,-0.063 0.278,-0.067 0.298,-0.075C0.318,-0.082 0.334,-0.092 0.347,-0.104C0.36,-0.115 0.369,-0.128 0.375,-0.142C0.381,-0.155 0.384,-0.168 0.384,-0.18L0.384,-0.267Z" style="fill-rule:nonzero;"/>
        </g>
        <g transform="matrix(41.667,0,0,41.667,22.3752,0)">
            <rect x="0.069" y="-0.714" width="0.085" height="0.714" style="fill-rule:nonzero;"/>
        </g>
        <g transform="matrix(41.667,0,0,41.667,31.6253,0)">
            <path d="M0.154,-0.61L0.154,-0.714L0.069,-0.714L0.069,-0.61L0.154,-0.61ZM0.069,-0.517L0.069,-0L0.154,-0L0.154,-0.517L0.069,-0.517Z" style="fill-rule:nonzero;"/>
        </g>
        <g transform="matrix(41.667,0,0,41.667,40.8753,0)">
            <path d="M0.201,-0.295L0.322,-0.628L0.324,-0.628L0.443,-0.295L0.201,-0.295ZM0.272,-0.714L-0.006,-0L0.091,-0L0.171,-0.215L0.473,-0.215L0.551,-0L0.656,-0L0.377,-0.714L0.272,-0.714Z" style="fill-rule:nonzero;"/>
        </g>
    </g>
</svg>
