<?xml version="1.0" encoding="UTF-8" standalone="no"?><!DOCTYPE svg PUBLIC "-//W3C//DTD SVG 1.1//EN" "http://www.w3.org/Graphics/SVG/1.1/DTD/svg11.dtd"><svg width="100%" height="100%" viewBox="0 0 3063 467" version="1.1" xmlns="http://www.w3.org/2000/svg" xmlns:xlink="http://www.w3.org/1999/xlink" xml:space="preserve" xmlns:serif="http://www.serif.com/" style="fill-rule:evenodd;clip-rule:evenodd;"><path d="M61.788,349.771l2948.24,-0" style="fill:none;fill-rule:nonzero;stroke:#111;stroke-width:8.88px;"/><path d="M61.788,447.238l-0,-194.938l21.666,97.471l-21.667,97.467Z" style="fill-rule:nonzero;stroke:#000;stroke-width:8.88px;"/><g><path d="M34.458,180.696c-1.587,-1.587 -2.965,-3.3 -4.135,-5.138c-1.17,-1.838 -1.963,-3.717 -2.381,-5.639c-0.418,-1.921 -0.355,-3.863 0.188,-5.827c0.543,-1.963 1.713,-3.842 3.509,-5.639c1.838,-1.837 3.749,-3.059 5.733,-3.665c1.984,-0.606 3.947,-0.752 5.889,-0.439c1.943,0.314 3.843,1.024 5.702,2.131c1.859,1.107 3.582,2.454 5.169,4.041c1.504,1.504 2.809,3.164 3.916,4.981c1.107,1.817 1.838,3.697 2.193,5.639c0.355,1.942 0.261,3.895 -0.282,5.858c-0.543,1.964 -1.712,3.843 -3.509,5.639c-1.712,1.713 -3.54,2.872 -5.482,3.478c-1.942,0.606 -3.885,0.752 -5.827,0.438c-1.942,-0.313 -3.832,-0.992 -5.67,-2.036c-1.838,-1.044 -3.509,-2.318 -5.013,-3.822Zm40.977,-9.148l-44.736,-44.736l-5.326,5.326l16.667,16.666l-0.126,0.126c-1.545,-0.376 -3.07,-0.46 -4.574,-0.251c-1.503,0.209 -2.934,0.595 -4.291,1.159c-1.358,0.564 -2.601,1.243 -3.728,2.037c-1.128,0.793 -2.11,1.608 -2.945,2.443c-2.465,2.465 -4.177,5.075 -5.138,7.832c-0.961,2.757 -1.295,5.514 -1.003,8.271c0.293,2.756 1.16,5.461 2.601,8.114c1.441,2.652 3.31,5.127 5.607,7.424c2.298,2.298 4.783,4.156 7.456,5.577c2.674,1.42 5.399,2.286 8.177,2.6c2.778,0.313 5.555,-0 8.333,-0.94c2.778,-0.94 5.42,-2.663 7.926,-5.169c2.256,-2.256 3.926,-4.72 5.013,-7.394c1.086,-2.673 1.169,-5.346 0.25,-8.019l0.125,-0.126l4.386,4.386l5.326,-5.326Z" style="fill-rule:nonzero;"/><path d="M86.838,121.549l-18.608,18.609c-1.17,-1.337 -2.078,-2.788 -2.726,-4.355c-0.647,-1.566 -0.992,-3.164 -1.034,-4.793c-0.041,-1.629 0.251,-3.237 0.878,-4.824c0.626,-1.587 1.629,-3.07 3.007,-4.449c1.337,-1.336 2.799,-2.318 4.386,-2.945c1.587,-0.626 3.195,-0.939 4.824,-0.939c1.629,-0 3.248,0.323 4.856,0.971c1.608,0.647 3.081,1.556 4.417,2.725Zm14.161,3.885l-5.264,5.263c1.671,2.59 2.308,5.127 1.911,7.613c-0.396,2.485 -1.723,4.855 -3.978,7.111c-1.755,1.754 -3.572,2.987 -5.451,3.697c-1.88,0.71 -3.728,0.992 -5.545,0.846c-1.817,-0.147 -3.551,-0.669 -5.201,-1.567c-1.65,-0.898 -3.164,-2.078 -4.542,-3.54l24.248,-24.248c-1.88,-2.046 -4.125,-3.936 -6.736,-5.67c-2.611,-1.733 -5.409,-2.945 -8.396,-3.634c-2.986,-0.689 -6.025,-0.679 -9.116,0.031c-3.091,0.711 -6.078,2.507 -8.96,5.389c-2.214,2.214 -3.832,4.668 -4.856,7.362c-1.023,2.694 -1.462,5.472 -1.315,8.333c0.146,2.861 0.866,5.691 2.161,8.49c1.295,2.798 3.175,5.43 5.639,7.894c2.548,2.381 5.19,4.292 7.926,5.733c2.736,1.442 5.503,2.266 8.302,2.475c2.799,0.209 5.566,-0.219 8.302,-1.284c2.736,-1.065 5.399,-2.893 7.988,-5.482c3.676,-3.676 5.806,-7.644 6.391,-11.905c0.585,-4.261 -0.585,-8.563 -3.508,-12.907Z" style="fill-rule:nonzero;"/><path d="M108.956,103.943l4.887,29.198l6.453,-6.454l-4.385,-22.431l22.43,4.386l6.83,-6.829l-30.012,-4.95l-3.76,-26.065l-6.391,6.391l3.259,19.423l-19.11,-3.571l-6.83,6.829l26.629,4.073Z" style="fill-rule:nonzero;"/><path d="M131.073,64.909l-14.223,-14.223l11.905,-11.905c1.295,-1.295 2.59,-2.443 3.885,-3.446c1.294,-1.002 2.631,-1.691 4.01,-2.067c1.378,-0.376 2.777,-0.355 4.197,0.062c1.421,0.418 2.924,1.42 4.512,3.008c2.381,2.381 3.425,4.908 3.132,7.581c-0.292,2.673 -2.13,5.702 -5.513,9.085l-11.905,11.905Zm-25.187,-13.283l44.736,44.736l21.616,-21.616c2.214,-2.214 3.801,-4.533 4.762,-6.955c0.96,-2.423 1.42,-4.804 1.378,-7.143c-0.042,-2.339 -0.543,-4.574 -1.504,-6.704c-0.96,-2.13 -2.255,-4.01 -3.884,-5.639c-2.757,-2.757 -5.827,-4.365 -9.211,-4.825c-3.383,-0.459 -6.746,0.397 -10.087,2.569l-0.125,-0.125c1.294,-2.966 1.649,-5.89 1.065,-8.772c-0.585,-2.882 -2.068,-5.513 -4.449,-7.894c-2.255,-2.256 -4.668,-3.645 -7.237,-4.167c-2.568,-0.522 -5.022,-0.491 -7.362,0.094c-1.086,0.251 -2.203,0.741 -3.352,1.472c-1.148,0.731 -2.318,1.588 -3.508,2.569c-1.191,0.982 -2.35,2.016 -3.478,3.102c-1.128,1.086 -2.172,2.109 -3.133,3.07l-16.227,16.228Zm45.676,33.771l-15.476,-15.476l13.596,-13.596c1.253,-1.253 2.579,-2.35 3.979,-3.29c1.399,-0.939 2.829,-1.576 4.291,-1.911c1.462,-0.334 2.945,-0.292 4.449,0.126c1.504,0.417 2.987,1.357 4.449,2.819c2.506,2.506 3.728,5.211 3.665,8.114c-0.063,2.903 -1.41,5.67 -4.041,8.302l-14.912,14.912Z" style="fill-rule:nonzero;"/></g><path d="M104.321,447.238l-0,-194.938l23.125,97.471l-23.125,97.467Z" style="fill:#f3cfc6;fill-rule:nonzero;stroke:#000;stroke-width:8.88px;"/><path d="M437.396,296.604l-204.284,0l0,-44.304l-106.329,97.471l106.33,97.467l-0,-44.305l204.283,0l-0,-106.329Z" style="fill:#f3cfc6;fill-rule:nonzero;stroke:#000;stroke-width:8.88px;"/><g><path d="M230.959,160.707l-9.712,-9.711l-5.326,5.326l9.712,9.711l-5.514,5.514l4.699,4.699l5.514,-5.514l20.614,20.614c1.503,1.504 2.861,2.569 4.072,3.195c1.212,0.627 2.371,0.888 3.478,0.784c1.107,-0.105 2.245,-0.554 3.414,-1.348c1.17,-0.793 2.444,-1.879 3.822,-3.258l4.073,-4.072l-4.699,-4.699l-2.444,2.443c-0.835,0.836 -1.545,1.483 -2.13,1.943c-0.585,0.459 -1.128,0.731 -1.629,0.814c-0.501,0.084 -0.992,-0.01 -1.472,-0.282c-0.481,-0.271 -1.034,-0.72 -1.661,-1.347l-20.112,-20.112l6.453,-6.454l-4.699,-4.699l-6.453,6.453Z" style="fill-rule:nonzero;"/><path d="M243.302,148.364l32.393,32.393l5.325,-5.326l-18.295,-18.295c-1.462,-1.462 -2.611,-3.007 -3.446,-4.636c-0.836,-1.63 -1.316,-3.3 -1.441,-5.013c-0.126,-1.713 0.156,-3.415 0.846,-5.106c0.689,-1.692 1.848,-3.352 3.477,-4.981c2.047,-2.047 4.24,-3.071 6.579,-3.071c2.339,0 4.511,1.003 6.516,3.008l21.93,21.929l5.325,-5.325l-21.303,-21.303c-1.754,-1.755 -3.529,-3.175 -5.325,-4.261c-1.797,-1.086 -3.655,-1.712 -5.577,-1.88c-1.921,-0.167 -3.884,0.168 -5.889,1.003c-2.005,0.835 -4.073,2.318 -6.203,4.448c-4.804,4.804 -6.349,10.276 -4.637,16.416l-0.125,0.126l-5.138,-5.138l-5.012,5.012Z" style="fill-rule:nonzero;"/><path d="M278.326,113.34l44.736,44.736l5.326,-5.326l-16.666,-16.666l0.125,-0.126c1.545,0.376 3.07,0.46 4.574,0.251c1.504,-0.209 2.924,-0.606 4.26,-1.19c1.337,-0.585 2.58,-1.285 3.728,-2.099c1.149,-0.815 2.12,-1.619 2.914,-2.413c2.464,-2.464 4.187,-5.064 5.169,-7.8c0.982,-2.736 1.326,-5.483 1.034,-8.239c-0.293,-2.757 -1.159,-5.462 -2.6,-8.114c-1.442,-2.653 -3.311,-5.128 -5.608,-7.425c-2.298,-2.297 -4.783,-4.156 -7.456,-5.576c-2.673,-1.421 -5.409,-2.298 -8.208,-2.632c-2.799,-0.334 -5.587,-0.031 -8.365,0.909c-2.777,0.939 -5.419,2.662 -7.925,5.169c-2.256,2.255 -3.916,4.73 -4.982,7.424c-1.065,2.695 -1.138,5.378 -0.219,8.052l-0.125,0.125l-4.386,-4.386l-5.326,5.326Zm40.977,-9.148c1.587,1.587 2.966,3.3 4.135,5.138c1.17,1.838 1.963,3.717 2.381,5.639c0.418,1.921 0.366,3.853 -0.157,5.795c-0.522,1.943 -1.702,3.833 -3.54,5.671c-1.837,1.838 -3.748,3.059 -5.733,3.665c-1.984,0.606 -3.947,0.752 -5.889,0.439c-1.943,-0.314 -3.843,-1.024 -5.702,-2.131c-1.859,-1.106 -3.582,-2.454 -5.169,-4.041c-1.504,-1.504 -2.809,-3.164 -3.916,-4.981c-1.107,-1.817 -1.838,-3.697 -2.193,-5.639c-0.355,-1.942 -0.261,-3.895 0.282,-5.858c0.543,-1.963 1.713,-3.843 3.509,-5.639c1.712,-1.713 3.54,-2.872 5.482,-3.478c1.943,-0.605 3.885,-0.752 5.827,-0.438c1.942,0.313 3.833,0.992 5.67,2.036c1.838,1.044 3.509,2.318 5.013,3.822Z" style="fill-rule:nonzero;"/></g><path d="M437.396,296.604l-204.284,0l0,-44.304l-106.329,97.471l106.33,97.467l-0,-44.305l204.283,0l-0,-106.329Z" style="fill:#f3cfc6;fill-rule:nonzero;stroke:#000;stroke-width:8.88px;"/><g><path d="M230.959,160.707l-9.712,-9.711l-5.326,5.326l9.712,9.711l-5.514,5.514l4.699,4.699l5.514,-5.514l20.614,20.614c1.503,1.504 2.861,2.569 4.072,3.195c1.212,0.627 2.371,0.888 3.478,0.784c1.107,-0.105 2.245,-0.554 3.414,-1.348c1.17,-0.793 2.444,-1.879 3.822,-3.258l4.073,-4.072l-4.699,-4.699l-2.444,2.443c-0.835,0.836 -1.545,1.483 -2.13,1.943c-0.585,0.459 -1.128,0.731 -1.629,0.814c-0.501,0.084 -0.992,-0.01 -1.472,-0.282c-0.481,-0.271 -1.034,-0.72 -1.661,-1.347l-20.112,-20.112l6.453,-6.454l-4.699,-4.699l-6.453,6.453Z" style="fill-rule:nonzero;"/><path d="M243.302,148.364l32.393,32.393l5.325,-5.326l-18.295,-18.295c-1.462,-1.462 -2.611,-3.007 -3.446,-4.636c-0.836,-1.63 -1.316,-3.3 -1.441,-5.013c-0.126,-1.713 0.156,-3.415 0.846,-5.106c0.689,-1.692 1.848,-3.352 3.477,-4.981c2.047,-2.047 4.24,-3.071 6.579,-3.071c2.339,0 4.511,1.003 6.516,3.008l21.93,21.929l5.325,-5.325l-21.303,-21.303c-1.754,-1.755 -3.529,-3.175 -5.325,-4.261c-1.797,-1.086 -3.655,-1.712 -5.577,-1.88c-1.921,-0.167 -3.884,0.168 -5.889,1.003c-2.005,0.835 -4.073,2.318 -6.203,4.448c-4.804,4.804 -6.349,10.276 -4.637,16.416l-0.125,0.126l-5.138,-5.138l-5.012,5.012Z" style="fill-rule:nonzero;"/><path d="M278.326,113.34l44.736,44.736l5.326,-5.326l-16.666,-16.666l0.125,-0.126c1.545,0.376 3.07,0.46 4.574,0.251c1.504,-0.209 2.924,-0.606 4.26,-1.19c1.337,-0.585 2.58,-1.285 3.728,-2.099c1.149,-0.815 2.12,-1.619 2.914,-2.413c2.464,-2.464 4.187,-5.064 5.169,-7.8c0.982,-2.736 1.326,-5.483 1.034,-8.239c-0.293,-2.757 -1.159,-5.462 -2.6,-8.114c-1.442,-2.653 -3.311,-5.128 -5.608,-7.425c-2.298,-2.297 -4.783,-4.156 -7.456,-5.576c-2.673,-1.421 -5.409,-2.298 -8.208,-2.632c-2.799,-0.334 -5.587,-0.031 -8.365,0.909c-2.777,0.939 -5.419,2.662 -7.925,5.169c-2.256,2.255 -3.916,4.73 -4.982,7.424c-1.065,2.695 -1.138,5.378 -0.219,8.052l-0.125,0.125l-4.386,-4.386l-5.326,5.326Zm40.977,-9.148c1.587,1.587 2.966,3.3 4.135,5.138c1.17,1.838 1.963,3.717 2.381,5.639c0.418,1.921 0.366,3.853 -0.157,5.795c-0.522,1.943 -1.702,3.833 -3.54,5.671c-1.837,1.838 -3.748,3.059 -5.733,3.665c-1.984,0.606 -3.947,0.752 -5.889,0.439c-1.943,-0.314 -3.843,-1.024 -5.702,-2.131c-1.859,-1.106 -3.582,-2.454 -5.169,-4.041c-1.504,-1.504 -2.809,-3.164 -3.916,-4.981c-1.107,-1.817 -1.838,-3.697 -2.193,-5.639c-0.355,-1.942 -0.261,-3.895 0.282,-5.858c0.543,-1.963 1.713,-3.843 3.509,-5.639c1.712,-1.713 3.54,-2.872 5.482,-3.478c1.943,-0.605 3.885,-0.752 5.827,-0.438c1.942,0.313 3.833,0.992 5.67,2.036c1.838,1.044 3.509,2.318 5.013,3.822Z" style="fill-rule:nonzero;"/></g><path d="M468.496,296.604l85.862,0l0,-44.304l106.329,97.471l-106.329,97.467l0,-44.305l-85.862,0l-0,-106.329Z" style="fill:#00f;fill-rule:nonzero;stroke:#000;stroke-width:8.88px;"/><g><path d="M570.539,168.416l-22.055,-42.731l-5.514,5.513l19.236,33.772l-0.126,0.125l-33.27,-19.736l-5.827,5.827l19.987,33.019l-0.125,0.125l-33.834,-19.172l-5.889,5.889l42.793,21.993l5.765,-5.765l-19.236,-32.267l0.126,-0.126l32.33,19.173l5.639,-5.639Z" style="fill-rule:nonzero;"/><path d="M579.248,151.562l4.073,4.072l27.318,-27.318l-4.7,-4.699l-20.676,20.676l-4.261,-43.858l-3.634,-3.634l-25.187,25.187l4.699,4.699l18.295,-18.295l4.073,43.17Z" style="fill-rule:nonzero;"/><path d="M641.214,92.227l-29.636,-29.636l-5.012,5.012l4.636,4.637l-0.062,0.062c-2.757,-0.835 -5.441,-0.846 -8.051,-0.031c-2.611,0.814 -4.94,2.245 -6.987,4.292c-2.798,2.798 -4.626,5.691 -5.482,8.678c-0.856,2.986 -1.044,5.889 -0.564,8.709c0.481,2.819 1.483,5.493 3.008,8.02c1.524,2.527 3.247,4.751 5.169,6.672c2.214,2.214 4.615,4.01 7.205,5.389c2.59,1.378 5.232,2.203 7.926,2.475c2.694,0.271 5.378,-0.052 8.051,-0.971c2.674,-0.919 5.222,-2.59 7.644,-5.013c2.089,-2.088 3.592,-4.532 4.511,-7.331c0.919,-2.798 0.836,-5.659 -0.25,-8.583l0.125,-0.126l2.13,2.131c1.797,1.796 3.269,3.623 4.418,5.482c1.148,1.859 1.858,3.718 2.13,5.576c0.271,1.859 0.104,3.697 -0.501,5.514c-0.606,1.817 -1.786,3.603 -3.54,5.357c-0.878,0.877 -1.89,1.702 -3.039,2.475c-1.149,0.773 -2.339,1.357 -3.572,1.754c-1.232,0.397 -2.464,0.543 -3.696,0.439c-1.232,-0.105 -2.35,-0.616 -3.352,-1.535l-5.326,5.326c1.838,1.67 3.78,2.694 5.827,3.07c2.047,0.376 4.083,0.303 6.109,-0.22c2.026,-0.522 3.989,-1.399 5.89,-2.631c1.9,-1.232 3.602,-2.6 5.106,-4.104c5.179,-5.18 7.665,-10.296 7.456,-15.351c-0.209,-5.054 -2.966,-10.233 -8.271,-15.538Zm-16.478,13.345c-1.754,1.755 -3.582,2.851 -5.482,3.29c-1.901,0.438 -3.801,0.417 -5.702,-0.063c-1.901,-0.48 -3.728,-1.305 -5.482,-2.475c-1.755,-1.169 -3.363,-2.485 -4.825,-3.947c-1.545,-1.546 -2.851,-3.206 -3.916,-4.981c-1.065,-1.775 -1.754,-3.592 -2.067,-5.451c-0.314,-1.859 -0.188,-3.718 0.375,-5.577c0.564,-1.858 1.703,-3.644 3.415,-5.357c1.671,-1.67 3.425,-2.756 5.263,-3.258c1.838,-0.501 3.676,-0.564 5.514,-0.188c1.838,0.376 3.613,1.086 5.326,2.131c1.712,1.044 3.279,2.276 4.699,3.696c1.504,1.504 2.83,3.185 3.978,5.044c1.149,1.859 1.943,3.759 2.381,5.702c0.439,1.942 0.408,3.895 -0.094,5.858c-0.501,1.963 -1.629,3.822 -3.383,5.576Z" style="fill-rule:nonzero;"/></g><path d="M660.821,447.238l-0,-194.938l97.292,97.471l-97.292,97.467Z" style="fill:#00f;fill-rule:nonzero;stroke:#000;stroke-width:8.88px;"/><g><path d="M715.413,168.415l-22.054,-42.731l-5.514,5.514l19.235,33.771l-0.125,0.126l-33.27,-19.737l-5.827,5.827l19.987,33.02l-0.125,0.125l-33.834,-19.173l-5.89,5.89l42.794,21.992l5.764,-5.764l-19.235,-32.268l0.125,-0.125l32.33,19.172l5.639,-5.639Z" style="fill-rule:nonzero;"/><path d="M724.123,151.561l4.072,4.073l27.318,-27.318l-4.699,-4.699l-20.676,20.676l-4.261,-43.859l-3.634,-3.634l-25.188,25.188l4.7,4.699l18.295,-18.296l4.073,43.17Z" style="fill-rule:nonzero;"/><path d="M716.165,78.191l44.736,44.736l5.326,-5.325l-18.295,-18.296c-1.462,-1.462 -2.611,-3.007 -3.446,-4.636c-0.836,-1.629 -1.316,-3.3 -1.441,-5.013c-0.126,-1.712 0.156,-3.414 0.845,-5.106c0.69,-1.692 1.849,-3.352 3.478,-4.981c2.047,-2.047 4.24,-3.07 6.579,-3.07c2.339,-0 4.511,1.002 6.516,3.007l21.929,21.93l5.326,-5.326l-21.303,-21.303c-1.754,-1.754 -3.529,-3.175 -5.326,-4.261c-1.796,-1.086 -3.655,-1.712 -5.576,-1.879c-1.921,-0.167 -3.885,0.167 -5.89,1.002c-2.005,0.836 -4.072,2.318 -6.202,4.449c-0.961,0.961 -1.849,2.057 -2.663,3.289c-0.815,1.232 -1.473,2.538 -1.974,3.916c-0.501,1.379 -0.783,2.788 -0.846,4.229c-0.062,1.442 0.199,2.872 0.783,4.292l-0.125,0.126l-17.105,-17.105l-5.326,5.325Z" style="fill-rule:nonzero;"/></g><path d="M759.175,447.238l0,-194.938l92.108,97.471l-92.108,97.467Z" style="fill:#00f;fill-rule:nonzero;stroke:#000;stroke-width:8.88px;"/><g><path d="M811.176,168.414l-22.055,-42.732l-5.513,5.514l19.235,33.772l-0.125,0.125l-33.27,-19.737l-5.827,5.827l19.987,33.02l-0.126,0.125l-33.834,-19.173l-5.889,5.89l42.794,21.992l5.764,-5.764l-19.235,-32.268l0.125,-0.125l32.33,19.173l5.639,-5.639Z" style="fill-rule:nonzero;"/><path d="M819.885,151.559l4.073,4.073l27.318,-27.318l-4.699,-4.699l-20.677,20.676l-4.26,-43.859l-3.634,-3.634l-25.188,25.188l4.699,4.699l18.296,-18.295l4.072,43.169Z" style="fill-rule:nonzero;"/><path d="M844.634,103.126c-1.587,-1.587 -2.965,-3.299 -4.135,-5.137c-1.17,-1.838 -1.963,-3.718 -2.381,-5.639c-0.418,-1.922 -0.355,-3.864 0.188,-5.827c0.543,-1.963 1.713,-3.843 3.509,-5.639c1.838,-1.838 3.749,-3.06 5.733,-3.666c1.984,-0.605 3.947,-0.751 5.889,-0.438c1.943,0.313 3.843,1.023 5.702,2.13c1.859,1.107 3.582,2.454 5.169,4.041c1.504,1.504 2.809,3.164 3.916,4.982c1.107,1.817 1.838,3.696 2.193,5.639c0.355,1.942 0.261,3.895 -0.282,5.858c-0.543,1.963 -1.713,3.843 -3.509,5.639c-1.712,1.712 -3.54,2.872 -5.482,3.477c-1.942,0.606 -3.885,0.752 -5.827,0.439c-1.942,-0.314 -3.832,-0.992 -5.67,-2.037c-1.838,-1.044 -3.509,-2.318 -5.013,-3.822Zm40.977,-9.147l-44.736,-44.736l-5.326,5.325l16.667,16.667l-0.126,0.125c-1.545,-0.376 -3.07,-0.459 -4.574,-0.251c-1.503,0.209 -2.934,0.596 -4.292,1.16c-1.357,0.564 -2.6,1.242 -3.728,2.036c-1.127,0.794 -2.109,1.608 -2.944,2.443c-2.465,2.465 -4.177,5.076 -5.138,7.832c-0.961,2.757 -1.295,5.514 -1.003,8.271c0.293,2.757 1.16,5.461 2.601,8.114c1.441,2.652 3.31,5.127 5.607,7.425c2.298,2.297 4.783,4.156 7.456,5.576c2.674,1.42 5.399,2.287 8.177,2.6c2.778,0.313 5.555,0 8.333,-0.94c2.778,-0.94 5.42,-2.663 7.926,-5.169c2.256,-2.255 3.926,-4.72 5.012,-7.393c1.086,-2.673 1.17,-5.347 0.251,-8.02l0.125,-0.125l4.386,4.385l5.326,-5.325Z" style="fill-rule:nonzero;"/></g><path d="M852.479,447.238l0,-194.938l88.517,97.471l-88.517,97.467Z" style="fill:#00f;fill-rule:nonzero;stroke:#000;stroke-width:8.88px;"/><g><path d="M902.685,168.416l-22.055,-42.731l-5.514,5.513l19.236,33.772l-0.126,0.125l-33.27,-19.737l-5.827,5.827l19.987,33.02l-0.125,0.125l-33.834,-19.172l-5.89,5.889l42.794,21.992l5.765,-5.764l-19.236,-32.268l0.126,-0.125l32.33,19.173l5.639,-5.639Z" style="fill-rule:nonzero;"/><path d="M911.394,151.561l4.073,4.073l27.317,-27.318l-4.699,-4.699l-20.676,20.676l-4.261,-43.859l-3.634,-3.634l-25.187,25.188l4.699,4.699l18.295,-18.295l4.073,43.169Z" style="fill-rule:nonzero;"/><path d="M951.368,81.137l-18.608,18.608c-1.17,-1.336 -2.079,-2.788 -2.726,-4.354c-0.647,-1.567 -0.992,-3.164 -1.034,-4.793c-0.042,-1.63 0.251,-3.238 0.877,-4.825c0.627,-1.587 1.629,-3.07 3.008,-4.449c1.336,-1.336 2.798,-2.318 4.386,-2.944c1.587,-0.627 3.195,-0.94 4.824,-0.94c1.629,-0 3.248,0.324 4.856,0.971c1.608,0.647 3.081,1.556 4.417,2.726Zm14.16,3.884l-5.263,5.263c1.671,2.59 2.308,5.128 1.911,7.613c-0.397,2.485 -1.723,4.856 -3.978,7.111c-1.755,1.755 -3.572,2.987 -5.451,3.697c-1.88,0.71 -3.728,0.992 -5.545,0.846c-1.817,-0.146 -3.551,-0.668 -5.201,-1.567c-1.65,-0.898 -3.164,-2.078 -4.542,-3.54l24.247,-24.247c-1.879,-2.047 -4.124,-3.937 -6.735,-5.671c-2.611,-1.733 -5.409,-2.944 -8.396,-3.634c-2.987,-0.689 -6.025,-0.678 -9.116,0.032c-3.091,0.71 -6.078,2.506 -8.96,5.388c-2.214,2.214 -3.833,4.668 -4.856,7.362c-1.023,2.694 -1.462,5.472 -1.316,8.333c0.147,2.862 0.867,5.691 2.162,8.49c1.295,2.799 3.175,5.43 5.639,7.895c2.548,2.381 5.19,4.292 7.926,5.733c2.736,1.441 5.503,2.266 8.302,2.475c2.798,0.208 5.566,-0.22 8.302,-1.285c2.736,-1.065 5.398,-2.892 7.988,-5.482c3.676,-3.676 5.806,-7.644 6.391,-11.905c0.585,-4.26 -0.585,-8.563 -3.509,-12.907Z" style="fill-rule:nonzero;"/></g><path d="M959.604,296.604l44.792,0l-0,-44.304l106.329,97.471l-106.329,97.467l-0,-44.305l-44.792,0l0,-106.329Z" style="fill:#52f667;fill-rule:nonzero;stroke:#000;stroke-width:8.88px;"/><g><path d="M1041.11,168.415l-22.055,-42.731l-5.513,5.513l19.235,33.772l-0.125,0.125l-33.27,-19.736l-5.827,5.827l19.987,33.019l-0.126,0.125l-33.834,-19.172l-5.889,5.889l42.794,21.992l5.764,-5.764l-19.235,-32.267l0.125,-0.126l32.33,19.173l5.639,-5.639Z" style="fill-rule:nonzero;"/><path d="M1056.53,109.017l5.513,-5.513c-2.13,-1.713 -4.292,-2.872 -6.485,-3.478c-2.193,-0.605 -4.365,-0.752 -6.516,-0.438c-2.151,0.313 -4.25,1.054 -6.297,2.224c-2.046,1.17 -3.989,2.673 -5.827,4.511c-2.548,2.548 -4.333,5.232 -5.357,8.051c-1.023,2.82 -1.389,5.65 -1.096,8.49c0.292,2.841 1.18,5.629 2.663,8.365c1.482,2.736 3.435,5.315 5.858,7.738c2.423,2.422 4.971,4.323 7.644,5.701c2.673,1.379 5.378,2.162 8.114,2.35c2.736,0.188 5.451,-0.272 8.145,-1.378c2.694,-1.107 5.274,-2.893 7.738,-5.358c4.135,-4.135 6.318,-8.489 6.548,-13.063c0.229,-4.574 -1.368,-9.158 -4.794,-13.753l-5.451,5.451c2.172,2.84 3.206,5.691 3.102,8.552c-0.105,2.862 -1.473,5.608 -4.104,8.24c-1.671,1.67 -3.446,2.777 -5.326,3.32c-1.88,0.543 -3.749,0.637 -5.608,0.282c-1.858,-0.355 -3.675,-1.065 -5.451,-2.13c-1.775,-1.065 -3.414,-2.35 -4.918,-3.853c-1.629,-1.629 -3.039,-3.373 -4.229,-5.232c-1.191,-1.859 -1.984,-3.759 -2.381,-5.702c-0.397,-1.942 -0.303,-3.916 0.282,-5.921c0.585,-2.005 1.838,-3.968 3.759,-5.889c2.256,-2.256 4.616,-3.488 7.08,-3.697c2.465,-0.209 4.929,0.501 7.394,2.13Z" style="fill-rule:nonzero;"/><path d="M1045.44,74.619l44.737,44.737l5.325,-5.326l-18.295,-18.296c-1.462,-1.462 -2.611,-3.007 -3.446,-4.636c-0.836,-1.629 -1.316,-3.3 -1.441,-5.013c-0.126,-1.712 0.156,-3.414 0.846,-5.106c0.689,-1.692 1.848,-3.352 3.477,-4.981c2.047,-2.047 4.24,-3.07 6.579,-3.07c2.339,-0 4.511,1.002 6.516,3.007l21.929,21.93l5.326,-5.326l-21.303,-21.303c-1.754,-1.754 -3.529,-3.175 -5.325,-4.261c-1.797,-1.086 -3.655,-1.712 -5.577,-1.879c-1.921,-0.167 -3.884,0.167 -5.889,1.002c-2.005,0.836 -4.073,2.319 -6.203,4.449c-0.961,0.961 -1.849,2.057 -2.663,3.289c-0.815,1.232 -1.473,2.538 -1.974,3.916c-0.501,1.379 -0.783,2.788 -0.846,4.229c-0.062,1.442 0.199,2.872 0.783,4.292l-0.125,0.126l-17.105,-17.105l-5.326,5.325Z" style="fill-rule:nonzero;"/><path d="M1106.34,52.189l-14.223,-14.223l11.904,-11.905c1.295,-1.295 2.59,-2.443 3.885,-3.446c1.295,-1.002 2.632,-1.691 4.01,-2.067c1.378,-0.376 2.778,-0.355 4.198,0.062c1.42,0.418 2.924,1.421 4.511,3.008c2.381,2.381 3.425,4.908 3.133,7.581c-0.292,2.673 -2.13,5.702 -5.514,9.085l-11.904,11.905Zm-25.188,-13.283l44.736,44.736l21.616,-21.616c2.214,-2.214 3.802,-4.532 4.762,-6.955c0.961,-2.423 1.42,-4.804 1.379,-7.143c-0.042,-2.339 -0.543,-4.574 -1.504,-6.704c-0.961,-2.13 -2.256,-4.01 -3.885,-5.639c-2.757,-2.757 -5.827,-4.365 -9.21,-4.824c-3.384,-0.46 -6.746,0.396 -10.088,2.568l-0.125,-0.125c1.295,-2.966 1.65,-5.89 1.065,-8.772c-0.585,-2.882 -2.067,-5.513 -4.448,-7.894c-2.256,-2.256 -4.668,-3.645 -7.237,-4.167c-2.569,-0.522 -5.023,-0.491 -7.362,0.094c-1.086,0.251 -2.204,0.742 -3.352,1.473c-1.149,0.731 -2.318,1.587 -3.509,2.568c-1.19,0.982 -2.349,2.016 -3.477,3.102c-1.128,1.086 -2.172,2.109 -3.133,3.07l-16.228,16.228Zm45.676,33.771l-15.476,-15.476l13.596,-13.596c1.254,-1.253 2.58,-2.35 3.979,-3.289c1.399,-0.94 2.83,-1.577 4.292,-1.911c1.462,-0.335 2.945,-0.293 4.448,0.125c1.504,0.418 2.987,1.357 4.449,2.819c2.506,2.507 3.728,5.211 3.665,8.114c-0.062,2.903 -1.409,5.671 -4.041,8.302l-14.912,14.912Z" style="fill-rule:nonzero;"/></g><path d="M1109.66,447.238l-0,-194.938l73.366,97.471l-73.366,97.467Z" style="fill:#fff;fill-rule:nonzero;stroke:#000;stroke-width:8.88px;"/><g><path d="M1152.29,168.416l-22.055,-42.731l-5.513,5.514l19.235,33.771l-0.126,0.125l-33.27,-19.736l-5.827,5.827l19.988,33.019l-0.126,0.125l-33.834,-19.172l-5.889,5.889l42.793,21.993l5.765,-5.765l-19.236,-32.267l0.126,-0.126l32.33,19.173l5.639,-5.639Z" style="fill-rule:nonzero;"/><path d="M1167.71,109.018l5.514,-5.513c-2.13,-1.713 -4.292,-2.872 -6.485,-3.478c-2.193,-0.605 -4.365,-0.751 -6.516,-0.438c-2.151,0.313 -4.25,1.054 -6.297,2.224c-2.047,1.17 -3.989,2.673 -5.827,4.511c-2.548,2.548 -4.334,5.232 -5.357,8.052c-1.023,2.819 -1.389,5.649 -1.096,8.489c0.292,2.841 1.18,5.629 2.662,8.365c1.483,2.736 3.436,5.315 5.859,7.738c2.422,2.423 4.97,4.323 7.644,5.701c2.673,1.379 5.378,2.162 8.114,2.35c2.736,0.188 5.451,-0.271 8.145,-1.378c2.694,-1.107 5.273,-2.893 7.738,-5.357c4.135,-4.136 6.318,-8.49 6.547,-13.064c0.23,-4.574 -1.368,-9.158 -4.793,-13.753l-5.451,5.451c2.172,2.84 3.206,5.691 3.102,8.553c-0.105,2.861 -1.473,5.607 -4.104,8.239c-1.671,1.671 -3.446,2.777 -5.326,3.32c-1.88,0.543 -3.749,0.637 -5.608,0.282c-1.859,-0.355 -3.676,-1.065 -5.451,-2.13c-1.775,-1.065 -3.415,-2.349 -4.918,-3.853c-1.629,-1.629 -3.039,-3.373 -4.23,-5.232c-1.19,-1.859 -1.984,-3.759 -2.38,-5.702c-0.397,-1.942 -0.303,-3.916 0.281,-5.921c0.585,-2.005 1.838,-3.968 3.76,-5.889c2.255,-2.256 4.615,-3.488 7.08,-3.697c2.464,-0.209 4.929,0.501 7.393,2.13Z" style="fill-rule:nonzero;"/><path d="M1156.62,74.621l44.736,44.736l5.326,-5.326l-18.295,-18.296c-1.462,-1.461 -2.611,-3.007 -3.446,-4.636c-0.836,-1.629 -1.316,-3.3 -1.442,-5.012c-0.125,-1.713 0.157,-3.415 0.846,-5.107c0.69,-1.692 1.849,-3.352 3.478,-4.981c2.046,-2.047 4.239,-3.07 6.579,-3.07c2.339,-0 4.511,1.002 6.516,3.007l21.929,21.93l5.326,-5.326l-21.303,-21.303c-1.754,-1.754 -3.53,-3.174 -5.326,-4.26c-1.796,-1.086 -3.655,-1.713 -5.576,-1.88c-1.922,-0.167 -3.885,0.167 -5.89,1.002c-2.005,0.836 -4.072,2.319 -6.203,4.449c-0.96,0.961 -1.848,2.057 -2.662,3.289c-0.815,1.233 -1.473,2.538 -1.974,3.916c-0.501,1.379 -0.783,2.788 -0.846,4.23c-0.063,1.441 0.198,2.871 0.783,4.291l-0.125,0.126l-17.105,-17.105l-5.326,5.326Z" style="fill-rule:nonzero;"/><path d="M1237.25,20.925l5.952,-5.953c-2.715,-2.046 -5.524,-3.435 -8.427,-4.166c-2.903,-0.731 -5.775,-0.888 -8.615,-0.47c-2.84,0.418 -5.618,1.357 -8.333,2.819c-2.715,1.462 -5.242,3.363 -7.582,5.702c-3.425,3.425 -5.847,7.08 -7.268,10.965c-1.42,3.884 -1.952,7.78 -1.597,11.685c0.355,3.906 1.503,7.748 3.446,11.529c1.942,3.78 4.542,7.299 7.8,10.557c3.258,3.258 6.736,5.879 10.432,7.863c3.697,1.985 7.446,3.165 11.247,3.54c3.801,0.376 7.592,-0.135 11.372,-1.535c3.78,-1.399 7.404,-3.832 10.871,-7.299c5.722,-5.722 8.667,-11.8 8.834,-18.233c0.167,-6.432 -2.276,-12.761 -7.33,-18.984l-5.953,5.952c1.713,1.963 3.05,4.052 4.01,6.265c0.961,2.214 1.462,4.449 1.504,6.705c0.042,2.255 -0.376,4.469 -1.253,6.641c-0.877,2.172 -2.297,4.24 -4.261,6.203c-2.673,2.673 -5.472,4.469 -8.396,5.388c-2.923,0.919 -5.847,1.149 -8.771,0.69c-2.924,-0.46 -5.817,-1.535 -8.678,-3.227c-2.861,-1.692 -5.566,-3.812 -8.114,-6.36c-2.339,-2.339 -4.302,-4.887 -5.89,-7.644c-1.587,-2.757 -2.61,-5.597 -3.07,-8.521c-0.459,-2.924 -0.24,-5.837 0.658,-8.74c0.898,-2.903 2.684,-5.692 5.357,-8.365c3.133,-3.133 6.631,-5.044 10.495,-5.733c3.864,-0.689 7.717,0.219 11.56,2.726Z" style="fill-rule:nonzero;"/></g><path d="M1182.5,296.604l47.183,0l0,-44.304l106.329,97.471l-106.329,97.467l0,-44.305l-47.183,0l-0,-106.329Z" style="fill:#0ff;fill-rule:nonzero;stroke:#000;stroke-width:8.88px;"/><g><path d="M1265.2,168.415l-22.055,-42.731l-5.513,5.514l19.235,33.771l-0.125,0.125l-33.27,-19.736l-5.827,5.827l19.987,33.019l-0.126,0.126l-33.834,-19.173l-5.889,5.89l42.794,21.992l5.764,-5.765l-19.235,-32.267l0.125,-0.125l32.33,19.172l5.639,-5.639Z" style="fill-rule:nonzero;"/><path d="M1280.62,109.018l5.513,-5.514c-2.13,-1.713 -4.292,-2.872 -6.485,-3.477c-2.193,-0.606 -4.365,-0.752 -6.516,-0.439c-2.151,0.313 -4.25,1.055 -6.297,2.224c-2.046,1.17 -3.989,2.674 -5.827,4.511c-2.548,2.548 -4.333,5.232 -5.357,8.052c-1.023,2.819 -1.389,5.649 -1.096,8.49c0.292,2.84 1.18,5.628 2.663,8.364c1.483,2.736 3.435,5.315 5.858,7.738c2.423,2.423 4.971,4.323 7.644,5.702c2.673,1.378 5.378,2.161 8.114,2.349c2.736,0.188 5.451,-0.271 8.145,-1.378c2.694,-1.107 5.274,-2.893 7.738,-5.357c4.135,-4.135 6.318,-8.49 6.548,-13.064c0.229,-4.574 -1.368,-9.158 -4.794,-13.753l-5.451,5.451c2.172,2.841 3.206,5.691 3.102,8.553c-0.105,2.861 -1.473,5.607 -4.104,8.239c-1.671,1.671 -3.446,2.778 -5.326,3.321c-1.88,0.543 -3.749,0.637 -5.608,0.282c-1.858,-0.355 -3.675,-1.065 -5.451,-2.131c-1.775,-1.065 -3.414,-2.349 -4.918,-3.853c-1.629,-1.629 -3.039,-3.373 -4.229,-5.232c-1.191,-1.858 -1.984,-3.759 -2.381,-5.701c-0.397,-1.943 -0.303,-3.916 0.282,-5.921c0.585,-2.005 1.838,-3.968 3.759,-5.89c2.256,-2.256 4.616,-3.488 7.08,-3.697c2.465,-0.208 4.929,0.502 7.394,2.131Z" style="fill-rule:nonzero;"/><path d="M1269.52,74.62l44.737,44.736l5.325,-5.326l-18.295,-18.295c-1.462,-1.462 -2.611,-3.008 -3.446,-4.637c-0.836,-1.629 -1.316,-3.3 -1.441,-5.012c-0.126,-1.713 0.156,-3.415 0.846,-5.107c0.689,-1.691 1.848,-3.352 3.477,-4.981c2.047,-2.047 4.24,-3.07 6.579,-3.07c2.339,0 4.511,1.003 6.516,3.008l21.929,21.929l5.326,-5.326l-21.303,-21.303c-1.754,-1.754 -3.529,-3.174 -5.325,-4.26c-1.797,-1.086 -3.655,-1.713 -5.577,-1.88c-1.921,-0.167 -3.884,0.167 -5.889,1.003c-2.005,0.835 -4.073,2.318 -6.203,4.448c-0.961,0.961 -1.849,2.057 -2.663,3.29c-0.815,1.232 -1.473,2.537 -1.974,3.916c-0.501,1.378 -0.783,2.788 -0.846,4.229c-0.062,1.441 0.199,2.872 0.783,4.292l-0.125,0.125l-17.105,-17.105l-5.326,5.326Z" style="fill-rule:nonzero;"/><path d="M1350.91,72.677l-34.711,-34.711l10.025,-10.025c2.757,-2.756 5.461,-4.688 8.114,-5.795c2.652,-1.107 5.315,-1.514 7.988,-1.222c2.674,0.292 5.326,1.232 7.958,2.819c2.631,1.588 5.283,3.718 7.957,6.391c2.757,2.757 4.824,5.389 6.203,7.895c1.378,2.506 2.276,4.845 2.694,7.017c0.418,2.172 0.449,4.188 0.094,6.047c-0.355,1.858 -0.898,3.55 -1.629,5.075c-0.731,1.524 -1.546,2.84 -2.444,3.947c-0.898,1.107 -1.681,1.995 -2.349,2.663l-9.9,9.899Zm-45.676,-33.771l44.736,44.736l15.351,-15.35c3.717,-3.718 6.412,-7.456 8.082,-11.216c1.671,-3.759 2.392,-7.508 2.162,-11.246c-0.23,-3.739 -1.378,-7.477 -3.446,-11.216c-2.068,-3.738 -4.981,-7.487 -8.74,-11.246c-7.185,-7.185 -14.39,-10.673 -21.617,-10.464c-7.226,0.209 -14.285,3.759 -21.177,10.651l-15.351,15.351Z" style="fill-rule:nonzero;"/></g><path d="M1351.43,296.604l67.117,0l-0,-44.304l106.329,97.471l-106.329,97.467l-0,-44.305l-67.117,0l0,-106.329Z" style="fill:#f0f;fill-rule:nonzero;stroke:#000;stroke-width:8.88px;"/><g><path d="M1444.1,168.414l-22.055,-42.731l-5.513,5.513l19.235,33.772l-0.125,0.125l-33.271,-19.737l-5.827,5.827l19.988,33.02l-0.126,0.125l-33.834,-19.172l-5.889,5.889l42.793,21.992l5.765,-5.764l-19.236,-32.268l0.126,-0.125l32.33,19.173l5.639,-5.639Z" style="fill-rule:nonzero;"/><path d="M1452.81,151.559l4.073,4.073l27.318,-27.318l-4.7,-4.699l-20.676,20.676l-4.261,-43.859l-3.634,-3.634l-25.187,25.188l4.699,4.699l18.296,-18.295l4.072,43.169Z" style="fill-rule:nonzero;"/><path d="M1506.63,114.53c0.961,2.214 1.682,4.167 2.162,5.858c0.48,1.692 0.7,3.248 0.658,4.668c-0.042,1.42 -0.355,2.736 -0.94,3.947c-0.585,1.212 -1.462,2.402 -2.632,3.572c-0.626,0.626 -1.294,1.211 -2.005,1.754c-0.71,0.543 -1.462,1.003 -2.255,1.379l-4.887,-4.888c0.668,-0.25 1.378,-0.605 2.13,-1.065c0.752,-0.459 1.337,-0.898 1.754,-1.316c1.086,-1.086 1.734,-2.255 1.943,-3.508c0.209,-1.253 0.021,-2.548 -0.564,-3.885l-3.258,-7.644l-45.05,-19.36l6.015,-6.015l35.965,17.042l0.125,-0.125l-17.418,-35.589l5.639,-5.639l22.618,50.814Z" style="fill-rule:nonzero;"/></g><path d="M1566.61,296.604l32.029,0l-0,-44.304l106.329,97.471l-106.329,97.467l-0,-44.305l-32.029,0l-0,-106.329Z" style="fill:#ff0;fill-rule:nonzero;stroke:#000;stroke-width:8.88px;"/><g><path d="M1641.74,168.417l-22.055,-42.731l-5.513,5.514l19.235,33.771l-0.126,0.125l-33.27,-19.736l-5.827,5.827l19.988,33.019l-0.126,0.126l-33.834,-19.173l-5.889,5.89l42.793,21.992l5.765,-5.765l-19.236,-32.267l0.126,-0.126l32.33,19.173l5.639,-5.639Z" style="fill-rule:nonzero;"/><path d="M1650.45,151.563l4.073,4.072l27.318,-27.318l-4.7,-4.699l-20.676,20.677l-4.261,-43.859l-3.634,-3.634l-25.187,25.187l4.699,4.699l18.295,-18.295l4.073,43.17Z" style="fill-rule:nonzero;"/><path d="M1678.89,97.178l4.887,29.197l6.453,-6.453l-4.386,-22.431l22.431,4.386l6.83,-6.83l-30.012,-4.949l-3.76,-26.065l-6.391,6.391l3.259,19.423l-19.11,-3.571l-6.83,6.829l26.629,4.073Z" style="fill-rule:nonzero;"/></g><path d="M1713.88,296.604l36.021,0l-0,-44.304l106.329,97.471l-106.329,97.467l-0,-44.305l-36.021,0l0,-106.329Z" style="fill:#d83fa4;fill-rule:nonzero;stroke:#000;stroke-width:8.88px;"/><g><path d="M1784.11,169.796l-29.637,-29.637l-5.012,5.013l4.637,4.636l-0.063,0.063c-2.757,-0.835 -5.441,-0.846 -8.051,-0.031c-2.611,0.814 -4.94,2.245 -6.986,4.292c-2.799,2.798 -4.627,5.691 -5.483,8.677c-0.856,2.987 -1.044,5.89 -0.564,8.71c0.481,2.819 1.483,5.492 3.008,8.019c1.524,2.528 3.247,4.752 5.169,6.673c2.214,2.214 4.615,4.01 7.205,5.389c2.59,1.378 5.232,2.203 7.926,2.475c2.694,0.271 5.378,-0.053 8.051,-0.972c2.674,-0.919 5.222,-2.589 7.644,-5.012c2.089,-2.089 3.593,-4.532 4.512,-7.331c0.919,-2.798 0.835,-5.66 -0.251,-8.584l0.125,-0.125l2.131,2.13c1.796,1.797 3.268,3.624 4.417,5.483c1.148,1.859 1.859,3.717 2.13,5.576c0.272,1.859 0.104,3.697 -0.501,5.514c-0.606,1.817 -1.786,3.602 -3.54,5.357c-0.877,0.877 -1.89,1.702 -3.039,2.475c-1.149,0.772 -2.339,1.357 -3.571,1.754c-1.233,0.397 -2.465,0.543 -3.697,0.439c-1.232,-0.105 -2.35,-0.616 -3.352,-1.535l-5.326,5.325c1.838,1.671 3.78,2.695 5.827,3.07c2.047,0.376 4.083,0.303 6.109,-0.219c2.026,-0.522 3.989,-1.399 5.89,-2.631c1.9,-1.233 3.602,-2.601 5.106,-4.104c5.18,-5.18 7.665,-10.297 7.456,-15.351c-0.209,-5.054 -2.966,-10.234 -8.27,-15.538Zm-16.479,13.345c-1.754,1.754 -3.582,2.851 -5.482,3.29c-1.901,0.438 -3.801,0.417 -5.702,-0.063c-1.9,-0.48 -3.728,-1.305 -5.482,-2.475c-1.755,-1.17 -3.363,-2.485 -4.825,-3.947c-1.545,-1.546 -2.851,-3.206 -3.916,-4.981c-1.065,-1.776 -1.754,-3.593 -2.067,-5.451c-0.314,-1.859 -0.188,-3.718 0.376,-5.577c0.563,-1.859 1.702,-3.644 3.414,-5.357c1.671,-1.671 3.425,-2.757 5.263,-3.258c1.838,-0.501 3.676,-0.564 5.514,-0.188c1.838,0.376 3.613,1.086 5.326,2.13c1.712,1.045 3.279,2.277 4.699,3.697c1.504,1.504 2.83,3.185 3.979,5.044c1.148,1.859 1.942,3.759 2.381,5.702c0.438,1.942 0.407,3.895 -0.094,5.858c-0.502,1.963 -1.63,3.822 -3.384,5.576Z" style="fill-rule:nonzero;"/><path d="M1750.46,119.483l44.737,44.736l5.325,-5.326l-44.736,-44.736l-5.326,5.326Z" style="fill-rule:nonzero;"/><path d="M1837.36,121.801c-0.376,1.462 -1.379,3.008 -3.008,4.637c-1.378,1.378 -2.861,2.088 -4.448,2.13c-1.588,0.042 -3.258,-0.814 -5.013,-2.569c0.293,3.217 -0.146,6.182 -1.315,8.897c-1.17,2.715 -2.883,5.201 -5.138,7.456c-1.462,1.462 -3.018,2.684 -4.668,3.666c-1.65,0.981 -3.31,1.597 -4.981,1.848c-1.671,0.251 -3.363,0.084 -5.075,-0.501c-1.713,-0.585 -3.384,-1.692 -5.013,-3.321c-1.838,-1.838 -3.028,-3.655 -3.571,-5.451c-0.543,-1.796 -0.668,-3.571 -0.376,-5.326c0.292,-1.754 0.908,-3.477 1.848,-5.169c0.94,-1.691 1.974,-3.352 3.102,-4.981c1.169,-1.754 2.339,-3.362 3.508,-4.824c1.17,-1.462 2.12,-2.83 2.851,-4.104c0.731,-1.274 1.128,-2.465 1.191,-3.572c0.062,-1.107 -0.407,-2.161 -1.41,-3.164c-1.17,-1.169 -2.329,-1.89 -3.477,-2.161c-1.149,-0.272 -2.256,-0.251 -3.321,0.062c-1.065,0.314 -2.089,0.836 -3.07,1.567c-0.982,0.731 -1.89,1.514 -2.726,2.349c-2.255,2.256 -3.707,4.564 -4.354,6.924c-0.648,2.36 0.156,4.793 2.412,7.299l-5.326,5.326c-1.921,-2.089 -3.195,-4.198 -3.822,-6.328c-0.626,-2.131 -0.741,-4.251 -0.344,-6.36c0.396,-2.109 1.211,-4.156 2.443,-6.14c1.232,-1.984 2.767,-3.895 4.605,-5.733c1.462,-1.462 3.018,-2.809 4.668,-4.042c1.65,-1.232 3.384,-2.109 5.201,-2.631c1.817,-0.522 3.665,-0.553 5.545,-0.094c1.879,0.459 3.759,1.629 5.639,3.509l16.666,16.666c1.253,1.253 2.245,2.099 2.976,2.538c0.731,0.438 1.514,0.24 2.35,-0.596c0.459,-0.459 0.898,-1.107 1.316,-1.942l4.135,4.135Zm-25.25,-7.957c-0.167,1.17 -0.679,2.412 -1.535,3.728c-0.857,1.316 -1.807,2.642 -2.851,3.979c-1.045,1.336 -2.078,2.704 -3.102,4.104c-1.023,1.399 -1.806,2.788 -2.349,4.166c-0.543,1.379 -0.731,2.757 -0.564,4.136c0.167,1.378 0.919,2.735 2.255,4.072c0.878,0.877 1.796,1.441 2.757,1.692c0.961,0.25 1.911,0.282 2.851,0.094c0.94,-0.188 1.869,-0.575 2.788,-1.159c0.919,-0.585 1.796,-1.295 2.632,-2.131c1.754,-1.754 3.018,-3.498 3.79,-5.231c0.773,-1.734 1.191,-3.363 1.254,-4.887c0.062,-1.525 -0.147,-2.904 -0.627,-4.136c-0.48,-1.232 -1.097,-2.224 -1.848,-2.976l-5.451,-5.451Z" style="fill-rule:nonzero;"/></g><path d="M1859.95,296.604l57.55,0l-0,-44.304l106.329,97.471l-106.329,97.467l-0,-44.305l-57.55,0l-0,-106.329Z" style="fill:#d17373;fill-rule:nonzero;stroke:#000;stroke-width:8.88px;"/><g><path d="M1942.57,173.679l-32.393,-32.393l-5.325,5.326l18.295,18.295c1.462,1.462 2.611,3.008 3.446,4.637c0.836,1.629 1.316,3.3 1.441,5.012c0.126,1.713 -0.156,3.415 -0.846,5.107c-0.689,1.692 -1.848,3.352 -3.477,4.981c-2.047,2.047 -4.24,3.07 -6.579,3.07c-2.339,0 -4.511,-1.002 -6.516,-3.007l-21.929,-21.93l-5.326,5.326l21.303,21.303c1.754,1.754 3.529,3.174 5.325,4.26c1.797,1.086 3.655,1.713 5.577,1.88c1.921,0.167 3.874,-0.177 5.858,-1.034c1.984,-0.856 4.041,-2.349 6.172,-4.48c2.381,-2.381 3.978,-4.918 4.793,-7.612c0.814,-2.694 0.783,-5.608 -0.094,-8.741l0.125,-0.125l5.138,5.138l5.012,-5.013Z" style="fill-rule:nonzero;"/><path d="M1975.78,134.958l-29.636,-29.636l-5.013,5.012l4.637,4.637l-0.063,0.063c-2.757,-0.836 -5.44,-0.846 -8.051,-0.032c-2.611,0.815 -4.939,2.245 -6.986,4.292c-2.799,2.799 -4.626,5.691 -5.483,8.678c-0.856,2.987 -1.044,5.89 -0.564,8.709c0.481,2.82 1.483,5.493 3.008,8.02c1.525,2.527 3.248,4.751 5.169,6.673c2.214,2.214 4.616,4.01 7.205,5.388c2.59,1.379 5.232,2.204 7.926,2.475c2.695,0.272 5.378,-0.052 8.052,-0.971c2.673,-0.919 5.221,-2.59 7.644,-5.012c2.088,-2.089 3.592,-4.533 4.511,-7.331c0.919,-2.799 0.835,-5.66 -0.251,-8.584l0.125,-0.125l2.131,2.13c1.796,1.796 3.268,3.624 4.417,5.482c1.149,1.859 1.859,3.718 2.13,5.577c0.272,1.858 0.105,3.696 -0.501,5.513c-0.606,1.817 -1.786,3.603 -3.54,5.357c-0.877,0.878 -1.89,1.703 -3.039,2.475c-1.148,0.773 -2.339,1.358 -3.571,1.755c-1.232,0.397 -2.465,0.543 -3.697,0.438c-1.232,-0.104 -2.349,-0.616 -3.352,-1.535l-5.326,5.326c1.838,1.671 3.781,2.694 5.827,3.07c2.047,0.376 4.083,0.303 6.109,-0.219c2.026,-0.522 3.989,-1.4 5.89,-2.632c1.9,-1.232 3.603,-2.6 5.106,-4.104c5.18,-5.179 7.665,-10.296 7.456,-15.35c-0.209,-5.055 -2.965,-10.234 -8.27,-15.539Zm-16.479,13.346c-1.754,1.754 -3.581,2.851 -5.482,3.289c-1.901,0.439 -3.801,0.418 -5.702,-0.062c-1.9,-0.481 -3.728,-1.306 -5.482,-2.475c-1.754,-1.17 -3.363,-2.486 -4.825,-3.948c-1.545,-1.545 -2.85,-3.206 -3.915,-4.981c-1.066,-1.775 -1.755,-3.592 -2.068,-5.451c-0.313,-1.859 -0.188,-3.717 0.376,-5.576c0.564,-1.859 1.702,-3.645 3.415,-5.357c1.67,-1.671 3.425,-2.757 5.263,-3.258c1.838,-0.502 3.675,-0.564 5.513,-0.188c1.838,0.376 3.613,1.086 5.326,2.13c1.713,1.044 3.279,2.276 4.699,3.697c1.504,1.503 2.83,3.185 3.979,5.043c1.149,1.859 1.942,3.76 2.381,5.702c0.438,1.942 0.407,3.895 -0.094,5.858c-0.501,1.964 -1.629,3.822 -3.384,5.577Z" style="fill-rule:nonzero;"/><path d="M1974.53,109.896c-1.588,-1.587 -2.966,-3.3 -4.136,-5.138c-1.169,-1.838 -1.963,-3.717 -2.381,-5.639c-0.417,-1.921 -0.355,-3.864 0.188,-5.827c0.543,-1.963 1.713,-3.843 3.509,-5.639c1.838,-1.838 3.749,-3.06 5.733,-3.665c1.984,-0.606 3.947,-0.752 5.89,-0.439c1.942,0.313 3.843,1.024 5.701,2.131c1.859,1.106 3.582,2.454 5.17,4.041c1.503,1.504 2.809,3.164 3.915,4.981c1.107,1.817 1.838,3.697 2.193,5.639c0.355,1.942 0.261,3.895 -0.282,5.858c-0.543,1.963 -1.712,3.843 -3.508,5.639c-1.713,1.713 -3.54,2.872 -5.483,3.478c-1.942,0.605 -3.884,0.751 -5.827,0.438c-1.942,-0.313 -3.832,-0.992 -5.67,-2.036c-1.838,-1.044 -3.509,-2.318 -5.012,-3.822Zm40.976,-9.148l-44.736,-44.736l-5.325,5.326l16.666,16.666l-0.125,0.126c-1.546,-0.376 -3.07,-0.46 -4.574,-0.251c-1.504,0.209 -2.935,0.595 -4.292,1.159c-1.358,0.564 -2.6,1.243 -3.728,2.036c-1.128,0.794 -2.11,1.608 -2.945,2.444c-2.464,2.464 -4.177,5.075 -5.138,7.832c-0.96,2.757 -1.295,5.514 -1.002,8.27c0.292,2.757 1.159,5.462 2.6,8.114c1.441,2.653 3.31,5.128 5.608,7.425c2.297,2.297 4.782,4.156 7.456,5.576c2.673,1.42 5.399,2.287 8.176,2.601c2.778,0.313 5.556,-0 8.333,-0.94c2.778,-0.94 5.42,-2.663 7.926,-5.169c2.256,-2.256 3.927,-4.72 5.013,-7.394c1.086,-2.673 1.169,-5.346 0.25,-8.02l0.126,-0.125l4.386,4.386l5.325,-5.326Z" style="fill-rule:nonzero;"/></g><path d="M2288.59,296.604l-67.388,0l-0,-44.304l-106.329,97.471l106.329,97.467l-0,-44.305l67.387,0l0,-106.329Z" style="fill:#f3cfc6;fill-rule:nonzero;stroke:#000;stroke-width:8.88px;"/><g><path d="M2150.6,160.707l-9.712,-9.712l-5.325,5.326l9.711,9.712l-5.513,5.513l4.699,4.7l5.513,-5.514l20.614,20.614c1.504,1.503 2.861,2.568 4.073,3.195c1.211,0.627 2.37,0.888 3.477,0.783c1.107,-0.104 2.245,-0.553 3.415,-1.347c1.169,-0.794 2.443,-1.88 3.822,-3.258l4.072,-4.073l-4.699,-4.699l-2.443,2.444c-0.836,0.835 -1.546,1.483 -2.131,1.942c-0.584,0.46 -1.127,0.731 -1.629,0.815c-0.501,0.083 -0.992,-0.011 -1.472,-0.282c-0.48,-0.272 -1.034,-0.721 -1.66,-1.347l-20.113,-20.113l6.454,-6.453l-4.7,-4.699l-6.453,6.453Z" style="fill-rule:nonzero;"/><path d="M2162.94,148.364l32.393,32.393l5.326,-5.326l-18.296,-18.295c-1.462,-1.462 -2.61,-3.008 -3.446,-4.637c-0.835,-1.629 -1.316,-3.3 -1.441,-5.012c-0.125,-1.713 0.157,-3.415 0.846,-5.107c0.689,-1.691 1.848,-3.352 3.477,-4.981c2.047,-2.047 4.24,-3.07 6.579,-3.07c2.339,0 4.511,1.003 6.516,3.007l21.93,21.93l5.326,-5.326l-21.303,-21.303c-1.755,-1.754 -3.53,-3.174 -5.326,-4.26c-1.796,-1.086 -3.655,-1.713 -5.576,-1.88c-1.922,-0.167 -3.885,0.167 -5.89,1.003c-2.005,0.835 -4.073,2.318 -6.203,4.448c-4.803,4.804 -6.349,10.276 -4.636,16.416l-0.126,0.125l-5.137,-5.138l-5.013,5.013Z" style="fill-rule:nonzero;"/><path d="M2197.97,113.339l44.736,44.736l5.325,-5.325l-16.666,-16.667l0.125,-0.125c1.546,0.376 3.07,0.46 4.574,0.251c1.504,-0.209 2.924,-0.606 4.261,-1.191c1.336,-0.585 2.579,-1.284 3.728,-2.099c1.148,-0.814 2.12,-1.618 2.913,-2.412c2.465,-2.464 4.188,-5.065 5.169,-7.801c0.982,-2.736 1.326,-5.482 1.034,-8.239c-0.292,-2.757 -1.159,-5.461 -2.6,-8.114c-1.441,-2.652 -3.31,-5.127 -5.608,-7.424c-2.297,-2.298 -4.782,-4.157 -7.456,-5.577c-2.673,-1.42 -5.409,-2.297 -8.208,-2.631c-2.798,-0.334 -5.586,-0.032 -8.364,0.908c-2.778,0.94 -5.42,2.663 -7.926,5.169c-2.256,2.256 -3.916,4.731 -4.981,7.425c-1.065,2.694 -1.138,5.378 -0.22,8.051l-0.125,0.126l-4.386,-4.386l-5.325,5.325Zm40.976,-9.147c1.588,1.587 2.966,3.3 4.136,5.137c1.169,1.838 1.963,3.718 2.38,5.639c0.418,1.922 0.366,3.854 -0.156,5.796c-0.522,1.942 -1.702,3.833 -3.54,5.67c-1.838,1.838 -3.749,3.06 -5.733,3.666c-1.984,0.605 -3.947,0.752 -5.89,0.438c-1.942,-0.313 -3.843,-1.023 -5.701,-2.13c-1.859,-1.107 -3.582,-2.454 -5.17,-4.041c-1.503,-1.504 -2.809,-3.164 -3.916,-4.981c-1.106,-1.817 -1.837,-3.697 -2.192,-5.639c-0.356,-1.943 -0.262,-3.895 0.281,-5.859c0.543,-1.963 1.713,-3.842 3.509,-5.639c1.713,-1.712 3.54,-2.871 5.483,-3.477c1.942,-0.606 3.884,-0.752 5.827,-0.439c1.942,0.314 3.832,0.992 5.67,2.037c1.838,1.044 3.509,2.318 5.012,3.822Z" style="fill-rule:nonzero;"/></g><path d="M2316.9,296.604l7.708,0l0,-44.304l106.329,97.471l-106.329,97.467l0,-44.305l-7.708,0l-0,-106.329Z" style="fill:#9fe2bf;fill-rule:nonzero;stroke:#000;stroke-width:8.88px;"/><g><path d="M2315.2,168.288l32.393,32.392l5.325,-5.325l-14.41,-14.411c-2.089,-2.089 -3.728,-4.146 -4.919,-6.172c-1.19,-2.025 -1.89,-4.062 -2.099,-6.109c-0.209,-2.046 0.146,-4.114 1.065,-6.202c0.919,-2.089 2.444,-4.198 4.574,-6.329l-5.639,-5.639c-2.965,2.799 -4.762,5.765 -5.388,8.897c-0.627,3.133 -0.272,6.663 1.065,10.589l-0.125,0.126l-6.83,-6.83l-5.012,5.013Z" style="fill-rule:nonzero;"/><path d="M2336.25,147.235l32.393,32.393l5.326,-5.326l-20.175,-20.175c-0.627,-0.626 -1.254,-1.566 -1.88,-2.819c-0.627,-1.253 -1.034,-2.663 -1.222,-4.229c-0.188,-1.567 -0.042,-3.217 0.439,-4.95c0.48,-1.734 1.493,-3.373 3.039,-4.919c1.211,-1.211 2.38,-2.025 3.508,-2.443c1.128,-0.418 2.245,-0.533 3.352,-0.345c1.107,0.188 2.193,0.627 3.258,1.316c1.066,0.689 2.12,1.556 3.165,2.6l21.24,21.24l5.325,-5.325l-20.175,-20.175c-2.506,-2.507 -3.759,-5.263 -3.759,-8.271c0,-3.007 1.316,-5.827 3.947,-8.458c1.295,-1.295 2.538,-2.162 3.728,-2.601c1.191,-0.438 2.339,-0.564 3.446,-0.376c1.107,0.188 2.183,0.637 3.227,1.348c1.044,0.71 2.068,1.566 3.07,2.568l21.241,21.241l5.325,-5.326l-23.746,-23.747c-1.671,-1.67 -3.363,-2.84 -5.075,-3.508c-1.713,-0.669 -3.415,-0.909 -5.107,-0.721c-1.691,0.188 -3.373,0.762 -5.044,1.723c-1.67,0.961 -3.32,2.256 -4.949,3.885c-2.131,2.13 -3.603,4.563 -4.418,7.299c-0.814,2.736 -0.887,5.524 -0.219,8.365c-2.673,-1.337 -5.242,-1.608 -7.706,-0.815c-2.465,0.794 -4.7,2.193 -6.705,4.198c-4.553,4.553 -6.202,9.879 -4.949,15.977l-0.126,0.126l-4.762,-4.762l-5.012,5.012Z" style="fill-rule:nonzero;"/><path d="M2377.67,81.134l44.736,44.736l5.326,-5.326l-44.736,-44.736l-5.326,5.326Z" style="fill-rule:nonzero;"/><path d="M2426.1,85.206l-13.283,-28.445l0.125,-0.126l28.321,13.409l-15.163,15.162Zm-21.804,-30.701l27.318,62.154l6.077,-6.077l-8.458,-18.484l18.922,-18.922l18.358,8.584l6.579,-6.579l-62.217,-27.255l-6.579,6.579Z" style="fill-rule:nonzero;"/></g><path d="M2430.93,447.238l0,-194.938l79.35,97.471l-79.35,97.467Z" style="fill:#9fe2bf;fill-rule:nonzero;stroke:#000;stroke-width:8.88px;"/><g><path d="M2411.89,168.291l32.393,32.393l5.326,-5.326l-14.411,-14.41c-2.089,-2.089 -3.728,-4.146 -4.919,-6.172c-1.19,-2.026 -1.89,-4.062 -2.099,-6.109c-0.208,-2.047 0.147,-4.114 1.066,-6.203c0.918,-2.088 2.443,-4.198 4.573,-6.328l-5.639,-5.639c-2.965,2.799 -4.761,5.764 -5.388,8.897c-0.627,3.133 -0.271,6.662 1.065,10.589l-0.125,0.125l-6.83,-6.829l-5.012,5.012Z" style="fill-rule:nonzero;"/><path d="M2432.95,147.239l32.393,32.393l5.326,-5.326l-20.175,-20.175c-0.627,-0.627 -1.253,-1.566 -1.88,-2.819c-0.626,-1.254 -1.034,-2.663 -1.222,-4.23c-0.188,-1.566 -0.041,-3.216 0.439,-4.95c0.48,-1.733 1.493,-3.372 3.039,-4.918c1.211,-1.211 2.381,-2.026 3.508,-2.444c1.128,-0.417 2.246,-0.532 3.353,-0.344c1.106,0.188 2.192,0.626 3.258,1.316c1.065,0.689 2.119,1.556 3.164,2.6l21.24,21.24l5.326,-5.326l-20.175,-20.175c-2.507,-2.506 -3.76,-5.263 -3.76,-8.27c0,-3.008 1.316,-5.827 3.948,-8.459c1.294,-1.295 2.537,-2.161 3.728,-2.6c1.19,-0.439 2.339,-0.564 3.446,-0.376c1.107,0.188 2.182,0.637 3.226,1.347c1.045,0.71 2.068,1.567 3.07,2.569l21.241,21.24l5.325,-5.325l-23.746,-23.747c-1.671,-1.671 -3.363,-2.84 -5.075,-3.509c-1.713,-0.668 -3.415,-0.908 -5.107,-0.72c-1.691,0.188 -3.373,0.762 -5.043,1.723c-1.671,0.961 -3.321,2.255 -4.95,3.885c-2.13,2.13 -3.603,4.563 -4.417,7.299c-0.815,2.736 -0.888,5.524 -0.22,8.364c-2.673,-1.336 -5.242,-1.608 -7.706,-0.814c-2.465,0.794 -4.699,2.193 -6.704,4.198c-4.553,4.553 -6.203,9.878 -4.95,15.977l-0.126,0.125l-4.761,-4.762l-5.013,5.013Z" style="fill-rule:nonzero;"/><path d="M2474.36,81.137l44.736,44.736l5.325,-5.325l-44.736,-44.736l-5.325,5.325Z" style="fill-rule:nonzero;"/><path d="M2533.76,48.682l5.952,-5.953c-2.715,-2.046 -5.524,-3.435 -8.427,-4.166c-2.903,-0.731 -5.775,-0.888 -8.615,-0.47c-2.84,0.418 -5.618,1.357 -8.333,2.819c-2.715,1.462 -5.242,3.363 -7.582,5.702c-3.425,3.425 -5.847,7.08 -7.268,10.965c-1.42,3.884 -1.952,7.78 -1.597,11.685c0.355,3.906 1.503,7.748 3.446,11.529c1.942,3.78 4.542,7.299 7.8,10.557c3.258,3.258 6.736,5.879 10.433,7.863c3.696,1.985 7.445,3.165 11.246,3.54c3.801,0.376 7.592,-0.135 11.372,-1.535c3.78,-1.399 7.404,-3.832 10.871,-7.299c5.722,-5.723 8.667,-11.8 8.834,-18.233c0.167,-6.432 -2.276,-12.761 -7.33,-18.984l-5.953,5.952c1.713,1.963 3.05,4.052 4.01,6.265c0.961,2.214 1.462,4.449 1.504,6.705c0.042,2.255 -0.376,4.469 -1.253,6.641c-0.877,2.172 -2.297,4.24 -4.261,6.203c-2.673,2.673 -5.472,4.469 -8.395,5.388c-2.924,0.919 -5.848,1.149 -8.772,0.69c-2.924,-0.46 -5.817,-1.535 -8.678,-3.227c-2.861,-1.692 -5.566,-3.812 -8.114,-6.36c-2.339,-2.339 -4.302,-4.887 -5.89,-7.644c-1.587,-2.757 -2.61,-5.597 -3.07,-8.521c-0.459,-2.924 -0.24,-5.837 0.658,-8.74c0.898,-2.903 2.684,-5.692 5.357,-8.365c3.133,-3.133 6.631,-5.044 10.495,-5.733c3.864,-0.689 7.717,0.219 11.56,2.726Z" style="fill-rule:nonzero;"/></g><path d="M2511.48,296.604l33.225,0l0,-44.304l106.329,97.471l-106.329,97.467l0,-44.305l-33.225,0l0,-106.329Z" style="fill:#9fe2bf;fill-rule:nonzero;stroke:#000;stroke-width:8.88px;"/><g><path d="M2522.54,168.287l32.393,32.393l5.325,-5.326l-14.41,-14.41c-2.089,-2.089 -3.728,-4.146 -4.919,-6.172c-1.19,-2.026 -1.89,-4.062 -2.099,-6.109c-0.209,-2.047 0.146,-4.114 1.065,-6.203c0.919,-2.088 2.444,-4.198 4.574,-6.328l-5.639,-5.639c-2.966,2.799 -4.762,5.764 -5.388,8.897c-0.627,3.133 -0.272,6.663 1.065,10.589l-0.125,0.125l-6.83,-6.829l-5.012,5.012Z" style="fill-rule:nonzero;"/><path d="M2543.6,147.235l32.393,32.393l5.326,-5.326l-20.175,-20.175c-0.627,-0.626 -1.254,-1.566 -1.88,-2.819c-0.627,-1.253 -1.034,-2.663 -1.222,-4.23c-0.188,-1.566 -0.042,-3.216 0.439,-4.949c0.48,-1.734 1.493,-3.373 3.038,-4.919c1.212,-1.211 2.381,-2.026 3.509,-2.443c1.128,-0.418 2.245,-0.533 3.352,-0.345c1.107,0.188 2.193,0.627 3.258,1.316c1.065,0.689 2.12,1.556 3.164,2.6l21.241,21.24l5.325,-5.326l-20.175,-20.175c-2.506,-2.506 -3.759,-5.263 -3.759,-8.27c-0,-3.008 1.316,-5.827 3.947,-8.459c1.295,-1.295 2.538,-2.161 3.728,-2.6c1.191,-0.438 2.339,-0.564 3.446,-0.376c1.107,0.188 2.183,0.637 3.227,1.347c1.044,0.71 2.068,1.567 3.07,2.569l21.24,21.24l5.326,-5.325l-23.746,-23.747c-1.671,-1.671 -3.363,-2.84 -5.075,-3.509c-1.713,-0.668 -3.415,-0.908 -5.107,-0.72c-1.692,0.188 -3.373,0.762 -5.044,1.723c-1.67,0.961 -3.32,2.256 -4.949,3.885c-2.131,2.13 -3.603,4.563 -4.418,7.299c-0.814,2.736 -0.887,5.524 -0.219,8.365c-2.673,-1.337 -5.242,-1.609 -7.707,-0.815c-2.464,0.794 -4.699,2.193 -6.704,4.198c-4.553,4.553 -6.203,9.879 -4.949,15.977l-0.126,0.125l-4.762,-4.761l-5.012,5.012Z" style="fill-rule:nonzero;"/><path d="M2585.01,81.133l44.736,44.736l5.326,-5.325l-44.736,-44.736l-5.326,5.325Z" style="fill-rule:nonzero;"/><path d="M2624.67,79.943l-14.223,-14.223l11.905,-11.904c1.295,-1.295 2.59,-2.444 3.885,-3.447c1.295,-1.002 2.631,-1.691 4.01,-2.067c1.378,-0.376 2.777,-0.355 4.198,0.063c1.42,0.417 2.923,1.42 4.511,3.007c2.381,2.381 3.425,4.908 3.133,7.581c-0.293,2.674 -2.131,5.702 -5.514,9.085l-11.905,11.905Zm-25.187,-13.283l44.736,44.736l21.616,-21.616c2.214,-2.214 3.801,-4.532 4.762,-6.955c0.961,-2.423 1.42,-4.804 1.378,-7.143c-0.042,-2.339 -0.543,-4.574 -1.504,-6.704c-0.96,-2.13 -2.255,-4.01 -3.884,-5.639c-2.757,-2.757 -5.827,-4.365 -9.211,-4.824c-3.383,-0.46 -6.745,0.397 -10.087,2.569l-0.125,-0.126c1.294,-2.965 1.65,-5.889 1.065,-8.771c-0.585,-2.883 -2.068,-5.514 -4.449,-7.895c-2.255,-2.256 -4.668,-3.645 -7.237,-4.167c-2.568,-0.522 -5.022,-0.49 -7.362,0.094c-1.086,0.251 -2.203,0.742 -3.352,1.473c-1.148,0.731 -2.318,1.587 -3.508,2.569c-1.191,0.981 -2.35,2.015 -3.478,3.101c-1.128,1.086 -2.172,2.109 -3.132,3.07l-16.228,16.228Zm45.676,33.771l-15.476,-15.476l13.596,-13.596c1.253,-1.253 2.579,-2.349 3.979,-3.289c1.399,-0.94 2.83,-1.577 4.291,-1.911c1.462,-0.334 2.945,-0.293 4.449,0.125c1.504,0.418 2.987,1.358 4.449,2.82c2.506,2.506 3.728,5.21 3.665,8.113c-0.063,2.903 -1.41,5.671 -4.041,8.302l-14.912,14.912Z" style="fill-rule:nonzero;"/></g><path d="M2659.68,296.604l6.908,0l0,-44.304l106.33,97.471l-106.33,97.467l0,-44.305l-6.908,0l0,-106.329Z" style="fill:#9fe2bf;fill-rule:nonzero;stroke:#000;stroke-width:8.88px;"/><g><path d="M2657.58,168.289l32.393,32.393l5.325,-5.326l-14.41,-14.411c-2.089,-2.088 -3.728,-4.145 -4.919,-6.171c-1.19,-2.026 -1.89,-4.062 -2.099,-6.109c-0.209,-2.047 0.146,-4.115 1.065,-6.203c0.919,-2.089 2.444,-4.198 4.574,-6.328l-5.639,-5.639c-2.965,2.798 -4.762,5.764 -5.388,8.897c-0.627,3.133 -0.272,6.662 1.065,10.589l-0.125,0.125l-6.83,-6.83l-5.012,5.013Z" style="fill-rule:nonzero;"/><path d="M2678.64,147.237l32.393,32.392l5.326,-5.325l-20.175,-20.175c-0.627,-0.627 -1.253,-1.567 -1.88,-2.82c-0.627,-1.253 -1.034,-2.663 -1.222,-4.229c-0.188,-1.566 -0.042,-3.216 0.439,-4.95c0.48,-1.733 1.493,-3.373 3.039,-4.918c1.211,-1.212 2.38,-2.026 3.508,-2.444c1.128,-0.418 2.245,-0.532 3.352,-0.345c1.107,0.188 2.193,0.627 3.258,1.316c1.066,0.689 2.12,1.556 3.165,2.6l21.24,21.241l5.326,-5.326l-20.176,-20.175c-2.506,-2.506 -3.759,-5.263 -3.759,-8.271c0,-3.007 1.316,-5.827 3.947,-8.458c1.295,-1.295 2.538,-2.162 3.728,-2.6c1.191,-0.439 2.34,-0.564 3.446,-0.376c1.107,0.188 2.183,0.637 3.227,1.347c1.044,0.71 2.068,1.566 3.07,2.569l21.241,21.24l5.325,-5.326l-23.746,-23.746c-1.671,-1.671 -3.363,-2.841 -5.075,-3.509c-1.713,-0.668 -3.415,-0.908 -5.107,-0.721c-1.691,0.188 -3.373,0.763 -5.043,1.724c-1.671,0.96 -3.321,2.255 -4.95,3.884c-2.131,2.13 -3.603,4.564 -4.417,7.3c-0.815,2.735 -0.888,5.524 -0.22,8.364c-2.673,-1.337 -5.242,-1.608 -7.706,-0.814c-2.465,0.793 -4.7,2.192 -6.705,4.197c-4.553,4.553 -6.202,9.879 -4.949,15.978l-0.126,0.125l-4.761,-4.762l-5.013,5.013Z" style="fill-rule:nonzero;"/><path d="M2720.05,81.135l44.736,44.736l5.326,-5.326l-44.736,-44.736l-5.326,5.326Z" style="fill-rule:nonzero;"/><path d="M2780.2,100.433l-34.711,-34.711l10.024,-10.025c2.757,-2.757 5.462,-4.689 8.114,-5.796c2.653,-1.107 5.316,-1.514 7.989,-1.222c2.673,0.293 5.326,1.233 7.957,2.82c2.632,1.587 5.284,3.717 7.957,6.391c2.757,2.757 4.825,5.388 6.203,7.894c1.379,2.507 2.277,4.846 2.695,7.018c0.417,2.172 0.449,4.187 0.094,6.046c-0.356,1.859 -0.899,3.55 -1.63,5.075c-0.73,1.525 -1.545,2.84 -2.443,3.947c-0.898,1.107 -1.681,1.995 -2.35,2.663l-9.899,9.9Zm-45.676,-33.772l44.736,44.737l15.351,-15.351c3.717,-3.718 6.411,-7.456 8.082,-11.215c1.671,-3.76 2.391,-7.509 2.162,-11.247c-0.23,-3.739 -1.379,-7.477 -3.446,-11.215c-2.068,-3.739 -4.981,-7.488 -8.741,-11.247c-7.184,-7.185 -14.39,-10.672 -21.616,-10.464c-7.226,0.209 -14.285,3.76 -21.178,10.652l-15.35,15.35Z" style="fill-rule:nonzero;"/></g><path d="M2789.26,296.604l40.27,0l0,-44.304l106.33,97.471l-106.33,97.467l0,-44.305l-40.27,0l-0,-106.329Z" style="fill:#f3cfc6;fill-rule:nonzero;stroke:#000;stroke-width:8.88px;"/><g><path d="M2811.43,160.71l-9.712,-9.711l-5.325,5.326l9.711,9.711l-5.513,5.514l4.699,4.699l5.513,-5.514l20.614,20.614c1.504,1.504 2.861,2.569 4.073,3.195c1.211,0.627 2.37,0.888 3.477,0.784c1.107,-0.105 2.245,-0.554 3.415,-1.347c1.169,-0.794 2.443,-1.88 3.822,-3.258l4.072,-4.073l-4.699,-4.699l-2.443,2.443c-0.836,0.836 -1.546,1.483 -2.131,1.943c-0.584,0.459 -1.127,0.731 -1.629,0.814c-0.501,0.084 -0.992,-0.01 -1.472,-0.282c-0.48,-0.271 -1.034,-0.72 -1.66,-1.347l-20.113,-20.112l6.454,-6.454l-4.7,-4.699l-6.453,6.453Z" style="fill-rule:nonzero;"/><path d="M2823.78,148.367l32.393,32.393l5.326,-5.325l-18.296,-18.296c-1.462,-1.462 -2.61,-3.007 -3.446,-4.636c-0.835,-1.629 -1.315,-3.3 -1.441,-5.013c-0.125,-1.712 0.157,-3.415 0.846,-5.106c0.689,-1.692 1.848,-3.352 3.477,-4.981c2.047,-2.047 4.24,-3.071 6.579,-3.071c2.339,0 4.511,1.003 6.516,3.008l21.93,21.929l5.326,-5.325l-21.303,-21.303c-1.755,-1.755 -3.53,-3.175 -5.326,-4.261c-1.796,-1.086 -3.655,-1.712 -5.576,-1.879c-1.922,-0.168 -3.885,0.167 -5.89,1.002c-2.005,0.835 -4.073,2.318 -6.203,4.449c-4.803,4.803 -6.349,10.275 -4.636,16.415l-0.126,0.126l-5.137,-5.138l-5.013,5.012Z" style="fill-rule:nonzero;"/><path d="M2858.8,113.343l44.736,44.736l5.325,-5.326l-16.666,-16.666l0.125,-0.125c1.546,0.375 3.07,0.459 4.574,0.25c1.504,-0.209 2.924,-0.606 4.261,-1.19c1.336,-0.585 2.579,-1.285 3.728,-2.099c1.148,-0.815 2.12,-1.619 2.913,-2.413c2.465,-2.464 4.188,-5.064 5.169,-7.8c0.982,-2.736 1.327,-5.482 1.034,-8.239c-0.292,-2.757 -1.159,-5.462 -2.6,-8.114c-1.441,-2.653 -3.31,-5.128 -5.608,-7.425c-2.297,-2.297 -4.782,-4.156 -7.456,-5.576c-2.673,-1.42 -5.409,-2.298 -8.208,-2.632c-2.798,-0.334 -5.586,-0.031 -8.364,0.909c-2.778,0.94 -5.42,2.663 -7.926,5.169c-2.256,2.255 -3.916,4.73 -4.981,7.424c-1.065,2.695 -1.138,5.378 -0.219,8.052l-0.126,0.125l-4.386,-4.386l-5.325,5.326Zm40.976,-9.148c1.588,1.587 2.966,3.3 4.136,5.138c1.169,1.838 1.963,3.717 2.381,5.639c0.417,1.921 0.365,3.853 -0.157,5.796c-0.522,1.942 -1.702,3.832 -3.54,5.67c-1.838,1.838 -3.749,3.06 -5.733,3.665c-1.984,0.606 -3.947,0.752 -5.89,0.439c-1.942,-0.313 -3.843,-1.024 -5.701,-2.13c-1.859,-1.107 -3.582,-2.454 -5.17,-4.042c-1.503,-1.503 -2.809,-3.164 -3.915,-4.981c-1.107,-1.817 -1.838,-3.697 -2.193,-5.639c-0.355,-1.942 -0.261,-3.895 0.282,-5.858c0.543,-1.963 1.712,-3.843 3.508,-5.639c1.713,-1.713 3.54,-2.872 5.483,-3.478c1.942,-0.605 3.884,-0.751 5.827,-0.438c1.942,0.313 3.832,0.992 5.67,2.036c1.838,1.044 3.509,2.318 5.012,3.822Z" style="fill-rule:nonzero;"/></g><path d="M2962.58,447.238l0,-194.938l47.45,97.471l-47.45,97.467Z" style="fill-rule:nonzero;stroke:#000;stroke-width:8.88px;"/><g><path d="M2988.74,171.672c-0.376,1.462 -1.379,3.008 -3.008,4.637c-1.378,1.378 -2.861,2.088 -4.448,2.13c-1.588,0.042 -3.258,-0.814 -5.013,-2.569c0.293,3.217 -0.146,6.182 -1.315,8.897c-1.17,2.716 -2.883,5.201 -5.138,7.456c-1.462,1.462 -3.018,2.684 -4.668,3.666c-1.65,0.981 -3.31,1.598 -4.981,1.848c-1.671,0.251 -3.363,0.084 -5.075,-0.501c-1.713,-0.585 -3.384,-1.692 -5.013,-3.321c-1.838,-1.838 -3.028,-3.655 -3.571,-5.451c-0.543,-1.796 -0.668,-3.571 -0.376,-5.326c0.292,-1.754 0.908,-3.477 1.848,-5.169c0.94,-1.691 1.974,-3.352 3.102,-4.981c1.169,-1.754 2.339,-3.362 3.508,-4.824c1.17,-1.462 2.12,-2.83 2.851,-4.104c0.731,-1.274 1.128,-2.465 1.191,-3.572c0.062,-1.106 -0.408,-2.161 -1.41,-3.164c-1.17,-1.169 -2.329,-1.89 -3.477,-2.161c-1.149,-0.272 -2.256,-0.251 -3.321,0.062c-1.065,0.314 -2.089,0.836 -3.07,1.567c-0.982,0.731 -1.89,1.514 -2.726,2.349c-2.255,2.256 -3.707,4.564 -4.354,6.924c-0.648,2.36 0.156,4.793 2.412,7.299l-5.326,5.326c-1.921,-2.089 -3.195,-4.198 -3.822,-6.328c-0.626,-2.131 -0.741,-4.25 -0.344,-6.36c0.396,-2.109 1.211,-4.156 2.443,-6.14c1.232,-1.984 2.767,-3.895 4.605,-5.733c1.462,-1.462 3.018,-2.809 4.668,-4.041c1.65,-1.233 3.384,-2.11 5.201,-2.632c1.817,-0.522 3.665,-0.553 5.545,-0.094c1.879,0.46 3.759,1.629 5.639,3.509l16.666,16.666c1.253,1.253 2.245,2.099 2.976,2.538c0.731,0.438 1.514,0.24 2.35,-0.596c0.459,-0.459 0.898,-1.106 1.315,-1.942l4.136,4.135Zm-25.25,-7.957c-0.168,1.17 -0.679,2.412 -1.536,3.728c-0.856,1.316 -1.806,2.642 -2.85,3.979c-1.045,1.336 -2.078,2.704 -3.102,4.104c-1.023,1.399 -1.806,2.788 -2.349,4.166c-0.543,1.379 -0.731,2.757 -0.564,4.136c0.167,1.378 0.919,2.736 2.255,4.072c0.878,0.877 1.796,1.441 2.757,1.692c0.961,0.251 1.911,0.282 2.851,0.094c0.94,-0.188 1.869,-0.574 2.788,-1.159c0.919,-0.585 1.796,-1.295 2.632,-2.13c1.754,-1.755 3.018,-3.499 3.79,-5.232c0.773,-1.734 1.191,-3.363 1.253,-4.887c0.063,-1.525 -0.146,-2.903 -0.626,-4.136c-0.48,-1.232 -1.097,-2.224 -1.848,-2.976l-5.451,-5.451Z" style="fill-rule:nonzero;"/><path d="M2949.4,121.799l44.736,44.736l5.326,-5.326l-44.736,-44.736l-5.326,5.326Z" style="fill-rule:nonzero;"/><path d="M2975.15,109.08l-6.516,-6.517l-5.325,5.326l6.516,6.516l5.325,-5.325Zm0.502,11.152l32.393,32.393l5.325,-5.326l-32.393,-32.393l-5.325,5.326Z" style="fill-rule:nonzero;"/><path d="M3011.74,111.962l-13.283,-28.446l0.126,-0.125l28.32,13.408l-15.163,15.163Zm-21.804,-30.702l27.318,62.155l6.078,-6.078l-8.459,-18.483l18.922,-18.922l18.358,8.584l6.579,-6.579l-62.217,-27.255l-6.579,6.578Z" style="fill-rule:nonzero;"/></g></svg>