<?xml version="1.0" encoding="UTF-8" standalone="no"?>
<!DOCTYPE svg PUBLIC "-//W3C//DTD SVG 1.1//EN" "http://www.w3.org/Graphics/SVG/1.1/DTD/svg11.dtd">
<svg width="100%" height="100%" viewBox="0 0 3093 483" version="1.1" xmlns="http://www.w3.org/2000/svg" xmlns:xlink="http://www.w3.org/1999/xlink" xml:space="preserve" xmlns:serif="http://www.serif.com/" style="fill-rule:evenodd;clip-rule:evenodd;">
    <path d="M19.055,362.045L3073.1,362.045" style="fill:none;fill-rule:nonzero;stroke:rgb(17,17,17);stroke-width:9.24px;"/>
    <path d="M19.055,306.587L131.079,306.587L131.079,260.373L241.994,362.045L131.079,463.717L131.079,417.502L19.055,417.502L19.055,306.587Z" style="fill-rule:nonzero;stroke:black;stroke-width:9.24px;"/>
    <g transform="matrix(0.707107,-0.707107,0.707107,0.707107,99.0829,210.515)">
        <g transform="matrix(92.429,0,0,92.429,0,0)">
            <path d="M0.126,-0.254C0.126,-0.279 0.129,-0.304 0.134,-0.328C0.139,-0.352 0.148,-0.373 0.16,-0.392C0.172,-0.411 0.188,-0.426 0.208,-0.437C0.228,-0.448 0.252,-0.454 0.281,-0.454C0.31,-0.454 0.335,-0.448 0.356,-0.438C0.377,-0.427 0.394,-0.412 0.407,-0.394C0.42,-0.376 0.429,-0.355 0.435,-0.332C0.441,-0.308 0.444,-0.283 0.444,-0.258C0.444,-0.234 0.441,-0.21 0.436,-0.187C0.43,-0.164 0.421,-0.143 0.408,-0.125C0.395,-0.106 0.379,-0.091 0.359,-0.08C0.339,-0.069 0.315,-0.063 0.286,-0.063C0.259,-0.063 0.235,-0.068 0.215,-0.079C0.194,-0.09 0.178,-0.104 0.165,-0.122C0.152,-0.14 0.142,-0.161 0.136,-0.184C0.129,-0.206 0.126,-0.23 0.126,-0.254ZM0.526,-0L0.526,-0.714L0.441,-0.714L0.441,-0.448L0.439,-0.448C0.43,-0.463 0.418,-0.476 0.405,-0.487C0.391,-0.497 0.376,-0.505 0.361,-0.512C0.346,-0.518 0.33,-0.522 0.315,-0.525C0.3,-0.528 0.285,-0.529 0.272,-0.529C0.233,-0.529 0.198,-0.522 0.169,-0.508C0.139,-0.493 0.114,-0.474 0.095,-0.45C0.075,-0.425 0.06,-0.397 0.051,-0.364C0.041,-0.331 0.036,-0.297 0.036,-0.26C0.036,-0.223 0.041,-0.189 0.051,-0.156C0.061,-0.123 0.076,-0.095 0.096,-0.07C0.115,-0.045 0.14,-0.026 0.17,-0.011C0.199,0.004 0.234,0.011 0.274,0.011C0.31,0.011 0.343,0.005 0.373,-0.008C0.403,-0.021 0.425,-0.041 0.439,-0.07L0.441,-0.07L0.441,-0L0.526,-0Z" style="fill-rule:nonzero;"/>
        </g>
        <g transform="matrix(92.429,0,0,92.429,54.8104,0)">
            <path d="M0.423,-0.308L0.126,-0.308C0.127,-0.328 0.132,-0.347 0.139,-0.365C0.146,-0.382 0.156,-0.398 0.169,-0.411C0.182,-0.424 0.197,-0.435 0.215,-0.443C0.232,-0.45 0.252,-0.454 0.274,-0.454C0.295,-0.454 0.315,-0.45 0.333,-0.443C0.35,-0.435 0.366,-0.425 0.379,-0.412C0.392,-0.399 0.402,-0.383 0.41,-0.365C0.417,-0.347 0.422,-0.328 0.423,-0.308ZM0.505,-0.164L0.421,-0.164C0.414,-0.13 0.399,-0.105 0.376,-0.088C0.353,-0.071 0.323,-0.063 0.287,-0.063C0.259,-0.063 0.235,-0.068 0.214,-0.077C0.193,-0.086 0.176,-0.099 0.163,-0.115C0.15,-0.13 0.14,-0.148 0.134,-0.169C0.128,-0.189 0.125,-0.21 0.126,-0.233L0.513,-0.233C0.514,-0.264 0.511,-0.297 0.505,-0.332C0.498,-0.367 0.485,-0.399 0.467,-0.428C0.448,-0.457 0.424,-0.482 0.394,-0.501C0.363,-0.52 0.325,-0.529 0.279,-0.529C0.244,-0.529 0.211,-0.522 0.182,-0.509C0.152,-0.496 0.126,-0.477 0.105,-0.453C0.083,-0.429 0.066,-0.401 0.054,-0.368C0.042,-0.335 0.036,-0.299 0.036,-0.26C0.037,-0.221 0.043,-0.184 0.054,-0.151C0.064,-0.118 0.079,-0.089 0.1,-0.065C0.121,-0.041 0.146,-0.022 0.177,-0.009C0.207,0.004 0.243,0.011 0.284,0.011C0.343,0.011 0.391,-0.004 0.43,-0.033C0.469,-0.062 0.494,-0.106 0.505,-0.164Z" style="fill-rule:nonzero;"/>
        </g>
        <g transform="matrix(92.429,0,0,92.429,104.445,0)">
            <path d="M0.203,-0.272L0.009,-0L0.112,-0L0.256,-0.214L0.4,-0L0.509,-0L0.309,-0.279L0.487,-0.517L0.385,-0.517L0.256,-0.336L0.132,-0.517L0.023,-0.517L0.203,-0.272Z" style="fill-rule:nonzero;"/>
        </g>
        <g transform="matrix(92.429,0,0,92.429,152.323,0)">
            <path d="M0.173,-0.407L0.173,-0.634L0.363,-0.634C0.384,-0.634 0.403,-0.633 0.422,-0.631C0.44,-0.628 0.456,-0.623 0.47,-0.615C0.484,-0.607 0.495,-0.596 0.503,-0.581C0.511,-0.566 0.515,-0.546 0.515,-0.521C0.515,-0.483 0.503,-0.455 0.48,-0.436C0.456,-0.417 0.417,-0.407 0.363,-0.407L0.173,-0.407ZM0.078,-0.714L0.078,-0L0.423,-0C0.458,-0 0.49,-0.006 0.517,-0.018C0.544,-0.029 0.566,-0.045 0.585,-0.064C0.603,-0.083 0.617,-0.104 0.626,-0.129C0.635,-0.154 0.64,-0.179 0.64,-0.205C0.64,-0.249 0.628,-0.286 0.605,-0.317C0.582,-0.348 0.548,-0.368 0.504,-0.377L0.504,-0.379C0.538,-0.392 0.564,-0.413 0.583,-0.441C0.601,-0.468 0.61,-0.501 0.61,-0.539C0.61,-0.575 0.602,-0.605 0.586,-0.63C0.569,-0.655 0.549,-0.674 0.526,-0.688C0.515,-0.695 0.503,-0.7 0.488,-0.703C0.472,-0.706 0.456,-0.709 0.439,-0.711C0.422,-0.712 0.404,-0.713 0.387,-0.714C0.369,-0.714 0.352,-0.714 0.337,-0.714L0.078,-0.714ZM0.173,-0.08L0.173,-0.327L0.39,-0.327C0.41,-0.327 0.429,-0.325 0.448,-0.322C0.467,-0.318 0.483,-0.312 0.498,-0.303C0.512,-0.294 0.523,-0.281 0.532,-0.266C0.541,-0.251 0.545,-0.231 0.545,-0.208C0.545,-0.168 0.533,-0.137 0.51,-0.114C0.486,-0.091 0.453,-0.08 0.411,-0.08L0.173,-0.08Z" style="fill-rule:nonzero;"/>
        </g>
    </g>
    <path d="M263.899,463.717L263.899,260.373L288.023,362.045L263.899,463.717Z" style="fill:rgb(51,255,189);fill-rule:nonzero;stroke:black;stroke-width:9.24px;"/>
    <path d="M334.053,463.717L334.053,260.373L284.557,362.045L334.053,463.717Z" style="fill:rgb(243,207,198);fill-rule:nonzero;stroke:black;stroke-width:9.24px;"/>
    <g transform="matrix(0.707107,-0.707107,0.707107,0.707107,277.864,210.515)">
        <g transform="matrix(92.429,0,0,92.429,0,0)">
            <path d="M0.182,-0.517L0.182,-0.672L0.097,-0.672L0.097,-0.517L0.009,-0.517L0.009,-0.442L0.097,-0.442L0.097,-0.113C0.097,-0.089 0.099,-0.07 0.104,-0.055C0.109,-0.04 0.116,-0.029 0.126,-0.021C0.135,-0.013 0.148,-0.008 0.164,-0.005C0.179,-0.002 0.198,-0 0.22,-0L0.285,-0L0.285,-0.075L0.246,-0.075C0.233,-0.075 0.222,-0.076 0.214,-0.077C0.205,-0.078 0.199,-0.08 0.194,-0.083C0.189,-0.086 0.186,-0.091 0.185,-0.097C0.183,-0.103 0.182,-0.111 0.182,-0.121L0.182,-0.442L0.285,-0.442L0.285,-0.517L0.182,-0.517Z" style="fill-rule:nonzero;"/>
        </g>
        <g transform="matrix(92.429,0,0,92.429,29.1151,0)">
            <path d="M0.064,-0.517L0.064,-0L0.149,-0L0.149,-0.292C0.149,-0.315 0.152,-0.337 0.159,-0.357C0.165,-0.376 0.174,-0.393 0.187,-0.408C0.2,-0.423 0.216,-0.434 0.235,-0.442C0.254,-0.45 0.276,-0.454 0.302,-0.454C0.335,-0.454 0.36,-0.445 0.379,-0.426C0.398,-0.407 0.407,-0.382 0.407,-0.35L0.407,-0L0.492,-0L0.492,-0.34C0.492,-0.368 0.489,-0.393 0.484,-0.417C0.478,-0.44 0.468,-0.459 0.454,-0.476C0.44,-0.493 0.422,-0.506 0.399,-0.515C0.376,-0.524 0.348,-0.529 0.314,-0.529C0.237,-0.529 0.181,-0.498 0.146,-0.435L0.144,-0.435L0.144,-0.517L0.064,-0.517Z" style="fill-rule:nonzero;"/>
        </g>
        <g transform="matrix(92.429,0,0,92.429,80.5057,0)">
            <path d="M0.067,-0.517L0.067,0.197L0.152,0.197L0.152,-0.069L0.154,-0.069C0.163,-0.054 0.175,-0.041 0.189,-0.031C0.202,-0.02 0.217,-0.012 0.232,-0.006C0.247,0 0.263,0.004 0.279,0.007C0.294,0.01 0.308,0.011 0.321,0.011C0.36,0.011 0.395,0.004 0.425,-0.01C0.454,-0.024 0.479,-0.043 0.499,-0.068C0.518,-0.092 0.533,-0.12 0.543,-0.153C0.552,-0.186 0.557,-0.22 0.557,-0.257C0.557,-0.294 0.552,-0.328 0.542,-0.361C0.532,-0.394 0.517,-0.423 0.498,-0.448C0.478,-0.472 0.453,-0.492 0.424,-0.507C0.394,-0.522 0.359,-0.529 0.319,-0.529C0.283,-0.529 0.25,-0.523 0.22,-0.51C0.19,-0.497 0.168,-0.476 0.154,-0.447L0.152,-0.447L0.152,-0.517L0.067,-0.517ZM0.467,-0.263C0.467,-0.238 0.464,-0.213 0.459,-0.189C0.454,-0.165 0.445,-0.144 0.433,-0.125C0.421,-0.106 0.405,-0.091 0.386,-0.08C0.366,-0.069 0.341,-0.063 0.312,-0.063C0.283,-0.063 0.258,-0.069 0.237,-0.08C0.216,-0.091 0.2,-0.105 0.187,-0.123C0.173,-0.141 0.164,-0.162 0.158,-0.186C0.152,-0.209 0.149,-0.234 0.149,-0.259C0.149,-0.283 0.152,-0.307 0.158,-0.33C0.163,-0.353 0.172,-0.374 0.185,-0.393C0.198,-0.411 0.214,-0.426 0.234,-0.437C0.254,-0.448 0.278,-0.454 0.307,-0.454C0.334,-0.454 0.358,-0.449 0.379,-0.438C0.399,-0.427 0.416,-0.413 0.429,-0.395C0.442,-0.377 0.451,-0.357 0.458,-0.334C0.464,-0.311 0.467,-0.287 0.467,-0.263Z" style="fill-rule:nonzero;"/>
        </g>
    </g>
    <path d="M406.979,463.717L406.979,260.373L358.731,362.045L406.979,463.717Z" style="fill:rgb(243,207,198);fill-rule:nonzero;stroke:black;stroke-width:9.24px;"/>
    <path d="M436.788,306.587L526.351,306.587L526.351,260.373L637.266,362.045L526.351,463.717L526.351,417.502L436.788,417.502L436.788,306.587Z" style="fill:rgb(0,0,255);fill-rule:nonzero;stroke:black;stroke-width:9.24px;"/>
    <g transform="matrix(0.707107,-0.707107,0.707107,0.707107,505.586,210.515)">
        <g transform="matrix(92.429,0,0,92.429,0,0)">
            <path d="M0.576,-0L0.741,-0.517L0.653,-0.517L0.537,-0.094L0.535,-0.094L0.427,-0.517L0.334,-0.517L0.23,-0.094L0.228,-0.094L0.111,-0.517L0.017,-0.517L0.183,-0L0.275,-0L0.379,-0.411L0.381,-0.411L0.486,-0L0.576,-0Z" style="fill-rule:nonzero;"/>
        </g>
        <g transform="matrix(92.429,0,0,92.429,70.0612,0)">
            <path d="M0.022,-0.065L0.022,-0L0.458,-0L0.458,-0.075L0.128,-0.075L0.444,-0.459L0.444,-0.517L0.042,-0.517L0.042,-0.442L0.334,-0.442L0.022,-0.065Z" style="fill-rule:nonzero;"/>
        </g>
        <g transform="matrix(92.429,0,0,92.429,114.427,0)">
            <path d="M0.51,-0.044L0.51,-0.517L0.43,-0.517L0.43,-0.443L0.429,-0.443C0.414,-0.472 0.392,-0.493 0.365,-0.508C0.338,-0.522 0.308,-0.529 0.275,-0.529C0.23,-0.529 0.193,-0.521 0.162,-0.504C0.131,-0.487 0.107,-0.465 0.088,-0.439C0.069,-0.412 0.056,-0.383 0.048,-0.351C0.04,-0.318 0.036,-0.287 0.036,-0.256C0.036,-0.221 0.041,-0.187 0.051,-0.156C0.06,-0.124 0.075,-0.096 0.094,-0.073C0.113,-0.049 0.137,-0.03 0.166,-0.016C0.195,-0.002 0.228,0.005 0.267,0.005C0.3,0.005 0.332,-0.003 0.362,-0.018C0.391,-0.033 0.413,-0.056 0.428,-0.088L0.43,-0.088L0.43,-0.054C0.43,-0.025 0.427,0.001 0.422,0.025C0.416,0.049 0.407,0.07 0.394,0.087C0.381,0.103 0.365,0.117 0.346,0.127C0.327,0.136 0.303,0.141 0.275,0.141C0.261,0.141 0.246,0.14 0.231,0.137C0.216,0.134 0.202,0.129 0.189,0.122C0.175,0.115 0.165,0.107 0.156,0.096C0.147,0.085 0.142,0.072 0.141,0.057L0.056,0.057C0.057,0.085 0.065,0.109 0.078,0.128C0.091,0.147 0.108,0.163 0.129,0.175C0.149,0.187 0.171,0.196 0.197,0.201C0.222,0.206 0.246,0.209 0.27,0.209C0.353,0.209 0.413,0.188 0.452,0.146C0.491,0.104 0.51,0.041 0.51,-0.044ZM0.272,-0.069C0.244,-0.069 0.221,-0.075 0.202,-0.087C0.183,-0.098 0.168,-0.114 0.157,-0.133C0.146,-0.152 0.138,-0.173 0.133,-0.196C0.128,-0.219 0.126,-0.243 0.126,-0.266C0.126,-0.291 0.129,-0.314 0.135,-0.337C0.14,-0.36 0.149,-0.38 0.162,-0.397C0.174,-0.414 0.19,-0.428 0.209,-0.439C0.228,-0.449 0.252,-0.454 0.279,-0.454C0.306,-0.454 0.328,-0.449 0.347,-0.438C0.366,-0.427 0.381,-0.413 0.393,-0.396C0.404,-0.378 0.413,-0.358 0.418,-0.336C0.423,-0.314 0.426,-0.292 0.426,-0.269C0.426,-0.245 0.423,-0.221 0.418,-0.197C0.412,-0.173 0.403,-0.152 0.391,-0.133C0.379,-0.114 0.363,-0.098 0.344,-0.087C0.324,-0.075 0.3,-0.069 0.272,-0.069Z" style="fill-rule:nonzero;"/>
        </g>
    </g>
    <path d="M637.405,463.717L637.405,260.373L738.892,362.045L637.405,463.717Z" style="fill:rgb(0,0,255);fill-rule:nonzero;stroke:black;stroke-width:9.24px;"/>
    <g transform="matrix(0.707107,-0.707107,0.707107,0.707107,656.708,210.515)">
        <g transform="matrix(92.429,0,0,92.429,0,0)">
            <path d="M0.576,-0L0.741,-0.517L0.653,-0.517L0.537,-0.094L0.535,-0.094L0.427,-0.517L0.334,-0.517L0.23,-0.094L0.228,-0.094L0.111,-0.517L0.017,-0.517L0.183,-0L0.275,-0L0.379,-0.411L0.381,-0.411L0.486,-0L0.576,-0Z" style="fill-rule:nonzero;"/>
        </g>
        <g transform="matrix(92.429,0,0,92.429,70.0612,0)">
            <path d="M0.022,-0.065L0.022,-0L0.458,-0L0.458,-0.075L0.128,-0.075L0.444,-0.459L0.444,-0.517L0.042,-0.517L0.042,-0.442L0.334,-0.442L0.022,-0.065Z" style="fill-rule:nonzero;"/>
        </g>
        <g transform="matrix(92.429,0,0,92.429,114.427,0)">
            <path d="M0.064,-0.714L0.064,-0L0.149,-0L0.149,-0.292C0.149,-0.315 0.152,-0.337 0.159,-0.357C0.165,-0.376 0.174,-0.393 0.187,-0.408C0.2,-0.423 0.216,-0.434 0.235,-0.442C0.254,-0.45 0.276,-0.454 0.302,-0.454C0.335,-0.454 0.36,-0.445 0.379,-0.426C0.398,-0.407 0.407,-0.382 0.407,-0.35L0.407,-0L0.492,-0L0.492,-0.34C0.492,-0.368 0.489,-0.393 0.484,-0.417C0.478,-0.44 0.468,-0.459 0.454,-0.476C0.44,-0.493 0.422,-0.506 0.399,-0.515C0.376,-0.524 0.348,-0.529 0.314,-0.529C0.299,-0.529 0.283,-0.527 0.267,-0.524C0.25,-0.521 0.235,-0.516 0.22,-0.509C0.205,-0.502 0.191,-0.493 0.179,-0.482C0.167,-0.47 0.158,-0.457 0.151,-0.441L0.149,-0.441L0.149,-0.714L0.064,-0.714Z" style="fill-rule:nonzero;"/>
        </g>
    </g>
    <path d="M740.001,463.717L740.001,260.373L836.081,362.045L740.001,463.717Z" style="fill:rgb(0,0,255);fill-rule:nonzero;stroke:black;stroke-width:9.24px;"/>
    <g transform="matrix(0.707107,-0.707107,0.707107,0.707107,756.6,210.515)">
        <g transform="matrix(92.429,0,0,92.429,0,0)">
            <path d="M0.576,-0L0.741,-0.517L0.653,-0.517L0.537,-0.094L0.535,-0.094L0.427,-0.517L0.334,-0.517L0.23,-0.094L0.228,-0.094L0.111,-0.517L0.017,-0.517L0.183,-0L0.275,-0L0.379,-0.411L0.381,-0.411L0.486,-0L0.576,-0Z" style="fill-rule:nonzero;"/>
        </g>
        <g transform="matrix(92.429,0,0,92.429,70.0612,0)">
            <path d="M0.022,-0.065L0.022,-0L0.458,-0L0.458,-0.075L0.128,-0.075L0.444,-0.459L0.444,-0.517L0.042,-0.517L0.042,-0.442L0.334,-0.442L0.022,-0.065Z" style="fill-rule:nonzero;"/>
        </g>
        <g transform="matrix(92.429,0,0,92.429,114.427,0)">
            <path d="M0.126,-0.254C0.126,-0.279 0.129,-0.304 0.134,-0.328C0.139,-0.352 0.148,-0.373 0.16,-0.392C0.172,-0.411 0.188,-0.426 0.208,-0.437C0.228,-0.448 0.252,-0.454 0.281,-0.454C0.31,-0.454 0.335,-0.448 0.356,-0.438C0.377,-0.427 0.394,-0.412 0.407,-0.394C0.42,-0.376 0.429,-0.355 0.435,-0.332C0.441,-0.308 0.444,-0.283 0.444,-0.258C0.444,-0.234 0.441,-0.21 0.436,-0.187C0.43,-0.164 0.421,-0.143 0.408,-0.125C0.395,-0.106 0.379,-0.091 0.359,-0.08C0.339,-0.069 0.315,-0.063 0.286,-0.063C0.259,-0.063 0.235,-0.068 0.215,-0.079C0.194,-0.09 0.178,-0.104 0.165,-0.122C0.152,-0.14 0.142,-0.161 0.136,-0.184C0.129,-0.206 0.126,-0.23 0.126,-0.254ZM0.526,-0L0.526,-0.714L0.441,-0.714L0.441,-0.448L0.439,-0.448C0.43,-0.463 0.418,-0.476 0.405,-0.487C0.391,-0.497 0.376,-0.505 0.361,-0.512C0.346,-0.518 0.33,-0.522 0.315,-0.525C0.3,-0.528 0.285,-0.529 0.272,-0.529C0.233,-0.529 0.198,-0.522 0.169,-0.508C0.139,-0.493 0.114,-0.474 0.095,-0.45C0.075,-0.425 0.06,-0.397 0.051,-0.364C0.041,-0.331 0.036,-0.297 0.036,-0.26C0.036,-0.223 0.041,-0.189 0.051,-0.156C0.061,-0.123 0.076,-0.095 0.096,-0.07C0.115,-0.045 0.14,-0.026 0.17,-0.011C0.199,0.004 0.234,0.011 0.274,0.011C0.31,0.011 0.343,0.005 0.373,-0.008C0.403,-0.021 0.425,-0.041 0.439,-0.07L0.441,-0.07L0.441,-0L0.526,-0Z" style="fill-rule:nonzero;"/>
        </g>
    </g>
    <path d="M837.329,463.717L837.329,260.373L932.993,362.045L837.329,463.717Z" style="fill:rgb(0,0,255);fill-rule:nonzero;stroke:black;stroke-width:9.24px;"/>
    <g transform="matrix(0.707107,-0.707107,0.707107,0.707107,853.72,210.515)">
        <g transform="matrix(92.429,0,0,92.429,0,0)">
            <path d="M0.576,-0L0.741,-0.517L0.653,-0.517L0.537,-0.094L0.535,-0.094L0.427,-0.517L0.334,-0.517L0.23,-0.094L0.228,-0.094L0.111,-0.517L0.017,-0.517L0.183,-0L0.275,-0L0.379,-0.411L0.381,-0.411L0.486,-0L0.576,-0Z" style="fill-rule:nonzero;"/>
        </g>
        <g transform="matrix(92.429,0,0,92.429,70.0612,0)">
            <path d="M0.022,-0.065L0.022,-0L0.458,-0L0.458,-0.075L0.128,-0.075L0.444,-0.459L0.444,-0.517L0.042,-0.517L0.042,-0.442L0.334,-0.442L0.022,-0.065Z" style="fill-rule:nonzero;"/>
        </g>
        <g transform="matrix(92.429,0,0,92.429,114.427,0)">
            <path d="M0.423,-0.308L0.126,-0.308C0.127,-0.328 0.132,-0.347 0.139,-0.365C0.146,-0.382 0.156,-0.398 0.169,-0.411C0.182,-0.424 0.197,-0.435 0.215,-0.443C0.232,-0.45 0.252,-0.454 0.274,-0.454C0.295,-0.454 0.315,-0.45 0.333,-0.443C0.35,-0.435 0.366,-0.425 0.379,-0.412C0.392,-0.399 0.402,-0.383 0.41,-0.365C0.417,-0.347 0.422,-0.328 0.423,-0.308ZM0.505,-0.164L0.421,-0.164C0.414,-0.13 0.399,-0.105 0.376,-0.088C0.353,-0.071 0.323,-0.063 0.287,-0.063C0.259,-0.063 0.235,-0.068 0.214,-0.077C0.193,-0.086 0.176,-0.099 0.163,-0.115C0.15,-0.13 0.14,-0.148 0.134,-0.169C0.128,-0.189 0.125,-0.21 0.126,-0.233L0.513,-0.233C0.514,-0.264 0.511,-0.297 0.505,-0.332C0.498,-0.367 0.485,-0.399 0.467,-0.428C0.448,-0.457 0.424,-0.482 0.394,-0.501C0.363,-0.52 0.325,-0.529 0.279,-0.529C0.244,-0.529 0.211,-0.522 0.182,-0.509C0.152,-0.496 0.126,-0.477 0.105,-0.453C0.083,-0.429 0.066,-0.401 0.054,-0.368C0.042,-0.335 0.036,-0.299 0.036,-0.26C0.037,-0.221 0.043,-0.184 0.054,-0.151C0.064,-0.118 0.079,-0.089 0.1,-0.065C0.121,-0.041 0.146,-0.022 0.177,-0.009C0.207,0.004 0.243,0.011 0.284,0.011C0.343,0.011 0.391,-0.004 0.43,-0.033C0.469,-0.062 0.494,-0.106 0.505,-0.164Z" style="fill-rule:nonzero;"/>
        </g>
    </g>
    <path d="M934.934,306.587L1013.68,306.587L1013.68,260.373L1124.6,362.045L1013.68,463.717L1013.68,417.502L934.934,417.502L934.934,306.587Z" style="fill:rgb(128,0,128);fill-rule:nonzero;stroke:black;stroke-width:9.24px;"/>
    <g transform="matrix(0.707107,-0.707107,0.707107,0.707107,998.325,210.515)">
        <g transform="matrix(92.429,0,0,92.429,0,0)">
            <path d="M0.576,-0L0.741,-0.517L0.653,-0.517L0.537,-0.094L0.535,-0.094L0.427,-0.517L0.334,-0.517L0.23,-0.094L0.228,-0.094L0.111,-0.517L0.017,-0.517L0.183,-0L0.275,-0L0.379,-0.411L0.381,-0.411L0.486,-0L0.576,-0Z" style="fill-rule:nonzero;"/>
        </g>
        <g transform="matrix(92.429,0,0,92.429,70.0612,0)">
            <path d="M0.415,-0.351L0.503,-0.351C0.5,-0.382 0.492,-0.408 0.479,-0.431C0.466,-0.453 0.45,-0.471 0.431,-0.486C0.411,-0.501 0.388,-0.511 0.363,-0.519C0.337,-0.526 0.309,-0.529 0.28,-0.529C0.239,-0.529 0.204,-0.522 0.173,-0.508C0.142,-0.493 0.117,-0.474 0.097,-0.449C0.076,-0.424 0.061,-0.394 0.051,-0.361C0.041,-0.327 0.036,-0.291 0.036,-0.252C0.036,-0.213 0.041,-0.178 0.052,-0.146C0.062,-0.113 0.077,-0.085 0.098,-0.062C0.118,-0.039 0.143,-0.021 0.174,-0.008C0.204,0.005 0.239,0.011 0.278,0.011C0.344,0.011 0.396,-0.006 0.435,-0.041C0.473,-0.076 0.497,-0.125 0.506,-0.189L0.419,-0.189C0.414,-0.149 0.399,-0.118 0.376,-0.096C0.352,-0.074 0.319,-0.063 0.277,-0.063C0.25,-0.063 0.227,-0.068 0.208,-0.079C0.189,-0.09 0.173,-0.104 0.161,-0.122C0.149,-0.139 0.14,-0.159 0.135,-0.182C0.129,-0.205 0.126,-0.228 0.126,-0.252C0.126,-0.278 0.129,-0.303 0.134,-0.328C0.139,-0.352 0.148,-0.373 0.161,-0.392C0.173,-0.411 0.189,-0.426 0.21,-0.437C0.231,-0.448 0.256,-0.454 0.287,-0.454C0.323,-0.454 0.352,-0.445 0.373,-0.427C0.394,-0.409 0.408,-0.384 0.415,-0.351Z" style="fill-rule:nonzero;"/>
        </g>
        <g transform="matrix(92.429,0,0,92.429,119.696,0)">
            <path d="M0.064,-0.714L0.064,-0L0.149,-0L0.149,-0.292C0.149,-0.315 0.152,-0.337 0.159,-0.357C0.165,-0.376 0.174,-0.393 0.187,-0.408C0.2,-0.423 0.216,-0.434 0.235,-0.442C0.254,-0.45 0.276,-0.454 0.302,-0.454C0.335,-0.454 0.36,-0.445 0.379,-0.426C0.398,-0.407 0.407,-0.382 0.407,-0.35L0.407,-0L0.492,-0L0.492,-0.34C0.492,-0.368 0.489,-0.393 0.484,-0.417C0.478,-0.44 0.468,-0.459 0.454,-0.476C0.44,-0.493 0.422,-0.506 0.399,-0.515C0.376,-0.524 0.348,-0.529 0.314,-0.529C0.299,-0.529 0.283,-0.527 0.267,-0.524C0.25,-0.521 0.235,-0.516 0.22,-0.509C0.205,-0.502 0.191,-0.493 0.179,-0.482C0.167,-0.47 0.158,-0.457 0.151,-0.441L0.149,-0.441L0.149,-0.714L0.064,-0.714Z" style="fill-rule:nonzero;"/>
        </g>
        <g transform="matrix(92.429,0,0,92.429,171.086,0)">
            <path d="M0.201,-0.295L0.322,-0.628L0.324,-0.628L0.443,-0.295L0.201,-0.295ZM0.272,-0.714L-0.006,-0L0.091,-0L0.171,-0.215L0.473,-0.215L0.551,-0L0.656,-0L0.377,-0.714L0.272,-0.714Z" style="fill-rule:nonzero;"/>
        </g>
    </g>
    <path d="M1124.74,463.717L1124.74,260.373L1234.55,362.045L1124.74,463.717Z" style="fill:rgb(0,255,255);fill-rule:nonzero;stroke:black;stroke-width:9.24px;"/>
    <g transform="matrix(0.707107,-0.707107,0.707107,0.707107,1148.2,210.514)">
        <g transform="matrix(92.429,0,0,92.429,0,0)">
            <path d="M0.576,-0L0.741,-0.517L0.653,-0.517L0.537,-0.094L0.535,-0.094L0.427,-0.517L0.334,-0.517L0.23,-0.094L0.228,-0.094L0.111,-0.517L0.017,-0.517L0.183,-0L0.275,-0L0.379,-0.411L0.381,-0.411L0.486,-0L0.576,-0Z" style="fill-rule:nonzero;"/>
        </g>
        <g transform="matrix(92.429,0,0,92.429,70.0612,0)">
            <path d="M0.415,-0.351L0.503,-0.351C0.5,-0.382 0.492,-0.408 0.479,-0.431C0.466,-0.453 0.45,-0.471 0.431,-0.486C0.411,-0.501 0.388,-0.511 0.363,-0.519C0.337,-0.526 0.309,-0.529 0.28,-0.529C0.239,-0.529 0.204,-0.522 0.173,-0.508C0.142,-0.493 0.117,-0.474 0.097,-0.449C0.076,-0.424 0.061,-0.394 0.051,-0.361C0.041,-0.327 0.036,-0.291 0.036,-0.252C0.036,-0.213 0.041,-0.178 0.052,-0.146C0.062,-0.113 0.077,-0.085 0.098,-0.062C0.118,-0.039 0.143,-0.021 0.174,-0.008C0.204,0.005 0.239,0.011 0.278,0.011C0.344,0.011 0.396,-0.006 0.435,-0.041C0.473,-0.076 0.497,-0.125 0.506,-0.189L0.419,-0.189C0.414,-0.149 0.399,-0.118 0.376,-0.096C0.352,-0.074 0.319,-0.063 0.277,-0.063C0.25,-0.063 0.227,-0.068 0.208,-0.079C0.189,-0.09 0.173,-0.104 0.161,-0.122C0.149,-0.139 0.14,-0.159 0.135,-0.182C0.129,-0.205 0.126,-0.228 0.126,-0.252C0.126,-0.278 0.129,-0.303 0.134,-0.328C0.139,-0.352 0.148,-0.373 0.161,-0.392C0.173,-0.411 0.189,-0.426 0.21,-0.437C0.231,-0.448 0.256,-0.454 0.287,-0.454C0.323,-0.454 0.352,-0.445 0.373,-0.427C0.394,-0.409 0.408,-0.384 0.415,-0.351Z" style="fill-rule:nonzero;"/>
        </g>
        <g transform="matrix(92.429,0,0,92.429,119.696,0)">
            <path d="M0.154,-0.61L0.154,-0.714L0.069,-0.714L0.069,-0.61L0.154,-0.61ZM0.069,-0.517L0.069,-0L0.154,-0L0.154,-0.517L0.069,-0.517Z" style="fill-rule:nonzero;"/>
        </g>
        <g transform="matrix(92.429,0,0,92.429,140.215,0)">
            <path d="M0.173,-0.407L0.173,-0.634L0.363,-0.634C0.384,-0.634 0.403,-0.633 0.422,-0.631C0.44,-0.628 0.456,-0.623 0.47,-0.615C0.484,-0.607 0.495,-0.596 0.503,-0.581C0.511,-0.566 0.515,-0.546 0.515,-0.521C0.515,-0.483 0.503,-0.455 0.48,-0.436C0.456,-0.417 0.417,-0.407 0.363,-0.407L0.173,-0.407ZM0.078,-0.714L0.078,-0L0.423,-0C0.458,-0 0.49,-0.006 0.517,-0.018C0.544,-0.029 0.566,-0.045 0.585,-0.064C0.603,-0.083 0.617,-0.104 0.626,-0.129C0.635,-0.154 0.64,-0.179 0.64,-0.205C0.64,-0.249 0.628,-0.286 0.605,-0.317C0.582,-0.348 0.548,-0.368 0.504,-0.377L0.504,-0.379C0.538,-0.392 0.564,-0.413 0.583,-0.441C0.601,-0.468 0.61,-0.501 0.61,-0.539C0.61,-0.575 0.602,-0.605 0.586,-0.63C0.569,-0.655 0.549,-0.674 0.526,-0.688C0.515,-0.695 0.503,-0.7 0.488,-0.703C0.472,-0.706 0.456,-0.709 0.439,-0.711C0.422,-0.712 0.404,-0.713 0.387,-0.714C0.369,-0.714 0.352,-0.714 0.337,-0.714L0.078,-0.714ZM0.173,-0.08L0.173,-0.327L0.39,-0.327C0.41,-0.327 0.429,-0.325 0.448,-0.322C0.467,-0.318 0.483,-0.312 0.498,-0.303C0.512,-0.294 0.523,-0.281 0.532,-0.266C0.541,-0.251 0.545,-0.231 0.545,-0.208C0.545,-0.168 0.533,-0.137 0.51,-0.114C0.486,-0.091 0.453,-0.08 0.411,-0.08L0.173,-0.08Z" style="fill-rule:nonzero;"/>
        </g>
    </g>
    <path d="M1234.96,463.717L1234.96,260.373L1268.24,362.045L1234.96,463.717Z" style="fill:rgb(196,164,132);fill-rule:nonzero;stroke:black;stroke-width:9.24px;"/>
    <path d="M1271.14,463.717L1271.14,260.373L1313.15,362.045L1271.14,463.717Z" style="fill:rgb(196,164,132);fill-rule:nonzero;stroke:black;stroke-width:9.24px;"/>
    <g transform="matrix(0.707107,-0.707107,0.707107,0.707107,1260.71,210.514)">
        <g transform="matrix(92.429,0,0,92.429,0,0)">
            <path d="M0.576,-0L0.741,-0.517L0.653,-0.517L0.537,-0.094L0.535,-0.094L0.427,-0.517L0.334,-0.517L0.23,-0.094L0.228,-0.094L0.111,-0.517L0.017,-0.517L0.183,-0L0.275,-0L0.379,-0.411L0.381,-0.411L0.486,-0L0.576,-0Z" style="fill-rule:nonzero;"/>
        </g>
        <g transform="matrix(92.429,0,0,92.429,70.0612,0)">
            <path d="M0.022,-0.065L0.022,-0L0.458,-0L0.458,-0.075L0.128,-0.075L0.444,-0.459L0.444,-0.517L0.042,-0.517L0.042,-0.442L0.334,-0.442L0.022,-0.065Z" style="fill-rule:nonzero;"/>
        </g>
        <g transform="matrix(92.429,0,0,92.429,114.427,0)">
            <path d="M0.267,0.069C0.257,0.094 0.247,0.116 0.238,0.133C0.228,0.15 0.217,0.165 0.206,0.176C0.194,0.187 0.181,0.195 0.167,0.2C0.152,0.205 0.136,0.207 0.117,0.207C0.107,0.207 0.097,0.206 0.087,0.205C0.077,0.204 0.067,0.201 0.058,0.198L0.058,0.12C0.065,0.123 0.074,0.126 0.084,0.129C0.093,0.131 0.101,0.132 0.108,0.132C0.125,0.132 0.14,0.128 0.152,0.12C0.163,0.111 0.172,0.099 0.178,0.084L0.213,-0.003L0.008,-0.517L0.104,-0.517L0.255,-0.094L0.257,-0.094L0.402,-0.517L0.492,-0.517L0.267,0.069Z" style="fill-rule:nonzero;"/>
        </g>
    </g>
    <path d="M1324.25,306.587L1338.95,306.587L1338.95,260.373L1449.86,362.045L1338.95,463.717L1338.95,417.502L1324.25,417.502L1324.25,306.587Z" style="fill:rgb(0,255,255);fill-rule:nonzero;stroke:black;stroke-width:9.24px;"/>
    <g transform="matrix(0.707107,-0.707107,0.707107,0.707107,1355.61,210.515)">
        <g transform="matrix(92.429,0,0,92.429,0,0)">
            <path d="M0.576,-0L0.741,-0.517L0.653,-0.517L0.537,-0.094L0.535,-0.094L0.427,-0.517L0.334,-0.517L0.23,-0.094L0.228,-0.094L0.111,-0.517L0.017,-0.517L0.183,-0L0.275,-0L0.379,-0.411L0.381,-0.411L0.486,-0L0.576,-0Z" style="fill-rule:nonzero;"/>
        </g>
        <g transform="matrix(92.429,0,0,92.429,70.0612,0)">
            <path d="M0.415,-0.351L0.503,-0.351C0.5,-0.382 0.492,-0.408 0.479,-0.431C0.466,-0.453 0.45,-0.471 0.431,-0.486C0.411,-0.501 0.388,-0.511 0.363,-0.519C0.337,-0.526 0.309,-0.529 0.28,-0.529C0.239,-0.529 0.204,-0.522 0.173,-0.508C0.142,-0.493 0.117,-0.474 0.097,-0.449C0.076,-0.424 0.061,-0.394 0.051,-0.361C0.041,-0.327 0.036,-0.291 0.036,-0.252C0.036,-0.213 0.041,-0.178 0.052,-0.146C0.062,-0.113 0.077,-0.085 0.098,-0.062C0.118,-0.039 0.143,-0.021 0.174,-0.008C0.204,0.005 0.239,0.011 0.278,0.011C0.344,0.011 0.396,-0.006 0.435,-0.041C0.473,-0.076 0.497,-0.125 0.506,-0.189L0.419,-0.189C0.414,-0.149 0.399,-0.118 0.376,-0.096C0.352,-0.074 0.319,-0.063 0.277,-0.063C0.25,-0.063 0.227,-0.068 0.208,-0.079C0.189,-0.09 0.173,-0.104 0.161,-0.122C0.149,-0.139 0.14,-0.159 0.135,-0.182C0.129,-0.205 0.126,-0.228 0.126,-0.252C0.126,-0.278 0.129,-0.303 0.134,-0.328C0.139,-0.352 0.148,-0.373 0.161,-0.392C0.173,-0.411 0.189,-0.426 0.21,-0.437C0.231,-0.448 0.256,-0.454 0.287,-0.454C0.323,-0.454 0.352,-0.445 0.373,-0.427C0.394,-0.409 0.408,-0.384 0.415,-0.351Z" style="fill-rule:nonzero;"/>
        </g>
        <g transform="matrix(92.429,0,0,92.429,119.696,0)">
            <path d="M0.061,-0.517L0.061,-0L0.146,-0L0.146,-0.23C0.146,-0.263 0.149,-0.293 0.156,-0.319C0.163,-0.344 0.173,-0.366 0.188,-0.384C0.203,-0.402 0.222,-0.416 0.246,-0.425C0.27,-0.434 0.299,-0.439 0.333,-0.439L0.333,-0.529C0.287,-0.53 0.249,-0.521 0.219,-0.501C0.189,-0.481 0.164,-0.45 0.143,-0.408L0.141,-0.408L0.141,-0.517L0.061,-0.517Z" style="fill-rule:nonzero;"/>
        </g>
        <g transform="matrix(92.429,0,0,92.429,150.474,0)">
            <path d="M0.173,-0.407L0.173,-0.634L0.363,-0.634C0.384,-0.634 0.403,-0.633 0.422,-0.631C0.44,-0.628 0.456,-0.623 0.47,-0.615C0.484,-0.607 0.495,-0.596 0.503,-0.581C0.511,-0.566 0.515,-0.546 0.515,-0.521C0.515,-0.483 0.503,-0.455 0.48,-0.436C0.456,-0.417 0.417,-0.407 0.363,-0.407L0.173,-0.407ZM0.078,-0.714L0.078,-0L0.423,-0C0.458,-0 0.49,-0.006 0.517,-0.018C0.544,-0.029 0.566,-0.045 0.585,-0.064C0.603,-0.083 0.617,-0.104 0.626,-0.129C0.635,-0.154 0.64,-0.179 0.64,-0.205C0.64,-0.249 0.628,-0.286 0.605,-0.317C0.582,-0.348 0.548,-0.368 0.504,-0.377L0.504,-0.379C0.538,-0.392 0.564,-0.413 0.583,-0.441C0.601,-0.468 0.61,-0.501 0.61,-0.539C0.61,-0.575 0.602,-0.605 0.586,-0.63C0.569,-0.655 0.549,-0.674 0.526,-0.688C0.515,-0.695 0.503,-0.7 0.488,-0.703C0.472,-0.706 0.456,-0.709 0.439,-0.711C0.422,-0.712 0.404,-0.713 0.387,-0.714C0.369,-0.714 0.352,-0.714 0.337,-0.714L0.078,-0.714ZM0.173,-0.08L0.173,-0.327L0.39,-0.327C0.41,-0.327 0.429,-0.325 0.448,-0.322C0.467,-0.318 0.483,-0.312 0.498,-0.303C0.512,-0.294 0.523,-0.281 0.532,-0.266C0.541,-0.251 0.545,-0.231 0.545,-0.208C0.545,-0.168 0.533,-0.137 0.51,-0.114C0.486,-0.091 0.453,-0.08 0.411,-0.08L0.173,-0.08Z" style="fill-rule:nonzero;"/>
        </g>
    </g>
    <path d="M1455.12,306.587L1495.19,306.587L1495.19,260.373L1606.1,362.045L1495.19,463.717L1495.19,417.502L1455.12,417.502L1455.12,306.587Z" style="fill:rgb(0,255,255);fill-rule:nonzero;stroke:black;stroke-width:9.24px;"/>
    <g transform="matrix(0.707107,-0.707107,0.707107,0.707107,1499.17,210.523)">
        <g transform="matrix(92.429,0,0,92.429,0,0)">
            <path d="M0.576,-0L0.741,-0.517L0.653,-0.517L0.537,-0.094L0.535,-0.094L0.427,-0.517L0.334,-0.517L0.23,-0.094L0.228,-0.094L0.111,-0.517L0.017,-0.517L0.183,-0L0.275,-0L0.379,-0.411L0.381,-0.411L0.486,-0L0.576,-0Z" style="fill-rule:nonzero;"/>
        </g>
        <g transform="matrix(92.429,0,0,92.429,70.0612,0)">
            <path d="M0.415,-0.351L0.503,-0.351C0.5,-0.382 0.492,-0.408 0.479,-0.431C0.466,-0.453 0.45,-0.471 0.431,-0.486C0.411,-0.501 0.388,-0.511 0.363,-0.519C0.337,-0.526 0.309,-0.529 0.28,-0.529C0.239,-0.529 0.204,-0.522 0.173,-0.508C0.142,-0.493 0.117,-0.474 0.097,-0.449C0.076,-0.424 0.061,-0.394 0.051,-0.361C0.041,-0.327 0.036,-0.291 0.036,-0.252C0.036,-0.213 0.041,-0.178 0.052,-0.146C0.062,-0.113 0.077,-0.085 0.098,-0.062C0.118,-0.039 0.143,-0.021 0.174,-0.008C0.204,0.005 0.239,0.011 0.278,0.011C0.344,0.011 0.396,-0.006 0.435,-0.041C0.473,-0.076 0.497,-0.125 0.506,-0.189L0.419,-0.189C0.414,-0.149 0.399,-0.118 0.376,-0.096C0.352,-0.074 0.319,-0.063 0.277,-0.063C0.25,-0.063 0.227,-0.068 0.208,-0.079C0.189,-0.09 0.173,-0.104 0.161,-0.122C0.149,-0.139 0.14,-0.159 0.135,-0.182C0.129,-0.205 0.126,-0.228 0.126,-0.252C0.126,-0.278 0.129,-0.303 0.134,-0.328C0.139,-0.352 0.148,-0.373 0.161,-0.392C0.173,-0.411 0.189,-0.426 0.21,-0.437C0.231,-0.448 0.256,-0.454 0.287,-0.454C0.323,-0.454 0.352,-0.445 0.373,-0.427C0.394,-0.409 0.408,-0.384 0.415,-0.351Z" style="fill-rule:nonzero;"/>
        </g>
        <g transform="matrix(92.429,0,0,92.429,119.696,0)">
            <path d="M0.061,-0.517L0.061,-0L0.146,-0L0.146,-0.23C0.146,-0.263 0.149,-0.293 0.156,-0.319C0.163,-0.344 0.173,-0.366 0.188,-0.384C0.203,-0.402 0.222,-0.416 0.246,-0.425C0.27,-0.434 0.299,-0.439 0.333,-0.439L0.333,-0.529C0.287,-0.53 0.249,-0.521 0.219,-0.501C0.189,-0.481 0.164,-0.45 0.143,-0.408L0.141,-0.408L0.141,-0.517L0.061,-0.517Z" style="fill-rule:nonzero;"/>
        </g>
        <g transform="matrix(92.429,0,0,92.429,150.474,0)">
            <path d="M0.58,-0.499L0.675,-0.499C0.67,-0.537 0.658,-0.571 0.641,-0.6C0.624,-0.628 0.602,-0.653 0.576,-0.672C0.55,-0.691 0.52,-0.706 0.487,-0.716C0.454,-0.726 0.418,-0.731 0.381,-0.731C0.326,-0.731 0.278,-0.721 0.236,-0.702C0.193,-0.682 0.158,-0.655 0.13,-0.621C0.101,-0.587 0.08,-0.547 0.065,-0.502C0.05,-0.456 0.043,-0.407 0.043,-0.355C0.043,-0.303 0.05,-0.254 0.064,-0.209C0.077,-0.164 0.098,-0.124 0.125,-0.091C0.152,-0.058 0.187,-0.032 0.228,-0.013C0.269,0.007 0.318,0.016 0.373,0.016C0.464,0.016 0.536,-0.009 0.589,-0.059C0.642,-0.109 0.673,-0.179 0.682,-0.269L0.587,-0.269C0.585,-0.24 0.579,-0.212 0.569,-0.187C0.559,-0.162 0.545,-0.14 0.528,-0.122C0.51,-0.103 0.489,-0.089 0.465,-0.079C0.44,-0.068 0.412,-0.063 0.381,-0.063C0.338,-0.063 0.302,-0.071 0.271,-0.087C0.24,-0.103 0.215,-0.125 0.196,-0.152C0.176,-0.179 0.161,-0.21 0.152,-0.247C0.143,-0.283 0.138,-0.321 0.138,-0.362C0.138,-0.399 0.143,-0.435 0.152,-0.47C0.161,-0.505 0.176,-0.536 0.196,-0.563C0.215,-0.59 0.24,-0.611 0.271,-0.627C0.301,-0.643 0.337,-0.651 0.38,-0.651C0.43,-0.651 0.473,-0.638 0.51,-0.613C0.546,-0.588 0.569,-0.55 0.58,-0.499Z" style="fill-rule:nonzero;"/>
        </g>
    </g>
    <path d="M1607.22,306.587L1635.64,306.587L1635.64,260.373L1746.56,362.045L1635.64,463.717L1635.64,417.502L1607.22,417.502L1607.22,306.587Z" style="fill:rgb(0,255,255);fill-rule:nonzero;stroke:black;stroke-width:9.24px;"/>
    <g transform="matrix(0.707107,-0.707107,0.707107,0.707107,1645.44,210.514)">
        <g transform="matrix(92.429,0,0,92.429,0,0)">
            <path d="M0.576,-0L0.741,-0.517L0.653,-0.517L0.537,-0.094L0.535,-0.094L0.427,-0.517L0.334,-0.517L0.23,-0.094L0.228,-0.094L0.111,-0.517L0.017,-0.517L0.183,-0L0.275,-0L0.379,-0.411L0.381,-0.411L0.486,-0L0.576,-0Z" style="fill-rule:nonzero;"/>
        </g>
        <g transform="matrix(92.429,0,0,92.429,70.0612,0)">
            <path d="M0.415,-0.351L0.503,-0.351C0.5,-0.382 0.492,-0.408 0.479,-0.431C0.466,-0.453 0.45,-0.471 0.431,-0.486C0.411,-0.501 0.388,-0.511 0.363,-0.519C0.337,-0.526 0.309,-0.529 0.28,-0.529C0.239,-0.529 0.204,-0.522 0.173,-0.508C0.142,-0.493 0.117,-0.474 0.097,-0.449C0.076,-0.424 0.061,-0.394 0.051,-0.361C0.041,-0.327 0.036,-0.291 0.036,-0.252C0.036,-0.213 0.041,-0.178 0.052,-0.146C0.062,-0.113 0.077,-0.085 0.098,-0.062C0.118,-0.039 0.143,-0.021 0.174,-0.008C0.204,0.005 0.239,0.011 0.278,0.011C0.344,0.011 0.396,-0.006 0.435,-0.041C0.473,-0.076 0.497,-0.125 0.506,-0.189L0.419,-0.189C0.414,-0.149 0.399,-0.118 0.376,-0.096C0.352,-0.074 0.319,-0.063 0.277,-0.063C0.25,-0.063 0.227,-0.068 0.208,-0.079C0.189,-0.09 0.173,-0.104 0.161,-0.122C0.149,-0.139 0.14,-0.159 0.135,-0.182C0.129,-0.205 0.126,-0.228 0.126,-0.252C0.126,-0.278 0.129,-0.303 0.134,-0.328C0.139,-0.352 0.148,-0.373 0.161,-0.392C0.173,-0.411 0.189,-0.426 0.21,-0.437C0.231,-0.448 0.256,-0.454 0.287,-0.454C0.323,-0.454 0.352,-0.445 0.373,-0.427C0.394,-0.409 0.408,-0.384 0.415,-0.351Z" style="fill-rule:nonzero;"/>
        </g>
        <g transform="matrix(92.429,0,0,92.429,119.696,0)">
            <path d="M0.061,-0.517L0.061,-0L0.146,-0L0.146,-0.23C0.146,-0.263 0.149,-0.293 0.156,-0.319C0.163,-0.344 0.173,-0.366 0.188,-0.384C0.203,-0.402 0.222,-0.416 0.246,-0.425C0.27,-0.434 0.299,-0.439 0.333,-0.439L0.333,-0.529C0.287,-0.53 0.249,-0.521 0.219,-0.501C0.189,-0.481 0.164,-0.45 0.143,-0.408L0.141,-0.408L0.141,-0.517L0.061,-0.517Z" style="fill-rule:nonzero;"/>
        </g>
        <g transform="matrix(92.429,0,0,92.429,150.474,0)">
            <path d="M0.173,-0.08L0.173,-0.634L0.333,-0.634C0.377,-0.634 0.414,-0.628 0.444,-0.616C0.474,-0.603 0.498,-0.585 0.518,-0.562C0.537,-0.538 0.55,-0.509 0.559,-0.476C0.567,-0.442 0.571,-0.404 0.571,-0.361C0.571,-0.317 0.567,-0.28 0.558,-0.249C0.549,-0.218 0.537,-0.192 0.523,-0.171C0.509,-0.15 0.493,-0.134 0.476,-0.122C0.458,-0.11 0.44,-0.101 0.422,-0.095C0.404,-0.088 0.387,-0.084 0.371,-0.083C0.355,-0.081 0.342,-0.08 0.331,-0.08L0.173,-0.08ZM0.078,-0.714L0.078,-0L0.323,-0C0.382,-0 0.434,-0.008 0.477,-0.025C0.52,-0.042 0.556,-0.066 0.584,-0.098C0.612,-0.129 0.633,-0.168 0.646,-0.215C0.659,-0.261 0.666,-0.314 0.666,-0.374C0.666,-0.489 0.636,-0.574 0.577,-0.63C0.518,-0.686 0.433,-0.714 0.323,-0.714L0.078,-0.714Z" style="fill-rule:nonzero;"/>
        </g>
    </g>
    <path d="M1746.69,306.587L1768.04,306.587L1768.04,260.373L1878.96,362.045L1768.04,463.717L1768.04,417.502L1746.69,417.502L1746.69,306.587Z" style="fill:rgb(0,255,255);fill-rule:nonzero;stroke:black;stroke-width:9.24px;"/>
    <g transform="matrix(0.707107,-0.707107,0.707107,0.707107,1781.38,210.52)">
        <g transform="matrix(92.429,0,0,92.429,0,0)">
            <path d="M0.576,-0L0.741,-0.517L0.653,-0.517L0.537,-0.094L0.535,-0.094L0.427,-0.517L0.334,-0.517L0.23,-0.094L0.228,-0.094L0.111,-0.517L0.017,-0.517L0.183,-0L0.275,-0L0.379,-0.411L0.381,-0.411L0.486,-0L0.576,-0Z" style="fill-rule:nonzero;"/>
        </g>
        <g transform="matrix(92.429,0,0,92.429,70.0612,0)">
            <path d="M0.415,-0.351L0.503,-0.351C0.5,-0.382 0.492,-0.408 0.479,-0.431C0.466,-0.453 0.45,-0.471 0.431,-0.486C0.411,-0.501 0.388,-0.511 0.363,-0.519C0.337,-0.526 0.309,-0.529 0.28,-0.529C0.239,-0.529 0.204,-0.522 0.173,-0.508C0.142,-0.493 0.117,-0.474 0.097,-0.449C0.076,-0.424 0.061,-0.394 0.051,-0.361C0.041,-0.327 0.036,-0.291 0.036,-0.252C0.036,-0.213 0.041,-0.178 0.052,-0.146C0.062,-0.113 0.077,-0.085 0.098,-0.062C0.118,-0.039 0.143,-0.021 0.174,-0.008C0.204,0.005 0.239,0.011 0.278,0.011C0.344,0.011 0.396,-0.006 0.435,-0.041C0.473,-0.076 0.497,-0.125 0.506,-0.189L0.419,-0.189C0.414,-0.149 0.399,-0.118 0.376,-0.096C0.352,-0.074 0.319,-0.063 0.277,-0.063C0.25,-0.063 0.227,-0.068 0.208,-0.079C0.189,-0.09 0.173,-0.104 0.161,-0.122C0.149,-0.139 0.14,-0.159 0.135,-0.182C0.129,-0.205 0.126,-0.228 0.126,-0.252C0.126,-0.278 0.129,-0.303 0.134,-0.328C0.139,-0.352 0.148,-0.373 0.161,-0.392C0.173,-0.411 0.189,-0.426 0.21,-0.437C0.231,-0.448 0.256,-0.454 0.287,-0.454C0.323,-0.454 0.352,-0.445 0.373,-0.427C0.394,-0.409 0.408,-0.384 0.415,-0.351Z" style="fill-rule:nonzero;"/>
        </g>
        <g transform="matrix(92.429,0,0,92.429,119.696,0)">
            <path d="M0.154,-0.61L0.154,-0.714L0.069,-0.714L0.069,-0.61L0.154,-0.61ZM0.069,-0.517L0.069,-0L0.154,-0L0.154,-0.517L0.069,-0.517Z" style="fill-rule:nonzero;"/>
        </g>
        <g transform="matrix(92.429,0,0,92.429,140.215,0)">
            <path d="M0.078,-0.714L0.078,-0L0.173,-0L0.173,-0.327L0.501,-0.327L0.501,-0.407L0.173,-0.407L0.173,-0.634L0.547,-0.634L0.547,-0.714L0.078,-0.714Z" style="fill-rule:nonzero;"/>
        </g>
    </g>
    <path d="M1949.11,306.587L2003.74,306.587L2003.74,260.373L2114.65,362.045L2003.74,463.717L2003.74,417.502L1949.11,417.502L1949.11,306.587Z" style="fill:rgb(255,0,255);fill-rule:nonzero;stroke:black;stroke-width:9.24px;"/>
    <g transform="matrix(0.707107,-0.707107,0.707107,0.707107,2000.44,210.512)">
        <g transform="matrix(92.429,0,0,92.429,0,0)">
            <path d="M0.576,-0L0.741,-0.517L0.653,-0.517L0.537,-0.094L0.535,-0.094L0.427,-0.517L0.334,-0.517L0.23,-0.094L0.228,-0.094L0.111,-0.517L0.017,-0.517L0.183,-0L0.275,-0L0.379,-0.411L0.381,-0.411L0.486,-0L0.576,-0Z" style="fill-rule:nonzero;"/>
        </g>
        <g transform="matrix(92.429,0,0,92.429,70.0612,0)">
            <path d="M0.022,-0.065L0.022,-0L0.458,-0L0.458,-0.075L0.128,-0.075L0.444,-0.459L0.444,-0.517L0.042,-0.517L0.042,-0.442L0.334,-0.442L0.022,-0.065Z" style="fill-rule:nonzero;"/>
        </g>
        <g transform="matrix(92.429,0,0,92.429,114.427,0)">
            <path d="M0.267,0.069C0.257,0.094 0.247,0.116 0.238,0.133C0.228,0.15 0.217,0.165 0.206,0.176C0.194,0.187 0.181,0.195 0.167,0.2C0.152,0.205 0.136,0.207 0.117,0.207C0.107,0.207 0.097,0.206 0.087,0.205C0.077,0.204 0.067,0.201 0.058,0.198L0.058,0.12C0.065,0.123 0.074,0.126 0.084,0.129C0.093,0.131 0.101,0.132 0.108,0.132C0.125,0.132 0.14,0.128 0.152,0.12C0.163,0.111 0.172,0.099 0.178,0.084L0.213,-0.003L0.008,-0.517L0.104,-0.517L0.255,-0.094L0.257,-0.094L0.402,-0.517L0.492,-0.517L0.267,0.069Z" style="fill-rule:nonzero;"/>
        </g>
    </g>
    <path d="M2114.1,463.717L2114.1,260.373L2129.91,362.045L2114.1,463.717Z" style="fill:rgb(196,164,132);fill-rule:nonzero;stroke:black;stroke-width:9.24px;"/>
    <path d="M2197.01,463.717L2197.01,260.373L2260.65,362.045L2197.01,463.717Z" style="fill:rgb(128,128,128);fill-rule:nonzero;stroke:black;stroke-width:9.24px;"/>
    <path d="M2264.11,306.587L2349.51,306.587L2349.51,260.373L2460.43,362.045L2349.51,463.717L2349.51,417.502L2264.11,417.502L2264.11,306.587Z" style="fill:rgb(255,255,0);fill-rule:nonzero;stroke:black;stroke-width:9.24px;"/>
    <g transform="matrix(0.707107,-0.707107,0.707107,0.707107,2330.83,210.51)">
        <g transform="matrix(92.429,0,0,92.429,0,0)">
            <path d="M0.576,-0L0.741,-0.517L0.653,-0.517L0.537,-0.094L0.535,-0.094L0.427,-0.517L0.334,-0.517L0.23,-0.094L0.228,-0.094L0.111,-0.517L0.017,-0.517L0.183,-0L0.275,-0L0.379,-0.411L0.381,-0.411L0.486,-0L0.576,-0Z" style="fill-rule:nonzero;"/>
        </g>
        <g transform="matrix(92.429,0,0,92.429,70.0612,0)">
            <path d="M0.022,-0.065L0.022,-0L0.458,-0L0.458,-0.075L0.128,-0.075L0.444,-0.459L0.444,-0.517L0.042,-0.517L0.042,-0.442L0.334,-0.442L0.022,-0.065Z" style="fill-rule:nonzero;"/>
        </g>
        <g transform="matrix(92.429,0,0,92.429,114.427,0)">
            <path d="M0.203,-0.272L0.009,-0L0.112,-0L0.256,-0.214L0.4,-0L0.509,-0L0.309,-0.279L0.487,-0.517L0.385,-0.517L0.256,-0.336L0.132,-0.517L0.023,-0.517L0.203,-0.272Z" style="fill-rule:nonzero;"/>
        </g>
    </g>
    <path d="M2460.57,306.587L2488.16,306.587L2488.16,260.373L2599.08,362.045L2488.16,463.717L2488.16,417.502L2460.57,417.502L2460.57,306.587Z" style="fill:white;fill-rule:nonzero;stroke:black;stroke-width:9.24px;"/>
    <g transform="matrix(0.707107,-0.707107,0.707107,0.707107,2498.38,210.515)">
        <g transform="matrix(92.429,0,0,92.429,0,0)">
            <path d="M0.576,-0L0.741,-0.517L0.653,-0.517L0.537,-0.094L0.535,-0.094L0.427,-0.517L0.334,-0.517L0.23,-0.094L0.228,-0.094L0.111,-0.517L0.017,-0.517L0.183,-0L0.275,-0L0.379,-0.411L0.381,-0.411L0.486,-0L0.576,-0Z" style="fill-rule:nonzero;"/>
        </g>
        <g transform="matrix(92.429,0,0,92.429,70.0612,0)">
            <path d="M0.415,-0.351L0.503,-0.351C0.5,-0.382 0.492,-0.408 0.479,-0.431C0.466,-0.453 0.45,-0.471 0.431,-0.486C0.411,-0.501 0.388,-0.511 0.363,-0.519C0.337,-0.526 0.309,-0.529 0.28,-0.529C0.239,-0.529 0.204,-0.522 0.173,-0.508C0.142,-0.493 0.117,-0.474 0.097,-0.449C0.076,-0.424 0.061,-0.394 0.051,-0.361C0.041,-0.327 0.036,-0.291 0.036,-0.252C0.036,-0.213 0.041,-0.178 0.052,-0.146C0.062,-0.113 0.077,-0.085 0.098,-0.062C0.118,-0.039 0.143,-0.021 0.174,-0.008C0.204,0.005 0.239,0.011 0.278,0.011C0.344,0.011 0.396,-0.006 0.435,-0.041C0.473,-0.076 0.497,-0.125 0.506,-0.189L0.419,-0.189C0.414,-0.149 0.399,-0.118 0.376,-0.096C0.352,-0.074 0.319,-0.063 0.277,-0.063C0.25,-0.063 0.227,-0.068 0.208,-0.079C0.189,-0.09 0.173,-0.104 0.161,-0.122C0.149,-0.139 0.14,-0.159 0.135,-0.182C0.129,-0.205 0.126,-0.228 0.126,-0.252C0.126,-0.278 0.129,-0.303 0.134,-0.328C0.139,-0.352 0.148,-0.373 0.161,-0.392C0.173,-0.411 0.189,-0.426 0.21,-0.437C0.231,-0.448 0.256,-0.454 0.287,-0.454C0.323,-0.454 0.352,-0.445 0.373,-0.427C0.394,-0.409 0.408,-0.384 0.415,-0.351Z" style="fill-rule:nonzero;"/>
        </g>
        <g transform="matrix(92.429,0,0,92.429,119.696,0)">
            <path d="M0.154,-0.61L0.154,-0.714L0.069,-0.714L0.069,-0.61L0.154,-0.61ZM0.069,-0.517L0.069,-0L0.154,-0L0.154,-0.517L0.069,-0.517Z" style="fill-rule:nonzero;"/>
        </g>
        <g transform="matrix(92.429,0,0,92.429,140.215,0)">
            <path d="M0.612,-0.089L0.637,-0L0.697,-0L0.697,-0.376L0.384,-0.376L0.384,-0.296L0.612,-0.296C0.613,-0.263 0.609,-0.233 0.599,-0.205C0.589,-0.176 0.574,-0.152 0.555,-0.131C0.535,-0.11 0.511,-0.093 0.482,-0.081C0.453,-0.069 0.42,-0.063 0.383,-0.063C0.343,-0.063 0.308,-0.071 0.278,-0.087C0.247,-0.102 0.222,-0.123 0.201,-0.15C0.18,-0.176 0.165,-0.206 0.154,-0.241C0.143,-0.275 0.138,-0.311 0.138,-0.348C0.138,-0.386 0.143,-0.423 0.152,-0.46C0.161,-0.496 0.176,-0.528 0.196,-0.557C0.215,-0.585 0.241,-0.608 0.272,-0.625C0.303,-0.642 0.34,-0.651 0.383,-0.651C0.41,-0.651 0.435,-0.648 0.459,-0.642C0.482,-0.635 0.503,-0.626 0.522,-0.613C0.541,-0.6 0.556,-0.584 0.569,-0.565C0.582,-0.545 0.59,-0.521 0.595,-0.494L0.69,-0.494C0.683,-0.536 0.671,-0.572 0.653,-0.602C0.634,-0.631 0.612,-0.656 0.585,-0.675C0.558,-0.694 0.527,-0.708 0.493,-0.718C0.458,-0.727 0.422,-0.731 0.383,-0.731C0.326,-0.731 0.277,-0.721 0.235,-0.7C0.192,-0.679 0.157,-0.65 0.129,-0.615C0.1,-0.58 0.079,-0.539 0.065,-0.492C0.05,-0.444 0.043,-0.395 0.043,-0.343C0.043,-0.296 0.051,-0.251 0.066,-0.208C0.081,-0.165 0.104,-0.126 0.133,-0.093C0.162,-0.06 0.198,-0.033 0.24,-0.014C0.282,0.006 0.33,0.016 0.383,0.016C0.425,0.016 0.467,0.008 0.508,-0.009C0.549,-0.025 0.584,-0.052 0.612,-0.089Z" style="fill-rule:nonzero;"/>
        </g>
    </g>
    <path d="M2600.74,306.587L2642.89,306.587L2642.89,260.373L2753.8,362.045L2642.89,463.717L2642.89,417.502L2600.74,417.502L2600.74,306.587Z" style="fill:rgb(128,0,0);fill-rule:nonzero;stroke:black;stroke-width:9.24px;"/>
    <g transform="matrix(0.707107,-0.707107,0.707107,0.707107,2645.83,210.512)">
        <g transform="matrix(92.429,0,0,92.429,0,0)">
            <path d="M0.51,-0.044L0.51,-0.517L0.43,-0.517L0.43,-0.443L0.429,-0.443C0.414,-0.472 0.392,-0.493 0.365,-0.508C0.338,-0.522 0.308,-0.529 0.275,-0.529C0.23,-0.529 0.193,-0.521 0.162,-0.504C0.131,-0.487 0.107,-0.465 0.088,-0.439C0.069,-0.412 0.056,-0.383 0.048,-0.351C0.04,-0.318 0.036,-0.287 0.036,-0.256C0.036,-0.221 0.041,-0.187 0.051,-0.156C0.06,-0.124 0.075,-0.096 0.094,-0.073C0.113,-0.049 0.137,-0.03 0.166,-0.016C0.195,-0.002 0.228,0.005 0.267,0.005C0.3,0.005 0.332,-0.003 0.362,-0.018C0.391,-0.033 0.413,-0.056 0.428,-0.088L0.43,-0.088L0.43,-0.054C0.43,-0.025 0.427,0.001 0.422,0.025C0.416,0.049 0.407,0.07 0.394,0.087C0.381,0.103 0.365,0.117 0.346,0.127C0.327,0.136 0.303,0.141 0.275,0.141C0.261,0.141 0.246,0.14 0.231,0.137C0.216,0.134 0.202,0.129 0.189,0.122C0.175,0.115 0.165,0.107 0.156,0.096C0.147,0.085 0.142,0.072 0.141,0.057L0.056,0.057C0.057,0.085 0.065,0.109 0.078,0.128C0.091,0.147 0.108,0.163 0.129,0.175C0.149,0.187 0.171,0.196 0.197,0.201C0.222,0.206 0.246,0.209 0.27,0.209C0.353,0.209 0.413,0.188 0.452,0.146C0.491,0.104 0.51,0.041 0.51,-0.044ZM0.272,-0.069C0.244,-0.069 0.221,-0.075 0.202,-0.087C0.183,-0.098 0.168,-0.114 0.157,-0.133C0.146,-0.152 0.138,-0.173 0.133,-0.196C0.128,-0.219 0.126,-0.243 0.126,-0.266C0.126,-0.291 0.129,-0.314 0.135,-0.337C0.14,-0.36 0.149,-0.38 0.162,-0.397C0.174,-0.414 0.19,-0.428 0.209,-0.439C0.228,-0.449 0.252,-0.454 0.279,-0.454C0.306,-0.454 0.328,-0.449 0.347,-0.438C0.366,-0.427 0.381,-0.413 0.393,-0.396C0.404,-0.378 0.413,-0.358 0.418,-0.336C0.423,-0.314 0.426,-0.292 0.426,-0.269C0.426,-0.245 0.423,-0.221 0.418,-0.197C0.412,-0.173 0.403,-0.152 0.391,-0.133C0.379,-0.114 0.363,-0.098 0.344,-0.087C0.324,-0.075 0.3,-0.069 0.272,-0.069Z" style="fill-rule:nonzero;"/>
        </g>
        <g transform="matrix(92.429,0,0,92.429,53.0542,0)">
            <rect x="0.069" y="-0.714" width="0.085" height="0.714" style="fill-rule:nonzero;"/>
        </g>
        <g transform="matrix(92.429,0,0,92.429,73.5735,0)">
            <path d="M0.099,-0.442L0.099,-0L0.184,-0L0.184,-0.442L0.284,-0.442L0.284,-0.517L0.184,-0.517L0.184,-0.589C0.184,-0.612 0.19,-0.627 0.201,-0.635C0.212,-0.643 0.228,-0.647 0.249,-0.647C0.256,-0.647 0.264,-0.647 0.273,-0.646C0.282,-0.645 0.29,-0.643 0.297,-0.64L0.297,-0.714C0.289,-0.717 0.28,-0.719 0.27,-0.72C0.259,-0.721 0.25,-0.722 0.242,-0.722C0.195,-0.722 0.16,-0.711 0.136,-0.69C0.111,-0.668 0.099,-0.636 0.099,-0.594L0.099,-0.517L0.012,-0.517L0.012,-0.442L0.099,-0.442Z" style="fill-rule:nonzero;"/>
        </g>
    </g>
    <path d="M2754.63,463.717L2754.63,260.373L2765.44,362.045L2754.63,463.717Z" style="fill:rgb(196,164,132);fill-rule:nonzero;stroke:black;stroke-width:9.24px;"/>
    <path d="M2798.16,306.587L2962.18,306.587L2962.18,260.373L3073.09,362.045L2962.18,463.717L2962.18,417.502L2798.16,417.502L2798.16,306.587Z" style="fill:rgb(210,178,243);fill-rule:nonzero;stroke:black;stroke-width:9.24px;"/>
    <g transform="matrix(0.707107,-0.707107,0.707107,0.707107,2904.19,210.514)">
        <g transform="matrix(92.429,0,0,92.429,0,0)">
            <path d="M0.126,-0.258C0.126,-0.289 0.13,-0.317 0.139,-0.342C0.147,-0.366 0.158,-0.386 0.173,-0.403C0.188,-0.42 0.205,-0.432 0.225,-0.441C0.244,-0.45 0.265,-0.454 0.287,-0.454C0.309,-0.454 0.33,-0.45 0.35,-0.441C0.369,-0.432 0.386,-0.42 0.401,-0.403C0.416,-0.386 0.427,-0.366 0.436,-0.342C0.444,-0.317 0.448,-0.289 0.448,-0.258C0.448,-0.227 0.444,-0.199 0.436,-0.175C0.427,-0.15 0.416,-0.13 0.401,-0.114C0.386,-0.097 0.369,-0.085 0.35,-0.076C0.33,-0.067 0.309,-0.063 0.287,-0.063C0.265,-0.063 0.244,-0.067 0.225,-0.076C0.205,-0.085 0.188,-0.097 0.173,-0.114C0.158,-0.13 0.147,-0.15 0.139,-0.175C0.13,-0.199 0.126,-0.227 0.126,-0.258ZM0.036,-0.258C0.036,-0.22 0.041,-0.185 0.052,-0.152C0.063,-0.119 0.079,-0.091 0.1,-0.067C0.121,-0.042 0.148,-0.023 0.179,-0.01C0.21,0.004 0.246,0.011 0.287,0.011C0.328,0.011 0.365,0.004 0.396,-0.01C0.427,-0.023 0.453,-0.042 0.474,-0.067C0.495,-0.091 0.511,-0.119 0.522,-0.152C0.533,-0.185 0.538,-0.22 0.538,-0.258C0.538,-0.296 0.533,-0.331 0.522,-0.365C0.511,-0.398 0.495,-0.426 0.474,-0.451C0.453,-0.475 0.427,-0.494 0.396,-0.508C0.365,-0.522 0.328,-0.529 0.287,-0.529C0.246,-0.529 0.21,-0.522 0.179,-0.508C0.148,-0.494 0.121,-0.475 0.1,-0.451C0.079,-0.426 0.063,-0.398 0.052,-0.365C0.041,-0.331 0.036,-0.296 0.036,-0.258Z" style="fill-rule:nonzero;"/>
        </g>
        <g transform="matrix(92.429,0,0,92.429,53.0542,0)">
            <path d="M0.067,-0.517L0.067,0.197L0.152,0.197L0.152,-0.069L0.154,-0.069C0.163,-0.054 0.175,-0.041 0.189,-0.031C0.202,-0.02 0.217,-0.012 0.232,-0.006C0.247,0 0.263,0.004 0.279,0.007C0.294,0.01 0.308,0.011 0.321,0.011C0.36,0.011 0.395,0.004 0.425,-0.01C0.454,-0.024 0.479,-0.043 0.499,-0.068C0.518,-0.092 0.533,-0.12 0.543,-0.153C0.552,-0.186 0.557,-0.22 0.557,-0.257C0.557,-0.294 0.552,-0.328 0.542,-0.361C0.532,-0.394 0.517,-0.423 0.498,-0.448C0.478,-0.472 0.453,-0.492 0.424,-0.507C0.394,-0.522 0.359,-0.529 0.319,-0.529C0.283,-0.529 0.25,-0.523 0.22,-0.51C0.19,-0.497 0.168,-0.476 0.154,-0.447L0.152,-0.447L0.152,-0.517L0.067,-0.517ZM0.467,-0.263C0.467,-0.238 0.464,-0.213 0.459,-0.189C0.454,-0.165 0.445,-0.144 0.433,-0.125C0.421,-0.106 0.405,-0.091 0.386,-0.08C0.366,-0.069 0.341,-0.063 0.312,-0.063C0.283,-0.063 0.258,-0.069 0.237,-0.08C0.216,-0.091 0.2,-0.105 0.187,-0.123C0.173,-0.141 0.164,-0.162 0.158,-0.186C0.152,-0.209 0.149,-0.234 0.149,-0.259C0.149,-0.283 0.152,-0.307 0.158,-0.33C0.163,-0.353 0.172,-0.374 0.185,-0.393C0.198,-0.411 0.214,-0.426 0.234,-0.437C0.254,-0.448 0.278,-0.454 0.307,-0.454C0.334,-0.454 0.358,-0.449 0.379,-0.438C0.399,-0.427 0.416,-0.413 0.429,-0.395C0.442,-0.377 0.451,-0.357 0.458,-0.334C0.464,-0.311 0.467,-0.287 0.467,-0.263Z" style="fill-rule:nonzero;"/>
        </g>
        <g transform="matrix(92.429,0,0,92.429,107.865,0)">
            <path d="M0.067,-0.517L0.067,0.197L0.152,0.197L0.152,-0.069L0.154,-0.069C0.163,-0.054 0.175,-0.041 0.189,-0.031C0.202,-0.02 0.217,-0.012 0.232,-0.006C0.247,0 0.263,0.004 0.279,0.007C0.294,0.01 0.308,0.011 0.321,0.011C0.36,0.011 0.395,0.004 0.425,-0.01C0.454,-0.024 0.479,-0.043 0.499,-0.068C0.518,-0.092 0.533,-0.12 0.543,-0.153C0.552,-0.186 0.557,-0.22 0.557,-0.257C0.557,-0.294 0.552,-0.328 0.542,-0.361C0.532,-0.394 0.517,-0.423 0.498,-0.448C0.478,-0.472 0.453,-0.492 0.424,-0.507C0.394,-0.522 0.359,-0.529 0.319,-0.529C0.283,-0.529 0.25,-0.523 0.22,-0.51C0.19,-0.497 0.168,-0.476 0.154,-0.447L0.152,-0.447L0.152,-0.517L0.067,-0.517ZM0.467,-0.263C0.467,-0.238 0.464,-0.213 0.459,-0.189C0.454,-0.165 0.445,-0.144 0.433,-0.125C0.421,-0.106 0.405,-0.091 0.386,-0.08C0.366,-0.069 0.341,-0.063 0.312,-0.063C0.283,-0.063 0.258,-0.069 0.237,-0.08C0.216,-0.091 0.2,-0.105 0.187,-0.123C0.173,-0.141 0.164,-0.162 0.158,-0.186C0.152,-0.209 0.149,-0.234 0.149,-0.259C0.149,-0.283 0.152,-0.307 0.158,-0.33C0.163,-0.353 0.172,-0.374 0.185,-0.393C0.198,-0.411 0.214,-0.426 0.234,-0.437C0.254,-0.448 0.278,-0.454 0.307,-0.454C0.334,-0.454 0.358,-0.449 0.379,-0.438C0.399,-0.427 0.416,-0.413 0.429,-0.395C0.442,-0.377 0.451,-0.357 0.458,-0.334C0.464,-0.311 0.467,-0.287 0.467,-0.263Z" style="fill-rule:nonzero;"/>
        </g>
        <g transform="matrix(92.429,0,0,92.429,162.675,0)">
            <path d="M0.201,-0.295L0.322,-0.628L0.324,-0.628L0.443,-0.295L0.201,-0.295ZM0.272,-0.714L-0.006,-0L0.091,-0L0.171,-0.215L0.473,-0.215L0.551,-0L0.656,-0L0.377,-0.714L0.272,-0.714Z" style="fill-rule:nonzero;"/>
        </g>
    </g>
</svg>
