<?xml version="1.0" encoding="UTF-8" standalone="no"?>
<!DOCTYPE svg PUBLIC "-//W3C//DTD SVG 1.1//EN" "http://www.w3.org/Graphics/SVG/1.1/DTD/svg11.dtd">
<svg width="100%" height="100%" viewBox="0 0 450 52" version="1.1" xmlns="http://www.w3.org/2000/svg" xmlns:xlink="http://www.w3.org/1999/xlink" xml:space="preserve" xmlns:serif="http://www.serif.com/" style="fill-rule:evenodd;clip-rule:evenodd;stroke-linejoin:round;stroke-miterlimit:10;">
    <g transform="matrix(1,0,0,1,-88,-1937.52)">
        <g id="Artboard78" transform="matrix(1,0,0,0.88494,-1,224.017)">
            <rect x="89" y="1936.29" width="450" height="58.579" style="fill:none;"/>
            <g transform="matrix(1,0,0,1.13002,70.5675,1577.53)">
                <g transform="matrix(14.04,0,0,14.04,200.113,347.477)">
                    <path d="M0.547,-0.038C0.547,-0.028 0.547,-0.02 0.546,-0.015C0.545,-0.01 0.543,-0.007 0.541,-0.005C0.539,-0.003 0.536,-0.001 0.532,0C0.528,0.002 0.523,0.003 0.517,0.005C0.511,0.006 0.505,0.007 0.5,0.008C0.494,0.008 0.487,0.009 0.481,0.009C0.469,0.009 0.457,0.007 0.446,0.004C0.434,0.001 0.424,-0.004 0.415,-0.011C0.406,-0.018 0.399,-0.028 0.393,-0.04C0.386,-0.052 0.382,-0.068 0.38,-0.087C0.374,-0.073 0.366,-0.06 0.356,-0.048C0.347,-0.037 0.335,-0.026 0.323,-0.018C0.31,-0.009 0.295,-0.003 0.28,0.002C0.264,0.007 0.247,0.009 0.229,0.009C0.197,0.009 0.169,0.003 0.146,-0.009C0.123,-0.021 0.104,-0.037 0.09,-0.059C0.075,-0.08 0.064,-0.105 0.058,-0.134C0.051,-0.163 0.047,-0.194 0.047,-0.227C0.047,-0.265 0.052,-0.299 0.06,-0.329C0.069,-0.359 0.081,-0.385 0.098,-0.407C0.115,-0.428 0.135,-0.445 0.16,-0.456C0.184,-0.468 0.212,-0.474 0.245,-0.474C0.265,-0.474 0.285,-0.47 0.303,-0.464C0.321,-0.457 0.338,-0.447 0.352,-0.434C0.366,-0.421 0.377,-0.405 0.386,-0.385C0.395,-0.366 0.401,-0.344 0.404,-0.318C0.41,-0.341 0.414,-0.362 0.417,-0.379C0.42,-0.396 0.423,-0.411 0.424,-0.422C0.426,-0.434 0.427,-0.443 0.427,-0.449C0.428,-0.455 0.429,-0.459 0.431,-0.46C0.432,-0.461 0.433,-0.462 0.435,-0.463C0.436,-0.463 0.438,-0.464 0.441,-0.465C0.444,-0.465 0.447,-0.466 0.451,-0.466C0.455,-0.467 0.46,-0.467 0.466,-0.467C0.474,-0.467 0.48,-0.467 0.485,-0.466C0.49,-0.466 0.494,-0.465 0.497,-0.463C0.5,-0.462 0.502,-0.46 0.503,-0.458C0.505,-0.457 0.505,-0.454 0.505,-0.452C0.505,-0.447 0.505,-0.439 0.503,-0.428C0.501,-0.417 0.499,-0.404 0.496,-0.389C0.493,-0.375 0.49,-0.358 0.485,-0.341C0.481,-0.324 0.477,-0.306 0.472,-0.288C0.467,-0.27 0.462,-0.252 0.457,-0.235C0.451,-0.218 0.445,-0.202 0.439,-0.188C0.44,-0.16 0.441,-0.138 0.444,-0.121C0.447,-0.105 0.451,-0.092 0.456,-0.082C0.461,-0.073 0.467,-0.067 0.473,-0.064C0.479,-0.061 0.486,-0.059 0.493,-0.059C0.499,-0.059 0.504,-0.06 0.509,-0.061C0.514,-0.062 0.518,-0.063 0.522,-0.064C0.525,-0.065 0.529,-0.066 0.531,-0.067C0.534,-0.068 0.537,-0.069 0.539,-0.069C0.54,-0.069 0.542,-0.068 0.542,-0.068C0.543,-0.067 0.544,-0.065 0.545,-0.063C0.546,-0.061 0.547,-0.058 0.547,-0.053C0.547,-0.049 0.547,-0.044 0.547,-0.038ZM0.358,-0.235C0.358,-0.265 0.355,-0.292 0.349,-0.313C0.343,-0.335 0.334,-0.353 0.324,-0.367C0.313,-0.381 0.301,-0.391 0.288,-0.397C0.274,-0.404 0.26,-0.407 0.246,-0.407C0.225,-0.407 0.208,-0.402 0.193,-0.392C0.179,-0.382 0.167,-0.369 0.157,-0.353C0.148,-0.337 0.141,-0.319 0.137,-0.298C0.133,-0.278 0.131,-0.257 0.131,-0.235C0.131,-0.212 0.132,-0.19 0.136,-0.169C0.139,-0.147 0.145,-0.128 0.153,-0.112C0.162,-0.096 0.173,-0.082 0.187,-0.073C0.201,-0.063 0.218,-0.058 0.24,-0.058C0.259,-0.058 0.276,-0.062 0.291,-0.071C0.306,-0.08 0.318,-0.092 0.328,-0.108C0.338,-0.123 0.345,-0.142 0.351,-0.163C0.356,-0.185 0.358,-0.208 0.358,-0.233L0.358,-0.235Z" style="fill-rule:nonzero;"/>
                </g>
                <g transform="matrix(14.04,0,0,14.04,208.035,347.477)">
                    <path d="M0.453,-0.033C0.453,-0.027 0.452,-0.022 0.451,-0.018C0.45,-0.013 0.449,-0.01 0.447,-0.007C0.446,-0.005 0.444,-0.003 0.442,-0.002C0.44,-0.001 0.437,-0 0.435,-0L0.105,-0C0.103,-0 0.101,-0.001 0.099,-0.002C0.097,-0.003 0.095,-0.005 0.093,-0.007C0.091,-0.01 0.09,-0.013 0.089,-0.018C0.088,-0.022 0.087,-0.027 0.087,-0.033C0.087,-0.039 0.088,-0.044 0.089,-0.048C0.09,-0.053 0.091,-0.056 0.093,-0.059C0.094,-0.062 0.096,-0.064 0.098,-0.065C0.1,-0.067 0.102,-0.067 0.105,-0.067L0.237,-0.067L0.237,-0.548L0.115,-0.475C0.109,-0.472 0.104,-0.47 0.1,-0.469C0.096,-0.469 0.093,-0.469 0.091,-0.471C0.089,-0.474 0.087,-0.477 0.086,-0.482C0.085,-0.487 0.085,-0.493 0.085,-0.5C0.085,-0.506 0.085,-0.511 0.086,-0.515C0.086,-0.519 0.087,-0.522 0.088,-0.524C0.089,-0.527 0.09,-0.529 0.092,-0.531C0.094,-0.533 0.096,-0.535 0.099,-0.537L0.245,-0.63C0.246,-0.631 0.248,-0.632 0.25,-0.633C0.251,-0.633 0.254,-0.634 0.257,-0.635C0.26,-0.635 0.263,-0.636 0.267,-0.636C0.271,-0.636 0.276,-0.636 0.282,-0.636C0.29,-0.636 0.296,-0.636 0.301,-0.635C0.306,-0.635 0.311,-0.634 0.313,-0.633C0.316,-0.631 0.318,-0.63 0.319,-0.628C0.32,-0.626 0.321,-0.625 0.321,-0.623L0.321,-0.067L0.435,-0.067C0.438,-0.067 0.44,-0.067 0.442,-0.065C0.445,-0.064 0.447,-0.062 0.448,-0.059C0.449,-0.056 0.451,-0.053 0.451,-0.048C0.452,-0.044 0.453,-0.039 0.453,-0.033Z" style="fill-rule:nonzero;"/>
                </g>
                <g transform="matrix(14.04,0,0,14.04,215.108,347.477)">
                    <path d="M0.272,-0.247C0.272,-0.234 0.271,-0.225 0.268,-0.22C0.265,-0.215 0.261,-0.213 0.255,-0.213L0.051,-0.213C0.045,-0.213 0.041,-0.215 0.038,-0.22C0.035,-0.226 0.034,-0.234 0.034,-0.247C0.034,-0.259 0.035,-0.268 0.038,-0.272C0.041,-0.277 0.045,-0.28 0.051,-0.28L0.255,-0.28C0.258,-0.28 0.26,-0.279 0.262,-0.278C0.265,-0.277 0.266,-0.275 0.268,-0.273C0.269,-0.27 0.27,-0.266 0.271,-0.262C0.272,-0.258 0.272,-0.253 0.272,-0.247Z" style="fill-rule:nonzero;"/>
                </g>
                <g transform="matrix(14.04,0,0,14.04,219.432,347.477)">
                    <path d="M0.451,-0.036C0.451,-0.03 0.451,-0.025 0.45,-0.021C0.449,-0.016 0.448,-0.012 0.447,-0.009C0.445,-0.006 0.443,-0.004 0.441,-0.002C0.438,-0.001 0.436,-0 0.433,-0L0.083,-0C0.079,-0 0.075,-0.001 0.072,-0.002C0.068,-0.003 0.065,-0.005 0.063,-0.007C0.06,-0.01 0.059,-0.014 0.057,-0.019C0.056,-0.023 0.056,-0.029 0.056,-0.037C0.056,-0.043 0.056,-0.049 0.056,-0.054C0.057,-0.059 0.058,-0.063 0.06,-0.067C0.061,-0.07 0.063,-0.074 0.066,-0.078C0.068,-0.082 0.071,-0.086 0.075,-0.09L0.198,-0.22C0.226,-0.25 0.249,-0.277 0.266,-0.3C0.283,-0.324 0.296,-0.346 0.305,-0.365C0.315,-0.385 0.321,-0.403 0.324,-0.418C0.327,-0.434 0.328,-0.449 0.328,-0.463C0.328,-0.477 0.326,-0.491 0.321,-0.503C0.317,-0.516 0.31,-0.527 0.302,-0.536C0.293,-0.546 0.282,-0.553 0.269,-0.559C0.256,-0.564 0.241,-0.567 0.224,-0.567C0.204,-0.567 0.186,-0.564 0.171,-0.559C0.155,-0.553 0.141,-0.547 0.129,-0.541C0.117,-0.534 0.107,-0.528 0.099,-0.522C0.091,-0.517 0.085,-0.514 0.082,-0.514C0.079,-0.514 0.077,-0.515 0.075,-0.516C0.074,-0.517 0.072,-0.52 0.071,-0.522C0.07,-0.525 0.069,-0.529 0.068,-0.534C0.068,-0.539 0.067,-0.545 0.067,-0.552C0.067,-0.557 0.068,-0.561 0.068,-0.564C0.068,-0.568 0.069,-0.571 0.07,-0.574C0.07,-0.576 0.071,-0.579 0.073,-0.581C0.074,-0.583 0.077,-0.586 0.081,-0.59C0.084,-0.593 0.091,-0.598 0.101,-0.604C0.11,-0.609 0.122,-0.615 0.137,-0.621C0.151,-0.627 0.167,-0.631 0.185,-0.635C0.202,-0.639 0.221,-0.641 0.24,-0.641C0.27,-0.641 0.297,-0.637 0.32,-0.628C0.343,-0.62 0.362,-0.608 0.377,-0.593C0.392,-0.578 0.404,-0.56 0.411,-0.541C0.419,-0.521 0.422,-0.5 0.422,-0.477C0.422,-0.457 0.421,-0.437 0.417,-0.417C0.413,-0.397 0.406,-0.375 0.394,-0.352C0.383,-0.329 0.366,-0.303 0.344,-0.274C0.322,-0.246 0.293,-0.213 0.257,-0.176L0.157,-0.071L0.432,-0.071C0.435,-0.071 0.437,-0.071 0.44,-0.069C0.442,-0.068 0.444,-0.065 0.446,-0.063C0.448,-0.06 0.449,-0.056 0.45,-0.052C0.451,-0.047 0.451,-0.042 0.451,-0.036Z" style="fill-rule:nonzero;"/>
                </g>
                <g transform="matrix(14.04,0,0,14.04,118.737,347.477)">
                    <path d="M0.451,-0.036C0.451,-0.03 0.451,-0.025 0.45,-0.021C0.449,-0.016 0.448,-0.012 0.447,-0.009C0.445,-0.006 0.443,-0.004 0.441,-0.002C0.438,-0.001 0.436,-0 0.433,-0L0.083,-0C0.079,-0 0.075,-0.001 0.072,-0.002C0.068,-0.003 0.065,-0.005 0.063,-0.007C0.06,-0.01 0.059,-0.014 0.057,-0.019C0.056,-0.023 0.056,-0.029 0.056,-0.037C0.056,-0.043 0.056,-0.049 0.056,-0.054C0.057,-0.059 0.058,-0.063 0.06,-0.067C0.061,-0.07 0.063,-0.074 0.066,-0.078C0.068,-0.082 0.071,-0.086 0.075,-0.09L0.198,-0.22C0.226,-0.25 0.249,-0.277 0.266,-0.3C0.283,-0.324 0.296,-0.346 0.305,-0.365C0.315,-0.385 0.321,-0.403 0.324,-0.418C0.327,-0.434 0.328,-0.449 0.328,-0.463C0.328,-0.477 0.326,-0.491 0.321,-0.503C0.317,-0.516 0.31,-0.527 0.302,-0.536C0.293,-0.546 0.282,-0.553 0.269,-0.559C0.256,-0.564 0.241,-0.567 0.224,-0.567C0.204,-0.567 0.186,-0.564 0.171,-0.559C0.155,-0.553 0.141,-0.547 0.129,-0.541C0.117,-0.534 0.107,-0.528 0.099,-0.522C0.091,-0.517 0.085,-0.514 0.082,-0.514C0.079,-0.514 0.077,-0.515 0.075,-0.516C0.074,-0.517 0.072,-0.52 0.071,-0.522C0.07,-0.525 0.069,-0.529 0.068,-0.534C0.068,-0.539 0.067,-0.545 0.067,-0.552C0.067,-0.557 0.068,-0.561 0.068,-0.564C0.068,-0.568 0.069,-0.571 0.07,-0.574C0.07,-0.576 0.071,-0.579 0.073,-0.581C0.074,-0.583 0.077,-0.586 0.081,-0.59C0.084,-0.593 0.091,-0.598 0.101,-0.604C0.11,-0.609 0.122,-0.615 0.137,-0.621C0.151,-0.627 0.167,-0.631 0.185,-0.635C0.202,-0.639 0.221,-0.641 0.24,-0.641C0.27,-0.641 0.297,-0.637 0.32,-0.628C0.343,-0.62 0.362,-0.608 0.377,-0.593C0.392,-0.578 0.404,-0.56 0.411,-0.541C0.419,-0.521 0.422,-0.5 0.422,-0.477C0.422,-0.457 0.421,-0.437 0.417,-0.417C0.413,-0.397 0.406,-0.375 0.394,-0.352C0.383,-0.329 0.366,-0.303 0.344,-0.274C0.322,-0.246 0.293,-0.213 0.257,-0.176L0.157,-0.071L0.432,-0.071C0.435,-0.071 0.437,-0.071 0.44,-0.069C0.442,-0.068 0.444,-0.065 0.446,-0.063C0.448,-0.06 0.449,-0.056 0.45,-0.052C0.451,-0.047 0.451,-0.042 0.451,-0.036Z" style="fill-rule:nonzero;"/>
                </g>
                <g transform="matrix(14.04,0,0,14.04,114.18,332.925)">
                    <path d="M0.467,-0.205C0.467,-0.177 0.463,-0.15 0.455,-0.124C0.446,-0.098 0.433,-0.076 0.416,-0.056C0.398,-0.036 0.376,-0.02 0.349,-0.009C0.322,0.003 0.29,0.009 0.253,0.009C0.227,0.009 0.203,0.006 0.183,-0C0.163,-0.007 0.145,-0.016 0.13,-0.028C0.115,-0.04 0.103,-0.055 0.093,-0.073C0.083,-0.09 0.075,-0.11 0.069,-0.133C0.063,-0.155 0.059,-0.18 0.056,-0.207C0.054,-0.233 0.052,-0.262 0.052,-0.292C0.052,-0.319 0.054,-0.347 0.057,-0.375C0.06,-0.402 0.065,-0.429 0.072,-0.455C0.08,-0.48 0.09,-0.504 0.103,-0.527C0.116,-0.55 0.132,-0.569 0.151,-0.586C0.17,-0.603 0.194,-0.616 0.221,-0.626C0.248,-0.636 0.279,-0.641 0.315,-0.641C0.327,-0.641 0.339,-0.64 0.352,-0.638C0.364,-0.637 0.375,-0.635 0.386,-0.633C0.396,-0.63 0.405,-0.627 0.412,-0.625C0.419,-0.622 0.424,-0.619 0.426,-0.617C0.429,-0.616 0.43,-0.614 0.431,-0.612C0.433,-0.609 0.433,-0.607 0.434,-0.605C0.435,-0.602 0.435,-0.6 0.436,-0.596C0.436,-0.593 0.436,-0.59 0.436,-0.585C0.436,-0.579 0.436,-0.574 0.436,-0.57C0.436,-0.566 0.435,-0.562 0.434,-0.56C0.433,-0.557 0.431,-0.555 0.429,-0.554C0.428,-0.552 0.425,-0.552 0.422,-0.552C0.419,-0.552 0.414,-0.553 0.408,-0.555C0.402,-0.557 0.394,-0.56 0.385,-0.563C0.376,-0.566 0.366,-0.568 0.353,-0.57C0.341,-0.573 0.326,-0.574 0.31,-0.574C0.279,-0.574 0.253,-0.568 0.231,-0.555C0.21,-0.543 0.192,-0.526 0.178,-0.505C0.164,-0.485 0.154,-0.46 0.147,-0.433C0.141,-0.405 0.137,-0.377 0.136,-0.347C0.144,-0.352 0.154,-0.356 0.164,-0.361C0.175,-0.366 0.186,-0.371 0.199,-0.375C0.212,-0.378 0.225,-0.382 0.239,-0.384C0.253,-0.386 0.268,-0.388 0.284,-0.388C0.318,-0.388 0.347,-0.383 0.37,-0.374C0.394,-0.365 0.413,-0.352 0.427,-0.335C0.441,-0.319 0.452,-0.299 0.458,-0.277C0.464,-0.255 0.467,-0.231 0.467,-0.205ZM0.382,-0.197C0.382,-0.216 0.38,-0.233 0.377,-0.248C0.373,-0.264 0.367,-0.277 0.358,-0.288C0.349,-0.298 0.337,-0.307 0.323,-0.313C0.308,-0.318 0.29,-0.321 0.269,-0.321C0.257,-0.321 0.244,-0.32 0.232,-0.318C0.22,-0.316 0.209,-0.313 0.198,-0.309C0.186,-0.306 0.176,-0.301 0.165,-0.296C0.155,-0.291 0.146,-0.286 0.137,-0.28C0.137,-0.238 0.14,-0.203 0.145,-0.174C0.151,-0.146 0.158,-0.123 0.169,-0.106C0.179,-0.089 0.192,-0.077 0.207,-0.07C0.222,-0.062 0.24,-0.059 0.261,-0.059C0.282,-0.059 0.3,-0.063 0.315,-0.07C0.33,-0.078 0.343,-0.089 0.353,-0.102C0.363,-0.115 0.371,-0.13 0.375,-0.146C0.38,-0.163 0.382,-0.18 0.382,-0.197Z" style="fill-rule:nonzero;"/>
                </g>
                <g transform="matrix(14.04,0,0,14.04,121.256,332.925)">
                    <path d="M0.557,-0.03C0.56,-0.023 0.561,-0.017 0.561,-0.012C0.561,-0.008 0.56,-0.005 0.558,-0.002C0.555,-0 0.551,0.001 0.545,0.002C0.539,0.003 0.531,0.003 0.521,0.003C0.51,0.003 0.502,0.003 0.496,0.002C0.49,0.002 0.486,0.001 0.483,-0C0.48,-0.001 0.477,-0.003 0.476,-0.005C0.474,-0.007 0.473,-0.009 0.472,-0.012L0.417,-0.166L0.155,-0.166L0.103,-0.014C0.102,-0.011 0.101,-0.009 0.099,-0.007C0.097,-0.004 0.095,-0.003 0.092,-0.001C0.089,0 0.085,0.001 0.079,0.002C0.073,0.003 0.066,0.003 0.057,0.003C0.047,0.003 0.039,0.003 0.033,0.002C0.027,0.001 0.023,-0.001 0.021,-0.003C0.018,-0.005 0.017,-0.009 0.017,-0.013C0.017,-0.017 0.019,-0.023 0.021,-0.03L0.233,-0.617C0.235,-0.621 0.236,-0.624 0.239,-0.626C0.241,-0.628 0.244,-0.63 0.248,-0.631C0.252,-0.633 0.257,-0.634 0.263,-0.634C0.27,-0.635 0.278,-0.635 0.288,-0.635C0.298,-0.635 0.307,-0.635 0.313,-0.634C0.32,-0.634 0.326,-0.633 0.33,-0.631C0.334,-0.63 0.338,-0.628 0.34,-0.626C0.342,-0.623 0.344,-0.62 0.345,-0.617L0.557,-0.03ZM0.285,-0.548L0.285,-0.548L0.176,-0.233L0.396,-0.233L0.285,-0.548Z" style="fill-rule:nonzero;"/>
                </g>
                <g transform="matrix(14.04,0,0,14.04,129.416,332.925)">
                    <path d="M0.391,-0.079C0.391,-0.074 0.39,-0.069 0.39,-0.065C0.39,-0.061 0.389,-0.057 0.388,-0.054C0.388,-0.052 0.387,-0.049 0.385,-0.047C0.384,-0.045 0.382,-0.042 0.378,-0.038C0.374,-0.034 0.367,-0.029 0.357,-0.023C0.347,-0.017 0.336,-0.011 0.324,-0.007C0.312,-0.002 0.299,0.002 0.284,0.005C0.27,0.008 0.255,0.009 0.24,0.009C0.208,0.009 0.18,0.004 0.156,-0.006C0.131,-0.017 0.111,-0.032 0.094,-0.052C0.078,-0.072 0.066,-0.097 0.057,-0.126C0.048,-0.155 0.044,-0.188 0.044,-0.227C0.044,-0.27 0.049,-0.307 0.06,-0.338C0.07,-0.369 0.085,-0.395 0.103,-0.415C0.122,-0.434 0.143,-0.449 0.168,-0.459C0.193,-0.468 0.22,-0.473 0.249,-0.473C0.263,-0.473 0.277,-0.472 0.29,-0.469C0.303,-0.467 0.315,-0.463 0.326,-0.459C0.337,-0.455 0.347,-0.45 0.356,-0.444C0.364,-0.439 0.371,-0.434 0.375,-0.43C0.378,-0.426 0.381,-0.423 0.383,-0.421C0.384,-0.419 0.385,-0.416 0.386,-0.413C0.387,-0.41 0.388,-0.406 0.388,-0.402C0.389,-0.398 0.389,-0.394 0.389,-0.388C0.389,-0.375 0.387,-0.366 0.384,-0.361C0.381,-0.356 0.378,-0.354 0.374,-0.354C0.369,-0.354 0.363,-0.356 0.357,-0.362C0.35,-0.367 0.342,-0.373 0.333,-0.379C0.323,-0.386 0.311,-0.392 0.297,-0.397C0.283,-0.403 0.267,-0.405 0.248,-0.405C0.209,-0.405 0.18,-0.39 0.159,-0.361C0.138,-0.331 0.128,-0.288 0.128,-0.231C0.128,-0.203 0.131,-0.178 0.136,-0.156C0.141,-0.135 0.149,-0.117 0.16,-0.103C0.17,-0.089 0.183,-0.078 0.198,-0.071C0.213,-0.064 0.23,-0.061 0.25,-0.061C0.269,-0.061 0.285,-0.063 0.299,-0.069C0.313,-0.075 0.325,-0.082 0.335,-0.089C0.345,-0.096 0.354,-0.102 0.361,-0.108C0.368,-0.113 0.374,-0.116 0.377,-0.116C0.38,-0.116 0.382,-0.116 0.383,-0.114C0.385,-0.113 0.386,-0.111 0.387,-0.108C0.389,-0.105 0.389,-0.101 0.39,-0.096C0.39,-0.091 0.391,-0.086 0.391,-0.079Z" style="fill-rule:nonzero;"/>
                </g>
                <g transform="matrix(14.04,0,0,14.04,138.43,332.925)">
                    <path d="M0.242,-0.673C0.211,-0.607 0.188,-0.54 0.173,-0.471C0.157,-0.403 0.15,-0.333 0.15,-0.264C0.15,-0.194 0.158,-0.124 0.173,-0.056C0.189,0.013 0.211,0.08 0.241,0.146C0.242,0.15 0.243,0.154 0.243,0.156C0.244,0.159 0.243,0.162 0.24,0.163C0.238,0.165 0.234,0.166 0.23,0.167C0.225,0.168 0.219,0.168 0.21,0.168C0.205,0.168 0.2,0.168 0.195,0.168C0.191,0.168 0.187,0.167 0.184,0.166C0.181,0.165 0.179,0.164 0.177,0.163C0.175,0.161 0.173,0.16 0.172,0.158C0.155,0.125 0.139,0.091 0.126,0.057C0.113,0.023 0.101,-0.011 0.092,-0.046C0.083,-0.082 0.076,-0.117 0.072,-0.153C0.067,-0.189 0.065,-0.225 0.065,-0.262C0.065,-0.299 0.067,-0.335 0.073,-0.371C0.078,-0.407 0.085,-0.442 0.094,-0.478C0.103,-0.513 0.115,-0.548 0.128,-0.582C0.141,-0.616 0.156,-0.65 0.173,-0.684C0.173,-0.685 0.174,-0.686 0.176,-0.687C0.177,-0.688 0.179,-0.689 0.182,-0.69C0.184,-0.691 0.188,-0.692 0.192,-0.692C0.197,-0.693 0.203,-0.693 0.21,-0.693C0.217,-0.693 0.223,-0.692 0.228,-0.691C0.233,-0.69 0.236,-0.689 0.239,-0.688C0.241,-0.686 0.243,-0.684 0.243,-0.681C0.243,-0.679 0.243,-0.676 0.242,-0.673Z" style="fill-rule:nonzero;"/>
                </g>
                <g transform="matrix(14.04,0,0,14.04,142.639,332.925)">
                    <path d="M0.448,-0.203C0.448,-0.169 0.443,-0.139 0.431,-0.113C0.42,-0.086 0.404,-0.064 0.383,-0.046C0.362,-0.028 0.337,-0.014 0.308,-0.005C0.28,0.005 0.248,0.009 0.212,0.009C0.193,0.009 0.174,0.008 0.157,0.005C0.139,0.002 0.124,-0.001 0.11,-0.005C0.096,-0.009 0.085,-0.013 0.076,-0.017C0.067,-0.021 0.062,-0.024 0.059,-0.026C0.057,-0.029 0.055,-0.031 0.054,-0.033C0.053,-0.035 0.052,-0.037 0.052,-0.04C0.051,-0.043 0.05,-0.046 0.05,-0.05C0.049,-0.055 0.049,-0.06 0.049,-0.065C0.049,-0.071 0.05,-0.076 0.05,-0.08C0.051,-0.085 0.051,-0.088 0.053,-0.091C0.054,-0.094 0.056,-0.096 0.057,-0.097C0.059,-0.098 0.061,-0.099 0.063,-0.099C0.067,-0.099 0.072,-0.097 0.079,-0.093C0.085,-0.089 0.095,-0.085 0.106,-0.08C0.118,-0.075 0.132,-0.071 0.149,-0.066C0.166,-0.062 0.187,-0.06 0.21,-0.06C0.232,-0.06 0.252,-0.063 0.27,-0.068C0.288,-0.073 0.304,-0.081 0.317,-0.092C0.33,-0.103 0.341,-0.117 0.348,-0.134C0.356,-0.151 0.359,-0.171 0.359,-0.195C0.359,-0.215 0.356,-0.233 0.35,-0.249C0.344,-0.264 0.334,-0.277 0.321,-0.287C0.307,-0.298 0.291,-0.305 0.271,-0.31C0.25,-0.315 0.226,-0.318 0.198,-0.318C0.178,-0.318 0.161,-0.317 0.147,-0.315C0.133,-0.313 0.119,-0.312 0.107,-0.312C0.098,-0.312 0.091,-0.314 0.087,-0.318C0.083,-0.323 0.082,-0.331 0.082,-0.343L0.082,-0.6C0.082,-0.611 0.084,-0.619 0.089,-0.624C0.094,-0.629 0.101,-0.632 0.111,-0.632L0.391,-0.632C0.393,-0.632 0.396,-0.631 0.398,-0.63C0.401,-0.628 0.403,-0.626 0.404,-0.623C0.406,-0.62 0.407,-0.616 0.408,-0.612C0.409,-0.607 0.409,-0.602 0.409,-0.596C0.409,-0.584 0.408,-0.575 0.404,-0.568C0.401,-0.562 0.396,-0.559 0.391,-0.559L0.155,-0.559L0.155,-0.381C0.166,-0.383 0.178,-0.384 0.19,-0.384C0.202,-0.385 0.215,-0.385 0.231,-0.385C0.267,-0.385 0.299,-0.38 0.326,-0.372C0.353,-0.363 0.375,-0.351 0.393,-0.335C0.411,-0.319 0.425,-0.3 0.434,-0.278C0.444,-0.255 0.448,-0.23 0.448,-0.203Z" style="fill-rule:nonzero;"/>
                </g>
                <g transform="matrix(14.04,0,0,14.04,149.707,332.925)">
                    <path d="M0.472,-0.317C0.472,-0.269 0.468,-0.225 0.461,-0.185C0.453,-0.145 0.44,-0.11 0.423,-0.081C0.405,-0.052 0.382,-0.03 0.353,-0.014C0.324,0.001 0.289,0.009 0.247,0.009C0.207,0.009 0.174,0.002 0.147,-0.012C0.12,-0.026 0.098,-0.047 0.081,-0.074C0.064,-0.102 0.053,-0.136 0.046,-0.176C0.039,-0.216 0.035,-0.262 0.035,-0.314C0.035,-0.363 0.039,-0.407 0.047,-0.447C0.055,-0.487 0.067,-0.522 0.085,-0.551C0.103,-0.579 0.126,-0.602 0.154,-0.617C0.183,-0.633 0.218,-0.641 0.26,-0.641C0.3,-0.641 0.333,-0.634 0.361,-0.62C0.388,-0.606 0.41,-0.585 0.426,-0.557C0.443,-0.53 0.455,-0.496 0.462,-0.456C0.469,-0.416 0.472,-0.369 0.472,-0.317ZM0.386,-0.312C0.386,-0.343 0.385,-0.371 0.383,-0.396C0.381,-0.422 0.377,-0.444 0.373,-0.463C0.368,-0.482 0.363,-0.499 0.356,-0.512C0.349,-0.526 0.34,-0.538 0.331,-0.547C0.321,-0.556 0.31,-0.562 0.297,-0.566C0.285,-0.57 0.271,-0.572 0.255,-0.572C0.227,-0.572 0.205,-0.566 0.188,-0.553C0.17,-0.54 0.157,-0.522 0.147,-0.499C0.137,-0.476 0.13,-0.45 0.126,-0.419C0.123,-0.388 0.121,-0.355 0.121,-0.32C0.121,-0.273 0.124,-0.233 0.128,-0.2C0.133,-0.167 0.141,-0.14 0.152,-0.119C0.162,-0.098 0.176,-0.083 0.192,-0.074C0.209,-0.064 0.229,-0.06 0.252,-0.06C0.27,-0.06 0.286,-0.063 0.3,-0.068C0.314,-0.074 0.326,-0.083 0.336,-0.094C0.346,-0.104 0.354,-0.118 0.36,-0.133C0.367,-0.148 0.372,-0.165 0.376,-0.184C0.38,-0.202 0.383,-0.222 0.384,-0.244C0.385,-0.266 0.386,-0.288 0.386,-0.312Z" style="fill-rule:nonzero;"/>
                </g>
                <g transform="matrix(14.04,0,0,14.04,156.775,332.925)">
                    <path d="M0.307,-0.476C0.307,-0.451 0.304,-0.428 0.299,-0.407C0.293,-0.387 0.285,-0.369 0.273,-0.355C0.262,-0.34 0.248,-0.329 0.23,-0.321C0.213,-0.313 0.192,-0.309 0.169,-0.309C0.145,-0.309 0.125,-0.312 0.108,-0.32C0.091,-0.327 0.077,-0.338 0.066,-0.352C0.056,-0.366 0.048,-0.384 0.043,-0.404C0.038,-0.424 0.035,-0.448 0.035,-0.474C0.035,-0.497 0.038,-0.519 0.043,-0.54C0.049,-0.56 0.057,-0.577 0.068,-0.592C0.079,-0.606 0.093,-0.618 0.111,-0.626C0.128,-0.635 0.149,-0.639 0.172,-0.639C0.198,-0.639 0.22,-0.635 0.237,-0.626C0.254,-0.617 0.268,-0.605 0.279,-0.591C0.289,-0.576 0.297,-0.558 0.301,-0.539C0.305,-0.519 0.307,-0.498 0.307,-0.476ZM0.239,-0.473C0.239,-0.491 0.237,-0.508 0.235,-0.522C0.232,-0.536 0.228,-0.548 0.223,-0.557C0.218,-0.567 0.21,-0.574 0.202,-0.578C0.193,-0.583 0.182,-0.585 0.17,-0.585C0.159,-0.585 0.149,-0.583 0.141,-0.579C0.132,-0.574 0.125,-0.567 0.12,-0.558C0.115,-0.549 0.111,-0.538 0.108,-0.524C0.105,-0.511 0.104,-0.495 0.104,-0.477C0.104,-0.454 0.106,-0.436 0.109,-0.421C0.112,-0.406 0.116,-0.395 0.122,-0.386C0.128,-0.377 0.135,-0.371 0.143,-0.368C0.152,-0.365 0.162,-0.363 0.173,-0.363C0.186,-0.363 0.197,-0.365 0.205,-0.37C0.213,-0.375 0.22,-0.382 0.225,-0.392C0.23,-0.401 0.233,-0.413 0.236,-0.427C0.238,-0.44 0.239,-0.456 0.239,-0.473ZM0.68,-0.16C0.68,-0.135 0.677,-0.112 0.671,-0.091C0.666,-0.071 0.657,-0.053 0.646,-0.039C0.635,-0.024 0.62,-0.013 0.603,-0.005C0.585,0.003 0.565,0.007 0.542,0.007C0.518,0.007 0.497,0.004 0.48,-0.004C0.464,-0.011 0.45,-0.022 0.439,-0.036C0.428,-0.051 0.42,-0.068 0.415,-0.088C0.41,-0.108 0.408,-0.132 0.408,-0.158C0.408,-0.181 0.41,-0.203 0.416,-0.224C0.421,-0.244 0.429,-0.261 0.44,-0.276C0.451,-0.291 0.466,-0.302 0.483,-0.311C0.501,-0.319 0.521,-0.323 0.545,-0.323C0.571,-0.323 0.592,-0.319 0.61,-0.31C0.627,-0.301 0.641,-0.289 0.651,-0.275C0.662,-0.26 0.669,-0.243 0.673,-0.223C0.678,-0.203 0.68,-0.182 0.68,-0.16ZM0.611,-0.157C0.611,-0.175 0.61,-0.192 0.607,-0.206C0.605,-0.22 0.601,-0.232 0.595,-0.241C0.59,-0.251 0.583,-0.258 0.574,-0.262C0.565,-0.267 0.555,-0.27 0.543,-0.27C0.532,-0.27 0.522,-0.267 0.513,-0.263C0.505,-0.258 0.498,-0.251 0.492,-0.242C0.487,-0.233 0.483,-0.222 0.48,-0.208C0.478,-0.195 0.477,-0.179 0.477,-0.161C0.477,-0.139 0.478,-0.12 0.481,-0.105C0.484,-0.09 0.489,-0.079 0.494,-0.07C0.5,-0.061 0.507,-0.055 0.516,-0.052C0.524,-0.049 0.534,-0.047 0.545,-0.047C0.558,-0.047 0.569,-0.049 0.577,-0.054C0.586,-0.059 0.592,-0.066 0.597,-0.076C0.602,-0.086 0.606,-0.097 0.608,-0.111C0.61,-0.124 0.611,-0.14 0.611,-0.157ZM0.169,0.004C0.167,0.007 0.165,0.009 0.163,0.01C0.161,0.012 0.158,0.013 0.155,0.014C0.152,0.016 0.148,0.016 0.143,0.017C0.139,0.017 0.133,0.018 0.126,0.018C0.119,0.018 0.114,0.017 0.109,0.016C0.105,0.014 0.102,0.013 0.1,0.01C0.098,0.008 0.097,0.006 0.098,0.003C0.098,-0 0.1,-0.004 0.103,-0.008L0.542,-0.637C0.544,-0.64 0.546,-0.642 0.548,-0.644C0.55,-0.646 0.553,-0.647 0.556,-0.648C0.56,-0.649 0.564,-0.65 0.568,-0.65C0.573,-0.651 0.578,-0.651 0.585,-0.651C0.592,-0.651 0.597,-0.65 0.602,-0.649C0.606,-0.648 0.609,-0.646 0.611,-0.644C0.613,-0.642 0.614,-0.639 0.614,-0.636C0.613,-0.632 0.611,-0.629 0.609,-0.625L0.169,0.004Z" style="fill-rule:nonzero;"/>
                </g>
                <g transform="matrix(14.04,0,0,14.04,166.856,332.925)">
                    <path d="M0.238,-0.262C0.238,-0.225 0.236,-0.189 0.231,-0.153C0.226,-0.117 0.22,-0.082 0.21,-0.046C0.201,-0.011 0.19,0.023 0.177,0.057C0.164,0.091 0.148,0.125 0.131,0.158C0.13,0.16 0.128,0.161 0.126,0.163C0.125,0.164 0.122,0.165 0.119,0.166C0.116,0.167 0.112,0.168 0.108,0.168C0.104,0.168 0.099,0.168 0.093,0.168C0.084,0.168 0.078,0.168 0.073,0.167C0.068,0.166 0.065,0.165 0.063,0.163C0.061,0.162 0.06,0.159 0.06,0.156C0.06,0.154 0.061,0.15 0.063,0.146C0.092,0.081 0.115,0.013 0.13,-0.055C0.146,-0.124 0.153,-0.194 0.153,-0.264C0.153,-0.333 0.146,-0.403 0.13,-0.471C0.115,-0.54 0.092,-0.607 0.062,-0.673C0.06,-0.676 0.06,-0.679 0.06,-0.681C0.06,-0.684 0.062,-0.686 0.064,-0.688C0.067,-0.689 0.071,-0.69 0.075,-0.691C0.08,-0.692 0.086,-0.693 0.093,-0.693C0.1,-0.693 0.106,-0.693 0.11,-0.692C0.115,-0.692 0.119,-0.691 0.121,-0.69C0.124,-0.689 0.126,-0.688 0.127,-0.687C0.129,-0.686 0.13,-0.685 0.13,-0.684C0.164,-0.617 0.19,-0.548 0.209,-0.478C0.228,-0.407 0.238,-0.335 0.238,-0.262Z" style="fill-rule:nonzero;"/>
                </g>
                <g transform="matrix(1,-0.000243902,-0.000243902,-1,113.624,352.32)">
                    <path d="M-0,0.031L254.2,0.031" style="fill:none;fill-rule:nonzero;stroke:black;stroke-width:0.75px;"/>
                </g>
                <g transform="matrix(1,0,0,1,366.825,349.228)">
                    <path d="M0,6L5.999,2.998L-0.002,0L0,6Z"/>
                </g>
                <g transform="matrix(0,-1,-1,0,113.624,349.289)">
                    <path d="M-3,-3C-1.343,-3 0,-1.657 0,0C0,1.657 -1.343,3 -3,3C-4.657,3 -6,1.657 -6,0C-6,-1.657 -4.657,-3 -3,-3"/>
                </g>
                <g transform="matrix(0,1,1,0,190.348,344.097)">
                    <path d="M9,-9C4.029,-9 0,-4.971 0,0C0,4.971 4.029,9 9,9C13.971,9 18,4.971 18,0C18,-4.971 13.971,-9 9,-9" style="fill:rgb(255,192,0);"/>
                </g>
                <g transform="matrix(0,1,1,0,190.348,344.097)">
                    <circle cx="9" cy="0" r="9" style="fill:none;stroke:black;stroke-width:0.75px;"/>
                </g>
                <g transform="matrix(0,1,1,0,138.224,345.425)">
                    <path d="M9,-9C4.029,-9 0,-4.971 0,0C0,4.971 4.029,9 9,9C13.971,9 18,4.971 18,0C18,-4.971 13.971,-9 9,-9" style="fill:rgb(255,192,0);"/>
                </g>
                <g transform="matrix(0,1,1,0,138.224,345.425)">
                    <circle cx="9" cy="0" r="9" style="fill:none;stroke:black;stroke-width:0.75px;"/>
                </g>
                <g transform="matrix(1,0,0,1,226.738,355.121)">
                    <path d="M0,-4.76L7.7,-4.76L10.08,-12.46L12.46,-4.76L20.16,-4.76L13.93,-0.001L16.31,7.7L10.08,2.94L3.85,7.7L6.23,-0.001L0,-4.76Z" style="fill:rgb(232,152,221);stroke:black;stroke-width:0.75px;stroke-linejoin:miter;stroke-miterlimit:8;"/>
                </g>
                <g transform="matrix(0,1,1,0,336.053,343.299)">
                    <path d="M9,-9C4.029,-9 0,-4.971 0,0C0,4.971 4.029,9 9,9C13.971,9 18,4.971 18,0C18,-4.971 13.971,-9 9,-9" style="fill:rgb(91,155,213);"/>
                </g>
                <g transform="matrix(0,1,1,0,336.053,343.299)">
                    <circle cx="9" cy="0" r="9" style="fill:none;stroke:black;stroke-width:0.75px;"/>
                </g>
                <g transform="matrix(14.04,0,0,14.04,136.337,357.66)">
                    <path d="M0.399,-0.652C0.399,-0.651 0.399,-0.649 0.398,-0.646C0.398,-0.643 0.398,-0.64 0.397,-0.636C0.397,-0.633 0.396,-0.629 0.395,-0.626C0.394,-0.622 0.393,-0.618 0.392,-0.615C0.39,-0.612 0.389,-0.609 0.387,-0.607C0.386,-0.605 0.384,-0.604 0.382,-0.604C0.38,-0.604 0.377,-0.605 0.373,-0.606C0.37,-0.608 0.366,-0.609 0.361,-0.611C0.357,-0.612 0.351,-0.613 0.345,-0.615C0.339,-0.616 0.332,-0.617 0.325,-0.617C0.311,-0.617 0.299,-0.615 0.289,-0.61C0.279,-0.606 0.27,-0.6 0.263,-0.591C0.256,-0.582 0.25,-0.57 0.245,-0.557C0.24,-0.543 0.236,-0.527 0.232,-0.508L0.224,-0.464L0.322,-0.464C0.326,-0.464 0.329,-0.463 0.331,-0.461C0.333,-0.458 0.334,-0.454 0.334,-0.449C0.334,-0.445 0.334,-0.441 0.333,-0.438C0.332,-0.434 0.332,-0.43 0.331,-0.426C0.33,-0.422 0.328,-0.419 0.327,-0.415C0.325,-0.412 0.324,-0.409 0.322,-0.406C0.32,-0.404 0.318,-0.402 0.316,-0.4C0.314,-0.398 0.311,-0.397 0.309,-0.397L0.21,-0.397L0.127,0.019C0.121,0.046 0.114,0.07 0.104,0.09C0.095,0.11 0.083,0.126 0.07,0.139C0.056,0.153 0.04,0.162 0.022,0.169C0.005,0.175 -0.016,0.178 -0.038,0.178C-0.053,0.178 -0.065,0.177 -0.074,0.175C-0.083,0.173 -0.089,0.17 -0.091,0.168C-0.093,0.167 -0.094,0.165 -0.094,0.163C-0.095,0.161 -0.095,0.159 -0.095,0.155C-0.095,0.154 -0.095,0.152 -0.094,0.149C-0.094,0.146 -0.093,0.142 -0.093,0.139C-0.092,0.135 -0.091,0.132 -0.09,0.128C-0.089,0.124 -0.088,0.121 -0.087,0.118C-0.086,0.114 -0.084,0.112 -0.083,0.11C-0.081,0.108 -0.079,0.107 -0.077,0.107C-0.074,0.107 -0.072,0.107 -0.07,0.108C-0.068,0.108 -0.066,0.109 -0.063,0.109C-0.061,0.11 -0.058,0.11 -0.054,0.111C-0.051,0.111 -0.047,0.111 -0.042,0.111C-0.028,0.111 -0.016,0.109 -0.006,0.105C0.004,0.101 0.012,0.094 0.019,0.085C0.026,0.076 0.032,0.065 0.037,0.051C0.042,0.038 0.046,0.021 0.05,0.002L0.13,-0.397L0.067,-0.397C0.064,-0.397 0.062,-0.399 0.06,-0.401C0.058,-0.403 0.057,-0.407 0.057,-0.413C0.057,-0.415 0.057,-0.418 0.058,-0.422C0.058,-0.426 0.059,-0.43 0.059,-0.434C0.06,-0.438 0.061,-0.441 0.063,-0.445C0.064,-0.448 0.065,-0.452 0.067,-0.455C0.069,-0.458 0.071,-0.46 0.073,-0.462C0.076,-0.463 0.078,-0.464 0.082,-0.464L0.143,-0.464L0.155,-0.525C0.16,-0.552 0.168,-0.575 0.178,-0.595C0.188,-0.615 0.199,-0.632 0.213,-0.645C0.227,-0.658 0.243,-0.668 0.261,-0.674C0.279,-0.68 0.299,-0.684 0.321,-0.684C0.328,-0.684 0.335,-0.683 0.343,-0.682C0.351,-0.682 0.358,-0.68 0.365,-0.679C0.372,-0.677 0.378,-0.676 0.383,-0.674C0.388,-0.672 0.391,-0.67 0.393,-0.668C0.395,-0.666 0.396,-0.664 0.397,-0.661C0.398,-0.658 0.399,-0.655 0.399,-0.652Z" style="fill-rule:nonzero;"/>
                </g>
                <g transform="matrix(14.04,0,0,14.04,155.165,347.481)">
                    <path d="M0.483,-0.199C0.483,-0.171 0.479,-0.144 0.471,-0.118C0.463,-0.093 0.451,-0.071 0.434,-0.052C0.417,-0.033 0.395,-0.018 0.369,-0.008C0.343,0.003 0.311,0.009 0.275,0.009C0.262,0.009 0.25,0.008 0.238,0.006C0.227,0.004 0.216,0.002 0.205,-0.001C0.195,-0.005 0.186,-0.009 0.177,-0.013C0.168,-0.018 0.16,-0.023 0.152,-0.029C0.153,-0.02 0.154,-0.009 0.155,0.002C0.155,0.013 0.155,0.023 0.155,0.034L0.155,0.162C0.155,0.165 0.155,0.167 0.153,0.169C0.152,0.171 0.15,0.173 0.147,0.174C0.144,0.175 0.14,0.176 0.135,0.177C0.13,0.177 0.123,0.178 0.115,0.178C0.107,0.178 0.1,0.177 0.095,0.177C0.09,0.176 0.086,0.175 0.083,0.174C0.08,0.173 0.078,0.171 0.076,0.169C0.075,0.167 0.075,0.165 0.075,0.162L0.075,-0.475C0.075,-0.508 0.079,-0.538 0.088,-0.564C0.097,-0.59 0.11,-0.611 0.127,-0.629C0.144,-0.647 0.164,-0.66 0.187,-0.67C0.21,-0.679 0.236,-0.684 0.265,-0.684C0.295,-0.684 0.321,-0.68 0.343,-0.671C0.365,-0.662 0.383,-0.65 0.397,-0.634C0.411,-0.619 0.421,-0.602 0.428,-0.582C0.435,-0.563 0.438,-0.542 0.438,-0.521C0.438,-0.486 0.43,-0.456 0.415,-0.43C0.399,-0.405 0.376,-0.386 0.346,-0.374C0.369,-0.371 0.388,-0.364 0.406,-0.354C0.423,-0.344 0.437,-0.331 0.448,-0.315C0.46,-0.299 0.469,-0.281 0.475,-0.261C0.48,-0.241 0.483,-0.221 0.483,-0.199ZM0.397,-0.193C0.397,-0.212 0.395,-0.23 0.39,-0.246C0.386,-0.262 0.378,-0.276 0.368,-0.288C0.358,-0.299 0.345,-0.308 0.328,-0.315C0.312,-0.321 0.292,-0.325 0.269,-0.325L0.227,-0.325C0.221,-0.325 0.217,-0.327 0.214,-0.333C0.211,-0.338 0.21,-0.346 0.21,-0.358C0.21,-0.364 0.21,-0.369 0.211,-0.373C0.212,-0.377 0.213,-0.381 0.214,-0.383C0.216,-0.386 0.217,-0.388 0.219,-0.389C0.221,-0.39 0.223,-0.391 0.226,-0.391L0.236,-0.391C0.257,-0.391 0.276,-0.394 0.291,-0.401C0.306,-0.408 0.318,-0.417 0.328,-0.428C0.337,-0.439 0.344,-0.452 0.348,-0.467C0.352,-0.481 0.354,-0.497 0.354,-0.513C0.354,-0.527 0.353,-0.54 0.35,-0.553C0.346,-0.565 0.341,-0.576 0.334,-0.586C0.326,-0.595 0.317,-0.603 0.305,-0.608C0.293,-0.614 0.278,-0.617 0.261,-0.617C0.243,-0.617 0.228,-0.613 0.214,-0.607C0.201,-0.6 0.19,-0.591 0.181,-0.579C0.173,-0.567 0.166,-0.552 0.162,-0.534C0.157,-0.517 0.155,-0.497 0.155,-0.476L0.155,-0.104C0.173,-0.089 0.192,-0.078 0.212,-0.071C0.232,-0.064 0.251,-0.061 0.271,-0.061C0.293,-0.061 0.312,-0.064 0.328,-0.07C0.344,-0.076 0.358,-0.085 0.368,-0.097C0.378,-0.108 0.385,-0.122 0.39,-0.138C0.395,-0.155 0.397,-0.173 0.397,-0.193Z" style="fill-rule:nonzero;"/>
                </g>
                <g transform="matrix(14.04,0,0,14.04,162.613,347.481)">
                    <path d="M0.453,-0.033C0.453,-0.027 0.452,-0.022 0.451,-0.018C0.45,-0.013 0.449,-0.01 0.447,-0.007C0.446,-0.005 0.444,-0.003 0.442,-0.002C0.44,-0.001 0.437,-0 0.435,-0L0.105,-0C0.103,-0 0.101,-0.001 0.099,-0.002C0.097,-0.003 0.095,-0.005 0.093,-0.007C0.091,-0.01 0.09,-0.013 0.089,-0.018C0.088,-0.022 0.087,-0.027 0.087,-0.033C0.087,-0.039 0.088,-0.044 0.089,-0.048C0.09,-0.053 0.091,-0.056 0.093,-0.059C0.094,-0.062 0.096,-0.064 0.098,-0.065C0.1,-0.067 0.102,-0.067 0.105,-0.067L0.237,-0.067L0.237,-0.548L0.115,-0.475C0.109,-0.472 0.104,-0.47 0.1,-0.469C0.096,-0.469 0.093,-0.469 0.091,-0.471C0.089,-0.474 0.087,-0.477 0.086,-0.482C0.085,-0.487 0.085,-0.493 0.085,-0.5C0.085,-0.506 0.085,-0.511 0.086,-0.515C0.086,-0.519 0.087,-0.522 0.088,-0.524C0.089,-0.527 0.09,-0.529 0.092,-0.531C0.094,-0.533 0.096,-0.535 0.099,-0.537L0.245,-0.63C0.246,-0.631 0.248,-0.632 0.25,-0.633C0.251,-0.633 0.254,-0.634 0.257,-0.635C0.26,-0.635 0.263,-0.636 0.267,-0.636C0.271,-0.636 0.276,-0.636 0.282,-0.636C0.29,-0.636 0.296,-0.636 0.301,-0.635C0.306,-0.635 0.311,-0.634 0.313,-0.633C0.316,-0.631 0.318,-0.63 0.319,-0.628C0.32,-0.626 0.321,-0.625 0.321,-0.623L0.321,-0.067L0.435,-0.067C0.438,-0.067 0.44,-0.067 0.442,-0.065C0.445,-0.064 0.447,-0.062 0.448,-0.059C0.449,-0.056 0.451,-0.053 0.451,-0.048C0.452,-0.044 0.453,-0.039 0.453,-0.033Z" style="fill-rule:nonzero;"/>
                </g>
                <g transform="matrix(14.04,0,0,14.04,169.719,347.481)">
                    <path d="M0.272,-0.247C0.272,-0.234 0.271,-0.225 0.268,-0.22C0.265,-0.215 0.261,-0.213 0.255,-0.213L0.051,-0.213C0.045,-0.213 0.041,-0.215 0.038,-0.22C0.035,-0.226 0.034,-0.234 0.034,-0.247C0.034,-0.259 0.035,-0.268 0.038,-0.272C0.041,-0.277 0.045,-0.28 0.051,-0.28L0.255,-0.28C0.258,-0.28 0.26,-0.279 0.262,-0.278C0.265,-0.277 0.266,-0.275 0.268,-0.273C0.269,-0.27 0.27,-0.266 0.271,-0.262C0.272,-0.258 0.272,-0.253 0.272,-0.247Z" style="fill-rule:nonzero;"/>
                </g>
                <g transform="matrix(14.04,0,0,14.04,174.006,347.481)">
                    <path d="M0.446,-0.181C0.446,-0.152 0.441,-0.126 0.431,-0.102C0.421,-0.079 0.407,-0.059 0.388,-0.042C0.369,-0.026 0.346,-0.013 0.318,-0.004C0.29,0.005 0.259,0.009 0.224,0.009C0.203,0.009 0.183,0.008 0.165,0.004C0.146,0.001 0.13,-0.003 0.116,-0.008C0.101,-0.013 0.09,-0.018 0.08,-0.023C0.071,-0.028 0.065,-0.031 0.062,-0.034C0.06,-0.036 0.058,-0.038 0.057,-0.041C0.055,-0.043 0.054,-0.046 0.053,-0.049C0.052,-0.052 0.052,-0.056 0.051,-0.061C0.051,-0.066 0.05,-0.071 0.05,-0.078C0.05,-0.09 0.051,-0.098 0.054,-0.103C0.056,-0.107 0.059,-0.109 0.063,-0.109C0.066,-0.109 0.072,-0.107 0.081,-0.102C0.089,-0.096 0.101,-0.091 0.114,-0.085C0.128,-0.079 0.143,-0.073 0.161,-0.068C0.179,-0.063 0.2,-0.06 0.222,-0.06C0.243,-0.06 0.262,-0.063 0.278,-0.068C0.295,-0.074 0.308,-0.082 0.319,-0.092C0.33,-0.102 0.339,-0.114 0.344,-0.128C0.35,-0.142 0.353,-0.157 0.353,-0.173C0.353,-0.191 0.349,-0.207 0.342,-0.221C0.335,-0.236 0.325,-0.248 0.311,-0.258C0.298,-0.269 0.281,-0.277 0.261,-0.282C0.242,-0.288 0.219,-0.291 0.194,-0.291L0.134,-0.291C0.132,-0.291 0.129,-0.291 0.127,-0.292C0.124,-0.293 0.122,-0.295 0.12,-0.298C0.119,-0.3 0.117,-0.304 0.116,-0.308C0.115,-0.312 0.114,-0.318 0.114,-0.325C0.114,-0.331 0.115,-0.336 0.116,-0.34C0.117,-0.344 0.118,-0.347 0.12,-0.35C0.122,-0.352 0.124,-0.354 0.126,-0.355C0.128,-0.356 0.131,-0.357 0.134,-0.357L0.189,-0.357C0.21,-0.357 0.23,-0.36 0.247,-0.365C0.264,-0.371 0.278,-0.379 0.29,-0.389C0.302,-0.4 0.311,-0.412 0.318,-0.427C0.324,-0.441 0.327,-0.457 0.327,-0.475C0.327,-0.488 0.325,-0.501 0.321,-0.512C0.317,-0.524 0.31,-0.535 0.302,-0.543C0.293,-0.552 0.282,-0.559 0.269,-0.564C0.256,-0.569 0.241,-0.572 0.224,-0.572C0.205,-0.572 0.187,-0.569 0.172,-0.563C0.156,-0.558 0.142,-0.551 0.129,-0.545C0.117,-0.538 0.107,-0.532 0.099,-0.527C0.09,-0.521 0.085,-0.518 0.082,-0.518C0.079,-0.518 0.077,-0.518 0.075,-0.519C0.074,-0.52 0.072,-0.522 0.071,-0.524C0.07,-0.527 0.069,-0.53 0.069,-0.534C0.068,-0.539 0.068,-0.545 0.068,-0.552C0.068,-0.557 0.068,-0.561 0.068,-0.565C0.069,-0.568 0.069,-0.572 0.07,-0.574C0.071,-0.577 0.072,-0.58 0.074,-0.582C0.075,-0.584 0.077,-0.587 0.08,-0.59C0.083,-0.593 0.09,-0.598 0.099,-0.604C0.109,-0.609 0.12,-0.615 0.134,-0.621C0.148,-0.627 0.164,-0.631 0.182,-0.635C0.2,-0.639 0.219,-0.641 0.24,-0.641C0.27,-0.641 0.295,-0.637 0.317,-0.63C0.34,-0.622 0.358,-0.612 0.373,-0.598C0.388,-0.584 0.399,-0.568 0.406,-0.549C0.413,-0.53 0.417,-0.509 0.417,-0.486C0.417,-0.466 0.414,-0.448 0.409,-0.43C0.404,-0.413 0.396,-0.398 0.386,-0.385C0.376,-0.372 0.364,-0.361 0.349,-0.351C0.334,-0.342 0.318,-0.336 0.298,-0.332L0.298,-0.331C0.32,-0.329 0.34,-0.323 0.358,-0.315C0.376,-0.306 0.392,-0.295 0.405,-0.282C0.418,-0.269 0.428,-0.254 0.435,-0.237C0.443,-0.219 0.446,-0.201 0.446,-0.181Z" style="fill-rule:nonzero;"/>
                </g>
                <g>
                    <g transform="matrix(12,0,0,12,233.87,357.072)">
                        <path d="M0.483,-0.237C0.483,-0.201 0.479,-0.168 0.469,-0.138C0.46,-0.108 0.446,-0.082 0.427,-0.06C0.408,-0.038 0.385,-0.021 0.357,-0.009C0.329,0.003 0.296,0.009 0.259,0.009C0.223,0.009 0.191,0.004 0.164,-0.007C0.137,-0.018 0.115,-0.033 0.097,-0.054C0.079,-0.074 0.066,-0.099 0.057,-0.128C0.048,-0.158 0.044,-0.191 0.044,-0.228C0.044,-0.264 0.049,-0.297 0.058,-0.327C0.067,-0.357 0.081,-0.383 0.1,-0.405C0.119,-0.427 0.142,-0.444 0.17,-0.456C0.198,-0.468 0.231,-0.474 0.268,-0.474C0.304,-0.474 0.336,-0.468 0.363,-0.458C0.389,-0.447 0.412,-0.431 0.43,-0.411C0.448,-0.39 0.461,-0.365 0.47,-0.336C0.479,-0.307 0.483,-0.274 0.483,-0.237ZM0.398,-0.231C0.398,-0.255 0.396,-0.278 0.392,-0.299C0.387,-0.32 0.38,-0.339 0.37,-0.354C0.36,-0.37 0.346,-0.383 0.329,-0.392C0.312,-0.402 0.29,-0.406 0.265,-0.406C0.241,-0.406 0.22,-0.402 0.203,-0.394C0.186,-0.385 0.172,-0.373 0.161,-0.358C0.15,-0.342 0.142,-0.324 0.136,-0.303C0.131,-0.282 0.128,-0.258 0.128,-0.233C0.128,-0.209 0.131,-0.187 0.135,-0.166C0.139,-0.144 0.147,-0.126 0.157,-0.11C0.167,-0.094 0.181,-0.082 0.198,-0.073C0.215,-0.063 0.237,-0.059 0.263,-0.059C0.286,-0.059 0.306,-0.063 0.324,-0.071C0.341,-0.08 0.355,-0.092 0.366,-0.107C0.377,-0.122 0.385,-0.14 0.391,-0.162C0.396,-0.183 0.398,-0.206 0.398,-0.231Z" style="fill-rule:nonzero;"/>
                    </g>
                    <g transform="matrix(14.04,0,0,14.04,249.68,347.477)">
                        <path d="M0.448,-0.203C0.448,-0.169 0.443,-0.139 0.431,-0.113C0.42,-0.086 0.404,-0.064 0.383,-0.046C0.362,-0.028 0.337,-0.014 0.308,-0.005C0.28,0.005 0.248,0.009 0.212,0.009C0.193,0.009 0.174,0.008 0.157,0.005C0.139,0.002 0.124,-0.001 0.11,-0.005C0.096,-0.009 0.085,-0.013 0.076,-0.017C0.067,-0.021 0.062,-0.024 0.059,-0.026C0.057,-0.029 0.055,-0.031 0.054,-0.033C0.053,-0.035 0.052,-0.037 0.052,-0.04C0.051,-0.043 0.05,-0.046 0.05,-0.05C0.049,-0.055 0.049,-0.06 0.049,-0.065C0.049,-0.071 0.05,-0.076 0.05,-0.08C0.051,-0.085 0.051,-0.088 0.053,-0.091C0.054,-0.094 0.056,-0.096 0.057,-0.097C0.059,-0.098 0.061,-0.099 0.063,-0.099C0.067,-0.099 0.072,-0.097 0.079,-0.093C0.085,-0.089 0.095,-0.085 0.106,-0.08C0.118,-0.075 0.132,-0.071 0.149,-0.066C0.166,-0.062 0.187,-0.06 0.21,-0.06C0.232,-0.06 0.252,-0.063 0.27,-0.068C0.288,-0.073 0.304,-0.081 0.317,-0.092C0.33,-0.103 0.341,-0.117 0.348,-0.134C0.356,-0.151 0.359,-0.171 0.359,-0.195C0.359,-0.215 0.356,-0.233 0.35,-0.249C0.344,-0.264 0.334,-0.277 0.321,-0.287C0.307,-0.298 0.291,-0.305 0.271,-0.31C0.25,-0.315 0.226,-0.318 0.198,-0.318C0.178,-0.318 0.161,-0.317 0.147,-0.315C0.133,-0.313 0.119,-0.312 0.107,-0.312C0.098,-0.312 0.091,-0.314 0.087,-0.318C0.083,-0.323 0.082,-0.331 0.082,-0.343L0.082,-0.6C0.082,-0.611 0.084,-0.619 0.089,-0.624C0.094,-0.629 0.101,-0.632 0.111,-0.632L0.391,-0.632C0.393,-0.632 0.396,-0.631 0.398,-0.63C0.401,-0.628 0.403,-0.626 0.404,-0.623C0.406,-0.62 0.407,-0.616 0.408,-0.612C0.409,-0.607 0.409,-0.602 0.409,-0.596C0.409,-0.584 0.408,-0.575 0.404,-0.568C0.401,-0.562 0.396,-0.559 0.391,-0.559L0.155,-0.559L0.155,-0.381C0.166,-0.383 0.178,-0.384 0.19,-0.384C0.202,-0.385 0.215,-0.385 0.231,-0.385C0.267,-0.385 0.299,-0.38 0.326,-0.372C0.353,-0.363 0.375,-0.351 0.393,-0.335C0.411,-0.319 0.425,-0.3 0.434,-0.278C0.444,-0.255 0.448,-0.23 0.448,-0.203Z" style="fill-rule:nonzero;"/>
                    </g>
                    <g transform="matrix(14.04,0,0,14.04,256.789,347.477)">
                        <path d="M0.272,-0.247C0.272,-0.234 0.271,-0.225 0.268,-0.22C0.265,-0.215 0.261,-0.213 0.255,-0.213L0.051,-0.213C0.045,-0.213 0.041,-0.215 0.038,-0.22C0.035,-0.226 0.034,-0.234 0.034,-0.247C0.034,-0.259 0.035,-0.268 0.038,-0.272C0.041,-0.277 0.045,-0.28 0.051,-0.28L0.255,-0.28C0.258,-0.28 0.26,-0.279 0.262,-0.278C0.265,-0.277 0.266,-0.275 0.268,-0.273C0.269,-0.27 0.27,-0.266 0.271,-0.262C0.272,-0.258 0.272,-0.253 0.272,-0.247Z" style="fill-rule:nonzero;"/>
                    </g>
                    <g transform="matrix(14.04,0,0,14.04,261.081,347.477)">
                        <path d="M0.472,-0.447C0.472,-0.415 0.467,-0.387 0.457,-0.361C0.446,-0.336 0.431,-0.314 0.412,-0.296C0.392,-0.278 0.369,-0.265 0.341,-0.255C0.312,-0.245 0.279,-0.24 0.24,-0.24L0.168,-0.24L0.168,-0.013C0.168,-0.01 0.167,-0.008 0.166,-0.006C0.164,-0.004 0.162,-0.002 0.159,-0.001C0.156,-0 0.152,0.001 0.146,0.002C0.141,0.003 0.134,0.003 0.126,0.003C0.118,0.003 0.111,0.003 0.106,0.002C0.1,0.001 0.096,-0 0.093,-0.001C0.09,-0.002 0.087,-0.004 0.086,-0.006C0.085,-0.008 0.084,-0.01 0.084,-0.013L0.084,-0.596C0.084,-0.609 0.087,-0.618 0.094,-0.624C0.101,-0.629 0.109,-0.632 0.117,-0.632L0.252,-0.632C0.266,-0.632 0.279,-0.631 0.292,-0.63C0.304,-0.629 0.319,-0.627 0.336,-0.623C0.353,-0.619 0.371,-0.612 0.388,-0.602C0.406,-0.592 0.421,-0.579 0.434,-0.564C0.446,-0.549 0.455,-0.532 0.462,-0.512C0.469,-0.492 0.472,-0.471 0.472,-0.447ZM0.384,-0.44C0.384,-0.466 0.379,-0.487 0.369,-0.504C0.36,-0.522 0.348,-0.535 0.334,-0.543C0.32,-0.551 0.305,-0.557 0.29,-0.559C0.275,-0.561 0.26,-0.563 0.246,-0.563L0.168,-0.563L0.168,-0.309L0.244,-0.309C0.269,-0.309 0.29,-0.312 0.307,-0.319C0.324,-0.325 0.338,-0.334 0.349,-0.346C0.361,-0.358 0.369,-0.371 0.375,-0.387C0.381,-0.404 0.384,-0.421 0.384,-0.44Z" style="fill-rule:nonzero;"/>
                    </g>
                    <g transform="matrix(14.04,0,0,14.04,268.284,347.477)">
                        <path d="M0.272,-0.247C0.272,-0.234 0.271,-0.225 0.268,-0.22C0.265,-0.215 0.261,-0.213 0.255,-0.213L0.051,-0.213C0.045,-0.213 0.041,-0.215 0.038,-0.22C0.035,-0.226 0.034,-0.234 0.034,-0.247C0.034,-0.259 0.035,-0.268 0.038,-0.272C0.041,-0.277 0.045,-0.28 0.051,-0.28L0.255,-0.28C0.258,-0.28 0.26,-0.279 0.262,-0.278C0.265,-0.277 0.266,-0.275 0.268,-0.273C0.269,-0.27 0.27,-0.266 0.271,-0.262C0.272,-0.258 0.272,-0.253 0.272,-0.247Z" style="fill-rule:nonzero;"/>
                    </g>
                    <g transform="matrix(14.04,0,0,14.04,272.582,347.477)">
                        <path d="M0.446,-0.181C0.446,-0.152 0.441,-0.126 0.431,-0.102C0.421,-0.079 0.407,-0.059 0.388,-0.042C0.369,-0.026 0.346,-0.013 0.318,-0.004C0.29,0.005 0.259,0.009 0.224,0.009C0.203,0.009 0.183,0.008 0.165,0.004C0.146,0.001 0.13,-0.003 0.116,-0.008C0.101,-0.013 0.09,-0.018 0.08,-0.023C0.071,-0.028 0.065,-0.031 0.062,-0.034C0.06,-0.036 0.058,-0.038 0.057,-0.041C0.055,-0.043 0.054,-0.046 0.053,-0.049C0.052,-0.052 0.052,-0.056 0.051,-0.061C0.051,-0.066 0.05,-0.071 0.05,-0.078C0.05,-0.09 0.051,-0.098 0.054,-0.103C0.056,-0.107 0.059,-0.109 0.063,-0.109C0.066,-0.109 0.072,-0.107 0.081,-0.102C0.089,-0.096 0.101,-0.091 0.114,-0.085C0.128,-0.079 0.143,-0.073 0.161,-0.068C0.179,-0.063 0.2,-0.06 0.222,-0.06C0.243,-0.06 0.262,-0.063 0.278,-0.068C0.295,-0.074 0.308,-0.082 0.319,-0.092C0.33,-0.102 0.339,-0.114 0.344,-0.128C0.35,-0.142 0.353,-0.157 0.353,-0.173C0.353,-0.191 0.349,-0.207 0.342,-0.221C0.335,-0.236 0.325,-0.248 0.311,-0.258C0.298,-0.269 0.281,-0.277 0.261,-0.282C0.242,-0.288 0.219,-0.291 0.194,-0.291L0.134,-0.291C0.132,-0.291 0.129,-0.291 0.127,-0.292C0.124,-0.293 0.122,-0.295 0.12,-0.298C0.119,-0.3 0.117,-0.304 0.116,-0.308C0.115,-0.312 0.114,-0.318 0.114,-0.325C0.114,-0.331 0.115,-0.336 0.116,-0.34C0.117,-0.344 0.118,-0.347 0.12,-0.35C0.122,-0.352 0.124,-0.354 0.126,-0.355C0.128,-0.356 0.131,-0.357 0.134,-0.357L0.189,-0.357C0.21,-0.357 0.23,-0.36 0.247,-0.365C0.264,-0.371 0.278,-0.379 0.29,-0.389C0.302,-0.4 0.311,-0.412 0.318,-0.427C0.324,-0.441 0.327,-0.457 0.327,-0.475C0.327,-0.488 0.325,-0.501 0.321,-0.512C0.317,-0.524 0.31,-0.535 0.302,-0.543C0.293,-0.552 0.282,-0.559 0.269,-0.564C0.256,-0.569 0.241,-0.572 0.224,-0.572C0.205,-0.572 0.187,-0.569 0.172,-0.563C0.156,-0.558 0.142,-0.551 0.129,-0.545C0.117,-0.538 0.107,-0.532 0.099,-0.527C0.09,-0.521 0.085,-0.518 0.082,-0.518C0.079,-0.518 0.077,-0.518 0.075,-0.519C0.074,-0.52 0.072,-0.522 0.071,-0.524C0.07,-0.527 0.069,-0.53 0.069,-0.534C0.068,-0.539 0.068,-0.545 0.068,-0.552C0.068,-0.557 0.068,-0.561 0.068,-0.565C0.069,-0.568 0.069,-0.572 0.07,-0.574C0.071,-0.577 0.072,-0.58 0.074,-0.582C0.075,-0.584 0.077,-0.587 0.08,-0.59C0.083,-0.593 0.09,-0.598 0.099,-0.604C0.109,-0.609 0.12,-0.615 0.134,-0.621C0.148,-0.627 0.164,-0.631 0.182,-0.635C0.2,-0.639 0.219,-0.641 0.24,-0.641C0.27,-0.641 0.295,-0.637 0.317,-0.63C0.34,-0.622 0.358,-0.612 0.373,-0.598C0.388,-0.584 0.399,-0.568 0.406,-0.549C0.413,-0.53 0.417,-0.509 0.417,-0.486C0.417,-0.466 0.414,-0.448 0.409,-0.43C0.404,-0.413 0.396,-0.398 0.386,-0.385C0.376,-0.372 0.364,-0.361 0.349,-0.351C0.334,-0.342 0.318,-0.336 0.298,-0.332L0.298,-0.331C0.32,-0.329 0.34,-0.323 0.358,-0.315C0.376,-0.306 0.392,-0.295 0.405,-0.282C0.418,-0.269 0.428,-0.254 0.435,-0.237C0.443,-0.219 0.446,-0.201 0.446,-0.181Z" style="fill-rule:nonzero;"/>
                    </g>
                    <g transform="matrix(14.04,0,0,14.04,299.745,347.477)">
                        <path d="M0.483,-0.199C0.483,-0.171 0.479,-0.144 0.471,-0.118C0.463,-0.093 0.451,-0.071 0.434,-0.052C0.417,-0.033 0.395,-0.018 0.369,-0.008C0.343,0.003 0.311,0.009 0.275,0.009C0.262,0.009 0.25,0.008 0.238,0.006C0.227,0.004 0.216,0.002 0.205,-0.001C0.195,-0.005 0.186,-0.009 0.177,-0.013C0.168,-0.018 0.16,-0.023 0.152,-0.029C0.153,-0.02 0.154,-0.009 0.155,0.002C0.155,0.013 0.155,0.023 0.155,0.034L0.155,0.162C0.155,0.165 0.155,0.167 0.153,0.169C0.152,0.171 0.15,0.173 0.147,0.174C0.144,0.175 0.14,0.176 0.135,0.177C0.13,0.177 0.123,0.178 0.115,0.178C0.107,0.178 0.1,0.177 0.095,0.177C0.09,0.176 0.086,0.175 0.083,0.174C0.08,0.173 0.078,0.171 0.076,0.169C0.075,0.167 0.075,0.165 0.075,0.162L0.075,-0.475C0.075,-0.508 0.079,-0.538 0.088,-0.564C0.097,-0.59 0.11,-0.611 0.127,-0.629C0.144,-0.647 0.164,-0.66 0.187,-0.67C0.21,-0.679 0.236,-0.684 0.265,-0.684C0.295,-0.684 0.321,-0.68 0.343,-0.671C0.365,-0.662 0.383,-0.65 0.397,-0.634C0.411,-0.619 0.421,-0.602 0.428,-0.582C0.435,-0.563 0.438,-0.542 0.438,-0.521C0.438,-0.486 0.43,-0.456 0.415,-0.43C0.399,-0.405 0.376,-0.386 0.346,-0.374C0.369,-0.371 0.388,-0.364 0.406,-0.354C0.423,-0.344 0.437,-0.331 0.448,-0.315C0.46,-0.299 0.469,-0.281 0.475,-0.261C0.48,-0.241 0.483,-0.221 0.483,-0.199ZM0.397,-0.193C0.397,-0.212 0.395,-0.23 0.39,-0.246C0.386,-0.262 0.378,-0.276 0.368,-0.288C0.358,-0.299 0.345,-0.308 0.328,-0.315C0.312,-0.321 0.292,-0.325 0.269,-0.325L0.227,-0.325C0.221,-0.325 0.217,-0.327 0.214,-0.333C0.211,-0.338 0.21,-0.346 0.21,-0.358C0.21,-0.364 0.21,-0.369 0.211,-0.373C0.212,-0.377 0.213,-0.381 0.214,-0.383C0.216,-0.386 0.217,-0.388 0.219,-0.389C0.221,-0.39 0.223,-0.391 0.226,-0.391L0.236,-0.391C0.257,-0.391 0.276,-0.394 0.291,-0.401C0.306,-0.408 0.318,-0.417 0.328,-0.428C0.337,-0.439 0.344,-0.452 0.348,-0.467C0.352,-0.481 0.354,-0.497 0.354,-0.513C0.354,-0.527 0.353,-0.54 0.35,-0.553C0.346,-0.565 0.341,-0.576 0.334,-0.586C0.326,-0.595 0.317,-0.603 0.305,-0.608C0.293,-0.614 0.278,-0.617 0.261,-0.617C0.243,-0.617 0.228,-0.613 0.214,-0.607C0.201,-0.6 0.19,-0.591 0.181,-0.579C0.173,-0.567 0.166,-0.552 0.162,-0.534C0.157,-0.517 0.155,-0.497 0.155,-0.476L0.155,-0.104C0.173,-0.089 0.192,-0.078 0.212,-0.071C0.232,-0.064 0.251,-0.061 0.271,-0.061C0.293,-0.061 0.312,-0.064 0.328,-0.07C0.344,-0.076 0.358,-0.085 0.368,-0.097C0.378,-0.108 0.385,-0.122 0.39,-0.138C0.395,-0.155 0.397,-0.173 0.397,-0.193Z" style="fill-rule:nonzero;"/>
                    </g>
                    <g transform="matrix(14.04,0,0,14.04,307.203,347.477)">
                        <path d="M0.453,-0.033C0.453,-0.027 0.452,-0.022 0.451,-0.018C0.45,-0.013 0.449,-0.01 0.447,-0.007C0.446,-0.005 0.444,-0.003 0.442,-0.002C0.44,-0.001 0.437,-0 0.435,-0L0.105,-0C0.103,-0 0.101,-0.001 0.099,-0.002C0.097,-0.003 0.095,-0.005 0.093,-0.007C0.091,-0.01 0.09,-0.013 0.089,-0.018C0.088,-0.022 0.087,-0.027 0.087,-0.033C0.087,-0.039 0.088,-0.044 0.089,-0.048C0.09,-0.053 0.091,-0.056 0.093,-0.059C0.094,-0.062 0.096,-0.064 0.098,-0.065C0.1,-0.067 0.102,-0.067 0.105,-0.067L0.237,-0.067L0.237,-0.548L0.115,-0.475C0.109,-0.472 0.104,-0.47 0.1,-0.469C0.096,-0.469 0.093,-0.469 0.091,-0.471C0.089,-0.474 0.087,-0.477 0.086,-0.482C0.085,-0.487 0.085,-0.493 0.085,-0.5C0.085,-0.506 0.085,-0.511 0.086,-0.515C0.086,-0.519 0.087,-0.522 0.088,-0.524C0.089,-0.527 0.09,-0.529 0.092,-0.531C0.094,-0.533 0.096,-0.535 0.099,-0.537L0.245,-0.63C0.246,-0.631 0.248,-0.632 0.25,-0.633C0.251,-0.633 0.254,-0.634 0.257,-0.635C0.26,-0.635 0.263,-0.636 0.267,-0.636C0.271,-0.636 0.276,-0.636 0.282,-0.636C0.29,-0.636 0.296,-0.636 0.301,-0.635C0.306,-0.635 0.311,-0.634 0.313,-0.633C0.316,-0.631 0.318,-0.63 0.319,-0.628C0.32,-0.626 0.321,-0.625 0.321,-0.623L0.321,-0.067L0.435,-0.067C0.438,-0.067 0.44,-0.067 0.442,-0.065C0.445,-0.064 0.447,-0.062 0.448,-0.059C0.449,-0.056 0.451,-0.053 0.451,-0.048C0.452,-0.044 0.453,-0.039 0.453,-0.033Z" style="fill-rule:nonzero;"/>
                    </g>
                    <g transform="matrix(14.04,0,0,14.04,314.318,347.477)">
                        <path d="M0.272,-0.247C0.272,-0.234 0.271,-0.225 0.268,-0.22C0.265,-0.215 0.261,-0.213 0.255,-0.213L0.051,-0.213C0.045,-0.213 0.041,-0.215 0.038,-0.22C0.035,-0.226 0.034,-0.234 0.034,-0.247C0.034,-0.259 0.035,-0.268 0.038,-0.272C0.041,-0.277 0.045,-0.28 0.051,-0.28L0.255,-0.28C0.258,-0.28 0.26,-0.279 0.262,-0.278C0.265,-0.277 0.266,-0.275 0.268,-0.273C0.269,-0.27 0.27,-0.266 0.271,-0.262C0.272,-0.258 0.272,-0.253 0.272,-0.247Z" style="fill-rule:nonzero;"/>
                    </g>
                    <g transform="matrix(14.04,0,0,14.04,318.616,347.477)">
                        <path d="M0.446,-0.181C0.446,-0.152 0.441,-0.126 0.431,-0.102C0.421,-0.079 0.407,-0.059 0.388,-0.042C0.369,-0.026 0.346,-0.013 0.318,-0.004C0.29,0.005 0.259,0.009 0.224,0.009C0.203,0.009 0.183,0.008 0.165,0.004C0.146,0.001 0.13,-0.003 0.116,-0.008C0.101,-0.013 0.09,-0.018 0.08,-0.023C0.071,-0.028 0.065,-0.031 0.062,-0.034C0.06,-0.036 0.058,-0.038 0.057,-0.041C0.055,-0.043 0.054,-0.046 0.053,-0.049C0.052,-0.052 0.052,-0.056 0.051,-0.061C0.051,-0.066 0.05,-0.071 0.05,-0.078C0.05,-0.09 0.051,-0.098 0.054,-0.103C0.056,-0.107 0.059,-0.109 0.063,-0.109C0.066,-0.109 0.072,-0.107 0.081,-0.102C0.089,-0.096 0.101,-0.091 0.114,-0.085C0.128,-0.079 0.143,-0.073 0.161,-0.068C0.179,-0.063 0.2,-0.06 0.222,-0.06C0.243,-0.06 0.262,-0.063 0.278,-0.068C0.295,-0.074 0.308,-0.082 0.319,-0.092C0.33,-0.102 0.339,-0.114 0.344,-0.128C0.35,-0.142 0.353,-0.157 0.353,-0.173C0.353,-0.191 0.349,-0.207 0.342,-0.221C0.335,-0.236 0.325,-0.248 0.311,-0.258C0.298,-0.269 0.281,-0.277 0.261,-0.282C0.242,-0.288 0.219,-0.291 0.194,-0.291L0.134,-0.291C0.132,-0.291 0.129,-0.291 0.127,-0.292C0.124,-0.293 0.122,-0.295 0.12,-0.298C0.119,-0.3 0.117,-0.304 0.116,-0.308C0.115,-0.312 0.114,-0.318 0.114,-0.325C0.114,-0.331 0.115,-0.336 0.116,-0.34C0.117,-0.344 0.118,-0.347 0.12,-0.35C0.122,-0.352 0.124,-0.354 0.126,-0.355C0.128,-0.356 0.131,-0.357 0.134,-0.357L0.189,-0.357C0.21,-0.357 0.23,-0.36 0.247,-0.365C0.264,-0.371 0.278,-0.379 0.29,-0.389C0.302,-0.4 0.311,-0.412 0.318,-0.427C0.324,-0.441 0.327,-0.457 0.327,-0.475C0.327,-0.488 0.325,-0.501 0.321,-0.512C0.317,-0.524 0.31,-0.535 0.302,-0.543C0.293,-0.552 0.282,-0.559 0.269,-0.564C0.256,-0.569 0.241,-0.572 0.224,-0.572C0.205,-0.572 0.187,-0.569 0.172,-0.563C0.156,-0.558 0.142,-0.551 0.129,-0.545C0.117,-0.538 0.107,-0.532 0.099,-0.527C0.09,-0.521 0.085,-0.518 0.082,-0.518C0.079,-0.518 0.077,-0.518 0.075,-0.519C0.074,-0.52 0.072,-0.522 0.071,-0.524C0.07,-0.527 0.069,-0.53 0.069,-0.534C0.068,-0.539 0.068,-0.545 0.068,-0.552C0.068,-0.557 0.068,-0.561 0.068,-0.565C0.069,-0.568 0.069,-0.572 0.07,-0.574C0.071,-0.577 0.072,-0.58 0.074,-0.582C0.075,-0.584 0.077,-0.587 0.08,-0.59C0.083,-0.593 0.09,-0.598 0.099,-0.604C0.109,-0.609 0.12,-0.615 0.134,-0.621C0.148,-0.627 0.164,-0.631 0.182,-0.635C0.2,-0.639 0.219,-0.641 0.24,-0.641C0.27,-0.641 0.295,-0.637 0.317,-0.63C0.34,-0.622 0.358,-0.612 0.373,-0.598C0.388,-0.584 0.399,-0.568 0.406,-0.549C0.413,-0.53 0.417,-0.509 0.417,-0.486C0.417,-0.466 0.414,-0.448 0.409,-0.43C0.404,-0.413 0.396,-0.398 0.386,-0.385C0.376,-0.372 0.364,-0.361 0.349,-0.351C0.334,-0.342 0.318,-0.336 0.298,-0.332L0.298,-0.331C0.32,-0.329 0.34,-0.323 0.358,-0.315C0.376,-0.306 0.392,-0.295 0.405,-0.282C0.418,-0.269 0.428,-0.254 0.435,-0.237C0.443,-0.219 0.446,-0.201 0.446,-0.181Z" style="fill-rule:nonzero;"/>
                    </g>
                </g>
                <g transform="matrix(0,1,1,0,287.894,344.766)">
                    <path d="M9,-9C4.029,-9 0,-4.971 0,0C0,4.971 4.029,9 9,9C13.971,9 18,4.971 18,0C18,-4.971 13.971,-9 9,-9" style="fill:rgb(255,192,0);"/>
                </g>
                <g transform="matrix(0,1,1,0,287.894,344.766)">
                    <circle cx="9" cy="0" r="9" style="fill:none;stroke:black;stroke-width:0.75px;"/>
                </g>
                <g transform="matrix(14.04,0,0,14.04,286.007,357.001)">
                    <path d="M0.399,-0.652C0.399,-0.651 0.399,-0.649 0.398,-0.646C0.398,-0.643 0.398,-0.64 0.397,-0.636C0.397,-0.633 0.396,-0.629 0.395,-0.626C0.394,-0.622 0.393,-0.618 0.392,-0.615C0.39,-0.612 0.389,-0.609 0.387,-0.607C0.386,-0.605 0.384,-0.604 0.382,-0.604C0.38,-0.604 0.377,-0.605 0.373,-0.606C0.37,-0.608 0.366,-0.609 0.361,-0.611C0.357,-0.612 0.351,-0.613 0.345,-0.615C0.339,-0.616 0.332,-0.617 0.325,-0.617C0.311,-0.617 0.299,-0.615 0.289,-0.61C0.279,-0.606 0.27,-0.6 0.263,-0.591C0.256,-0.582 0.25,-0.57 0.245,-0.557C0.24,-0.543 0.236,-0.527 0.232,-0.508L0.224,-0.464L0.322,-0.464C0.326,-0.464 0.329,-0.463 0.331,-0.461C0.333,-0.458 0.334,-0.454 0.334,-0.449C0.334,-0.445 0.334,-0.441 0.333,-0.438C0.332,-0.434 0.332,-0.43 0.331,-0.426C0.33,-0.422 0.328,-0.419 0.327,-0.415C0.325,-0.412 0.324,-0.409 0.322,-0.406C0.32,-0.404 0.318,-0.402 0.316,-0.4C0.314,-0.398 0.311,-0.397 0.309,-0.397L0.21,-0.397L0.127,0.019C0.121,0.046 0.114,0.07 0.104,0.09C0.095,0.11 0.083,0.126 0.07,0.139C0.056,0.153 0.04,0.162 0.022,0.169C0.005,0.175 -0.016,0.178 -0.038,0.178C-0.053,0.178 -0.065,0.177 -0.074,0.175C-0.083,0.173 -0.089,0.17 -0.091,0.168C-0.093,0.167 -0.094,0.165 -0.094,0.163C-0.095,0.161 -0.095,0.159 -0.095,0.155C-0.095,0.154 -0.095,0.152 -0.094,0.149C-0.094,0.146 -0.093,0.142 -0.093,0.139C-0.092,0.135 -0.091,0.132 -0.09,0.128C-0.089,0.124 -0.088,0.121 -0.087,0.118C-0.086,0.114 -0.084,0.112 -0.083,0.11C-0.081,0.108 -0.079,0.107 -0.077,0.107C-0.074,0.107 -0.072,0.107 -0.07,0.108C-0.068,0.108 -0.066,0.109 -0.063,0.109C-0.061,0.11 -0.058,0.11 -0.054,0.111C-0.051,0.111 -0.047,0.111 -0.042,0.111C-0.028,0.111 -0.016,0.109 -0.006,0.105C0.004,0.101 0.012,0.094 0.019,0.085C0.026,0.076 0.032,0.065 0.037,0.051C0.042,0.038 0.046,0.021 0.05,0.002L0.13,-0.397L0.067,-0.397C0.064,-0.397 0.062,-0.399 0.06,-0.401C0.058,-0.403 0.057,-0.407 0.057,-0.413C0.057,-0.415 0.057,-0.418 0.058,-0.422C0.058,-0.426 0.059,-0.43 0.059,-0.434C0.06,-0.438 0.061,-0.441 0.063,-0.445C0.064,-0.448 0.065,-0.452 0.067,-0.455C0.069,-0.458 0.071,-0.46 0.073,-0.462C0.076,-0.463 0.078,-0.464 0.082,-0.464L0.143,-0.464L0.155,-0.525C0.16,-0.552 0.168,-0.575 0.178,-0.595C0.188,-0.615 0.199,-0.632 0.213,-0.645C0.227,-0.658 0.243,-0.668 0.261,-0.674C0.279,-0.68 0.299,-0.684 0.321,-0.684C0.328,-0.684 0.335,-0.683 0.343,-0.682C0.351,-0.682 0.358,-0.68 0.365,-0.679C0.372,-0.677 0.378,-0.676 0.383,-0.674C0.388,-0.672 0.391,-0.67 0.393,-0.668C0.395,-0.666 0.396,-0.664 0.397,-0.661C0.398,-0.658 0.399,-0.655 0.399,-0.652Z" style="fill-rule:nonzero;"/>
                </g>
                <g transform="matrix(14.04,0,0,14.04,346.491,347.481)">
                    <path d="M0.547,-0.038C0.547,-0.028 0.547,-0.02 0.546,-0.015C0.545,-0.01 0.543,-0.007 0.541,-0.005C0.539,-0.003 0.536,-0.001 0.532,0C0.528,0.002 0.523,0.003 0.517,0.005C0.511,0.006 0.505,0.007 0.5,0.008C0.494,0.008 0.487,0.009 0.481,0.009C0.469,0.009 0.457,0.007 0.446,0.004C0.434,0.001 0.424,-0.004 0.415,-0.011C0.406,-0.018 0.399,-0.028 0.393,-0.04C0.386,-0.052 0.382,-0.068 0.38,-0.087C0.374,-0.073 0.366,-0.06 0.356,-0.048C0.347,-0.037 0.335,-0.026 0.323,-0.018C0.31,-0.009 0.295,-0.003 0.28,0.002C0.264,0.007 0.247,0.009 0.229,0.009C0.197,0.009 0.169,0.003 0.146,-0.009C0.123,-0.021 0.104,-0.037 0.09,-0.059C0.075,-0.08 0.064,-0.105 0.058,-0.134C0.051,-0.163 0.047,-0.194 0.047,-0.227C0.047,-0.265 0.052,-0.299 0.06,-0.329C0.069,-0.359 0.081,-0.385 0.098,-0.407C0.115,-0.428 0.135,-0.445 0.16,-0.456C0.184,-0.468 0.212,-0.474 0.245,-0.474C0.265,-0.474 0.285,-0.47 0.303,-0.464C0.321,-0.457 0.338,-0.447 0.352,-0.434C0.366,-0.421 0.377,-0.405 0.386,-0.385C0.395,-0.366 0.401,-0.344 0.404,-0.318C0.41,-0.341 0.414,-0.362 0.417,-0.379C0.42,-0.396 0.423,-0.411 0.424,-0.422C0.426,-0.434 0.427,-0.443 0.427,-0.449C0.428,-0.455 0.429,-0.459 0.431,-0.46C0.432,-0.461 0.433,-0.462 0.435,-0.463C0.436,-0.463 0.438,-0.464 0.441,-0.465C0.444,-0.465 0.447,-0.466 0.451,-0.466C0.455,-0.467 0.46,-0.467 0.466,-0.467C0.474,-0.467 0.48,-0.467 0.485,-0.466C0.49,-0.466 0.494,-0.465 0.497,-0.463C0.5,-0.462 0.502,-0.46 0.503,-0.458C0.505,-0.457 0.505,-0.454 0.505,-0.452C0.505,-0.447 0.505,-0.439 0.503,-0.428C0.501,-0.417 0.499,-0.404 0.496,-0.389C0.493,-0.375 0.49,-0.358 0.485,-0.341C0.481,-0.324 0.477,-0.306 0.472,-0.288C0.467,-0.27 0.462,-0.252 0.457,-0.235C0.451,-0.218 0.445,-0.202 0.439,-0.188C0.44,-0.16 0.441,-0.138 0.444,-0.121C0.447,-0.105 0.451,-0.092 0.456,-0.082C0.461,-0.073 0.467,-0.067 0.473,-0.064C0.479,-0.061 0.486,-0.059 0.493,-0.059C0.499,-0.059 0.504,-0.06 0.509,-0.061C0.514,-0.062 0.518,-0.063 0.522,-0.064C0.525,-0.065 0.529,-0.066 0.531,-0.067C0.534,-0.068 0.537,-0.069 0.539,-0.069C0.54,-0.069 0.542,-0.068 0.542,-0.068C0.543,-0.067 0.544,-0.065 0.545,-0.063C0.546,-0.061 0.547,-0.058 0.547,-0.053C0.547,-0.049 0.547,-0.044 0.547,-0.038ZM0.358,-0.235C0.358,-0.265 0.355,-0.292 0.349,-0.313C0.343,-0.335 0.334,-0.353 0.324,-0.367C0.313,-0.381 0.301,-0.391 0.288,-0.397C0.274,-0.404 0.26,-0.407 0.246,-0.407C0.225,-0.407 0.208,-0.402 0.193,-0.392C0.179,-0.382 0.167,-0.369 0.157,-0.353C0.148,-0.337 0.141,-0.319 0.137,-0.298C0.133,-0.278 0.131,-0.257 0.131,-0.235C0.131,-0.212 0.132,-0.19 0.136,-0.169C0.139,-0.147 0.145,-0.128 0.153,-0.112C0.162,-0.096 0.173,-0.082 0.187,-0.073C0.201,-0.063 0.218,-0.058 0.24,-0.058C0.259,-0.058 0.276,-0.062 0.291,-0.071C0.306,-0.08 0.318,-0.092 0.328,-0.108C0.338,-0.123 0.345,-0.142 0.351,-0.163C0.356,-0.185 0.358,-0.208 0.358,-0.233L0.358,-0.235Z" style="fill-rule:nonzero;"/>
                </g>
                <g transform="matrix(14.04,0,0,14.04,354.414,347.481)">
                    <path d="M0.453,-0.033C0.453,-0.027 0.452,-0.022 0.451,-0.018C0.45,-0.013 0.449,-0.01 0.447,-0.007C0.446,-0.005 0.444,-0.003 0.442,-0.002C0.44,-0.001 0.437,-0 0.435,-0L0.105,-0C0.103,-0 0.101,-0.001 0.099,-0.002C0.097,-0.003 0.095,-0.005 0.093,-0.007C0.091,-0.01 0.09,-0.013 0.089,-0.018C0.088,-0.022 0.087,-0.027 0.087,-0.033C0.087,-0.039 0.088,-0.044 0.089,-0.048C0.09,-0.053 0.091,-0.056 0.093,-0.059C0.094,-0.062 0.096,-0.064 0.098,-0.065C0.1,-0.067 0.102,-0.067 0.105,-0.067L0.237,-0.067L0.237,-0.548L0.115,-0.475C0.109,-0.472 0.104,-0.47 0.1,-0.469C0.096,-0.469 0.093,-0.469 0.091,-0.471C0.089,-0.474 0.087,-0.477 0.086,-0.482C0.085,-0.487 0.085,-0.493 0.085,-0.5C0.085,-0.506 0.085,-0.511 0.086,-0.515C0.086,-0.519 0.087,-0.522 0.088,-0.524C0.089,-0.527 0.09,-0.529 0.092,-0.531C0.094,-0.533 0.096,-0.535 0.099,-0.537L0.245,-0.63C0.246,-0.631 0.248,-0.632 0.25,-0.633C0.251,-0.633 0.254,-0.634 0.257,-0.635C0.26,-0.635 0.263,-0.636 0.267,-0.636C0.271,-0.636 0.276,-0.636 0.282,-0.636C0.29,-0.636 0.296,-0.636 0.301,-0.635C0.306,-0.635 0.311,-0.634 0.313,-0.633C0.316,-0.631 0.318,-0.63 0.319,-0.628C0.32,-0.626 0.321,-0.625 0.321,-0.623L0.321,-0.067L0.435,-0.067C0.438,-0.067 0.44,-0.067 0.442,-0.065C0.445,-0.064 0.447,-0.062 0.448,-0.059C0.449,-0.056 0.451,-0.053 0.451,-0.048C0.452,-0.044 0.453,-0.039 0.453,-0.033Z" style="fill-rule:nonzero;"/>
                </g>
                <g transform="matrix(14.04,0,0,14.04,361.486,347.481)">
                    <path d="M0.272,-0.247C0.272,-0.234 0.271,-0.225 0.268,-0.22C0.265,-0.215 0.261,-0.213 0.255,-0.213L0.051,-0.213C0.045,-0.213 0.041,-0.215 0.038,-0.22C0.035,-0.226 0.034,-0.234 0.034,-0.247C0.034,-0.259 0.035,-0.268 0.038,-0.272C0.041,-0.277 0.045,-0.28 0.051,-0.28L0.255,-0.28C0.258,-0.28 0.26,-0.279 0.262,-0.278C0.265,-0.277 0.266,-0.275 0.268,-0.273C0.269,-0.27 0.27,-0.266 0.271,-0.262C0.272,-0.258 0.272,-0.253 0.272,-0.247Z" style="fill-rule:nonzero;"/>
                </g>
            </g>
        </g>
    </g>
</svg>
